<svg width="20" height="20" viewBox="0 0 20 20" fill="none" xmlns="http://www.w3.org/2000/svg">
<g opacity="0.7">
<path d="M19.9496 9.00488C19.5622 9.06289 19.1421 9.13859 18.7001 9.23738C18.0556 9.38145 17.3173 9.58629 16.5424 9.87699L16.698 10.1571C16.8552 10.44 16.7532 10.7967 16.4704 10.9539C16.3802 11.0039 16.2826 11.0277 16.1863 11.0277C15.9804 11.0277 15.7807 10.919 15.6736 10.7262L15.4561 10.3348C14.5647 10.7544 13.6605 11.2965 12.8228 11.9952L13.2855 12.458C13.5144 12.6868 13.5144 13.0578 13.2855 13.2866C13.1711 13.4011 13.0212 13.4582 12.8713 13.4582C12.7213 13.4582 12.5713 13.4011 12.457 13.2866L11.9651 12.7948C11.238 13.5523 10.6348 14.4079 10.158 15.3596L10.7252 15.6746C11.008 15.8318 11.11 16.1885 10.9528 16.4714C10.8457 16.6641 10.6459 16.7729 10.44 16.7729C10.3438 16.7729 10.2462 16.7491 10.156 16.6991L9.68727 16.4386C9.28547 17.5036 9.02098 18.6714 8.89453 19.9385C9.25883 19.9787 9.62719 19.9997 9.99867 19.9997C12.6593 19.9997 15.1677 18.9567 17.0617 17.0627C18.9557 15.1687 19.9987 12.6604 19.9987 9.99973C19.9987 9.66539 19.9822 9.33348 19.9496 9.00488Z" fill="#8190B0"/>
<path d="M3.30063 9.84262C3.14348 9.55973 3.24539 9.20301 3.52828 9.04586C3.81113 8.88867 4.16789 8.99062 4.325 9.27352L4.6402 9.84082C5.5918 9.36395 6.4473 8.7607 7.20492 8.03359L6.71305 7.54172C6.48422 7.31289 6.48422 6.94191 6.71305 6.71309C6.94184 6.48426 7.31285 6.48426 7.54168 6.71309L8.0052 7.1766C8.69902 6.34609 9.24168 5.4466 9.66594 4.54309L9.27348 4.32504C8.99063 4.16789 8.88867 3.81117 9.04586 3.52828C9.20301 3.24543 9.55965 3.14348 9.84262 3.30063L10.1223 3.45602C10.5831 2.22137 10.8444 1.02898 10.9922 0.0487891C10.6645 0.0164062 10.3334 0 10 0C7.33934 0 4.83098 1.04305 2.93703 2.93703C1.04309 4.83102 0 7.33934 0 10C0 10.3715 0.0210938 10.7399 0.0612109 11.1042C1.3284 10.9778 2.49621 10.7133 3.56113 10.3116L3.30063 9.84262Z" fill="#8190B0"/>
<path d="M8.73703 14.5704L9.13129 14.7895C9.66031 13.7456 10.3298 12.804 11.137 11.9667L10.6898 11.5195C10.461 11.2907 10.461 10.9197 10.6898 10.6909C10.9186 10.4621 11.2896 10.4621 11.5184 10.6909L11.9916 11.1641C12.9134 10.3814 13.9074 9.77666 14.8868 9.30943L14.5694 8.7381C14.4123 8.45521 14.5142 8.0985 14.7971 7.94135C15.0799 7.78416 15.4366 7.88611 15.5938 8.169L15.9683 8.84318C16.8734 8.49252 17.7363 8.25123 18.4823 8.08607C18.9365 7.98553 19.3673 7.90775 19.7657 7.8476C19.3601 6.00545 18.4348 4.31002 17.0622 2.93736C15.6896 1.56471 13.9941 0.639473 12.152 0.233887C12.0918 0.632285 12.0141 1.06311 11.9135 1.51732C11.7484 2.26334 11.5071 3.12615 11.1564 4.03127L11.8306 4.4058C12.1134 4.56295 12.2154 4.91967 12.0582 5.20256C11.9511 5.39529 11.7514 5.50404 11.5455 5.50404C11.4492 5.50404 11.3516 5.48029 11.2614 5.43021L10.6902 5.11283C10.223 6.09221 9.61817 7.08619 8.83551 8.00799L9.30871 8.48119C9.53754 8.71002 9.53754 9.081 9.30871 9.30982C9.1943 9.42424 9.04434 9.48143 8.89441 9.48143C8.74449 9.48143 8.59449 9.42424 8.48012 9.30982L8.03301 8.86271C7.19578 9.66986 6.25352 10.3384 5.20965 10.8674L5.42914 11.2626C5.58629 11.5454 5.48438 11.9022 5.20148 12.0593C5.11137 12.1094 5.01371 12.1331 4.91746 12.1331C4.71156 12.1331 4.5118 12.0244 4.40473 11.8317L4.13637 11.3487C2.95574 11.8121 1.66148 12.1173 0.257812 12.2632C0.675664 14.0627 1.59102 15.7181 2.93625 17.0633C4.28152 18.4086 5.93695 19.324 7.7366 19.7418C7.8825 18.3381 8.18789 17.0441 8.65137 15.8635L8.16789 15.5949C7.88504 15.4377 7.78309 15.081 7.94027 14.7981C8.09738 14.5153 8.45402 14.4133 8.73703 14.5704Z" fill="#8190B0"/>
</g>
</svg>
