<svg width="14" height="14" viewBox="0 0 14 14" fill="none" xmlns="http://www.w3.org/2000/svg">
<path d="M13.9651 6.30371C13.6939 6.34432 13.3998 6.39731 13.0905 6.46646C12.6393 6.5673 12.1225 6.7107 11.5801 6.91419L11.689 7.11027C11.799 7.30829 11.7277 7.558 11.5296 7.668C11.4666 7.70305 11.3982 7.71968 11.3308 7.71968C11.1867 7.71968 11.0469 7.64358 10.9719 7.50864L10.8197 7.23466C10.1957 7.52836 9.56277 7.90783 8.97633 8.39696L9.30027 8.7209C9.46045 8.88108 9.46045 9.14076 9.30027 9.30094C9.22018 9.38103 9.11521 9.42106 9.01027 9.42106C8.90532 9.42106 8.80032 9.38103 8.72026 9.30094L8.37595 8.95663C7.867 9.48693 7.44478 10.0858 7.11097 10.752L7.508 10.9725C7.706 11.0826 7.77736 11.3323 7.66733 11.5303C7.59238 11.6652 7.45255 11.7413 7.30842 11.7413C7.24102 11.7413 7.17271 11.7247 7.1096 11.6896L6.78148 11.5073C6.50022 12.2528 6.31507 13.0703 6.22656 13.9572C6.48157 13.9854 6.73942 14.0001 6.99946 14.0001C8.86193 14.0001 10.6178 13.27 11.9436 11.9442C13.2694 10.6184 13.9995 8.86257 13.9995 7.0001C13.9995 6.76607 13.9879 6.53373 13.9651 6.30371Z" fill="white"/>
<path d="M2.31044 6.88983C2.20043 6.69181 2.27177 6.44211 2.4698 6.3321C2.66779 6.22207 2.91752 6.29344 3.0275 6.49146L3.24814 6.88857C3.91426 6.55476 4.51311 6.13249 5.04345 5.62352L4.69913 5.2792C4.53895 5.11902 4.53895 4.85934 4.69913 4.69916C4.85929 4.53898 5.119 4.53898 5.27918 4.69916L5.60364 5.02362C6.08932 4.44227 6.46918 3.81262 6.76616 3.18016L6.49143 3.02753C6.29344 2.91752 6.22207 2.66782 6.3321 2.4698C6.44211 2.2718 6.69175 2.20043 6.88983 2.31044L7.08564 2.41921C7.40819 1.55496 7.59109 0.720289 7.69456 0.0341523C7.46514 0.0114844 7.23341 0 7 0C5.13754 0 3.38168 0.730133 2.05592 2.05592C0.73016 3.38171 0 5.13754 0 7C0 7.26004 0.0147656 7.51792 0.0428477 7.77293C0.929879 7.68444 1.74735 7.49932 2.49279 7.21809L2.31044 6.88983Z" fill="white"/>
<path d="M6.11514 10.1992L6.39112 10.3525C6.76144 9.62175 7.23008 8.96263 7.79511 8.37654L7.48208 8.06351C7.3219 7.90333 7.3219 7.64365 7.48208 7.48347C7.64223 7.32329 7.90195 7.32329 8.06213 7.48347L8.39337 7.81471C9.03863 7.26685 9.73442 6.84352 10.42 6.51646L10.1978 6.11653C10.0878 5.9185 10.1591 5.6688 10.3572 5.5588C10.5552 5.44877 10.8049 5.52013 10.9149 5.71816L11.177 6.19008C11.8106 5.94462 12.4146 5.77571 12.9368 5.66011C13.2548 5.58972 13.5563 5.53528 13.8352 5.49317C13.5513 4.20367 12.9036 3.01687 11.9428 2.05601C10.9819 1.09515 9.79512 0.447484 8.50561 0.163574C8.46348 0.442453 8.40906 0.744027 8.33868 1.06198C8.22307 1.58419 8.05417 2.18816 7.8087 2.82174L8.28063 3.08391C8.47863 3.19392 8.54999 3.44362 8.43996 3.64164C8.36501 3.77656 8.22518 3.85268 8.08105 3.85268C8.01365 3.85268 7.94534 3.83606 7.88223 3.801L7.48233 3.57884C7.1553 4.2644 6.73193 4.96019 6.18407 5.60545L6.51532 5.93669C6.6755 6.09687 6.6755 6.35655 6.51532 6.51673C6.43523 6.59682 6.33025 6.63685 6.22531 6.63685C6.12036 6.63685 6.01536 6.59682 5.9353 6.51673L5.62232 6.20375C5.03627 6.76876 4.37668 7.23675 3.64597 7.60706L3.79962 7.88364C3.90962 8.08167 3.83828 8.33137 3.64026 8.44137C3.57718 8.47643 3.50882 8.49305 3.44144 8.49305C3.29731 8.49305 3.15748 8.41696 3.08253 8.28201L2.89468 7.94391C2.06824 8.26834 1.16226 8.48195 0.179688 8.58408C0.472184 9.84375 1.11293 11.0025 2.05459 11.9442C2.99629 12.8859 4.15509 13.5267 5.41484 13.8191C5.51697 12.8366 5.73074 11.9307 6.05518 11.1043L5.71674 10.9163C5.51875 10.8063 5.44738 10.5566 5.55741 10.3585C5.66739 10.1605 5.91704 10.0892 6.11514 10.1992Z" fill="white"/>
</svg>
