<svg width="20" height="20" viewBox="0 0 20 20" fill="none" xmlns="http://www.w3.org/2000/svg">
<path d="M6.86407 7.72656C7.82616 7.53902 8.76495 7.28125 9.65664 7C8.4716 4.83199 7.00488 2.87496 5.27997 1.22266C2.7455 2.58199 0.817166 5.00781 0.195312 7.9023C2.06103 8.2773 4.36477 8.23047 6.86407 7.72656Z" fill="white"/>
<path d="M16.3604 2.34762L16.1961 2.99215C15.938 4.0234 13.7555 5.49996 10.8925 6.56641L10.7633 6.61324C9.6017 4.42184 8.13497 2.42965 6.42188 0.707031C7.52485 0.273438 8.7334 0 9.98892 0C12.23 0 14.3187 0.789062 15.9849 2.04293C16.1139 2.13668 16.2431 2.23047 16.3604 2.34762Z" fill="white"/>
<path d="M11.2192 10.4805C10.9141 9.64848 10.5738 8.83988 10.1984 8.05469C9.21275 8.38285 8.16844 8.6641 7.10063 8.875C5.93898 9.10938 4.42535 9.32031 2.82956 9.32031C1.91428 9.32031 0.936462 9.25 0.0095301 9.07418C-0.0139766 9.37887 0.0134023 9.68359 0.0134023 10C0.0134023 13.082 1.42146 15.8359 3.61568 17.664C3.62742 17.5937 3.63919 17.5234 3.65085 17.4531C4.09677 14.7579 7.218 11.9102 11.2192 10.4805Z" fill="white"/>
<path d="M11.6051 11.582C12.403 14.0898 12.8489 16.8125 12.8958 19.5664C11.9806 19.8477 10.9949 20 9.98584 20C8.0967 20 6.32489 19.4336 4.82292 18.5195C4.76425 18.2383 4.76425 17.9453 4.81127 17.6406C5.17502 15.4258 8.08496 12.8594 11.6051 11.582Z" fill="white"/>
<path d="M19.8959 11.4179C19.4031 14.8516 17.1229 17.7226 14.0486 19.0937C13.9665 16.375 13.4971 13.7265 12.7109 11.2304C15.3393 10.5039 17.8308 10.5859 19.8959 11.4179Z" fill="white"/>
<path d="M19.9994 9.99996V10.2109C17.7583 9.37883 15.1025 9.34371 12.3334 10.1289C12.0283 9.28516 11.6763 8.46484 11.3008 7.66797C13.2295 6.94473 16.8289 5.2802 17.332 3.27344C18.963 5.04289 19.9994 7.41008 19.9994 9.99996Z" fill="white"/>
</svg>
