<svg width="14" height="14" viewBox="0 0 14 14" fill="none" xmlns="http://www.w3.org/2000/svg">
<path d="M13.7083 0.000976562C10.2364 0.000976562 7.01578 2.83773 4.90061 5.25448C0.339519 5.29238 0.00351935 9.56355 0.000620915 9.6073C-0.00580485 9.70588 0.0379451 9.80098 0.117871 9.86048C0.169195 9.89841 0.22987 9.91765 0.291695 9.91765C0.32612 9.91765 0.36112 9.91123 0.39437 9.89898L2.55154 9.0899L4.91111 11.4495L4.10204 13.6067C4.06704 13.6994 4.08221 13.8038 4.14111 13.8832C4.19594 13.9578 4.28286 14.001 4.37504 14.001C4.38146 14.001 4.38729 14.001 4.39429 14.0004C4.43746 13.9975 8.7086 13.6615 8.74653 9.10098C11.1633 6.9858 14 3.76465 14 0.292652C14 0.131625 13.8693 0.000976562 13.7083 0.000976562ZM9.33335 6.41763C8.36853 6.41763 7.58336 5.63245 7.58336 4.66763C7.58336 3.7028 8.36853 2.91763 9.33335 2.91763C10.2982 2.91763 11.0833 3.7028 11.0833 4.66763C11.0833 5.63245 10.2982 6.41763 9.33335 6.41763Z" fill="white"/>
</svg>
