<svg width="14" height="14" viewBox="0 0 14 14" fill="none" xmlns="http://www.w3.org/2000/svg">
<g clip-path="url(#clip0)">
<path d="M3.42491 10.586C3.40973 10.5715 3.39341 10.5586 3.37591 10.5475C2.81649 10.0033 2.27691 9.81486 1.77174 9.9881C0.44349 10.4431 0.0433151 13.3428 0.00191678 13.6718C-0.0085832 13.7553 0.0404167 13.8375 0.0958424 13.9005C0.151268 13.9629 0.253916 13.9979 0.337916 13.9979C0.666915 13.9571 3.56666 13.5564 4.02223 12.2281C4.19956 11.7118 3.99831 11.1594 3.42491 10.586Z" fill="white"/>
<path d="M13.7086 0.000976562C10.2366 0.000976562 7.01603 2.83773 4.90086 5.25448C0.339763 5.29238 0.00376349 9.56355 0.000865055 9.6073C-0.00556071 9.70588 0.0381892 9.80098 0.118115 9.86048C0.169439 9.89841 0.230115 9.91765 0.291939 9.91765C0.326364 9.91765 0.361364 9.91123 0.394614 9.89898L2.55179 9.0899L4.91136 11.4495L4.10228 13.6067C4.06728 13.6994 4.08246 13.8038 4.14136 13.8832C4.19618 13.9578 4.28311 14.001 4.37528 14.001C4.38171 14.001 4.38753 14.001 4.39453 14.0004C4.43771 13.9975 8.70885 13.6615 8.74677 9.10098C11.1635 6.9858 14.0003 3.76465 14.0003 0.292652C14.0002 0.131625 13.8696 0.000976562 13.7086 0.000976562ZM9.3336 6.41763C8.36877 6.41763 7.5836 5.63245 7.5836 4.66763C7.5836 3.7028 8.36877 2.91763 9.3336 2.91763C10.2984 2.91763 11.0836 3.7028 11.0836 4.66763C11.0836 5.63245 10.2984 6.41763 9.3336 6.41763Z" fill="white"/>
<path d="M9.33342 5.83335C9.97776 5.83335 10.5001 5.31101 10.5001 4.66667C10.5001 4.02234 9.97776 3.5 9.33342 3.5C8.68909 3.5 8.16675 4.02234 8.16675 4.66667C8.16675 5.31101 8.68909 5.83335 9.33342 5.83335Z" fill="white"/>
</g>
<defs>
<clipPath id="clip0">
<rect width="14" height="14" fill="white"/>
</clipPath>
</defs>
</svg>
