<svg width="14" height="14" viewBox="0 0 14 14" fill="none" xmlns="http://www.w3.org/2000/svg">
<path d="M0.320312 1.1128V12.8867C0.320312 13.503 0.818867 14 1.43311 14H12.5699C13.1842 14 13.6832 13.5025 13.6832 12.8867V1.1128C13.6832 0.499592 13.1836 0 12.5694 0H1.43311C0.818867 0 0.320312 0.499592 0.320312 1.1128ZM4.55569 10.8012C4.55569 11.5965 3.91032 12.2429 3.11502 12.2429C2.31868 12.2429 1.67435 11.5965 1.67435 10.8012C1.67435 10.0069 2.31868 9.36048 3.11502 9.36048C3.91032 9.36048 4.55569 10.0069 4.55569 10.8012ZM12.295 2.90314C12.295 3.69947 11.6486 4.34485 10.8533 4.34485C10.059 4.34485 9.41362 3.69947 9.41362 2.90314C9.41362 2.10783 10.059 1.46246 10.8533 1.46246C11.6486 1.46194 12.295 2.10731 12.295 2.90314Z" fill="white"/>
</svg>
