<svg width="14" height="14" viewBox="0 0 14 14" fill="none" xmlns="http://www.w3.org/2000/svg">
<path d="M0.319092 1.1128V12.8867C0.319092 13.503 0.817647 14 1.43189 14H12.5687C13.1829 14 13.682 13.5025 13.682 12.8867V1.1128C13.682 0.499592 13.1824 0 12.5682 0H1.43189C0.817647 0 0.319092 0.499592 0.319092 1.1128ZM4.55447 10.8012C4.55447 11.5965 3.9091 12.2429 3.1138 12.2429C2.31746 12.2429 1.67313 11.5965 1.67313 10.8012C1.67313 10.0069 2.31746 9.36048 3.1138 9.36048C3.9091 9.36048 4.55447 10.0069 4.55447 10.8012ZM12.2937 2.90314C12.2937 3.69947 11.6473 4.34485 10.852 4.34485C10.0578 4.34485 9.4124 3.69947 9.4124 2.90314C9.4124 2.10783 10.0578 1.46246 10.852 1.46246C11.6473 1.46194 12.2937 2.10731 12.2937 2.90314Z" fill="white"/>
</svg>
