<svg width="14" height="14" viewBox="0 0 14 14" fill="none" xmlns="http://www.w3.org/2000/svg">
<g clip-path="url(#clip0)">
<path d="M6.52293 2.37892L5.25049 1.04674C5.09916 0.888251 4.89515 0.798209 4.67607 0.793205C4.45653 0.788009 4.2491 0.868783 4.09067 1.02013L0.2547 4.68411C0.0962432 4.83546 0.00620026 5.03944 0.00119635 5.25852C-0.00380755 5.4776 0.0767745 5.68549 0.228122 5.8439L2.70798 8.44021V4.01955C2.70798 3.11491 3.44397 2.37892 4.34861 2.37892H6.52293Z" fill="white"/>
<path d="M13.383 2.47299L8.24111 1.1691C8.02871 1.11516 7.80804 1.14728 7.61975 1.25939C7.43146 1.3715 7.29813 1.55022 7.24429 1.76257L7.08813 2.37844H9.65413C10.5588 2.37844 11.2948 3.11442 11.2948 4.01906V12.1813C11.3816 12.1629 11.4658 12.1302 11.5443 12.0834C11.7326 11.9713 11.8659 11.7926 11.9198 11.5803L13.9765 3.46978C14.0877 3.03132 13.8215 2.58417 13.383 2.47299Z" fill="white"/>
<path d="M9.65234 3.19922H4.34766C3.89534 3.19922 3.52734 3.56721 3.52734 4.01953V12.3867C3.52734 12.839 3.89534 13.207 4.34766 13.207H9.65234C10.1047 13.207 10.4727 12.839 10.4727 12.3867V4.01953C10.4727 3.56721 10.1047 3.19922 9.65234 3.19922ZM5.46875 4.7305C5.69527 4.7305 5.87891 4.91414 5.87891 5.14065C5.87891 5.36717 5.69527 5.55081 5.46875 5.55081C5.24223 5.55081 5.05859 5.36717 5.05859 5.14065C5.05859 4.91414 5.24223 4.7305 5.46875 4.7305ZM7 10.1445C6.90219 10.1445 6.80441 10.1097 6.72654 10.0401L5.50348 8.946C5.50072 8.94354 5.49804 8.94105 5.49533 8.93853C5.18845 8.64875 5.04085 8.21051 5.10043 7.76625C5.15709 7.34371 5.39774 6.98108 5.74421 6.79618C5.91251 6.70657 6.09027 6.66121 6.2729 6.66121C6.54995 6.66121 6.80318 6.76676 7 6.94359C7.19682 6.76676 7.45005 6.66121 7.7271 6.66121C7.90973 6.66121 8.08749 6.70655 8.25546 6.79602C8.60226 6.98108 8.84289 7.34368 8.89957 7.76623C8.95915 8.21048 8.81152 8.64872 8.50467 8.93851C8.50197 8.94105 8.49929 8.94354 8.49652 8.94597L7.27347 10.0401C7.19562 10.1097 7.09781 10.1445 7 10.1445ZM8.53125 11.6757C8.30473 11.6757 8.12109 11.4921 8.12109 11.2656C8.12109 11.0391 8.30473 10.8554 8.53125 10.8554C8.75777 10.8554 8.94141 11.0391 8.94141 11.2656C8.94141 11.4921 8.75777 11.6757 8.53125 11.6757Z" fill="white"/>
</g>
<defs>
<clipPath id="clip0">
<rect width="14" height="14" fill="white"/>
</clipPath>
</defs>
</svg>
