<svg width="20" height="20" viewBox="0 0 20 20" fill="none" xmlns="http://www.w3.org/2000/svg">
<g clip-path="url(#clip0)">
<path d="M19.676 1.31758L17.1656 0.0623446C17.0265 -0.0071866 16.8657 -0.0185538 16.7183 0.0305478C16.5709 0.0796884 16.449 0.185392 16.3795 0.324376L9.63781 13.8078H3.0957C3.09559 13.8078 3.09563 13.8078 3.09551 13.8078C1.41277 13.8078 0 15.1676 0 16.9047C0 18.6117 1.38875 20.0005 3.0957 20.0005H10.6275C10.8495 20.0005 11.0524 19.8751 11.1516 19.6766L19.938 2.10367C20.0827 1.81422 19.9654 1.46227 19.676 1.31758Z" fill="white"/>
<path d="M5.52344 9.95893C7.91074 9.95893 9.87496 8.94021 9.87496 7.49018V6.67432C9.66355 6.84896 9.42516 7.01025 9.1609 7.15619C8.18391 7.69561 6.89211 7.99275 5.52344 7.99275C4.15687 7.99275 2.86629 7.69639 1.88949 7.15826C1.62383 7.01189 1.38422 6.85006 1.17188 6.67467V7.49018C1.17188 8.94432 3.14293 9.95893 5.52344 9.95893Z" fill="white"/>
<path d="M5.52344 6.82027C7.91074 6.82027 9.87496 5.8016 9.87496 4.35156C9.87496 2.89742 7.90391 1.88281 5.52344 1.88281C3.13613 1.88277 1.17188 2.90148 1.17188 4.35152C1.17188 5.8057 3.14293 6.82027 5.52344 6.82027Z" fill="white"/>
</g>
<defs>
<clipPath id="clip0">
<rect width="20" height="20" fill="white"/>
</clipPath>
</defs>
</svg>
