<svg width="14" height="15" viewBox="0 0 14 15" fill="none" xmlns="http://www.w3.org/2000/svg">
<path d="M7.00211 2.65421C7.31613 2.71675 7.54487 2.99534 7.55908 3.32938C7.56334 3.43456 7.64007 3.52411 7.74379 3.54402C7.84751 3.56534 7.95265 3.51275 7.99669 3.41752C8.13877 3.11476 8.45704 2.94561 8.77104 3.00957L9.06942 3.06927C9.46298 3.14745 9.70879 3.58241 9.61501 3.96334C9.58944 4.06995 9.56955 4.17939 9.54823 4.28742C9.51698 4.44662 9.4843 4.60582 9.45304 4.76501C9.41041 4.9754 9.36922 5.18577 9.3266 5.39612C9.27687 5.64629 9.22571 5.89788 9.17598 6.14805C9.11914 6.42805 9.06375 6.70807 9.00691 6.9881C8.94724 7.2866 8.88756 7.58652 8.82647 7.88501C8.76537 8.19205 8.70286 8.49906 8.64176 8.80466C8.58067 9.10885 8.51956 9.41161 8.45848 9.7158C8.40022 10.0058 8.34197 10.2957 8.28371 10.5857C8.23114 10.8515 8.17715 11.1159 8.12458 11.3817C8.07912 11.612 8.03223 11.8422 7.98676 12.0711C7.94982 12.2544 7.91289 12.4378 7.87594 12.6226C7.85036 12.7491 7.82479 12.8756 7.79923 13.0021C7.78785 13.0604 7.77507 13.1186 7.76371 13.1769C7.76371 13.1798 7.76227 13.1826 7.76227 13.1855C7.91004 13.1542 8.06775 13.1684 8.21551 13.2366C8.52525 13.3802 8.68723 13.7142 8.62471 14.0355C8.60624 14.1307 8.64176 14.2345 8.72985 14.2757L9.00691 14.4036C9.09499 14.4448 9.19729 14.4036 9.25839 14.3283C9.26977 14.3141 13.9912 4.06852 13.9954 4.05148C14.0139 3.95625 13.9784 3.85248 13.8903 3.81126L13.6132 3.68333C13.5251 3.64211 13.4228 3.68334 13.3617 3.75867C13.1586 4.01452 12.7991 4.10835 12.4894 3.96477C12.1796 3.82121 12.0176 3.48718 12.0802 3.16594C12.0986 3.07072 12.0631 2.96694 11.975 2.92574L11.698 2.79781C11.6099 2.75659 11.5076 2.79781 11.4465 2.87314C11.2433 3.129 10.8838 3.22281 10.5741 3.07925C10.2644 2.93569 10.1024 2.60165 10.1649 2.28042C10.1834 2.18518 10.1479 2.08142 10.0598 2.0402L9.7827 1.91227C9.69461 1.87106 9.59231 1.91227 9.53121 1.98762C9.32803 2.24347 8.96857 2.33729 8.65883 2.19372C8.34909 2.05015 8.18713 1.71612 8.24963 1.39489C8.2681 1.29966 8.23258 1.19589 8.1445 1.15467L7.83759 1.01397C7.7495 0.972746 7.64578 1.01112 7.60459 1.09925L6.89844 2.6301L7.00211 2.65421Z" fill="white"/>
<path d="M6.90381 14.8626C6.91233 14.8455 9.13023 3.78554 9.13023 3.76706C9.12596 3.67039 9.06629 3.57659 8.97251 3.55812L8.67414 3.49842C8.57895 3.47994 8.48801 3.54248 8.44681 3.63061C8.30757 3.92626 7.98078 4.10111 7.64546 4.03429C7.31015 3.96748 7.07571 3.67894 7.0615 3.35201C7.05724 3.25535 6.99757 3.16154 6.90379 3.14306L6.68499 3.099L6.604 3.08335C6.5088 3.06487 6.41787 3.12743 6.37667 3.21554C6.23743 3.51121 5.91063 3.68604 5.57533 3.61922C5.24 3.55242 5.00557 3.26387 4.99136 2.93694C4.9871 2.84029 4.92742 2.74648 4.83365 2.728L4.53528 2.6683C4.44008 2.64982 4.34915 2.71238 4.30794 2.8005C4.1687 3.09616 3.84191 3.27099 3.5066 3.20417C3.17128 3.13736 2.93685 2.84882 2.92264 2.52189C2.91838 2.42524 2.8587 2.33144 2.76493 2.31295L2.43387 2.24615C2.33868 2.22766 2.24633 2.2888 2.22785 2.38402C2.22785 2.38402 -6.55251e-08 13.498 -6.5028e-08 13.5094C-6.14244e-08 13.5918 0.0582538 13.6643 0.140662 13.6814L0.471714 13.7482C0.566909 13.7667 0.657842 13.7041 0.699046 13.616C0.838287 13.3204 1.16508 13.1455 1.50039 13.2123C1.83571 13.2791 2.07014 13.5677 2.08435 13.8946C2.08861 13.9913 2.14829 14.0851 2.24206 14.1036L2.54044 14.1633C2.63563 14.1817 2.72656 14.1192 2.76777 14.0311C2.90701 13.7354 3.2338 13.5606 3.56911 13.6274C3.90443 13.6942 4.13887 13.9827 4.15307 14.3097C4.15734 14.4063 4.21701 14.5001 4.31079 14.5186L4.60916 14.5783C4.70435 14.5968 4.79529 14.5342 4.83649 14.4461C4.97573 14.1504 5.30252 13.9756 5.63784 14.0424C5.97317 14.1092 6.2076 14.3978 6.22181 14.7247C6.22607 14.8214 6.28575 14.9152 6.37952 14.9337L6.6779 14.9934C6.77309 15.0133 6.8626 14.9507 6.90381 14.8626ZM3.26223 5.38889C3.07042 5.35052 2.94539 5.16289 2.98375 4.971C3.02211 4.77911 3.20966 4.65402 3.40147 4.6924L5.73447 5.16147L7.17234 5.45001C7.34142 5.48413 7.45794 5.63195 7.45794 5.79826C7.45794 5.82102 7.4551 5.84517 7.45084 5.86791C7.41248 6.0598 7.22493 6.18488 7.03312 6.14651L5.429 5.82385L3.26223 5.38889ZM1.97638 11.7966C1.78457 11.7582 1.65954 11.5706 1.6979 11.3787C1.73626 11.1868 1.92381 11.0617 2.11562 11.1001L2.92123 11.2622L3.83482 11.4455L4.57081 11.5933L5.8865 11.8563C6.05557 11.8904 6.1721 12.0382 6.1721 12.2045C6.1721 12.2273 6.16925 12.2515 6.16499 12.2742C6.16356 12.2841 6.16071 12.2941 6.15789 12.3026C6.10672 12.4789 5.92912 12.5883 5.74727 12.5514L5.48157 12.4988L4.79389 12.3609L1.97638 11.7966Z" fill="white"/>
</svg>
