<svg width="20" height="20" viewBox="0 0 20 20" fill="none" xmlns="http://www.w3.org/2000/svg">
<g opacity="0.7" clip-path="url(#clip0)">
<path d="M4.71597 11.4538C4.17813 12.4577 3.688 13.5106 3.34003 14.5888C2.4402 14.1961 1.54393 13.7085 0.766508 13.1033C0.348765 11.8932 0.176491 10.6101 0.273829 9.3517C0.764708 8.34693 1.35187 7.4156 2.08267 6.58092C2.61723 6.89453 3.19706 7.18449 3.7768 7.45082C4.07367 8.78537 4.39482 10.1199 4.71597 11.4538ZM3.88952 7.15944C3.31175 6.91709 2.7565 6.62812 2.20067 6.31477C2.29928 5.43321 2.42168 4.5753 2.54434 3.71669C3.48252 2.60883 4.61607 1.74597 5.92092 1.15203C7.01057 1.49263 7.78446 1.87844 8.22742 2.3061C7.7641 3.1416 7.42092 4.00359 7.27003 4.93865C5.98882 5.75208 4.87798 6.49238 3.88952 7.15944ZM15.88 4.16668C15.0615 2.93562 13.9992 1.99548 12.6697 1.37127C12.6872 1.31409 12.7061 1.25525 12.7251 1.19552C12.7787 1.02779 12.8346 0.853004 12.8716 0.687864C15.0215 1.34616 16.8694 2.74089 18.1258 4.60545C17.4284 4.24668 16.6858 4.08077 15.88 4.16668ZM9.98752 20.05C15.5332 20.05 20.05 15.5332 20.05 9.98752C20.05 4.51703 15.6085 -0.05 9.98752 -0.05C4.4418 -0.05 -0.05 4.4418 -0.05 9.98752C-0.05 15.5331 4.44164 20.05 9.98752 20.05ZM19.6244 9.26657C19.5961 8.74969 19.552 8.26359 19.4877 7.80839C19.6039 8.30971 19.6801 8.82721 19.7161 9.36091C19.6864 9.32886 19.6552 9.29733 19.6244 9.26657ZM17.3698 10.7235C18.1215 10.4071 18.8525 10.0413 19.4685 9.53418C19.5543 9.64116 19.6432 9.74963 19.7502 9.85828C19.7459 12.2093 19.0019 14.4347 17.4702 16.2412C17.1674 16.4261 16.8201 16.5452 16.4705 16.5979C16.3475 15.8909 16.1762 15.0464 15.9106 14.3615C16.5526 13.2682 17.0227 11.9345 17.3698 10.7235ZM12.7841 19.2792C14.0218 18.5354 15.2348 17.7187 16.4223 16.9024C16.6069 16.8827 16.8034 16.837 16.9931 16.7748C15.8176 17.9715 14.3794 18.8525 12.7841 19.3337V19.2792ZM9.63189 18.3781C10.5649 18.7218 11.5242 19.066 12.4843 19.3147V19.4125C10.1583 20.0388 7.64205 19.7502 5.50567 18.6411C5.65254 18.5068 5.78103 18.3543 5.89113 18.1836C7.1294 18.4525 8.36838 18.5254 9.63189 18.3781ZM10.8601 8.13926C9.89417 6.92881 8.80551 5.86467 7.56996 4.97132C7.71989 4.0711 8.03735 3.21863 8.52265 2.41367C9.78236 1.99557 11.1161 1.7483 12.4515 1.59926C13.7768 2.19113 14.8343 3.1237 15.6243 4.34979C15.3029 5.14272 14.9097 6.20137 14.516 7.47811C13.3636 7.93968 12.0896 8.11273 10.8601 8.13926ZM10.8953 8.43817C12.1264 8.38688 13.4312 8.21342 14.5943 7.7736C15.4789 8.65949 16.3609 9.61668 17.0984 10.6456C16.7271 11.8324 16.2835 13.1571 15.6473 14.2152C14.1683 14.6819 12.6647 14.9536 11.1365 15.0544C10.4742 14.0709 9.86012 13.0148 9.29424 11.9338C9.41343 11.6794 9.53382 11.4247 9.65439 11.1698C10.0812 10.267 10.5102 9.35981 10.8953 8.43817ZM5.89459 17.8824C5.05538 16.9189 4.24217 15.8832 3.57512 14.7752C3.91938 13.7005 4.4311 12.6491 4.96953 11.6675C6.27467 11.9608 7.67737 12.1564 9.03425 12.0866C9.6008 13.1684 10.2162 14.2262 10.9043 15.2361C10.3904 16.3853 9.94876 17.318 9.55562 18.1053C8.32706 18.2252 7.09875 18.1509 5.89459 17.8824Z" fill="#8190B0" stroke="#8190B0" stroke-width="0.1"/>
</g>
<defs>
<clipPath id="clip0">
<rect width="20" height="20" fill="white"/>
</clipPath>
</defs>
</svg>
