<svg width="20" height="20" viewBox="0 0 20 20" fill="none" xmlns="http://www.w3.org/2000/svg">
<g opacity="0.7">
<path d="M13.7383 5C15.119 5 16.2383 3.88071 16.2383 2.5C16.2383 1.11929 15.119 0 13.7383 0C12.3576 0 11.2383 1.11929 11.2383 2.5C11.2383 3.88071 12.3576 5 13.7383 5Z" fill="#8190B0"/>
<path d="M19.4384 16.7999L15.8509 13.2124C15.6634 13.0249 15.6134 12.7374 15.7384 12.5124C16.7047 10.7449 16.9472 8.73238 16.5234 6.84863L6.83594 16.5349C8.71969 16.9586 10.7334 16.7161 12.5009 15.7499C12.7259 15.6249 13.0134 15.6749 13.2009 15.8624L16.7884 19.4499C17.1509 19.8249 17.6384 19.9999 18.1134 19.9999C18.5884 19.9999 19.0759 19.8249 19.4384 19.4499C20.1759 18.7249 20.1759 17.5249 19.4384 16.7999Z" fill="#8190B0"/>
<path d="M16.0556 5.42931C15.4156 5.93556 14.6181 6.25056 13.7394 6.25056C11.6681 6.25056 9.98935 4.57181 9.98935 2.50056C9.98935 1.79806 10.1944 1.14806 10.5319 0.585564C7.57685 -0.406936 4.1431 -0.169436 1.97685 1.98806C-1.24815 5.22556 -0.198146 11.3006 2.86435 14.3631C3.63435 15.1331 4.5331 15.7068 5.5006 16.1056L16.0944 5.51306C16.0831 5.48431 16.0681 5.45681 16.0556 5.42931Z" fill="#8190B0"/>
</g>
</svg>
