<svg width="14" height="14" viewBox="0 0 14 14" fill="none" xmlns="http://www.w3.org/2000/svg">
<path d="M11.6297 1.75388C10.3949 0.662949 8.77355 0 7.00025 0C4.76599 0 2.77318 1.05241 1.49071 2.68732C1.45666 2.73071 1.47263 2.79519 1.52303 2.81755C2.6838 3.33208 4.24335 3.62291 5.88359 3.62291C8.74107 3.62291 10.8562 2.77684 11.6373 1.87422C11.668 1.83873 11.6648 1.78495 11.6297 1.75388Z" fill="white"/>
<path d="M13.3018 9.75684C13.3014 9.75686 13.3009 9.75686 13.3005 9.75686C11.1897 9.75686 9.18811 10.3229 7.66443 11.3506C6.64276 12.0397 5.93705 12.8847 5.62612 13.7637C5.60862 13.8132 5.63845 13.8673 5.69005 13.8771C6.11407 13.9576 6.55146 13.9997 6.99856 13.9997C9.83342 13.9997 12.2798 12.3057 13.3793 9.87685C13.4047 9.82088 13.3633 9.75689 13.3018 9.75684Z" fill="white"/>
<path d="M12.5913 2.79352C12.5599 2.75185 12.4979 2.7481 12.462 2.78597C11.2741 4.03801 8.7494 4.84753 5.88334 4.84753C3.99492 4.84753 2.18047 4.48694 0.842324 3.85227C0.800297 3.83236 0.749957 3.84912 0.72923 3.89077C0.262582 4.82795 0 5.88396 0 7.00008C0 9.91807 1.79479 12.4247 4.33836 13.4742C4.38408 13.4931 4.4357 13.4685 4.45154 13.4216C4.84031 12.2702 5.71553 11.1894 6.98113 10.3358C8.70496 9.17309 10.9497 8.53272 13.3019 8.53272C13.454 8.53272 13.6057 8.53565 13.7571 8.54076C13.7983 8.54216 13.8349 8.51416 13.8436 8.47383C13.9458 7.99854 14 7.50556 14 7.00008C14 5.42248 13.4751 3.96539 12.5913 2.79352Z" fill="white"/>
</svg>
