<svg width="20" height="20" viewBox="0 0 20 20" fill="none" xmlns="http://www.w3.org/2000/svg">
<path d="M16.6116 2.50555C14.8476 0.94707 12.5314 0 9.99813 0C6.80633 0 3.95946 1.50344 2.12735 3.83902C2.07871 3.90102 2.10153 3.99312 2.17352 4.02508C3.83176 4.76012 6.05969 5.17559 8.40289 5.17559C12.485 5.17559 15.5067 3.96691 16.6225 2.67746C16.6663 2.62676 16.6618 2.54992 16.6116 2.50555Z" fill="white"/>
<path d="M19.0037 13.9385C19.0031 13.9385 19.0024 13.9385 19.0018 13.9385C15.9864 13.9385 13.127 14.7471 10.9503 16.2153C9.49078 17.1997 8.48261 18.4069 8.03843 19.6625C8.01343 19.7333 8.05605 19.8105 8.12976 19.8245C8.7355 19.9395 9.36035 19.9998 9.99906 19.9998C14.0489 19.9998 17.5437 17.5796 19.1144 14.1099C19.1506 14.03 19.0915 13.9386 19.0037 13.9385Z" fill="white"/>
<path d="M17.9875 3.9906C17.9427 3.93107 17.8542 3.92572 17.8029 3.97982C16.1058 5.76845 12.4991 6.9249 8.40477 6.9249C5.70703 6.9249 3.11496 6.40978 1.20332 5.5031C1.14328 5.47466 1.07137 5.49861 1.04176 5.5581C0.375117 6.89693 0 8.40552 0 9.99997C0 14.1685 2.56398 17.7494 6.19766 19.2488C6.26297 19.2757 6.33672 19.2406 6.35934 19.1736C6.91473 17.5288 8.16504 15.9848 9.97305 14.7653C12.4357 13.1043 15.6425 12.1895 19.0027 12.1895C19.22 12.1895 19.4367 12.1936 19.653 12.201C19.7118 12.2029 19.7641 12.1629 19.7765 12.1053C19.9226 11.4263 20 10.7221 20 9.99997C20 7.74626 19.2502 5.6647 17.9875 3.9906Z" fill="white"/>
</svg>
