<svg width="14" height="14" viewBox="0 0 14 14" fill="none" xmlns="http://www.w3.org/2000/svg">
<g clip-path="url(#clip0)">
<path d="M5.66334 4.99865C5.28884 5.72391 5.56288 6.62251 6.28943 7.013C7.22692 7.51653 8.37839 6.90912 8.49507 5.85399C8.59373 4.96218 7.89572 4.18359 7.00032 4.18359C6.42394 4.18359 5.91537 4.50967 5.66334 4.99865Z" fill="white"/>
<path d="M10.7048 1.4093C9.8239 0.645504 8.61484 0.0945273 7.41016 0V3.34387C7.76986 3.40673 8.10056 3.55061 8.37074 3.74336L10.7048 1.4093Z" fill="white"/>
<path d="M8.94824 7.05441L11.2826 9.38875C12.0578 8.49291 12.5031 7.4194 12.626 6.31641H9.29523C9.21867 6.59572 9.09494 6.84947 8.94824 7.05441Z" fill="white"/>
<path d="M6.59114 3.34387V0C5.4012 0.0933516 4.1896 0.636152 3.30005 1.40602L5.63438 3.74035C5.91728 3.54088 6.24508 3.40435 6.59114 3.34387Z" fill="white"/>
<path d="M5.05645 7.05824C4.90193 6.84067 4.78044 6.58656 4.70672 6.31641H1.37598C1.4993 7.42112 1.94522 8.49554 2.72238 9.39203L5.05645 7.05824Z" fill="white"/>
<path d="M5.05399 4.32094L2.71938 1.98633C1.85229 2.98913 1.38714 4.22567 1.34399 5.49645H4.62989C4.66322 5.08208 4.80459 4.67586 5.05399 4.32094Z" fill="white"/>
<path d="M3.30225 9.9716C4.24944 10.7911 5.40427 11.2458 6.59007 11.3322V8.03047C6.23312 7.96823 5.90767 7.82771 5.63713 7.63672L3.30225 9.9716Z" fill="white"/>
<path d="M9.37205 5.4968H12.6579C12.6144 4.21361 12.1408 2.97986 11.2856 1.99023L8.95068 4.32512C9.19752 4.67821 9.33877 5.08295 9.37205 5.4968Z" fill="white"/>
<path d="M7.41016 8.03V11.3318C8.58706 11.246 9.74362 10.7974 10.7013 9.9684L8.36664 7.63379C8.09605 7.82596 7.76765 7.96768 7.41016 8.03Z" fill="white"/>
<path d="M10.5603 11.1035C8.40601 12.5218 5.59969 12.524 3.44255 11.1035L2.05742 13.3766C1.89155 13.6488 2.08695 14.0002 2.40767 14.0002H11.5952C11.9139 14.0002 12.1123 13.6504 11.9454 13.3766L10.5603 11.1035Z" fill="white"/>
</g>
<defs>
<clipPath id="clip0">
<rect width="14" height="14" fill="white"/>
</clipPath>
</defs>
</svg>
