<svg width="79" height="75" viewBox="0 0 79 75" fill="none" xmlns="http://www.w3.org/2000/svg">
<g filter="url(#filter0_d)">
<path d="M67.3749 29.5841L54.7801 12.7588C53.797 11.4435 52.4853 10.4098 50.9766 9.76128C49.4679 9.11279 47.8152 8.87234 46.1843 9.06404L25.5122 11.4835C23.8786 11.6752 22.3241 12.2931 21.0046 13.2753C19.6852 14.2574 18.6472 15.5693 17.9948 17.0792L9.76532 36.158C9.11211 37.6734 8.87071 39.3344 9.06553 40.9731C9.26035 42.6118 9.88448 44.1699 10.8748 45.49L23.4453 62.2253C24.4299 63.5357 25.7407 64.5651 27.2471 65.211C28.7535 65.8569 30.4028 66.0966 32.0308 65.9063L52.7686 63.4869C54.403 63.2948 55.9582 62.676 57.2778 61.6925C58.5973 60.7091 59.6348 59.3957 60.286 57.8842L68.4671 38.9126C69.1213 37.399 69.3649 35.7396 69.1731 34.1017C68.9813 32.4639 68.3611 30.9057 67.3749 29.5841Z" fill="#F7F7F7"/>
</g>
<path d="M23.6423 62.6821L10.5878 45.1518C8.94263 42.9432 8.62811 38.7853 9.89657 35.8682L17.846 17.3908C19.1041 14.4737 21.4579 13.8965 23.1031 16.1051L36.161 33.6354C37.8062 35.844 38.1172 40.0019 36.8522 42.9225L28.9027 61.3964C27.6274 64.3135 25.2875 64.8907 23.6423 62.6821Z" fill="#F2F2F2"/>
<path d="M53.2264 63.4384L31.6004 65.9684C28.8768 66.2863 27.6878 64.1884 28.939 61.2816L36.8885 42.8803C38.1397 39.9736 41.3644 37.3502 44.088 37.0392L65.7106 34.5092C68.4341 34.1877 69.6265 36.2891 68.3719 39.1959L60.4397 57.5938C59.1712 60.504 55.95 63.1169 53.2264 63.4384Z" fill="white"/>
<path d="M36.1635 33.6459L23.1056 16.1121C21.4604 13.9035 22.6874 11.8124 25.8464 11.4461L45.8273 9.10615C48.9863 8.73632 52.8781 10.226 54.5233 12.4346L67.5812 29.9684C69.2264 32.1735 67.9994 34.2645 64.8404 34.6344L44.8595 36.9743C41.7005 37.3441 37.8087 35.851 36.1635 33.6459Z" fill="#F7F7F7"/>
<path d="M33.535 17.9846C33.0546 19.1182 31.0776 19.3498 29.1179 18.4996C27.1582 17.6493 25.9657 16.0456 26.4462 14.9119C26.9266 13.7783 28.9071 13.5467 30.8633 14.3969C32.8196 15.2472 34.0155 16.8509 33.535 17.9846Z" fill="#121420"/>
<path d="M64.3237 31.2572C63.8433 32.3908 61.8663 32.6397 59.91 31.7722C57.9537 30.9046 56.7544 29.3182 57.2348 28.1845C57.7153 27.0508 59.6957 26.8193 61.652 27.6695C63.6082 28.5198 64.8076 30.1235 64.3237 31.2572Z" fill="#121420"/>
<path d="M52.7977 15.7418C52.3138 16.8754 50.3368 17.107 48.3805 16.2567C46.4243 15.4065 45.2249 13.8028 45.7088 12.6691C46.1927 11.5354 48.1662 11.2866 50.1225 12.1507C52.0788 13.0147 53.2781 14.6081 52.7977 15.7418Z" fill="#121420"/>
<path d="M45.0585 33.3926C44.578 34.5263 42.601 34.7751 40.6413 33.911C38.6816 33.047 37.4892 31.4536 37.9696 30.32C38.45 29.1863 40.5376 28.9996 42.4939 29.8464C44.4502 30.6932 45.5389 32.2589 45.0585 33.3926Z" fill="#121420"/>
<path d="M46.3259 50.9958C45.6347 52.5892 46.4884 53.7194 48.2234 53.5155C49.1801 53.4186 50.0928 53.0649 50.8649 52.4917C51.637 51.9186 52.2398 51.1473 52.6095 50.2597C53.3007 48.6663 52.447 47.5395 50.712 47.74C48.9769 47.9405 47.0137 49.4163 46.3259 50.9958Z" fill="#121420"/>
<path d="M24.6895 41.6814C23.9982 43.2747 22.5984 43.4303 21.5546 42.027C20.5108 40.6237 20.2205 38.1974 20.9083 36.6006C21.5961 35.0038 22.9821 34.8517 24.0432 36.255C25.1042 37.6582 25.3773 40.0846 24.6895 41.6814Z" fill="#121420"/>
<path d="M26.5942 55.8108C25.903 57.4041 24.5032 57.5597 23.4594 56.1564C22.4156 54.7531 22.1287 52.3268 22.813 50.73C23.4974 49.1332 24.9041 48.9811 25.9479 50.3844C26.9917 51.7876 27.2855 54.214 26.5942 55.8108Z" fill="#121420"/>
<path d="M23.1588 27.6868C22.4675 29.2836 21.085 29.4391 20.0239 28.0324C18.9628 26.6257 18.6898 24.2029 19.3776 22.6095C20.0654 21.0161 21.4687 20.8572 22.5125 22.2639C23.5563 23.6706 23.8431 26.1107 23.1588 27.6868Z" fill="#121420"/>
<g style="mix-blend-mode:screen" opacity="0.26">
<path d="M36.8831 33.5381L23.6593 15.7831C22.5879 14.3419 22.7261 12.9559 23.8114 12.0469C22.2526 12.9006 21.8897 14.4663 23.1202 16.1115L36.1677 33.6453C37.8129 35.8504 41.6978 37.3435 44.8637 36.9737H44.9709C41.9224 37.0566 38.4281 35.6119 36.8831 33.5381Z" fill="#A6D673"/>
</g>
<g style="mix-blend-mode:screen" opacity="0.26">
<path d="M29.6659 61.5036L37.7848 42.6737C38.939 40.1964 40.962 38.2287 43.4704 37.1437C40.8885 37.7382 38.0336 40.1783 36.8723 42.8742L28.9228 61.2755C27.9102 63.6293 28.4977 65.4507 30.2051 65.8897C29.0784 65.1673 28.7984 63.5221 29.6659 61.5036Z" fill="#F2F1F1"/>
</g>
<defs>
<filter id="filter0_d" x="0.095396" y="0.095396" width="78.0459" height="74.7789" filterUnits="userSpaceOnUse" color-interpolation-filters="sRGB">
<feFlood flood-opacity="0" result="BackgroundImageFix"/>
<feColorMatrix in="SourceAlpha" type="matrix" values="0 0 0 0 0 0 0 0 0 0 0 0 0 0 0 0 0 0 127 0"/>
<feOffset/>
<feGaussianBlur stdDeviation="4.4523"/>
<feColorMatrix type="matrix" values="0 0 0 0 1 0 0 0 0 1 0 0 0 0 1 0 0 0 0.5 0"/>
<feBlend mode="normal" in2="BackgroundImageFix" result="effect1_dropShadow"/>
<feBlend mode="normal" in="SourceGraphic" in2="effect1_dropShadow" result="shape"/>
</filter>
</defs>
</svg>
