<svg width="15" height="6" viewBox="0 0 15 6" fill="none" xmlns="http://www.w3.org/2000/svg">
<path d="M11.875 0.0185547C10.5864 0.0185547 8.45609 1.51448 7.5 2.23911C6.54391 1.51448 4.41359 0.0185547 3.125 0.0185547C2.2962 0.0185547 1.50134 0.33364 0.915291 0.894496C0.32924 1.45535 0 2.21604 0 3.0092C0 3.80237 0.32924 4.56306 0.915291 5.12391C1.50134 5.68477 2.2962 5.99986 3.125 5.99986C4.41359 5.99986 6.54391 4.50393 7.5 3.7793C8.45609 4.50378 10.5864 5.99986 11.875 5.99986C12.7038 5.99986 13.4987 5.68477 14.0847 5.12391C14.6708 4.56306 15 3.80237 15 3.0092C15 2.21604 14.6708 1.45535 14.0847 0.894496C13.4987 0.33364 12.7038 0.0185547 11.875 0.0185547ZM3.125 4.8036C2.62772 4.8036 2.15081 4.61454 1.79917 4.27803C1.44754 3.94152 1.25 3.48511 1.25 3.0092C1.25 2.5333 1.44754 2.07689 1.79917 1.74038C2.15081 1.40387 2.62772 1.21481 3.125 1.21481C3.7957 1.21481 5.33078 2.15373 6.49805 3.0092C5.33078 3.86468 3.7957 4.8036 3.125 4.8036ZM11.875 4.8036C11.2043 4.8036 9.66922 3.86468 8.50195 3.0092C9.66922 2.15373 11.2043 1.21481 11.875 1.21481C12.3723 1.21481 12.8492 1.40387 13.2008 1.74038C13.5525 2.07689 13.75 2.5333 13.75 3.0092C13.75 3.48511 13.5525 3.94152 13.2008 4.27803C12.8492 4.61454 12.3723 4.8036 11.875 4.8036Z" fill="white"/>
</svg>
