<svg width="18" height="18" viewBox="0 0 18 18" fill="none" xmlns="http://www.w3.org/2000/svg">
<path d="M9 18C4.03734 18 0 13.9627 0 9C0 4.03734 4.03734 0 9 0C13.9627 0 18 4.03734 18 9C18 13.9627 13.9627 18 9 18Z" fill="#8190B0"/>
<path d="M9 12C8.59933 12 8.2746 11.671 8.2746 11.265V9.34456C8.2746 8.93858 8.59933 8.60955 9 8.60955C9.85423 8.60955 10.5492 7.90535 10.5492 7.03979C10.5492 6.17423 9.85423 5.47003 9 5.47003C8.14577 5.47003 7.45079 6.17423 7.45079 7.03979C7.45079 7.44577 7.12606 7.77481 6.7254 7.77481C6.32492 7.77481 6 7.44577 6 7.03979C6 5.36361 7.34576 4 9 4C10.6542 4 12 5.36361 12 7.03979C12 8.46254 11.0302 9.66001 9.72539 9.98962V11.265C9.72539 11.671 9.40067 12 9 12Z" fill="#090D15"/>
<path d="M9.88097 13.8819C9.88097 14.369 9.48617 14.7638 8.99908 14.7638C8.51199 14.7638 8.11719 14.369 8.11719 13.8819C8.11719 13.3948 8.51199 13 8.99908 13C9.48617 13 9.88097 13.3948 9.88097 13.8819Z" fill="#090D15"/>
</svg>
