<svg width="30" height="30" viewBox="0 0 30 30" fill="none" xmlns="http://www.w3.org/2000/svg">
<g clip-path="url(#clip0)">
<path d="M17.6519 13.2859C19.1164 14.7504 19.1164 17.1248 17.6519 18.5894C16.1873 20.0539 13.8129 20.0539 12.3484 18.5894C10.8839 17.1248 10.8839 14.7504 12.3484 13.2859C13.8129 11.8214 16.1873 11.8214 17.6519 13.2859Z" fill="white"/>
<path d="M26.2499 5.62464H23.6589L21.7829 1.87451H8.21529L6.34112 5.62648L3.75375 5.63109C1.69103 5.63478 0.0118537 7.31573 0.0100726 9.37938L0 24.3743C0 26.4426 1.68187 28.1254 3.75013 28.1254H26.2499C28.3182 28.1254 30.0001 26.4435 30.0001 24.3752V9.37471C30 7.30652 28.3181 5.62464 26.2499 5.62464ZM14.9995 23.4377C10.8639 23.4377 7.49928 20.073 7.49928 15.9374C7.49928 11.8018 10.8639 8.43716 14.9995 8.43716C19.1351 8.43716 22.4998 11.8018 22.4998 15.9374C22.4998 20.073 19.1351 23.4377 14.9995 23.4377Z" fill="white"/>
</g>
<defs>
<clipPath id="clip0">
<rect width="30" height="30" fill="white"/>
</clipPath>
</defs>
</svg>
