<svg width="110" height="110" viewBox="0 0 110 110" fill="none" xmlns="http://www.w3.org/2000/svg">
<path d="M48.1836 3.80859C32.8325 10.6644 22.1094 26.0742 22.1094 43.9453C22.1094 45.5856 23.398 46.875 25.0391 46.875H63.125L69.3506 18.1274L48.1836 3.80859Z" fill="#FFC57E"/>
<g filter="url(#filter0_d)">
<path d="M53.9453 100C29.7128 100 10 80.2872 10 56.0547C10 54.4357 11.3107 53.125 12.9297 53.125H53.9453C55.5643 53.125 56.875 54.4357 56.875 56.0547V97.0703C56.875 98.6893 55.5643 100 53.9453 100Z" fill="white"/>
</g>
<path d="M48.1836 3.80902L63.125 46.8754V0.0996094C57.8203 0.446747 52.7917 1.72772 48.1836 3.80902Z" fill="#FFAE4D"/>
<path d="M66.0547 0C65.069 0 64.0932 0.0358582 63.125 0.099182V84.9609C63.125 86.6013 64.4136 87.8906 66.0547 87.8906C90.3123 87.8906 110 68.203 110 43.9453C110 19.6877 90.3123 0 66.0547 0Z" fill="#F7931A"/>
<path d="M92.4219 49.8044C92.4219 44.9582 88.479 41.0153 83.6328 41.0153C82.0161 41.0153 80.7031 39.7023 80.7031 38.0856C80.7031 36.469 82.0161 35.1559 83.6328 35.1559C84.6773 35.1559 85.65 35.7167 86.1734 36.6238C86.9775 38.02 88.7628 38.5007 90.1758 37.6912C91.575 36.881 92.0557 35.0903 91.2431 33.688C90.1888 31.8631 88.4958 30.5608 86.5625 29.8688V26.4844C86.5625 24.8654 85.2518 23.5547 83.6328 23.5547C82.0139 23.5547 80.7031 24.8654 80.7031 26.4844V29.8367C77.3004 31.0498 74.8438 34.2717 74.8438 38.0856C74.8438 42.9326 78.7866 46.8747 83.6328 46.8747C85.2495 46.8747 86.5625 48.1885 86.5625 49.8044C86.5625 51.4211 85.2495 52.7341 83.6328 52.7341C82.5883 52.7341 81.6156 52.1733 81.0922 51.2662C80.285 49.8616 78.4914 49.3779 77.0898 50.1996C75.6906 51.0091 75.21 52.7997 76.0225 54.202C77.0769 56.0269 78.7698 57.3293 80.7031 58.0212V61.2889C80.7031 62.9079 82.0139 64.2186 83.6328 64.2186C85.2518 64.2186 86.5625 62.9079 86.5625 61.2889V58.054C89.9652 56.8402 92.4219 53.6191 92.4219 49.8044Z" fill="#FFDF92"/>
<defs>
<filter id="filter0_d" x="0" y="43.125" width="66.875" height="66.875" filterUnits="userSpaceOnUse" color-interpolation-filters="sRGB">
<feFlood flood-opacity="0" result="BackgroundImageFix"/>
<feColorMatrix in="SourceAlpha" type="matrix" values="0 0 0 0 0 0 0 0 0 0 0 0 0 0 0 0 0 0 127 0"/>
<feOffset/>
<feGaussianBlur stdDeviation="5"/>
<feColorMatrix type="matrix" values="0 0 0 0 1 0 0 0 0 1 0 0 0 0 1 0 0 0 0.2 0"/>
<feBlend mode="normal" in2="BackgroundImageFix" result="effect1_dropShadow"/>
<feBlend mode="normal" in="SourceGraphic" in2="effect1_dropShadow" result="shape"/>
</filter>
</defs>
</svg>
