<svg width="22" height="22" viewBox="0 0 22 22" fill="none" xmlns="http://www.w3.org/2000/svg">
<g opacity="0.8">
<g clip-path="url(#clip0)">
<path d="M10.9992 2.57812C11.9293 2.57812 12.8245 2.73002 13.6617 3.0097L14.6509 0.6215C13.5082 0.219441 12.2794 0 10.9992 0C9.75186 0 8.55321 0.207969 7.43555 0.59052L8.42563 2.98079C9.23723 2.71971 10.1019 2.57812 10.9992 2.57812Z" fill="white"/>
</g>
<path d="M18.5306 7.2332L20.9205 6.24324C19.8514 4.01746 18.0552 2.20748 15.8399 1.12012L14.8496 3.51094C16.4355 4.32954 17.7291 5.63725 18.5306 7.2332Z" fill="white"/>
<path d="M10.9994 19.4218C10.0693 19.4218 9.17408 19.2699 8.33688 18.9902L7.34766 21.3784C8.49037 21.7805 9.71914 21.9999 10.9994 21.9999C12.2467 21.9999 13.4453 21.792 14.563 21.4094L13.5729 19.0192C12.7613 19.2802 11.8966 19.4218 10.9994 19.4218Z" fill="white"/>
<path d="M11 15.5547C13.5155 15.5547 15.5547 13.5155 15.5547 11C15.5547 8.48452 13.5155 6.44531 11 6.44531C8.48452 6.44531 6.44531 8.48452 6.44531 11C6.44531 13.5155 8.48452 15.5547 11 15.5547Z" fill="white"/>
<path d="M14.7656 18.5306L15.7556 20.9205C17.9814 19.8514 19.7913 18.0552 20.8787 15.8399L18.4879 14.8496C17.6693 16.4355 16.3616 17.7291 14.7656 18.5306Z" fill="white"/>
<path d="M11 3.86719C7.06694 3.86719 3.86719 7.06694 3.86719 11C3.86719 14.9331 7.06694 18.1328 11 18.1328C14.9331 18.1328 18.1328 14.9331 18.1328 11C18.1328 7.06694 14.9331 3.86719 11 3.86719ZM11 16.8438C7.77773 16.8438 5.15625 14.2223 5.15625 11C5.15625 7.77773 7.77773 5.15625 11 5.15625C14.2223 5.15625 16.8438 7.77773 16.8438 11C16.8438 14.2223 14.2223 16.8438 11 16.8438Z" fill="white"/>
<path d="M3.46809 14.7666L1.07812 15.7566C2.14723 17.9823 3.9435 19.7923 6.15875 20.8797L7.14905 18.4889C5.5632 17.6703 4.26954 16.3625 3.46809 14.7666Z" fill="white"/>
<path d="M21.4094 7.43652L19.0192 8.42661C19.2802 9.2382 19.4218 10.1029 19.4218 11.0002C19.4218 11.9302 19.2699 12.8254 18.9902 13.6627L21.3784 14.6519C21.7805 13.5092 21.9999 12.2804 21.9999 11.0002C21.9999 9.75284 21.792 8.55418 21.4094 7.43652Z" fill="white"/>
<path d="M2.57812 10.9994C2.57812 10.0693 2.73002 9.17409 3.0097 8.33688L0.6215 7.34766C0.219441 8.49037 0 9.71914 0 10.9994C0 12.2467 0.207969 13.4453 0.59052 14.563L2.98079 13.5729C2.71971 12.7613 2.57812 11.8966 2.57812 10.9994Z" fill="white"/>
<path d="M7.23417 3.46907L6.24421 1.0791C4.01843 2.14816 2.20846 3.94443 1.12109 6.15968L3.51192 7.14999C4.33052 5.56418 5.63823 4.27052 7.23417 3.46907Z" fill="white"/>
</g>
<defs>
<clipPath id="clip0">
<rect width="22" height="22" fill="white"/>
</clipPath>
</defs>
</svg>
