<svg width="22" height="22" viewBox="0 0 22 22" fill="none" xmlns="http://www.w3.org/2000/svg">
<path d="M10.6492 22C7.85793 22 5.23371 20.8558 3.25993 18.7782C1.28622 16.7005 0.199219 13.9382 0.199219 11C0.199219 8.0618 1.28622 5.29947 3.25993 3.2218C5.23371 1.14421 7.85793 0 10.6492 0C13.4405 0 16.0647 1.14421 18.0385 3.2218C20.0122 5.29947 21.0992 8.0618 21.0992 11C21.0992 13.9382 20.0122 16.7005 18.0385 18.7782C16.0647 20.8558 13.4405 22 10.6492 22ZM10.6492 1.71875C5.7874 1.71875 1.83203 5.88229 1.83203 11C1.83203 16.1177 5.7874 20.2812 10.6492 20.2812C15.511 20.2812 19.4664 16.1177 19.4664 11C19.4664 5.88229 15.511 1.71875 10.6492 1.71875ZM14.4756 12.8987C14.0952 12.6439 13.5906 12.7619 13.3485 13.1624C13.3385 13.179 12.3224 14.8268 10.6084 14.8268C8.89435 14.8268 7.87834 13.179 7.86825 13.1624C7.62619 12.7619 7.12161 12.6439 6.7412 12.8987C6.3608 13.1535 6.24867 13.6847 6.49073 14.0851C6.55147 14.1855 8.0081 16.5456 10.6084 16.5456C13.2087 16.5456 14.6653 14.1856 14.7261 14.0851C14.9681 13.6846 14.856 13.1535 14.4756 12.8987ZM7.05703 7.08984C7.62064 7.08984 8.07754 7.57079 8.07754 8.16406C8.07754 8.75733 7.62064 9.23828 7.05703 9.23828C6.49342 9.23828 6.03652 8.75733 6.03652 8.16406C6.03652 7.57079 6.49342 7.08984 7.05703 7.08984ZM13.1801 8.16406C13.1801 8.75733 13.637 9.23828 14.2006 9.23828C14.7642 9.23828 15.2211 8.75733 15.2211 8.16406C15.2211 7.57079 14.7642 7.08984 14.2006 7.08984C13.637 7.08984 13.1801 7.57079 13.1801 8.16406Z" fill="#8190B0"/>
</svg>
