<svg width="169" height="166" viewBox="0 0 169 166" fill="none" xmlns="http://www.w3.org/2000/svg">
<g filter="url(#filter0_d)">
<path d="M54.7645 55.9975C54.3459 56.5905 53.9447 57.2183 53.5784 57.8635C52.7989 59.2268 52.1562 60.6639 51.6597 62.1537C50.5778 65.529 50.2037 69.0911 50.5609 72.6175C50.8857 75.9574 51.7394 79.2245 53.09 82.2965C53.8081 83.9468 54.6537 85.5386 55.6192 87.0575C56.4312 88.3552 57.3225 89.6015 58.2879 90.7896C59.1971 91.9083 60.1636 92.9794 61.1834 93.9985C62.2169 95.0223 63.3058 95.9888 64.4451 96.8934C65.6448 97.8703 66.903 98.773 68.2127 99.5966C69.7734 100.589 71.3992 101.474 73.0791 102.247C76.9363 104.02 81.0634 105.135 85.2889 105.543C96.0684 106.572 105.156 102.474 110.214 95.3413L113.842 90.2315C108.784 97.3643 99.7139 101.463 88.917 100.434C84.6911 100.027 80.5637 98.9125 76.7072 97.1376C75.0274 96.3706 73.4016 95.4908 71.8407 94.5042C70.5255 93.6805 69.2616 92.7778 68.0557 91.8011C66.9424 90.8734 65.877 89.8897 64.8637 88.8538C63.8382 87.8349 62.866 86.7639 61.9508 85.6449C60.9951 84.4495 60.1043 83.2037 59.2821 81.9128C58.3232 80.3901 57.4779 78.7988 56.753 77.1518C55.4059 74.0908 54.5523 70.8357 54.2238 67.5077C53.8702 63.9801 54.2503 60.4175 55.3401 57.0439C55.8264 55.5474 56.4634 54.1041 57.2413 52.7363C57.6251 52.1085 58.0088 51.4806 58.4449 50.8877L54.7645 55.9975Z" fill="#FE5D00"/>
<path d="M54.1885 67.5062C52.671 51.0257 65.7006 39.0099 83.335 40.6841C100.969 42.3583 116.476 57.0773 118.028 73.5752C119.581 90.0731 106.516 102.072 88.8817 100.397C71.2473 98.7231 55.7235 84.039 54.1885 67.5062Z" fill="url(#paint0_linear)"/>
<path d="M83.3356 40.6844C68.3525 39.2543 56.6834 47.73 54.3984 60.426C56.8753 48.0613 68.3525 39.8822 83.1437 41.2425C100.778 42.9864 116.284 57.6531 117.837 74.1336C118.06 76.495 117.972 78.8755 117.575 81.2141C118.075 78.6884 118.204 76.1035 117.959 73.5407C116.494 57.0776 100.953 42.3586 83.3356 40.6844Z" fill="url(#paint1_linear)"/>
<path style="mix-blend-mode:multiply" d="M89.022 99.7361C71.405 97.9922 55.8812 83.3429 54.3462 66.845C54.1128 64.5193 54.195 62.1728 54.5904 59.8691C54.0848 62.4233 53.9497 65.037 54.1893 67.6298C55.7242 84.1276 71.2655 98.8467 88.8824 100.521C103.9 101.951 115.569 93.545 117.767 80.7095C115.256 92.9172 103.743 101.062 89.022 99.7361Z" fill="url(#paint2_linear)"/>
<path d="M60.0341 68.0643C58.7783 54.5835 69.4356 44.7824 83.8431 46.1427C98.2507 47.503 110.931 59.6235 112.187 73.0172C113.443 86.4108 102.786 96.2468 88.3782 94.9388C73.9707 93.6308 61.3772 81.5451 60.0341 68.0643Z" fill="#FE5D00"/>
<path d="M88.6929 93.2655C74.3028 91.8878 61.6047 79.8545 60.3488 66.3911C60.1922 64.6476 60.239 62.8918 60.4883 61.1592C59.9558 63.4439 59.8025 65.8006 60.0348 68.135C61.2907 81.6159 73.9889 93.6492 88.3789 95.0095C100.833 96.1954 110.496 89.0103 112.066 78.3198C109.781 87.9988 100.484 94.3817 88.6929 93.2655Z" fill="url(#paint3_linear)"/>
<path style="mix-blend-mode:multiply" d="M83.8432 46.1434C71.3892 44.9575 61.7261 52.1426 60.1562 62.8331C62.4412 53.0844 71.7381 46.7015 83.5292 47.8176C98.0065 49.1605 110.617 61.2287 111.961 74.6921C112.126 76.4353 112.079 78.1921 111.821 79.924C112.354 77.6393 112.507 75.2825 112.274 72.9481C110.931 59.6243 98.2507 47.5211 83.8432 46.1434Z" fill="url(#paint4_linear)"/>
<path d="M54.0831 64.4385C54.0831 64.6478 54.0831 64.8396 54.0831 65.0489L50.4551 70.1761V69.5483L54.1006 64.4385" fill="#FE5D00"/>
<path d="M54.2603 61.8223C54.2603 62.0315 54.2603 62.2234 54.2603 62.4152L50.5625 67.5425V66.9321L54.208 61.8223" fill="#FE5D00"/>
<path d="M54.6777 59.3281C54.6777 59.5025 54.5905 59.6944 54.5556 59.8862L50.9102 64.996C50.9102 64.8042 50.9102 64.6298 51.0323 64.4379L54.6603 59.3281" fill="#FE5D00"/>
<path d="M55.3415 56.9219C55.3415 57.1137 55.2194 57.2881 55.1671 57.4799L51.5391 62.5897C51.5867 62.4063 51.6449 62.2258 51.7135 62.0491L55.3415 56.9219Z" fill="#FE5D00"/>
<path d="M56.2317 54.6543L56.005 55.1775L52.377 60.2873C52.377 60.1129 52.5165 59.9385 52.6037 59.7641L56.2317 54.6543Z" fill="#FE5D00"/>
<path d="M57.3661 52.4736C57.2789 52.6306 57.1917 52.805 57.087 52.9619L53.459 58.0717L53.7381 57.5834L57.3661 52.4736Z" fill="#FE5D00"/>
<path d="M58.376 50.9043L54.7305 56.1362C55.9514 54.3922 57.155 52.6483 58.376 51.0264" fill="#FE5D00"/>
<path d="M113.11 91.1381L113.442 90.7021L109.814 95.812L109.465 96.248L113.11 91.1381Z" fill="#FE5D00"/>
<path d="M111.523 92.9333L111.906 92.5322L108.278 97.6421L107.895 98.0432L111.523 92.9333Z" fill="#FE5D00"/>
<path d="M109.763 94.503L110.199 94.1367L106.553 99.264L106.135 99.6128L109.763 94.503Z" fill="#FE5D00"/>
<path d="M107.825 96.0208L108.296 95.6895L104.668 100.799L104.197 101.131L107.825 96.0208Z" fill="#FE5D00"/>
<path d="M105.698 97.3113L106.187 97.0322L102.559 102.142L102.07 102.421L105.698 97.3113Z" fill="#FE5D00"/>
<path d="M103.448 98.3752L103.971 98.1484L100.343 103.223L99.8027 103.45L103.448 98.3403" fill="#FE5D00"/>
<path d="M101.058 99.2467L101.616 99.0723L98.0054 104.182L97.4473 104.356L101.093 99.2467" fill="#FE5D00"/>
<path d="M98.5128 99.91L99.1059 99.7705L95.4778 104.968L94.8848 105.107L98.5128 99.9972" fill="#FE5D00"/>
<path d="M95.8605 100.346H96.4884L92.8604 105.455H92.2324L95.8605 100.346Z" fill="#FE5D00"/>
<path d="M93.0538 100.537H93.6992L90.0537 105.647H89.4258L93.0538 100.537Z" fill="#FE5D00"/>
<path d="M90.1924 100.502H90.8552L87.2097 105.612H86.5469L90.1924 100.502Z" fill="#FE5D00"/>
<path d="M87.2607 100.206H87.9235L84.2955 105.316H83.6152L87.2607 100.206Z" fill="#FE5D00"/>
<path d="M84.3468 99.7354L85.0096 99.8749L81.3816 104.967L80.7188 104.828L84.3468 99.7354Z" fill="#FE5D00"/>
<path d="M81.505 98.916L82.1504 99.1079L78.5223 104.235L77.877 104.043L81.505 98.916Z" fill="#FE5D00"/>
<path d="M78.8193 97.9912L79.4298 98.2354L75.8018 103.345L75.1738 103.101L78.8193 97.9912Z" fill="#FE5D00"/>
<path d="M75.9933 96.7529L76.6038 97.032L72.9757 102.159L72.3652 101.863L75.9933 96.7529Z" fill="#FE5D00"/>
<path d="M73.4131 95.3936L73.9887 95.7249L70.3606 100.835L69.7676 100.503L73.4131 95.3936Z" fill="#FE5D00"/>
<path d="M70.9171 93.8408L71.4753 94.207L67.8472 99.3343L67.2891 98.968L70.9171 93.8408Z" fill="#FE5D00"/>
<path d="M68.5636 92.1318L69.0869 92.533L65.4588 97.6602L64.9355 97.2416L68.5636 92.1318Z" fill="#FE5D00"/>
<path d="M66.3306 90.2656L66.8365 90.7191L63.1212 95.8289L62.6328 95.3929L66.2608 90.2656" fill="#FE5D00"/>
<path d="M64.2003 88.2256L64.6713 88.6964L61.0432 93.8062L60.5723 93.3354L64.2003 88.2256Z" fill="#FE5D00"/>
<path d="M62.2823 86.0801L62.7184 86.5858L59.0904 91.6956C58.9358 91.5352 58.7902 91.3664 58.6543 91.1899L62.2823 86.0801Z" fill="#FE5D00"/>
<path d="M60.54 83.8135C60.6621 84.0053 60.8017 84.1797 60.9237 84.3541L57.2957 89.4639L56.8945 88.9407L60.54 83.8135Z" fill="#FE5D00"/>
<path d="M58.9677 81.458L59.2992 81.9986L55.6711 87.1084L55.3223 86.5678L58.9677 81.458Z" fill="#FE5D00"/>
<path d="M57.5909 78.9814L57.8875 79.557L54.2594 84.6667C54.1548 84.4749 54.0501 84.3005 53.9629 84.1087L57.5909 78.9814Z" fill="#FE5D00"/>
<path d="M56.4054 76.3838L56.6496 76.9942L53.0215 82.104C52.9343 81.8947 52.8471 81.7029 52.7773 81.511L56.4054 76.3838Z" fill="#FE5D00"/>
<path d="M55.462 73.7676C55.462 73.9769 55.5841 74.1861 55.6539 74.378L52.0259 79.4878C51.9515 79.2877 51.8875 79.084 51.834 78.8774L55.462 73.7676Z" fill="#FE5D00"/>
<path d="M54.7472 71.082L54.9042 71.7099L51.2587 76.8371C51.2587 76.6279 51.2587 76.4186 51.1191 76.2093L54.7472 71.082Z" fill="#FE5D00"/>
<path d="M54.2952 68.3447C54.2952 68.554 54.2952 68.7633 54.2952 68.9726L50.6497 74.0998C50.6497 73.8731 50.6497 73.6638 50.5625 73.4545L54.2952 68.3447Z" fill="#FE5D00"/>
</g>
<defs>
<filter id="filter0_d" x="0.429688" y="0.527344" width="167.724" height="165.173" filterUnits="userSpaceOnUse" color-interpolation-filters="sRGB">
<feFlood flood-opacity="0" result="BackgroundImageFix"/>
<feColorMatrix in="SourceAlpha" type="matrix" values="0 0 0 0 0 0 0 0 0 0 0 0 0 0 0 0 0 0 127 0"/>
<feOffset dy="10"/>
<feGaussianBlur stdDeviation="25"/>
<feColorMatrix type="matrix" values="0 0 0 0 0.898039 0 0 0 0 0.788235 0 0 0 0 0.34902 0 0 0 0.5 0"/>
<feBlend mode="normal" in2="BackgroundImageFix" result="effect1_dropShadow"/>
<feBlend mode="normal" in="SourceGraphic" in2="effect1_dropShadow" result="shape"/>
</filter>
<linearGradient id="paint0_linear" x1="-1.04207e+06" y1="477943" x2="-1.04433e+06" y2="473730" gradientUnits="userSpaceOnUse">
<stop stop-color="#E7A547"/>
<stop offset="0.03" stop-color="#E89739"/>
<stop offset="0.1" stop-color="#EB8020"/>
<stop offset="0.16" stop-color="#EC7111"/>
<stop offset="0.21" stop-color="#ED6C0C"/>
<stop offset="0.32" stop-color="#E98E31"/>
<stop offset="0.56" stop-color="#E2D178"/>
<stop offset="0.6" stop-color="#E3CC73"/>
<stop offset="0.66" stop-color="#E4BF64"/>
<stop offset="0.73" stop-color="#E7A84B"/>
<stop offset="0.8" stop-color="#EA8928"/>
<stop offset="0.84" stop-color="#ED710D"/>
<stop offset="0.89" stop-color="#E7670A"/>
<stop offset="0.97" stop-color="#D64D03"/>
<stop offset="1" stop-color="#D04300"/>
</linearGradient>
<linearGradient id="paint1_linear" x1="-737353" y1="528190" x2="-735860" y2="528606" gradientUnits="userSpaceOnUse">
<stop stop-color="#AD3A00"/>
<stop offset="0.02" stop-color="#B6520F"/>
<stop offset="0.06" stop-color="#C77E2A"/>
<stop offset="0.11" stop-color="#D4A13F"/>
<stop offset="0.15" stop-color="#DDBA4F"/>
<stop offset="0.18" stop-color="#E3C958"/>
<stop offset="0.21" stop-color="#E5CE5B"/>
<stop offset="0.56" stop-color="#E2D178"/>
<stop offset="0.63" stop-color="#E3D073"/>
<stop offset="0.72" stop-color="#E4CF64"/>
<stop offset="0.76" stop-color="#E5CE5B"/>
<stop offset="0.85" stop-color="#C8822C"/>
<stop offset="0.94" stop-color="#AD3A00"/>
<stop offset="0.95" stop-color="#C04603"/>
<stop offset="0.97" stop-color="#D95606"/>
<stop offset="0.99" stop-color="#E86008"/>
<stop offset="1" stop-color="#ED6309"/>
</linearGradient>
<linearGradient id="paint2_linear" x1="-739570" y1="528916" x2="-738062" y2="529343" gradientUnits="userSpaceOnUse">
<stop stop-color="#750900"/>
<stop offset="0.16" stop-color="#8D1C00"/>
<stop offset="0.48" stop-color="#CA4B00"/>
<stop offset="0.5" stop-color="#CE4E00"/>
<stop offset="1" stop-color="#750900"/>
</linearGradient>
<linearGradient id="paint3_linear" x1="-608606" y1="428856" x2="-607570" y2="429145" gradientUnits="userSpaceOnUse">
<stop stop-color="#AD3A00"/>
<stop offset="0.01" stop-color="#B2480A"/>
<stop offset="0.02" stop-color="#BF6C23"/>
<stop offset="0.04" stop-color="#CB8B38"/>
<stop offset="0.05" stop-color="#D4A44A"/>
<stop offset="0.07" stop-color="#DBB757"/>
<stop offset="0.1" stop-color="#E0C561"/>
<stop offset="0.12" stop-color="#E3CD66"/>
<stop offset="0.18" stop-color="#E4CF68"/>
<stop offset="0.56" stop-color="#E2D178"/>
<stop offset="0.67" stop-color="#E3D073"/>
<stop offset="0.82" stop-color="#E4CF64"/>
<stop offset="0.88" stop-color="#E5CE5B"/>
<stop offset="0.92" stop-color="#E8AA40"/>
<stop offset="1" stop-color="#ED6309"/>
</linearGradient>
<linearGradient id="paint4_linear" x1="-606899" y1="429039" x2="-607312" y2="430228" gradientUnits="userSpaceOnUse">
<stop stop-color="#750900"/>
<stop offset="0.1" stop-color="#8D1C00"/>
<stop offset="0.32" stop-color="#CA4B00"/>
<stop offset="0.34" stop-color="#CE4E00"/>
<stop offset="0.55" stop-color="#EA9226"/>
<stop offset="0.58" stop-color="#E99A2E"/>
<stop offset="0.65" stop-color="#E7AF41"/>
<stop offset="0.74" stop-color="#E6BE4F"/>
<stop offset="0.84" stop-color="#E5C657"/>
<stop offset="0.99" stop-color="#E5C959"/>
</linearGradient>
</defs>
</svg>
