<svg width="132" height="128" viewBox="0 0 132 128" fill="none" xmlns="http://www.w3.org/2000/svg">
<g filter="url(#filter0_d)">
<path d="M42.2047 51.0522C41.9737 51.5527 41.7684 52.0532 41.5887 52.5665C41.2089 53.6607 40.9465 54.7921 40.8057 55.9417C40.4878 58.5251 40.7063 61.1464 41.4475 63.6416C42.1379 66.0079 43.204 68.248 44.6049 70.2764C45.3548 71.3734 46.1872 72.4116 47.095 73.382C47.8602 74.2089 48.6746 74.9889 49.5337 75.7176C50.3561 76.4026 51.2129 77.0451 52.1008 77.6426C52.9864 78.233 53.9106 78.7848 54.8604 79.2981C55.8698 79.8314 56.9066 80.3112 57.9665 80.7354C59.2214 81.2447 60.5076 81.6734 61.8171 82.0188C64.8438 82.7773 67.9768 83.0203 71.0842 82.7374C79.0422 81.9931 85.0491 77.771 87.7702 71.919L89.6955 67.7097C87.0129 73.5745 81.006 77.7966 73.0095 78.541C69.902 78.8109 66.7712 78.5681 63.7424 77.8223C61.3108 77.2142 58.962 76.3136 56.7472 75.1402C55.8055 74.6402 54.8927 74.0875 54.0133 73.4847C53.1223 72.8914 52.2653 72.2487 51.4462 71.5597C49.5591 69.984 47.8965 68.1576 46.5046 66.1312C45.1059 64.1016 44.04 61.8619 43.3471 59.4965C42.6074 57.001 42.3889 54.38 42.7053 51.7965C42.8532 50.647 43.1199 49.5159 43.5011 48.4214C43.6755 47.9106 43.8769 47.4094 44.1044 46.9199L42.2047 51.0522Z" fill="#FE5D00"/>
<path d="M43.3725 59.4704C39.984 47.7409 47.775 37.2433 60.7772 36.0242C73.7794 34.805 87.0512 43.3391 90.4269 55.0686C93.8026 66.7982 85.9858 77.3343 73.0221 78.5149C60.0584 79.6956 46.7482 71.2 43.3725 59.4704Z" fill="url(#paint0_linear)"/>
<path d="M60.7776 36.024C49.7264 37.0635 42.4487 44.8019 42.5899 54.2985C42.6798 45.0072 49.906 37.487 60.7776 36.4731C73.7669 35.2668 87.0515 43.7881 90.4272 55.5176C90.9164 57.186 91.1797 58.9125 91.2101 60.6509C91.2284 58.7489 90.9645 56.8546 90.4272 55.03C87.0515 43.3389 73.7669 34.8176 60.7776 36.024Z" fill="url(#paint1_linear)"/>
<path style="mix-blend-mode:multiply" d="M73.0219 77.9502C60.0325 79.2336 46.748 70.6353 43.3723 58.9057C42.8838 57.2372 42.6205 55.5108 42.5893 53.7725C42.566 55.6917 42.8299 57.6036 43.3723 59.4447C46.748 71.1743 60.0582 79.6956 73.0219 78.4892C84.086 77.4497 91.3765 69.6856 91.2096 60.1634C91.1197 69.4546 83.8678 76.9364 73.0219 77.9502Z" fill="url(#paint2_linear)"/>
<path d="M47.289 59.1409C44.5294 49.5673 50.9471 40.9819 61.5106 39.9937C72.0741 39.0056 83.0355 45.974 85.7437 55.5989C88.452 65.2238 82.137 73.7194 71.4837 74.7076C60.8303 75.6957 50.0486 68.7401 47.289 59.1409Z" fill="#FE5D00"/>
<path d="M71.8672 73.3688C61.2524 74.357 50.3937 67.4014 47.6341 57.8021C47.268 56.5493 47.0568 55.2563 47.0052 53.9521C46.9414 55.6604 47.1538 57.3678 47.6341 59.0084C50.3937 68.6077 61.2524 75.5633 71.8672 74.5751C81.0573 73.7153 87.0514 67.1832 86.7177 59.1753C86.4353 66.657 80.5952 72.5603 71.8672 73.3688Z" fill="url(#paint3_linear)"/>
<path style="mix-blend-mode:multiply" d="M61.895 39.9127C52.7049 40.7725 46.7108 47.3046 47.0445 55.3125C47.3654 47.9334 53.2055 42.043 61.895 41.196C72.5098 40.2078 83.3685 47.1763 86.1281 56.7499C86.4921 58.0032 86.7033 59.2959 86.757 60.5998C86.8207 58.8873 86.6083 57.1758 86.1281 55.5307C83.4199 45.893 72.5098 38.9245 61.895 39.9127Z" fill="url(#paint4_linear)"/>
<path d="M42.8602 57.2627C42.8602 57.4039 42.8602 57.5579 42.9501 57.7119L41.0633 61.934L40.9863 61.4848L42.9116 57.2884" fill="#FE5D00"/>
<path d="M42.6284 55.3506V55.7869L40.7031 59.9962V59.547L42.6284 55.3506Z" fill="#FE5D00"/>
<path d="M42.5905 53.4778C42.5905 53.619 42.5905 53.7601 42.5905 53.9013L40.6523 58.0849C40.6523 57.9438 40.6523 57.7898 40.6523 57.6486L42.5776 53.4521" fill="#FE5D00"/>
<path d="M42.7456 51.668C42.7386 51.8048 42.7386 51.9418 42.7456 52.0786L40.8203 56.2879C40.8203 56.1468 40.8203 56.0056 40.8203 55.8644L42.7456 51.668Z" fill="#FE5D00"/>
<path d="M43.0796 49.8838C43.0796 50.0121 43.0796 50.1533 42.9769 50.2816L41.0645 54.4909C41.0645 54.3626 41.0645 54.2214 41.1671 54.0931L43.0924 49.8838" fill="#FE5D00"/>
<path d="M43.6318 48.1523L43.5034 48.5373L41.5781 52.7466C41.5781 52.6055 41.668 52.4771 41.7065 52.3488L43.6318 48.1523Z" fill="#FE5D00"/>
<path d="M44.105 46.8936L42.1797 51.1029L44.105 46.9064" fill="#FE5D00"/>
<path d="M89.2847 68.4667L89.4772 68.1074L87.5391 72.3039C87.5391 72.4322 87.4236 72.5477 87.3594 72.676L89.2847 68.4667Z" fill="#FE5D00"/>
<path d="M88.3991 69.9813C88.4632 69.8658 88.5402 69.7503 88.6173 69.6348L86.692 73.8441L86.4609 74.1906L88.3991 69.9813Z" fill="#FE5D00"/>
<path d="M87.3463 71.4058L87.603 71.085L85.6777 75.2814L85.4082 75.6151L87.3463 71.4058Z" fill="#FE5D00"/>
<path d="M86.1402 72.7268L86.4354 72.4316L84.5101 76.6281L84.2148 76.9233L86.1402 72.7268Z" fill="#FE5D00"/>
<path d="M84.7799 73.9461L85.088 73.6895L83.1627 77.8859L82.8418 78.1554L84.7799 73.9461Z" fill="#FE5D00"/>
<path d="M83.2925 75.0367L83.6391 74.8057L81.7137 79.0021L81.3672 79.246L83.2925 75.0367Z" fill="#FE5D00"/>
<path d="M81.6734 76.051L82.0584 75.8457L80.1203 80.0422L79.748 80.2603L81.6734 76.051Z" fill="#FE5D00"/>
<path d="M79.9292 76.8213L80.34 76.6416L78.4146 80.8509L78.0039 81.0306L79.9292 76.8213Z" fill="#FE5D00"/>
<path d="M78.0679 77.5015L78.5171 77.3604L76.579 81.5697L76.1426 81.7108L78.0679 77.5015Z" fill="#FE5D00"/>
<path d="M76.0659 78.0402L76.528 77.9375L74.5898 82.134L74.1406 82.2495L76.0659 78.0402Z" fill="#FE5D00"/>
<path d="M73.9878 78.3994H74.4628L72.5374 82.6087H72.0625L73.9878 78.3994Z" fill="#FE5D00"/>
<path d="M71.8687 78.6182H72.3692L70.4439 82.8275H69.9434L71.8687 78.6182Z" fill="#FE5D00"/>
<path d="M69.648 78.6182H70.1357L68.2104 82.8275H67.7227L69.648 78.631" fill="#FE5D00"/>
<path d="M67.478 78.4512H67.9786L66.0405 82.6605H65.5527L67.478 78.4512Z" fill="#FE5D00"/>
<path d="M65.3354 78.1309L65.8232 78.2207L63.8979 82.4685L63.4102 82.3786L65.3354 78.1694" fill="#FE5D00"/>
<path d="M63.1909 77.6426L63.6658 77.7709L61.7405 81.9802L61.2656 81.8519L63.1909 77.6426Z" fill="#FE5D00"/>
<path d="M61.1245 77.0137L61.5866 77.1677L59.6613 81.377L59.1992 81.223L61.1245 77.0137Z" fill="#FE5D00"/>
<path d="M59.1108 76.2432L59.5729 76.4228L57.6476 80.6321L57.1855 80.4396L59.1108 76.2432Z" fill="#FE5D00"/>
<path d="M57.1733 75.332L57.6097 75.5502L55.6844 79.7466L55.248 79.5285L57.1733 75.332Z" fill="#FE5D00"/>
<path d="M55.2984 74.2803L55.7219 74.5369L53.7966 78.7334L53.373 78.4896L55.2984 74.2803Z" fill="#FE5D00"/>
<path d="M53.4761 73.0869L53.8868 73.3692L51.9615 77.5785L51.5508 77.2962L53.4761 73.0869Z" fill="#FE5D00"/>
<path d="M51.7936 71.8027L52.1658 72.1107L50.2405 76.32L49.8555 76.012L51.7936 71.8027Z" fill="#FE5D00"/>
<path d="M50.2155 70.4043L50.562 70.738L48.6367 74.9473L48.2773 74.6136L50.2155 70.4043Z" fill="#FE5D00"/>
<path d="M48.7635 68.916L49.0844 69.2625L47.1462 73.4846L46.8125 73.1253L48.7635 68.916Z" fill="#FE5D00"/>
<path d="M47.4811 67.3115L47.7635 67.6837L45.8382 71.893C45.7483 71.7646 45.6457 71.6491 45.543 71.5208L47.4811 67.3115Z" fill="#FE5D00"/>
<path d="M46.1979 65.5918C46.2749 65.733 46.3648 65.8613 46.4546 66.0025L44.5293 70.1989L44.2598 69.8011L46.1979 65.5918Z" fill="#FE5D00"/>
<path d="M45.1441 63.834L45.3751 64.2446L43.4498 68.4539L43.2188 68.0304L45.1441 63.834Z" fill="#FE5D00"/>
<path d="M44.2741 61.9346C44.3382 62.0757 44.3896 62.2297 44.4538 62.3709L42.5285 66.5674L42.3359 66.1439L44.2741 61.9346Z" fill="#FE5D00"/>
<path d="M43.5542 60.0742L43.7082 60.5234L41.7829 64.7327L41.6289 64.2835L43.5542 60.0742Z" fill="#FE5D00"/>
</g>
<defs>
<filter id="filter0_d" x="0.652344" y="0.908203" width="130.56" height="126.944" filterUnits="userSpaceOnUse" color-interpolation-filters="sRGB">
<feFlood flood-opacity="0" result="BackgroundImageFix"/>
<feColorMatrix in="SourceAlpha" type="matrix" values="0 0 0 0 0 0 0 0 0 0 0 0 0 0 0 0 0 0 127 0"/>
<feOffset dy="5"/>
<feGaussianBlur stdDeviation="20"/>
<feColorMatrix type="matrix" values="0 0 0 0 0.898039 0 0 0 0 0.788235 0 0 0 0 0.34902 0 0 0 0.5 0"/>
<feBlend mode="normal" in2="BackgroundImageFix" result="effect1_dropShadow"/>
<feBlend mode="normal" in="SourceGraphic" in2="effect1_dropShadow" result="shape"/>
</filter>
<linearGradient id="paint0_linear" x1="-507977" y1="410666" x2="-510306" y2="407970" gradientUnits="userSpaceOnUse">
<stop stop-color="#E7A547"/>
<stop offset="0.03" stop-color="#E89739"/>
<stop offset="0.1" stop-color="#EB8020"/>
<stop offset="0.16" stop-color="#EC7111"/>
<stop offset="0.21" stop-color="#ED6C0C"/>
<stop offset="0.32" stop-color="#E98E31"/>
<stop offset="0.56" stop-color="#E2D178"/>
<stop offset="0.6" stop-color="#E3CC73"/>
<stop offset="0.66" stop-color="#E4BF64"/>
<stop offset="0.73" stop-color="#E7A84B"/>
<stop offset="0.8" stop-color="#EA8928"/>
<stop offset="0.84" stop-color="#ED710D"/>
<stop offset="0.89" stop-color="#E7670A"/>
<stop offset="0.97" stop-color="#D64D03"/>
<stop offset="1" stop-color="#D04300"/>
</linearGradient>
<linearGradient id="paint1_linear" x1="-288383" y1="408111" x2="-287435" y2="408174" gradientUnits="userSpaceOnUse">
<stop stop-color="#AD3A00"/>
<stop offset="0.02" stop-color="#B6520F"/>
<stop offset="0.06" stop-color="#C77E2A"/>
<stop offset="0.11" stop-color="#D4A13F"/>
<stop offset="0.15" stop-color="#DDBA4F"/>
<stop offset="0.18" stop-color="#E3C958"/>
<stop offset="0.21" stop-color="#E5CE5B"/>
<stop offset="0.56" stop-color="#E2D178"/>
<stop offset="0.63" stop-color="#E3D073"/>
<stop offset="0.72" stop-color="#E4CF64"/>
<stop offset="0.76" stop-color="#E5CE5B"/>
<stop offset="0.85" stop-color="#C8822C"/>
<stop offset="0.94" stop-color="#AD3A00"/>
<stop offset="0.95" stop-color="#C04603"/>
<stop offset="0.97" stop-color="#D95606"/>
<stop offset="0.99" stop-color="#E86008"/>
<stop offset="1" stop-color="#ED6309"/>
</linearGradient>
<linearGradient id="paint2_linear" x1="-289524" y1="408892" x2="-288564" y2="408959" gradientUnits="userSpaceOnUse">
<stop stop-color="#750900"/>
<stop offset="0.16" stop-color="#8D1C00"/>
<stop offset="0.48" stop-color="#CA4B00"/>
<stop offset="0.5" stop-color="#CE4E00"/>
<stop offset="1" stop-color="#750900"/>
</linearGradient>
<linearGradient id="paint3_linear" x1="-238857" y1="332061" x2="-238197" y2="332105" gradientUnits="userSpaceOnUse">
<stop stop-color="#AD3A00"/>
<stop offset="0.01" stop-color="#B2480A"/>
<stop offset="0.02" stop-color="#BF6C23"/>
<stop offset="0.04" stop-color="#CB8B38"/>
<stop offset="0.05" stop-color="#D4A44A"/>
<stop offset="0.07" stop-color="#DBB757"/>
<stop offset="0.1" stop-color="#E0C561"/>
<stop offset="0.12" stop-color="#E3CD66"/>
<stop offset="0.18" stop-color="#E4CF68"/>
<stop offset="0.56" stop-color="#E2D178"/>
<stop offset="0.67" stop-color="#E3D073"/>
<stop offset="0.82" stop-color="#E4CF64"/>
<stop offset="0.88" stop-color="#E5CE5B"/>
<stop offset="0.92" stop-color="#E8AA40"/>
<stop offset="1" stop-color="#ED6309"/>
</linearGradient>
<linearGradient id="paint4_linear" x1="-239286" y1="331248" x2="-239459" y2="332191" gradientUnits="userSpaceOnUse">
<stop stop-color="#750900"/>
<stop offset="0.1" stop-color="#8D1C00"/>
<stop offset="0.32" stop-color="#CA4B00"/>
<stop offset="0.34" stop-color="#CE4E00"/>
<stop offset="0.55" stop-color="#EA9226"/>
<stop offset="0.58" stop-color="#E99A2E"/>
<stop offset="0.65" stop-color="#E7AF41"/>
<stop offset="0.74" stop-color="#E6BE4F"/>
<stop offset="0.84" stop-color="#E5C657"/>
<stop offset="0.99" stop-color="#E5C959"/>
</linearGradient>
</defs>
</svg>
