<svg width="135" height="130" viewBox="0 0 135 130" fill="none" xmlns="http://www.w3.org/2000/svg">
<g filter="url(#filter0_d)">
<path d="M46.7531 70.2762C46.9647 70.8154 47.2043 71.3432 47.4709 71.8574C48.0366 72.9492 48.7091 73.9822 49.4786 74.9414C51.2346 77.0901 53.4148 78.8538 55.8831 80.1224C58.2089 81.3279 60.7113 82.1569 63.297 82.5783C64.6882 82.8031 66.0939 82.9268 67.503 82.9484C68.7016 82.9595 69.8999 82.9034 71.0922 82.7802C72.2138 82.6568 73.3355 82.4774 74.4571 82.2419C75.5706 81.9981 76.6711 81.6987 77.7546 81.3448C78.8987 80.9586 80.0218 80.5132 81.1195 80.0103C82.4334 79.4075 83.7039 78.7143 84.9218 77.9356C87.7283 76.1721 90.216 73.9464 92.2796 71.3528C97.5512 64.7027 98.7177 56.9984 96.1941 50.6399L94.3883 46.0645C96.9119 52.4342 95.7342 60.1384 90.4626 66.7885C88.4002 69.3791 85.9167 71.6045 83.116 73.3714C81.8918 74.1459 80.6178 74.8389 79.3025 75.446C78.2082 75.9537 77.0846 76.3956 75.9376 76.7693C74.8585 77.1283 73.7616 77.4315 72.6513 77.6777C71.5296 77.9132 70.408 78.0926 69.2864 78.216C68.0941 78.3389 66.8958 78.395 65.6972 78.3842C64.2881 78.3631 62.8823 78.2394 61.4912 78.0141C58.9055 77.5927 56.4031 76.7637 54.0772 75.5582C51.6056 74.2948 49.4244 72.5303 47.6728 70.3771C46.8996 69.4207 46.2269 68.3873 45.6651 67.2932C45.3985 66.7789 45.1589 66.2512 44.9473 65.712L46.7531 70.2762Z" fill="#FE5D00"/>
<path d="M54.0772 75.5593C42.5918 69.5485 40.2588 55.8558 48.8616 45.0003C57.4645 34.1448 73.7728 30.1973 85.2582 36.2194C96.7436 42.2415 99.0765 55.923 90.4625 66.7897C81.8485 77.6564 65.5626 81.5815 54.0772 75.5593Z" fill="url(#paint0_linear)"/>
<path d="M48.8736 44.9997C41.5606 54.2291 42.1439 65.4995 49.5465 72.3626C42.4803 65.4658 42.0205 54.4197 49.2213 45.3249C57.8241 34.4582 74.1212 30.5332 85.6066 36.544C87.2363 37.4072 88.7449 38.4819 90.0931 39.7401C88.6451 38.3373 87.0017 37.1512 85.214 36.2188C73.7735 30.1967 57.4764 34.133 48.8736 44.9997Z" fill="url(#paint1_linear)"/>
<path style="mix-blend-mode:multiply" d="M90.0353 66.385C81.4325 77.2405 65.1354 81.1655 53.6388 75.1546C52.0118 74.3005 50.5035 73.2374 49.1523 71.9922C50.614 73.4159 52.2767 74.6175 54.0875 75.5583C65.5728 81.5804 81.8699 77.6554 90.4728 66.7887C97.8081 57.5369 97.2025 46.244 89.7661 39.3809C96.7763 46.3113 97.2249 57.3126 90.0353 66.385Z" fill="url(#paint2_linear)"/>
<path d="M56.9248 71.9582C47.5368 67.0463 45.6301 55.8656 52.6626 46.9838C59.6952 38.1021 73.02 34.8948 82.3967 39.8179C91.7734 44.741 93.7026 55.9217 86.6589 64.8034C79.6151 73.6852 66.3127 76.8813 56.9248 71.9582Z" fill="#FE5D00"/>
<path d="M85.6947 63.8725C78.6621 72.7543 65.3485 75.9616 55.9606 71.0385C54.7534 70.4011 53.6242 69.6259 52.5957 68.7283C53.8633 70.0318 55.3327 71.1224 56.9476 71.958C66.3355 76.8811 79.6492 73.6739 86.6817 64.8033C92.7721 57.1215 92.1664 47.7127 85.8068 42.1279C91.213 47.7912 91.4935 56.6056 85.6947 63.8725Z" fill="url(#paint3_linear)"/>
<path style="mix-blend-mode:multiply" d="M52.6621 46.9835C46.5829 54.6653 47.1886 64.0741 53.5481 69.6476C48.1083 64.0405 47.8728 55.1811 53.6267 47.9142C60.6704 39.0325 73.984 35.8252 83.372 40.7371C84.5838 41.3712 85.7138 42.1508 86.7369 43.0584C85.4749 41.7455 84.0045 40.6504 82.385 39.8175C73.0195 34.8944 59.7058 38.1129 52.6621 46.9835Z" fill="url(#paint4_linear)"/>
<path d="M52.002 74.3477L52.417 74.6168L54.2228 79.1811L53.819 78.9231L52.002 74.3477Z" fill="#FE5D00"/>
<path d="M50.3652 73.1025L50.7354 73.3941L52.5412 77.9695L52.2384 77.7116L50.4213 73.1474" fill="#FE5D00"/>
<path d="M48.873 71.7568L49.1983 72.082L51.0153 76.6463C50.9014 76.5435 50.7928 76.4349 50.69 76.321L48.873 71.7568Z" fill="#FE5D00"/>
<path d="M47.6055 70.2988L47.8971 70.6465L49.7029 75.2107L49.4225 74.8743L47.6055 70.2988Z" fill="#FE5D00"/>
<path d="M46.4941 68.7402L46.7409 69.1103L48.5467 73.6745L48.3111 73.3045L46.4941 68.7402Z" fill="#FE5D00"/>
<path d="M45.5078 67.0693L45.7097 67.4618L47.5155 72.0261L47.3136 71.6448L45.5078 67.0693Z" fill="#FE5D00"/>
<path d="M44.9688 65.7568L46.7746 70.3323C46.1689 68.8184 45.5744 67.2932 44.9688 65.7681" fill="#FE5D00"/>
<path d="M94.7005 46.9393C94.7005 46.7936 94.6108 46.659 94.5547 46.5244L96.3718 51.0887C96.3718 51.2232 96.4615 51.369 96.5176 51.5036L94.7005 46.9393Z" fill="#FE5D00"/>
<path d="M95.2064 48.7338L95.1055 48.3076L96.9225 52.8719L97.0235 53.298L95.2064 48.7338Z" fill="#FE5D00"/>
<path d="M95.5312 50.5838C95.5312 50.4381 95.5312 50.2923 95.5312 50.1465L97.337 54.7107C97.337 54.8565 97.337 55.0023 97.3931 55.1481L95.5873 50.5838" fill="#FE5D00"/>
<path d="M95.6562 52.4788C95.6562 52.3218 95.6562 52.1761 95.6562 52.0303L97.4732 56.5945C97.4732 56.7403 97.4732 56.8973 97.4732 57.0431L95.6562 52.4788Z" fill="#FE5D00"/>
<path d="M95.5996 54.43V53.9814L97.4054 58.5457V58.9942L95.5996 54.43Z" fill="#FE5D00"/>
<path d="M95.3418 56.4042C95.3418 56.2584 95.3418 56.1126 95.4203 55.9668L97.2261 60.531L97.1588 60.9684L95.3418 56.4042Z" fill="#FE5D00"/>
<path d="M94.8574 58.3109C94.8574 58.1539 94.9359 58.0081 94.9808 57.8623L96.7866 62.4265C96.7866 62.5723 96.7081 62.7293 96.6632 62.8751L94.8574 58.3109Z" fill="#FE5D00"/>
<path d="M94.2402 60.2513L94.4085 59.8027L96.2255 64.367L96.0572 64.8267L94.2402 60.2513Z" fill="#FE5D00"/>
<path d="M93.4004 62.18C93.4677 62.0342 93.5462 61.8884 93.6135 61.7314L95.4193 66.3069C95.352 66.4527 95.2847 66.5985 95.2062 66.7443L93.4004 62.18Z" fill="#FE5D00"/>
<path d="M92.3359 64.1088C92.4257 63.9742 92.5154 63.8284 92.5939 63.6826L94.4109 68.2469C94.3212 68.3926 94.2314 68.5384 94.1529 68.6842L92.3359 64.1088Z" fill="#FE5D00"/>
<path d="M91.0898 65.9808L91.3927 65.5547L93.1985 70.1189C93.1051 70.2662 93.004 70.4084 92.8956 70.5451L91.0898 65.9808Z" fill="#FE5D00"/>
<path d="M89.6445 67.7748C89.7679 67.6402 89.8801 67.5169 89.9922 67.3711L91.798 71.9465L91.4615 72.339L89.6445 67.7748Z" fill="#FE5D00"/>
<path d="M88.0605 69.458L88.4307 69.0879L90.2477 73.6521L89.8775 74.0222L88.0605 69.458Z" fill="#FE5D00"/>
<path d="M86.3574 70.9824L86.7612 70.6348L88.567 75.2102L88.1632 75.5467L86.3574 70.9824Z" fill="#FE5D00"/>
<path d="M84.5391 72.4073L84.9653 72.1045L86.7711 76.6687L86.3449 76.9715L84.5391 72.4073Z" fill="#FE5D00"/>
<path d="M82.5781 73.7071L83.0268 73.4268L84.8438 77.991L84.3951 78.2714L82.5781 73.7071Z" fill="#FE5D00"/>
<path d="M80.5801 74.8185L81.0399 74.583L82.8569 79.1472C82.6999 79.2257 82.5429 79.3042 82.3971 79.394L80.5801 74.8185Z" fill="#FE5D00"/>
<path d="M78.5039 75.7936L78.9862 75.5918L80.792 80.156L80.3209 80.3579L78.5039 75.7936Z" fill="#FE5D00"/>
<path d="M76.375 76.5896L76.8685 76.4102L78.6855 80.9744L78.192 81.1538L76.375 76.5896Z" fill="#FE5D00"/>
<path d="M74.209 77.285L74.7025 77.1504L76.5195 81.7146L76.0148 81.8492L74.209 77.285Z" fill="#FE5D00"/>
<path d="M71.955 77.8128L72.4261 77.7119L74.2319 82.2761L73.7159 82.3771L71.9102 77.8128" fill="#FE5D00"/>
<path d="M69.7227 78.1601L70.2386 78.0928L72.0556 82.657L71.5397 82.7243L69.7227 78.1601Z" fill="#FE5D00"/>
<path d="M67.4902 78.3516H68.0174L69.8232 82.9158H69.3073L67.4902 78.3516Z" fill="#FE5D00"/>
<path d="M65.2695 78.373H65.7743L67.5913 82.9373H67.0753L65.2695 78.373Z" fill="#FE5D00"/>
<path d="M63.0723 78.2275H63.5658L65.3828 82.7918H64.8781L63.0723 78.2275Z" fill="#FE5D00"/>
<path d="M60.8496 77.8906L61.3543 77.9915L63.1601 82.5558L62.6554 82.4661L60.8496 77.8906Z" fill="#FE5D00"/>
<path d="M58.7305 77.3965L59.2128 77.5311L61.0298 82.0953L60.5363 81.9607L58.7305 77.3965Z" fill="#FE5D00"/>
<path d="M56.7246 76.7246L57.1957 76.8928L59.0015 81.4571L58.5304 81.2889L56.7246 76.7246Z" fill="#FE5D00"/>
<path d="M54.6699 75.8604L55.1298 76.0734L56.9356 80.6489L56.4869 80.4246L54.6699 75.8604Z" fill="#FE5D00"/>
</g>
<defs>
<filter id="filter0_d" x="0.671875" y="0.397461" width="133.801" height="129.552" filterUnits="userSpaceOnUse" color-interpolation-filters="sRGB">
<feFlood flood-opacity="0" result="BackgroundImageFix"/>
<feColorMatrix in="SourceAlpha" type="matrix" values="0 0 0 0 0 0 0 0 0 0 0 0 0 0 0 0 0 0 127 0"/>
<feOffset dx="-3" dy="7"/>
<feGaussianBlur stdDeviation="20"/>
<feColorMatrix type="matrix" values="0 0 0 0 0.898039 0 0 0 0 0.788235 0 0 0 0 0.34902 0 0 0 0.6 0"/>
<feBlend mode="normal" in2="BackgroundImageFix" result="effect1_dropShadow"/>
<feBlend mode="normal" in="SourceGraphic" in2="effect1_dropShadow" result="shape"/>
</filter>
<linearGradient id="paint0_linear" x1="139.541" y1="15.8318" x2="35.5851" y2="3.94987" gradientUnits="userSpaceOnUse">
<stop stop-color="#FE5D00"/>
<stop offset="0.244792" stop-color="#EC8143"/>
<stop offset="0.458333" stop-color="#EAA47C"/>
<stop offset="0.6" stop-color="#E89E74"/>
<stop offset="0.677083" stop-color="#EB9666"/>
<stop offset="0.765625" stop-color="#ED864B"/>
<stop offset="0.875" stop-color="#F2742A"/>
<stop offset="1" stop-color="#FE5D00"/>
</linearGradient>
<linearGradient id="paint1_linear" x1="54.7353" y1="17.0712" x2="95.1567" y2="-15.3311" gradientUnits="userSpaceOnUse">
<stop stop-color="#AD3A00"/>
<stop offset="0.02" stop-color="#B6520F"/>
<stop offset="0.06" stop-color="#C77E2A"/>
<stop offset="0.11" stop-color="#D4A13F"/>
<stop offset="0.15" stop-color="#DDBA4F"/>
<stop offset="0.18" stop-color="#E3C958"/>
<stop offset="0.21" stop-color="#E5CE5B"/>
<stop offset="0.56" stop-color="#E2D178"/>
<stop offset="0.63" stop-color="#E3D073"/>
<stop offset="0.72" stop-color="#E4CF64"/>
<stop offset="0.76" stop-color="#E5CE5B"/>
<stop offset="0.85" stop-color="#C8822C"/>
<stop offset="0.94" stop-color="#AD3A00"/>
<stop offset="0.95" stop-color="#C04603"/>
<stop offset="0.97" stop-color="#D95606"/>
<stop offset="0.99" stop-color="#E86008"/>
<stop offset="1" stop-color="#ED6309"/>
</linearGradient>
<linearGradient id="paint2_linear" x1="68.0904" y1="34.1289" x2="109.013" y2="1.70189" gradientUnits="userSpaceOnUse">
<stop stop-color="#750900"/>
<stop offset="0.16" stop-color="#8D1C00"/>
<stop offset="0.48" stop-color="#CA4B00"/>
<stop offset="0.5" stop-color="#CE4E00"/>
<stop offset="1" stop-color="#750900"/>
</linearGradient>
<linearGradient id="paint3_linear" x1="70.6317" y1="29.6226" x2="104.138" y2="2.6013" gradientUnits="userSpaceOnUse">
<stop stop-color="#AD3A00"/>
<stop offset="0.01" stop-color="#B2480A"/>
<stop offset="0.02" stop-color="#BF6C23"/>
<stop offset="0.04" stop-color="#CB8B38"/>
<stop offset="0.05" stop-color="#D4A44A"/>
<stop offset="0.07" stop-color="#DBB757"/>
<stop offset="0.1" stop-color="#E0C561"/>
<stop offset="0.12" stop-color="#E3CD66"/>
<stop offset="0.18" stop-color="#E4CF68"/>
<stop offset="0.56" stop-color="#E2D178"/>
<stop offset="0.67" stop-color="#E3D073"/>
<stop offset="0.82" stop-color="#E4CF64"/>
<stop offset="0.88" stop-color="#E5CE5B"/>
<stop offset="0.92" stop-color="#E8AA40"/>
<stop offset="1" stop-color="#ED6309"/>
</linearGradient>
<linearGradient id="paint4_linear" x1="-266630" y1="-370924" x2="-267323" y2="-371004" gradientUnits="userSpaceOnUse">
<stop stop-color="#750900"/>
<stop offset="0.1" stop-color="#8D1C00"/>
<stop offset="0.32" stop-color="#CA4B00"/>
<stop offset="0.34" stop-color="#CE4E00"/>
<stop offset="0.55" stop-color="#EA9226"/>
<stop offset="0.58" stop-color="#E99A2E"/>
<stop offset="0.65" stop-color="#E7AF41"/>
<stop offset="0.74" stop-color="#E6BE4F"/>
<stop offset="0.84" stop-color="#E5C657"/>
<stop offset="0.99" stop-color="#E5C959"/>
</linearGradient>
</defs>
</svg>
