<svg width="36" height="36" viewBox="0 0 36 36" fill="none" xmlns="http://www.w3.org/2000/svg">
<g clip-path="url(#clip0)">
<path d="M25.1885 6.93262C28.8054 9.28977 31.2017 13.3699 31.2017 17.9998C31.2017 22.6297 28.8054 26.7098 25.1885 29.067C31.1739 28.9292 36.0006 24.0177 36.0006 17.9998C36.0006 11.9819 31.1739 7.07043 25.1885 6.93262Z" fill="white"/>
<path d="M18.2598 6.93262C21.8767 9.28977 24.273 13.3699 24.273 17.9998C24.273 22.6297 21.8767 26.7098 18.2598 29.067C24.2452 28.9292 29.0719 24.0177 29.0719 17.9998C29.0719 11.9819 24.2452 7.07043 18.2598 6.93262Z" fill="white"/>
<path fill-rule="evenodd" clip-rule="evenodd" d="M0 18.0001C0 11.8959 4.96624 6.92969 11.0705 6.92969C17.1747 6.92969 22.1409 11.8959 22.1409 18.0001C22.1409 24.1044 17.1747 29.0705 11.0704 29.0705C4.96617 29.0705 0 24.1044 0 18.0001ZM12.4675 12.8628C14.2921 12.959 15.7389 13.4485 15.906 15.0354L15.9056 15.0355C16.0297 16.1966 15.52 16.9115 14.7023 17.334C16.0522 17.6012 16.8996 18.3378 16.7392 20.0516C16.5411 22.1793 14.88 22.7995 12.5047 23.0018L12.5125 25.2311L11.0993 25.2744L11.0919 23.075C10.7257 23.0865 10.3506 23.095 9.96337 23.0991L9.97112 25.3089L8.55951 25.3518L8.55064 23.1182C8.42086 23.1214 8.29007 23.124 8.15834 23.1267C7.95489 23.1308 7.74919 23.135 7.54147 23.1411L5.70209 23.1975L5.9769 21.5834C5.9769 21.5834 7.02228 21.5669 7.00414 21.5523C7.40405 21.5394 7.50894 21.263 7.53343 21.0908L7.52126 17.5668L7.67016 17.5621C7.61179 17.5563 7.56026 17.5563 7.52076 17.5573L7.51143 15.0418C7.45662 14.7706 7.26879 14.4604 6.6964 14.4777C6.71368 14.4589 5.6702 14.5097 5.6702 14.5097L5.66457 13.0742L7.61363 13.0153L7.61384 13.0221C7.90681 13.013 8.20725 12.9984 8.51318 12.9831L8.50562 10.7756L9.91799 10.7324L9.9257 12.8966C10.303 12.8779 10.6827 12.8593 11.0538 12.848L11.0458 10.6981L12.4593 10.6547L12.4675 12.8628ZM10.2646 21.4665C11.4214 21.4466 13.952 21.403 13.946 19.8711L13.9464 19.871C13.9398 18.3055 11.5103 18.4344 10.3248 18.4972C10.1924 18.5043 10.0755 18.5105 9.97919 18.5134L9.98966 21.4723C10.0684 21.4699 10.161 21.4683 10.2646 21.4665ZM10.2067 17.1545C11.1726 17.14 13.2778 17.1084 13.2732 15.7167C13.2681 14.2929 11.243 14.406 10.254 14.4613C10.1428 14.4675 10.0447 14.473 9.96406 14.4755L9.9738 17.1591C10.0404 17.157 10.1188 17.1558 10.2067 17.1545Z" fill="white"/>
</g>
<defs>
<clipPath id="clip0">
<rect width="36" height="36" fill="white"/>
</clipPath>
</defs>
</svg>
