<svg width="161" height="136" viewBox="0 0 161 136" fill="none" xmlns="http://www.w3.org/2000/svg">
<g filter="url(#filter0_d)">
<path d="M124.188 34.809C124.181 34.8859 124.181 34.9633 124.188 35.0403C124.244 35.2475 124.287 35.4582 124.314 35.6711C124.314 35.6711 124.314 35.8814 124.314 35.9865C124.314 36.0917 124.314 36.4071 124.314 36.6174V36.8907C124.314 37.1641 124.314 37.4374 124.314 37.7318V37.837C124.314 38.1734 124.188 38.4888 124.104 38.8253C124.116 38.916 124.116 39.0079 124.104 39.0986C124.029 39.3909 123.938 39.6787 123.831 39.9608V40.171C123.705 40.5075 123.536 40.8439 123.389 41.2014C123.242 41.5589 122.884 42.2107 122.59 42.7364C122.295 43.2621 122.148 43.4724 121.896 43.8509C121.833 43.93 121.776 44.0144 121.728 44.1032C121.496 44.4187 121.286 44.7551 121.034 45.0915L120.76 45.449C120.487 45.8275 120.192 46.206 119.856 46.6055C119.498 47.0471 119.12 47.4887 118.699 47.9303C118.591 48.0731 118.472 48.2068 118.342 48.3298C118.047 48.6452 117.774 48.9606 117.458 49.2761C117.143 49.5915 116.911 49.8228 116.638 50.0961L115.923 50.7901L115.019 51.6312L114.24 52.3461C113.61 52.9139 112.958 53.4816 112.137 54.0494C111.317 54.6171 110.034 55.7526 108.962 56.5727L108.688 56.7619C107.679 57.5189 106.585 58.2759 105.555 59.0119L105.176 59.2432C104.124 59.9792 103.073 60.6731 101.937 61.346L101.58 61.5563C100.444 62.2712 99.2873 62.9441 98.1096 63.659L97.8572 63.8062C97.1422 64.2058 96.4482 64.6053 95.7541 64.9838L95.2073 65.2782L93.4617 66.1824L92.978 66.4137C91.7582 67.0445 90.5384 67.6333 89.3186 68.18H89.1292C88.0356 68.6847 87.0262 69.1683 85.8274 69.6309H85.596C84.6076 70.0304 83.6401 70.43 82.6517 70.7874L82.231 70.9557L79.497 71.944L79.0343 72.0912L76.3634 72.9533H75.9847L73.2297 73.7103H73.0614L70.075 74.4042H69.9068L68.4556 74.6776H67.9298L66.8783 74.8248H66.5628L65.1117 75.014H64.5438H63.345H61.3471H59.938C55.2691 74.7827 52.3457 73.3528 51.168 71.0608L53.8179 76.1495C53.9651 76.4649 54.1333 76.7593 54.3016 77.0747L56.8464 81.9952C58.0452 84.2873 61.0526 85.7172 65.6164 85.9485C66.0791 85.9485 66.5418 85.9485 67.0255 85.9485H67.4882H68.4977H69.0024H70.2433H70.79L72.2202 85.7802H72.4936L73.5452 85.612H74.071C75.5642 85.3386 77.0994 85.0022 78.6558 84.6237H78.803L81.5581 83.8667H81.7894H81.9577L84.6286 83.0046H84.8389H85.0702C85.9956 82.6892 86.8999 82.3737 87.8253 82.0163H87.9726H88.2249C89.1924 81.6378 90.1808 81.2593 91.1693 80.8387H91.3165C92.4101 80.3761 93.5248 79.8925 94.6395 79.3668H94.7446L98.4881 77.4322H98.6143C98.7324 77.3889 98.8453 77.3325 98.9508 77.264C99.5607 76.9696 100.15 76.6542 100.739 76.3388L101.243 76.0864L103.346 74.8879H103.473C104.65 74.215 105.828 73.5211 106.964 72.7851L107.321 72.5748C108.415 71.8809 109.424 71.187 110.581 70.472L110.939 70.2197C112.011 69.4837 113.042 68.7267 114.093 67.9697L114.346 67.7805C115.439 66.9604 116.449 66.1193 117.542 65.2782L119.54 63.5539C119.595 63.5103 119.644 63.4609 119.688 63.4067L120.297 62.86L121.202 62.0189L121.917 61.3039L122.737 60.4839L122.968 60.2736L123.62 59.5586L123.999 59.1591C124.392 58.7105 124.77 58.2689 125.135 57.8344H125.24L126.144 56.6778L126.397 56.3204L126.691 55.9208L126.859 55.6475C127.168 55.2129 127.462 54.7713 127.743 54.3227L127.89 54.0494C128.184 53.5237 128.458 53.019 128.689 52.5143C128.689 52.5143 128.962 51.9045 129.089 51.5891V51.3788L129.278 50.8742C129.278 50.8742 129.278 50.6429 129.383 50.5167V50.2433C129.383 49.9279 129.53 49.6125 129.593 49.2971C129.582 49.2487 129.582 49.1983 129.593 49.1499V48.3298V47.7621C129.602 47.6501 129.602 47.5376 129.593 47.4256C129.604 47.3207 129.604 47.2151 129.593 47.1102C129.563 46.9046 129.521 46.701 129.467 46.5004V46.2481C129.38 45.9886 129.275 45.7356 129.152 45.4911L123.473 34.5566C123.716 34.6285 123.954 34.7127 124.188 34.809Z" fill="#FE5D00"/>
<path d="M123.957 34.2409V34.0938L129.657 45.0492V45.1754L123.957 34.2409Z" fill="#FE5D00"/>
<path d="M124.189 34.8298C124.192 34.7808 124.192 34.7316 124.189 34.6826L129.868 45.6171C129.877 45.6657 129.877 45.7156 129.868 45.7642L124.189 34.8298Z" fill="#FE5D00"/>
<path d="M124.357 35.3767V35.2295L130.036 46.1639V46.3111L124.357 35.3767Z" fill="#FE5D00"/>
<path d="M124.441 36.0906C124.452 36.042 124.452 35.9919 124.441 35.9434L130.12 46.8778C130.13 46.9263 130.13 46.9765 130.12 47.025L124.441 36.0906Z" fill="#FE5D00"/>
<path d="M124.463 36.7644V36.6172L130.141 47.5516V47.7198L124.463 36.7644Z" fill="#FE5D00"/>
<path d="M124.422 37.4788V37.3105L130.1 48.245C130.1 48.245 130.1 48.3501 130.1 48.4132L124.422 37.4788Z" fill="#FE5D00"/>
<path d="M124.314 38.2366C124.314 38.2366 124.314 38.2366 124.314 38.0684L129.993 49.0028C129.993 49.0028 129.993 49.129 129.993 49.171L124.314 38.2366Z" fill="#FE5D00"/>
<path d="M124.125 38.9924C124.137 38.937 124.137 38.8797 124.125 38.8242L129.804 49.7586C129.813 49.8213 129.813 49.8852 129.804 49.9479L124.125 38.9924Z" fill="#FE5D00"/>
<path d="M123.873 39.7918V39.6025L129.551 50.5369V50.7262L123.873 39.7918Z" fill="#FE5D00"/>
<path d="M123.558 40.6121C123.566 40.5493 123.566 40.4857 123.558 40.4229L129.237 51.3573V51.5465L123.537 40.6121" fill="#FE5D00"/>
<path d="M123.178 41.4739C123.175 41.4039 123.175 41.3337 123.178 41.2637L128.962 52.1981L128.857 52.3873L123.178 41.4529" fill="#FE5D00"/>
<path d="M122.736 42.3363L122.841 42.126L128.52 53.0604C128.524 53.1304 128.524 53.2006 128.52 53.2707L122.841 42.3363" fill="#FE5D00"/>
<path d="M122.211 43.2201L122.337 43.0098L128.016 53.9442L127.889 54.1545L122.211 43.2201Z" fill="#FE5D00"/>
<path d="M121.625 44.1234L121.751 43.9131L127.43 54.8475L127.303 55.0578L121.625 44.1234Z" fill="#FE5D00"/>
<path d="M120.992 45.0487L121.139 44.8174L126.818 55.7728L126.671 55.9831L120.992 45.0487Z" fill="#FE5D00"/>
<path d="M120.256 45.9945L120.424 45.7842L126.124 56.7186C126.061 56.7905 126.004 56.8679 125.955 56.9499L120.256 45.9945Z" fill="#FE5D00"/>
<path d="M119.52 46.9618L119.709 46.7305L125.387 57.6859L125.198 57.8962L119.52 46.9618Z" fill="#FE5D00"/>
<path d="M118.637 47.9925C118.701 47.9172 118.772 47.8469 118.847 47.7822L124.526 58.7167L124.315 58.948L118.637 47.9925Z" fill="#FE5D00"/>
<path d="M117.732 48.9183L117.943 48.708L123.621 59.6425L123.411 59.8738L117.732 48.9183Z" fill="#FE5D00"/>
<path d="M116.742 49.9276C116.83 49.8614 116.907 49.7836 116.974 49.6963L122.652 60.6517L122.421 60.883L116.742 49.9276Z" fill="#FE5D00"/>
<path d="M115.712 50.9579L115.944 50.7266L121.622 61.661L121.37 61.8923L115.691 50.9579" fill="#FE5D00"/>
<path d="M114.578 52.0092L114.83 51.7568L120.53 62.7123L120.257 62.9436L114.578 52.0092Z" fill="#FE5D00"/>
<path d="M113.398 53.0389L113.672 52.8076L119.371 63.742L119.098 63.9733L113.398 53.0389Z" fill="#FE5D00"/>
<path d="M112.178 54.0907L112.451 53.8594L118.13 64.7938L117.856 65.0251L112.178 54.0907Z" fill="#FE5D00"/>
<path d="M110.877 55.1424L111.171 54.9111L116.871 65.8455L116.555 66.0769L110.877 55.1424Z" fill="#FE5D00"/>
<path d="M109.551 56.1727L109.866 55.9414L115.545 66.8758L115.229 67.1071L109.551 56.1727Z" fill="#FE5D00"/>
<path d="M108.164 57.224L108.48 56.9717L114.158 67.9272L113.842 68.1584L108.164 57.224Z" fill="#FE5D00"/>
<path d="M106.773 58.2128L107.089 57.9814L112.767 68.9369L112.452 69.1472L106.773 58.2128Z" fill="#FE5D00"/>
<path d="M105.346 59.201C105.466 59.1362 105.579 59.0586 105.682 58.9697L111.361 69.9252L111.045 70.1354L105.346 59.201Z" fill="#FE5D00"/>
<path d="M103.916 60.1683L104.232 59.958L109.931 70.8924L109.594 71.1027L103.916 60.1683Z" fill="#FE5D00"/>
<path d="M102.441 61.1136L102.778 60.9033L108.456 71.8378L108.12 72.048L102.441 61.1136Z" fill="#FE5D00"/>
<path d="M100.906 62.0599L101.264 61.8496L106.942 72.7841L106.606 72.9943L100.906 62.0599Z" fill="#FE5D00"/>
<path d="M99.3926 62.9642L99.7501 62.7539L105.428 73.6884L105.092 73.8986L99.3926 62.9642Z" fill="#FE5D00"/>
<path d="M97.8789 63.848L98.2365 63.6377L103.915 74.5721L103.557 74.7824L97.8789 63.848Z" fill="#FE5D00"/>
<path d="M96.3848 64.8157L96.7423 64.6055L102.442 75.5609L102.084 75.7502L96.3848 64.8157Z" fill="#FE5D00"/>
<path d="M94.7656 65.5301L95.1231 65.3408L100.822 76.2963L100.465 76.4855L94.7656 65.5301Z" fill="#FE5D00"/>
<path d="M93.168 66.3719L93.5465 66.1826L99.2249 77.117L98.8673 77.3063L93.168 66.3719Z" fill="#FE5D00"/>
<path d="M91.6113 67.1492L91.9688 66.96L97.6473 77.9154L97.2898 78.0836L91.6113 67.1492Z" fill="#FE5D00"/>
<path d="M90.0762 67.9061L90.4547 67.7168L96.1332 78.6722L95.7756 78.8405L90.0762 67.9061Z" fill="#FE5D00"/>
<path d="M88.4355 68.6213L88.8141 68.4531L94.4926 79.4086L94.114 79.5768L88.4355 68.6213Z" fill="#FE5D00"/>
<path d="M86.8574 69.3152L87.215 69.168L92.9144 80.1024L92.5359 80.2706L86.8574 69.3152Z" fill="#FE5D00"/>
<path d="M85.2383 70.0085L85.6168 69.8613L91.2953 80.7958L90.9167 80.943L85.2383 70.0085Z" fill="#FE5D00"/>
<path d="M83.7656 70.6394L84.1442 70.4922L89.8227 81.4266L89.4441 81.5738L83.7656 70.6394Z" fill="#FE5D00"/>
<path d="M82.084 71.2497L82.4625 71.1025L88.141 82.037L87.7835 82.1842L82.084 71.2497Z" fill="#FE5D00"/>
<path d="M80.5273 71.8176L80.8849 71.6914L86.5843 82.6258L86.2058 82.752L80.5273 71.8176Z" fill="#FE5D00"/>
<path d="M62.7357 51.6306C78.0044 39.014 101.391 29.3412 114.998 30.0351C128.605 30.729 127.259 41.5373 111.991 54.1539C96.7221 66.7706 73.3354 76.4644 59.7493 75.7705C46.1631 75.0765 47.5722 64.2683 62.7357 51.6306Z" fill="url(#paint0_linear)"/>
<path d="M115.08 30.0351C101.473 29.3412 78.0863 39.014 62.8176 51.6306C54.1527 58.8221 49.9675 65.4248 50.4933 69.9037C50.3881 65.4459 54.5523 59.0955 62.8596 52.2194C78.1073 39.6028 101.515 29.909 115.122 30.6029C120.969 30.9183 124.061 33.0841 124.46 36.4906C124.355 32.7687 121.263 30.3505 115.08 30.0351Z" fill="url(#paint1_linear)"/>
<path d="M67.3207 51.862C79.7922 41.5374 98.8675 33.6309 110.056 34.1987C121.245 34.7664 120.067 43.5981 107.595 53.9438C95.1239 64.2894 76.0486 72.1748 64.8601 71.6071C53.6715 71.0393 54.8281 62.2077 67.3207 51.862Z" fill="#FE5D00"/>
<path d="M107.49 52.3875C95.0181 62.7121 75.9428 70.6185 64.7542 70.0508C60.2535 69.8195 57.7719 68.2424 57.204 65.8452C56.9727 69.2097 59.4964 71.4176 64.8594 71.691C75.9849 72.2587 95.1232 64.3523 107.595 54.0277C115.04 47.8665 118.426 42.2521 117.606 38.5723C117.416 42.1049 113.946 47.0464 107.49 52.3875Z" fill="#FE5D00"/>
<path style="mix-blend-mode:multiply" d="M110.056 34.1987C98.9303 33.6309 79.7919 41.5374 67.3204 51.862C59.8753 58.0231 56.4893 63.6375 57.3095 67.3174C57.5619 63.7006 60.969 58.7591 67.4045 53.418C79.897 43.0934 98.9513 35.166 110.14 35.7547C114.641 35.986 117.143 37.5631 117.69 39.9603C117.942 36.68 115.419 34.472 110.056 34.1987Z" fill="url(#paint2_linear)"/>
<path style="mix-blend-mode:multiply" d="M111.528 53.6705C96.2799 66.2871 72.8721 75.9809 59.286 75.287C56.7236 75.3348 54.2075 74.6013 52.0723 73.1842C54.2517 74.9778 57.0118 75.9126 59.8328 75.8127C73.419 76.5066 96.8267 66.8339 112.074 54.1962C123.684 44.6075 127.217 36.0703 122.296 32.2012C126.376 36.2175 122.674 44.4603 111.528 53.6705Z" fill="url(#paint3_linear)"/>
</g>
<defs>
<filter id="filter0_d" x="0.398438" y="0" width="159.743" height="135.948" filterUnits="userSpaceOnUse" color-interpolation-filters="sRGB">
<feFlood flood-opacity="0" result="BackgroundImageFix"/>
<feColorMatrix in="SourceAlpha" type="matrix" values="0 0 0 0 0 0 0 0 0 0 0 0 0 0 0 0 0 0 127 0"/>
<feOffset dx="-10" dy="10"/>
<feGaussianBlur stdDeviation="20"/>
<feColorMatrix type="matrix" values="0 0 0 0 0.898039 0 0 0 0 0.788235 0 0 0 0 0.34902 0 0 0 0.5 0"/>
<feBlend mode="normal" in2="BackgroundImageFix" result="effect1_dropShadow"/>
<feBlend mode="normal" in="SourceGraphic" in2="effect1_dropShadow" result="shape"/>
</filter>
<linearGradient id="paint0_linear" x1="186.829" y1="12.1101" x2="40.6864" y2="-11.2342" gradientUnits="userSpaceOnUse">
<stop stop-color="#FE5D00"/>
<stop offset="0.244792" stop-color="#EC8143"/>
<stop offset="0.458333" stop-color="#EAA47C"/>
<stop offset="0.6" stop-color="#E89E74"/>
<stop offset="0.677083" stop-color="#EB9666"/>
<stop offset="0.765625" stop-color="#ED864B"/>
<stop offset="0.875" stop-color="#F2742A"/>
<stop offset="1" stop-color="#FE5D00"/>
</linearGradient>
<linearGradient id="paint1_linear" x1="-164216" y1="488911" x2="-163757" y2="489736" gradientUnits="userSpaceOnUse">
<stop stop-color="#AD3A00"/>
<stop offset="0.02" stop-color="#B6520F"/>
<stop offset="0.06" stop-color="#C77E2A"/>
<stop offset="0.11" stop-color="#D4A13F"/>
<stop offset="0.15" stop-color="#DDBA4F"/>
<stop offset="0.18" stop-color="#E3C958"/>
<stop offset="0.21" stop-color="#E5CE5B"/>
<stop offset="0.56" stop-color="#E2D178"/>
<stop offset="0.63" stop-color="#E3D073"/>
<stop offset="0.72" stop-color="#E4CF64"/>
<stop offset="0.76" stop-color="#E5CE5B"/>
<stop offset="0.85" stop-color="#C8822C"/>
<stop offset="0.94" stop-color="#AD3A00"/>
<stop offset="0.95" stop-color="#C04603"/>
<stop offset="0.97" stop-color="#D95606"/>
<stop offset="0.99" stop-color="#E86008"/>
<stop offset="1" stop-color="#ED6309"/>
</linearGradient>
<linearGradient id="paint2_linear" x1="-132041" y1="398334" x2="-131737" y2="398791" gradientUnits="userSpaceOnUse">
<stop stop-color="#750900"/>
<stop offset="0.1" stop-color="#8D1C00"/>
<stop offset="0.32" stop-color="#CA4B00"/>
<stop offset="0.34" stop-color="#CE4E00"/>
<stop offset="0.67" stop-color="#EA9226"/>
<stop offset="0.68" stop-color="#E99A2E"/>
<stop offset="0.74" stop-color="#E7AF41"/>
<stop offset="0.8" stop-color="#E6BE4F"/>
<stop offset="0.88" stop-color="#E5C657"/>
<stop offset="0.99" stop-color="#E5C959"/>
</linearGradient>
<linearGradient id="paint3_linear" x1="106854" y1="626157" x2="104312" y2="627601" gradientUnits="userSpaceOnUse">
<stop stop-color="#750900"/>
<stop offset="0.16" stop-color="#8D1C00"/>
<stop offset="0.48" stop-color="#CA4B00"/>
<stop offset="0.5" stop-color="#CE4E00"/>
<stop offset="1" stop-color="#750900"/>
</linearGradient>
</defs>
</svg>
