<svg width="219" height="408" viewBox="0 0 219 408" fill="none" xmlns="http://www.w3.org/2000/svg">
<path d="M108.733 145.413C152.397 145.413 187.793 113.029 187.793 73.0823C187.793 33.1354 152.397 0.751953 108.733 0.751953C65.07 0.751953 29.6738 33.1354 29.6738 73.0823C29.6738 113.029 65.07 145.413 108.733 145.413Z" fill="url(#paint0_radial)"/>
<path d="M59.6497 129.684C56.9229 127.54 54.2357 121.981 56.3753 114.753C56.3753 114.753 52.7283 116.495 53.0388 112.779C53.3493 109.063 56.7423 102.18 56.7423 102.18C56.0761 103.272 54.2808 104.912 53.5017 104.375C52.7227 103.837 52.7961 99.0356 55.3252 95.1275C55.3252 95.1275 52.1694 95.8401 51.8589 93.9229C51.5484 92.0056 54.2413 90.9593 54.2413 90.9593C54.2413 90.9593 56.0309 81.5822 57.3746 77.1595C57.3746 77.1595 56.0535 77.7646 55.1559 77.0407C54.2582 76.3168 55.3365 69.5922 57.1036 66.7134C57.1036 66.7134 54.0098 57.6248 58.3851 51.1773C58.3851 51.1773 55.7091 50.0462 56.0874 47.3032C56.4656 44.5602 59.8191 47.7839 59.8191 47.7839C59.8191 47.7839 57.9673 34.8664 61.5127 25.8852C62.512 23.3514 64.1717 20.3087 65.9839 19.6017C66.4212 19.5464 66.8649 19.6248 67.2568 19.8267C67.6487 20.0285 67.9706 20.3444 68.18 20.7328C68.18 20.7328 68.4849 19.0984 71.0028 19.4038C71.7733 19.6817 72.4623 20.1483 73.0069 20.7611C73.0069 20.7611 75.6039 19.104 81.2211 25.8908C82.864 27.8194 88.0691 35.2227 88.0691 35.2227C88.0691 35.2227 91.4225 32.3948 95.747 36.7158C95.747 36.7158 100.173 32.9265 114.778 34.4139C114.778 34.4139 118.532 29.8385 121.863 31.3033C121.863 31.3033 122.992 27.3952 126.696 27.3783C126.696 27.3783 132.398 13.6463 137.422 15.7276C137.422 15.7276 140.663 12.2889 143.169 15.1281C143.169 15.1281 148.922 13.9517 152.202 26.6147C153.534 31.7048 153.455 38.4916 152.721 43.8985C152.721 43.8985 155.437 45.5952 155.651 47.8574C155.866 50.1197 152.078 50.3346 152.078 50.3346C152.078 50.3346 159.152 56.0412 160.106 69.5639C160.106 69.5639 164.362 73.6756 164.266 77.4422C164.266 78.2171 163.702 79.1389 163.092 79.2634C163.092 79.2634 170.742 90.405 167.179 108.571C167.179 108.571 167.744 111.795 163.877 112.423C163.877 112.423 165.39 116.093 164.306 117.105C164.306 117.105 161.483 117.388 160.326 119.334C159.168 121.279 159.727 124.888 158.785 127.896C158.785 127.896 158.079 131.448 155.363 132.89C153.67 133.795 151.835 134.83 149.989 135.899C147.64 140.678 134.882 145.197 134.882 145.197C134.882 145.197 98.1858 151.107 89.0909 148.438C79.996 145.768 76.5692 145.186 75.9313 138.727L66.2098 133.518C66.2098 133.518 61.6821 131.279 59.6497 129.684Z" fill="url(#paint1_linear)"/>
<path opacity="0.1" d="M148.894 64.1009C149.702 61.8386 155.59 61.8386 162.122 71.7926C163.787 74.3207 164.549 78.5058 159.818 77.9516C157.814 77.7197 155.545 73.7155 154.472 71.2666C153.253 68.467 148.217 66.0238 148.894 64.1009Z" fill="black"/>
<path opacity="0.1" d="M159.604 84.0934C158.701 82.6343 157.911 80.1854 161.298 82.5834C164.685 84.9814 170.506 94.0644 166.136 108.153C166.136 108.153 164.403 99.8218 161.687 95.6027C158.972 91.3836 156.414 84.9078 157.736 84.0765C158.311 83.7032 159.604 84.0934 159.604 84.0934Z" fill="black"/>
<path opacity="0.1" d="M116.205 36.4118C117.096 34.9254 117.091 33.2839 116.196 32.7455C115.3 32.207 113.852 32.9755 112.962 34.4619C112.071 35.9483 112.076 37.5898 112.971 38.1283C113.867 38.6667 115.315 37.8983 116.205 36.4118Z" fill="black"/>
<path d="M145.997 120.771C147.075 120.59 148.453 123.723 148.763 124.164C149.074 124.606 151.648 126.331 148.391 111.812C147.911 109.652 151.778 111.247 152.772 112.174C153.765 113.102 153.607 111.518 153.297 108.674C152.986 105.829 154.934 108.747 155.086 109.064C155.515 109.963 156.091 109.222 155.651 108.272C155.21 107.322 150.801 102.051 151.569 99.2682C152.337 96.4856 158.383 100.235 160.709 102.045C160.709 102.045 159.016 98.7083 158.976 97.006C158.936 95.3036 170.12 107.497 164.813 110.359C163.684 110.958 163.165 110.721 163.165 110.721C163.165 110.721 166.163 115.33 161.929 116.377L159.332 117.57C159.332 117.57 160.365 124.968 157.553 128.565C154.843 132.032 150.214 134.424 149 134.135C148.176 133.937 148.142 132.58 148.142 132.58C147.102 134.28 145.581 135.633 143.773 136.466C142.401 137.031 139.177 137.297 138.743 136.72C138.234 136.047 142.553 132.857 143.586 128.61C144.732 123.927 144.269 121.06 145.997 120.771Z" fill="url(#paint2_linear)"/>
<path d="M84.9362 72.6298C84.9213 73.193 85.0214 73.7533 85.2302 74.2763C85.439 74.7994 85.7522 75.2743 86.1505 75.6719C86.5489 76.0696 87.0241 76.3815 87.547 76.5888C88.0699 76.796 88.6296 76.8942 89.1916 76.8772C89.7537 76.8603 90.3065 76.7285 90.816 76.4902C91.3255 76.2518 91.7811 75.9117 92.1548 75.4908C92.5286 75.0699 92.8127 74.577 92.9897 74.0422C93.1667 73.5075 93.2329 72.9422 93.1842 72.381C93.1391 70.7634 90.6889 69.2194 88.4082 69.2873C86.1274 69.3552 84.8684 70.1922 84.9362 72.6298Z" fill="url(#paint3_linear)" stroke="#090C1B" stroke-width="1.01" stroke-miterlimit="10"/>
<path d="M95.4096 75.463C95.7822 77.4142 95.291 78.7659 94.145 78.8564C93.1175 78.9242 93.078 77.4764 93.8006 76.8882C94.5232 76.3 94.1507 75.248 94.1507 75.248L95.4096 75.463Z" fill="#090C1B"/>
<path d="M87.6917 72.8329C87.6588 73.0376 87.6714 73.247 87.7286 73.4462C87.7858 73.6453 87.8862 73.8294 88.0226 73.9853C88.159 74.1411 88.3281 74.2649 88.5177 74.3477C88.7074 74.4306 88.913 74.4704 89.1198 74.4645C89.3266 74.4586 89.5296 74.407 89.7142 74.3134C89.8988 74.2198 90.0605 74.0866 90.1878 73.9232C90.3151 73.7598 90.4048 73.5702 90.4505 73.3681C90.4963 73.1659 90.4969 72.9562 90.4524 72.7538C90.4676 72.5591 90.4417 72.3635 90.3765 72.1796C90.3113 71.9956 90.2082 71.8275 90.0738 71.686C89.9395 71.5446 89.7769 71.4331 89.5968 71.3588C89.4166 71.2844 89.2228 71.2489 89.028 71.2545C88.8333 71.2601 88.6418 71.3066 88.4662 71.3912C88.2906 71.4758 88.1347 71.5964 88.0086 71.7453C87.8826 71.8942 87.7893 72.0679 87.7346 72.2553C87.68 72.4427 87.6654 72.6395 87.6917 72.8329Z" fill="#090C1B"/>
<path d="M87.5598 71.4377C87.8647 70.575 87.5187 69.6652 86.7868 69.4055C86.055 69.1459 85.2145 69.6348 84.9096 70.4975C84.6046 71.3602 84.9507 72.27 85.6825 72.5297C86.4144 72.7893 87.2548 72.3004 87.5598 71.4377Z" fill="white"/>
<path d="M104.678 77.5331C106.593 77.0722 108.582 77.0125 110.521 77.3578" stroke="#090C1B" stroke-width="1.05" stroke-linecap="round" stroke-linejoin="round"/>
<path d="M117.839 86.3107C117.952 90.1679 113.04 94.6359 109.371 94.749C105.701 94.8621 100.496 90.6939 100.383 86.831C100.27 82.9682 104.121 80.9039 108.947 80.7625C113.774 80.6211 117.721 82.4479 117.839 86.3107Z" fill="#090C1B"/>
<path d="M105.005 86.334C105.552 86.5427 106.004 86.9451 106.275 87.4651C106.588 87.9482 106.781 88.4987 106.84 89.0713C106.902 89.6684 106.754 90.2684 106.422 90.768C106.081 91.2339 105.597 91.5755 105.044 91.7408C105.026 91.747 105.006 91.7493 104.987 91.7478C104.968 91.7463 104.949 91.7409 104.931 91.7319C104.914 91.723 104.898 91.7106 104.886 91.6957C104.873 91.6807 104.864 91.6633 104.858 91.6447C104.848 91.6127 104.848 91.5781 104.86 91.5464C104.871 91.5147 104.892 91.4876 104.92 91.4693C105.348 91.2393 105.711 90.9047 105.976 90.4966C106.199 90.0811 106.293 89.6086 106.247 89.1392C106.203 88.6524 106.067 88.1784 105.846 87.7422C105.646 87.3016 105.328 86.9255 104.926 86.6564C104.909 86.6475 104.894 86.6352 104.882 86.6203C104.869 86.6054 104.86 86.5881 104.855 86.5696C104.85 86.5511 104.848 86.5316 104.851 86.5125C104.853 86.4934 104.86 86.475 104.869 86.4584C104.875 86.4253 104.891 86.395 104.915 86.3723C104.94 86.3497 104.972 86.3362 105.005 86.334Z" fill="white"/>
<path d="M113.475 86.3566C113.094 86.6492 112.799 87.0402 112.622 87.4877C112.429 87.9368 112.322 88.4184 112.306 88.9073C112.285 89.3775 112.407 89.843 112.656 90.242C112.947 90.6388 113.336 90.9527 113.785 91.1526C113.819 91.1727 113.844 91.2047 113.856 91.2424C113.867 91.28 113.864 91.3206 113.848 91.3562C113.831 91.3853 113.806 91.4083 113.775 91.4215C113.745 91.4348 113.711 91.4377 113.678 91.4297C113.117 91.2955 112.615 90.9842 112.244 90.5418C111.889 90.0667 111.707 89.4836 111.73 88.8903C111.748 88.3192 111.896 87.7598 112.165 87.2558C112.41 86.7276 112.837 86.3058 113.368 86.0681C113.386 86.0609 113.405 86.0573 113.425 86.0576C113.444 86.058 113.464 86.0622 113.481 86.0701C113.499 86.078 113.515 86.0894 113.529 86.1037C113.542 86.1179 113.553 86.1346 113.56 86.153C113.571 86.1844 113.571 86.2185 113.561 86.2501C113.551 86.2818 113.53 86.3092 113.503 86.3283L113.475 86.3566Z" fill="white"/>
<path d="M109.516 84.1288C111.252 84.0766 112.649 83.685 112.636 83.2541C112.623 82.8233 111.205 82.5163 109.469 82.5685C107.733 82.6208 106.337 83.0124 106.35 83.4432C106.362 83.8741 107.78 84.181 109.516 84.1288Z" fill="white"/>
<path d="M109.342 94.749L109.432 97.837" stroke="#090C1B" stroke-width="2.1" stroke-linecap="round" stroke-linejoin="round"/>
<path d="M75.0845 89.9248C74.4014 91.8364 74.0965 94.9301 75.5926 95.8067C76.1966 96.1573 75.7393 93.3521 76.4112 92.2719C76.3557 93.6921 76.6829 95.1011 77.3584 96.351C78.0339 97.6009 79.0327 98.6456 80.2501 99.3754" stroke="#090C1B" stroke-width="1.05" stroke-linecap="round" stroke-linejoin="round"/>
<path d="M143.803 88.1543C144.599 90.0207 144.684 91.9945 143.239 92.956C142.674 93.3462 142.386 91.6269 141.652 90.5919C141.835 91.5074 141.824 92.4511 141.62 93.362C141.416 94.273 141.023 95.1308 140.467 95.88" stroke="#090C1B" stroke-width="1.05" stroke-linecap="round" stroke-linejoin="round"/>
<path opacity="0.1" d="M69.056 50.3356C67.2551 49.6343 64.9348 51.2914 63.8734 54.0287C63.8734 54.0287 63.8734 54.0626 63.8734 54.0796C63.143 53.8467 62.3644 53.8097 61.6152 53.9722C62.2532 52.9145 63.5065 50.1093 62.1798 48.7407C61.6604 48.1751 59.6675 48.0959 57.9061 49.3062C53.1752 52.5469 55.981 65.3287 55.981 65.3287C54.9479 67.1329 52.8986 74.9434 54.3834 75.4071C55.8681 75.8709 56.794 76.5383 59.7184 70.351C62.6427 64.1637 62.4225 59.2885 62.4225 59.2885C62.8733 59.1169 63.2929 58.8724 63.6646 58.5646C63.7889 58.9395 63.9903 59.2843 64.2557 59.5765C64.5212 59.8687 64.8448 60.102 65.2058 60.2613C67.0067 60.9626 69.327 59.3111 70.3883 56.5681C71.4497 53.8251 70.8513 51.0142 69.056 50.3356Z" fill="black"/>
<path opacity="0.1" d="M141.895 110.798C142.61 109.592 141.762 107.765 140.001 106.717C138.24 105.668 136.233 105.796 135.518 107.002C134.802 108.207 135.65 110.034 137.411 111.083C139.172 112.131 141.18 112.004 141.895 110.798Z" fill="black"/>
<path opacity="0.1" d="M136.847 112.44C137.666 113.141 137.818 114.204 137.412 114.663C137.005 115.121 136.164 114.872 135.345 114.176C134.527 113.481 134.047 112.598 134.436 112.14C134.826 111.682 136.023 111.744 136.847 112.44Z" fill="black"/>
<path opacity="0.1" d="M132.636 117.886C132.639 117.358 131.832 116.926 130.834 116.92C129.837 116.915 129.026 117.339 129.023 117.866C129.02 118.394 129.826 118.827 130.824 118.832C131.822 118.837 132.633 118.414 132.636 117.886Z" fill="black"/>
<path d="M102.381 107.05C101.816 108.334 106.276 110.172 110.064 109.816C113.852 109.459 116.912 107.751 117.065 106.315C117.217 104.878 112.599 107.123 110.036 107.22C106.039 107.361 102.657 106.45 102.381 107.05Z" fill="black"/>
<path opacity="0.1" d="M99.7674 121.789C99.8125 123.265 99.6883 124.464 99.152 124.481C98.6157 124.498 97.8931 123.35 97.8479 121.845C97.8028 120.341 98.4576 119.159 98.977 119.142C99.4964 119.125 99.7279 120.318 99.7674 121.789Z" fill="black"/>
<path opacity="0.1" d="M97.1486 122.089C97.1172 122.331 97.0171 122.559 96.8602 122.746C96.7033 122.934 96.4962 123.072 96.2633 123.144C96.0305 123.217 95.7817 123.222 95.5464 123.157C95.3111 123.093 95.0992 122.962 94.9359 122.78C94.7725 122.599 94.6645 122.374 94.6246 122.133C94.5847 121.892 94.6147 121.645 94.7109 121.42C94.8071 121.196 94.9655 121.003 95.1674 120.866C95.3694 120.729 95.6063 120.653 95.8501 120.646C96.2126 120.667 96.5523 120.83 96.7955 121.1C97.0386 121.37 97.1655 121.725 97.1486 122.089Z" fill="black"/>
<path opacity="0.1" d="M80.5556 110.155C80.2451 111.287 79.8669 112.174 79.4547 112.061C79.0426 111.948 78.766 110.885 79.0765 109.748C79.387 108.611 80.2056 107.842 80.5895 107.955C80.9734 108.068 80.8718 109.024 80.5556 110.155Z" fill="black"/>
<path opacity="0.1" d="M83.6675 114.156C84.6959 114.125 85.5002 113.118 85.4639 111.907C85.4276 110.695 84.5644 109.738 83.536 109.769C82.5076 109.8 81.7033 110.807 81.7396 112.019C81.7759 113.23 82.639 114.187 83.6675 114.156Z" fill="black"/>
<path d="M77.8008 137.235C76.9145 134.565 77.0443 130.097 76.1072 130.165C75.993 130.187 75.8844 130.231 75.7874 130.295C75.6905 130.359 75.6073 130.442 75.5426 130.538C75.4805 127.247 74.7184 124.119 73.1263 123.927C71.5343 123.735 70.4165 125.838 69.6713 127.32C68.9261 128.802 68.3277 128.621 68.2543 127.795C67.8817 123.469 68.8922 120.963 68.0341 120.398C67.176 119.832 66.4195 120.89 66.4195 120.89C67.0631 119.193 67.4865 114.352 66.9107 112.406C66.3348 110.461 62.6314 111.428 60.2885 115.104C55.8455 122.072 56.9859 129.707 62.1233 128.287C63.1225 133.083 66.3461 130.753 66.3461 130.753C66.3461 130.753 65.4033 133.977 66.6002 134.311C67.797 134.644 68.9882 132.461 68.9882 132.461C68.9882 132.461 69.0785 136.267 71.4271 137.28C72.4715 137.732 74.0353 138.173 74.8144 136.149C74.9347 137.07 75.1234 137.981 75.3789 138.875C76.762 143.795 81.4873 146.838 81.651 145.695C81.8148 144.553 79.3759 141.985 77.8008 137.235Z" fill="url(#paint4_linear)"/>
<path opacity="0.1" d="M119.983 37.8928C120.039 40.353 121.112 41.7895 122.41 41.7556C123.709 41.7217 124.714 40.3587 124.668 37.9041C124.623 35.4495 123.415 32.3615 122.207 32.8479C121.168 33.2721 119.921 35.4382 119.983 37.8928Z" fill="black"/>
<path d="M91.5979 96.1459C92.2358 94.2965 94.0875 94.4492 95.2449 95.0148C96.4022 95.5804 97.8305 98.0689 99.6483 98.7193L99.0104 99.7486C97.9221 99.6576 96.849 99.4335 95.8151 99.0812C94.8892 98.6684 94.319 99.7147 92.8963 99.0416C92.3899 98.7716 91.9875 98.3406 91.7524 97.8164C91.5174 97.2922 91.463 96.7045 91.5979 96.1459Z" fill="#090C1B"/>
<path d="M126.071 93.3638C127.838 93.2337 128.673 95.9881 127.138 97.7413C125.887 99.1088 124.163 99.948 122.317 100.088C120.233 100.36 119.951 99.3136 119.951 99.3136C119.951 99.3136 122.017 98.9346 122.554 97.532C122.977 96.4122 123.446 93.5561 126.071 93.3638Z" fill="#090C1B"/>
<path d="M96.6947 97.6109C97.7193 98.0442 98.7764 98.3959 99.8561 98.6629C100.924 98.9042 102.021 98.9918 103.114 98.9231C104.232 98.8127 105.341 98.6237 106.433 98.3575C107.592 98.0905 108.778 97.952 109.967 97.9446C112.434 97.9446 114.625 98.8835 116.821 99.1719C117.914 99.3337 119.023 99.366 120.123 99.268C121.22 99.1369 122.301 98.9002 123.353 98.5611C123.436 98.5355 123.524 98.5266 123.612 98.5351C123.699 98.5435 123.783 98.5691 123.861 98.6103C123.938 98.6515 124.007 98.7076 124.062 98.7753C124.118 98.8431 124.16 98.9211 124.185 99.0051C124.211 99.089 124.22 99.1771 124.211 99.2645C124.203 99.3518 124.177 99.4366 124.136 99.5141C124.095 99.5916 124.039 99.6602 123.972 99.7159C123.904 99.7717 123.826 99.8136 123.742 99.8393C122.593 100.164 121.415 100.376 120.225 100.473C119.029 100.556 117.828 100.497 116.646 100.297C114.297 99.9298 112.129 99.0475 109.962 99.0362C108.852 99.0479 107.748 99.1883 106.67 99.4547C105.529 99.7428 104.372 99.96 103.204 100.105C102 100.207 100.788 100.14 99.6021 99.9071C98.4385 99.6689 97.2947 99.3418 96.1809 98.9287C96.0937 98.8989 96.0134 98.852 95.9445 98.7907C95.8755 98.7295 95.8195 98.6551 95.7796 98.5719C95.7396 98.4888 95.7166 98.3985 95.7119 98.3063C95.7071 98.2141 95.7207 98.122 95.7519 98.0351C95.8145 97.8606 95.9432 97.7177 96.11 97.6373C96.2769 97.5568 96.4686 97.5454 96.6438 97.6053H96.6721L96.6947 97.6109Z" fill="#090C1B"/>
<path opacity="0.1" d="M96.6227 66.8047C94.7992 67.0988 94.1613 68.5014 93.9072 67.6757C93.4612 66.1712 92.0442 65.1702 91.649 65.3512C91.2539 65.5322 91.649 66.1203 91.5587 66.9461C91.5587 66.9857 91.5587 67.0309 91.5587 67.0705C87.9512 64.9949 84.3607 67.7718 84.9704 68.3147L88.019 68.9369L91.7394 70.2942L92.3039 71.0012C93.1441 71.8487 94.0502 72.6278 95.0138 73.3313C96.3066 73.993 98.068 73.0825 99.0051 71.3179C100.62 68.2582 98.4406 66.5162 96.6227 66.8047Z" fill="black"/>
<path d="M82.2449 70.4971L80.1504 67.8955L85.1523 68.8683C85.1523 68.8683 83.0804 68.9418 82.2449 70.4971Z" fill="#090C1B"/>
<path d="M82.0403 70.8368C81.6903 70.4974 81.3177 70.1468 80.9507 69.7679C80.4934 69.3041 80.0587 68.7951 79.6523 68.2917C79.6002 68.227 79.5615 68.1525 79.5384 68.0726C79.5153 67.9928 79.5083 67.9091 79.5178 67.8265C79.5272 67.7439 79.5529 67.664 79.5935 67.5914C79.634 67.5188 79.6885 67.4551 79.7539 67.4038C79.8244 67.3451 79.9072 67.303 79.9961 67.2805C80.0849 67.258 80.1777 67.2557 80.2676 67.2737C81.9613 67.5904 83.6041 67.9185 85.2582 68.32H85.3034C85.4439 68.3574 85.5645 68.4477 85.6403 68.572C85.716 68.6963 85.7409 68.8451 85.7099 68.9874C85.679 69.1071 85.6099 69.2134 85.513 69.29C85.4162 69.3666 85.2969 69.4093 85.1735 69.4115C84.663 69.4201 84.1574 69.5138 83.6775 69.6887C83.4368 69.7782 83.2075 69.8959 82.9944 70.0393C82.8848 70.1123 82.781 70.1936 82.6839 70.2825L82.6105 70.3504L82.4976 70.4748C82.4236 70.5466 82.3443 70.6128 82.2605 70.6728L82.0403 70.8368ZM82.2548 70.0167V69.9771C82.3353 69.8359 82.4299 69.7033 82.5371 69.5812C82.7476 69.3317 82.9951 69.1162 83.271 68.9421C83.5461 68.7717 83.8397 68.6332 84.1461 68.5293C84.4582 68.4195 84.7823 68.3474 85.1114 68.3144L85.0268 69.4115C83.3331 69.1684 81.6733 68.846 80.0023 68.518L80.6176 67.4999C80.9091 67.8578 81.1751 68.2358 81.4137 68.6311L82.1645 69.9092L82.2548 70.0167Z" fill="#090C1B"/>
<path d="M94.3207 76.351C94.1967 75.096 93.7321 73.8989 92.9771 72.8897C92.23 71.8515 91.2541 70.9997 90.1253 70.4004C88.9964 69.8011 87.7449 69.4705 86.4678 69.4341C85.179 69.408 83.8971 69.6288 82.691 70.0845L83.0805 69.5189C83.0483 70.4679 83.1298 71.4173 83.3233 72.3468C83.508 73.282 83.8416 74.1814 84.3113 75.0106C84.786 75.8301 85.4649 76.5122 86.2815 76.9901C87.1255 77.4588 88.0668 77.7241 89.0309 77.7649C89.0554 77.7663 89.0793 77.7726 89.1014 77.7834C89.1234 77.7941 89.1432 77.8091 89.1594 77.8275C89.1757 77.8459 89.1882 77.8673 89.1961 77.8905C89.2041 77.9138 89.2074 77.9383 89.2059 77.9629C89.2018 78.0099 89.1805 78.0538 89.1461 78.0861C89.1118 78.1184 89.0667 78.137 89.0196 78.1382C87.9788 78.1622 86.9467 77.9434 86.0049 77.4991C85.0538 77.026 84.2423 76.3125 83.6507 75.4291C83.0734 74.5616 82.6388 73.6068 82.3636 72.6013C82.082 71.589 81.9227 70.5466 81.8893 69.4963C81.8833 69.3723 81.9181 69.2497 81.9885 69.1475C82.059 69.0453 82.161 68.9691 82.2789 68.9307C83.627 68.4203 85.061 68.1764 86.5017 68.2125C87.9603 68.2569 89.3891 68.6371 90.6775 69.3236C91.9658 70.0102 93.0792 70.9846 93.9312 72.1714C94.8172 73.3606 95.3584 74.7716 95.495 76.2492C95.5069 76.4059 95.4563 76.561 95.3541 76.6803C95.2519 76.7997 95.1066 76.8735 94.9502 76.8855C94.7937 76.8975 94.6389 76.8467 94.5198 76.7443C94.4007 76.642 94.327 76.4964 94.3151 76.3397L94.3207 76.351Z" fill="#090C1B"/>
<path d="M99.569 72.709C99.0857 73.3344 98.4242 73.7979 97.6721 74.0381C96.934 74.2488 96.1519 74.2488 95.4139 74.0381C94.0753 73.626 92.8938 72.8152 92.0266 71.7137C91.9405 71.6154 91.8969 71.4869 91.9053 71.3565C91.9138 71.226 91.9737 71.1042 92.0717 71.018C92.1698 70.9318 92.2981 70.8881 92.4283 70.8965C92.5585 70.905 92.68 70.965 92.7661 71.0632C93.5495 71.9331 94.5766 72.5461 95.7131 72.8222C96.2229 72.9368 96.7545 72.9074 97.2487 72.7373C97.7104 72.5503 98.1042 72.2267 98.3778 71.8098C98.4336 71.7291 98.5049 71.6602 98.5874 71.6072C98.6699 71.5541 98.762 71.5179 98.8585 71.5005C98.955 71.4832 99.0539 71.4851 99.1497 71.5061C99.2455 71.5272 99.3361 71.5669 99.4165 71.6232C99.5796 71.7373 99.6908 71.9115 99.7257 72.1077C99.7606 72.3039 99.7164 72.5059 99.6028 72.6695V72.7034L99.569 72.709Z" fill="#090C1B"/>
<path d="M131.732 71.2219C131.781 71.7831 131.714 72.3484 131.537 72.8831C131.36 73.4179 131.076 73.9108 130.703 74.3317C130.329 74.7526 129.873 75.0927 129.364 75.3311C128.854 75.5694 128.301 75.7012 127.739 75.7181C127.177 75.7351 126.618 75.6369 126.095 75.4297C125.572 75.2224 125.097 74.9105 124.698 74.5128C124.3 74.1152 123.987 73.6403 123.778 73.1172C123.569 72.5942 123.469 72.0339 123.484 71.4707C123.433 69.8532 125.787 68.1622 128.068 68.0773C130.349 67.9925 131.659 68.7899 131.732 71.2219Z" fill="url(#paint5_linear)" stroke="#090C1B" stroke-width="1.01" stroke-miterlimit="10"/>
<path d="M121.468 74.6824C121.214 76.6505 121.779 77.9683 122.93 77.9796C123.958 77.9796 123.913 76.5431 123.162 75.9945C122.411 75.4459 122.71 74.377 122.71 74.377L121.468 74.6824Z" fill="#090C1B"/>
<path d="M129 71.5947C129.042 71.7962 129.04 72.0045 128.993 72.2051C128.947 72.4056 128.857 72.5934 128.729 72.7553C128.602 72.9171 128.441 73.0491 128.258 73.1419C128.075 73.2347 127.873 73.2861 127.667 73.2924C127.462 73.2987 127.258 73.2598 127.069 73.1784C126.88 73.097 126.711 72.9751 126.575 72.8213C126.438 72.6676 126.337 72.4856 126.278 72.2883C126.219 72.0911 126.204 71.8832 126.234 71.6795C126.212 71.4881 126.229 71.2943 126.286 71.1101C126.342 70.926 126.437 70.7556 126.562 70.6098C126.688 70.464 126.842 70.346 127.016 70.2631C127.19 70.1803 127.379 70.1345 127.571 70.1286C127.763 70.1227 127.954 70.1568 128.133 70.2289C128.311 70.3009 128.473 70.4093 128.607 70.5471C128.741 70.685 128.846 70.8492 128.913 71.0296C128.981 71.2099 129.01 71.4023 129 71.5947Z" fill="#090C1B"/>
<path d="M130.98 71.1873C131.695 70.8842 131.986 69.9553 131.63 69.1124C131.274 68.2695 130.406 67.8319 129.691 68.1349C128.976 68.4379 128.685 69.3669 129.041 70.2098C129.397 71.0526 130.265 71.4903 130.98 71.1873Z" fill="white"/>
<path opacity="0.1" d="M120.04 71.9625C118.911 69.6607 119.916 66.9968 121.237 66.5218C122.071 66.2417 122.969 66.2161 123.817 66.4482C123.817 66.4482 126.865 62.116 128.898 63.2924C129.524 63.6487 128.683 65.1814 128.621 65.6112C128.559 66.041 133.138 63.0266 134.571 65.1361C134.984 65.7526 133.488 67.4719 132.279 67.5058C132.279 67.5058 126.442 67.619 123.173 71.3574C122.129 72.5733 120.04 71.9625 120.04 71.9625Z" fill="black"/>
<path d="M134.302 68.937L136.233 66.2109L131.293 67.4835C131.293 67.4835 133.371 67.4326 134.302 68.937Z" fill="#090C1B"/>
<path d="M134.255 68.4329L134.317 68.3198L134.989 66.9964C135.205 66.5886 135.448 66.1956 135.717 65.82L136.389 66.8041C134.746 67.2339 133.097 67.6524 131.432 67.9974L131.279 66.9059C131.61 66.9186 131.938 66.9718 132.256 67.0642C132.568 67.1514 132.869 67.2728 133.154 67.4262C133.439 67.5736 133.7 67.7644 133.927 67.9918C134.04 68.1076 134.14 68.2346 134.226 68.3707L134.255 68.4329ZM134.514 69.2417L134.289 69.1003C134.202 69.0447 134.119 68.9843 134.04 68.9193C134.001 68.8797 133.955 68.8401 133.922 68.8005L133.843 68.7383C133.744 68.651 133.636 68.5751 133.521 68.5121C133.298 68.3818 133.061 68.2775 132.815 68.201C132.566 68.1255 132.311 68.0725 132.053 68.0427C131.805 68.0208 131.556 68.0208 131.308 68.0427C131.182 68.035 131.062 67.9853 130.967 67.9014C130.873 67.8176 130.809 67.7044 130.787 67.5801C130.764 67.4557 130.783 67.3273 130.842 67.2153C130.901 67.1034 130.995 67.0143 131.11 66.9624H131.155C132.781 66.4591 134.424 66.0293 136.073 65.6164C136.153 65.5952 136.238 65.5902 136.32 65.6018C136.403 65.6134 136.483 65.6413 136.555 65.6839C136.627 65.7265 136.689 65.7829 136.739 65.85C136.789 65.917 136.826 65.9933 136.846 66.0745C136.868 66.1631 136.871 66.2553 136.854 66.3451C136.838 66.4348 136.802 66.52 136.75 66.5948C136.377 67.1208 135.965 67.6524 135.542 68.1445C135.197 68.529 134.847 68.9023 134.514 69.2643V69.2417Z" fill="#090C1B"/>
<path d="M121.406 75.4693C121.456 73.9865 121.913 72.5463 122.727 71.3067C123.506 70.0729 124.559 69.0356 125.803 68.2755C127.048 67.5153 128.45 67.0527 129.902 66.9236C131.339 66.804 132.786 66.9614 134.164 67.3873C134.279 67.4181 134.382 67.4844 134.457 67.5768C134.532 67.6693 134.576 67.783 134.582 67.902C134.613 68.9523 134.516 70.0025 134.294 71.0296C134.077 72.0603 133.695 73.0494 133.165 73.9592C132.622 74.8733 131.855 75.6327 130.935 76.1649C130.022 76.664 129.005 76.9428 127.966 76.9793C127.916 76.9838 127.867 76.9685 127.829 76.9367C127.791 76.9048 127.767 76.8592 127.762 76.8097C127.758 76.7602 127.773 76.7109 127.805 76.6727C127.837 76.6345 127.882 76.6106 127.932 76.6061C128.891 76.5092 129.815 76.1897 130.63 75.6729C131.417 75.1458 132.053 74.4227 132.476 73.5746C132.9 72.7197 133.181 71.8006 133.306 70.8542C133.442 69.9178 133.466 68.9686 133.38 68.0264L133.803 68.5411C132.571 68.1586 131.278 68.0165 129.992 68.1226C128.719 68.2328 127.489 68.6369 126.398 69.3032C125.307 69.9694 124.385 70.8797 123.703 71.9628C123.012 73.0156 122.621 74.2381 122.574 75.4975C122.574 75.655 122.512 75.8061 122.401 75.9175C122.289 76.0288 122.139 76.0914 121.981 76.0914C121.824 76.0914 121.673 76.0288 121.562 75.9175C121.451 75.8061 121.389 75.655 121.389 75.4975L121.406 75.4693Z" fill="#090C1B"/>
<path d="M118.278 71.2158C118.574 71.6155 118.986 71.9137 119.457 72.0698C119.959 72.2141 120.491 72.2141 120.993 72.0698C122.107 71.7285 123.092 71.0559 123.816 70.1412C123.856 70.0904 123.906 70.0481 123.962 70.017C124.019 69.9859 124.081 69.9667 124.146 69.9603C124.21 69.954 124.275 69.9607 124.337 69.9801C124.398 69.9996 124.455 70.0313 124.505 70.0733C124.601 70.1522 124.665 70.2651 124.682 70.3891C124.698 70.5131 124.667 70.6388 124.595 70.7407C123.791 71.8965 122.652 72.777 121.332 73.2631C120.609 73.5278 119.825 73.5808 119.074 73.4158C118.307 73.2215 117.617 72.7973 117.098 72.1999C116.966 72.0499 116.899 71.8536 116.912 71.6542C116.924 71.4548 117.016 71.2686 117.165 71.1366C117.315 71.0046 117.511 70.9376 117.71 70.9503C117.909 70.9631 118.095 71.0545 118.227 71.2045L118.278 71.2158Z" fill="#090C1B"/>
<path d="M73.9897 387.6C73.9897 387.6 62.6988 411.885 35.7472 407.457C27.3975 406.077 22.7174 399.25 24.5804 395.45L73.9897 387.6Z" fill="url(#paint6_linear)"/>
<path d="M83.0463 349.028C83.0463 349.028 84.7399 368.172 76.6612 383.25C68.5825 398.329 50.8105 410.002 33.0385 403.86C15.2665 397.718 28.6633 373.319 30.7803 368.665C32.8974 364.01 36.3807 351.748 36.9 344.113L83.0463 349.028Z" fill="url(#paint7_linear)"/>
<path opacity="0.2" d="M78.7989 354.045C80.6732 360.832 79.0529 374.123 74.6833 386.559C70.2685 399.109 87.1034 376.809 87.1034 376.809L85.9743 348.813L78.7989 354.045Z" fill="black"/>
<path d="M34.5742 345.951C34.5742 352.229 42.5513 357.325 56.5634 358.507C73.1838 359.904 85.4909 352.229 85.4909 345.951C85.4909 339.673 74.0927 334.583 60.0298 334.583C45.9668 334.583 34.5742 339.673 34.5742 345.951Z" fill="url(#paint8_linear)"/>
<path opacity="0.2" d="M77.286 347.66C80.7354 348.463 81.2378 353.044 76.998 355.216C76.998 355.216 87.8487 351.975 88.3455 351.257C88.8423 350.538 85.2574 340.511 85.2574 340.511L77.286 347.66Z" fill="black"/>
<path opacity="0.2" d="M39.6305 343.615C38.9756 342.162 36.7117 341.919 35.4415 342.988L34.877 340.776L38.3715 338.933L39.6305 343.615Z" fill="black"/>
<path d="M36.3633 337.682C36.3633 343.96 44.3517 348.954 58.3807 350.238C64.8092 350.905 71.3038 350.021 77.3213 347.659C83.5314 345.091 87.3082 341.155 87.3082 337.682C87.3082 331.405 75.91 326.314 61.847 326.314C47.7841 326.314 36.3633 331.422 36.3633 337.682Z" fill="url(#paint9_linear)"/>
<path opacity="0.2" d="M76.373 341.823C79.5402 342.62 79.9805 346.381 77.2933 347.659L91.153 342.773L82.8259 326.513L76.373 341.823Z" fill="black"/>
<path opacity="0.2" d="M37 335.143C37.8807 334.057 40.6752 333.446 42.3406 335.556L42.685 329.866L37.4121 331.495L37 335.143Z" fill="black"/>
<path d="M104.663 276.663C101.563 295.451 87.1615 309.031 81.516 339.006C73.3752 345.334 50.7989 348.094 42.2064 338.401C39.2821 328.786 40.2474 259.628 48.4165 246.168C77.2649 271.72 104.663 276.663 104.663 276.663Z" fill="url(#paint10_linear)"/>
<path opacity="0.05" d="M62.5977 255.585C56.049 267.462 50.6067 288.156 49.0485 302.748C46.8299 323.527 48.7606 344.526 48.7606 344.526C48.7606 350.046 42.5506 351.483 40.1908 349.707C32.8911 344.272 38.2657 257.491 38.2657 257.491L45.0402 243.013L62.5977 255.585Z" fill="#00CAFE"/>
<path d="M33.1395 378.822C38.2995 378.398 46.7565 381.282 51.0132 386.921C51.8882 388.052 47.242 386.582 44.4644 386.734C41.6868 386.887 32.7443 388.544 30.0232 385.394C29.3737 384.701 28.9893 383.801 28.9376 382.853C28.886 381.904 29.1705 380.967 29.7409 380.208C30.6499 379.082 32.5863 378.867 33.1395 378.822Z" fill="url(#paint11_linear)"/>
<path d="M147.443 387.6C147.443 387.6 158.734 411.885 185.686 407.457C194.036 406.077 198.721 399.25 196.853 395.45L147.443 387.6Z" fill="url(#paint12_linear)"/>
<path d="M138.388 349.028C138.388 349.028 136.694 368.172 144.773 383.25C152.852 398.329 170.641 410.002 188.396 403.86C206.151 397.718 192.771 373.319 190.654 368.665C188.537 364.01 185.054 351.748 184.54 344.113L138.388 349.028Z" fill="url(#paint13_linear)"/>
<path opacity="0.2" d="M142.635 354.045C140.761 360.832 142.381 374.123 146.756 386.559C151.165 399.109 134.336 376.809 134.336 376.809L135.465 348.813L142.635 354.045Z" fill="black"/>
<path d="M186.865 345.951C186.865 352.229 178.882 357.325 164.847 358.507C148.227 359.904 135.92 352.229 135.92 345.951C135.92 339.673 147.318 334.583 161.381 334.583C175.444 334.583 186.865 339.673 186.865 345.951Z" fill="url(#paint14_linear)"/>
<path opacity="0.2" d="M144.145 347.66C140.695 348.463 140.193 353.044 144.433 355.216C144.433 355.216 133.588 351.975 133.085 351.257C132.583 350.538 136.173 340.511 136.173 340.511L144.145 347.66Z" fill="black"/>
<path opacity="0.2" d="M182.35 343.542C184.382 342.541 187.431 344.288 186.567 347.965L188.323 341.704L183.631 338.876L182.35 343.542Z" fill="black"/>
<path d="M185.071 337.682C185.071 343.96 177.083 348.954 163.082 350.238C155.703 350.911 149.143 349.729 144.147 347.659C137.937 345.091 134.154 341.155 134.154 337.682C134.154 331.405 145.553 326.314 159.615 326.314C173.678 326.314 185.071 331.422 185.071 337.682Z" fill="url(#paint15_linear)"/>
<path opacity="0.2" d="M145.088 341.823C141.921 342.62 141.487 346.381 144.174 347.659L130.309 342.773L138.636 326.513L145.088 341.823Z" fill="black"/>
<path opacity="0.2" d="M184.606 340.193C185.476 336.399 180.282 334.385 178.6 336.704L178.729 329.866L188.541 334.334L184.606 340.193Z" fill="black"/>
<path d="M114.266 276.499C117.365 295.287 134.663 312.498 139.941 339.006C148.082 345.334 170.658 348.094 179.257 338.401C182.175 328.786 181.21 259.628 173.047 246.168C144.17 271.72 114.266 276.499 114.266 276.499Z" fill="url(#paint16_linear)"/>
<path opacity="0.05" d="M158.836 255.585C165.39 267.462 170.827 288.156 172.385 302.748C174.604 323.527 172.679 344.526 172.679 344.526C172.679 350.046 178.861 351.483 181.243 349.707C188.543 344.272 183.168 257.491 183.168 257.491L176.393 243.013L158.836 255.585Z" fill="#00CAFE"/>
<path d="M172.904 386.282C172.391 387.571 176.054 386.802 178.284 386.961C180.514 387.119 187.571 387.922 189.756 384.749C191.134 382.753 190.919 380.276 189.982 379.563C185.736 376.356 175.625 379.456 172.904 386.282Z" fill="url(#paint17_linear)"/>
<path d="M204.157 227.193C207.088 224.201 203.375 215.79 195.865 208.406C188.354 201.022 179.89 197.462 176.959 200.454C174.028 203.446 177.741 211.857 185.252 219.24C192.762 226.624 201.227 230.184 204.157 227.193Z" fill="#00B7EB"/>
<path d="M204.157 227.211C207.093 224.219 203.378 215.803 195.87 208.423C188.361 201.042 179.893 197.473 176.963 200.471" stroke="#D3FFFF" stroke-width="1.33" stroke-miterlimit="10"/>
<path d="M158.637 181.123C178.848 188.351 183.929 199.147 174.761 203.57C175.094 219.881 197.998 229.021 197.998 229.021C205.828 226.238 225.26 211.307 217.023 191.128C208.786 170.948 174.981 152.477 158.141 147.93L158.637 181.123Z" fill="url(#paint18_linear)"/>
<path d="M176.935 192.321C174.271 186.971 167.338 181.434 161.693 180.122L161.004 187.548L176.935 192.321Z" fill="black"/>
<path opacity="0.05" d="M216.122 180.331C217.708 190.076 212.17 194.391 206.575 195.234C200.98 196.076 193.76 190.172 191.044 183.232C188.329 176.293 178.223 161.645 161.852 158.347V141.991C161.852 141.991 206.389 164.767 216.122 180.331Z" fill="#00CAFE"/>
<path opacity="0.8" d="M167.384 153.801C167.384 153.801 178.201 155.333 193.421 165.332L195.792 163.771L164.369 147.828L167.384 153.801Z" fill="#00CAFE"/>
<path opacity="0.1" d="M178.516 195.324C180.853 198.09 180.288 204.328 176.128 208.332L173.463 201.817L178.516 195.324Z" fill="#00CAFE"/>
<path d="M159.518 146.362C159.518 146.362 167.8 143.693 168.687 157.34C169.573 170.987 163.555 183.831 160.298 187.095L156.346 175.529L159.518 146.362Z" fill="url(#paint19_linear)"/>
<path d="M162.517 165.965C164.419 168.658 167.716 168.822 168.309 166.621C169.02 163.975 169.048 173.934 169.048 173.934L161.828 189.295L156.871 181.943L162.517 165.954" fill="url(#paint20_linear)"/>
<path d="M160.778 181.213C160.778 181.213 165.655 157.64 159.293 146.148C152.931 134.655 146.715 143.699 146.715 143.699L160.778 181.213Z" fill="url(#paint21_linear)"/>
<path d="M164.9 172.543L159.56 182.678L156.697 165.875C158.679 168.573 162.264 167.792 162.518 165.988L164.9 172.543Z" fill="url(#paint22_linear)"/>
<path d="M33.7396 219.268C41.2503 211.884 44.9631 203.473 42.0324 200.481C39.1017 197.489 30.6373 201.05 23.1266 208.433C15.6159 215.817 11.9031 224.228 14.8338 227.22C17.7645 230.212 26.2289 226.652 33.7396 219.268Z" fill="#00B7EB"/>
<path d="M14.8406 227.211C11.9106 224.219 15.6197 215.803 23.1282 208.423C30.6367 201.042 39.1049 197.473 42.0406 200.471" stroke="#D3FFFF" stroke-width="1.33" stroke-miterlimit="10"/>
<path d="M60.4066 181.122C40.1957 188.35 35.1148 199.147 44.283 203.57C43.9556 219.881 21.0462 229.02 21.0462 229.02C13.1877 226.226 -6.21026 211.307 1.99264 191.116C10.1955 170.925 44.0346 152.465 60.8808 147.918L60.4066 181.122Z" fill="url(#paint23_linear)"/>
<path d="M42.0645 192.321C44.7291 186.971 51.6618 181.434 57.2791 180.122L57.9678 187.548L42.0645 192.321Z" fill="black"/>
<path opacity="0.05" d="M1.60886 182.769C-0.000108719 192.513 5.53812 196.817 11.1554 197.671C16.7727 198.525 23.9707 192.609 26.6861 185.67C29.4016 178.73 39.5183 164.082 55.8903 160.768V144.429C55.8903 144.429 11.3417 167.204 1.60886 182.769Z" fill="#00CAFE"/>
<path opacity="0.8" d="M50.7472 153.896C50.7472 153.896 30.3161 160.739 13.4079 175.359L12.0586 163.861L54.8514 147.918L50.7472 153.896Z" fill="#00CAFE"/>
<path opacity="0.1" d="M40.4848 195.324C38.1475 198.09 38.7121 204.328 42.8728 208.332L45.5375 201.817L40.4848 195.324Z" fill="#00CAFE"/>
<path d="M51.9395 238.799C48.2869 239.291 45.3287 243.544 47.203 248.781C49.0773 254.018 70.0672 284.372 116.377 284.672C162.687 284.972 176.14 248.193 177.185 244.189C178.229 240.184 176.123 234.868 168.75 236.163C162.969 237.181 165.363 237.56 165.363 237.56L51.9395 238.799Z" fill="url(#paint24_linear)"/>
<path d="M52.7622 231.09C52.7622 231.09 51.3339 240.365 51.9662 244.137C52.5985 247.91 77.4669 278.937 115.952 278.937C154.438 278.937 170.623 245.568 171.809 242.379C172.994 239.189 168.235 229.11 168.235 229.11L52.7622 231.09Z" fill="url(#paint25_linear)"/>
<path d="M111.568 253.435C144.224 252.939 170.525 241.163 170.312 227.134C170.1 213.104 143.454 202.134 110.798 202.631C78.1412 203.128 51.8404 214.903 52.053 228.933C52.2657 242.962 78.9114 253.932 111.568 253.435Z" fill="url(#paint26_linear)"/>
<path d="M59.481 146.362C59.481 146.362 51.199 143.693 50.3127 157.34C49.4263 170.987 55.4444 183.809 58.7132 187.095L62.665 175.529L59.481 146.362Z" fill="url(#paint27_linear)"/>
<path d="M56.5672 167.77C55.7261 169.806 52.0508 170.45 50.9951 168.505L50.7637 175.173L57.2165 189.312L61.6482 182.565L56.5672 167.786" fill="url(#paint28_linear)"/>
<path d="M58.2219 181.213C58.2219 181.213 53.3499 157.64 59.7067 146.148C66.0635 134.655 72.2623 143.704 72.2623 143.704L58.2219 181.213Z" fill="url(#paint29_linear)"/>
<path d="M54.4746 173.895L59.2789 183.193L61.1137 167.747C59.8604 169.302 57.1619 169.127 56.5973 167.747L54.4746 173.895Z" fill="url(#paint30_linear)"/>
<path d="M52.7972 220.215C53.8303 206.998 61.1864 147.901 71.6983 145.085H147.743C152.965 147.008 168.36 204.99 169.546 215.074C170.732 225.158 144.525 243.092 108.772 242.357C72.3927 241.61 51.7584 233.579 52.7972 220.215Z" fill="url(#paint31_linear)"/>
<path opacity="0.3" d="M64.7435 216.471C68.6953 219.864 70.3494 223.682 70.1236 226.73C70.1236 226.73 72.1955 232.601 69.8244 237.114C67.4364 237.046 65.0144 239.223 64.2918 240.813C64.2298 240.986 64.2298 241.176 64.2918 241.35C64.5602 242.246 64.5602 243.202 64.2918 244.099L63.5805 243.708C62.7054 246.055 60.5884 249.324 55.5074 249.596L54.9993 248.968C53.413 247.645 48.7893 248.968 48.9191 252.011C48.1626 250.795 47.1916 249.183 46.8868 247.797C46.4864 246.881 45.9284 246.043 45.2383 245.32L47.9142 211.318L64.7435 216.471Z" fill="black"/>
<path opacity="0.35" d="M151 218.721C147.049 222.115 145.394 225.932 145.626 228.981C145.626 228.981 142.679 232.759 143.69 236.825C146.123 235.966 150.746 239.789 151.407 246.168C151.407 246.168 153.304 245.365 153.609 245.218C154.314 248.911 159.694 253.747 164.775 254.024L165.284 253.396C166.548 251.824 171.341 253.164 171.623 255.93C173.436 253.057 174.991 250.029 176.27 246.881L167.841 213.563L151 218.721Z" fill="black"/>
<path d="M112.549 158.33H107.439V211.318H112.549V158.33Z" fill="url(#paint32_linear)"/>
<path opacity="0.2" d="M106.733 161.99C107.704 162.25 111.814 162.369 113.299 161.944L113.361 160.248L106.654 160.157L106.733 161.99Z" fill="black"/>
<path d="M147.14 148.41C147.14 148.41 137.379 159.981 109.688 159.981C81.9964 159.981 72.337 148.41 72.337 148.41C72.337 148.41 70.4006 142.087 72.6983 138.179C72.6983 138.179 89.838 144.869 109.688 144.881C129.537 144.892 147.14 137.014 147.14 137.014C147.14 137.014 148.619 144.032 147.14 148.41Z" fill="url(#paint33_linear)"/>
<path opacity="0.1" d="M80.0257 137.998C74.3802 143.744 80.4547 155.276 80.4547 155.276L66.5781 147.924L68.6952 137.02L80.0257 137.998Z" fill="black"/>
<path opacity="0.1" d="M144.91 137.433C144.91 137.433 146.965 146.538 142.832 153.269L153.999 147.76L149.945 133.18L144.91 137.433Z" fill="black"/>
<path d="M71.5176 148.009C71.5176 148.009 84.3159 160.174 108.71 159.835C133.945 159.478 143.52 151.753 147.958 148.009" stroke="url(#paint34_linear)" stroke-width="4.06" stroke-linecap="round" stroke-linejoin="round"/>
<path d="M79.2066 190.256C87.2134 190.256 93.7042 184.255 93.7042 176.852C93.7042 169.449 87.2134 163.448 79.2066 163.448C71.1998 163.448 64.709 169.449 64.709 176.852C64.709 184.255 71.1998 190.256 79.2066 190.256Z" fill="url(#paint35_linear)"/>
<path d="M95.3757 166.727L63.127 185.379L66.6018 191.408L98.8505 172.756L95.3757 166.727Z" fill="url(#paint36_linear)"/>
<path d="M79.2063 186.886C85.1958 186.886 90.0513 182.394 90.0513 176.853C90.0513 171.311 85.1958 166.819 79.2063 166.819C73.2168 166.819 68.3613 171.311 68.3613 176.853C68.3613 182.394 73.2168 186.886 79.2063 186.886Z" fill="#1058AB" stroke="#090C1B" stroke-width="1.33" stroke-miterlimit="10"/>
<path d="M74.4241 169.737C74.4593 169.721 74.4982 169.714 74.537 169.716C74.5758 169.719 74.6132 169.732 74.6456 169.754C74.678 169.775 74.7042 169.805 74.7218 169.84C74.7394 169.875 74.7477 169.913 74.7459 169.952C74.7441 169.992 74.7317 170.031 74.71 170.065C74.6883 170.098 74.658 170.126 74.6224 170.144C74.5867 170.162 74.5468 170.17 74.5069 170.168C74.4669 170.165 74.4284 170.153 74.3951 170.13C74.3618 170.108 74.335 170.077 74.3174 170.041C74.2999 170.005 74.2922 169.965 74.2951 169.925C74.2981 169.885 74.3116 169.847 74.3343 169.814C74.3569 169.781 74.3879 169.754 74.4241 169.737ZM81.1705 170.563C81.2868 170.507 81.4141 170.478 81.5431 170.478C81.7011 170.478 81.8558 170.523 81.989 170.608C82.1221 170.693 82.2279 170.815 82.294 170.959C82.3606 171.149 82.3856 171.352 82.3673 171.553C82.7393 171.45 83.1161 171.365 83.4964 171.298C83.7561 171.27 84.0102 171.225 84.2642 171.219C84.6985 171.186 85.1347 171.252 85.5401 171.411C85.6842 171.473 85.8138 171.565 85.9208 171.68C86.0277 171.795 86.1095 171.93 86.1611 172.079C86.2416 172.372 86.2278 172.682 86.1216 172.967C85.994 173.331 85.8133 173.674 85.5853 173.985C85.121 174.621 84.587 175.204 83.9932 175.721C83.5032 176.159 82.9907 176.57 82.4577 176.954C82.4121 176.978 82.3718 177.01 82.3391 177.05V179.51C82.3439 179.733 82.3345 179.956 82.3109 180.178C82.2079 180.94 81.8556 181.647 81.3091 182.187C80.7626 182.727 80.0527 183.071 79.2905 183.164C78.4356 183.27 77.5719 183.053 76.8682 182.555C76.1645 182.057 75.6715 181.315 75.4855 180.472H75.3556C74.837 180.62 74.306 180.72 73.7692 180.772C73.3241 180.828 72.8724 180.801 72.4369 180.692C72.1456 180.616 71.8889 180.442 71.7086 180.2C71.5477 179.945 71.4911 179.637 71.5506 179.341C71.6267 178.961 71.7763 178.6 71.9909 178.277C72.3178 177.777 72.6962 177.313 73.12 176.892C73.8025 176.215 74.5388 175.594 75.3218 175.037C75.3556 175.008 75.4121 174.986 75.4064 174.935V173.645C75.4093 173.531 75.4358 173.419 75.4844 173.316C75.533 173.213 75.6026 173.121 75.6887 173.046C75.8455 172.911 76.0465 172.838 76.2533 172.842C76.3843 172.847 76.5122 172.884 76.6261 172.949C76.7401 173.014 76.8368 173.105 76.9081 173.216C77.0015 173.37 77.0467 173.55 77.038 173.73C77.038 174.991 77.038 176.253 77.038 177.52C77.038 177.729 77.038 177.944 77.038 178.153C78.1829 177.614 79.2951 177.008 80.3688 176.338C80.4648 176.275 80.5664 176.219 80.6568 176.151C80.6568 174.522 80.6568 172.893 80.6568 171.264C80.6598 171.113 80.704 170.965 80.7845 170.836C80.8651 170.708 80.979 170.603 81.114 170.535L81.1705 170.563ZM83.1013 172.888C82.8325 172.957 82.5685 173.044 82.3109 173.148C82.3109 173.764 82.3109 174.386 82.3109 175.008L82.4407 174.918C82.8077 174.635 83.1634 174.352 83.5021 174.03C83.7806 173.783 84.0289 173.504 84.2416 173.199C84.315 173.097 84.3668 172.982 84.3941 172.859C84.3941 172.808 84.3602 172.774 84.315 172.758C84.2031 172.726 84.0866 172.715 83.9707 172.724C83.6759 172.747 83.3844 172.802 83.1013 172.888ZM74.5201 177.655C74.1607 177.956 73.8317 178.291 73.5378 178.656C73.426 178.79 73.3451 178.946 73.3007 179.114C73.3007 179.177 73.3402 179.216 73.391 179.233C73.5606 179.267 73.7352 179.267 73.9047 179.233C74.1974 179.19 74.4862 179.124 74.7685 179.035C74.9734 178.979 75.1751 178.911 75.3726 178.832C75.3726 178.753 75.3726 178.668 75.3726 178.583C75.3726 178.046 75.3726 177.508 75.3726 176.971C75.0734 177.18 74.808 177.412 74.5201 177.644V177.655ZM77.0436 179.906C77.0752 180.188 77.1722 180.459 77.3269 180.696C77.4816 180.933 77.6897 181.131 77.9345 181.274C78.1792 181.416 78.4539 181.499 78.7365 181.516C79.019 181.533 79.3016 181.483 79.5615 181.371C79.8791 181.234 80.1509 181.009 80.345 180.723C80.539 180.436 80.6472 180.1 80.6568 179.754C80.6568 179.262 80.6568 178.764 80.6568 178.266C80.6647 178.212 80.6647 178.157 80.6568 178.102C79.5041 178.799 78.2978 179.402 77.0493 179.906H77.0436ZM77.3485 171.581C77.3767 171.536 77.4332 171.485 77.484 171.525C77.4963 171.534 77.5057 171.547 77.511 171.561C77.5162 171.576 77.5171 171.591 77.5135 171.606C77.5099 171.621 77.5019 171.635 77.4907 171.646C77.4794 171.656 77.4653 171.663 77.4501 171.666C77.388 171.666 77.3598 171.626 77.3485 171.581ZM78.6921 174.081C78.9677 174.044 79.2471 174.111 79.4768 174.268C79.6629 174.401 79.8019 174.591 79.8739 174.808C79.9459 175.026 79.9472 175.261 79.8776 175.48C79.8081 175.698 79.6711 175.889 79.4866 176.025C79.302 176.161 79.0792 176.235 78.8502 176.236C78.7086 176.236 78.5682 176.209 78.4371 176.156C78.306 176.102 78.1867 176.023 78.0861 175.923C77.9854 175.824 77.9054 175.705 77.8505 175.574C77.7956 175.443 77.767 175.303 77.7663 175.161C77.7665 174.915 77.8501 174.675 78.0034 174.482C78.1766 174.269 78.4215 174.126 78.6921 174.081ZM69.7497 175.738C69.7813 175.728 69.8149 175.725 69.8479 175.729C69.8809 175.734 69.9125 175.746 69.9402 175.764C69.9679 175.783 69.9911 175.807 70.008 175.836C70.0248 175.865 70.035 175.897 70.0376 175.93C70.0407 175.961 70.0374 175.993 70.0278 176.023C70.0182 176.052 70.0026 176.08 69.9819 176.103C69.9612 176.126 69.9359 176.145 69.9076 176.158C69.8793 176.171 69.8486 176.179 69.8174 176.179C69.7574 176.178 69.7002 176.154 69.6572 176.112C69.6142 176.07 69.5888 176.013 69.5859 175.953C69.5889 175.905 69.6061 175.859 69.6352 175.821C69.6644 175.782 69.7042 175.754 69.7497 175.738ZM87.3918 176.869C87.4254 176.853 87.4626 176.845 87.5 176.847C87.5373 176.849 87.5736 176.86 87.6054 176.88C87.6371 176.9 87.6633 176.927 87.6815 176.96C87.6996 176.993 87.7091 177.03 87.7091 177.067C87.7091 177.105 87.6996 177.141 87.6815 177.174C87.6633 177.207 87.6371 177.235 87.6054 177.254C87.5736 177.274 87.5373 177.286 87.5 177.287C87.4626 177.289 87.4254 177.282 87.3918 177.265C87.3549 177.247 87.3238 177.219 87.3021 177.184C87.2803 177.149 87.2688 177.108 87.2688 177.067C87.2688 177.026 87.2803 176.986 87.3021 176.951C87.3238 176.916 87.3549 176.887 87.3918 176.869ZM84.2416 177.831C84.2416 177.785 84.3094 177.797 84.3489 177.797C84.3884 177.797 84.3997 177.938 84.3207 177.944C84.3062 177.948 84.2908 177.947 84.2767 177.942C84.2625 177.937 84.2503 177.927 84.2417 177.915C84.2331 177.903 84.2285 177.888 84.2285 177.873C84.2284 177.858 84.233 177.843 84.2416 177.831ZM84.0271 183.373C84.0651 183.363 84.105 183.363 84.1429 183.373C84.1808 183.383 84.2154 183.403 84.2434 183.431C84.2713 183.459 84.2916 183.493 84.3022 183.531C84.3128 183.569 84.3133 183.609 84.3038 183.647C84.2943 183.685 84.275 183.72 84.2479 183.748C84.2208 183.777 84.1867 183.798 84.1491 183.809C84.1115 183.82 84.0716 183.821 84.0334 183.812C83.9951 183.803 83.9599 183.785 83.9311 183.758C83.9015 183.73 83.8798 183.695 83.8683 183.656C83.8568 183.618 83.8559 183.576 83.8657 183.537C83.8755 183.498 83.8956 183.462 83.924 183.433C83.9524 183.404 83.988 183.384 84.0271 183.373Z" fill="white"/>
<path d="M15.3789 227.651C24.2762 232.131 47.8913 208.207 42.116 200.566C47.5211 204.263 53.291 207.394 59.3347 209.91C69.2821 214.033 72.0879 223.975 69.4119 227.533C70.4676 231.593 67.9102 238.471 60.9832 239.41C61.2937 243.159 55.3377 248.193 48.2921 247.893C41.2466 247.593 34.647 243.544 37.5657 239.523C38.4012 238.392 39.8747 238.064 41.5175 238.674C41.5175 238.674 41.1111 236.333 36.1882 234.715C31.2653 233.098 17.304 229.303 15.3789 227.651Z" fill="url(#paint37_linear)"/>
<path opacity="0.1" d="M23.4238 226.753C30.4411 232.024 43.2395 232.663 42.2458 240.892C42.1045 240.105 41.7678 239.366 41.2666 238.743C40.7654 238.121 40.1159 237.634 39.3779 237.329C36.7584 236.141 12.1836 229.456 12.1836 229.456L23.4238 226.753Z" fill="black"/>
<path opacity="0.2" d="M42.1952 240.931C41.4443 241.073 40.4676 243.618 41.7153 245.054C42.9629 246.491 45.0236 247.458 47.7673 247.882L37.978 249.013L34.6415 241.395C34.6415 241.395 33.7721 237.696 38.0288 237.329C42.2855 236.961 42.1952 240.931 42.1952 240.931Z" fill="black"/>
<path d="M32.7441 213.603C32.7441 213.603 42.5673 218.388 51.5041 220.39C60.3506 222.387 64.6525 227.793 65.3525 229.858C66.0526 231.922 66.4816 236.701 63.0492 238.907L72.6917 237.968L75.362 215.843L41.7374 195.596L32.7441 213.603Z" fill="url(#paint38_linear)"/>
<path d="M42.906 204.859C42.906 204.859 45.7287 206.975 54.7615 209.853C64.1218 212.845 68.4688 217.732 68.4688 217.732L65.4259 211.12L42.5898 198.842L42.906 204.859Z" fill="#D3FFFF"/>
<path d="M41.2129 238.482C41.8631 239.339 42.2338 240.376 42.2742 241.452" stroke="#090C1B" stroke-width="1.33" stroke-miterlimit="10" stroke-linecap="round"/>
<path d="M42.3068 200.21C42.9985 200.955 43.3993 201.925 43.4359 202.942C43.498 203.904 43.4046 204.871 43.1593 205.803C42.6793 207.61 41.9577 209.343 41.014 210.956C39.1303 214.157 36.8208 217.087 34.1491 219.665C31.5208 222.281 28.5528 224.529 25.3252 226.35C23.6964 227.276 21.9489 227.974 20.1313 228.426C19.1972 228.653 18.2335 228.733 17.2747 228.664C16.2615 228.603 15.3038 228.179 14.5762 227.47L15.1068 226.95C15.7296 227.505 16.5315 227.816 17.365 227.827C18.2313 227.863 19.098 227.764 19.9337 227.532C21.6526 227.053 23.3017 226.352 24.8397 225.446C27.9446 223.626 30.8055 221.418 33.3531 218.874C35.9438 216.351 38.205 213.51 40.0825 210.418C41.0181 208.9 41.7489 207.265 42.256 205.555C42.5014 204.721 42.6212 203.856 42.6117 202.987C42.6192 202.158 42.3263 201.354 41.7875 200.725L42.3068 200.21Z" fill="#D3FFFF"/>
<path d="M203.622 227.651C194.714 232.131 171.11 208.207 176.891 200.566C171.483 204.262 165.712 207.393 159.666 209.91C149.725 214.033 146.913 223.964 149.606 227.533C148.55 231.593 151.108 238.471 158.029 239.41C157.719 243.159 163.675 248.193 170.726 247.893C177.777 247.593 184.365 243.544 181.424 239.523C180.583 238.392 179.109 238.064 177.472 238.674C177.472 238.674 177.879 236.333 182.807 234.715C187.736 233.098 201.697 229.303 203.622 227.651Z" fill="url(#paint39_linear)"/>
<path opacity="0.2" d="M176.806 240.931C177.557 241.073 178.534 243.618 177.286 245.054C176.039 246.491 173.978 247.458 171.234 247.882L181.024 249.013L184.366 241.395C184.366 241.395 185.235 237.696 180.978 237.329C176.722 236.961 176.806 240.931 176.806 240.931Z" fill="black"/>
<path d="M184.671 210.39C184.671 210.39 175.254 216.165 166.323 218.178C157.392 220.192 153.761 222.607 152.209 224.614C150.34 227.052 149.465 231.967 151.362 235.513L146.321 237.99L143.65 215.865L177.269 195.606L184.671 210.39Z" fill="url(#paint40_linear)"/>
<path d="M176.14 203.92C176.14 203.92 174.74 205.747 165.708 208.632C156.347 211.618 155.049 212.591 155.049 212.591V209.87L177.879 197.592L176.14 203.92Z" fill="#D3FFFF"/>
<path opacity="0.1" d="M206.818 229.478L191.259 224.241C187.163 227.435 182.782 230.245 178.172 232.634C169.213 237.159 166.226 245.693 171.748 247.848L176.14 252.242L186.601 242.396L183.778 236.005C191.479 233.652 206.818 229.478 206.818 229.478Z" fill="black"/>
<path d="M177.833 238.482C177.183 239.339 176.812 240.376 176.771 241.452" stroke="#090C1B" stroke-width="1.33" stroke-miterlimit="10" stroke-linecap="round"/>
<path d="M177.23 200.731C176.694 201.362 176.401 202.165 176.406 202.993C176.396 203.862 176.516 204.728 176.761 205.561C177.271 207.27 178.002 208.906 178.935 210.425C180.81 213.514 183.067 216.353 185.653 218.874C188.212 221.423 191.086 223.631 194.206 225.446C195.744 226.352 197.393 227.054 199.112 227.533C199.95 227.764 200.818 227.864 201.686 227.827C202.52 227.818 203.322 227.507 203.944 226.951L204.481 227.471C203.751 228.18 202.792 228.604 201.777 228.664C200.818 228.734 199.854 228.654 198.92 228.427C197.104 227.975 195.359 227.277 193.732 226.351C187.279 222.645 181.877 217.35 178.037 210.968C177.087 209.35 176.357 207.611 175.869 205.799C175.624 204.866 175.531 203.899 175.593 202.937C175.632 201.92 176.032 200.952 176.722 200.205L177.23 200.731Z" fill="#D3FFFF"/>
<path d="M108.733 145.413C152.397 145.413 187.793 113.029 187.793 73.0823C187.793 33.1354 152.397 0.751953 108.733 0.751953C65.07 0.751953 29.6738 33.1354 29.6738 73.0823C29.6738 113.029 65.07 145.413 108.733 145.413Z" stroke="white" stroke-width="2.65" stroke-miterlimit="10"/>
<path d="M100.332 10.3161C99.7671 8.116 92.9022 7.59002 85.1904 9.66565C77.4787 11.7413 71.8219 15.6324 72.409 17.8324C72.9962 20.0325 79.0481 17.6006 86.7599 15.5193C94.4716 13.438 100.924 12.5105 100.332 10.3161Z" fill="url(#paint41_linear)"/>
<path opacity="0.8" d="M116.105 8.85671C116.105 9.95391 114.253 10.5534 111.966 10.5534C109.68 10.5534 107.834 9.98785 107.834 8.85671C107.834 7.72558 109.686 6.66797 111.966 6.66797C114.247 6.66797 116.105 7.75951 116.105 8.85671Z" fill="white"/>
<defs>
<radialGradient id="paint0_radial" cx="0" cy="0" r="1" gradientUnits="userSpaceOnUse" gradientTransform="translate(108.733 72.7236) scale(75.8867 75.2633)">
<stop offset="0.61" stop-color="#ECF1FC" stop-opacity="0"/>
<stop offset="0.7" stop-color="#ECF1FC" stop-opacity="0.01"/>
<stop offset="0.76" stop-color="#ECF1FC" stop-opacity="0.05"/>
<stop offset="0.81" stop-color="#ECF1FC" stop-opacity="0.1"/>
<stop offset="0.86" stop-color="#ECF1FC" stop-opacity="0.19"/>
<stop offset="0.9" stop-color="#ECF1FC" stop-opacity="0.3"/>
<stop offset="0.94" stop-color="#ECF1FC" stop-opacity="0.43"/>
<stop offset="0.98" stop-color="#ECF1FC" stop-opacity="0.58"/>
<stop offset="1" stop-color="#ECF1FC" stop-opacity="0.7"/>
</radialGradient>
<linearGradient id="paint1_linear" x1="102.366" y1="16.4792" x2="115.998" y2="163.36" gradientUnits="userSpaceOnUse">
<stop offset="0.14" stop-color="white"/>
<stop offset="0.33" stop-color="#FBFDFE"/>
<stop offset="0.54" stop-color="#EEF6F9"/>
<stop offset="0.75" stop-color="#D8EBF2"/>
<stop offset="0.97" stop-color="#BADBE9"/>
<stop offset="1" stop-color="#B5D8E7"/>
</linearGradient>
<linearGradient id="paint2_linear" x1="154.053" y1="102.038" x2="151.385" y2="136.116" gradientUnits="userSpaceOnUse">
<stop offset="0.29" stop-opacity="0.1"/>
<stop offset="1" stop-color="#00C0FA" stop-opacity="0.2"/>
</linearGradient>
<linearGradient id="paint3_linear" x1="89.2352" y1="76.2779" x2="88.9626" y2="70.2318" gradientUnits="userSpaceOnUse">
<stop offset="0.25" stop-color="#9FD0DC"/>
<stop offset="1" stop-color="#0037A2"/>
</linearGradient>
<linearGradient id="paint4_linear" x1="3084.1" y1="7050.01" x2="3623.71" y2="8519.05" gradientUnits="userSpaceOnUse">
<stop offset="0.29" stop-opacity="0.1"/>
<stop offset="1" stop-color="#00C0FA" stop-opacity="0.2"/>
</linearGradient>
<linearGradient id="paint5_linear" x1="-4123.92" y1="975.349" x2="-4125.25" y2="893.471" gradientUnits="userSpaceOnUse">
<stop offset="0.25" stop-color="#9FD0DC"/>
<stop offset="1" stop-color="#0037A2"/>
</linearGradient>
<linearGradient id="paint6_linear" x1="24.1739" y1="397.797" x2="73.9897" y2="397.797" gradientUnits="userSpaceOnUse">
<stop stop-color="#00CAFE"/>
<stop offset="0.81" stop-color="#0063B8"/>
</linearGradient>
<linearGradient id="paint7_linear" x1="23.9549" y1="374.824" x2="83.1987" y2="374.824" gradientUnits="userSpaceOnUse">
<stop stop-color="#C3FBFF"/>
<stop offset="0.13" stop-color="#CEFEFF"/>
<stop offset="0.27" stop-color="#D3FFFF"/>
<stop offset="0.46" stop-color="#D0FEFF"/>
<stop offset="0.62" stop-color="#C5FCFF"/>
<stop offset="0.78" stop-color="#B3F7FF"/>
<stop offset="0.92" stop-color="#9AF1FE"/>
<stop offset="1" stop-color="#8AEDFE"/>
</linearGradient>
<linearGradient id="paint8_linear" x1="34.5742" y1="346.624" x2="85.4909" y2="346.624" gradientUnits="userSpaceOnUse">
<stop offset="0.23" stop-color="#00CAFE"/>
<stop offset="0.73" stop-color="#1058AB"/>
</linearGradient>
<linearGradient id="paint9_linear" x1="3317.73" y1="14768.5" x2="7912.45" y2="14768.5" gradientUnits="userSpaceOnUse">
<stop stop-color="#C3FBFF"/>
<stop offset="0.13" stop-color="#CEFEFF"/>
<stop offset="0.27" stop-color="#D3FFFF"/>
<stop offset="0.46" stop-color="#D0FEFF"/>
<stop offset="0.62" stop-color="#C5FCFF"/>
<stop offset="0.78" stop-color="#B3F7FF"/>
<stop offset="0.92" stop-color="#9AF1FE"/>
<stop offset="1" stop-color="#8AEDFE"/>
</linearGradient>
<linearGradient id="paint10_linear" x1="4649.12" y1="51739.4" x2="11898.5" y2="51739.4" gradientUnits="userSpaceOnUse">
<stop offset="0.25" stop-color="#090C1B"/>
<stop offset="0.54" stop-color="#070915"/>
<stop offset="0.94" stop-color="#010103"/>
<stop offset="1"/>
</linearGradient>
<linearGradient id="paint11_linear" x1="32.0782" y1="379.806" x2="46.9265" y2="390.188" gradientUnits="userSpaceOnUse">
<stop offset="0.02" stop-color="white" stop-opacity="0.8"/>
<stop offset="0.89" stop-color="white" stop-opacity="0.2"/>
</linearGradient>
<linearGradient id="paint12_linear" x1="-17621.2" y1="14733.8" x2="-22017.2" y2="14733.8" gradientUnits="userSpaceOnUse">
<stop stop-color="#00CAFE"/>
<stop offset="0.81" stop-color="#0063B8"/>
</linearGradient>
<linearGradient id="paint13_linear" x1="-20968.6" y1="41047.9" x2="-27184.9" y2="41047.9" gradientUnits="userSpaceOnUse">
<stop stop-color="#C3FBFF"/>
<stop offset="0.13" stop-color="#CEFEFF"/>
<stop offset="0.27" stop-color="#D3FFFF"/>
<stop offset="0.46" stop-color="#D0FEFF"/>
<stop offset="0.62" stop-color="#C5FCFF"/>
<stop offset="0.78" stop-color="#B3F7FF"/>
<stop offset="0.92" stop-color="#9AF1FE"/>
<stop offset="1" stop-color="#8AEDFE"/>
</linearGradient>
<linearGradient id="paint14_linear" x1="16998.7" y1="15098.9" x2="12403.5" y2="15098.9" gradientUnits="userSpaceOnUse">
<stop offset="0.23" stop-color="#00CAFE"/>
<stop offset="0.73" stop-color="#1058AB"/>
</linearGradient>
<linearGradient id="paint15_linear" x1="-19101.5" y1="14752.6" x2="-23693.7" y2="14752.6" gradientUnits="userSpaceOnUse">
<stop stop-color="#C3FBFF"/>
<stop offset="0.13" stop-color="#CEFEFF"/>
<stop offset="0.27" stop-color="#D3FFFF"/>
<stop offset="0.46" stop-color="#D0FEFF"/>
<stop offset="0.62" stop-color="#C5FCFF"/>
<stop offset="0.78" stop-color="#B3F7FF"/>
<stop offset="0.92" stop-color="#9AF1FE"/>
<stop offset="1" stop-color="#8AEDFE"/>
</linearGradient>
<linearGradient id="paint16_linear" x1="-25514.8" y1="51739.4" x2="-33345.7" y2="51739.4" gradientUnits="userSpaceOnUse">
<stop offset="0.25" stop-color="#090C1B"/>
<stop offset="0.54" stop-color="#070915"/>
<stop offset="0.94" stop-color="#010103"/>
<stop offset="1"/>
</linearGradient>
<linearGradient id="paint17_linear" x1="-6470.56" y1="6334.47" x2="-6667.69" y2="6612.71" gradientUnits="userSpaceOnUse">
<stop offset="0.02" stop-color="white" stop-opacity="0.8"/>
<stop offset="0.89" stop-color="white" stop-opacity="0.2"/>
</linearGradient>
<linearGradient id="paint18_linear" x1="-16860.5" y1="20758.8" x2="-22425.1" y2="33607.7" gradientUnits="userSpaceOnUse">
<stop offset="0.25" stop-color="#090C1B"/>
<stop offset="0.54" stop-color="#070915"/>
<stop offset="0.94" stop-color="#010103"/>
<stop offset="1"/>
</linearGradient>
<linearGradient id="paint19_linear" x1="164.52" y1="146.425" x2="160.945" y2="187.15" gradientUnits="userSpaceOnUse">
<stop offset="0.16" stop-color="#00CAFE"/>
<stop offset="0.26" stop-color="#03B4EE"/>
<stop offset="0.58" stop-color="#0C72BE"/>
<stop offset="0.73" stop-color="#1058AB"/>
</linearGradient>
<linearGradient id="paint20_linear" x1="166.248" y1="167.606" x2="160.499" y2="185.613" gradientUnits="userSpaceOnUse">
<stop offset="0.35" stop-opacity="0.15"/>
<stop offset="0.43" stop-opacity="0.19"/>
<stop offset="1" stop-opacity="0.3"/>
</linearGradient>
<linearGradient id="paint21_linear" x1="152.05" y1="140.22" x2="162.897" y2="180.643" gradientUnits="userSpaceOnUse">
<stop offset="0.01" stop-color="#90EEFF"/>
<stop offset="0.13" stop-color="#D3FFFF"/>
<stop offset="0.86" stop-color="#1058AB"/>
</linearGradient>
<linearGradient id="paint22_linear" x1="3008.76" y1="5116.54" x2="3076.69" y2="5465.3" gradientUnits="userSpaceOnUse">
<stop offset="0.35" stop-opacity="0.15"/>
<stop offset="0.43" stop-opacity="0.19"/>
<stop offset="1" stop-opacity="0.3"/>
</linearGradient>
<linearGradient id="paint23_linear" x1="19.8776" y1="143.75" x2="51.216" y2="239.965" gradientUnits="userSpaceOnUse">
<stop offset="0.25" stop-color="#090C1B"/>
<stop offset="0.54" stop-color="#070915"/>
<stop offset="0.94" stop-color="#010103"/>
<stop offset="1"/>
</linearGradient>
<linearGradient id="paint24_linear" x1="59.7529" y1="260.319" x2="168.316" y2="260.319" gradientUnits="userSpaceOnUse">
<stop stop-color="#007CD6"/>
<stop offset="0.3" stop-color="#00CAFE"/>
<stop offset="0.97" stop-color="#007CD6"/>
</linearGradient>
<linearGradient id="paint25_linear" x1="51.8081" y1="254.024" x2="171.995" y2="254.024" gradientUnits="userSpaceOnUse">
<stop stop-color="#060812"/>
<stop offset="0.13" stop-color="#070A16"/>
<stop offset="0.43" stop-color="#090C1B"/>
<stop offset="0.74" stop-color="#080B18"/>
<stop offset="0.95" stop-color="#05060F"/>
<stop offset="1" stop-color="#04050C"/>
</linearGradient>
<linearGradient id="paint26_linear" x1="52.0436" y1="228.041" x2="170.3" y2="228.041" gradientUnits="userSpaceOnUse">
<stop offset="0.09" stop-color="#A1F3FF"/>
<stop offset="0.14" stop-color="#AFF6FF"/>
<stop offset="0.22" stop-color="#C3FBFF"/>
<stop offset="0.31" stop-color="#CFFEFF"/>
<stop offset="0.4" stop-color="#D3FFFF"/>
<stop offset="0.49" stop-color="#CDFEFF"/>
<stop offset="0.62" stop-color="#BEFAFF"/>
<stop offset="0.76" stop-color="#A3F3FF"/>
<stop offset="0.91" stop-color="#7FEAFE"/>
<stop offset="1" stop-color="#66E4FE"/>
</linearGradient>
<linearGradient id="paint27_linear" x1="1250.85" y1="10746.4" x2="2040.78" y2="13489.8" gradientUnits="userSpaceOnUse">
<stop offset="0.23" stop-color="#00CAFE"/>
<stop offset="0.73" stop-color="#1058AB"/>
</linearGradient>
<linearGradient id="paint28_linear" x1="52.9936" y1="168.765" x2="58.4367" y2="185.817" gradientUnits="userSpaceOnUse">
<stop offset="0.3" stop-opacity="0.1"/>
<stop offset="0.38" stop-opacity="0.16"/>
<stop offset="1" stop-opacity="0.3"/>
</linearGradient>
<linearGradient id="paint29_linear" x1="66.9555" y1="140.221" x2="56.1023" y2="180.643" gradientUnits="userSpaceOnUse">
<stop offset="0.04" stop-color="#90EEFF"/>
<stop offset="0.15" stop-color="#D3FFFF"/>
<stop offset="1" stop-color="#1058AB"/>
</linearGradient>
<linearGradient id="paint30_linear" x1="57.5571" y1="168.42" x2="58.6165" y2="179.578" gradientUnits="userSpaceOnUse">
<stop offset="0.29" stop-opacity="0.1"/>
<stop offset="1" stop-opacity="0.3"/>
</linearGradient>
<linearGradient id="paint31_linear" x1="52.7633" y1="193.735" x2="169.574" y2="193.735" gradientUnits="userSpaceOnUse">
<stop offset="0.01" stop-color="#070914"/>
<stop offset="0.12" stop-color="#080A17"/>
<stop offset="0.43" stop-color="#090C1B"/>
<stop offset="0.81" stop-color="#080A17"/>
<stop offset="0.91" stop-color="#070914"/>
</linearGradient>
<linearGradient id="paint32_linear" x1="109.991" y1="211.318" x2="109.991" y2="158.33" gradientUnits="userSpaceOnUse">
<stop stop-color="#1058AB"/>
<stop offset="0.32" stop-color="#00CAFE"/>
<stop offset="0.97" stop-color="#1058AB"/>
</linearGradient>
<linearGradient id="paint33_linear" x1="71.5749" y1="148.5" x2="147.795" y2="148.5" gradientUnits="userSpaceOnUse">
<stop stop-color="#1058AB"/>
<stop offset="0.3" stop-color="#00CAFE"/>
<stop offset="0.97" stop-color="#1058AB"/>
</linearGradient>
<linearGradient id="paint34_linear" x1="70.3715" y1="153.925" x2="149.104" y2="153.925" gradientUnits="userSpaceOnUse">
<stop stop-color="#43DBFE"/>
<stop offset="0.3" stop-color="#D3FFFF"/>
<stop offset="0.99" stop-color="#43DBFE"/>
</linearGradient>
<linearGradient id="paint35_linear" x1="69.056" y1="162.883" x2="89.8124" y2="191.34" gradientUnits="userSpaceOnUse">
<stop offset="0.08" stop-color="#00CAFE"/>
<stop offset="0.28" stop-color="#D3FFFF"/>
<stop offset="0.99" stop-color="#0081B8"/>
</linearGradient>
<linearGradient id="paint36_linear" x1="64.8811" y1="186.059" x2="95.2018" y2="168.871" gradientUnits="userSpaceOnUse">
<stop offset="0.08" stop-color="white" stop-opacity="0.2"/>
<stop offset="0.44" stop-color="white" stop-opacity="0"/>
<stop offset="0.73" stop-color="white" stop-opacity="0.5"/>
</linearGradient>
<linearGradient id="paint37_linear" x1="38.6045" y1="201.189" x2="46.955" y2="248.476" gradientUnits="userSpaceOnUse">
<stop offset="0.32" stop-color="#00CAFE"/>
<stop offset="0.4" stop-color="#01C2F8"/>
<stop offset="0.52" stop-color="#04ADE9"/>
<stop offset="0.67" stop-color="#098ACF"/>
<stop offset="0.84" stop-color="#1058AB"/>
</linearGradient>
<linearGradient id="paint38_linear" x1="43.2899" y1="198.842" x2="65.0505" y2="230.924" gradientUnits="userSpaceOnUse">
<stop offset="0.1" stop-color="white" stop-opacity="0.4"/>
<stop offset="0.92" stop-color="white" stop-opacity="0.2"/>
</linearGradient>
<linearGradient id="paint39_linear" x1="18235.9" y1="17349.7" x2="16673.4" y2="21070.5" gradientUnits="userSpaceOnUse">
<stop offset="0.32" stop-color="#00CAFE"/>
<stop offset="0.4" stop-color="#01C2F8"/>
<stop offset="0.52" stop-color="#04ADE9"/>
<stop offset="0.67" stop-color="#098ACF"/>
<stop offset="0.84" stop-color="#1058AB"/>
</linearGradient>
<linearGradient id="paint40_linear" x1="-13076.8" y1="15030.7" x2="-14725.6" y2="17387.6" gradientUnits="userSpaceOnUse">
<stop offset="0.1" stop-color="white" stop-opacity="0.4"/>
<stop offset="0.92" stop-color="white" stop-opacity="0.2"/>
</linearGradient>
<linearGradient id="paint41_linear" x1="4935.53" y1="149.126" x2="4420.98" y2="808.616" gradientUnits="userSpaceOnUse">
<stop offset="0.02" stop-color="white" stop-opacity="0.8"/>
<stop offset="0.89" stop-color="white" stop-opacity="0.2"/>
</linearGradient>
</defs>
</svg>
