<svg width="28" height="28" viewBox="0 0 28 28" fill="none" xmlns="http://www.w3.org/2000/svg">
<path d="M27.9999 18.9492C27.9999 15.4746 26.0066 12.3736 23.0212 10.8652C22.9285 17.5273 17.5273 22.9285 10.8652 23.0212C12.3736 26.0066 15.4746 27.9999 18.9492 27.9999C20.5782 27.9999 22.1625 27.5661 23.5544 26.7417L27.9604 27.9604L26.7417 23.5544C27.5661 22.1625 27.9999 20.5782 27.9999 18.9492Z" fill="white"/>
<path d="M21.3828 10.6914C21.3828 4.79605 16.5868 0 10.6914 0C4.79605 0 0 4.79605 0 10.6914C0 12.6127 0.511414 14.4834 1.48254 16.1258L0.0393066 21.3433L5.25705 19.9003C6.89938 20.8714 8.77008 21.3828 10.6914 21.3828C16.5868 21.3828 21.3828 16.5868 21.3828 10.6914ZM9.05078 8.20312H7.41016C7.41016 6.39374 8.88202 4.92188 10.6914 4.92188C12.5008 4.92188 13.9727 6.39374 13.9727 8.20312C13.9727 9.12149 13.5839 10.0042 12.9056 10.6245L11.5117 11.9003V13.1797H9.87109V11.1778L11.798 9.41415C12.1423 9.09906 12.332 8.66904 12.332 8.20312C12.332 7.29843 11.5961 6.5625 10.6914 6.5625C9.78671 6.5625 9.05078 7.29843 9.05078 8.20312ZM9.87109 14.8203H11.5117V16.4609H9.87109V14.8203Z" fill="white"/>
</svg>
