<svg width="30" height="31" viewBox="0 0 30 31" fill="none" xmlns="http://www.w3.org/2000/svg">
<path d="M25.2695 9.86723L28.5285 8.51729C27.0706 5.48215 24.6212 3.01402 21.6004 1.53125L20.25 4.79145C22.4125 5.90771 24.1766 7.69095 25.2695 9.86723Z" fill="white"/>
<path d="M14.9991 26.487C13.7308 26.487 12.5101 26.2798 11.3685 25.8984L10.0195 29.1551C11.5778 29.7033 13.2534 30.0026 14.9991 30.0026C16.7 30.0026 18.3345 29.719 19.8586 29.1973L18.5085 25.9379C17.4018 26.2939 16.2226 26.487 14.9991 26.487Z" fill="white"/>
<path d="M15 21.2138C18.4302 21.2138 21.2109 18.4331 21.2109 15.0029C21.2109 11.5727 18.4302 8.79199 15 8.79199C11.5698 8.79199 8.78906 11.5727 8.78906 15.0029C8.78906 18.4331 11.5698 21.2138 15 21.2138Z" fill="white"/>
<path d="M20.1387 25.2724L21.4886 28.5314C24.5237 27.0736 26.9919 24.6241 28.4746 21.6033L25.2144 20.2529C24.0982 22.4154 22.315 24.1795 20.1387 25.2724Z" fill="white"/>
<path d="M15 5.27637C9.63672 5.27637 5.27344 9.63965 5.27344 15.0029C5.27344 20.3661 9.63672 24.7294 15 24.7294C20.3632 24.7294 24.7265 20.3661 24.7265 15.0029C24.7265 9.63965 20.3632 5.27637 15 5.27637ZM15 22.9716C10.606 22.9716 7.03124 19.3969 7.03124 15.0029C7.03124 10.6089 10.606 7.03417 15 7.03417C19.3939 7.03417 22.9687 10.6089 22.9687 15.0029C22.9687 19.3969 19.3939 22.9716 15 22.9716Z" fill="white"/>
<path d="M4.72973 20.1396L1.4707 21.4896C2.92857 24.5247 5.37801 26.9929 8.3988 28.4756L9.7492 25.2154C7.58669 24.0992 5.82262 22.3159 4.72973 20.1396Z" fill="white"/>
<path d="M29.1944 10.1436L25.9349 11.4937C26.291 12.6004 26.484 13.7795 26.484 15.0031C26.484 16.2713 26.2769 17.4921 25.8955 18.6337L29.1521 19.9826C29.7004 18.4244 29.9996 16.7488 29.9996 15.0031C29.9996 13.3022 29.716 11.6676 29.1944 10.1436Z" fill="white"/>
<path d="M3.51561 15.003C3.51561 13.7347 3.72274 12.514 4.10412 11.3724L0.847496 10.0234C0.299237 11.5817 0 13.2573 0 15.003C0 16.7039 0.283592 18.3384 0.80525 19.8625L4.06469 18.5124C3.70867 17.4057 3.51561 16.2266 3.51561 15.003Z" fill="white"/>
<path d="M9.86234 4.73266L8.51241 1.47363C5.47727 2.93144 3.00913 5.38088 1.52637 8.40167L4.78657 9.75207C5.90283 7.58962 7.68606 5.82555 9.86234 4.73266Z" fill="white"/>
<path d="M14.9992 3.51854C16.2674 3.51854 17.4882 3.72567 18.6298 4.10705L19.9787 0.850426C18.4205 0.302167 16.7449 0.00292969 14.9992 0.00292969C13.2982 0.00292969 11.6637 0.286522 10.1396 0.80818L11.4898 4.06762C12.5965 3.7116 13.7756 3.51854 14.9992 3.51854Z" fill="white"/>
</svg>
