<svg width="90" height="90" viewBox="0 0 90 90" fill="none" xmlns="http://www.w3.org/2000/svg">
<g filter="url(#filter0_d)">
<path d="M69.4763 39.8827C69.0795 37.9641 68.4549 36.0997 67.6159 34.3291C65.5849 30.037 62.3772 26.4094 58.3656 23.8683C58.0019 23.6373 57.6316 23.4161 57.2548 23.2048C55.4918 22.2101 53.6132 21.436 51.6613 20.8998C51.0002 20.7155 50.3269 20.5607 49.6461 20.4329C48.9654 20.3052 48.2723 20.2019 47.5695 20.1331C46.6813 20.0393 45.7887 19.995 44.8956 20.0004C43.9634 20.0039 43.0322 20.0597 42.1063 20.1675C41.4181 20.2462 40.7374 20.3518 40.0665 20.4895C35.2381 21.4636 30.8047 23.8409 27.3217 27.3235C23.8387 30.8061 21.4612 35.2391 20.4869 40.067C20.351 40.7387 20.2445 41.4218 20.1675 42.1164C20.0509 43.1122 19.9951 44.1142 20.0003 45.1168C20.0003 45.9474 20.047 46.7706 20.1306 47.5741C20.2019 48.2769 20.3051 48.9699 20.4329 49.6555C20.5607 50.3411 20.718 51.007 20.8998 51.6681C21.4371 53.6163 22.2113 55.4913 23.205 57.2511C23.418 57.6295 23.6392 58.0006 23.8686 58.3643C26.4139 62.373 30.0418 65.5796 34.3329 67.6137C36.1029 68.4523 37.9667 69.0767 39.8846 69.4739C41.6022 69.8314 43.3526 70.0077 45.107 69.9997C46.1333 69.9962 47.1585 69.9289 48.1765 69.7982C49.4508 69.6388 50.7105 69.3791 51.9439 69.0217C55.9991 67.8453 59.6911 65.6629 62.6768 62.6775C65.6625 59.6921 67.8451 56.0005 69.0217 51.9457C69.3797 50.7124 69.6402 49.4528 69.8007 48.1787C69.938 47.0898 70.0045 45.9931 69.9998 44.8957C69.994 43.2113 69.8187 41.5319 69.4763 39.8827Z" fill="#FE5D00"/>
</g>
<g filter="url(#filter1_d)">
<path d="M56.9956 41.4002C56.956 40.7158 56.142 40.181 54.514 39.773C54.5688 39.653 54.5996 39.5282 54.6 39.3986V36.6002H54.5932C54.45 34.269 44.8972 34.2002 43.8 34.2002C42.7028 34.2002 33.15 34.269 33.0068 36.6002H33V36.6522V39.3998C33.002 40.1598 33.9828 40.7546 35.442 41.1974C35.422 41.2638 35.41 41.3314 35.406 41.4002H35.4V41.4522V44.195C33.828 44.5998 33.0428 45.127 33.004 45.8002H33V45.8522V48.5998C33.0012 49.129 33.4784 49.5778 34.2592 49.9518C34.23 50.0326 34.2112 50.1154 34.206 50.2002H34.2V50.2522V52.9998C34.2032 54.3302 37.1988 55.1562 40.5272 55.5418C40.5516 55.5466 40.574 55.5566 40.6 55.5566C40.6076 55.5566 40.614 55.5526 40.6216 55.5522C41.2632 55.6246 41.9152 55.681 42.5604 55.7214C42.574 55.723 42.586 55.7294 42.6 55.7294C42.6076 55.7294 42.6136 55.7254 42.6208 55.725C43.44 55.775 44.246 55.8002 45 55.8002C45.754 55.8002 46.56 55.775 47.3792 55.725C47.3864 55.7254 47.3928 55.7294 47.4 55.7294C47.414 55.7294 47.426 55.7226 47.4396 55.7214C48.0848 55.681 48.7368 55.625 49.3784 55.5522C49.386 55.5522 49.3924 55.5562 49.4 55.5562C49.426 55.5562 49.4484 55.5462 49.4728 55.5414C52.8012 55.1558 55.7964 54.3294 55.8 52.9986V50.2002H55.7936C55.7656 49.7098 55.3476 49.3006 54.522 48.9586C54.5724 48.843 54.6 48.723 54.6 48.5986V45.9842C56.036 45.5426 56.998 44.9518 57 44.1986V41.4002H56.9956ZM35.8 40.4698V38.5374C36.1736 38.6382 36.5752 38.7302 37 38.8138V40.7662C36.9508 40.7558 36.9 40.7454 36.852 40.735C36.6392 40.6882 36.4316 40.6394 36.2332 40.5878C36.082 40.549 35.9384 40.5094 35.8 40.4698ZM53.7084 39.593L53.6972 39.5906L53.5516 39.7038C53.3404 39.8682 53.016 40.0346 52.6 40.1954V38.2926C53.0756 38.127 53.4804 37.9434 53.8 37.7422V39.3974C53.8 39.4582 53.768 39.5238 53.7084 39.593ZM43.07 48.5934C43.18 48.5954 43.29 48.597 43.4 48.5982V50.5974C43.3224 50.5966 43.2448 50.5966 43.1676 50.5954C43.1324 50.595 43.0984 50.5938 43.0636 50.5934C42.8804 50.5902 42.698 50.5858 42.5168 50.5802C42.4944 50.5794 42.472 50.5786 42.4496 50.5778C42.2316 50.5706 42.0152 50.5614 41.8004 50.551V48.5542C42.2012 48.573 42.604 48.5854 43.0068 48.5926C43.0276 48.5926 43.0488 48.593 43.07 48.5934ZM44.5936 48.5922C44.9964 48.5846 45.3992 48.5722 45.8 48.5538V50.551C45.7144 50.5554 45.6284 50.5594 45.5416 50.563C45.3016 50.573 45.058 50.5814 44.8104 50.5874C44.752 50.589 44.6932 50.5898 44.6344 50.591C44.4916 50.5938 44.3452 50.5946 44.2004 50.5958V48.5978C44.3104 48.5966 44.4204 48.595 44.5304 48.593C44.5512 48.593 44.5724 48.5926 44.5936 48.5922ZM46.8664 50.4834C46.7784 50.4902 46.6896 50.497 46.6 50.5034V48.5086C47.0056 48.4818 47.4064 48.4498 47.8 48.4114V50.3978C47.5528 50.4238 47.3 50.4482 47.0404 50.4694C46.9824 50.4746 46.9244 50.479 46.8664 50.4834ZM48.6 48.325C49.0124 48.2754 49.4128 48.219 49.8 48.1562V50.1202C49.4232 50.1866 49.0228 50.2478 48.6 50.3034V48.325ZM40.0076 50.4194C39.9668 50.4154 39.9264 50.411 39.886 50.407C39.8572 50.4042 39.8288 50.4006 39.8 50.3978V48.4118C40.1936 48.4498 40.5944 48.4822 41 48.509V50.5022C40.664 50.4782 40.332 50.451 40.0076 50.4194ZM39 48.325V50.3034C38.5772 50.2478 38.1768 50.1866 37.8 50.1202V48.1562C38.1872 48.219 38.5876 48.2758 39 48.325ZM50.6 49.9658V48.0134C51.0248 47.9298 51.4264 47.8378 51.8 47.737V49.6694C51.4436 49.7722 51.0424 49.8718 50.6 49.9658ZM43.07 39.3934C43.18 39.3954 43.29 39.397 43.4 39.3982V41.3954C42.8616 41.3902 42.3264 41.3762 41.8 41.3498V39.3542C42.2008 39.373 42.6036 39.3854 43.0064 39.3926C43.0276 39.3926 43.0488 39.393 43.07 39.3934ZM44.5936 39.3922C44.9964 39.3846 45.3992 39.3722 45.8 39.3538V41.3494C45.732 41.3526 45.6668 41.3574 45.5984 41.3606C45.5928 41.361 45.5872 41.361 45.5812 41.3614C45.3128 41.3734 45.0392 41.3822 44.762 41.3886C44.7188 41.3898 44.6756 41.3902 44.6324 41.3914C44.49 41.3942 44.3444 41.3946 44.2 41.3962V39.3982C44.31 39.397 44.42 39.3954 44.53 39.3934C44.5512 39.393 44.5724 39.3926 44.5936 39.3922ZM46.9936 44.1922C47.3964 44.1846 47.7992 44.1722 48.2 44.1538V46.149C47.6744 46.175 47.14 46.1894 46.6 46.195V44.1982C46.71 44.197 46.82 44.1954 46.93 44.1934C46.9512 44.193 46.9724 44.1926 46.9936 44.1922ZM43.1388 46.0838C42.8828 46.0638 42.6328 46.0418 42.3888 46.0174C42.3364 46.0122 42.284 46.0066 42.232 46.0014C42.2212 46.0002 42.2108 45.9986 42.2 45.9978V44.0114C42.5936 44.0494 42.9944 44.0818 43.4 44.1086V46.1022C43.3676 46.0998 43.3332 46.0982 43.3008 46.0958C43.2464 46.0918 43.1924 46.0878 43.1388 46.0838ZM40.658 45.797C40.4996 45.7718 40.3508 45.7446 40.2 45.7182V43.7566C40.5872 43.8194 40.9876 43.8758 41.4 43.9254V45.9038C41.1552 45.8714 40.9156 45.8378 40.6856 45.8018C40.6764 45.7998 40.6672 45.7982 40.658 45.797ZM45.47 44.1934C45.58 44.1954 45.69 44.197 45.8 44.1982V46.1954C45.6052 46.1934 45.4088 46.1926 45.2188 46.1882C45.1896 46.1874 45.1592 46.187 45.13 46.1866C44.8292 46.179 44.5352 46.1674 44.2464 46.1534C44.2308 46.1526 44.2152 46.1518 44.2 46.1514V44.1542C44.6008 44.173 45.0036 44.1854 45.4064 44.1926C45.4276 44.1926 45.4488 44.193 45.47 44.1934ZM49.4968 46.0646C49.4824 46.0658 49.4684 46.067 49.454 46.0682C49.3048 46.0806 49.1508 46.0886 48.9996 46.0994V44.1082C49.4052 44.0814 49.806 44.0494 50.1996 44.011V45.9954C49.9676 46.0202 49.7356 46.0446 49.4968 46.0646ZM39.8 41.1962V39.2114C40.1936 39.2494 40.5944 39.2818 41 39.3086V41.2998C40.5928 41.2706 40.1912 41.2374 39.8 41.1962ZM47.8 41.1954C47.4136 41.2362 47.0136 41.2718 46.6 41.3014V39.3086C47.0056 39.2818 47.4064 39.2498 47.8 39.2114V41.1954ZM48.6 39.125C49.0124 39.0754 49.4128 39.019 49.8 38.9562V40.917C49.4208 40.9838 49.0216 41.0454 48.6 41.101V39.125ZM50.6 40.763V38.8138C51.0248 38.7302 51.4264 38.6382 51.8 38.5374V40.4654C51.4416 40.5698 51.038 40.6694 50.6 40.763ZM39 39.125V41.1014C38.9208 41.091 38.8384 41.0826 38.76 41.0718C38.7088 41.0646 38.66 41.057 38.6096 41.0498C38.3784 41.0166 38.1524 40.981 37.9308 40.9438C37.8864 40.9362 37.8436 40.9282 37.8 40.9206V38.9566C38.1872 39.019 38.5876 39.0758 39 39.125ZM39.4 43.6134V45.5626C38.958 45.4678 38.5572 45.367 38.2 45.2622V43.337C38.5736 43.4378 38.9752 43.5302 39.4 43.6134ZM52.1628 45.727C51.9872 45.7574 51.81 45.7874 51.628 45.815C51.5236 45.831 51.4168 45.8462 51.3096 45.8614C51.2084 45.8758 51.1032 45.8882 51.0004 45.9014V43.925C51.4128 43.8754 51.8132 43.819 52.2004 43.7562V45.7202C52.1876 45.7226 52.1752 45.725 52.1628 45.727ZM37.4 43.0926V44.993C36.7712 44.7502 36.3656 44.5022 36.2336 44.2814L36.2068 44.2366C36.2044 44.2242 36.2004 44.211 36.2 44.1986V42.5422C36.5196 42.7434 36.9244 42.927 37.4 43.0926ZM37 48.0134V49.9658C36.6328 49.8878 36.294 49.8058 35.9856 49.7218C35.9368 49.7082 35.8864 49.695 35.8388 49.681C35.8256 49.677 35.8132 49.6734 35.8 49.6698V47.7374C36.1736 47.8378 36.5752 47.9302 37 48.0134ZM38.2 52.4134V54.3658C37.7576 54.2718 37.3564 54.1722 37 54.0694V52.137C37.3736 52.2378 37.7752 52.3302 38.2 52.4134ZM39 52.5566C39.3872 52.6194 39.7876 52.6758 40.2 52.7254V54.7038C39.7772 54.6482 39.3768 54.587 39 54.5206V52.5566ZM41 52.8114C41.3936 52.8494 41.7944 52.8818 42.2 52.9086V54.9034C41.7844 54.8742 41.3844 54.8386 41 54.7982V52.8114ZM43 52.9538C43.4008 52.9726 43.8036 52.985 44.2064 52.9922C44.2276 52.9926 44.2488 52.993 44.2696 52.9934C44.3796 52.9954 44.4896 52.997 44.5996 52.9982V54.9978C44.0468 54.9926 43.5132 54.9766 42.9996 54.9514V52.9538H43ZM45.4 52.9978C45.51 52.9966 45.62 52.995 45.73 52.993C45.7512 52.9926 45.7724 52.9922 45.7936 52.9918C46.1964 52.9842 46.5992 52.9718 47 52.9534V54.9506C46.4864 54.9758 45.9528 54.9918 45.4 54.997V52.9978ZM47.8 52.9086C48.2056 52.8818 48.6064 52.8498 49 52.8114V54.7978C48.6156 54.8382 48.2156 54.8738 47.8 54.903V52.9086ZM49.8 52.725C50.2124 52.6754 50.6128 52.619 51 52.5562V54.5202C50.6232 54.5866 50.2228 54.6478 49.8 54.7034V52.725ZM51.8 52.4134C52.2248 52.3298 52.6264 52.2378 53 52.137V54.0694C52.6436 54.1722 52.2424 54.2718 51.8 54.3658V52.4134ZM53.7568 48.7286L53.6204 48.8482C53.4104 49.0334 53.0604 49.2202 52.6 49.4002V47.493C53.0756 47.3274 53.4804 47.1438 53.8 46.9426V48.5978C53.8 48.639 53.7848 48.683 53.7568 48.7286ZM54.0256 45.3186C53.8264 45.3742 53.6156 45.4262 53.4004 45.477C53.3008 45.5002 53.1992 45.5234 53.0952 45.5458C53.0644 45.5526 53.0316 45.5586 53.0004 45.5654V43.6138C53.4252 43.5302 53.8268 43.4382 54.2004 43.3374V45.2698C54.1428 45.2858 54.0848 45.3022 54.0256 45.3186ZM33.8 39.3986V37.7422C34.1196 37.9434 34.5244 38.127 35 38.2926V40.2078C34.222 39.9162 33.8008 39.6238 33.8 39.3986ZM33.8 48.5986V46.9422C34.1196 47.1434 34.5244 47.327 35 47.4926V49.4002L34.7716 49.3114L34.7668 49.3162C34.1388 49.0558 33.8008 48.8002 33.8 48.5986ZM35 52.9986V51.3422C35.3196 51.5434 35.7244 51.727 36.2 51.8926V53.8078C35.422 53.5162 35.0008 53.2238 35 52.9986ZM53.8 53.8078V51.893C54.2756 51.7274 54.6804 51.5438 55 51.3426V52.9978C54.9996 53.223 54.578 53.5158 53.8 53.8078ZM55 45.0078V43.093C55.4756 42.9274 55.8804 42.7438 56.2 42.5426V44.1978C56.1996 44.423 55.778 44.7158 55 45.0078Z" fill="white"/>
</g>
<defs>
<filter id="filter0_d" x="0" y="0" width="90" height="90" filterUnits="userSpaceOnUse" color-interpolation-filters="sRGB">
<feFlood flood-opacity="0" result="BackgroundImageFix"/>
<feColorMatrix in="SourceAlpha" type="matrix" values="0 0 0 0 0 0 0 0 0 0 0 0 0 0 0 0 0 0 127 0"/>
<feOffset/>
<feGaussianBlur stdDeviation="10"/>
<feColorMatrix type="matrix" values="0 0 0 0 0.968627 0 0 0 0 0.576471 0 0 0 0 0.101961 0 0 0 0.6 0"/>
<feBlend mode="normal" in2="BackgroundImageFix" result="effect1_dropShadow"/>
<feBlend mode="normal" in="SourceGraphic" in2="effect1_dropShadow" result="shape"/>
</filter>
<filter id="filter1_d" x="33" y="34.2002" width="25" height="23.6" filterUnits="userSpaceOnUse" color-interpolation-filters="sRGB">
<feFlood flood-opacity="0" result="BackgroundImageFix"/>
<feColorMatrix in="SourceAlpha" type="matrix" values="0 0 0 0 0 0 0 0 0 0 0 0 0 0 0 0 0 0 127 0"/>
<feOffset dx="1" dy="2"/>
<feColorMatrix type="matrix" values="0 0 0 0 0 0 0 0 0 0 0 0 0 0 0 0 0 0 0.15 0"/>
<feBlend mode="normal" in2="BackgroundImageFix" result="effect1_dropShadow"/>
<feBlend mode="normal" in="SourceGraphic" in2="effect1_dropShadow" result="shape"/>
</filter>
</defs>
</svg>
