<svg width="90" height="90" viewBox="0 0 90 90" fill="none" xmlns="http://www.w3.org/2000/svg">
<g filter="url(#filter0_d)">
<circle cx="45" cy="45" r="25" fill="#26D345"/>
</g>
<g filter="url(#filter1_d)">
<path d="M45.0016 42.8323C43.276 42.8323 41.8379 41.4774 41.8379 39.8516C41.8379 38.2258 43.276 36.8709 45.0016 36.8709C46.7272 36.8709 48.1653 38.2258 48.1653 39.8516C48.1653 40.8452 49.0281 41.6581 50.0826 41.6581C51.1372 41.6581 52 40.8452 52 39.8516C52 36.9614 49.8909 34.342 46.9189 33.5291V32.8065C46.9189 31.8129 46.0561 31 45.0016 31C43.947 31 43.0842 31.8129 43.0842 32.8065V33.5291C40.0165 34.2518 37.9073 36.8711 38.0031 39.8516C38.0031 43.4645 41.1668 46.4452 45.0016 46.4452C46.7272 46.4452 48.1653 47.8001 48.1653 49.4259C48.1653 51.0517 46.7272 52.4066 45.0016 52.4066C43.276 52.4066 41.8379 51.0517 41.8379 49.4259C41.8379 48.4323 40.9751 47.6194 39.9205 47.6194C38.8659 47.6194 38.0031 48.4323 38.0031 49.4259C38.0031 52.4066 40.1123 54.9355 43.0842 55.7484V57.1935C43.0842 58.1871 43.947 59 45.0016 59C46.0561 59 46.9189 58.1871 46.9189 57.1935V55.7484C50.6577 54.7549 52.7668 51.0517 51.6165 47.529C50.7537 44.8194 48.0693 42.8323 45.0016 42.8323Z" fill="white"/>
</g>
<defs>
<filter id="filter0_d" x="0" y="0" width="90" height="90" filterUnits="userSpaceOnUse" color-interpolation-filters="sRGB">
<feFlood flood-opacity="0" result="BackgroundImageFix"/>
<feColorMatrix in="SourceAlpha" type="matrix" values="0 0 0 0 0 0 0 0 0 0 0 0 0 0 0 0 0 0 127 0"/>
<feOffset/>
<feGaussianBlur stdDeviation="10"/>
<feColorMatrix type="matrix" values="0 0 0 0 0.14902 0 0 0 0 0.827451 0 0 0 0 0.270588 0 0 0 0.6 0"/>
<feBlend mode="normal" in2="BackgroundImageFix" result="effect1_dropShadow"/>
<feBlend mode="normal" in="SourceGraphic" in2="effect1_dropShadow" result="shape"/>
</filter>
<filter id="filter1_d" x="38" y="31" width="15" height="30" filterUnits="userSpaceOnUse" color-interpolation-filters="sRGB">
<feFlood flood-opacity="0" result="BackgroundImageFix"/>
<feColorMatrix in="SourceAlpha" type="matrix" values="0 0 0 0 0 0 0 0 0 0 0 0 0 0 0 0 0 0 127 0"/>
<feOffset dx="1" dy="2"/>
<feColorMatrix type="matrix" values="0 0 0 0 0 0 0 0 0 0 0 0 0 0 0 0 0 0 0.15 0"/>
<feBlend mode="normal" in2="BackgroundImageFix" result="effect1_dropShadow"/>
<feBlend mode="normal" in="SourceGraphic" in2="effect1_dropShadow" result="shape"/>
</filter>
</defs>
</svg>
