<svg width="90" height="90" viewBox="0 0 90 90" fill="none" xmlns="http://www.w3.org/2000/svg">
<g filter="url(#filter0_d)">
<circle cx="45" cy="45" r="25" fill="#F7AF25"/>
</g>
<path d="M52.3974 54.6986V52.3039C52.3974 49.4834 50.218 47.7965 48.1234 46.1507C47.8341 45.9239 47.4658 45.4931 47.4658 44.8356C47.4658 44.1781 47.7975 43.537 48.1234 43.2628C50.1614 41.5479 52.3974 39.93 52.3974 37.1096V35.3014H54.0412V33H35.959V35.3014H37.6028V37.1096C37.6028 39.9301 39.8387 41.548 41.8768 43.2628C42.2026 43.537 42.5344 44.1781 42.5344 44.8357C42.5344 45.4932 42.1661 45.9239 41.8768 46.1507C39.7822 47.7966 37.6028 49.4835 37.6028 52.3039V54.6987H35.959V57H54.0412V54.6986H52.3974ZM40.8488 39.2466C40.2428 38.5607 39.9042 37.9006 39.9042 37.1096V35.3014H50.096V37.1096C50.096 37.9006 49.7573 38.5608 49.1514 39.2466H40.8488V39.2466ZM50.096 54.0572L46.2254 52.5466C45.5514 52.2836 44.4491 52.2836 43.7751 52.5466L39.9042 54.0573V52.304C39.9042 50.7082 41.1726 49.6305 43.2425 48.0044L43.2974 47.9614C44.0831 47.3453 44.5927 46.4872 44.7657 45.5416C44.9205 45.5761 45.0797 45.5761 45.2345 45.5416C45.4068 46.4869 45.917 47.345 46.7017 47.9604L46.7576 48.0044C48.8275 49.6304 50.0959 50.7078 50.0959 52.304V54.0572H50.096Z" fill="white"/>
<defs>
<filter id="filter0_d" x="0" y="0" width="90" height="90" filterUnits="userSpaceOnUse" color-interpolation-filters="sRGB">
<feFlood flood-opacity="0" result="BackgroundImageFix"/>
<feColorMatrix in="SourceAlpha" type="matrix" values="0 0 0 0 0 0 0 0 0 0 0 0 0 0 0 0 0 0 127 0"/>
<feOffset/>
<feGaussianBlur stdDeviation="10"/>
<feColorMatrix type="matrix" values="0 0 0 0 0.968627 0 0 0 0 0.878431 0 0 0 0 0.117647 0 0 0 0.6 0"/>
<feBlend mode="normal" in2="BackgroundImageFix" result="effect1_dropShadow"/>
<feBlend mode="normal" in="SourceGraphic" in2="effect1_dropShadow" result="shape"/>
</filter>
</defs>
</svg>
