<svg width="15" height="14" viewBox="0 0 15 14" fill="none" xmlns="http://www.w3.org/2000/svg">
<path d="M1.64364 1.3184C3.40283 -0.440787 6.26509 -0.44076 8.02427 1.31843C9.22589 2.52005 9.64327 4.29086 9.12297 5.89744L14.204 10.9785C14.281 11.0555 14.3242 11.1596 14.3242 11.2685V13.5889C14.3242 13.8156 14.1408 13.999 13.9141 13.999H11.5937C11.4848 13.999 11.3806 13.9558 11.3037 13.8789L10.7238 13.2985C10.6352 13.2099 10.592 13.0858 10.6064 12.9612L10.6785 12.338L9.81493 12.2566C9.61866 12.2382 9.46365 12.0832 9.44522 11.8869L9.3639 11.0234L8.74065 11.0958C8.62491 11.1115 8.50834 11.0726 8.42062 10.9949C8.33331 10.9168 8.28325 10.8054 8.28325 10.6885V9.92482H7.53343C7.42449 9.92482 7.32034 9.88156 7.24345 9.80464L6.19161 8.76673C4.58544 9.28743 2.84526 8.9015 1.64364 7.69906C-0.115549 5.9399 -0.115549 3.07759 1.64364 1.3184ZM2.80397 4.21875C3.28383 4.69861 4.06408 4.69861 4.54393 4.21875C5.02379 3.7389 5.02379 2.95864 4.54393 2.47879C4.06408 1.99893 3.28383 1.99893 2.80397 2.47879C2.32411 2.95864 2.32414 3.7389 2.80397 4.21875Z" fill="#4D566E"/>
</svg>
