<svg width="50" height="52" viewBox="0 0 50 52" fill="none" xmlns="http://www.w3.org/2000/svg">
<path d="M26.1342 50.9229C25.6656 50.9229 25.172 50.9228 24.672 50.9008C23.0746 50.8568 21.6752 50.7592 20.3954 50.6144C17.2509 50.2399 14.6913 49.5002 12.5027 48.3514C11.9191 48.0448 11.3551 47.7021 10.814 47.3253C10.2638 46.9553 9.75003 46.5337 9.27952 46.0664C8.99427 45.808 8.76944 45.4899 8.62106 45.1347C8.47268 44.7794 8.40439 44.3958 8.42107 44.0111C8.44523 43.7132 8.53432 43.4242 8.68206 43.1644C8.83049 42.9065 9.03461 42.685 9.27952 42.5161C9.36516 42.1729 9.48635 41.8395 9.64114 41.5215C8.29959 40.478 7.18108 39.1754 6.35197 37.6911C5.72275 36.5175 5.29239 35.2476 5.07843 33.9331L4.92121 33.8544L4.06275 33.42L3.96842 33.3728C3.65657 33.2394 3.37677 33.0409 3.14769 32.7905C2.90561 32.4645 2.76752 32.0728 2.75148 31.6669C2.75912 31.6274 2.75912 31.5868 2.75148 31.5473C2.70432 31.2326 2.66658 30.9178 2.63514 30.5716V30.4205L2.34899 30.2254L2.20434 30.1184L2.08484 30.0334C1.93081 29.931 1.78374 29.8185 1.64461 29.6966C1.3701 29.4597 1.17657 29.1427 1.09117 28.7902C1.0405 28.5617 1.01311 28.3286 1.00942 28.0946V28.0253C1.00942 27.7389 0.993694 27.4525 1.00942 27.1378C0.996861 27.0554 0.996861 26.9715 1.00942 26.8891C1.03072 25.6178 1.18352 24.352 1.46537 23.1122C1.64254 22.3137 1.87689 21.529 2.1666 20.7642C2.32913 20.2873 2.63296 19.8712 3.03764 19.5713C3.20391 19.4514 3.38591 19.3551 3.57849 19.2849C3.60365 19.1559 3.6351 19.0363 3.66025 18.9198C3.73354 18.5834 3.82913 18.2521 3.9464 17.9284C4.07662 17.5203 4.33461 17.1649 4.68222 16.9149C4.94911 16.7543 5.23695 16.6314 5.53753 16.5498L5.70419 16.4963L5.80796 16.4554L6.18531 16.3389C6.58191 14.2338 7.28876 12.1994 8.28271 10.3022C9.32998 8.25004 10.7272 6.3967 12.4115 4.82566C14.1162 3.33661 16.1551 2.28169 18.3546 1.75062C20.3497 1.23635 22.3983 0.958525 24.4581 0.922852H25.1154C27.174 0.956422 29.2215 1.23214 31.2157 1.74433C33.4165 2.27294 35.4567 3.32692 37.162 4.81622C38.6127 6.16272 39.8482 7.72421 40.8254 9.44608C40.7814 8.81659 40.7457 8.15878 40.7185 7.47264C40.5507 7.29109 40.4222 7.07678 40.3412 6.84316C40.1953 6.37749 40.1087 5.89528 40.0833 5.40793V5.26315C40.0393 4.79419 40.0173 4.31892 40.011 3.85625C39.9914 3.56858 40.0425 3.28047 40.1598 3.01712C40.2771 2.75376 40.457 2.52317 40.6839 2.34549C41.0481 2.12171 41.4708 2.01209 41.8977 2.03075H42.1461C42.4366 2.04232 42.7195 2.12714 42.9685 2.27735C43.2176 2.42756 43.4246 2.63829 43.5706 2.88999C43.765 3.27432 43.8855 3.69177 43.9259 4.12064V4.21506C43.9919 4.6494 44.036 5.10263 44.0706 5.60622C44.0709 5.6811 44.0772 5.75582 44.0894 5.82969C44.1584 6.28466 44.1305 6.74908 44.0077 7.19252C43.9229 7.45465 43.7775 7.69299 43.5832 7.8881C43.6209 8.3791 43.6618 8.87954 43.7121 9.38628C43.9448 11.8696 44.2655 14.3812 44.6554 16.8583L44.7215 16.8992C45.0804 17.1501 45.3476 17.5115 45.4825 17.9284C45.5979 18.2517 45.6934 18.5817 45.7686 18.9167C45.7938 19.0363 45.8221 19.1527 45.8472 19.2849C46.041 19.3545 46.2242 19.4509 46.3912 19.5713C46.7935 19.8748 47.0931 20.2944 47.2497 20.7737C47.5398 21.5383 47.7742 22.323 47.9509 23.1216C48.3192 24.733 48.4694 26.3865 48.3974 28.0379V28.1072C48.3921 28.3411 48.3647 28.574 48.3157 28.8027C48.2295 29.155 48.0361 29.4718 47.7622 29.7092C47.6206 29.8294 47.4726 29.9418 47.3189 30.046L47.1994 30.131L47.0579 30.2348L46.8032 30.4205C46.8057 30.4714 46.8004 30.5224 46.7874 30.5716C46.756 30.8863 46.7183 31.2263 46.6742 31.5473L46.6554 31.6638C46.6394 32.0707 46.5013 32.4633 46.2591 32.7905C46.0293 33.0424 45.7499 33.2438 45.4384 33.3823L45.3472 33.4295L44.5234 33.8449C44.1003 36.6327 42.6882 39.1746 40.5455 41.0053C40.6008 41.1631 40.6469 41.3239 40.6839 41.4869C40.809 41.9906 40.8765 42.507 40.8852 43.026L40.948 43.0732C41.6619 43.646 41.8191 44.6091 41.3474 45.5376C41.0183 46.1472 40.574 46.687 40.0393 47.1271C39.0608 47.9635 37.9461 48.6257 36.7438 49.0848C34.189 50.105 31.4823 50.6922 28.7347 50.8221C27.9077 50.8945 27.0492 50.9229 26.1342 50.9229Z" fill="white" stroke="white" stroke-width="1.5"/>
<path d="M9.04069 35.8722C8.27342 35.2648 7.59106 33.7824 8.38034 31.9789C8.38034 31.9789 7.2546 32.344 7.43698 31.406C7.61936 30.4681 8.76397 28.7748 8.76397 28.7748C8.54385 29.0392 7.97469 29.4043 7.75143 29.2658C7.52817 29.1273 7.6571 27.8841 8.49669 26.9367C8.49669 26.9367 7.55333 27.0532 7.49044 26.5527C7.42755 26.0523 8.26399 25.832 8.26399 25.832C8.26399 25.832 8.99667 23.4714 9.48721 22.3698C9.37849 22.4037 9.26387 22.4144 9.15075 22.4013C9.03936 22.3851 8.93239 22.3466 8.83629 22.288C8.58473 22.0834 9.04698 20.3995 9.635 19.6882C9.635 19.6882 8.90547 17.293 10.3457 15.7382C10.3457 15.7382 9.57211 15.3857 9.74192 14.6964C9.91172 14.0071 10.8456 14.901 10.8456 14.901C10.8456 14.901 10.5595 11.5521 11.8142 9.33001C12.1663 8.70052 12.7229 7.95773 13.2795 7.81924C13.4043 7.81296 13.5285 7.84031 13.6391 7.89844C13.7497 7.95657 13.8427 8.04335 13.9084 8.14972C13.9084 8.14972 14.0342 7.73741 14.7669 7.86331C14.9794 7.9439 15.17 8.07327 15.3235 8.241C15.3235 8.241 16.1347 7.8759 17.663 9.73602C18.1032 10.2711 19.5057 12.2823 19.5057 12.2823C19.5057 12.2823 20.5622 11.6308 21.7603 12.8331C21.7603 12.8331 23.1596 11.9581 27.4833 12.66C27.4833 12.66 28.6971 11.571 29.6593 12.0305C29.7936 11.745 30.0106 11.5066 30.282 11.346C30.5534 11.1855 30.8667 11.1104 31.1813 11.1303C31.1813 11.1303 33.1812 7.73741 34.612 8.38263C34.612 8.38263 35.6497 7.57374 36.3289 8.35431C36.3289 8.35431 38.0678 8.1812 38.7879 11.5017C39.0741 12.8331 38.9105 14.5705 38.5772 15.9396C38.5772 15.9396 39.3508 16.4306 39.3665 17.0223C39.3822 17.614 38.2219 17.5794 38.2219 17.5794C38.2219 17.5794 40.2092 19.1972 40.2092 22.6782C40.2092 22.6782 41.3884 23.8239 41.2847 24.787C41.2694 24.8908 41.2246 24.9881 41.1557 25.0671C41.087 25.1459 40.996 25.2018 40.8947 25.2277C40.8947 25.2277 42.9387 28.2492 41.4922 32.8224C41.4922 32.8224 41.5865 33.6596 40.4293 33.7351C40.4293 33.7351 40.8004 34.7077 40.4576 34.9438C40.4576 34.9438 39.7187 35.6582 39.3351 36.1303C39.1181 36.4167 35.6811 40.9994 24.1061 40.5934C15.3769 40.499 11.1287 37.4239 11.1287 37.4239C11.1287 37.4239 9.61299 36.3255 9.04069 35.8722Z" fill="white" stroke="white" stroke-width="5" stroke-miterlimit="10"/>
<path d="M16.0008 23.002C15.9906 23.2101 16.0238 23.418 16.0983 23.6126C16.2096 23.906 16.4099 24.1572 16.6709 24.331C16.932 24.5048 17.2408 24.5926 17.5542 24.582C17.7622 24.5737 17.9662 24.5225 18.1534 24.4315C18.3407 24.3405 18.5071 24.2117 18.6422 24.0532C18.7761 23.8937 18.8757 23.7082 18.9347 23.5083C18.9937 23.3085 19.0108 23.0986 18.985 22.8918C18.963 22.319 18.0699 21.7462 17.2429 21.7808C16.4159 21.8154 15.9694 22.1113 16.0008 23.002Z" fill="url(#paint0_linear)" stroke="#090C1B" stroke-width="1.01" stroke-miterlimit="10"/>
<path d="M19.798 24.0025C19.9395 24.7075 19.7634 25.1985 19.3483 25.23C18.9332 25.2615 18.9584 24.7327 19.2162 24.5187C19.2907 24.441 19.3419 24.3439 19.364 24.2386C19.3853 24.1336 19.3777 24.0248 19.342 23.9238L19.798 24.0025Z" fill="#121420"/>
<path d="M16.9955 23.0682C16.986 23.1431 16.9924 23.2193 17.0144 23.2916C17.0349 23.363 17.0715 23.4287 17.1213 23.4836C17.1727 23.5372 17.2334 23.581 17.3006 23.6127C17.3693 23.6406 17.4433 23.6535 17.5175 23.6504C17.5929 23.6484 17.6669 23.6301 17.7345 23.5969C17.7999 23.5613 17.8576 23.5132 17.9043 23.4553C17.9482 23.3947 17.9802 23.3264 17.9986 23.2539C18.0144 23.1813 18.0144 23.1061 17.9986 23.0335C18.0026 22.9629 17.9919 22.8921 17.9672 22.8258C17.9424 22.7597 17.9038 22.6996 17.854 22.6495C17.8058 22.5982 17.7467 22.5584 17.681 22.5331C17.6161 22.5074 17.5465 22.4956 17.4767 22.4985C17.4066 22.4994 17.3377 22.5167 17.2754 22.5488C17.1801 22.5949 17.1018 22.6699 17.0515 22.7632C17.0013 22.8564 16.9817 22.9631 16.9955 23.0682V23.0682Z" fill="#121420"/>
<path d="M16.9537 22.5673C16.9703 22.4703 16.9589 22.3706 16.9208 22.2799C16.8826 22.1892 16.8194 22.1113 16.7385 22.0554C16.6576 21.9994 16.5625 21.9678 16.4642 21.9642C16.366 21.9606 16.2688 21.9852 16.184 22.0351C16.0993 22.085 16.0305 22.158 15.9859 22.2457C15.9413 22.3334 15.9226 22.432 15.9321 22.5299C15.9416 22.6279 15.9789 22.7211 16.0395 22.7985C16.1002 22.8759 16.1817 22.9344 16.2745 22.967C16.4174 23.0026 16.5686 22.9807 16.6956 22.906C16.8226 22.8312 16.9152 22.7097 16.9537 22.5673V22.5673Z" fill="white"/>
<path d="M23.1689 24.7301C23.8624 24.5572 24.5844 24.5315 25.2884 24.6546" stroke="#121420" stroke-width="1.05" stroke-linecap="round" stroke-linejoin="round"/>
<path d="M27.9625 27.8773C28.016 29.2747 26.2488 30.9051 24.9029 30.9554C23.5571 31.0058 21.6766 29.5234 21.6263 28.1228C21.576 26.7221 22.9659 25.9668 24.7174 25.9196C26.4689 25.8723 27.9122 26.4766 27.9625 27.8773Z" fill="#121420"/>
<path d="M23.3083 27.8965C23.5153 27.9667 23.6897 28.1099 23.7989 28.2994C23.9127 28.4791 23.9837 28.6826 24.0064 28.8942C24.0343 29.1137 23.9805 29.3358 23.8552 29.5181C23.7299 29.7004 23.542 29.8301 23.3272 29.8825C23.3191 29.8872 23.3098 29.8897 23.3005 29.8897C23.2911 29.8897 23.2819 29.8872 23.2737 29.8825C23.2647 29.8797 23.2563 29.8751 23.2491 29.8689C23.2419 29.8627 23.236 29.855 23.2319 29.8465C23.2277 29.8379 23.2254 29.8286 23.2251 29.8191C23.2247 29.8096 23.2263 29.8001 23.2297 29.7912C23.2359 29.7738 23.2482 29.7593 23.2643 29.7503C23.411 29.6628 23.534 29.5407 23.6228 29.3947C23.696 29.2499 23.7256 29.087 23.7077 28.9257C23.6917 28.755 23.6448 28.5886 23.5693 28.4347C23.4996 28.2789 23.3914 28.1435 23.2549 28.0413V28.0413C23.2399 28.029 23.229 28.0126 23.2234 27.9941C23.2172 27.9757 23.2172 27.9558 23.2234 27.9374C23.2293 27.926 23.2379 27.9162 23.2486 27.9091C23.261 27.9063 23.2739 27.9063 23.2863 27.9091L23.3083 27.8965Z" fill="white"/>
<path d="M26.3845 27.9249C26.2554 28.0342 26.1568 28.1752 26.0984 28.334C26.0327 28.4939 25.9975 28.6647 25.9946 28.8376C25.9882 28.9992 26.0298 29.1592 26.1141 29.2971C26.2154 29.4296 26.3455 29.5373 26.4946 29.6119C26.5035 29.6158 26.5113 29.6219 26.5174 29.6296C26.5234 29.6373 26.5275 29.6463 26.5292 29.6559C26.5332 29.6649 26.5352 29.6745 26.5352 29.6843C26.5352 29.694 26.5332 29.7037 26.5292 29.7126C26.526 29.72 26.5213 29.7267 26.5153 29.7321C26.5093 29.7375 26.5023 29.7416 26.4946 29.7441C26.4795 29.7502 26.4626 29.7502 26.4474 29.7441C26.2284 29.7071 26.0309 29.5901 25.8932 29.4156C25.7555 29.2411 25.6874 29.0217 25.7022 28.7999C25.7058 28.5864 25.7608 28.3769 25.8626 28.1892C25.9558 27.9912 26.1195 27.8352 26.3217 27.7518C26.3389 27.7455 26.3578 27.7455 26.3751 27.7518C26.391 27.7575 26.4043 27.7687 26.4128 27.7832C26.4191 27.8005 26.4191 27.8195 26.4128 27.8367C26.4064 27.8532 26.3968 27.8682 26.3845 27.8808V27.9249Z" fill="white"/>
<path d="M24.937 27.1252C25.566 27.1032 26.0691 26.9584 26.0628 26.8105C26.0565 26.6625 25.5439 26.5461 24.915 26.5681C24.2861 26.5901 23.783 26.7381 23.7861 26.8829C23.7893 27.0276 24.3081 27.1252 24.937 27.1252Z" fill="white"/>
<path d="M24.9092 30.9561L24.9504 32.0734" stroke="#121420" stroke-width="2.1" stroke-linecap="round" stroke-linejoin="round"/>
<path d="M12.4828 29.291C12.2407 29.9835 12.1401 31.1071 12.6809 31.4218C12.9011 31.5477 12.7281 30.5311 12.9671 30.1408C12.9491 30.6557 13.0708 31.1658 13.3193 31.617C13.5689 32.0682 13.9349 32.4443 14.379 32.706" stroke="#121420" stroke-width="1.05" stroke-linecap="round" stroke-linejoin="round"/>
<path d="M37.3909 28.4814C37.677 29.155 37.7053 29.8695 37.1991 30.222C36.9915 30.3605 36.8846 29.7404 36.6268 29.3627C36.6959 29.6933 36.6949 30.0347 36.624 30.3649C36.553 30.695 36.4136 31.0066 36.2148 31.2795" stroke="#121420" stroke-width="1.05" stroke-linecap="round" stroke-linejoin="round"/>
<path d="M18.4707 31.4999C18.694 30.8264 19.3669 30.8704 19.7883 31.0813C20.2096 31.2922 20.7316 32.1798 21.3951 32.4127L21.1656 32.7904C20.7707 32.7588 20.3811 32.6796 20.0053 32.5543C19.6688 32.4095 19.4644 32.7904 18.9455 32.5543C18.7614 32.4563 18.615 32.2999 18.5291 32.1097C18.4432 31.9195 18.4226 31.7062 18.4707 31.5031V31.4999Z" fill="#121420"/>
<path d="M30.9641 30.4139C31.593 30.3636 31.9074 31.3582 31.3603 31.9877C30.9093 32.4846 30.2867 32.7917 29.6182 32.8469C28.8635 32.9508 28.7598 32.5605 28.7598 32.5605C28.7598 32.5605 29.5113 32.4157 29.7031 31.9058C29.8509 31.5313 30.0207 30.4863 30.9641 30.4139Z" fill="#121420"/>
<path d="M20.3598 31.9279C20.7309 32.0844 21.1136 32.2117 21.5044 32.3087C21.8796 32.3941 22.2651 32.4248 22.649 32.4C23.05 32.3585 23.4473 32.287 23.8376 32.186C24.2645 32.0855 24.701 32.0317 25.1395 32.0255C26.0514 32.0255 26.8564 32.3559 27.6551 32.4503C28.0449 32.5033 28.4396 32.5107 28.8312 32.4724C29.221 32.4218 29.6045 32.3311 29.9758 32.2017C30.0181 32.188 30.0627 32.1829 30.107 32.1866C30.1513 32.1903 30.1944 32.2028 30.2339 32.2232C30.2734 32.2437 30.3084 32.2719 30.337 32.306C30.3655 32.3401 30.387 32.3795 30.4003 32.422C30.4139 32.4644 30.419 32.509 30.4154 32.5534C30.4117 32.5977 30.3992 32.6409 30.3787 32.6804C30.3583 32.7199 30.3302 32.755 30.2961 32.7836C30.262 32.8121 30.2226 32.8337 30.1802 32.8469C29.7568 32.9667 29.323 33.0457 28.8846 33.083C28.4445 33.1107 28.0026 33.0896 27.5671 33.02C26.7086 32.8847 25.9193 32.5762 25.1489 32.5762C24.753 32.5839 24.3594 32.6378 23.976 32.7368C23.5626 32.8477 23.1424 32.9318 22.7182 32.9886C21.835 33.0509 20.949 32.9165 20.124 32.5951C20.0349 32.5645 19.9615 32.5001 19.9196 32.4157C19.9018 32.3728 19.8926 32.3268 19.8926 32.2804C19.8926 32.2339 19.9018 32.1879 19.9196 32.1451C19.9338 32.1004 19.957 32.0592 19.9878 32.024C20.0187 31.9888 20.0565 31.9604 20.0988 31.9405C20.1833 31.9 20.28 31.8932 20.3692 31.9216L20.3598 31.9279Z" fill="#121420"/>
<path d="M15.0151 22.2372L14.251 21.293L16.0685 21.6329C15.8578 21.6437 15.6527 21.7041 15.4697 21.8091C15.2866 21.914 15.1309 22.0607 15.0151 22.2372V22.2372Z" fill="#121420"/>
<path d="M14.896 22.4038C14.7703 22.2936 14.6382 22.1834 14.5093 22.0575C14.3292 21.8836 14.1601 21.6986 14.003 21.5036C13.9619 21.4522 13.9367 21.3898 13.9307 21.3242C13.932 21.2607 13.9505 21.1987 13.9841 21.1448C14.0167 21.0881 14.0662 21.043 14.1256 21.0157C14.1853 20.9874 14.2524 20.9786 14.3174 20.9906C14.9243 21.0976 15.5312 21.214 16.1287 21.3714H16.1664C16.2264 21.3964 16.2758 21.4414 16.3062 21.4988C16.3366 21.5563 16.3461 21.6225 16.3331 21.6861C16.327 21.749 16.2979 21.8073 16.2513 21.8498C16.2077 21.8943 16.1498 21.9222 16.0878 21.9285C16.0025 21.927 15.9172 21.9333 15.8331 21.9474C15.7441 21.959 15.6566 21.9801 15.5721 22.0103C15.4867 22.0357 15.4045 22.0705 15.3268 22.1142C15.2866 22.1379 15.2487 22.1653 15.2136 22.196L15.1853 22.2149C15.1722 22.2349 15.1563 22.2529 15.1382 22.2684C15.1059 22.2972 15.0699 22.3215 15.0312 22.3408L14.896 22.4038ZM15.0155 21.9977C15.0392 21.9542 15.0654 21.9122 15.0941 21.8718C15.1739 21.7708 15.2708 21.6845 15.3803 21.6169C15.5869 21.4789 15.8226 21.3905 16.0689 21.3588L16.0281 21.9159C15.418 21.8404 14.808 21.7334 14.2042 21.6295L14.5187 21.1102C14.6178 21.227 14.7033 21.3548 14.7734 21.491L14.9872 21.9442L15.0155 21.9977Z" fill="#121420"/>
<path d="M19.3303 24.3268C19.283 23.8876 19.1166 23.4697 18.8492 23.1182C18.5813 22.7597 18.2363 22.4661 17.8398 22.259C17.4392 22.0551 16.9967 21.9474 16.5474 21.9442C16.0908 21.9355 15.6369 22.0157 15.2109 22.1803L15.4059 21.8939C15.3927 22.2315 15.4191 22.5695 15.4845 22.901C15.5515 23.2329 15.6714 23.5517 15.8398 23.8453C16.0046 24.137 16.2432 24.3802 16.5316 24.5503C16.8309 24.7233 17.1675 24.8215 17.5127 24.8367V24.8367C17.5373 24.8398 17.5598 24.8522 17.5756 24.8713C17.5838 24.8802 17.5899 24.8906 17.5937 24.902C17.5975 24.9134 17.5988 24.9255 17.5976 24.9374C17.598 24.9494 17.5957 24.9613 17.5908 24.9722C17.5858 24.9831 17.5785 24.9927 17.5693 25.0004C17.561 25.0085 17.5512 25.0149 17.5404 25.0193C17.5296 25.0236 17.5181 25.0257 17.5064 25.0256C17.1238 25.0416 16.7427 24.9683 16.3933 24.8115C16.0386 24.6419 15.7332 24.3839 15.5065 24.0624C15.2868 23.7437 15.1191 23.3921 15.0097 23.0206C14.8981 22.6482 14.8326 22.2634 14.8147 21.875C14.812 21.8123 14.8296 21.7505 14.865 21.6987C14.8987 21.646 14.95 21.607 15.0097 21.5886C15.5103 21.392 16.0443 21.2947 16.582 21.3022C17.1178 21.3118 17.6443 21.4446 18.1208 21.6902C18.5973 21.9357 19.0111 22.2875 19.3303 22.7185C19.6659 23.1588 19.8718 23.6843 19.9246 24.2356C19.9291 24.2746 19.9253 24.3142 19.9134 24.3516C19.9014 24.389 19.8817 24.4235 19.8554 24.4527C19.831 24.4834 19.8005 24.5087 19.7659 24.5272C19.7313 24.5456 19.6932 24.5567 19.6542 24.5597C19.5747 24.5654 19.496 24.5407 19.434 24.4905C19.3763 24.4394 19.3394 24.3688 19.3303 24.2922V24.3268Z" fill="#121420"/>
<path d="M21.3911 23.0586C21.2021 23.301 20.9446 23.4808 20.6522 23.5748C20.3714 23.6536 20.0744 23.6536 19.7937 23.5748C19.2975 23.4219 18.859 23.1224 18.5359 22.7156C18.4921 22.6652 18.4696 22.5997 18.473 22.533C18.4742 22.5006 18.4821 22.4688 18.4962 22.4395C18.5102 22.4103 18.5302 22.3842 18.5548 22.3631C18.604 22.3194 18.6683 22.2968 18.734 22.3001C18.7668 22.3015 18.7991 22.3094 18.8288 22.3235C18.8585 22.3375 18.8851 22.3574 18.9069 22.3819V22.3819C19.184 22.6772 19.5434 22.8822 19.9383 22.9705C20.1077 23.0035 20.2828 22.9893 20.4446 22.9296C20.5902 22.8626 20.7119 22.7528 20.7937 22.6149C20.852 22.5352 20.9387 22.4811 21.0358 22.4638C21.1319 22.446 21.2312 22.4662 21.3128 22.5202C21.3943 22.5742 21.4517 22.6578 21.4729 22.7533C21.4949 22.8479 21.4791 22.9473 21.4289 23.0303L21.41 23.0586H21.3911Z" fill="#121420"/>
<path d="M32.9706 22.3725C32.9923 22.5771 32.9709 22.7841 32.9077 22.9799C32.8478 23.1761 32.747 23.3574 32.6121 23.5118C32.477 23.6662 32.3121 23.7915 32.1273 23.8803C31.9424 23.969 31.7415 24.0192 31.5367 24.028C31.3318 24.0339 31.1278 23.9997 30.9361 23.9273C30.7446 23.8516 30.5703 23.7382 30.4235 23.5937C30.2776 23.4494 30.1629 23.2765 30.0866 23.0859C30.0103 22.8953 29.9741 22.691 29.9801 22.4858C29.9581 21.9129 30.8072 21.2803 31.6342 21.252C32.4612 21.2237 32.9391 21.4943 32.9706 22.3725Z" fill="url(#paint1_linear)" stroke="#090C1B" stroke-width="1.01" stroke-miterlimit="10"/>
<path d="M29.2542 23.6629C29.1661 24.3805 29.3768 24.8558 29.7919 24.8558C30.2069 24.8558 30.1472 24.3301 29.8705 24.135C29.791 24.0626 29.7323 23.9703 29.7007 23.8675C29.6715 23.7646 29.6715 23.6556 29.7007 23.5527L29.2542 23.6629Z" fill="#121420"/>
<path d="M31.9717 22.5169C31.9874 22.5895 31.9874 22.6647 31.9717 22.7372C31.9546 22.8102 31.9225 22.8788 31.8774 22.9387C31.8314 22.9974 31.7736 23.0457 31.7076 23.0803C31.6414 23.1148 31.5683 23.1342 31.4937 23.137C31.4193 23.1393 31.3452 23.1253 31.2767 23.0961C31.207 23.0674 31.1446 23.0233 31.0944 22.967C31.0461 22.9109 31.0098 22.8456 30.9875 22.775C30.9703 22.7026 30.9703 22.6271 30.9875 22.5547C30.9765 22.4848 30.981 22.4134 31.0005 22.3454C31.0201 22.2775 31.0543 22.2146 31.1007 22.1613C31.1454 22.1073 31.201 22.0634 31.2639 22.0325C31.3267 22.0016 31.3954 21.9843 31.4654 21.9819C31.5362 21.979 31.6069 21.9908 31.673 22.0165C31.7372 22.0445 31.7958 22.084 31.8459 22.1329C31.8947 22.1832 31.9323 22.2433 31.956 22.3092C31.9804 22.3756 31.9911 22.4463 31.9874 22.5169H31.9717Z" fill="#121420"/>
<path d="M32.6944 22.3567C32.815 22.3263 32.9233 22.2597 33.0048 22.1657C33.0862 22.0717 33.1369 21.955 33.1499 21.8313C33.1629 21.7075 33.1377 21.5828 33.0776 21.4739C33.0175 21.365 32.9254 21.2772 32.8139 21.2224C32.7023 21.1675 32.5766 21.1483 32.4538 21.1673C32.3309 21.1863 32.2169 21.2425 32.127 21.3285C32.0372 21.4145 31.9758 21.526 31.9513 21.6479C31.9269 21.7699 31.9404 21.8965 31.9901 22.0105C32.038 22.1496 32.139 22.2641 32.2709 22.329C32.4029 22.3938 32.5552 22.4038 32.6944 22.3567V22.3567Z" fill="white"/>
<path d="M33.8863 21.5385L34.5812 20.5439L32.792 21.0161C33.0024 21.0124 33.2107 21.0577 33.4006 21.1483C33.5905 21.239 33.7568 21.3726 33.8863 21.5385Z" fill="#121420"/>
<path d="M33.8716 21.2997L33.8967 21.2399L34.098 20.7646C34.1579 20.6232 34.2339 20.4891 34.3244 20.3649L34.6672 20.8591C34.0728 21.0196 33.4785 21.1738 32.8716 21.2934L32.7899 20.7395C32.9157 20.7472 33.0402 20.7693 33.1609 20.8056C33.2785 20.84 33.3915 20.8886 33.4974 20.9503C33.6047 21.0107 33.7014 21.0883 33.7835 21.1801C33.8166 21.2171 33.8461 21.2571 33.8716 21.2997V21.2997ZM34.0225 21.6994L33.8905 21.6365C33.852 21.6175 33.8152 21.5954 33.7804 21.5704C33.7611 21.5553 33.7432 21.5384 33.7269 21.52L33.6986 21.5011C33.6609 21.476 33.62 21.4539 33.5791 21.4319C33.498 21.3927 33.4125 21.3631 33.3244 21.3438C33.2386 21.3227 33.1514 21.308 33.0634 21.2997C32.9787 21.2934 32.8935 21.2934 32.8087 21.2997C32.735 21.3063 32.6616 21.2837 32.6043 21.2368C32.5759 21.2143 32.5522 21.1862 32.5349 21.1543C32.5176 21.1224 32.507 21.0872 32.5037 21.0511C32.4991 20.9901 32.5146 20.9293 32.5477 20.878C32.5822 20.8253 32.633 20.7855 32.6924 20.7646H32.727C33.2993 20.5695 33.9062 20.409 34.5036 20.2548C34.567 20.2341 34.6353 20.2341 34.6986 20.2548C34.7625 20.2778 34.8173 20.3208 34.8547 20.3776C34.8921 20.4343 34.9101 20.5016 34.9061 20.5695C34.9071 20.6353 34.886 20.6996 34.8464 20.7521C34.7048 20.9596 34.5493 21.1573 34.381 21.3438C34.2615 21.4602 34.1452 21.5798 34.0225 21.6994V21.6994Z" fill="#121420"/>
<path d="M29.1443 23.94C29.1617 23.3917 29.3281 22.8585 29.6255 22.3978C29.9119 21.9347 30.3013 21.5442 30.7633 21.2565C31.2252 20.9688 31.7473 20.7917 32.2889 20.7391C32.8184 20.6938 33.3517 20.7483 33.8611 20.8996C33.9176 20.9178 33.9677 20.9516 34.0058 20.9972C34.0452 21.0432 34.0694 21.1004 34.075 21.1608C34.0839 21.5457 34.0469 21.9303 33.9649 22.3065C33.8833 22.6867 33.741 23.0512 33.5435 23.3861C33.3389 23.7268 33.0497 24.0087 32.7039 24.2044C32.3665 24.3839 31.9917 24.482 31.6097 24.4908C31.5973 24.4939 31.5843 24.4939 31.5719 24.4908C31.5602 24.4869 31.5495 24.4804 31.5405 24.4719C31.5308 24.4646 31.5232 24.4548 31.5185 24.4436C31.5157 24.4322 31.5157 24.4203 31.5185 24.409C31.5174 24.385 31.5253 24.3614 31.5405 24.3429C31.5513 24.3199 31.5704 24.302 31.5939 24.2925C31.9315 24.2479 32.2542 24.1262 32.5373 23.9369C32.8086 23.7437 33.0253 23.4834 33.1662 23.1815C33.3144 22.8742 33.4111 22.5445 33.4523 22.2058C33.4932 21.8702 33.4932 21.531 33.4523 21.1954L33.6662 21.4567C33.2295 21.3243 32.7716 21.2773 32.3172 21.3182C31.8705 21.3598 31.4398 21.5053 31.0594 21.7431C30.6777 21.9825 30.3552 22.3053 30.116 22.6873C29.8769 23.058 29.7422 23.4865 29.7261 23.9274C29.7407 23.9745 29.744 24.0244 29.7359 24.073C29.7277 24.1217 29.7082 24.1677 29.679 24.2074C29.6497 24.2471 29.6116 24.2794 29.5676 24.3017C29.5236 24.3239 29.4751 24.3355 29.4258 24.3355C29.3765 24.3355 29.3279 24.3239 29.2839 24.3017C29.24 24.2794 29.2018 24.2471 29.1726 24.2074C29.1434 24.1677 29.1239 24.1217 29.1157 24.073C29.1075 24.0244 29.1109 23.9745 29.1255 23.9274L29.1443 23.94Z" fill="#121420"/>
<path d="M28.1765 22.3379C28.2688 22.4684 28.398 22.5681 28.5475 22.6243C28.713 22.6715 28.8883 22.6715 29.0538 22.6243C29.4456 22.5091 29.7932 22.2775 30.0506 21.9602V21.9602C30.0918 21.9195 30.1469 21.8959 30.2047 21.8941C30.2611 21.8902 30.317 21.907 30.3619 21.9413C30.4121 21.9743 30.4483 22.0248 30.4634 22.0829C30.4785 22.1411 30.4715 22.2028 30.4437 22.2561C30.1497 22.6945 29.7282 23.0318 29.2362 23.2223C28.9618 23.3238 28.6648 23.3478 28.3777 23.2916C28.0788 23.2198 27.809 23.0584 27.6042 22.8289V22.8289C27.57 22.7918 27.5437 22.7481 27.5269 22.7005C27.5102 22.6528 27.5033 22.6023 27.5067 22.5519C27.5128 22.4508 27.5579 22.356 27.6325 22.2875C27.6702 22.2536 27.7142 22.2276 27.762 22.2108C27.8098 22.194 27.8605 22.1869 27.911 22.1898C27.9616 22.1927 28.0111 22.2057 28.0567 22.2278C28.1022 22.25 28.143 22.281 28.1765 22.319V22.3379Z" fill="#121420"/>
<path d="M41.9828 7.00316L42.2689 7.03778C42.366 7.03183 42.4596 6.99915 42.5394 6.94336C43.1117 6.55937 42.9481 5.86064 42.8978 5.28466C42.8695 4.93845 42.8318 4.59223 42.7752 4.24601C42.7529 3.97931 42.6848 3.71845 42.5739 3.47489C42.4167 3.20107 42.1274 3.18848 41.8444 3.18848C41.5614 3.18848 41.2847 3.21995 41.1935 3.47489C41.1301 3.77194 41.1216 4.07808 41.1684 4.3782C41.1684 4.71183 41.2155 5.04546 41.2407 5.38223C41.2627 5.66865 41.2878 5.93618 41.3319 6.21C41.3655 6.30134 41.4043 6.39066 41.4482 6.47754C41.5475 6.70003 41.724 6.87895 41.945 6.98112L41.9828 7.00316ZM41.3979 5.81972C41.3665 5.65882 41.3475 5.49571 41.3413 5.33187V5.07378C41.345 5.00266 41.3599 4.93256 41.3853 4.86605V4.86605C41.4241 4.95836 41.4536 5.05431 41.4734 5.15247C41.4954 5.24689 41.5174 5.34132 41.5425 5.43889C41.5897 5.61199 41.6306 5.7851 41.6935 5.95506C41.7377 6.09287 41.8058 6.22179 41.8947 6.3359C41.935 6.38888 41.9839 6.43464 42.0394 6.47124L42.2092 6.54678C42.2463 6.55511 42.2787 6.57741 42.2998 6.60906C42.3209 6.64071 42.329 6.67928 42.3224 6.71674C42.3133 6.75472 42.291 6.7882 42.2595 6.81116C42.2276 6.83105 42.1897 6.83887 42.1526 6.8332C42.0074 6.81346 41.8721 6.74849 41.7658 6.6475C41.5529 6.42136 41.4231 6.12944 41.3979 5.81972V5.81972Z" fill="#CAD2DA"/>
<path d="M42.4898 7.40332C42.7162 10.4941 43.0558 13.5733 43.5087 16.641C42.798 16.0115 42.5653 15.0673 42.3389 14.1577C42.1565 12.5525 42.0244 10.9379 41.9018 9.3264C41.8735 8.95185 41.8452 8.56787 41.82 8.18073C41.8021 8.0452 41.8096 7.90752 41.842 7.77472C41.9332 7.48515 42.2351 7.46627 42.4898 7.40332Z" fill="#CAD2DA"/>
<path d="M38.1068 46.0286C37.5073 46.293 36.8972 46.5322 36.2767 46.7462C33.7239 47.5778 31.0694 48.0554 28.3871 48.1657C27.0255 48.2413 25.6608 48.2633 24.2992 48.2916C22.9376 48.3199 21.5509 48.342 20.1767 48.2759C17.7083 48.1626 15.2115 47.7471 12.9978 46.5983L12.916 46.5542C13.1604 46.8615 13.4498 47.13 13.7745 47.3505C14.5289 47.82 15.3405 48.1903 16.1895 48.4521L17.7837 49.025L18.1674 49.1572C19.327 49.3868 20.4986 49.5507 21.6767 49.6482C24.2029 49.8816 26.7441 49.9026 29.2738 49.7111C31.7671 49.5443 34.2169 48.9746 36.5283 48.0241C37.5736 47.6059 38.541 47.0143 39.3898 46.2741C39.8274 45.9088 40.1858 45.4579 40.4432 44.949C40.5083 44.8242 40.5438 44.686 40.5471 44.5452C40.5504 44.4044 40.5213 44.2648 40.4621 44.137C40.4221 44.061 40.3676 43.9936 40.3017 43.9387C40.2355 43.8841 40.1582 43.8444 40.0753 43.8223C40.0347 44.2779 39.8693 44.7136 39.5973 45.0812C39.2326 45.5628 38.6414 45.7926 38.1068 46.0286Z" fill="#4071B3"/>
<path d="M39.1964 41.1345C39.1964 41.1785 39.2247 41.2226 39.2373 41.2635C39.2848 41.4194 39.3061 41.5822 39.3002 41.7451C39.3093 41.8163 39.2985 41.8887 39.2691 41.9543C39.2397 42.0198 39.1928 42.0759 39.1335 42.1165C39.1052 42.1322 39.0486 42.0881 39.0266 42.0787C38.9668 42.0283 38.9194 41.9648 38.8883 41.893C38.8641 41.8484 38.8431 41.8021 38.8254 41.7545V41.723V41.6947C38.7935 41.6263 38.7662 41.5559 38.7436 41.4838L38.687 41.5216C36.3601 43.0953 33.6275 43.9514 30.8509 44.2819C29.8402 44.4794 28.8166 44.6035 27.7881 44.6533C25.9265 44.7792 24.0713 44.7603 22.1908 44.7886C21.2475 44.7886 20.3356 44.8296 19.4111 44.8831C19.1994 44.8752 18.9876 44.8974 18.7822 44.9492C18.7067 44.9743 18.6218 45.0247 18.6155 45.116C18.6092 45.2072 18.7099 45.308 18.7853 45.3709C19.1127 45.64 19.4884 45.844 19.8922 45.9721C19.8989 45.9739 19.9051 45.977 19.9105 45.9814C19.916 45.9857 19.9204 45.9911 19.9236 45.9973C19.9267 46.0031 19.9283 46.0096 19.9283 46.0161C19.9283 46.0227 19.9267 46.0292 19.9236 46.035C19.9202 46.0478 19.9124 46.0589 19.9016 46.0665C19.8884 46.071 19.874 46.071 19.8607 46.0665C19.713 46.0287 19.6218 46.1987 19.6218 46.3246C19.6218 46.4505 19.7821 46.611 19.9079 46.6677C20.0672 46.7376 20.2311 46.7965 20.3985 46.8439L20.9456 47.0107C22.2832 47.3738 23.6518 47.6109 25.0335 47.7189C25.7221 47.7787 26.4108 47.8165 27.0994 47.8448L27.7912 47.87C28.2818 47.8448 28.7692 47.8196 29.2597 47.7818C31.8253 47.6248 34.3556 47.1045 36.7751 46.2365C37.3663 46.0161 37.9512 45.7738 38.5204 45.5C39.6021 44.9775 39.8945 43.7815 39.8002 42.6673C39.7486 42.09 39.6152 41.523 39.404 40.9834L39.1964 41.1345ZM38.97 44.647C38.505 45.1017 37.941 45.4421 37.3223 45.6416C36.6637 45.8964 35.9825 46.0882 35.2878 46.2144C34.5958 46.3761 33.884 46.4366 33.1747 46.3938V46.3938C33.7816 46.1672 34.4073 46.0161 35.0205 45.821C35.6337 45.6259 36.2249 45.4024 36.8192 45.1632C37.3655 44.9916 37.8774 44.7252 38.3317 44.3763C38.5196 44.2163 38.6663 44.0133 38.7593 43.7846C38.8128 43.6556 38.8254 43.5171 38.8725 43.388C38.9172 43.2733 38.9698 43.1619 39.0298 43.0544C39.039 43.0362 39.0532 43.021 39.0706 43.0103C39.0872 42.998 39.1067 42.9904 39.1272 42.9883C39.1469 42.9836 39.1674 42.9836 39.187 42.9883C39.2064 42.9938 39.2238 43.0048 39.2373 43.0198C39.7499 43.4856 39.3348 44.2567 38.97 44.669V44.647Z" fill="#4071B3"/>
<path d="M5.97246 17.5282C5.66433 17.5855 5.37684 17.7234 5.13916 17.9279C4.96231 18.1799 4.84019 18.4661 4.78068 18.7683C4.68949 19.083 4.62031 19.4229 4.55742 19.7534C4.05959 22.1644 3.74424 24.6095 3.61406 27.068C3.58891 27.6975 3.58262 28.327 3.61406 28.9565C3.66913 29.1545 3.7767 29.334 3.92537 29.4758C4.02627 29.5631 4.1569 29.6082 4.29014 29.6017C4.42396 29.5945 4.54948 29.5345 4.63918 29.4349C4.81317 29.2168 4.94247 28.9665 5.01967 28.6984C5.10425 28.4295 5.17458 28.1564 5.23035 27.8801C5.36242 27.2695 5.46933 26.6557 5.58568 26.042C5.77121 25.0505 5.94416 24.0591 6.13597 23.0739C6.3215 21.1162 6.49759 19.1554 6.81519 17.2197C6.54251 17.3438 6.26078 17.4469 5.97246 17.5282V17.5282Z" fill="#4071B3"/>
<path d="M11.785 10.2582C12.0927 10.2227 12.3975 10.1648 12.6969 10.0851L15.0238 9.59092L15.8571 9.41151C17.1949 9.00185 18.5613 8.69255 19.945 8.48617C22.6848 8.07361 25.4659 8.01121 28.2214 8.30047C30.998 8.58073 33.738 9.14928 36.3972 9.99693C37.5379 10.3154 38.6344 10.7754 39.6612 11.3661C39.7641 11.3945 39.8727 11.3945 39.9756 11.3661C40.0744 11.3408 40.1653 11.291 40.2398 11.2213C40.2887 11.173 40.3272 11.1151 40.353 11.0513C40.3779 10.9871 40.3907 10.9188 40.3907 10.8499C39.6331 9.39859 38.7052 8.04296 37.6267 6.81174C36.9099 5.97443 36.0876 5.23383 35.1802 4.60854C34.3202 4.03778 33.3928 3.57579 32.4193 3.23312C30.3922 2.55487 28.2833 2.15155 26.1491 2.03395C25.2615 1.96785 24.3702 1.96785 23.4826 2.03395C21.3484 2.15182 19.2396 2.55512 17.2124 3.23312C16.2379 3.57971 15.3096 4.04482 14.4484 4.61798C13.7332 5.10625 13.0732 5.67085 12.4799 6.30186L12.4013 6.41831C12.9015 5.97212 13.4309 5.55993 13.9861 5.18452C14.6803 4.72399 15.4175 4.33188 16.1873 4.01368C16.9328 3.67019 17.7257 3.441 18.5394 3.33383V3.35272C17.7124 3.70523 16.8602 3.9822 16.0584 4.38822C14.6071 5.11532 13.2896 6.0838 12.1623 7.25238C11.7724 7.66784 11.4045 8.11163 11.0554 8.54912C10.9675 8.75506 10.896 8.96765 10.8416 9.1849C10.7898 9.34009 10.78 9.50625 10.8133 9.66645C10.8472 9.82623 10.9232 9.97402 11.0334 10.0945C11.2488 10.2441 11.513 10.306 11.7724 10.2676L11.785 10.2582ZM32.8281 3.96332C33.4157 4.12843 33.973 4.38664 34.479 4.72814C34.996 5.04429 35.487 5.40107 35.9475 5.79512C36.4095 6.18722 36.8405 6.61445 37.2367 7.07298C37.4463 7.30399 37.6427 7.54673 37.8248 7.80003C37.9902 8.05228 38.1163 8.3282 38.199 8.61836C38.2304 8.71278 38.1109 8.76314 38.0449 8.70964C37.916 8.59948 37.7776 8.51135 37.6613 8.39489C37.5584 8.29146 37.4628 8.18104 37.3751 8.06441C37.1864 7.84095 37.004 7.61433 36.8028 7.39401C36.42 6.95283 36.0138 6.53256 35.5859 6.13504C35.1551 5.73217 34.6991 5.35763 34.2369 4.98938C33.7746 4.62113 33.2495 4.33472 32.8061 3.95073C32.8061 3.95073 32.8061 3.95073 32.8313 3.95073L32.8281 3.96332Z" fill="#4071B3"/>
<path d="M4.01285 20.9652L4.15121 20.1973C4.06945 20.2224 3.98769 20.2508 3.90593 20.2822C3.74069 20.3457 3.59068 20.4433 3.4657 20.5687C3.23959 20.8552 3.07476 21.1851 2.98144 21.5381C2.49726 22.9533 2.19506 24.4245 2.08211 25.9161C2.03809 26.4606 2.03809 27.0051 2.03809 27.5528C2.07475 27.5729 2.11504 27.5855 2.15662 27.5898C2.19819 27.5941 2.24021 27.5901 2.28021 27.578C2.32006 27.5665 2.35725 27.5472 2.38963 27.5213C2.42201 27.4954 2.44894 27.4633 2.46889 27.4269C2.55525 27.2867 2.62191 27.1352 2.66699 26.9768C2.72045 26.8037 2.78019 26.6275 2.8368 26.4543C2.94685 26.105 3.05691 25.7556 3.15125 25.4063C3.28332 24.9939 3.39967 24.5753 3.52545 24.1473C3.58205 23.7098 3.63865 23.2692 3.70468 22.8317C3.79588 22.2085 3.90279 21.5821 4.01285 20.9652Z" fill="#4071B3"/>
<path d="M46.424 21.5382C46.3354 21.1789 46.1726 20.8423 45.946 20.5499C45.8214 20.424 45.6713 20.3264 45.5058 20.2635C45.4272 20.232 45.3423 20.2068 45.2637 20.1816C45.3108 20.4366 45.3549 20.6947 45.3989 20.9496C45.5121 21.5791 45.619 22.2086 45.7133 22.8381C45.902 24.097 46.0278 25.3843 46.1127 26.6622V26.8101C46.1085 26.8516 46.1173 26.8934 46.1379 26.9297C46.1856 27.2209 46.2823 27.5019 46.424 27.7606C46.4862 27.8762 46.5877 27.9655 46.7102 28.0124C46.7758 28.0278 46.8445 28.0235 46.9077 28C46.9709 27.9765 47.0258 27.9348 47.0655 27.8802C47.1824 27.7267 47.2786 27.5584 47.3516 27.3798C47.3516 26.8919 47.3359 26.4072 47.3076 25.9194C47.2014 24.4303 46.9044 22.961 46.424 21.5476V21.5382Z" fill="#4071B3"/>
<path d="M42.6569 18.7344C42.5406 17.7901 42.3708 16.8774 42.1695 15.9615C41.8834 14.627 41.3519 13.1666 40.3048 12.2381C39.7721 11.7897 39.178 11.4198 38.5407 11.1396C37.4212 10.6516 36.2645 10.2538 35.0817 9.94991C32.4694 9.19342 29.785 8.71343 27.0726 8.51783C24.3827 8.31998 21.6785 8.467 19.0258 8.95533C16.4504 9.44318 13.8279 10.2552 11.5701 11.6275C9.74919 12.7068 8.27586 14.2863 7.32501 16.1787C7.14892 17.019 7.01056 17.872 6.90993 18.7344C6.77786 19.8465 6.65627 20.9575 6.54517 22.0675C6.50429 23.38 6.50743 24.6925 6.56403 26.0049C6.63712 28.2409 6.87783 30.4682 7.28413 32.668C7.66147 34.5911 8.22749 36.5834 9.39411 38.1886C9.95448 38.9806 10.6949 39.6279 11.5544 40.0771C12.4963 40.523 13.4645 40.9108 14.4537 41.2385C16.4575 42.0455 18.5384 42.6456 20.6641 43.0293C22.8342 43.3409 25.0377 43.3409 27.2078 43.0293C29.3073 42.7617 31.3785 42.3056 33.3963 41.6665C35.2831 41.0718 37.067 40.1896 38.6854 39.051C40.2041 37.9716 41.4808 36.5865 42.4336 34.9845C42.8953 34.2073 43.2546 33.3737 43.5028 32.5044C43.5562 32.3281 43.5971 32.1456 43.638 31.9662C43.7067 29.9387 43.6194 27.9089 43.377 25.8948C43.1695 23.4996 42.9431 21.1138 42.6569 18.7344ZM28.4059 41.9183C28.1742 42.1093 27.9129 42.2614 27.6324 42.3684C27.3392 42.4907 27.0299 42.5702 26.7142 42.6044C26.0726 42.6941 25.424 42.7225 24.7771 42.6894C24.128 42.6622 23.4822 42.5812 22.8464 42.4471C22.5319 42.3841 22.2364 42.296 21.9408 42.2047C21.6518 42.1298 21.3767 42.0086 21.1263 41.8459C21.1263 41.8459 21.1075 41.7987 21.1263 41.7956C21.4116 41.7641 21.6995 41.7641 21.9848 41.7956C22.2992 41.8176 22.6137 41.827 22.9281 41.8396C23.5319 41.8617 24.1388 41.8648 24.7425 41.8396C25.3463 41.8144 25.9783 41.7578 26.5947 41.7043C26.8934 41.6738 27.1938 41.6623 27.494 41.6697C27.7899 41.67 28.0845 41.707 28.3713 41.7798C28.3862 41.7828 28.4002 41.7893 28.4122 41.7987C28.4231 41.8088 28.4308 41.822 28.4342 41.8365C28.439 41.8508 28.439 41.8662 28.4342 41.8805C28.4295 41.8945 28.422 41.9073 28.4122 41.9183H28.4059ZM23.6703 41.0842C23.8339 40.9588 24.0366 40.8952 24.2426 40.9048C24.469 40.8828 24.6922 40.8797 24.9155 40.8797C25.148 40.8765 25.3804 40.8923 25.6104 40.9269C25.8245 40.9685 26.0348 41.0274 26.2393 41.1031C26.2531 41.1087 26.265 41.1183 26.2734 41.1306C26.2818 41.1429 26.2863 41.1575 26.2865 41.1724C26.2906 41.1857 26.2906 41.2 26.2865 41.2133C26.2831 41.2199 26.2782 41.2256 26.2722 41.23C26.2662 41.2344 26.2593 41.2373 26.2519 41.2385C26.0513 41.331 25.8401 41.3986 25.623 41.4399C25.3848 41.4761 25.1432 41.4856 24.9029 41.4682C24.6642 41.4561 24.4267 41.4267 24.1922 41.3801C23.9965 41.3589 23.8148 41.2685 23.6797 41.1252C23.678 41.1217 23.6772 41.118 23.6772 41.1141C23.6772 41.1103 23.678 41.1066 23.6797 41.1031C23.6783 41.0969 23.6783 41.0905 23.6797 41.0842H23.6703ZM40.6507 30.8646C40.3714 32.4413 39.7928 33.9499 38.9464 35.3087C38.1128 36.5743 36.9881 37.6212 35.6666 38.3617C34.357 39.0827 32.9269 39.5584 31.4467 39.7655C30.3014 39.9304 29.1445 40.001 27.9877 39.9763C26.9091 39.9763 25.8368 39.8567 24.7583 39.8756C23.6797 39.8945 22.5571 39.9701 21.5037 39.9763C20.3469 40.0009 19.19 39.9303 18.0447 39.7655C16.5644 39.5584 15.1344 39.0827 13.8247 38.3617C12.5082 37.6203 11.3888 36.5733 10.5607 35.3087C9.7087 33.9548 9.12574 32.449 8.84382 30.874C8.52236 29.0979 8.44197 27.2864 8.60483 25.4887C8.77417 23.5761 9.06087 21.6756 9.46329 19.7982C9.77774 18.2623 10.1802 16.6728 11.1236 15.4673C12.1204 14.2084 13.5826 13.6418 14.9819 13.2642C16.6235 12.8388 18.3039 12.5814 19.9975 12.4962C20.837 12.4427 21.6829 12.4238 22.5131 12.4175H26.9563C27.8147 12.4175 28.6449 12.4427 29.4719 12.4962C31.1707 12.5806 32.8565 12.8379 34.5031 13.2642C35.9119 13.645 37.3804 14.2084 38.3741 15.4673C39.3174 16.6728 39.7262 18.2623 40.0344 19.7982C40.4335 21.6762 40.7202 23.5765 40.8928 25.4887C41.0609 27.2861 40.9826 29.0979 40.6601 30.874L40.6507 30.8646ZM41.8582 18.961C41.855 18.9772 41.846 18.9917 41.833 19.0019C41.8199 19.0114 41.8049 19.0178 41.789 19.0208C41.7737 19.0256 41.7572 19.0256 41.7418 19.0208C41.7273 19.0129 41.7145 19.0022 41.7041 18.9893C41.459 18.4589 41.2957 17.8943 41.2199 17.3149C41.1098 16.7263 40.9714 16.1346 40.8079 15.5555C40.6379 14.9689 40.4278 14.3947 40.179 13.837C40.0697 13.5809 39.9469 13.3309 39.8111 13.0879C39.6727 12.855 39.525 12.6378 39.3772 12.4049C39.8866 12.5969 40.2042 13.1477 40.462 13.5978C40.7701 14.139 41.0412 14.7005 41.2733 15.2785C41.522 15.852 41.7208 16.4459 41.8676 17.0537C42.0499 17.6774 42.0499 18.3404 41.8676 18.9641L41.8582 18.961Z" fill="#4071B3"/>
<path d="M44.8571 19.7535C44.7942 19.4388 44.725 19.0925 44.6338 18.7684C44.5743 18.4662 44.4522 18.18 44.2753 17.928C44.0804 17.6919 43.7219 17.6416 43.4452 17.5283C43.2188 17.4527 42.9924 17.3803 42.7754 17.2891C43.137 19.5332 43.3194 21.8245 43.5395 24.1158C43.5584 24.3236 43.5804 24.5344 43.6024 24.7453C43.762 25.8139 44.0124 26.8668 44.3508 27.8927C44.485 28.3994 44.7311 28.8694 45.0709 29.2682C45.1058 29.3093 45.1472 29.3444 45.1935 29.372C45.2404 29.3972 45.2916 29.4132 45.3445 29.4192C45.3975 29.4285 45.4518 29.4285 45.5048 29.4192C45.5556 29.4036 45.6026 29.3779 45.6432 29.3437C45.7136 29.28 45.7722 29.2044 45.8161 29.1202C45.8382 28.4498 45.835 27.7794 45.8161 27.1153C45.686 24.6464 45.3706 22.1908 44.8728 19.7692L44.8571 19.7535Z" fill="#4071B3"/>
<path d="M39.9048 21.2048C39.6187 19.6311 39.3545 18.0008 38.647 16.6253C38.3149 15.969 37.8374 15.3974 37.2508 14.954C36.6638 14.5202 36.0094 14.1863 35.3138 13.9658C33.7838 13.4676 32.2007 13.1507 30.597 13.0215C28.9471 12.8794 27.2906 12.8269 25.635 12.8642H23.8709C22.2163 12.8269 20.5609 12.8794 18.912 13.0215C17.3082 13.1506 15.7252 13.4676 14.1952 13.9658C13.4967 14.1863 12.8391 14.5202 12.2487 14.954C11.675 15.4005 11.2077 15.9693 10.8809 16.619C10.145 17.9976 9.89347 19.65 9.57902 21.2017C9.20732 23.0695 8.9844 24.9639 8.91238 26.8671C8.85533 28.5386 9.04177 30.2096 9.46581 31.8274C9.84545 33.3231 10.5438 34.7189 11.5129 35.919C12.4573 37.0132 13.6409 37.8748 14.9719 38.437C16.372 39.0215 17.86 39.3672 19.3742 39.4599C20.2044 39.5229 21.0408 39.5291 21.8898 39.5134C22.3143 39.5134 22.7483 39.4914 23.1665 39.4725C24.6476 39.4158 26.1318 39.4725 27.594 39.5134C28.4304 39.5134 29.2637 39.5134 30.1096 39.4599C31.6301 39.3686 33.1246 39.0229 34.5308 38.437C35.8628 37.8767 37.0468 37.0148 37.9898 35.919C38.9596 34.7189 39.659 33.3232 40.04 31.8274C40.4631 30.2095 40.6484 28.5385 40.5903 26.8671C40.5181 24.9639 40.2952 23.0695 39.9237 21.2017L39.9048 21.2048ZM13.6417 37.2126C12.8682 37.0553 12.2613 36.4258 11.7833 35.8341C11.5447 35.5285 11.3342 35.2019 11.1544 34.8584C10.9622 34.5363 10.8291 34.1824 10.7614 33.8134C10.9878 34.0998 11.1639 34.424 11.3745 34.723C11.5913 35.0255 11.8287 35.3127 12.0852 35.5823C12.5946 36.1236 13.2267 36.5265 13.7204 37.0899C13.7236 37.1033 13.7236 37.1174 13.7204 37.1308C13.7234 37.1432 13.7234 37.1562 13.7204 37.1686C13.7136 37.1812 13.7039 37.192 13.6921 37.2C13.6797 37.2031 13.6667 37.2031 13.6543 37.2L13.6417 37.2126ZM37.471 35.7806C37.2647 36.1915 36.9519 36.5393 36.5653 36.7877C36.3755 36.9176 36.1745 37.0303 35.9647 37.1245C35.8641 37.1723 35.7587 37.2092 35.6503 37.2347C35.6 37.25 35.5484 37.2605 35.4962 37.2661C35.4429 37.2723 35.3891 37.2723 35.3358 37.2661C35.3767 37.2284 35.4113 37.1843 35.449 37.1465C35.4868 37.1088 35.5339 37.0962 35.5717 37.0679C35.666 37.0049 35.7635 36.9545 35.8578 36.8947C36.0402 36.7877 36.2226 36.6744 36.3955 36.5485C36.5685 36.4226 36.7446 36.2873 36.9112 36.152C37.0779 36.0166 37.2257 35.8655 37.4112 35.7491C37.4489 35.7208 37.4898 35.7837 37.4741 35.8246L37.471 35.7806ZM39.5652 30.3418C39.2977 31.7495 38.7537 33.09 37.9646 34.2855C37.1773 35.4204 36.1304 36.3506 34.9113 36.9986C33.6891 37.6449 32.3629 38.0711 30.9932 38.2576C29.9273 38.4023 28.8519 38.4654 27.7764 38.4464C26.7701 38.4464 25.7733 38.3394 24.7702 38.3552C23.7671 38.3709 22.7326 38.437 21.7358 38.4464C20.6623 38.4655 19.589 38.4023 18.5252 38.2576C17.1476 38.0707 15.8132 37.6447 14.582 36.9986C13.3679 36.3496 12.3256 35.4207 11.5412 34.2887C10.7527 33.0943 10.2096 31.7547 9.94378 30.3481C9.6371 28.7687 9.55663 27.1536 9.7048 25.5514C9.87156 23.849 10.1446 22.1587 10.5224 20.4904C10.579 20.204 10.6387 19.9396 10.7079 19.6657C10.7016 19.641 10.7016 19.615 10.7079 19.5902C10.7141 19.5642 10.7272 19.5403 10.7456 19.521C10.9747 18.4758 11.4262 17.4925 12.0695 16.6379C12.9908 15.5143 14.3587 15.017 15.67 14.6771C17.203 14.2991 18.7689 14.0704 20.3459 13.9941C21.1289 13.9469 21.9181 13.928 22.698 13.9248H26.811C27.594 13.9248 28.3833 13.9469 29.1663 13.9941C30.7478 14.0707 32.318 14.3016 33.8548 14.6834C35.166 15.0201 36.5339 15.5206 37.4584 16.6442C38.3326 17.7143 38.7162 19.1307 39.0055 20.4998C39.3696 22.1607 39.631 23.8426 39.7885 25.5357C39.9456 27.1387 39.8736 28.756 39.5746 30.3387L39.5652 30.3418Z" fill="#FE5D00"/>
<path d="M40.0515 19.7889C39.737 18.253 39.3314 16.6635 38.388 15.4581C37.3975 14.1991 35.929 13.6326 34.5203 13.2549C32.8735 12.8288 31.1878 12.5715 29.489 12.4869C28.6494 12.4334 27.8035 12.4145 26.9734 12.4082H22.5428C21.6843 12.4082 20.8541 12.4334 20.0271 12.4869C18.3284 12.572 16.6427 12.8293 14.9959 13.2549C13.584 13.6357 12.1155 14.1991 11.1281 15.4581C10.1848 16.6635 9.77284 18.253 9.46467 19.7889C9.06532 21.6669 8.77865 23.5672 8.60622 25.4795C8.44291 27.2783 8.52436 29.091 8.84835 30.8679C9.12682 32.4443 9.70658 33.9522 10.5558 35.3089C11.3883 36.5776 12.5159 37.6252 13.8419 38.3619C15.156 39.0809 16.5905 39.5534 18.0744 39.7562C19.2197 39.9211 20.3765 39.9916 21.5334 39.9671C22.6025 39.9671 23.7062 39.8852 24.7879 39.8663C25.8697 39.8475 26.9388 39.9608 28.0174 39.9671C29.1742 39.9914 30.331 39.9209 31.4764 39.7562C32.9522 39.5475 34.3779 39.0718 35.6837 38.3524C37.006 37.6131 38.1309 36.5659 38.9635 35.2994C39.8113 33.9445 40.3939 32.4406 40.6804 30.8679C41.0033 29.0908 41.0837 27.2781 40.9194 25.4795C40.7488 23.5673 40.4642 21.6671 40.0672 19.7889H40.0515ZM40.0295 31.8278C39.6497 33.3241 38.9502 34.7201 37.9792 35.9195C37.0365 37.0155 35.8524 37.8774 34.5203 38.4374C33.1201 39.0219 31.6321 39.3677 30.1179 39.4603C29.2815 39.5233 28.4482 39.5296 27.6023 39.5138C26.1369 39.4855 24.6559 39.4163 23.1748 39.4729C22.7471 39.4918 22.3163 39.5044 21.895 39.5138C21.0617 39.5138 20.2284 39.5138 19.3794 39.4603C17.8652 39.3673 16.3773 39.0216 14.977 38.4374C13.6447 37.8776 12.4606 37.0156 11.518 35.9195C10.5482 34.7193 9.84885 33.3236 9.46782 31.8278C9.04328 30.2102 8.85788 28.539 8.91753 26.8675C8.9899 24.9644 9.21281 23.07 9.58417 21.2021C9.87032 19.6284 10.1345 18.0012 10.8577 16.6226C11.1848 15.9712 11.6532 15.4013 12.2287 14.9545C12.8157 14.5207 13.4702 14.1868 14.1657 13.9662C15.6957 13.468 17.2788 13.1511 18.8825 13.022C20.5314 12.8798 22.1868 12.8273 23.8414 12.8646H25.6212C27.2769 12.8273 28.9333 12.8798 30.5833 13.022C32.187 13.1511 33.7701 13.468 35.3001 13.9662C35.9996 14.1867 36.6582 14.5205 37.2497 14.9545C37.824 15.3996 38.2905 15.9688 38.6144 16.6195C39.3408 18.0075 39.6018 19.6504 39.8722 21.2021C40.2439 23.0699 40.4668 24.9643 40.5389 26.8675C40.5985 28.541 40.4132 30.2143 39.9886 31.8341L40.0295 31.8278Z" fill="#1C2233"/>
<path d="M47.2324 23.2819C47.0617 22.5198 46.8369 21.7709 46.5595 21.0409C46.4983 20.7834 46.3682 20.5475 46.1832 20.3584C45.9981 20.1693 45.7651 20.0342 45.5092 19.9676L45.2545 19.9078H45.2105C45.157 19.6214 45.1004 19.3633 45.0375 19.0895C44.9696 18.7859 44.8814 18.4873 44.7734 18.1956C44.6923 17.934 44.5304 17.7048 44.3111 17.541C44.1877 17.4621 44.0545 17.3997 43.9149 17.3553C43.9275 17.3359 43.9371 17.3146 43.9432 17.2923C43.9479 17.2684 43.9479 17.2438 43.9432 17.2199C43.524 14.6495 43.1906 12.0624 42.9433 9.45838C42.8804 8.79323 42.8259 8.12492 42.7798 7.45347C42.905 7.42171 43.0193 7.35669 43.1106 7.26528C43.2019 7.17387 43.2669 7.05946 43.2986 6.93415C43.3877 6.50929 43.3951 6.07135 43.3206 5.6437C43.2923 5.19992 43.2514 4.75613 43.1854 4.31549C43.1571 3.95015 43.06 3.59346 42.8992 3.26425C42.8155 3.12001 42.6951 3.00055 42.5502 2.91803C42.4061 2.83661 42.244 2.79227 42.0785 2.78899C41.7415 2.74774 41.4001 2.81149 41.1006 2.97154C40.9713 3.07858 40.8714 3.21682 40.8104 3.37322C40.7493 3.52961 40.7291 3.699 40.7515 3.86541C40.7515 4.30919 40.7798 4.75613 40.8207 5.19992C40.843 5.66606 40.9211 6.12785 41.0534 6.57534C41.1188 6.7911 41.2669 6.97216 41.4653 7.07893V7.07893C41.5597 9.43006 41.7358 11.8001 42.0376 14.1197C41.6686 12.9178 41.1897 11.7525 40.6069 10.6387C39.6007 8.66542 38.2577 6.88339 36.6385 5.37302C35.0269 3.97715 33.1024 2.99135 31.0287 2.49942C29.0759 1.99701 27.0702 1.72968 25.0541 1.70312H24.5384C22.5118 1.72823 20.4955 1.99556 18.5323 2.49942C16.4565 3.00219 14.5329 3.99996 12.9256 5.40765C11.3081 6.9143 9.96432 8.69065 8.95409 10.6576C7.93346 12.6019 7.22664 14.6956 6.85984 16.8611C6.85636 16.8993 6.85005 16.9372 6.84097 16.9744C6.5374 17.0241 6.23937 17.1032 5.95107 17.2105C5.65323 17.2802 5.36496 17.3859 5.09261 17.5252C4.87255 17.6877 4.71138 17.9175 4.63351 18.1799C4.52444 18.4715 4.43514 18.7701 4.36623 19.0738C4.30334 19.3602 4.24988 19.6214 4.19328 19.8921H4.15554L3.89455 19.9519C3.72945 19.9991 3.57251 20.0713 3.42916 20.1659C3.15023 20.385 2.94592 20.6852 2.84428 21.0252C2.56832 21.7556 2.34347 22.5044 2.17135 23.2661C1.89017 24.4921 1.73944 25.7444 1.72168 27.0021V27.9715C1.73128 28.1837 1.76076 28.3944 1.80973 28.601C1.86077 28.7997 1.97033 28.9785 2.12418 29.1141C2.28141 29.2494 2.4575 29.3659 2.62416 29.4855C2.79082 29.6051 3.01408 29.7719 3.21533 29.9072C3.2458 29.9183 3.27919 29.9183 3.30967 29.9072C3.30967 30.0929 3.33797 30.2755 3.35369 30.4612C3.38513 30.7759 3.41972 31.0906 3.46689 31.4054C3.47061 31.7086 3.5553 32.0052 3.71216 32.2646C3.90468 32.4545 4.13213 32.6052 4.38195 32.7084L5.2404 33.1522C5.38558 33.23 5.53461 33.3004 5.68693 33.3631H5.73409C5.92045 34.738 6.34616 36.0696 6.99191 37.2974C7.88346 38.8774 9.11689 40.2378 10.6018 41.2789C10.2623 41.7989 10.0352 42.3842 9.93518 42.9973V42.9973C9.72054 43.0776 9.53408 43.2191 9.39885 43.4042C9.26361 43.5893 9.18552 43.8101 9.17421 44.0392C9.17529 44.3151 9.23436 44.5877 9.34758 44.8393C9.46081 45.0909 9.62566 45.3159 9.83141 45.4996C10.2702 45.9268 10.7494 46.3105 11.2622 46.6452C11.7749 47.0052 12.3106 47.3311 12.8659 47.6209C15.2243 48.861 17.8468 49.4842 20.4788 49.7926C21.8749 49.9595 23.2837 50.0444 24.6893 50.0791C26.0289 50.1168 27.3716 50.1105 28.7111 50.0193C31.3714 49.8898 33.9923 49.323 36.4687 48.3417C37.5883 47.9103 38.6277 47.2943 39.544 46.5193C40.0053 46.1386 40.3932 45.6767 40.6886 45.1565C40.9434 44.656 40.9748 44.0266 40.4968 43.6457C40.393 43.5587 40.2684 43.5002 40.1352 43.4758C40.1879 42.5386 40.0288 41.6015 39.6698 40.7344C40.8219 39.835 41.785 38.7166 42.5038 37.4435C43.2226 36.1704 43.6829 34.7676 43.8583 33.3159C43.9684 33.2687 44.0753 33.2152 44.1728 33.1585L45.0312 32.7147C45.2828 32.6131 45.5116 32.4622 45.7042 32.2709C45.8619 32.0119 45.9466 31.715 45.9494 31.4117C45.9935 31.0969 46.0312 30.7822 46.0595 30.4674C46.0784 30.2817 46.0909 30.0992 46.1067 29.9135C46.1394 29.92 46.1733 29.9132 46.201 29.8946C46.3991 29.7561 46.5941 29.6082 46.789 29.4729C46.9623 29.3583 47.1292 29.2343 47.289 29.1015C47.4266 28.9666 47.5226 28.7951 47.5657 28.6073C47.605 28.3998 47.625 28.1891 47.6255 27.9778C47.6984 26.3925 47.5577 24.8045 47.2072 23.2567L47.2324 23.2819ZM41.4528 6.49665C41.4066 6.41154 41.3667 6.32318 41.3333 6.23227C41.2924 5.94585 41.2641 5.67518 41.2421 5.40135C41.2169 5.06772 41.1855 4.73095 41.1698 4.40047C41.1257 4.09901 41.1352 3.79212 41.1981 3.49401C41.2892 3.22963 41.6037 3.20759 41.8458 3.20759C42.088 3.20759 42.4181 3.20759 42.5754 3.49401C42.6883 3.73811 42.7575 4.00019 42.7798 4.26828C42.8364 4.61135 42.8741 4.95756 42.9024 5.30378C42.9496 5.87661 43.1131 6.56275 42.5408 6.96562C42.4608 7.01867 42.369 7.05111 42.2735 7.06004L41.9873 7.02542L41.9402 7.00654C41.7198 6.9034 41.546 6.72153 41.4528 6.49665V6.49665ZM41.9024 9.32934C41.8741 8.9422 41.8458 8.55822 41.8207 8.18367C41.8044 8.04808 41.8118 7.91068 41.8427 7.77766C41.9339 7.49124 42.2389 7.46291 42.4905 7.40626C42.7169 10.4928 43.0575 13.571 43.5124 16.6408C42.7986 16.0113 42.5691 15.0671 42.3395 14.1701C42.154 12.5617 42.0188 10.944 41.9024 9.33878V9.32934ZM10.8691 9.18456C10.9141 8.96977 10.9772 8.75919 11.0578 8.55507C11.4068 8.10499 11.7747 7.67379 12.1678 7.25833C13.2934 6.08912 14.6099 5.12053 16.0607 4.39417C16.8626 3.98501 17.7147 3.71118 18.5417 3.35867V3.33979C17.7273 3.44465 16.9333 3.67171 16.1865 4.01334C15.4167 4.33154 14.6795 4.72365 13.9853 5.18418C13.4193 5.55843 12.8793 5.97063 12.369 6.41797L12.4477 6.30151C13.0355 5.67089 13.6903 5.10627 14.4004 4.61764C15.2618 4.04833 16.1888 3.58544 17.1613 3.23907C19.1891 2.56389 21.2977 2.16169 23.4315 2.04305C24.3191 1.97695 25.2104 1.97695 26.098 2.04305C28.2382 2.16003 30.3532 2.56225 32.3871 3.23907C34.4138 3.93946 36.2133 5.1761 37.5944 6.81769C38.6738 8.04876 39.6007 9.40566 40.3553 10.859C40.3582 10.9268 40.3464 10.9944 40.3207 11.0573C40.2954 11.1213 40.2568 11.1792 40.2075 11.2272C40.1329 11.2991 40.0408 11.3501 39.9402 11.3752C39.8371 11.4018 39.7289 11.4018 39.6258 11.3752C38.5996 10.7834 37.5029 10.3234 36.3618 10.006C33.7024 9.15874 30.9625 8.58917 28.186 8.30642C25.4313 8.01976 22.6515 8.08321 19.9128 8.49527C18.5292 8.70073 17.1628 9.00898 15.8249 9.41746L14.9916 9.60002L12.6678 10.0847C12.3642 10.1626 12.0551 10.2173 11.7433 10.2484C11.4892 10.2869 11.23 10.2285 11.0169 10.0847C10.9213 9.95902 10.8605 9.81027 10.8408 9.65352C10.8078 9.4975 10.8176 9.33547 10.8691 9.18456V9.18456ZM3.14301 25.4001C3.03609 25.7495 2.92603 26.0988 2.82855 26.4482L2.65875 26.9707C2.61886 27.1358 2.55418 27.2939 2.46693 27.4396C2.44699 27.476 2.42005 27.5081 2.38767 27.534C2.35529 27.56 2.31811 27.5792 2.27826 27.5907C2.23826 27.6028 2.19624 27.6068 2.15466 27.6025C2.11309 27.5982 2.07279 27.5856 2.03613 27.5655C2.03613 27.0179 2.03613 26.4734 2.08016 25.9289C2.19204 24.433 2.49426 22.9575 2.97949 21.5382C3.06805 21.179 3.23087 20.8423 3.45746 20.5499C3.58244 20.4245 3.73245 20.3269 3.89769 20.2635C3.97945 20.232 4.06121 20.2068 4.14296 20.1817L4.00461 20.9654C3.8914 21.5949 3.78763 22.2243 3.69015 22.8538C3.62412 23.2913 3.56752 23.732 3.51091 24.1695C3.38199 24.5723 3.26879 24.9909 3.13672 25.4032L3.14301 25.4001ZM5.56429 26.0296C5.45109 26.6433 5.34103 27.2571 5.20896 27.8677C5.15319 28.144 5.08286 28.4171 4.99828 28.686C4.92271 28.959 4.79452 29.2145 4.62093 29.4382C4.52965 29.5358 4.40504 29.5953 4.27189 29.6051C4.13701 29.6126 4.00467 29.5662 3.90398 29.476C3.75639 29.3441 3.64765 29.1743 3.58953 28.985C3.56752 28.3555 3.57381 27.726 3.58953 27.0966C3.71968 24.6381 4.03503 22.1929 4.53289 19.7819C4.59892 19.4483 4.66496 19.121 4.75615 18.7968C4.81799 18.4944 4.93989 18.2076 5.11462 17.9533C5.31273 17.7204 5.6712 17.6669 5.94792 17.5567C6.24102 17.4718 6.52786 17.3667 6.80638 17.242C6.49193 19.1776 6.30954 21.1385 6.12716 23.0962C5.9322 24.0719 5.75925 25.0633 5.57372 26.0516L5.56429 26.0296ZM40.0849 43.8314C40.1672 43.8566 40.244 43.8972 40.3113 43.951C40.3774 44.0046 40.4319 44.0709 40.4717 44.1462C40.5302 44.2745 40.5592 44.4143 40.5566 44.5553C40.5527 44.6971 40.5161 44.8361 40.4497 44.9613C40.1945 45.4707 39.8369 45.9219 39.3994 46.2864C38.5501 47.0258 37.5828 47.6174 36.5379 48.0364C34.2328 48.9826 31.7909 49.5522 29.3055 49.7234C26.7757 49.9118 24.2346 49.8907 21.7083 49.6605C20.5236 49.5599 19.3456 49.3918 18.1801 49.1569L17.7839 49.0121L16.1865 48.4518C15.3324 48.1876 14.5163 47.8131 13.7589 47.3377C13.4357 47.1153 13.1466 46.847 12.9005 46.5414L12.9822 46.5854C15.1834 47.7279 17.699 48.1591 20.1612 48.263C21.5353 48.3291 22.9095 48.3008 24.2837 48.263C25.6578 48.2252 27.0131 48.2158 28.3715 48.1371C31.0534 48.0323 33.7081 47.5589 36.2612 46.7302C36.8901 46.5204 37.5001 46.2812 38.0913 46.0126C38.6258 45.7797 39.217 45.5468 39.5912 45.0684C39.8649 44.7005 40.0344 44.2656 40.0818 43.8094L40.0849 43.8314ZM39.7987 42.6637C39.8931 43.7748 39.6006 44.9834 38.5189 45.4964C37.9521 45.776 37.3694 46.0219 36.7737 46.2329C34.3543 47.102 31.824 47.6233 29.2583 47.7814C28.7677 47.8161 28.2803 47.8444 27.7898 47.8664L27.098 47.8444C26.4094 47.8129 25.7207 47.7751 25.032 47.7153C23.6504 47.6087 22.2818 47.3727 20.9442 47.0103L20.4002 46.8435C20.2318 46.7961 20.0668 46.7372 19.9065 46.6672C19.7775 46.6012 19.6203 46.4878 19.6203 46.3242C19.6203 46.1605 19.7115 46.0378 19.8624 46.0661H19.8813H19.9002C19.9053 46.0674 19.9108 46.0674 19.9159 46.0661V46.0472C19.9174 46.041 19.9174 46.0345 19.9159 46.0283V46.0094C19.917 46.0042 19.917 45.9989 19.9159 45.9937C19.5008 45.866 19.115 45.6574 18.7807 45.38C18.7021 45.317 18.6015 45.232 18.6078 45.125C18.6141 45.018 18.699 44.9834 18.7776 44.9582C18.9769 44.9078 19.1822 44.8855 19.3876 44.8921C20.3121 44.8386 21.2429 44.8134 22.1705 44.7977C24.0352 44.7693 25.9062 44.7977 27.7678 44.6623C28.7953 44.6127 29.8178 44.4886 30.8274 44.2909C33.604 43.9605 36.3398 43.117 38.6667 41.5307L38.7233 41.4929C38.7453 41.5653 38.7736 41.6345 38.8019 41.7038V41.7321V41.7636C38.8183 41.8117 38.8394 41.858 38.8648 41.902C38.8959 41.973 38.9421 42.0364 39 42.0877C39.0252 42.0877 39.0818 42.1413 39.1101 42.1255C39.2453 42.0594 39.2705 41.8895 39.2768 41.7541C39.2808 41.5913 39.2596 41.4289 39.2139 41.2726C39.2139 41.2316 39.1887 41.1876 39.173 41.1435L39.3805 40.9893C39.5937 41.5278 39.7302 42.0935 39.7862 42.67L39.7987 42.6637ZM43.6476 31.9625C43.6099 32.1419 43.5659 32.3244 43.5156 32.5007C43.2647 33.3691 42.9055 34.2024 42.4464 34.9809C41.488 36.579 40.2084 37.9605 38.6887 39.0379C37.0696 40.1743 35.2858 41.0554 33.3996 41.6503C31.3867 42.2921 29.3195 42.7493 27.2238 43.0162C25.0536 43.3278 22.8502 43.3278 20.68 43.0162C18.5449 42.7015 16.4884 41.9807 14.4696 41.2285C13.4812 40.9003 12.514 40.5114 11.5735 40.064C10.7123 39.616 9.97058 38.9685 9.41005 38.1755C8.24028 36.5672 7.68056 34.5748 7.30007 32.6518C6.8938 30.4551 6.65309 28.2309 6.57997 25.9981C6.52337 24.6856 6.52023 23.3732 6.5611 22.0607C6.67431 20.9465 6.7938 19.8354 6.92587 18.7276C7.02964 17.8683 7.16485 17.0122 7.34095 16.1718C8.29157 14.2838 9.76249 12.7078 11.5798 11.6301C13.8375 10.2578 16.4412 9.44579 19.0354 8.95794C21.6882 8.46972 24.3923 8.3227 27.0823 8.52045C29.7947 8.71604 32.4791 9.19603 35.0914 9.95253C36.2742 10.2564 37.4308 10.6542 38.5504 11.1423C39.1877 11.4224 39.7817 11.7923 40.3144 12.2407C41.3616 13.1849 41.8867 14.639 42.1792 15.9641C42.3804 16.88 42.5502 17.8054 42.6666 18.737C42.9527 21.1164 43.1791 23.5022 43.3992 25.8942C43.6424 27.9051 43.7286 29.9319 43.6571 31.9562L43.6476 31.9625ZM45.8299 29.0983C45.7849 29.1818 45.7264 29.2572 45.657 29.3218C45.6157 29.3567 45.5675 29.3824 45.5155 29.3973C45.4648 29.4136 45.4112 29.419 45.3583 29.4131C45.3054 29.407 45.2542 29.391 45.2073 29.3658C45.1596 29.3402 45.1179 29.3048 45.0847 29.262C44.7449 28.8644 44.4988 28.3954 44.3646 27.8897C44.0245 26.8642 43.7741 25.8111 43.6162 24.7423C43.5942 24.5345 43.5722 24.3205 43.5533 24.1128C43.3332 21.8435 43.1508 19.5553 42.7892 17.3018C43.0062 17.393 43.2326 17.4654 43.459 17.541C43.7659 17.5991 44.0522 17.737 44.2891 17.9407C44.466 18.1927 44.5881 18.4789 44.6476 18.7811C44.7388 19.0958 44.808 19.4357 44.8709 19.7662C45.3735 22.177 45.6951 24.622 45.8331 27.0808C45.8603 27.7481 45.8603 28.4185 45.8331 29.092L45.8299 29.0983ZM47.072 27.896C47.0321 27.9501 46.9775 27.9916 46.9148 28.0156C46.8512 28.0345 46.7835 28.0345 46.7198 28.0156C46.5968 27.9697 46.4949 27.8801 46.4337 27.7638C46.2915 27.5052 46.1948 27.2242 46.1475 26.9329C46.1423 26.8922 46.1328 26.8521 46.1192 26.8133C46.1161 26.7661 46.1161 26.7188 46.1192 26.6717C46.0532 25.3907 45.9086 24.1128 45.7199 22.8475C45.6255 22.218 45.5186 21.5886 45.4054 20.9591C45.3583 20.7041 45.3174 20.446 45.2671 20.1911C45.3488 20.2163 45.4306 20.2446 45.5123 20.2761C45.6776 20.3395 45.8276 20.4371 45.9526 20.5625C46.1755 20.8497 46.3371 21.1796 46.4274 21.5319C46.9132 22.9456 47.2155 24.416 47.3267 25.9068C47.3613 26.3947 47.3771 26.8794 47.3708 27.3672C47.298 27.5476 47.2006 27.7171 47.0815 27.8708L47.072 27.896Z" fill="#1C2233"/>
<path d="M34.2337 5.00805C34.7025 5.3656 35.1517 5.74804 35.5796 6.15372C36.0102 6.55049 36.4186 6.97079 36.8028 7.41269C36.9946 7.63301 37.177 7.85962 37.3751 8.08309C37.464 8.19373 37.5596 8.29884 37.6613 8.39783C37.7776 8.51429 37.916 8.60556 38.0449 8.71257C38.1109 8.76923 38.2304 8.71257 38.199 8.6213C38.1166 8.33004 37.9905 8.05304 37.8248 7.79982C37.6471 7.54543 37.4561 7.30064 37.2525 7.06647C36.8505 6.61112 36.4165 6.18513 35.9538 5.79176C35.494 5.39773 35.0029 5.04193 34.4853 4.72793C33.9787 4.38672 33.4216 4.12755 32.8344 3.95996C32.8344 3.95996 32.8093 3.95996 32.8344 3.98199C33.2464 4.35968 33.7683 4.6461 34.2337 5.00805Z" fill="#1C2233"/>
<path d="M41.3141 15.2744C41.0821 14.6954 40.8111 14.1328 40.5028 13.5906C40.245 13.1405 39.9305 12.5865 39.418 12.3945C39.418 12.3945 39.418 12.3945 39.418 12.4103C39.5532 12.64 39.7041 12.8604 39.8519 13.0901C39.9889 13.3335 40.1118 13.5847 40.2198 13.8423C40.4672 14.3996 40.6773 14.9726 40.8487 15.5577C41.0091 16.1305 41.1349 16.7285 41.2575 17.3203C41.333 17.8988 41.4963 18.4624 41.7418 18.9915C41.753 19.0003 41.7658 19.0067 41.7795 19.0104C41.7917 19.015 41.8051 19.015 41.8172 19.0104C41.8298 19.0122 41.8425 19.0122 41.855 19.0104C41.8641 19.0001 41.8715 18.9884 41.877 18.9758C42.0538 18.3588 42.0538 17.7044 41.877 17.0873C41.7432 16.4779 41.558 15.8809 41.3235 15.3028L41.3141 15.2744Z" fill="#1C2233"/>
<path d="M12.0951 35.5667C11.8382 35.2984 11.6017 35.0112 11.3876 34.7075C11.1738 34.421 11.0008 34.078 10.7744 33.7979C10.8352 34.1664 10.9631 34.5205 11.1518 34.8428C11.3303 35.1871 11.5409 35.5138 11.7807 35.8185C12.2586 36.4134 12.8687 37.0428 13.6422 37.2002C13.6587 37.2048 13.6761 37.2048 13.6925 37.2002C13.7099 37.1941 13.7245 37.1818 13.7334 37.1656C13.7377 37.1491 13.7377 37.1318 13.7334 37.1152C13.7314 37.0966 13.7237 37.079 13.7114 37.0649C13.2397 36.5109 12.5982 36.1049 12.0951 35.5667Z" fill="#1C2233"/>
<path d="M37.4064 35.7139C37.2335 35.8429 37.0731 35.9845 36.9065 36.1199C36.7398 36.2552 36.5637 36.3874 36.3908 36.5165C36.2176 36.641 36.0381 36.7566 35.853 36.8627C35.7587 36.9193 35.6581 36.9728 35.5669 37.0358C35.5292 37.0641 35.482 37.0861 35.4443 37.1145C35.4065 37.1428 35.3719 37.1963 35.3311 37.2341C35.3845 37.2341 35.4411 37.2341 35.4914 37.2341C35.5437 37.2284 35.5952 37.2179 35.6455 37.2026C35.7539 37.1771 35.8593 37.1402 35.96 37.0924C36.1705 36.9984 36.3716 36.8846 36.5606 36.7525C36.947 36.5053 37.2599 36.1585 37.4662 35.7485C37.4913 35.7453 37.4505 35.6824 37.4064 35.7139Z" fill="#1C2233"/>
<path d="M28.3672 41.7735C28.0804 41.7007 27.7857 41.6637 27.4899 41.6633C27.1897 41.6559 26.8893 41.6675 26.5905 41.6979C25.9616 41.7514 25.3579 41.8081 24.7384 41.8333C24.1189 41.8584 23.5278 41.8521 22.924 41.8333C22.6096 41.8333 22.2951 41.8112 21.9807 41.7892C21.6954 41.7577 21.4075 41.7577 21.1222 41.7892C21.097 41.7892 21.1002 41.827 21.1222 41.8395C21.3733 42.001 21.6481 42.122 21.9366 42.1984C22.2341 42.2947 22.5364 42.3756 22.8423 42.4407C23.4779 42.5769 24.1237 42.66 24.773 42.6893C25.4198 42.7235 26.0684 42.6961 26.71 42.6075C27.0258 42.5732 27.335 42.4937 27.6282 42.3715C27.9111 42.2619 28.1753 42.109 28.4112 41.9182C28.4241 41.9074 28.4339 41.8932 28.4395 41.8773C28.4441 41.8619 28.4441 41.8455 28.4395 41.8301C28.4347 41.8138 28.4248 41.7994 28.4112 41.7892C28.3974 41.779 28.3811 41.7725 28.364 41.7703L28.3672 41.7735Z" fill="#1C2233"/>
<path d="M24.178 41.3794C24.4124 41.4261 24.6499 41.4556 24.8886 41.4675C25.1289 41.4864 25.3706 41.4768 25.6087 41.4392C25.8258 41.3979 26.037 41.3302 26.2376 41.2377C26.252 41.2342 26.2644 41.2251 26.2722 41.2125C26.2805 41.2005 26.2849 41.1862 26.2849 41.1716C26.2849 41.157 26.2805 41.1428 26.2722 41.1307C26.2644 41.1181 26.252 41.1091 26.2376 41.1055C26.0335 41.0278 25.8231 40.9678 25.6087 40.9261C25.3777 40.8916 25.1442 40.8758 24.9106 40.8789C24.6871 40.8749 24.4635 40.8833 24.2409 40.9041C24.0351 40.8956 23.8327 40.959 23.6686 41.0835C23.6669 41.0869 23.666 41.0907 23.666 41.0945C23.666 41.0983 23.6669 41.1021 23.6686 41.1055C23.6672 41.1085 23.6664 41.1117 23.6664 41.115C23.6664 41.1182 23.6672 41.1215 23.6686 41.1244C23.8028 41.2671 23.9834 41.3574 24.178 41.3794V41.3794Z" fill="#1C2233"/>
<path d="M39.026 43.0356C38.9654 43.1428 38.9129 43.2543 38.8688 43.3693C38.8216 43.4983 38.809 43.6368 38.7556 43.7658C38.6614 43.9939 38.5149 44.1966 38.3279 44.3575C37.8729 44.7053 37.3612 44.9715 36.8154 45.1444C36.2211 45.3805 35.6236 45.6039 35.0167 45.8022C34.4098 46.0005 33.7589 46.1484 33.1709 46.375C33.8802 46.4162 34.5918 46.3558 35.284 46.1956C35.9784 46.0679 36.6595 45.8762 37.3185 45.6228C37.9376 45.4226 38.5017 45.0811 38.9663 44.6251C39.331 44.2128 39.7461 43.4448 39.2304 42.9853C39.2161 42.9713 39.1989 42.9605 39.1801 42.9538C39.1615 42.949 39.142 42.949 39.1235 42.9538C39.1038 42.9572 39.0847 42.9636 39.0669 42.9727C39.0459 42.9878 39.0313 43.0103 39.026 43.0356V43.0356Z" fill="#1C2233"/>
<path d="M42.2234 6.52838C42.1668 6.50635 42.1102 6.48432 42.0536 6.45599C41.9981 6.41934 41.9492 6.37358 41.9089 6.32065C41.8207 6.20441 41.7517 6.07477 41.7045 5.93666C41.6448 5.7667 41.6039 5.59674 41.5567 5.42049C41.5316 5.32921 41.5096 5.23479 41.4875 5.13407C41.4674 5.03601 41.4379 4.94011 41.3995 4.84766C41.3741 4.91526 41.3592 4.98639 41.3555 5.05853V5.31662C41.3618 5.47941 41.3807 5.64147 41.4121 5.80133C41.4431 6.10584 41.5761 6.39092 41.7894 6.61021C41.8949 6.71231 42.0306 6.77746 42.1762 6.79591C42.2041 6.79063 42.2296 6.77625 42.2485 6.75499C42.2694 6.73021 42.2815 6.69924 42.2831 6.66687C42.2911 6.6391 42.2911 6.60965 42.2831 6.58189C42.2705 6.55514 42.251 6.5323 42.2265 6.51579L42.2234 6.52838Z" fill="#1C2233"/>
<path d="M42.6545 18.7338C42.5382 17.7895 42.3684 16.8768 42.1671 15.9609C41.881 14.6264 41.3495 13.166 40.3024 12.2375C39.7697 11.7891 39.1756 11.4192 38.5383 11.139C38.1563 10.9527 37.7623 10.7919 37.3591 10.6575C37.5722 10.902 37.7329 11.1876 37.8313 11.4967C37.9298 11.8058 37.9638 12.1318 37.9314 12.4546C37.859 12.7984 37.7095 13.1213 37.4943 13.3989C37.2794 13.6805 37.0015 13.908 36.6831 14.063C37.3483 14.4093 37.9332 14.8919 38.4 15.4793C39.3433 16.6848 39.7521 18.2742 40.0603 19.8133C40.4594 21.6903 40.7461 23.5895 40.9187 25.5007C41.0846 27.2994 41.0042 29.1123 40.6798 30.8891C40.3943 32.4582 39.8115 33.9582 38.9628 35.3081C38.1294 36.5749 37.0034 37.6221 35.68 38.3611C34.3699 39.0811 32.94 39.5567 31.46 39.7649C30.3147 39.9296 29.1578 40.0001 28.001 39.9757C26.9225 39.9757 25.8533 39.8561 24.7716 39.875C23.6899 39.8939 22.5704 39.9663 21.5202 39.9757C20.3633 40.0005 19.2064 39.9299 18.0612 39.7649C16.5726 39.5579 15.1348 39.0789 13.8192 38.3517C12.5049 37.6125 11.3867 36.5688 10.5583 35.3081C9.7069 33.955 9.12397 32.4504 8.84143 30.8765C8.52007 29.0993 8.43969 27.2869 8.60245 25.4881C8.77179 23.5755 9.05848 21.675 9.4609 19.7976C9.77536 18.2616 10.1779 16.6722 11.1212 15.4667C12.118 14.2078 13.5802 13.6412 14.9795 13.2635C15.36 13.1628 15.7468 13.0652 16.1367 12.9771C15.9157 12.8889 15.7243 12.7397 15.5846 12.547C15.4449 12.3542 15.3626 12.1258 15.3475 11.8881C15.3475 11.3656 15.7059 10.9187 16.0833 10.563C16.678 10.0014 17.3466 9.5238 18.0706 9.14355C15.7875 9.61039 13.5954 10.4459 11.5803 11.6174C9.75583 12.6984 8.28013 14.2815 7.32892 16.178C7.15282 17.0184 7.01446 17.8714 6.91384 18.7338C6.78177 19.8458 6.66018 20.9569 6.54907 22.0669C6.50819 23.3794 6.51134 24.6918 6.56794 26.0043C6.64103 28.2403 6.88174 30.4675 7.28804 32.6674C7.66538 34.5905 8.23139 36.5828 9.39801 38.188C9.95838 38.98 10.6988 39.6273 11.5583 40.0764C12.5002 40.5224 13.4684 40.9102 14.4576 41.2378C16.4614 42.0449 18.5423 42.645 20.668 43.0287C22.8381 43.3403 25.0416 43.3403 27.2117 43.0287C29.3112 42.7611 31.3824 42.305 33.4002 41.6659C35.287 41.0712 37.0709 40.189 38.6893 39.0504C40.208 37.971 41.4847 36.5859 42.4375 34.9839C42.8992 34.2067 43.2585 33.3731 43.5067 32.5037C43.5601 32.3275 43.601 32.1449 43.6419 31.9655C43.7106 29.938 43.6233 27.9083 43.3809 25.8942C43.1671 23.499 42.9407 21.1132 42.6545 18.7338ZM23.6679 41.0805C23.8315 40.955 24.0342 40.8915 24.2402 40.9011C24.4666 40.879 24.6898 40.8759 24.9131 40.8759C25.1456 40.8727 25.3781 40.8885 25.608 40.9231C25.8221 40.9647 26.0324 41.0237 26.2369 41.0994C26.2508 41.105 26.2626 41.1145 26.271 41.1268C26.2794 41.1392 26.284 41.1537 26.2841 41.1686C26.2882 41.1819 26.2882 41.1962 26.2841 41.2095C26.2807 41.2162 26.2758 41.2219 26.2698 41.2263C26.2638 41.2306 26.2569 41.2335 26.2495 41.2347C26.0489 41.3272 25.8377 41.3949 25.6206 41.4361C25.3825 41.4739 25.1408 41.4834 24.9005 41.4645C24.6618 41.4524 24.4243 41.4229 24.1899 41.3763C23.9941 41.3551 23.8124 41.2647 23.6773 41.1214C23.6756 41.118 23.6748 41.1142 23.6748 41.1104C23.6748 41.1066 23.6756 41.1028 23.6773 41.0994C23.6759 41.0931 23.6759 41.0867 23.6773 41.0805H23.6679ZM28.4035 41.9177C28.1718 42.1087 27.9105 42.2607 27.63 42.3678C27.3373 42.4915 27.0278 42.5711 26.7118 42.6038C26.0704 42.6951 25.4216 42.7235 24.7747 42.6888C24.1256 42.6616 23.4798 42.5806 22.844 42.4465C22.5296 42.3835 22.234 42.2954 21.9384 42.2041C21.6494 42.1292 21.3744 42.008 21.1239 41.8453C21.1239 41.8453 21.1051 41.7981 21.1239 41.7949C21.4092 41.7635 21.6971 41.7635 21.9824 41.7949C22.2969 41.817 22.6113 41.8264 22.9258 41.839C23.5295 41.861 24.1364 41.8642 24.7402 41.839C25.3439 41.8138 25.976 41.7572 26.5923 41.7037C26.891 41.6732 27.1914 41.6617 27.4916 41.669C27.7875 41.6694 28.0822 41.7064 28.3689 41.7792C28.3838 41.7822 28.3978 41.7887 28.4098 41.7981C28.4207 41.8082 28.4284 41.8214 28.4318 41.8359C28.4364 41.8502 28.4364 41.8656 28.4318 41.8799C28.4271 41.8939 28.4196 41.9067 28.4098 41.9177H28.4035ZM41.8652 18.9698C41.862 18.986 41.8531 19.0005 41.8401 19.0107C41.827 19.0202 41.8119 19.0266 41.7961 19.0296C41.7807 19.0344 41.7642 19.0344 41.7489 19.0296C41.7344 19.0217 41.7215 19.011 41.7112 18.9981C41.466 18.4677 41.3028 17.9032 41.2269 17.3237C41.1168 16.7351 40.9785 16.1434 40.815 15.5643C40.645 14.9777 40.4349 14.4035 40.1861 13.8458C40.0768 13.5898 39.9539 13.3397 39.8182 13.0967C39.6798 12.8638 39.532 12.6466 39.3842 12.4137C39.8936 12.6057 40.2112 13.1565 40.4691 13.6066C40.7766 14.1482 41.0476 14.7096 41.2804 15.2873C41.5253 15.8581 41.721 16.4488 41.8652 17.053C42.0475 17.6768 42.0475 18.3398 41.8652 18.9635V18.9698Z" fill="#1058AB"/>
<path d="M20.2752 8.02697C19.4482 7.78147 18.5237 7.39749 18.2752 6.57286C18.0834 5.94338 18.3476 5.28556 18.7155 4.75365C19.6588 3.38137 21.1776 2.62914 22.8034 2.10352C20.8924 2.24561 19.0073 2.63059 17.1935 3.24918C16.213 3.58892 15.2783 4.04879 14.4106 4.61831C13.6955 5.10657 13.0354 5.67118 12.4422 6.30218L12.3635 6.41864C12.8759 5.97107 13.418 5.55886 13.9861 5.18485C14.6803 4.72432 15.4175 4.33221 16.1873 4.014C16.9328 3.67051 17.7257 3.44133 18.5394 3.33416V3.35304C17.7124 3.70556 16.8602 3.98253 16.0584 4.38855C14.6071 5.11565 13.2896 6.08413 12.1623 7.25271C11.7724 7.66817 11.4045 8.11195 11.0554 8.54945C10.9675 8.75539 10.896 8.96798 10.8416 9.18523C10.7898 9.34042 10.78 9.50658 10.8133 9.66678C10.8472 9.82656 10.9232 9.97435 11.0334 10.0948C11.247 10.2489 11.5114 10.3153 11.7724 10.2805C12.0804 10.2408 12.3852 10.1787 12.6843 10.0948L15.0112 9.60069L15.8445 9.42128C17.1823 9.01162 18.5487 8.70232 19.9324 8.49594C20.3821 8.42355 20.8349 8.3669 21.2877 8.31654C20.9481 8.241 20.6053 8.13084 20.2752 8.02697Z" fill="#1058AB"/>
<path d="M35.1451 4.61818C34.2866 4.04586 33.3602 3.58277 32.3874 3.23961C31.7152 3.00011 31.0296 2.80043 30.334 2.6416C30.9377 3.01615 31.5509 3.37495 32.1389 3.76838C33.5131 4.69372 34.8212 5.92751 35.1797 7.54529C35.3245 8.23339 35.2866 8.94746 35.0696 9.6163C35.5078 9.7359 35.9449 9.86494 36.3809 10.0034C37.5187 10.3289 38.6119 10.7941 39.6355 11.3883C39.7352 11.4158 39.8404 11.417 39.9408 11.3916C40.0411 11.3662 40.1331 11.3152 40.2078 11.2435C40.2555 11.1948 40.2929 11.137 40.3179 11.0736C40.3427 11.0104 40.3555 10.9431 40.3556 10.8753C39.5988 9.42253 38.6708 8.06576 37.5916 6.83397C36.8766 5.99129 36.0541 5.24632 35.1451 4.61818V4.61818ZM38.1953 8.62486C38.2267 8.71928 38.1073 8.77278 38.0412 8.71613C37.9123 8.60912 37.7771 8.52099 37.6576 8.40139C37.5381 8.28179 37.4626 8.18736 37.3714 8.08665C37.1828 7.86318 37.0004 7.63656 36.8023 7.41625C36.4199 6.97369 36.0125 6.55335 35.5822 6.15728C35.1545 5.7544 34.6986 5.37986 34.2363 5.01161C33.7741 4.64336 33.249 4.35695 32.8056 3.96982C32.8056 3.96982 32.8056 3.94778 32.8056 3.95093C33.3943 4.11716 33.9526 4.37642 34.4596 4.7189C34.9809 5.03864 35.4742 5.40189 35.9344 5.80476C36.3958 6.19739 36.8278 6.62344 37.2268 7.07947C37.4339 7.31181 37.6291 7.55447 37.8117 7.80653C37.9809 8.05563 38.1103 8.32959 38.1953 8.61856V8.62486Z" fill="#1058AB"/>
<path d="M6.29599 21.2959L5.78029 22.3692C5.49414 22.9987 5.18598 23.6281 4.83693 24.2073C4.71067 24.4695 4.52557 24.6989 4.29607 24.8777C4.12931 24.9937 3.92478 25.0421 3.72377 25.013C3.65459 25.6991 3.60113 26.3821 3.57598 27.0683C3.55082 27.6978 3.54453 28.3272 3.57598 28.9567C3.63797 29.1532 3.7547 29.3279 3.91244 29.4603C4.01313 29.5505 4.14547 29.5969 4.28035 29.5894C4.4135 29.5796 4.53811 29.5201 4.62939 29.4225C4.80082 29.208 4.92898 28.9621 5.00674 28.6986C5.09279 28.4302 5.16314 28.157 5.21742 27.8803C5.34949 27.2697 5.45955 26.656 5.57275 26.0422C5.75828 25.0508 5.93437 24.0593 6.12619 23.0742C6.17965 22.4699 6.2331 21.8813 6.29599 21.2959Z" fill="#1058AB"/>
<path d="M2.21418 24.7612C2.16072 25.1452 2.1167 25.5292 2.0884 25.9069C2.03809 26.4514 2.03809 26.999 2.03809 27.5436C2.07454 27.564 2.1147 27.5769 2.15621 27.5817C2.19773 27.5864 2.23977 27.5828 2.27988 27.5711C2.31998 27.5594 2.35736 27.5397 2.38981 27.5134C2.42226 27.4871 2.44914 27.4545 2.46889 27.4177C2.54784 27.2794 2.60812 27.1312 2.64812 26.977C2.70158 26.8039 2.76133 26.6277 2.81793 26.4545C2.92799 26.1052 3.03804 25.7558 3.13238 25.4065C3.26445 24.9941 3.3808 24.5755 3.50658 24.1475C3.5506 23.7981 3.59777 23.4519 3.64494 23.1025C3.1982 23.6824 2.71395 24.2322 2.19531 24.7486L2.21418 24.7612Z" fill="#1058AB"/>
<path d="M43.3926 22.5051C43.446 23.0402 43.4932 23.5721 43.5435 24.1008C43.5655 24.3117 43.5875 24.5226 43.6064 24.7303C43.7669 25.799 44.0183 26.852 44.3579 27.8778C44.4913 28.3838 44.7375 28.853 45.078 29.25C45.1112 29.2929 45.153 29.3283 45.2007 29.3539C45.2476 29.379 45.2988 29.395 45.3516 29.4011C45.4587 29.4104 45.5654 29.3789 45.6503 29.313C45.7184 29.2479 45.7757 29.1725 45.8202 29.0895C45.8453 28.4191 45.8422 27.7456 45.8202 27.0846C45.7981 26.4236 45.7415 25.7249 45.6724 25.0451C45.2383 24.8738 44.8443 24.6144 44.5152 24.2834C44.033 23.765 43.6522 23.1608 43.3926 22.502V22.5051Z" fill="#1058AB"/>
<path d="M47.318 25.9163C47.3137 25.8036 47.3032 25.6911 47.2865 25.5796C46.8221 25.5661 46.377 25.3901 46.0287 25.0823L45.9658 25.0225C46.0193 25.5701 46.0664 26.1146 46.0947 26.6623V26.8102C46.0906 26.8517 46.0993 26.8935 46.1199 26.9298C46.1676 27.221 46.2644 27.502 46.4061 27.7607C46.4691 27.8756 46.5703 27.9647 46.6922 28.0125C46.7565 28.0339 46.826 28.0339 46.8903 28.0125C46.9532 27.9888 47.0079 27.9472 47.0475 27.8929C47.1644 27.7394 47.2606 27.5711 47.3337 27.3925C47.3542 26.9005 47.3489 26.4078 47.318 25.9163V25.9163Z" fill="#1058AB"/>
<path d="M30.5919 3.96593C30.023 3.55974 29.3591 3.30716 28.6643 3.23258C27.9378 3.10637 27.1994 3.06308 26.4632 3.10353L26.0292 3.13815C25.7247 3.13181 25.4202 3.14443 25.1173 3.17592C24.4414 3.21928 23.7748 3.35592 23.1362 3.58194C22.4476 3.84003 21.347 4.3027 21.564 5.23119C21.6709 5.7096 22.1363 5.8953 22.5639 6.0149C22.9397 6.11175 23.3224 6.1791 23.7085 6.21634C24.4468 6.29914 25.1889 6.34431 25.9317 6.35168C26.6738 6.35168 27.4348 6.35168 28.1864 6.29817C28.8731 6.29801 29.5529 6.16106 30.1863 5.8953C30.4926 5.74968 30.748 5.51494 30.9189 5.22175C31.0372 5.01143 31.0705 4.76377 31.012 4.52963C30.9536 4.29549 30.8077 4.09265 30.6045 3.96278L30.5919 3.96593Z" fill="#7298D0"/>
<path d="M30.9629 9.6511C30.7973 9.55362 30.6166 9.48447 30.4283 9.44652C29.8586 9.38046 29.2846 9.35836 28.7114 9.38043C27.0983 9.34266 25.4694 9.20102 23.8468 9.4119C23.2494 9.49059 20.3879 10.2271 21.9601 11.1902C22.8186 11.7095 23.8028 11.7914 24.765 11.8543C25.7839 11.9267 26.809 11.955 27.8309 11.9424C28.3565 11.9472 28.8817 11.9167 29.4032 11.8512C30.1579 11.7378 31.9754 11.2217 31.4031 10.1012C31.3003 9.91363 31.1481 9.75794 30.9629 9.6511Z" fill="#7298D0"/>
<path d="M5.98189 19.0641C5.97416 18.9283 5.93885 18.7955 5.87812 18.6738C5.84232 18.6086 5.78746 18.5559 5.7209 18.5227C5.65313 18.4879 5.57596 18.4757 5.50078 18.4881C5.39652 18.5197 5.30367 18.581 5.2335 18.6644C5.15646 18.7626 5.08907 18.868 5.03225 18.9791C4.92 19.2026 4.82436 19.434 4.7461 19.6715C4.66411 19.9082 4.6144 20.1549 4.5983 20.4049C4.58572 20.5221 4.58572 20.6402 4.5983 20.7574C4.60152 20.7956 4.60783 20.8335 4.61717 20.8707V20.9022C4.61717 20.9368 4.61717 20.9714 4.64233 21.0061C4.64622 21.0738 4.65999 21.1406 4.68321 21.2043C4.71219 21.2981 4.73426 21.3938 4.74924 21.4908C4.75566 21.5132 4.76754 21.5338 4.78383 21.5506C4.79945 21.5667 4.81893 21.5787 4.84043 21.5852C4.86306 21.5915 4.88698 21.5915 4.90961 21.5852C4.93111 21.5787 4.9506 21.5667 4.96621 21.5506C5.08256 21.4436 5.19891 21.3617 5.30268 21.2641C5.34985 21.229 5.39215 21.1877 5.42846 21.1414C5.46934 21.091 5.47248 21.0816 5.45047 21.1162C5.49508 21.0753 5.53419 21.0287 5.56682 20.9777C5.59826 20.9305 5.60141 20.9179 5.56682 20.9463C5.53223 20.9746 5.5448 20.9651 5.64229 20.8455C5.67101 20.8019 5.69726 20.7568 5.7209 20.7102C5.94424 20.2033 6.02993 19.6463 5.96932 19.0956L5.98189 19.0641Z" fill="#7298D0"/>
<path d="M3.5408 21.1733C3.5058 21.1884 3.47384 21.2097 3.44646 21.2362C3.41335 21.268 3.38759 21.3067 3.37099 21.3495C3.32757 21.4265 3.28973 21.5064 3.25779 21.5887C3.17958 21.7518 3.16609 21.9386 3.22006 22.1112C3.21692 22.1268 3.21692 22.1429 3.22006 22.1584C3.2284 22.183 3.24004 22.2063 3.25465 22.2277C3.25937 22.2389 3.26696 22.2487 3.27666 22.256H3.31125C3.32362 22.2592 3.33661 22.2592 3.34898 22.256C3.36041 22.2581 3.37214 22.2581 3.38357 22.256C3.41483 22.2368 3.4425 22.2123 3.46533 22.1836C3.50568 22.1563 3.53995 22.121 3.56595 22.0797C3.59117 22.0298 3.61322 21.9783 3.63199 21.9255C3.66066 21.8324 3.6786 21.7363 3.68545 21.6391V21.3905C3.70117 21.3023 3.66029 21.145 3.5408 21.1733Z" fill="#7298D0"/>
<path d="M44.3698 19.9368C44.3381 19.794 44.2982 19.6532 44.2503 19.515C44.2295 19.4278 44.2043 19.3416 44.1748 19.2569C44.1402 19.1877 44.0931 19.1247 44.0553 19.0618C44.0328 19.0249 44 18.9954 43.961 18.9768C43.9211 18.9571 43.8763 18.9494 43.8321 18.9548C43.7881 18.9613 43.7467 18.9798 43.7126 19.0083C43.6787 19.0369 43.6545 19.0754 43.6434 19.1184C43.605 19.2956 43.5808 19.4756 43.5711 19.6566V20.176C43.5649 20.2566 43.5649 20.3377 43.5711 20.4183C43.5771 20.4909 43.5908 20.5627 43.612 20.6324C43.6228 20.668 43.6365 20.7027 43.6528 20.7362V20.7614L43.6906 20.8558C43.7629 20.9377 43.7755 20.9597 43.7314 20.9156C43.7451 20.9373 43.7597 20.9583 43.7755 20.9786C43.7943 20.9975 43.8101 21.0226 43.7943 21.0006C43.8415 21.0698 43.8981 21.1296 43.9516 21.1957C43.9659 21.2098 43.983 21.2205 44.0019 21.2272C44.0205 21.2319 44.0399 21.2319 44.0585 21.2272C44.0787 21.2263 44.0983 21.2197 44.1151 21.2083C44.1317 21.1981 44.1457 21.184 44.156 21.1674C44.1994 21.1112 44.2393 21.0523 44.2755 20.9912L44.3321 20.9125C44.3604 20.8243 44.3729 20.7992 44.3635 20.8401C44.3541 20.881 44.3635 20.859 44.4012 20.7582V20.7205C44.3635 20.7803 44.3698 20.7582 44.4232 20.6481C44.4362 20.5912 44.4447 20.5333 44.4484 20.475C44.456 20.2954 44.4348 20.1159 44.3855 19.9431L44.3698 19.9368Z" fill="#7298D0"/>
<path d="M44.5619 21.9134C44.527 21.8536 44.4742 21.8062 44.4109 21.7781L44.3575 21.7592C44.3356 21.7561 44.3133 21.7561 44.2914 21.7592H44.2317C44.194 21.7691 44.1601 21.7899 44.1342 21.819C44.0945 21.8495 44.0631 21.8895 44.043 21.9354C44.0218 21.9807 44.0111 22.0302 44.0116 22.0802C44.004 22.1176 44.004 22.1562 44.0116 22.1935C44.0244 22.2608 44.056 22.323 44.1028 22.3729C44.148 22.4241 44.2069 22.4612 44.2726 22.48V22.48C44.2874 22.4931 44.3062 22.5009 44.326 22.502C44.345 22.5012 44.3629 22.4934 44.3763 22.48L44.4015 22.4516C44.4334 22.4387 44.4623 22.4195 44.4864 22.395C44.5243 22.3548 44.5523 22.3063 44.5681 22.2533C44.5869 22.1988 44.5934 22.1407 44.587 22.0834C44.5838 22.0231 44.5654 21.9647 44.5336 21.9134H44.5619Z" fill="#7298D0"/>
<path d="M46.4035 22.0583C46.396 22.0165 46.3822 21.9762 46.3626 21.9387C46.3343 21.8591 46.2867 21.7877 46.2242 21.7309C46.1676 21.6774 46.0827 21.5893 46.001 21.5924H45.9098C45.9037 21.5903 45.897 21.5903 45.8909 21.5924C45.8895 21.5948 45.8888 21.5975 45.8888 21.6003C45.8888 21.6031 45.8895 21.6058 45.8909 21.6082C45.8894 21.6117 45.8887 21.6154 45.8887 21.6192C45.8887 21.623 45.8894 21.6267 45.8909 21.6302V21.69C45.8888 21.7606 45.8994 21.831 45.9223 21.8977V21.8977C45.9278 21.9286 45.9352 21.9591 45.9444 21.989C45.9567 22.0196 45.9661 22.0512 45.9727 22.0834C45.995 22.1733 46.0369 22.2571 46.0953 22.3289L46.1236 22.3604C46.1422 22.3854 46.159 22.4117 46.1739 22.4391C46.1787 22.4486 46.1864 22.4563 46.1959 22.4611H46.2242H46.2525C46.262 22.4563 46.2697 22.4486 46.2745 22.4391L46.3248 22.3573V22.3352C46.3435 22.3096 46.3573 22.2808 46.3657 22.2503C46.3807 22.2045 46.3881 22.1567 46.3877 22.1086C46.4066 22.1118 46.4066 22.0897 46.4035 22.0583Z" fill="#7298D0"/>
<path d="M42.4902 4.1806C42.4705 4.03148 42.402 3.89312 42.2953 3.78717C42.2439 3.7284 42.1759 3.68668 42.1003 3.66757C42.0246 3.6518 41.946 3.65836 41.8739 3.68646C41.846 3.70212 41.8239 3.72642 41.811 3.7557C41.8 3.7862 41.8 3.81962 41.811 3.85012C41.8275 3.89417 41.8486 3.93637 41.8739 3.97602C41.9116 4.02323 41.9211 4.03267 41.8928 4.00435L41.9148 4.03267C41.9116 4.04077 41.9116 4.04976 41.9148 4.05785C41.9148 4.10821 41.9494 4.15228 41.9588 4.20578C41.9682 4.25929 41.984 4.30965 41.9588 4.24355C41.9621 4.26968 41.9621 4.29611 41.9588 4.32224C41.9626 4.45914 41.9859 4.59479 42.028 4.72511C42.0501 4.79323 42.0774 4.85952 42.1097 4.9234C42.1407 4.97339 42.1743 5.02172 42.2104 5.06818C42.2184 5.08004 42.2292 5.08976 42.2418 5.0965C42.2551 5.10106 42.2695 5.10106 42.2827 5.0965C42.2949 5.10058 42.3082 5.10058 42.3204 5.0965C42.3336 5.09058 42.3446 5.08067 42.3519 5.06818C42.3894 5.00936 42.419 4.94587 42.4399 4.87933C42.4604 4.81423 42.4772 4.74803 42.4902 4.68104C42.5233 4.51587 42.5233 4.34578 42.4902 4.1806V4.1806Z" fill="white"/>
<path d="M39.8014 42.6643C39.7487 42.0869 39.6142 41.52 39.402 40.9805L39.1976 41.1347C39.1976 41.1788 39.2228 41.2228 39.2385 41.2637C39.283 41.4203 39.3041 41.5826 39.3014 41.7453C39.2985 41.827 39.2826 41.9078 39.2542 41.9845C39.3146 42.3202 39.3006 42.6651 39.2133 42.9948H39.2354C39.7479 43.4512 39.336 44.2223 38.9681 44.6346C38.5033 45.0902 37.9393 45.4318 37.3203 45.6324C36.6613 45.8851 35.9802 46.0758 35.2858 46.202C34.6346 46.3524 33.9665 46.417 33.2985 46.394C31.6308 46.6838 29.941 46.8281 28.2484 46.8252C26.9906 46.8252 25.673 46.7686 24.5504 46.1611C24.1479 45.9377 23.736 45.5316 23.8901 45.0816C23.9428 44.9491 24.0296 44.8329 24.1416 44.7448L22.1669 44.7668C21.2235 44.7668 20.3084 44.8077 19.3871 44.8612C19.1806 44.8548 18.9743 44.8771 18.7739 44.9273C18.6953 44.9525 18.6135 44.9997 18.6041 45.0942C18.5947 45.1886 18.6985 45.2861 18.7771 45.3491C19.1048 45.6177 19.4803 45.8217 19.8839 45.9503H19.9028C19.9047 45.9575 19.9047 45.9651 19.9028 45.9723C19.9043 45.9785 19.9043 45.985 19.9028 45.9912C19.905 45.9973 19.905 46.0039 19.9028 46.0101H19.8871H19.8682H19.8493C19.6984 45.9754 19.6072 46.1454 19.6072 46.2713C19.6072 46.3972 19.7676 46.5577 19.8934 46.6112C20.0531 46.6836 20.2182 46.7435 20.3871 46.7906L20.9311 46.9574C22.2689 47.3189 23.6374 47.5549 25.0189 47.6625C25.7107 47.7223 26.3994 47.7632 27.088 47.7915L27.7798 47.8135C28.2704 47.7915 28.7578 47.7663 29.2483 47.7285C31.8129 47.5718 34.3422 47.0515 36.7606 46.1832C37.3549 45.9628 37.9398 45.7205 38.509 45.4435C39.6033 44.984 39.8957 43.7754 39.8014 42.6643Z" fill="#1058AB"/>
<path d="M46.424 21.5382C46.3354 21.1789 46.1726 20.8423 45.946 20.5499C45.8214 20.424 45.6713 20.3264 45.5058 20.2635C45.4272 20.232 45.3423 20.2068 45.2637 20.1816C45.3108 20.4366 45.3549 20.6947 45.3989 20.9496C45.5121 21.5791 45.619 22.2086 45.7133 22.8381C45.902 24.097 46.0278 25.3843 46.1127 26.6622V26.8101C46.1085 26.8516 46.1173 26.8934 46.1379 26.9297C46.1856 27.2209 46.2823 27.5019 46.424 27.7606C46.4862 27.8762 46.5877 27.9655 46.7102 28.0124C46.7758 28.0278 46.8445 28.0235 46.9077 28C46.9709 27.9765 47.0258 27.9348 47.0655 27.8802C47.1824 27.7267 47.2786 27.5584 47.3516 27.3798C47.3516 26.8919 47.3359 26.4072 47.3076 25.9194C47.2014 24.4303 46.9044 22.961 46.424 21.5476V21.5382Z" fill="#4071B3"/>
<path d="M34.844 44.5463C34.7492 44.485 34.6416 44.4462 34.5295 44.433C34.0524 44.2344 33.5216 44.2066 33.0264 44.3543C32.5516 44.4613 32.0831 44.5494 31.5957 44.6407C31.1083 44.732 30.6743 44.817 30.2152 44.9271C29.975 44.9819 29.7395 45.0556 29.5108 45.1474C29.4071 45.1884 29.3033 45.2387 29.1964 45.2859L29.0455 45.3552H29.0046C28.9783 45.3645 28.9538 45.3783 28.9323 45.3961C28.9117 45.4152 28.8957 45.4387 28.8853 45.4649C28.875 45.491 28.8706 45.5191 28.8725 45.5472C28.8751 45.5749 28.8837 45.6018 28.8977 45.6258C29.0328 45.7682 29.2066 45.8678 29.3976 45.9123C29.675 46.0107 29.9633 46.0751 30.2561 46.1042C30.8007 46.1515 31.3486 46.142 31.8912 46.0759C32.471 46.017 33.0452 45.9118 33.6082 45.7612C33.9125 45.6734 34.1924 45.5161 34.4257 45.3017C34.4775 45.2605 34.5269 45.2164 34.5735 45.1695C34.6081 45.1286 34.6584 45.0341 34.7087 44.9806C34.7901 44.9083 34.8564 44.8206 34.9037 44.7225C34.9147 44.691 34.9147 44.6566 34.9037 44.625C34.8934 44.5935 34.8736 44.566 34.8471 44.5463H34.844Z" fill="#7298D0"/>
<path d="M37.3873 43.6708C37.3736 43.6161 37.349 43.5647 37.315 43.5197C37.2731 43.4689 37.2205 43.4281 37.1609 43.4001C37.1141 43.3723 37.0612 43.3561 37.0068 43.3529H36.9377C36.7595 43.3474 36.5842 43.3993 36.4377 43.5009C36.3633 43.551 36.2928 43.6067 36.227 43.6677L36.1767 43.718C36.1365 43.7527 36.1044 43.7957 36.0823 43.8439C36.0333 43.8947 35.9967 43.9561 35.9754 44.0233C35.9786 44.0336 35.9786 44.0446 35.9754 44.0548C35.9457 44.1329 35.9457 44.2191 35.9754 44.2972C36.0052 44.3741 36.0639 44.4362 36.139 44.4703C36.2118 44.5165 36.295 44.5435 36.3811 44.549H36.4157C36.6143 44.5642 36.813 44.5216 36.988 44.4262C37.071 44.3829 37.1472 44.3278 37.2144 44.2625C37.2556 44.2156 37.2924 44.1651 37.3244 44.1115C37.3467 44.0738 37.3646 44.0336 37.3779 43.9919C37.4219 43.89 37.4253 43.7751 37.3873 43.6708V43.6708Z" fill="#7298D0"/>
<path d="M27.8345 49.1982C27.456 49.1598 27.0961 49.0146 26.7968 48.7796C26.6396 48.6367 26.5382 48.4427 26.5107 48.2319C25.7717 48.2508 25.0264 48.2634 24.2843 48.2792C22.9133 48.3043 21.536 48.3295 20.165 48.2634C17.6966 48.1501 15.1998 47.7346 12.9829 46.5858L12.9043 46.5449C13.1504 46.8506 13.4396 47.1188 13.7628 47.3412C14.5191 47.8135 15.3329 48.1869 16.184 48.4523L17.7815 49.0251L18.1651 49.1573C19.3236 49.3869 20.4942 49.5509 21.6712 49.6483C24.1974 49.8817 26.7387 49.9027 29.2684 49.7112C29.9791 49.6546 30.6992 49.5696 31.391 49.4594C30.1987 49.4921 29.0061 49.4046 27.8314 49.1982H27.8345Z" fill="#1058AB"/>
<path d="M36.7551 47.1053C36.0408 47.1754 35.3358 47.3199 34.6514 47.5365C34.3024 47.6246 33.9502 47.7033 33.6012 47.782C33.2744 47.8165 32.9617 47.9335 32.6924 48.1219V48.1219C33.0052 48.2755 33.3592 48.3241 33.7018 48.2604C34.0736 48.2289 34.4432 48.1753 34.8087 48.0998C35.5401 47.9846 36.2298 47.6833 36.8117 47.2249C36.8212 47.2117 36.8276 47.1967 36.8306 47.1808C36.8352 47.1654 36.8352 47.149 36.8306 47.1336C36.8249 47.1186 36.8151 47.1055 36.8023 47.0958C36.7889 47.0874 36.7739 47.082 36.7583 47.0801L36.7551 47.1053Z" fill="#7298D0"/>
<path d="M38.1936 46.5981H38.0363C37.9978 46.5982 37.9596 46.6046 37.9231 46.617L37.8414 46.6359L37.7596 46.6673C37.7205 46.6768 37.6825 46.6905 37.6464 46.7083C37.5821 46.731 37.5269 46.7741 37.4892 46.831C37.4759 46.8481 37.4688 46.8692 37.4688 46.8908C37.4688 46.9125 37.4759 46.9335 37.4892 46.9506C37.5179 46.9763 37.5525 46.9947 37.5898 47.0041C37.6291 47.0135 37.67 47.0135 37.7093 47.0041C37.7501 47.0089 37.7912 47.0089 37.832 47.0041C37.8734 46.9941 37.9135 46.9793 37.9514 46.9601C38.0208 46.9251 38.0811 46.8745 38.1275 46.8121L38.1433 46.7932L38.1716 46.7618C38.1936 46.7317 38.2116 46.6989 38.225 46.6642C38.2265 46.6548 38.2265 46.6452 38.225 46.6359C38.2282 46.6278 38.2282 46.6188 38.225 46.6107C38.2237 46.6062 38.2212 46.6022 38.2179 46.5989C38.2147 46.5956 38.2106 46.5931 38.2062 46.5918C38.2016 46.593 38.1973 46.5952 38.1936 46.5981V46.5981Z" fill="#7298D0"/>
<defs>
<linearGradient id="paint0_linear" x1="16.0008" y1="23.1814" x2="18.9976" y2="23.1814" gradientUnits="userSpaceOnUse">
<stop offset="0.25" stop-color="#9FD0DC"/>
<stop offset="1" stop-color="#0037A2"/>
</linearGradient>
<linearGradient id="paint1_linear" x1="29.9813" y1="22.6396" x2="32.9797" y2="22.6396" gradientUnits="userSpaceOnUse">
<stop offset="0.25" stop-color="#9FD0DC"/>
<stop offset="1" stop-color="#0037A2"/>
</linearGradient>
</defs>
</svg>
