<svg width="201" height="65" viewBox="0 0 201 65" fill="none" xmlns="http://www.w3.org/2000/svg">
<path d="M26.1342 55.9229C25.6656 55.9229 25.172 55.9228 24.672 55.9008C23.0746 55.8568 21.6752 55.7592 20.3954 55.6144C17.2509 55.2399 14.6913 54.5002 12.5027 53.3514C11.9191 53.0448 11.3551 52.7021 10.814 52.3253C10.2638 51.9553 9.75003 51.5337 9.27952 51.0664C8.99427 50.808 8.76944 50.4899 8.62106 50.1347C8.47268 49.7794 8.40439 49.3958 8.42107 49.0111C8.44523 48.7132 8.53432 48.4242 8.68206 48.1644C8.83049 47.9065 9.03461 47.685 9.27952 47.5161C9.36516 47.1729 9.48635 46.8395 9.64114 46.5215C8.29959 45.478 7.18108 44.1754 6.35197 42.6911C5.72275 41.5175 5.29239 40.2476 5.07843 38.9331L4.92121 38.8544L4.06275 38.42L3.96842 38.3728C3.65657 38.2394 3.37677 38.0409 3.14769 37.7905C2.90561 37.4645 2.76752 37.0728 2.75148 36.6669C2.75912 36.6274 2.75912 36.5868 2.75148 36.5473C2.70432 36.2326 2.66658 35.9178 2.63514 35.5716V35.4205L2.34899 35.2254L2.20434 35.1184L2.08484 35.0334C1.93081 34.931 1.78374 34.8185 1.64461 34.6966C1.3701 34.4597 1.17657 34.1427 1.09117 33.7902C1.0405 33.5617 1.01311 33.3286 1.00942 33.0946V33.0253C1.00942 32.7389 0.993694 32.4525 1.00942 32.1378C0.996861 32.0554 0.996861 31.9715 1.00942 31.8891C1.03072 30.6178 1.18352 29.352 1.46537 28.1122C1.64254 27.3137 1.87689 26.529 2.1666 25.7642C2.32913 25.2873 2.63296 24.8712 3.03764 24.5713C3.20391 24.4514 3.38591 24.3551 3.57849 24.2849C3.60365 24.1559 3.6351 24.0363 3.66025 23.9198C3.73354 23.5834 3.82913 23.2521 3.9464 22.9284C4.07662 22.5203 4.33461 22.1649 4.68222 21.9149C4.94911 21.7543 5.23695 21.6314 5.53753 21.5498L5.70419 21.4963L5.80796 21.4554L6.18531 21.3389C6.58191 19.2338 7.28876 17.1994 8.28271 15.3022C9.32998 13.25 10.7272 11.3967 12.4115 9.82566C14.1162 8.33661 16.1551 7.28169 18.3546 6.75062C20.3497 6.23635 22.3983 5.95852 24.4581 5.92285H25.1154C27.174 5.95642 29.2215 6.23214 31.2157 6.74433C33.4165 7.27294 35.4567 8.32692 37.162 9.81622C38.6127 11.1627 39.8482 12.7242 40.8254 14.4461C40.7814 13.8166 40.7457 13.1588 40.7185 12.4726C40.5507 12.2911 40.4222 12.0768 40.3412 11.8432C40.1953 11.3775 40.1087 10.8953 40.0833 10.4079V10.2632C40.0393 9.79418 40.0173 9.31892 40.011 8.85625C39.9914 8.56858 40.0425 8.28047 40.1598 8.01712C40.2771 7.75376 40.457 7.52317 40.6839 7.34549C41.0481 7.12171 41.4708 7.01209 41.8977 7.03075H42.1461C42.4366 7.04232 42.7195 7.12714 42.9685 7.27735C43.2176 7.42756 43.4246 7.63829 43.5706 7.88999C43.765 8.27432 43.8855 8.69177 43.9259 9.12064V9.21506C43.9919 9.6494 44.036 10.1026 44.0706 10.6062C44.0709 10.6811 44.0772 10.7558 44.0894 10.8297C44.1584 11.2847 44.1305 11.7491 44.0077 12.1925C43.9229 12.4546 43.7775 12.693 43.5832 12.8881C43.6209 13.3791 43.6618 13.8795 43.7121 14.3863C43.9448 16.8696 44.2655 19.3812 44.6554 21.8583L44.7215 21.8992C45.0804 22.1501 45.3476 22.5115 45.4824 22.9284C45.5979 23.2517 45.6934 23.5817 45.7686 23.9167C45.7938 24.0363 45.8221 24.1527 45.8472 24.2849C46.041 24.3545 46.2242 24.4509 46.3912 24.5713C46.7935 24.8748 47.0931 25.2944 47.2497 25.7737C47.5398 26.5383 47.7742 27.323 47.9509 28.1216C48.3192 29.733 48.4694 31.3865 48.3974 33.0379V33.1072C48.3921 33.3411 48.3647 33.574 48.3157 33.8027C48.2295 34.155 48.0361 34.4718 47.7622 34.7092C47.6206 34.8294 47.4726 34.9418 47.3189 35.046L47.1994 35.131L47.0579 35.2348L46.8032 35.4205C46.8057 35.4714 46.8004 35.5224 46.7874 35.5716C46.756 35.8863 46.7183 36.2263 46.6742 36.5473L46.6554 36.6638C46.6394 37.0707 46.5013 37.4633 46.2591 37.7905C46.0293 38.0424 45.7499 38.2438 45.4384 38.3823L45.3472 38.4295L44.5234 38.8449C44.1003 41.6327 42.6882 44.1746 40.5455 46.0053C40.6008 46.1631 40.6469 46.3239 40.6839 46.4869C40.809 46.9906 40.8765 47.507 40.8852 48.026L40.948 48.0732C41.6618 48.646 41.8191 49.6091 41.3474 50.5376C41.0183 51.1472 40.574 51.687 40.0393 52.1271C39.0608 52.9635 37.9461 53.6257 36.7438 54.0848C34.189 55.105 31.4823 55.6922 28.7347 55.8221C27.9077 55.8945 27.0492 55.9229 26.1342 55.9229Z" fill="white" stroke="white" stroke-width="1.5"/>
<path d="M9.04167 40.8722C8.2744 40.2648 7.59204 38.7824 8.38131 36.9789C8.38131 36.9789 7.25557 37.344 7.43796 36.406C7.62034 35.4681 8.76495 33.7748 8.76495 33.7748C8.54483 34.0392 7.97567 34.4043 7.75241 34.2658C7.52915 34.1273 7.65807 32.8841 8.49766 31.9367C8.49766 31.9367 7.5543 32.0532 7.49141 31.5527C7.42852 31.0523 8.26497 30.832 8.26497 30.832C8.26497 30.832 8.99764 28.4714 9.48819 27.3698C9.37947 27.4037 9.26484 27.4144 9.15172 27.4013C9.04034 27.3851 8.93337 27.3466 8.83727 27.288C8.58571 27.0834 9.04795 25.3995 9.63598 24.6882C9.63598 24.6882 8.90645 22.293 10.3466 20.7382C10.3466 20.7382 9.57309 20.3857 9.74289 19.6964C9.9127 19.0071 10.8466 19.901 10.8466 19.901C10.8466 19.901 10.5605 16.5521 11.8151 14.33C12.1673 13.7005 12.7239 12.9577 13.2805 12.8192C13.4053 12.813 13.5295 12.8403 13.6401 12.8984C13.7507 12.9566 13.8437 13.0433 13.9094 13.1497C13.9094 13.1497 14.0352 12.7374 14.7678 12.8633C14.9803 12.9439 15.171 13.0733 15.3244 13.241C15.3244 13.241 16.1357 12.8759 17.664 14.736C18.1042 15.2711 19.5066 17.2823 19.5066 17.2823C19.5066 17.2823 20.5632 16.6308 21.7613 17.8331C21.7613 17.8331 23.1606 16.9581 27.4843 17.66C27.4843 17.66 28.6981 16.571 29.6603 17.0305C29.7946 16.745 30.0115 16.5066 30.2829 16.346C30.5543 16.1855 30.8677 16.1104 31.1823 16.1303C31.1823 16.1303 33.1822 12.7374 34.6129 13.3826C34.6129 13.3826 35.6506 12.5737 36.3299 13.3543C36.3299 13.3543 38.0688 13.1812 38.7889 16.5017C39.075 17.8331 38.9115 19.5705 38.5782 20.9396C38.5782 20.9396 39.3518 21.4306 39.3675 22.0223C39.3832 22.614 38.2229 22.5794 38.2229 22.5794C38.2229 22.5794 40.2102 24.1972 40.2102 27.6782C40.2102 27.6782 41.3894 28.8239 41.2856 29.787C41.2704 29.8908 41.2256 29.9881 41.1567 30.0671C41.088 30.1459 40.9969 30.2018 40.8957 30.2277C40.8957 30.2277 42.9397 33.2492 41.4932 37.8224C41.4932 37.8224 41.5875 38.6596 40.4303 38.7351C40.4303 38.7351 40.8014 39.7077 40.4586 39.9438C40.4586 39.9438 39.7197 40.6582 39.336 41.1303C39.1191 41.4167 35.6821 45.9994 24.1071 45.5934C15.3779 45.499 11.1296 42.4239 11.1296 42.4239C11.1296 42.4239 9.61397 41.3255 9.04167 40.8722Z" fill="white" stroke="white" stroke-width="5" stroke-miterlimit="10"/>
<path d="M16.0018 28.002C15.9916 28.2101 16.0248 28.418 16.0993 28.6126C16.2106 28.906 16.4108 29.1572 16.6719 29.331C16.933 29.5048 17.2418 29.5926 17.5552 29.582C17.7632 29.5737 17.9672 29.5225 18.1544 29.4315C18.3417 29.3405 18.5081 29.2117 18.6432 29.0532C18.7771 28.8937 18.8767 28.7082 18.9357 28.5083C18.9946 28.3085 19.0118 28.0986 18.986 27.8918C18.9639 27.319 18.0709 26.7462 17.2439 26.7808C16.4169 26.8154 15.9704 27.1113 16.0018 28.002Z" fill="url(#paint0_linear)" stroke="#090C1B" stroke-width="1.01" stroke-miterlimit="10"/>
<path d="M19.797 29.0025C19.9385 29.7075 19.7624 30.1985 19.3473 30.23C18.9323 30.2615 18.9574 29.7327 19.2153 29.5187C19.2897 29.441 19.3409 29.3439 19.3631 29.2386C19.3843 29.1336 19.3767 29.0248 19.341 28.9238L19.797 29.0025Z" fill="#121420"/>
<path d="M16.9946 28.0682C16.985 28.1431 16.9914 28.2193 17.0134 28.2916C17.0339 28.363 17.0705 28.4287 17.1203 28.4836C17.1717 28.5372 17.2325 28.581 17.2996 28.6127C17.3684 28.6406 17.4424 28.6535 17.5166 28.6504C17.5919 28.6484 17.6659 28.6301 17.7335 28.5969C17.7989 28.5613 17.8566 28.5132 17.9033 28.4553C17.9472 28.3947 17.9792 28.3264 17.9977 28.2539C18.0134 28.1813 18.0134 28.1061 17.9977 28.0335C18.0016 27.9629 17.9909 27.8921 17.9662 27.8258C17.9414 27.7597 17.9028 27.6996 17.853 27.6495C17.8048 27.5982 17.7457 27.5584 17.6801 27.5331C17.6151 27.5074 17.5455 27.4956 17.4757 27.4985C17.4056 27.4994 17.3367 27.5167 17.2744 27.5488C17.1791 27.5949 17.1008 27.6699 17.0505 27.7632C17.0003 27.8564 16.9807 27.9631 16.9946 28.0682Z" fill="#121420"/>
<path d="M16.9537 27.5673C16.9703 27.4703 16.9589 27.3706 16.9208 27.2799C16.8826 27.1892 16.8194 27.1113 16.7385 27.0554C16.6576 26.9994 16.5625 26.9678 16.4642 26.9642C16.366 26.9606 16.2688 26.9852 16.184 27.0351C16.0993 27.085 16.0305 27.158 15.9859 27.2457C15.9413 27.3334 15.9226 27.432 15.9321 27.5299C15.9416 27.6279 15.9789 27.7211 16.0395 27.7985C16.1002 27.8759 16.1817 27.9344 16.2745 27.967C16.4174 28.0026 16.5686 27.9807 16.6956 27.906C16.8226 27.8312 16.9152 27.7097 16.9537 27.5673Z" fill="white"/>
<path d="M23.168 29.7301C23.8614 29.5572 24.5834 29.5315 25.2874 29.6546" stroke="#121420" stroke-width="1.05" stroke-linecap="round" stroke-linejoin="round"/>
<path d="M27.9625 32.8773C28.016 34.2747 26.2488 35.9051 24.9029 35.9554C23.5571 36.0058 21.6766 34.5234 21.6263 33.1228C21.576 31.7221 22.9659 30.9668 24.7174 30.9196C26.4689 30.8723 27.9122 31.4766 27.9625 32.8773Z" fill="#121420"/>
<path d="M23.3083 32.8965C23.5153 32.9667 23.6897 33.1099 23.7989 33.2994C23.9127 33.4791 23.9837 33.6826 24.0064 33.8942C24.0343 34.1137 23.9805 34.3358 23.8552 34.5181C23.7299 34.7004 23.542 34.8301 23.3272 34.8825C23.3191 34.8872 23.3098 34.8897 23.3005 34.8897C23.2911 34.8897 23.2819 34.8872 23.2737 34.8825C23.2647 34.8797 23.2563 34.8751 23.2491 34.8689C23.2419 34.8627 23.236 34.855 23.2319 34.8465C23.2277 34.8379 23.2254 34.8286 23.2251 34.8191C23.2247 34.8096 23.2263 34.8001 23.2297 34.7912C23.2359 34.7738 23.2482 34.7593 23.2643 34.7503C23.411 34.6628 23.534 34.5407 23.6228 34.3947C23.696 34.2499 23.7256 34.087 23.7077 33.9257C23.6917 33.755 23.6448 33.5886 23.5693 33.4347C23.4996 33.2789 23.3914 33.1435 23.2549 33.0413C23.2399 33.029 23.229 33.0126 23.2234 32.9941C23.2172 32.9757 23.2172 32.9558 23.2234 32.9374C23.2293 32.926 23.2379 32.9162 23.2486 32.9091C23.261 32.9063 23.2739 32.9063 23.2863 32.9091L23.3083 32.8965Z" fill="white"/>
<path d="M26.3836 32.9249C26.2544 33.0342 26.1558 33.1752 26.0974 33.334C26.0317 33.4939 25.9965 33.6647 25.9936 33.8376C25.9872 33.9992 26.0288 34.1592 26.1131 34.2971C26.2144 34.4296 26.3446 34.5373 26.4936 34.6119C26.5025 34.6158 26.5104 34.6219 26.5164 34.6296C26.5224 34.6373 26.5265 34.6463 26.5282 34.6559C26.5322 34.6649 26.5343 34.6745 26.5343 34.6843C26.5343 34.694 26.5322 34.7037 26.5282 34.7126C26.525 34.72 26.5203 34.7267 26.5143 34.7321C26.5084 34.7375 26.5013 34.7416 26.4936 34.7441C26.4785 34.7502 26.4616 34.7502 26.4465 34.7441C26.2274 34.7071 26.0299 34.5901 25.8922 34.4156C25.7545 34.2411 25.6864 34.0217 25.7012 33.7999C25.7049 33.5864 25.7599 33.3769 25.8616 33.1892C25.9548 32.9912 26.1185 32.8352 26.3207 32.7518C26.3379 32.7455 26.3569 32.7455 26.3741 32.7518C26.39 32.7575 26.4033 32.7687 26.4119 32.7832C26.4181 32.8005 26.4181 32.8195 26.4119 32.8367C26.4055 32.8532 26.3958 32.8682 26.3836 32.8808V32.9249Z" fill="white"/>
<path d="M24.9361 32.1252C25.565 32.1032 26.0681 31.9584 26.0618 31.8105C26.0555 31.6625 25.543 31.5461 24.9141 31.5681C24.2852 31.5901 23.782 31.7381 23.7852 31.8829C23.7883 32.0276 24.3072 32.1252 24.9361 32.1252Z" fill="white"/>
<path d="M24.9082 35.9561L24.9495 37.0734" stroke="#121420" stroke-width="2.1" stroke-linecap="round" stroke-linejoin="round"/>
<path d="M12.4828 34.291C12.2407 34.9835 12.1401 36.1071 12.6809 36.4218C12.9011 36.5477 12.7281 35.5311 12.9671 35.1408C12.9491 35.6557 13.0708 36.1658 13.3193 36.617C13.5689 37.0682 13.9349 37.4443 14.379 37.706" stroke="#121420" stroke-width="1.05" stroke-linecap="round" stroke-linejoin="round"/>
<path d="M37.3909 33.4814C37.677 34.155 37.7053 34.8695 37.1991 35.222C36.9915 35.3605 36.8846 34.7404 36.6268 34.3627C36.6959 34.6933 36.6949 35.0347 36.624 35.3649C36.553 35.695 36.4136 36.0066 36.2148 36.2795" stroke="#121420" stroke-width="1.05" stroke-linecap="round" stroke-linejoin="round"/>
<path d="M18.4707 36.4999C18.694 35.8264 19.3669 35.8704 19.7883 36.0813C20.2096 36.2922 20.7316 37.1798 21.3951 37.4127L21.1656 37.7904C20.7707 37.7588 20.3811 37.6796 20.0053 37.5543C19.6688 37.4095 19.4644 37.7904 18.9455 37.5543C18.7614 37.4563 18.615 37.2999 18.5291 37.1097C18.4432 36.9195 18.4226 36.7062 18.4707 36.5031V36.4999Z" fill="#121420"/>
<path d="M30.9641 35.4139C31.593 35.3636 31.9074 36.3582 31.3603 36.9877C30.9093 37.4846 30.2867 37.7917 29.6182 37.8469C28.8635 37.9508 28.7598 37.5605 28.7598 37.5605C28.7598 37.5605 29.5113 37.4157 29.7031 36.9058C29.8509 36.5313 30.0207 35.4863 30.9641 35.4139Z" fill="#121420"/>
<path d="M20.3598 36.9279C20.7309 37.0844 21.1136 37.2117 21.5044 37.3087C21.8796 37.3941 22.2651 37.4248 22.649 37.4C23.05 37.3585 23.4473 37.287 23.8376 37.186C24.2645 37.0855 24.701 37.0317 25.1395 37.0255C26.0514 37.0255 26.8564 37.3559 27.6551 37.4503C28.0449 37.5033 28.4396 37.5107 28.8312 37.4724C29.221 37.4218 29.6045 37.3311 29.9758 37.2017C30.0181 37.188 30.0627 37.1829 30.107 37.1866C30.1513 37.1903 30.1944 37.2028 30.2339 37.2232C30.2734 37.2437 30.3084 37.2719 30.337 37.306C30.3655 37.3401 30.387 37.3795 30.4003 37.422C30.4139 37.4644 30.419 37.509 30.4154 37.5534C30.4117 37.5977 30.3992 37.6409 30.3787 37.6804C30.3583 37.7199 30.3302 37.755 30.2961 37.7836C30.262 37.8121 30.2226 37.8337 30.1802 37.8469C29.7568 37.9667 29.323 38.0457 28.8846 38.083C28.4445 38.1107 28.0026 38.0896 27.5671 38.02C26.7086 37.8847 25.9193 37.5762 25.1489 37.5762C24.753 37.5839 24.3594 37.6378 23.976 37.7368C23.5626 37.8477 23.1424 37.9318 22.7182 37.9886C21.835 38.0509 20.949 37.9165 20.124 37.5951C20.0349 37.5645 19.9615 37.5001 19.9196 37.4157C19.9018 37.3728 19.8926 37.3268 19.8926 37.2804C19.8926 37.2339 19.9018 37.1879 19.9196 37.1451C19.9338 37.1004 19.957 37.0592 19.9878 37.024C20.0187 36.9888 20.0565 36.9604 20.0988 36.9405C20.1833 36.9 20.28 36.8932 20.3692 36.9216L20.3598 36.9279Z" fill="#121420"/>
<path d="M15.0161 27.2372L14.252 26.293L16.0695 26.6329C15.8588 26.6437 15.6537 26.7041 15.4706 26.8091C15.2876 26.914 15.1319 27.0607 15.0161 27.2372Z" fill="#121420"/>
<path d="M14.897 27.4038C14.7712 27.2936 14.6392 27.1834 14.5102 27.0575C14.3302 26.8836 14.1611 26.6986 14.004 26.5036C13.9628 26.4522 13.9377 26.3898 13.9316 26.3242C13.933 26.2607 13.9514 26.1987 13.9851 26.1448C14.0177 26.0881 14.0672 26.043 14.1266 26.0157C14.1863 25.9874 14.2534 25.9786 14.3184 25.9906C14.9253 26.0976 15.5322 26.214 16.1297 26.3714H16.1674C16.2273 26.3964 16.2767 26.4414 16.3071 26.4988C16.3376 26.5563 16.3471 26.6225 16.3341 26.6861C16.328 26.749 16.2988 26.8073 16.2523 26.8498C16.2086 26.8943 16.1508 26.9222 16.0888 26.9285C16.0035 26.927 15.9182 26.9333 15.8341 26.9474C15.7451 26.959 15.6576 26.9801 15.5731 27.0103C15.4877 27.0357 15.4054 27.0705 15.3278 27.1142C15.2876 27.1379 15.2497 27.1653 15.2146 27.196L15.1863 27.2149C15.1732 27.2349 15.1573 27.2529 15.1391 27.2684C15.1068 27.2972 15.0709 27.3215 15.0322 27.3408L14.897 27.4038ZM15.0165 26.9977C15.0401 26.9542 15.0664 26.9122 15.0951 26.8718C15.1749 26.7708 15.2718 26.6845 15.3813 26.6169C15.5879 26.4789 15.8236 26.3905 16.0699 26.3588L16.029 26.9159C15.419 26.8404 14.809 26.7334 14.2052 26.6295L14.5197 26.1102C14.6188 26.227 14.7042 26.3548 14.7744 26.491L14.9882 26.9442L15.0165 26.9977Z" fill="#121420"/>
<path d="M19.3303 29.3268C19.283 28.8876 19.1166 28.4697 18.8492 28.1182C18.5813 27.7597 18.2363 27.4661 17.8398 27.259C17.4392 27.0551 16.9967 26.9474 16.5474 26.9442C16.0908 26.9355 15.6369 27.0157 15.2109 27.1803L15.4059 26.8939C15.3927 27.2315 15.4191 27.5695 15.4845 27.901C15.5515 28.2329 15.6714 28.5517 15.8398 28.8453C16.0046 29.137 16.2432 29.3802 16.5316 29.5503C16.8309 29.7233 17.1675 29.8215 17.5127 29.8367C17.5373 29.8398 17.5598 29.8522 17.5756 29.8713C17.5838 29.8802 17.5899 29.8906 17.5937 29.902C17.5975 29.9134 17.5988 29.9255 17.5976 29.9374C17.598 29.9494 17.5957 29.9613 17.5908 29.9722C17.5858 29.9831 17.5785 29.9927 17.5693 30.0004C17.561 30.0085 17.5512 30.0149 17.5404 30.0193C17.5296 30.0236 17.5181 30.0257 17.5064 30.0256C17.1238 30.0416 16.7427 29.9683 16.3933 29.8115C16.0386 29.6419 15.7332 29.3839 15.5065 29.0624C15.2868 28.7437 15.1191 28.3921 15.0097 28.0206C14.8981 27.6482 14.8326 27.2634 14.8147 26.875C14.812 26.8123 14.8296 26.7505 14.865 26.6987C14.8987 26.646 14.95 26.607 15.0097 26.5886C15.5103 26.392 16.0443 26.2947 16.582 26.3022C17.1178 26.3118 17.6443 26.4446 18.1208 26.6902C18.5973 26.9357 19.0111 27.2875 19.3303 27.7185C19.6659 28.1588 19.8718 28.6843 19.9246 29.2356C19.9291 29.2746 19.9253 29.3142 19.9134 29.3516C19.9014 29.389 19.8817 29.4235 19.8554 29.4527C19.831 29.4834 19.8005 29.5087 19.7659 29.5272C19.7313 29.5456 19.6932 29.5567 19.6542 29.5597C19.5747 29.5654 19.496 29.5407 19.434 29.4905C19.3763 29.4394 19.3394 29.3688 19.3303 29.2922V29.3268Z" fill="#121420"/>
<path d="M21.3911 28.0586C21.2021 28.301 20.9446 28.4808 20.6522 28.5748C20.3714 28.6536 20.0744 28.6536 19.7937 28.5748C19.2975 28.4219 18.859 28.1224 18.5359 27.7156C18.4921 27.6652 18.4696 27.5997 18.473 27.533C18.4742 27.5006 18.4821 27.4688 18.4962 27.4395C18.5102 27.4103 18.5302 27.3842 18.5548 27.3631C18.604 27.3194 18.6683 27.2968 18.734 27.3001C18.7668 27.3015 18.7991 27.3094 18.8288 27.3235C18.8585 27.3375 18.8851 27.3574 18.9069 27.3819C19.184 27.6772 19.5434 27.8822 19.9383 27.9705C20.1077 28.0035 20.2828 27.9893 20.4446 27.9296C20.5902 27.8626 20.7119 27.7528 20.7937 27.6149C20.852 27.5352 20.9387 27.4811 21.0358 27.4638C21.1319 27.446 21.2312 27.4662 21.3128 27.5202C21.3943 27.5742 21.4517 27.6578 21.4729 27.7533C21.4949 27.8479 21.4791 27.9473 21.4289 28.0303L21.41 28.0586H21.3911Z" fill="#121420"/>
<path d="M32.9696 27.3725C32.9914 27.5771 32.9699 27.7841 32.9067 27.9799C32.8468 28.1761 32.746 28.3574 32.6111 28.5118C32.4761 28.6662 32.3111 28.7915 32.1263 28.8802C31.9414 28.969 31.7405 29.0192 31.5357 29.028C31.3309 29.0339 31.1268 28.9997 30.9351 28.9273C30.7436 28.8516 30.5693 28.7382 30.4225 28.5937C30.2766 28.4494 30.1619 28.2765 30.0856 28.0859C30.0093 27.8953 29.9731 27.691 29.9792 27.4858C29.9572 26.9129 30.8062 26.2803 31.6332 26.252C32.4602 26.2237 32.9382 26.4943 32.9696 27.3725Z" fill="url(#paint1_linear)" stroke="#090C1B" stroke-width="1.01" stroke-miterlimit="10"/>
<path d="M29.2542 28.6629C29.1661 29.3805 29.3768 29.8558 29.7919 29.8558C30.2069 29.8558 30.1472 29.3301 29.8705 29.135C29.791 29.0626 29.7323 28.9703 29.7007 28.8675C29.6715 28.7646 29.6715 28.6556 29.7007 28.5527L29.2542 28.6629Z" fill="#121420"/>
<path d="M31.9717 27.5169C31.9874 27.5895 31.9874 27.6647 31.9717 27.7372C31.9546 27.8102 31.9225 27.8788 31.8774 27.9387C31.8314 27.9974 31.7736 28.0457 31.7076 28.0803C31.6414 28.1148 31.5683 28.1342 31.4937 28.137C31.4193 28.1393 31.3452 28.1253 31.2767 28.0961C31.207 28.0674 31.1446 28.0233 31.0944 27.967C31.0461 27.9109 31.0098 27.8456 30.9875 27.775C30.9703 27.7026 30.9703 27.6271 30.9875 27.5547C30.9765 27.4848 30.981 27.4134 31.0005 27.3454C31.0201 27.2775 31.0543 27.2146 31.1007 27.1613C31.1454 27.1073 31.201 27.0634 31.2639 27.0325C31.3267 27.0016 31.3954 26.9843 31.4654 26.9819C31.5362 26.979 31.6069 26.9908 31.673 27.0165C31.7372 27.0445 31.7958 27.084 31.8459 27.1329C31.8947 27.1832 31.9323 27.2433 31.956 27.3092C31.9804 27.3756 31.9911 27.4463 31.9874 27.5169H31.9717Z" fill="#121420"/>
<path d="M32.6944 27.3567C32.815 27.3263 32.9233 27.2597 33.0048 27.1657C33.0862 27.0717 33.1369 26.955 33.1499 26.8313C33.1629 26.7075 33.1377 26.5828 33.0776 26.4739C33.0175 26.365 32.9254 26.2772 32.8139 26.2224C32.7023 26.1675 32.5766 26.1483 32.4538 26.1673C32.3309 26.1863 32.2169 26.2425 32.127 26.3285C32.0372 26.4145 31.9758 26.526 31.9513 26.6479C31.9269 26.7699 31.9404 26.8965 31.9901 27.0105C32.038 27.1496 32.139 27.2641 32.2709 27.329C32.4029 27.3938 32.5552 27.4038 32.6944 27.3567Z" fill="white"/>
<path d="M33.8873 26.5385L34.5822 25.5439L32.793 26.0161C33.0033 26.0124 33.2117 26.0577 33.4016 26.1483C33.5915 26.239 33.7577 26.3726 33.8873 26.5385Z" fill="#121420"/>
<path d="M33.8726 26.2997L33.8977 26.2399L34.099 25.7646C34.1589 25.6232 34.2349 25.4891 34.3254 25.3649L34.6681 25.8591C34.0738 26.0196 33.4795 26.1738 32.8726 26.2934L32.7909 25.7395C32.9167 25.7472 33.0412 25.7693 33.1619 25.8056C33.2795 25.84 33.3925 25.8886 33.4984 25.9503C33.6057 26.0107 33.7024 26.0883 33.7845 26.1801C33.8176 26.2171 33.8471 26.2571 33.8726 26.2997ZM34.0235 26.6994L33.8914 26.6365C33.853 26.6175 33.8162 26.5954 33.7814 26.5704C33.7621 26.5553 33.7442 26.5384 33.7279 26.52L33.6996 26.5011C33.6619 26.476 33.621 26.4539 33.5801 26.4319C33.4989 26.3927 33.4135 26.3631 33.3254 26.3438C33.2396 26.3227 33.1524 26.308 33.0644 26.2997C32.9796 26.2934 32.8945 26.2934 32.8097 26.2997C32.736 26.3063 32.6626 26.2837 32.6053 26.2368C32.5768 26.2143 32.5532 26.1862 32.5359 26.1543C32.5186 26.1224 32.508 26.0872 32.5047 26.0511C32.5001 25.9901 32.5156 25.9293 32.5487 25.878C32.5832 25.8253 32.634 25.7855 32.6934 25.7646H32.728C33.3003 25.5695 33.9072 25.409 34.5046 25.2548C34.568 25.2341 34.6362 25.2341 34.6996 25.2548C34.7635 25.2778 34.8182 25.3208 34.8557 25.3776C34.8931 25.4343 34.9111 25.5016 34.9071 25.5695C34.908 25.6353 34.887 25.6996 34.8474 25.7521C34.7057 25.9596 34.5503 26.1573 34.382 26.3438C34.2625 26.4602 34.1461 26.5798 34.0235 26.6994Z" fill="#121420"/>
<path d="M29.1443 28.94C29.1617 28.3917 29.3281 27.8585 29.6255 27.3978C29.9119 26.9347 30.3013 26.5442 30.7633 26.2565C31.2252 25.9688 31.7473 25.7917 32.2889 25.7391C32.8184 25.6938 33.3517 25.7483 33.8611 25.8996C33.9176 25.9178 33.9677 25.9516 34.0058 25.9972C34.0452 26.0432 34.0694 26.1004 34.075 26.1608C34.0839 26.5457 34.0469 26.9303 33.9649 27.3065C33.8833 27.6867 33.741 28.0512 33.5435 28.3861C33.3389 28.7268 33.0497 29.0087 32.7039 29.2044C32.3665 29.3839 31.9917 29.482 31.6097 29.4908C31.5973 29.4939 31.5843 29.4939 31.5719 29.4908C31.5602 29.4869 31.5495 29.4804 31.5405 29.4719C31.5308 29.4646 31.5232 29.4548 31.5185 29.4436C31.5157 29.4322 31.5157 29.4203 31.5185 29.409C31.5174 29.385 31.5253 29.3614 31.5405 29.3429C31.5513 29.3199 31.5704 29.302 31.5939 29.2925C31.9315 29.2479 32.2542 29.1262 32.5373 28.9369C32.8086 28.7437 33.0253 28.4834 33.1662 28.1815C33.3144 27.8742 33.4111 27.5445 33.4523 27.2058C33.4932 26.8702 33.4932 26.531 33.4523 26.1954L33.6662 26.4567C33.2295 26.3243 32.7716 26.2773 32.3172 26.3182C31.8705 26.3598 31.4398 26.5053 31.0594 26.7431C30.6777 26.9825 30.3552 27.3053 30.116 27.6873C29.8769 28.058 29.7422 28.4865 29.7261 28.9274C29.7407 28.9745 29.744 29.0244 29.7359 29.073C29.7277 29.1217 29.7082 29.1677 29.679 29.2074C29.6497 29.2471 29.6116 29.2794 29.5676 29.3017C29.5236 29.3239 29.4751 29.3355 29.4258 29.3355C29.3765 29.3355 29.3279 29.3239 29.2839 29.3017C29.24 29.2794 29.2018 29.2471 29.1726 29.2074C29.1434 29.1677 29.1239 29.1217 29.1157 29.073C29.1075 29.0244 29.1109 28.9745 29.1255 28.9274L29.1443 28.94Z" fill="#121420"/>
<path d="M28.1765 27.3379C28.2688 27.4684 28.398 27.5681 28.5475 27.6243C28.713 27.6715 28.8883 27.6715 29.0538 27.6243C29.4456 27.5091 29.7932 27.2775 30.0506 26.9602C30.0918 26.9195 30.1469 26.8959 30.2047 26.8941C30.2611 26.8902 30.317 26.907 30.3619 26.9413C30.4121 26.9743 30.4483 27.0248 30.4634 27.0829C30.4785 27.1411 30.4715 27.2028 30.4437 27.2561C30.1497 27.6945 29.7282 28.0318 29.2362 28.2223C28.9618 28.3238 28.6648 28.3478 28.3777 28.2916C28.0788 28.2198 27.809 28.0584 27.6042 27.8289C27.57 27.7918 27.5437 27.7481 27.5269 27.7005C27.5102 27.6528 27.5033 27.6023 27.5067 27.5519C27.5128 27.4508 27.5579 27.356 27.6325 27.2875C27.6702 27.2536 27.7142 27.2276 27.762 27.2108C27.8098 27.194 27.8605 27.1869 27.911 27.1898C27.9616 27.1927 28.0111 27.2057 28.0567 27.2278C28.1022 27.25 28.143 27.281 28.1765 27.319V27.3379Z" fill="#121420"/>
<path d="M41.9828 12.0032L42.2689 12.0378C42.366 12.0318 42.4596 11.9992 42.5394 11.9434C43.1117 11.5594 42.9481 10.8606 42.8978 10.2847C42.8695 9.93845 42.8318 9.59223 42.7752 9.24601C42.7529 8.97931 42.6848 8.71845 42.5739 8.47489C42.4167 8.20107 42.1274 8.18848 41.8444 8.18848C41.5614 8.18848 41.2847 8.21995 41.1935 8.47489C41.1301 8.77194 41.1216 9.07808 41.1684 9.3782C41.1684 9.71183 41.2155 10.0455 41.2407 10.3822C41.2627 10.6686 41.2878 10.9362 41.3319 11.21C41.3655 11.3013 41.4043 11.3907 41.4482 11.4775C41.5475 11.7 41.724 11.8789 41.945 11.9811L41.9828 12.0032ZM41.3979 10.8197C41.3665 10.6588 41.3475 10.4957 41.3413 10.3319V10.0738C41.345 10.0027 41.3599 9.93256 41.3853 9.86605C41.4241 9.95836 41.4536 10.0543 41.4734 10.1525C41.4954 10.2469 41.5174 10.3413 41.5425 10.4389C41.5897 10.612 41.6306 10.7851 41.6935 10.9551C41.7377 11.0929 41.8058 11.2218 41.8947 11.3359C41.935 11.3889 41.9839 11.4346 42.0394 11.4712L42.2092 11.5468C42.2463 11.5551 42.2787 11.5774 42.2998 11.6091C42.3209 11.6407 42.329 11.6793 42.3224 11.7167C42.3133 11.7547 42.291 11.7882 42.2595 11.8112C42.2276 11.8311 42.1897 11.8389 42.1526 11.8332C42.0074 11.8135 41.8721 11.7485 41.7658 11.6475C41.5529 11.4214 41.4231 11.1294 41.3979 10.8197Z" fill="#CAD2DA"/>
<path d="M42.4898 12.4033C42.7162 15.4941 43.0558 18.5733 43.5087 21.641C42.798 21.0115 42.5653 20.0673 42.3389 19.1577C42.1565 17.5525 42.0244 15.9379 41.9018 14.3264C41.8735 13.9519 41.8452 13.5679 41.82 13.1807C41.8021 13.0452 41.8096 12.9075 41.842 12.7747C41.9332 12.4852 42.2351 12.4663 42.4898 12.4033Z" fill="#CAD2DA"/>
<path d="M38.1068 51.0286C37.5073 51.293 36.8972 51.5322 36.2767 51.7462C33.7239 52.5778 31.0694 53.0554 28.3871 53.1657C27.0255 53.2413 25.6608 53.2633 24.2992 53.2916C22.9376 53.3199 21.5509 53.342 20.1767 53.2759C17.7083 53.1626 15.2115 52.7471 12.9978 51.5983L12.916 51.5542C13.1604 51.8615 13.4498 52.13 13.7745 52.3505C14.5289 52.82 15.3405 53.1903 16.1895 53.4521L17.7837 54.025L18.1674 54.1572C19.327 54.3868 20.4986 54.5507 21.6767 54.6482C24.2029 54.8816 26.7441 54.9026 29.2738 54.7111C31.7671 54.5443 34.2169 53.9746 36.5283 53.0241C37.5736 52.6059 38.541 52.0143 39.3898 51.2741C39.8274 50.9088 40.1858 50.4579 40.4432 49.949C40.5083 49.8242 40.5438 49.686 40.5471 49.5452C40.5504 49.4044 40.5213 49.2648 40.4621 49.137C40.4221 49.061 40.3676 48.9936 40.3017 48.9387C40.2355 48.8841 40.1582 48.8444 40.0753 48.8223C40.0347 49.2779 39.8693 49.7136 39.5973 50.0812C39.2326 50.5628 38.6414 50.7926 38.1068 51.0286Z" fill="#4071B3"/>
<path d="M39.1964 46.1345C39.1964 46.1785 39.2247 46.2226 39.2373 46.2635C39.2848 46.4194 39.3061 46.5822 39.3002 46.7451C39.3093 46.8163 39.2985 46.8887 39.2691 46.9543C39.2397 47.0198 39.1928 47.0759 39.1335 47.1165C39.1052 47.1322 39.0486 47.0881 39.0266 47.0787C38.9668 47.0283 38.9194 46.9648 38.8883 46.893C38.8641 46.8484 38.8431 46.8021 38.8254 46.7545V46.723V46.6947C38.7935 46.6263 38.7662 46.5559 38.7436 46.4838L38.687 46.5216C36.3601 48.0953 33.6275 48.9514 30.8509 49.2819C29.8402 49.4794 28.8166 49.6035 27.7881 49.6533C25.9265 49.7792 24.0713 49.7603 22.1908 49.7886C21.2475 49.7886 20.3356 49.8296 19.4111 49.8831C19.1994 49.8752 18.9876 49.8974 18.7822 49.9492C18.7067 49.9743 18.6218 50.0247 18.6155 50.116C18.6092 50.2072 18.7099 50.308 18.7853 50.3709C19.1127 50.64 19.4884 50.844 19.8922 50.9721C19.8989 50.9739 19.9051 50.977 19.9105 50.9814C19.916 50.9857 19.9204 50.9911 19.9236 50.9973C19.9267 51.0031 19.9283 51.0096 19.9283 51.0161C19.9283 51.0227 19.9267 51.0292 19.9236 51.035C19.9202 51.0478 19.9124 51.0589 19.9016 51.0665C19.8884 51.071 19.874 51.071 19.8607 51.0665C19.713 51.0287 19.6218 51.1987 19.6218 51.3246C19.6218 51.4505 19.7821 51.611 19.9079 51.6677C20.0672 51.7376 20.2311 51.7965 20.3985 51.8439L20.9456 52.0107C22.2832 52.3738 23.6518 52.6109 25.0335 52.7189C25.7221 52.7787 26.4108 52.8165 27.0994 52.8448L27.7912 52.87C28.2818 52.8448 28.7692 52.8196 29.2597 52.7818C31.8253 52.6248 34.3556 52.1045 36.7751 51.2365C37.3663 51.0161 37.9512 50.7738 38.5204 50.5C39.6021 49.9775 39.8945 48.7815 39.8002 47.6673C39.7486 47.09 39.6152 46.523 39.404 45.9834L39.1964 46.1345ZM38.97 49.647C38.505 50.1017 37.941 50.4421 37.3223 50.6416C36.6637 50.8964 35.9825 51.0882 35.2878 51.2144C34.5958 51.3761 33.884 51.4366 33.1747 51.3938C33.7816 51.1672 34.4073 51.0161 35.0205 50.821C35.6337 50.6259 36.2249 50.4024 36.8192 50.1632C37.3655 49.9916 37.8774 49.7252 38.3317 49.3763C38.5196 49.2163 38.6663 49.0133 38.7593 48.7846C38.8128 48.6556 38.8254 48.5171 38.8725 48.388C38.9172 48.2733 38.9698 48.1619 39.0298 48.0544C39.039 48.0362 39.0532 48.021 39.0706 48.0103C39.0872 47.998 39.1067 47.9904 39.1272 47.9883C39.1469 47.9836 39.1674 47.9836 39.187 47.9883C39.2064 47.9938 39.2238 48.0048 39.2373 48.0198C39.7499 48.4856 39.3348 49.2567 38.97 49.669V49.647Z" fill="#4071B3"/>
<path d="M5.97344 22.5282C5.66531 22.5855 5.37782 22.7234 5.14014 22.9279C4.96328 23.1799 4.84117 23.4661 4.78166 23.7683C4.69047 24.083 4.62129 24.4229 4.5584 24.7534C4.06057 27.1644 3.74522 29.6095 3.61504 32.068C3.58988 32.6975 3.5836 33.327 3.61504 33.9565C3.6701 34.1545 3.77767 34.334 3.92635 34.4758C4.02725 34.5631 4.15788 34.6082 4.29111 34.6017C4.42493 34.5945 4.55045 34.5345 4.64016 34.4349C4.81415 34.2168 4.94345 33.9665 5.02064 33.6984C5.10523 33.4295 5.17556 33.1564 5.23133 32.8801C5.3634 32.2695 5.47031 31.6557 5.58666 31.042C5.77219 30.0505 5.94513 29.0591 6.13695 28.0739C6.32248 26.1162 6.49857 24.1554 6.81617 22.2197C6.54348 22.3438 6.26176 22.4469 5.97344 22.5282Z" fill="#4071B3"/>
<path d="M11.784 15.2582C12.0917 15.2227 12.3965 15.1648 12.6959 15.0851L15.0228 14.5909L15.8561 14.4115C17.1939 14.0019 18.5603 13.6926 19.944 13.4862C22.6838 13.0736 25.4649 13.0112 28.2204 13.3005C30.9971 13.5807 33.737 14.1493 36.3962 14.9969C37.5369 15.3154 38.6334 15.7754 39.6602 16.3661C39.7631 16.3945 39.8718 16.3945 39.9746 16.3661C40.0735 16.3408 40.1643 16.291 40.2388 16.2213C40.2877 16.173 40.3263 16.1151 40.352 16.0513C40.3769 15.9871 40.3897 15.9188 40.3897 15.8499C39.6321 14.3986 38.7042 13.043 37.6257 11.8117C36.9089 10.9744 36.0866 10.2338 35.1792 9.60854C34.3192 9.03778 33.3918 8.57579 32.4184 8.23312C30.3912 7.55487 28.2824 7.15155 26.1482 7.03395C25.2605 6.96785 24.3692 6.96785 23.4816 7.03395C21.3475 7.15182 19.2387 7.55512 17.2114 8.23312C16.2369 8.57971 15.3086 9.04482 14.4474 9.61798C13.7322 10.1062 13.0722 10.6709 12.4789 11.3019L12.4003 11.4183C12.9005 10.9721 13.43 10.5599 13.9851 10.1845C14.6794 9.72399 15.4165 9.33188 16.1863 9.01368C16.9318 8.67019 17.7247 8.441 18.5384 8.33383V8.35272C17.7114 8.70523 16.8592 8.9822 16.0574 9.38822C14.6061 10.1153 13.2887 11.0838 12.1613 12.2524C11.7714 12.6678 11.4035 13.1116 11.0544 13.5491C10.9665 13.7551 10.895 13.9677 10.8406 14.1849C10.7888 14.3401 10.779 14.5063 10.8123 14.6665C10.8462 14.8262 10.9222 14.974 11.0324 15.0945C11.2478 15.2441 11.512 15.306 11.7714 15.2676L11.784 15.2582ZM32.8271 8.96332C33.4147 9.12843 33.972 9.38664 34.478 9.72814C34.995 10.0443 35.486 10.4011 35.9465 10.7951C36.4085 11.1872 36.8395 11.6144 37.2358 12.073C37.4454 12.304 37.6417 12.5467 37.8238 12.8C37.9892 13.0523 38.1154 13.3282 38.198 13.6184C38.2294 13.7128 38.1099 13.7631 38.0439 13.7096C37.915 13.5995 37.7766 13.5113 37.6603 13.3949C37.5574 13.2915 37.4618 13.181 37.3741 13.0644C37.1855 12.8409 37.0031 12.6143 36.8018 12.394C36.419 11.9528 36.0128 11.5326 35.5849 11.135C35.1541 10.7322 34.6981 10.3576 34.2359 9.98938C33.7736 9.62113 33.2485 9.33472 32.8051 8.95073C32.8051 8.95073 32.8051 8.95073 32.8303 8.95073L32.8271 8.96332Z" fill="#4071B3"/>
<path d="M4.01187 25.9652L4.15023 25.1973C4.06847 25.2224 3.98671 25.2508 3.90496 25.2822C3.73972 25.3457 3.5897 25.4433 3.46472 25.5687C3.23861 25.8552 3.07378 26.1851 2.98047 26.5381C2.49629 27.9533 2.19408 29.4245 2.08113 30.9161C2.03711 31.4606 2.03711 32.0051 2.03711 32.5528C2.07377 32.5729 2.11407 32.5855 2.15564 32.5898C2.19721 32.5941 2.23923 32.5901 2.27924 32.578C2.31909 32.5665 2.35627 32.5472 2.38865 32.5213C2.42103 32.4954 2.44797 32.4633 2.46791 32.4269C2.55427 32.2867 2.62094 32.1352 2.66601 31.9768C2.71947 31.8037 2.77922 31.6275 2.83582 31.4543C2.94588 31.105 3.05594 30.7556 3.15027 30.4063C3.28234 29.9939 3.39869 29.5753 3.52447 29.1473C3.58107 28.7098 3.63767 28.2692 3.70371 27.8317C3.7949 27.2085 3.90181 26.5821 4.01187 25.9652Z" fill="#4071B3"/>
<path d="M46.424 26.5382C46.3354 26.1789 46.1726 25.8423 45.946 25.5499C45.8214 25.424 45.6713 25.3264 45.5058 25.2635C45.4272 25.232 45.3423 25.2068 45.2637 25.1816C45.3108 25.4366 45.3549 25.6947 45.3989 25.9496C45.5121 26.5791 45.619 27.2086 45.7133 27.8381C45.902 29.097 46.0278 30.3843 46.1127 31.6622V31.8101C46.1085 31.8516 46.1173 31.8934 46.1379 31.9297C46.1856 32.2209 46.2823 32.5019 46.424 32.7606C46.4862 32.8762 46.5877 32.9655 46.7102 33.0124C46.7758 33.0278 46.8445 33.0235 46.9077 33C46.9709 32.9765 47.0258 32.9348 47.0655 32.8802C47.1824 32.7267 47.2786 32.5584 47.3516 32.3798C47.3516 31.892 47.3359 31.4072 47.3076 30.9194C47.2014 29.4303 46.9044 27.961 46.424 26.5476V26.5382Z" fill="#4071B3"/>
<path d="M42.6569 23.7344C42.5406 22.7901 42.3708 21.8774 42.1695 20.9615C41.8834 19.627 41.3519 18.1666 40.3048 17.2381C39.7721 16.7897 39.178 16.4198 38.5407 16.1396C37.4212 15.6516 36.2645 15.2538 35.0817 14.9499C32.4694 14.1934 29.785 13.7134 27.0726 13.5178C24.3827 13.32 21.6785 13.467 19.0258 13.9553C16.4504 14.4432 13.8279 15.2552 11.5701 16.6275C9.74919 17.7068 8.27586 19.2863 7.32501 21.1787C7.14892 22.019 7.01056 22.872 6.90993 23.7344C6.77786 24.8465 6.65627 25.9575 6.54517 27.0675C6.50429 28.38 6.50743 29.6925 6.56403 31.0049C6.63712 33.2409 6.87783 35.4682 7.28413 37.668C7.66147 39.5911 8.22749 41.5834 9.39411 43.1886C9.95447 43.9806 10.6949 44.6279 11.5544 45.0771C12.4963 45.523 13.4645 45.9108 14.4537 46.2385C16.4575 47.0455 18.5384 47.6456 20.6641 48.0293C22.8342 48.3409 25.0377 48.3409 27.2078 48.0293C29.3073 47.7617 31.3785 47.3056 33.3963 46.6665C35.2831 46.0718 37.067 45.1896 38.6854 44.051C40.2041 42.9716 41.4808 41.5865 42.4336 39.9845C42.8953 39.2073 43.2546 38.3737 43.5028 37.5044C43.5562 37.3281 43.5971 37.1456 43.638 36.9662C43.7067 34.9387 43.6194 32.9089 43.377 30.8948C43.1695 28.4996 42.9431 26.1138 42.6569 23.7344ZM28.4059 46.9183C28.1742 47.1093 27.9129 47.2614 27.6324 47.3684C27.3392 47.4907 27.0299 47.5702 26.7142 47.6044C26.0726 47.6941 25.424 47.7225 24.7771 47.6894C24.128 47.6622 23.4822 47.5812 22.8464 47.4471C22.5319 47.3841 22.2364 47.296 21.9408 47.2047C21.6518 47.1298 21.3767 47.0086 21.1263 46.8459C21.1263 46.8459 21.1075 46.7987 21.1263 46.7956C21.4116 46.7641 21.6995 46.7641 21.9848 46.7956C22.2992 46.8176 22.6137 46.827 22.9282 46.8396C23.5319 46.8617 24.1388 46.8648 24.7425 46.8396C25.3463 46.8144 25.9783 46.7578 26.5947 46.7043C26.8934 46.6738 27.1938 46.6623 27.494 46.6697C27.7899 46.67 28.0845 46.707 28.3713 46.7798C28.3862 46.7828 28.4002 46.7893 28.4122 46.7987C28.4231 46.8088 28.4308 46.822 28.4342 46.8365C28.439 46.8508 28.439 46.8662 28.4342 46.8805C28.4295 46.8945 28.422 46.9073 28.4122 46.9183H28.4059ZM23.6703 46.0842C23.8339 45.9588 24.0366 45.8952 24.2426 45.9048C24.469 45.8828 24.6922 45.8797 24.9155 45.8797C25.148 45.8765 25.3804 45.8923 25.6104 45.9269C25.8245 45.9685 26.0348 46.0274 26.2393 46.1031C26.2531 46.1087 26.265 46.1183 26.2734 46.1306C26.2818 46.1429 26.2863 46.1575 26.2865 46.1724C26.2906 46.1857 26.2906 46.2 26.2865 46.2133C26.2831 46.2199 26.2782 46.2256 26.2722 46.23C26.2662 46.2344 26.2593 46.2373 26.2519 46.2385C26.0513 46.331 25.8401 46.3986 25.623 46.4399C25.3848 46.4761 25.1432 46.4856 24.9029 46.4682C24.6642 46.4561 24.4267 46.4267 24.1922 46.3801C23.9965 46.3589 23.8148 46.2685 23.6797 46.1252C23.678 46.1217 23.6772 46.118 23.6772 46.1141C23.6772 46.1103 23.678 46.1066 23.6797 46.1031C23.6783 46.0969 23.6783 46.0905 23.6797 46.0842H23.6703ZM40.6507 35.8646C40.3714 37.4413 39.7928 38.9499 38.9464 40.3087C38.1128 41.5743 36.9881 42.6212 35.6666 43.3617C34.357 44.0827 32.9269 44.5584 31.4467 44.7655C30.3014 44.9304 29.1445 45.001 27.9877 44.9763C26.9091 44.9763 25.8368 44.8567 24.7583 44.8756C23.6797 44.8945 22.5571 44.9701 21.5037 44.9763C20.3469 45.0009 19.19 44.9303 18.0447 44.7655C16.5644 44.5584 15.1344 44.0827 13.8247 43.3617C12.5082 42.6203 11.3888 41.5733 10.5607 40.3087C9.7087 38.9548 9.12574 37.449 8.84382 35.874C8.52236 34.0979 8.44197 32.2864 8.60483 30.4887C8.77417 28.5761 9.06087 26.6756 9.46329 24.7982C9.77774 23.2623 10.1802 21.6728 11.1236 20.4673C12.1204 19.2084 13.5826 18.6418 14.9819 18.2642C16.6235 17.8388 18.3039 17.5814 19.9974 17.4962C20.837 17.4427 21.6829 17.4238 22.5131 17.4175H26.9563C27.8147 17.4175 28.6449 17.4427 29.4719 17.4962C31.1707 17.5806 32.8565 17.8379 34.5031 18.2642C35.9119 18.645 37.3804 19.2084 38.3741 20.4673C39.3174 21.6728 39.7262 23.2623 40.0344 24.7982C40.4335 26.6762 40.7202 28.5765 40.8928 30.4887C41.0609 32.2861 40.9826 34.0979 40.6601 35.874L40.6507 35.8646ZM41.8582 23.961C41.855 23.9772 41.846 23.9917 41.833 24.0019C41.8199 24.0114 41.8049 24.0178 41.789 24.0208C41.7737 24.0256 41.7572 24.0256 41.7418 24.0208C41.7273 24.0129 41.7145 24.0022 41.7041 23.9893C41.459 23.4589 41.2957 22.8943 41.2199 22.3149C41.1098 21.7263 40.9714 21.1346 40.8079 20.5555C40.6379 19.9689 40.4278 19.3947 40.179 18.837C40.0697 18.5809 39.9469 18.3309 39.8111 18.0879C39.6727 17.855 39.525 17.6378 39.3772 17.4049C39.8866 17.5969 40.2042 18.1477 40.462 18.5978C40.7701 19.139 41.0412 19.7005 41.2733 20.2785C41.522 20.852 41.7208 21.4459 41.8676 22.0537C42.0499 22.6774 42.0499 23.3404 41.8676 23.9641L41.8582 23.961Z" fill="#4071B3"/>
<path d="M44.8571 24.7535C44.7942 24.4388 44.725 24.0925 44.6338 23.7684C44.5743 23.4662 44.4522 23.18 44.2753 22.928C44.0804 22.6919 43.7219 22.6416 43.4452 22.5283C43.2188 22.4527 42.9924 22.3803 42.7754 22.2891C43.137 24.5332 43.3194 26.8245 43.5395 29.1158C43.5584 29.3236 43.5804 29.5344 43.6024 29.7453C43.762 30.8139 44.0124 31.8668 44.3508 32.8927C44.485 33.3994 44.7311 33.8694 45.0709 34.2682C45.1058 34.3093 45.1472 34.3444 45.1935 34.372C45.2404 34.3972 45.2916 34.4132 45.3445 34.4192C45.3975 34.4285 45.4518 34.4285 45.5048 34.4192C45.5556 34.4036 45.6026 34.3779 45.6432 34.3437C45.7136 34.28 45.7722 34.2044 45.8161 34.1202C45.8382 33.4498 45.835 32.7794 45.8161 32.1153C45.686 29.6464 45.3706 27.1908 44.8728 24.7692L44.8571 24.7535Z" fill="#4071B3"/>
<path d="M39.9048 26.2048C39.6187 24.6311 39.3545 23.0008 38.647 21.6253C38.3149 20.969 37.8374 20.3974 37.2508 19.954C36.6638 19.5202 36.0094 19.1863 35.3138 18.9658C33.7838 18.4676 32.2007 18.1507 30.597 18.0215C28.9471 17.8794 27.2906 17.8269 25.635 17.8642H23.8709C22.2163 17.8269 20.5609 17.8794 18.912 18.0215C17.3082 18.1506 15.7252 18.4676 14.1952 18.9658C13.4967 19.1863 12.8391 19.5202 12.2487 19.954C11.675 20.4005 11.2077 20.9693 10.8809 21.619C10.145 22.9976 9.89347 24.65 9.57902 26.2017C9.20732 28.0695 8.9844 29.9639 8.91238 31.8671C8.85533 33.5386 9.04177 35.2096 9.46581 36.8274C9.84545 38.3231 10.5438 39.7189 11.5129 40.919C12.4573 42.0132 13.6409 42.8748 14.9719 43.437C16.372 44.0215 17.86 44.3672 19.3742 44.4599C20.2044 44.5229 21.0408 44.5291 21.8898 44.5134C22.3143 44.5134 22.7483 44.4914 23.1665 44.4725C24.6476 44.4158 26.1318 44.4725 27.594 44.5134C28.4304 44.5134 29.2637 44.5134 30.1096 44.4599C31.6301 44.3686 33.1246 44.0229 34.5308 43.437C35.8628 42.8767 37.0469 42.0148 37.9898 40.919C38.9596 39.7189 39.659 38.3232 40.04 36.8274C40.4631 35.2095 40.6484 33.5385 40.5903 31.8671C40.5181 29.9639 40.2952 28.0695 39.9237 26.2017L39.9048 26.2048ZM13.6417 42.2126C12.8682 42.0553 12.2613 41.4258 11.7833 40.8341C11.5447 40.5285 11.3342 40.2019 11.1544 39.8584C10.9622 39.5363 10.8291 39.1824 10.7614 38.8134C10.9878 39.0998 11.1639 39.424 11.3745 39.723C11.5913 40.0255 11.8287 40.3127 12.0852 40.5823C12.5946 41.1236 13.2267 41.5265 13.7204 42.0899C13.7236 42.1033 13.7236 42.1174 13.7204 42.1308C13.7234 42.1432 13.7234 42.1562 13.7204 42.1686C13.7136 42.1812 13.7039 42.192 13.6921 42.2C13.6797 42.2031 13.6667 42.2031 13.6543 42.2L13.6417 42.2126ZM37.471 40.7806C37.2647 41.1915 36.9519 41.5393 36.5653 41.7877C36.3755 41.9176 36.1745 42.0303 35.9647 42.1245C35.8641 42.1723 35.7587 42.2092 35.6503 42.2347C35.6 42.25 35.5484 42.2605 35.4962 42.2661C35.4429 42.2723 35.3891 42.2723 35.3358 42.2661C35.3767 42.2284 35.4113 42.1843 35.449 42.1465C35.4868 42.1088 35.5339 42.0962 35.5717 42.0679C35.666 42.0049 35.7635 41.9545 35.8578 41.8947C36.0402 41.7877 36.2226 41.6744 36.3955 41.5485C36.5685 41.4226 36.7446 41.2873 36.9112 41.152C37.0779 41.0166 37.2257 40.8655 37.4112 40.7491C37.4489 40.7208 37.4898 40.7837 37.4741 40.8246L37.471 40.7806ZM39.5652 35.3418C39.2977 36.7495 38.7537 38.09 37.9646 39.2855C37.1773 40.4204 36.1304 41.3506 34.9113 41.9986C33.6891 42.6449 32.3629 43.0711 30.9932 43.2576C29.9273 43.4023 28.8519 43.4654 27.7764 43.4464C26.7701 43.4464 25.7733 43.3394 24.7702 43.3552C23.7671 43.3709 22.7326 43.437 21.7358 43.4464C20.6623 43.4655 19.589 43.4023 18.5252 43.2576C17.1476 43.0707 15.8132 42.6447 14.582 41.9986C13.3679 41.3496 12.3256 40.4207 11.5412 39.2887C10.7527 38.0943 10.2096 36.7547 9.94378 35.3481C9.6371 33.7687 9.55663 32.1536 9.7048 30.5514C9.87156 28.849 10.1446 27.1587 10.5224 25.4904C10.579 25.2039 10.6387 24.9396 10.7079 24.6657C10.7016 24.641 10.7016 24.615 10.7079 24.5902C10.7141 24.5642 10.7272 24.5403 10.7456 24.521C10.9747 23.4758 11.4262 22.4925 12.0695 21.6379C12.9908 20.5143 14.3587 20.017 15.67 19.6771C17.203 19.2991 18.7689 19.0704 20.3459 18.9941C21.1289 18.9469 21.9181 18.928 22.698 18.9248H26.811C27.594 18.9248 28.3833 18.9469 29.1663 18.9941C30.7478 19.0707 32.318 19.3016 33.8548 19.6834C35.166 20.0201 36.5339 20.5206 37.4584 21.6442C38.3326 22.7143 38.7162 24.1307 39.0055 25.4998C39.3696 27.1607 39.631 28.8426 39.7885 30.5357C39.9456 32.1387 39.8736 33.756 39.5746 35.3387L39.5652 35.3418Z" fill="#FE5D00"/>
<path d="M40.0524 24.7889C39.738 23.253 39.3324 21.6635 38.389 20.4581C37.3985 19.1991 35.93 18.6326 34.5212 18.2549C32.8745 17.8288 31.1887 17.5715 29.49 17.4869C28.6504 17.4334 27.8045 17.4145 26.9744 17.4082H22.5437C21.6853 17.4082 20.8551 17.4334 20.0281 17.4869C18.3294 17.572 16.6437 17.8293 14.9969 18.2549C13.585 18.6357 12.1165 19.1991 11.1291 20.4581C10.1857 21.6635 9.77381 23.253 9.46565 24.7889C9.06629 26.6669 8.77963 28.5672 8.60719 30.4795C8.44389 32.2783 8.52534 34.091 8.84932 35.8679C9.1278 37.4443 9.70755 38.9522 10.5568 40.3089C11.3893 41.5776 12.5169 42.6252 13.8428 43.3619C15.157 44.0809 16.5914 44.5534 18.0754 44.7562C19.2206 44.9211 20.3775 44.9916 21.5343 44.9671C22.6035 44.9671 23.7072 44.8852 24.7889 44.8663C25.8706 44.8475 26.9398 44.9608 28.0184 44.9671C29.1752 44.9914 30.332 44.9209 31.4773 44.7562C32.9532 44.5475 34.3789 44.0718 35.6847 43.3524C37.007 42.6131 38.1319 41.5659 38.9644 40.2994C39.8123 38.9445 40.3949 37.4406 40.6814 35.8679C41.0043 34.0908 41.0847 32.2781 40.9203 30.4795C40.7498 28.5673 40.4652 26.6671 40.0682 24.7889H40.0524ZM40.0304 36.8278C39.6507 38.3241 38.9512 39.7201 37.9802 40.9195C37.0375 42.0155 35.8534 42.8774 34.5212 43.4374C33.1211 44.0219 31.6331 44.3677 30.1189 44.4603C29.2824 44.5233 28.4492 44.5296 27.6033 44.5138C26.1379 44.4855 24.6569 44.4163 23.1758 44.4729C22.7481 44.4918 22.3173 44.5044 21.896 44.5138C21.0627 44.5138 20.2294 44.5138 19.3803 44.4603C17.8662 44.3673 16.3782 44.0216 14.978 43.4374C13.6457 42.8776 12.4616 42.0156 11.519 40.9195C10.5492 39.7193 9.84983 38.3236 9.46879 36.8278C9.04425 35.2102 8.85885 33.539 8.9185 31.8675C8.99087 29.9644 9.21378 28.07 9.58514 26.2021C9.87129 24.6284 10.1354 23.0012 10.8587 21.6226C11.1858 20.9712 11.6542 20.4013 12.2297 19.9545C12.8167 19.5207 13.4711 19.1868 14.1667 18.9662C15.6967 18.468 17.2798 18.1511 18.8835 18.022C20.5324 17.8798 22.1878 17.8273 23.8424 17.8646H25.6222C27.2779 17.8273 28.9343 17.8798 30.5843 18.022C32.188 18.1511 33.7711 18.468 35.3011 18.9662C36.0006 19.1867 36.6592 19.5205 37.2507 19.9545C37.8249 20.3996 38.2914 20.9688 38.6154 21.6195C39.3418 23.0075 39.6028 24.6504 39.8732 26.2021C40.2449 28.0699 40.4678 29.9643 40.5398 31.8675C40.5995 33.541 40.4141 35.2143 39.9896 36.8341L40.0304 36.8278Z" fill="#1C2233"/>
<path d="M47.2314 28.2819C47.0608 27.5198 46.8359 26.7709 46.5585 26.0409C46.4973 25.7834 46.3672 25.5475 46.1822 25.3584C45.9972 25.1693 45.7642 25.0342 45.5082 24.9676L45.2535 24.9078H45.2095C45.156 24.6214 45.0994 24.3633 45.0365 24.0895C44.9687 23.7859 44.8804 23.4873 44.7724 23.1956C44.6913 22.934 44.5295 22.7048 44.3102 22.541C44.1867 22.4621 44.0535 22.3997 43.9139 22.3553C43.9265 22.3359 43.9361 22.3146 43.9423 22.2923C43.9469 22.2684 43.9469 22.2438 43.9423 22.2199C43.523 19.6495 43.1897 17.0624 42.9423 14.4584C42.8794 13.7932 42.8249 13.1249 42.7788 12.4535C42.904 12.4217 43.0183 12.3567 43.1096 12.2653C43.2009 12.1739 43.2659 12.0595 43.2976 11.9341C43.3867 11.5093 43.3942 11.0714 43.3196 10.6437C43.2913 10.1999 43.2505 9.75613 43.1844 9.31549C43.1561 8.95015 43.059 8.59346 42.8983 8.26425C42.8145 8.12001 42.6941 8.00055 42.5492 7.91803C42.4051 7.83661 42.243 7.79227 42.0775 7.78899C41.7406 7.74774 41.3991 7.81149 41.0996 7.97154C40.9703 8.07858 40.8705 8.21682 40.8094 8.37322C40.7483 8.52961 40.7281 8.699 40.7506 8.86541C40.7506 9.30919 40.7789 9.75613 40.8197 10.1999C40.842 10.6661 40.9201 11.1278 41.0524 11.5753C41.1178 11.7911 41.266 11.9722 41.4644 12.0789C41.5587 14.4301 41.7348 16.8001 42.0367 19.1197C41.6676 17.9178 41.1887 16.7525 40.6059 15.6387C39.5998 13.6654 38.2567 11.8834 36.6375 10.373C35.0259 8.97715 33.1015 7.99135 31.0277 7.49942C29.0749 6.99701 27.0692 6.72968 25.0531 6.70312H24.5374C22.5108 6.72823 20.4945 6.99556 18.5313 7.49942C16.4555 8.00219 14.5319 8.99996 12.9246 10.4076C11.3071 11.9143 9.96334 13.6907 8.95311 15.6576C7.93248 17.6019 7.22566 19.6956 6.85886 21.8611C6.85538 21.8993 6.84907 21.9372 6.83999 21.9744C6.53643 22.0241 6.2384 22.1032 5.95009 22.2105C5.65225 22.2802 5.36398 22.3859 5.09163 22.5252C4.87157 22.6877 4.7104 22.9175 4.63253 23.1799C4.52346 23.4715 4.43416 23.7701 4.36525 24.0738C4.30236 24.3602 4.2489 24.6214 4.1923 24.8921H4.15457L3.89357 24.9519C3.72847 24.9991 3.57154 25.0713 3.42818 25.1659C3.14926 25.385 2.94494 25.6852 2.8433 26.0252C2.56734 26.7556 2.34249 27.5044 2.17037 28.2661C1.8892 29.4921 1.73847 30.7444 1.7207 32.0021V32.9715C1.73031 33.1837 1.75979 33.3944 1.80875 33.601C1.85979 33.7997 1.96935 33.9785 2.1232 34.1141C2.28043 34.2494 2.45652 34.3659 2.62318 34.4855C2.78984 34.6051 3.0131 34.7719 3.21435 34.9072C3.24483 34.9183 3.27821 34.9183 3.30869 34.9072C3.30869 35.0929 3.33699 35.2755 3.35271 35.4612C3.38416 35.7759 3.41875 36.0906 3.46592 36.4054C3.46964 36.7086 3.55432 37.0052 3.71119 37.2646C3.9037 37.4545 4.13116 37.6052 4.38097 37.7084L5.23943 38.1522C5.3846 38.23 5.53363 38.3004 5.68595 38.3631H5.73312C5.91948 39.738 6.34519 41.0696 6.99093 42.2974C7.88248 43.8774 9.11591 45.2378 10.6008 46.2789C10.2613 46.7989 10.0342 47.3843 9.93421 47.9973C9.71956 48.0776 9.53311 48.2191 9.39787 48.4042C9.26263 48.5893 9.18454 48.8101 9.17323 49.0392C9.17431 49.3151 9.23338 49.5877 9.34661 49.8393C9.45983 50.0909 9.62468 50.3159 9.83044 50.4996C10.2693 50.9268 10.7484 51.3105 11.2612 51.6452C11.7739 52.0052 12.3096 52.3311 12.8649 52.6209C15.2233 53.861 17.8458 54.4842 20.4778 54.7926C21.874 54.9595 23.2827 55.0444 24.6883 55.0791C26.0279 55.1168 27.3706 55.1105 28.7102 55.0193C31.3705 54.8898 33.9913 54.323 36.4677 53.3417C37.5873 52.9103 38.6268 52.2943 39.5431 51.5193C40.0043 51.1386 40.3922 50.6767 40.6877 50.1565C40.9424 49.656 40.9738 49.0266 40.4958 48.6457C40.392 48.5587 40.2674 48.5002 40.1342 48.4758C40.1869 47.5386 40.0279 46.6015 39.6688 45.7344C40.8209 44.835 41.784 43.7166 42.5028 42.4435C43.2216 41.1704 43.6819 39.7676 43.8573 38.3159C43.9674 38.2687 44.0743 38.2152 44.1718 38.1585L45.0303 37.7147C45.2818 37.6131 45.5106 37.4622 45.7032 37.2709C45.8609 37.0119 45.9457 36.715 45.9485 36.4117C45.9925 36.0969 46.0302 35.7822 46.0585 35.4674C46.0774 35.2817 46.09 35.0992 46.1057 34.9135C46.1384 34.92 46.1723 34.9132 46.2 34.8946C46.3981 34.7561 46.5931 34.6082 46.7881 34.4729C46.9613 34.3583 47.1282 34.2343 47.288 34.1015C47.4256 33.9666 47.5216 33.7951 47.5647 33.6073C47.604 33.3998 47.624 33.1891 47.6245 32.9778C47.6974 31.3925 47.5567 29.8045 47.2063 28.2567L47.2314 28.2819ZM41.4518 11.4967C41.4056 11.4115 41.3657 11.3232 41.3323 11.2323C41.2914 10.9459 41.2631 10.6752 41.2411 10.4014C41.2159 10.0677 41.1845 9.73095 41.1688 9.40047C41.1247 9.09901 41.1343 8.79212 41.1971 8.49401C41.2883 8.22963 41.6027 8.20759 41.8449 8.20759C42.087 8.20759 42.4172 8.20759 42.5744 8.49401C42.6873 8.73811 42.7565 9.00019 42.7788 9.26828C42.8354 9.61135 42.8731 9.95756 42.9014 10.3038C42.9486 10.8766 43.1121 11.5628 42.5398 11.9656C42.4598 12.0187 42.368 12.0511 42.2725 12.06L41.9864 12.0254L41.9392 12.0065C41.7189 11.9034 41.545 11.7215 41.4518 11.4967ZM41.9015 14.3293C41.8732 13.9422 41.8449 13.5582 41.8197 13.1837C41.8034 13.0481 41.8108 12.9107 41.8417 12.7777C41.9329 12.4912 42.2379 12.4629 42.4895 12.4063C42.7159 15.4928 43.0565 18.571 43.5115 21.6408C42.7976 21.0113 42.5681 20.0671 42.3385 19.1701C42.153 17.5617 42.0178 15.944 41.9015 14.3388V14.3293ZM10.8681 14.1846C10.9131 13.9698 10.9763 13.7592 11.0568 13.5551C11.4058 13.105 11.7738 12.6738 12.1668 12.2583C13.2924 11.0891 14.6089 10.1205 16.0597 9.39417C16.8616 8.98501 17.7138 8.71118 18.5408 8.35867V8.33979C17.7264 8.44465 16.9324 8.67171 16.1855 9.01334C15.4157 9.33154 14.6786 9.72365 13.9844 10.1842C13.4184 10.5584 12.8784 10.9706 12.3681 11.418L12.4467 11.3015C13.0346 10.6709 13.6893 10.1063 14.3994 9.61764C15.2608 9.04833 16.1878 8.58544 17.1603 8.23907C19.1882 7.56389 21.2967 7.16169 23.4305 7.04305C24.3181 6.97695 25.2094 6.97695 26.0971 7.04305C28.2372 7.16003 30.3522 7.56225 32.3861 8.23907C34.4129 8.93946 36.2123 10.1761 37.5935 11.8177C38.6728 13.0488 39.5998 14.4057 40.3543 15.859C40.3572 15.9268 40.3454 15.9944 40.3198 16.0573C40.2944 16.1213 40.2558 16.1792 40.2066 16.2272C40.1319 16.2991 40.0398 16.3501 39.9393 16.3752C39.8361 16.4018 39.7279 16.4018 39.6248 16.3752C38.5986 15.7834 37.5019 15.3234 36.3608 15.006C33.7014 14.1587 30.9616 13.5892 28.185 13.3064C25.4304 13.0198 22.6505 13.0832 19.9118 13.4953C18.5282 13.7007 17.1618 14.009 15.8239 14.4175L14.9906 14.6L12.6668 15.0847C12.3632 15.1626 12.0542 15.2173 11.7423 15.2484C11.4882 15.2869 11.229 15.2285 11.0159 15.0847C10.9203 14.959 10.8596 14.8103 10.8398 14.6535C10.8068 14.4975 10.8166 14.3355 10.8681 14.1846ZM3.14203 30.4001C3.03511 30.7495 2.92506 31.0988 2.82758 31.4482L2.65777 31.9707C2.61788 32.1358 2.55321 32.2939 2.46596 32.4396C2.44601 32.476 2.41908 32.5081 2.3867 32.534C2.35432 32.56 2.31713 32.5792 2.27728 32.5907C2.23728 32.6028 2.19526 32.6068 2.15369 32.6025C2.11211 32.5982 2.07182 32.5856 2.03516 32.5655C2.03516 32.0179 2.03516 31.4734 2.07918 30.9289C2.19107 29.433 2.49329 27.9575 2.97851 26.5382C3.06707 26.179 3.2299 25.8423 3.45648 25.5499C3.58146 25.4245 3.73147 25.3269 3.89672 25.2635C3.97847 25.232 4.06023 25.2068 4.14199 25.1817L4.00363 25.9654C3.89043 26.5949 3.78666 27.2243 3.68918 27.8538C3.62314 28.2913 3.56654 28.732 3.50994 29.1695C3.38101 29.5723 3.26781 29.9909 3.13574 30.4032L3.14203 30.4001ZM5.56331 31.0296C5.45011 31.6433 5.34005 32.2571 5.20798 32.8677C5.15221 33.144 5.08189 33.4171 4.9973 33.686C4.92173 33.959 4.79355 34.2145 4.61996 34.4382C4.52867 34.5358 4.40406 34.5953 4.27091 34.6051C4.13603 34.6126 4.00369 34.5662 3.903 34.476C3.75541 34.3441 3.64667 34.1743 3.58855 33.985C3.56654 33.3555 3.57283 32.726 3.58855 32.0966C3.71871 29.6381 4.03405 27.1929 4.53191 24.7819C4.59794 24.4483 4.66398 24.121 4.75517 23.7968C4.81701 23.4944 4.93891 23.2076 5.11365 22.9533C5.31175 22.7204 5.67023 22.6669 5.94695 22.5567C6.24004 22.4718 6.52688 22.3667 6.8054 22.242C6.49095 24.1776 6.30857 26.1385 6.12618 28.0962C5.93122 29.0719 5.75827 30.0633 5.57275 31.0516L5.56331 31.0296ZM40.0839 48.8314C40.1663 48.8566 40.2431 48.8972 40.3103 48.951C40.3764 49.0046 40.431 49.0709 40.4707 49.1462C40.5292 49.2745 40.5582 49.4143 40.5556 49.5553C40.5517 49.6971 40.5151 49.8361 40.4487 49.9613C40.1935 50.4707 39.836 50.9219 39.3984 51.2864C38.5491 52.0258 37.5818 52.6174 36.5369 53.0364C34.2319 53.9826 31.79 54.5522 29.3045 54.7234C26.7747 54.9118 24.2337 54.8907 21.7073 54.6605C20.5226 54.5599 19.3447 54.3918 18.1792 54.1569L17.7829 54.0121L16.1855 53.4518C15.3314 53.1876 14.5153 52.8131 13.7579 52.3377C13.4348 52.1153 13.1456 51.847 12.8995 51.5414L12.9813 51.5854C15.1824 52.7279 17.698 53.1591 20.1602 53.263C21.5344 53.3291 22.9085 53.3008 24.2827 53.263C25.6568 53.2252 27.0121 53.2158 28.3706 53.1371C31.0524 53.0323 33.7072 52.5589 36.2602 51.7302C36.8891 51.5204 37.4991 51.2812 38.0903 51.0126C38.6249 50.7797 39.216 50.5468 39.5902 50.0684C39.8639 49.7005 40.0334 49.2656 40.0808 48.8094L40.0839 48.8314ZM39.7978 47.6637C39.8921 48.7748 39.5997 49.9834 38.5179 50.4964C37.9511 50.776 37.3684 51.0219 36.7727 51.2329C34.3533 52.102 31.823 52.6233 29.2573 52.7814C28.7668 52.8161 28.2794 52.8444 27.7888 52.8664L27.097 52.8444C26.4084 52.8129 25.7197 52.7751 25.0311 52.7153C23.6494 52.6087 22.2808 52.3727 20.9432 52.0103L20.3992 51.8435C20.2308 51.7961 20.0659 51.7372 19.9055 51.6672C19.7766 51.6012 19.6193 51.4878 19.6193 51.3242C19.6193 51.1605 19.7105 51.0378 19.8615 51.0661H19.8803H19.8992C19.9044 51.0674 19.9098 51.0674 19.9149 51.0661V51.0472C19.9164 51.041 19.9164 51.0345 19.9149 51.0283V51.0094C19.916 51.0042 19.916 50.9989 19.9149 50.9937C19.4998 50.866 19.114 50.6574 18.7798 50.38C18.7011 50.317 18.6005 50.232 18.6068 50.125C18.6131 50.018 18.698 49.9834 18.7766 49.9582C18.9759 49.9078 19.1812 49.8855 19.3867 49.8921C20.3111 49.8386 21.2419 49.8134 22.1696 49.7977C24.0343 49.7693 25.9053 49.7977 27.7668 49.6623C28.7943 49.6127 29.8169 49.4886 30.8264 49.2909C33.6031 48.9605 36.3388 48.117 38.6657 46.5307L38.7223 46.4929C38.7444 46.5653 38.7727 46.6345 38.801 46.7038V46.7321V46.7636C38.8174 46.8117 38.8384 46.858 38.8638 46.902C38.8949 46.973 38.9411 47.0364 38.9991 47.0877C39.0242 47.0877 39.0808 47.1413 39.1091 47.1255C39.2443 47.0594 39.2695 46.8895 39.2758 46.7541C39.2798 46.5913 39.2586 46.4289 39.2129 46.2726C39.2129 46.2316 39.1877 46.1876 39.172 46.1435L39.3795 45.9893C39.5927 46.5278 39.7292 47.0935 39.7852 47.67L39.7978 47.6637ZM43.6467 36.9625C43.6089 37.1419 43.5649 37.3244 43.5146 37.5007C43.2637 38.3691 42.9045 39.2024 42.4455 39.9809C41.487 41.579 40.2074 42.9605 38.6877 44.0379C37.0686 45.1743 35.2848 46.0554 33.3987 46.6502C31.3857 47.2921 29.3186 47.7493 27.2228 48.0162C25.0527 48.3278 22.8492 48.3278 20.6791 48.0162C18.5439 47.7015 16.4874 46.9807 14.4686 46.2285C13.4802 45.9003 12.513 45.5114 11.5725 45.0639C10.7113 44.616 9.9696 43.9685 9.40907 43.1755C8.23931 41.5672 7.67958 39.5748 7.29909 37.6518C6.89283 35.4551 6.65212 33.2309 6.579 30.9981C6.52239 29.6856 6.51925 28.3732 6.56013 27.0607C6.67333 25.9465 6.79282 24.8354 6.92489 23.7276C7.02866 22.8683 7.16388 22.0122 7.33997 21.1718C8.29059 19.2838 9.76152 17.7078 11.5788 16.6301C13.8366 15.2578 16.4402 14.4458 19.0345 13.9579C21.6872 13.4697 24.3914 13.3227 27.0813 13.5204C29.7937 13.716 32.4781 14.196 35.0904 14.9525C36.2732 15.2564 37.4298 15.6542 38.5494 16.1423C39.1867 16.4224 39.7807 16.7923 40.3135 17.2407C41.3606 18.1849 41.8857 19.639 42.1782 20.9641C42.3794 21.88 42.5492 22.8054 42.6656 23.737C42.9517 26.1164 43.1781 28.5022 43.3982 30.8942C43.6414 32.9051 43.7276 34.9319 43.6561 36.9562L43.6467 36.9625ZM45.829 34.0983C45.7839 34.1818 45.7255 34.2572 45.656 34.3218C45.6147 34.3567 45.5665 34.3824 45.5145 34.3973C45.4638 34.4136 45.4102 34.419 45.3573 34.4131C45.3045 34.407 45.2532 34.391 45.2063 34.3658C45.1587 34.3402 45.1169 34.3048 45.0837 34.262C44.744 33.8644 44.4979 33.3954 44.3636 32.8897C44.0235 31.8642 43.7731 30.8111 43.6152 29.7423C43.5932 29.5345 43.5712 29.3205 43.5523 29.1128C43.3322 26.8435 43.1498 24.5553 42.7882 22.3018C43.0052 22.393 43.2316 22.4654 43.458 22.541C43.7649 22.5991 44.0512 22.737 44.2881 22.9407C44.465 23.1927 44.5871 23.4789 44.6466 23.7811C44.7378 24.0958 44.807 24.4357 44.8699 24.7662C45.3725 27.177 45.6941 29.622 45.8321 32.0808C45.8594 32.7481 45.8594 33.4185 45.8321 34.092L45.829 34.0983ZM47.0711 32.896C47.0311 32.9501 46.9766 32.9916 46.9138 33.0156C46.8502 33.0345 46.7825 33.0345 46.7189 33.0156C46.5958 32.9697 46.494 32.8801 46.4327 32.7638C46.2906 32.5052 46.1938 32.2242 46.1466 31.9329C46.1413 31.8922 46.1318 31.8521 46.1183 31.8133C46.1151 31.7661 46.1151 31.7188 46.1183 31.6717C46.0522 30.3907 45.9076 29.1128 45.7189 27.8475C45.6246 27.218 45.5177 26.5886 45.4045 25.9591C45.3573 25.7041 45.3164 25.446 45.2661 25.1911C45.3479 25.2163 45.4296 25.2446 45.5114 25.2761C45.6766 25.3395 45.8266 25.4371 45.9516 25.5625C46.1745 25.8497 46.3361 26.1796 46.4264 26.5319C46.9122 27.9456 47.2145 29.416 47.3258 30.9068C47.3604 31.3947 47.3761 31.8794 47.3698 32.3672C47.297 32.5476 47.1996 32.7171 47.0805 32.8708L47.0711 32.896Z" fill="#1C2233"/>
<path d="M34.2347 10.0081C34.7035 10.3656 35.1527 10.748 35.5806 11.1537C36.0112 11.5505 36.4195 11.9708 36.8038 12.4127C36.9956 12.633 37.178 12.8596 37.3761 13.0831C37.465 13.1937 37.5606 13.2988 37.6622 13.3978C37.7786 13.5143 37.917 13.6056 38.0459 13.7126C38.1119 13.7692 38.2314 13.7126 38.2 13.6213C38.1176 13.33 37.9914 13.053 37.8258 12.7998C37.6481 12.5454 37.457 12.3006 37.2535 12.0665C36.8515 11.6111 36.4175 11.1851 35.9548 10.7918C35.495 10.3977 35.0039 10.0419 34.4863 9.72793C33.9797 9.38672 33.4226 9.12755 32.8354 8.95996C32.8354 8.95996 32.8102 8.95996 32.8354 8.98199C33.2473 9.35968 33.7693 9.6461 34.2347 10.0081Z" fill="#1C2233"/>
<path d="M41.3141 20.2744C41.0821 19.6954 40.8111 19.1328 40.5028 18.5906C40.245 18.1405 39.9305 17.5865 39.418 17.3945C39.418 17.3945 39.418 17.3945 39.418 17.4103C39.5532 17.64 39.7041 17.8604 39.8519 18.0901C39.9889 18.3335 40.1118 18.5847 40.2198 18.8423C40.4672 19.3996 40.6773 19.9726 40.8487 20.5577C41.0091 21.1305 41.1349 21.7285 41.2575 22.3203C41.333 22.8988 41.4963 23.4624 41.7418 23.9915C41.753 24.0003 41.7658 24.0067 41.7795 24.0104C41.7917 24.015 41.8051 24.015 41.8172 24.0104C41.8298 24.0122 41.8425 24.0122 41.855 24.0104C41.8641 24.0001 41.8715 23.9884 41.877 23.9758C42.0538 23.3588 42.0538 22.7044 41.877 22.0873C41.7432 21.4779 41.558 20.8809 41.3235 20.3028L41.3141 20.2744Z" fill="#1C2233"/>
<path d="M12.0941 40.5667C11.8372 40.2984 11.6007 40.0112 11.3866 39.7075C11.1728 39.421 10.9998 39.078 10.7734 38.7979C10.8342 39.1664 10.9621 39.5205 11.1508 39.8428C11.3293 40.1871 11.5399 40.5138 11.7797 40.8185C12.2577 41.4134 12.8677 42.0428 13.6412 42.2002C13.6577 42.2048 13.6751 42.2048 13.6916 42.2002C13.709 42.1941 13.7235 42.1818 13.7324 42.1656C13.7367 42.1491 13.7367 42.1318 13.7324 42.1152C13.7304 42.0966 13.7228 42.079 13.7104 42.0649C13.2387 41.5109 12.5973 41.1049 12.0941 40.5667Z" fill="#1C2233"/>
<path d="M37.4074 40.7139C37.2345 40.8429 37.0741 40.9845 36.9074 41.1199C36.7408 41.2552 36.5647 41.3874 36.3917 41.5165C36.2185 41.641 36.0391 41.7566 35.854 41.8627C35.7597 41.9193 35.6591 41.9728 35.5679 42.0358C35.5301 42.0641 35.483 42.0861 35.4452 42.1145C35.4075 42.1428 35.3729 42.1963 35.332 42.2341C35.3855 42.2341 35.4421 42.2341 35.4924 42.2341C35.5446 42.2284 35.5962 42.2179 35.6465 42.2026C35.7549 42.1771 35.8603 42.1402 35.9609 42.0924C36.1714 41.9984 36.3725 41.8846 36.5615 41.7525C36.948 41.5053 37.2609 41.1585 37.4672 40.7485C37.4923 40.7453 37.4514 40.6824 37.4074 40.7139Z" fill="#1C2233"/>
<path d="M28.3662 46.7735C28.0794 46.7007 27.7847 46.6637 27.4889 46.6633C27.1887 46.6559 26.8883 46.6675 26.5896 46.6979C25.9606 46.7514 25.3569 46.8081 24.7374 46.8333C24.118 46.8584 23.5268 46.8521 22.923 46.8333C22.6086 46.8333 22.2941 46.8112 21.9797 46.7892C21.6944 46.7577 21.4065 46.7577 21.1212 46.7892C21.0961 46.7892 21.0992 46.827 21.1212 46.8395C21.3723 47.001 21.6471 47.122 21.9357 47.1984C22.2332 47.2947 22.5354 47.3756 22.8413 47.4407C23.4769 47.5769 24.1227 47.66 24.772 47.6893C25.4188 47.7235 26.0674 47.6961 26.709 47.6075C27.0248 47.5732 27.334 47.4937 27.6272 47.3715C27.9101 47.2619 28.1743 47.109 28.4102 46.9182C28.4232 46.9074 28.4329 46.8932 28.4385 46.8773C28.4432 46.8619 28.4432 46.8455 28.4385 46.8301C28.4338 46.8138 28.4238 46.7994 28.4102 46.7892C28.3964 46.779 28.3801 46.7725 28.3631 46.7703L28.3662 46.7735Z" fill="#1C2233"/>
<path d="M24.178 46.3794C24.4124 46.4261 24.6499 46.4556 24.8886 46.4675C25.1289 46.4864 25.3706 46.4768 25.6087 46.4392C25.8258 46.3979 26.037 46.3302 26.2376 46.2377C26.252 46.2342 26.2644 46.2251 26.2722 46.2125C26.2805 46.2005 26.2849 46.1862 26.2849 46.1716C26.2849 46.157 26.2805 46.1428 26.2722 46.1307C26.2644 46.1181 26.252 46.1091 26.2376 46.1055C26.0335 46.0278 25.8231 45.9678 25.6087 45.9261C25.3777 45.8916 25.1442 45.8758 24.9106 45.8789C24.6871 45.8749 24.4635 45.8833 24.2409 45.9041C24.0351 45.8956 23.8327 45.959 23.6686 46.0835C23.6669 46.0869 23.666 46.0907 23.666 46.0945C23.666 46.0983 23.6669 46.1021 23.6686 46.1055C23.6672 46.1085 23.6664 46.1117 23.6664 46.115C23.6664 46.1182 23.6672 46.1215 23.6686 46.1244C23.8028 46.2671 23.9834 46.3574 24.178 46.3794Z" fill="#1C2233"/>
<path d="M39.025 48.0356C38.9644 48.1428 38.9119 48.2543 38.8678 48.3693C38.8206 48.4983 38.8081 48.6368 38.7546 48.7658C38.6604 48.9939 38.5139 49.1966 38.3269 49.3575C37.872 49.7053 37.3602 49.9715 36.8144 50.1444C36.2201 50.3805 35.6227 50.6039 35.0158 50.8022C34.4089 51.0005 33.7579 51.1484 33.1699 51.375C33.8792 51.4162 34.5908 51.3558 35.283 51.1956C35.9774 51.0679 36.6585 50.8762 37.3175 50.6228C37.9367 50.4226 38.5008 50.0811 38.9653 49.6251C39.33 49.2128 39.7451 48.4448 39.2294 47.9853C39.2151 47.9713 39.198 47.9605 39.1791 47.9538C39.1605 47.949 39.1411 47.949 39.1225 47.9538C39.1028 47.9572 39.0837 47.9636 39.0659 47.9727C39.0449 47.9878 39.0303 48.0103 39.025 48.0356Z" fill="#1C2233"/>
<path d="M42.2234 11.5284C42.1668 11.5063 42.1102 11.4843 42.0536 11.456C41.9981 11.4193 41.9492 11.3736 41.9089 11.3207C41.8207 11.2044 41.7517 11.0748 41.7045 10.9367C41.6448 10.7667 41.6039 10.5967 41.5567 10.4205C41.5316 10.3292 41.5096 10.2348 41.4875 10.1341C41.4674 10.036 41.4379 9.94011 41.3995 9.84766C41.3741 9.91526 41.3592 9.98639 41.3555 10.0585V10.3166C41.3618 10.4794 41.3807 10.6415 41.4121 10.8013C41.4431 11.1058 41.5761 11.3909 41.7894 11.6102C41.8949 11.7123 42.0306 11.7775 42.1762 11.7959C42.2041 11.7906 42.2296 11.7762 42.2485 11.755C42.2694 11.7302 42.2815 11.6992 42.2831 11.6669C42.2911 11.6391 42.2911 11.6097 42.2831 11.5819C42.2705 11.5551 42.251 11.5323 42.2265 11.5158L42.2234 11.5284Z" fill="#1C2233"/>
<path d="M42.6545 23.7338C42.5382 22.7895 42.3684 21.8768 42.1671 20.9609C41.881 19.6264 41.3495 18.166 40.3024 17.2375C39.7697 16.7891 39.1756 16.4192 38.5383 16.139C38.1563 15.9527 37.7623 15.7919 37.3591 15.6575C37.5722 15.902 37.7329 16.1876 37.8313 16.4967C37.9298 16.8058 37.9638 17.1318 37.9314 17.4546C37.859 17.7984 37.7095 18.1213 37.4943 18.3989C37.2794 18.6805 37.0015 18.908 36.6831 19.063C37.3483 19.4093 37.9332 19.8919 38.4 20.4793C39.3433 21.6848 39.7521 23.2742 40.0603 24.8133C40.4594 26.6903 40.7461 28.5895 40.9187 30.5007C41.0846 32.2994 41.0042 34.1123 40.6798 35.8891C40.3943 37.4582 39.8115 38.9582 38.9628 40.3081C38.1294 41.5749 37.0034 42.6221 35.68 43.3611C34.3699 44.0811 32.94 44.5567 31.46 44.7649C30.3147 44.9296 29.1578 45.0001 28.001 44.9757C26.9225 44.9757 25.8533 44.8561 24.7716 44.875C23.6899 44.8939 22.5704 44.9663 21.5202 44.9757C20.3633 45.0005 19.2064 44.9299 18.0612 44.7649C16.5726 44.5579 15.1348 44.0789 13.8192 43.3517C12.5049 42.6125 11.3867 41.5688 10.5583 40.3081C9.7069 38.955 9.12397 37.4504 8.84143 35.8765C8.52007 34.0993 8.43969 32.2868 8.60245 30.4881C8.77179 28.5755 9.05848 26.675 9.4609 24.7976C9.77536 23.2616 10.1779 21.6722 11.1212 20.4667C12.118 19.2078 13.5802 18.6412 14.9795 18.2635C15.36 18.1628 15.7468 18.0652 16.1367 17.9771C15.9157 17.8889 15.7243 17.7397 15.5846 17.547C15.4449 17.3542 15.3626 17.1258 15.3475 16.8881C15.3475 16.3656 15.7059 15.9187 16.0833 15.563C16.678 15.0014 17.3466 14.5238 18.0706 14.1436C15.7875 14.6104 13.5954 15.4459 11.5803 16.6174C9.75583 17.6984 8.28013 19.2815 7.32892 21.1781C7.15282 22.0184 7.01446 22.8714 6.91384 23.7338C6.78177 24.8458 6.66018 25.9569 6.54907 27.0669C6.50819 28.3794 6.51134 29.6918 6.56794 31.0043C6.64103 33.2403 6.88174 35.4675 7.28804 37.6674C7.66538 39.5905 8.23139 41.5828 9.39801 43.188C9.95838 43.98 10.6988 44.6273 11.5583 45.0764C12.5002 45.5224 13.4684 45.9102 14.4576 46.2379C16.4614 47.0449 18.5423 47.645 20.668 48.0287C22.8381 48.3403 25.0416 48.3403 27.2118 48.0287C29.3112 47.7611 31.3824 47.305 33.4002 46.6659C35.287 46.0712 37.0709 45.189 38.6893 44.0504C40.208 42.971 41.4847 41.5859 42.4375 39.9839C42.8992 39.2067 43.2585 38.3731 43.5067 37.5037C43.5601 37.3275 43.601 37.1449 43.6419 36.9655C43.7106 34.938 43.6233 32.9083 43.3809 30.8941C43.1671 28.499 42.9407 26.1132 42.6545 23.7338ZM23.6679 46.0805C23.8315 45.955 24.0342 45.8915 24.2402 45.9011C24.4666 45.879 24.6898 45.8759 24.9131 45.8759C25.1456 45.8727 25.3781 45.8885 25.608 45.9231C25.8221 45.9647 26.0324 46.0237 26.2369 46.0994C26.2508 46.105 26.2626 46.1145 26.271 46.1268C26.2794 46.1392 26.284 46.1537 26.2841 46.1686C26.2882 46.1819 26.2882 46.1962 26.2841 46.2095C26.2807 46.2162 26.2758 46.2219 26.2698 46.2263C26.2638 46.2306 26.2569 46.2335 26.2495 46.2347C26.0489 46.3272 25.8377 46.3949 25.6206 46.4361C25.3825 46.4739 25.1408 46.4834 24.9005 46.4645C24.6618 46.4524 24.4243 46.4229 24.1899 46.3763C23.9941 46.3551 23.8124 46.2647 23.6773 46.1214C23.6756 46.118 23.6748 46.1142 23.6748 46.1104C23.6748 46.1066 23.6756 46.1028 23.6773 46.0994C23.6759 46.0931 23.6759 46.0867 23.6773 46.0805H23.6679ZM28.4035 46.9177C28.1718 47.1087 27.9105 47.2607 27.63 47.3678C27.3373 47.4915 27.0278 47.5711 26.7118 47.6038C26.0704 47.6951 25.4216 47.7235 24.7747 47.6888C24.1256 47.6616 23.4798 47.5806 22.844 47.4465C22.5296 47.3835 22.234 47.2954 21.9384 47.2041C21.6494 47.1292 21.3744 47.008 21.1239 46.8453C21.1239 46.8453 21.1051 46.7981 21.1239 46.7949C21.4092 46.7635 21.6971 46.7635 21.9824 46.7949C22.2969 46.817 22.6113 46.8264 22.9258 46.839C23.5295 46.861 24.1364 46.8642 24.7402 46.839C25.3439 46.8138 25.976 46.7572 26.5923 46.7037C26.891 46.6732 27.1914 46.6617 27.4916 46.669C27.7875 46.6694 28.0821 46.7064 28.3689 46.7792C28.3838 46.7822 28.3978 46.7887 28.4098 46.7981C28.4207 46.8082 28.4284 46.8214 28.4318 46.8359C28.4364 46.8502 28.4364 46.8656 28.4318 46.8799C28.4271 46.8939 28.4196 46.9067 28.4098 46.9177H28.4035ZM41.8652 23.9698C41.862 23.986 41.8531 24.0005 41.8401 24.0107C41.827 24.0202 41.8119 24.0266 41.7961 24.0296C41.7807 24.0344 41.7642 24.0344 41.7489 24.0296C41.7344 24.0217 41.7215 24.011 41.7112 23.9981C41.466 23.4677 41.3027 22.9032 41.2269 22.3237C41.1168 21.7351 40.9785 21.1434 40.815 20.5643C40.645 19.9777 40.4349 19.4035 40.1861 18.8458C40.0768 18.5898 39.9539 18.3397 39.8182 18.0967C39.6798 17.8638 39.532 17.6466 39.3842 17.4137C39.8936 17.6057 40.2112 18.1565 40.4691 18.6066C40.7766 19.1482 41.0476 19.7096 41.2804 20.2873C41.5253 20.8581 41.721 21.4488 41.8652 22.053C42.0475 22.6768 42.0475 23.3398 41.8652 23.9635V23.9698Z" fill="#1058AB"/>
<path d="M20.2742 13.027C19.4472 12.7815 18.5227 12.3975 18.2743 11.5729C18.0825 10.9434 18.3466 10.2856 18.7145 9.75365C19.6579 8.38137 21.1767 7.62914 22.8024 7.10352C20.8915 7.24561 19.0064 7.63059 17.1926 8.24918C16.2121 8.58892 15.2773 9.04879 14.4097 9.61831C13.6945 10.1066 13.0345 10.6712 12.4412 11.3022L12.3626 11.4186C12.8749 10.9711 13.417 10.5589 13.9851 10.1848C14.6794 9.72432 15.4165 9.33221 16.1863 9.014C16.9318 8.67051 17.7247 8.44133 18.5384 8.33416V8.35304C17.7114 8.70556 16.8592 8.98253 16.0574 9.38855C14.6061 10.1156 13.2887 11.0841 12.1613 12.2527C11.7714 12.6682 11.4035 13.112 11.0544 13.5494C10.9665 13.7554 10.895 13.968 10.8406 14.1852C10.7888 14.3404 10.779 14.5066 10.8123 14.6668C10.8462 14.8266 10.9222 14.9743 11.0324 15.0948C11.246 15.2489 11.5104 15.3153 11.7714 15.2805C12.0795 15.2408 12.3842 15.1787 12.6833 15.0948L15.0103 14.6007L15.8436 14.4213C17.1813 14.0116 18.5477 13.7023 19.9314 13.4959C20.3811 13.4235 20.8339 13.3669 21.2867 13.3165C20.9471 13.241 20.6044 13.1308 20.2742 13.027Z" fill="#1058AB"/>
<path d="M35.1451 9.61818C34.2866 9.04586 33.3602 8.58277 32.3874 8.23961C31.7152 8.00011 31.0296 7.80043 30.334 7.6416C30.9377 8.01615 31.5509 8.37495 32.1389 8.76838C33.5131 9.69372 34.8212 10.9275 35.1797 12.5453C35.3245 13.2334 35.2866 13.9475 35.0696 14.6163C35.5078 14.7359 35.9449 14.8649 36.3809 15.0034C37.5187 15.3289 38.6119 15.7941 39.6355 16.3883C39.7352 16.4158 39.8404 16.417 39.9408 16.3916C40.0411 16.3662 40.1331 16.3152 40.2078 16.2435C40.2555 16.1948 40.2929 16.137 40.3179 16.0736C40.3427 16.0104 40.3555 15.9431 40.3556 15.8753C39.5988 14.4225 38.6708 13.0658 37.5916 11.834C36.8766 10.9913 36.0541 10.2463 35.1451 9.61818ZM38.1953 13.6249C38.2267 13.7193 38.1073 13.7728 38.0412 13.7161C37.9123 13.6091 37.7771 13.521 37.6576 13.4014C37.5381 13.2818 37.4626 13.1874 37.3714 13.0866C37.1828 12.8632 37.0004 12.6366 36.8023 12.4162C36.4199 11.9737 36.0125 11.5533 35.5822 11.1573C35.1545 10.7544 34.6986 10.3799 34.2363 10.0116C33.7741 9.64336 33.249 9.35695 32.8056 8.96982C32.8056 8.96982 32.8056 8.94778 32.8056 8.95093C33.3943 9.11716 33.9526 9.37642 34.4596 9.7189C34.9809 10.0386 35.4742 10.4019 35.9344 10.8048C36.3958 11.1974 36.8278 11.6234 37.2268 12.0795C37.4339 12.3118 37.6291 12.5545 37.8117 12.8065C37.9809 13.0556 38.1103 13.3296 38.1953 13.6186V13.6249Z" fill="#1058AB"/>
<path d="M6.29599 26.2959L5.78029 27.3692C5.49414 27.9987 5.18598 28.6281 4.83693 29.2073C4.71067 29.4695 4.52557 29.6989 4.29607 29.8777C4.12931 29.9937 3.92478 30.0421 3.72377 30.013C3.65459 30.6991 3.60113 31.3821 3.57598 32.0683C3.55082 32.6978 3.54453 33.3272 3.57598 33.9567C3.63797 34.1532 3.7547 34.3279 3.91244 34.4603C4.01313 34.5505 4.14547 34.5969 4.28035 34.5894C4.4135 34.5796 4.53811 34.5201 4.62939 34.4225C4.80082 34.208 4.92898 33.9621 5.00674 33.6986C5.09279 33.4302 5.16314 33.157 5.21742 32.8803C5.34949 32.2697 5.45955 31.656 5.57275 31.0422C5.75828 30.0508 5.93437 29.0593 6.12619 28.0742C6.17965 27.4699 6.2331 26.8813 6.29599 26.2959Z" fill="#1058AB"/>
<path d="M2.2132 29.7612C2.15975 30.1452 2.11572 30.5292 2.08742 30.9069C2.03711 31.4514 2.03711 31.999 2.03711 32.5436C2.07356 32.564 2.11372 32.5769 2.15524 32.5817C2.19675 32.5864 2.23879 32.5828 2.2789 32.5711C2.31901 32.5594 2.35638 32.5397 2.38883 32.5134C2.42129 32.4871 2.44817 32.4545 2.46791 32.4177C2.54687 32.2794 2.60714 32.1312 2.64715 31.977C2.7006 31.8039 2.76035 31.6277 2.81695 31.4545C2.92701 31.1052 3.03707 30.7558 3.1314 30.4065C3.26347 29.9941 3.37982 29.5755 3.5056 29.1475C3.54963 28.7981 3.59679 28.4519 3.64396 28.1025C3.19722 28.6824 2.71298 29.2322 2.19434 29.7486L2.2132 29.7612Z" fill="#1058AB"/>
<path d="M43.3926 27.5051C43.446 28.0402 43.4932 28.5721 43.5435 29.1008C43.5655 29.3117 43.5875 29.5226 43.6064 29.7303C43.7669 30.799 44.0183 31.852 44.3579 32.8778C44.4913 33.3838 44.7375 33.853 45.078 34.25C45.1112 34.2929 45.153 34.3283 45.2007 34.3539C45.2476 34.379 45.2988 34.395 45.3516 34.4011C45.4587 34.4104 45.5654 34.3789 45.6503 34.313C45.7184 34.2479 45.7757 34.1725 45.8202 34.0895C45.8453 33.4191 45.8422 32.7456 45.8202 32.0846C45.7981 31.4236 45.7415 30.7249 45.6724 30.0451C45.2383 29.8738 44.8443 29.6144 44.5152 29.2834C44.033 28.765 43.6522 28.1608 43.3926 27.502V27.5051Z" fill="#1058AB"/>
<path d="M47.3189 30.9163C47.3147 30.8036 47.3042 30.6911 47.2875 30.5796C46.823 30.5661 46.378 30.3901 46.0297 30.0823L45.9668 30.0225C46.0203 30.5701 46.0674 31.1146 46.0957 31.6623V31.8102C46.0915 31.8517 46.1003 31.8935 46.1209 31.9298C46.1686 32.221 46.2653 32.502 46.407 32.7607C46.4701 32.8756 46.5713 32.9647 46.6932 33.0125C46.7575 33.0339 46.827 33.0339 46.8913 33.0125C46.9542 32.9888 47.0088 32.9472 47.0485 32.8929C47.1654 32.7394 47.2616 32.5711 47.3347 32.3925C47.3551 31.9005 47.3499 31.4078 47.3189 30.9163Z" fill="#1058AB"/>
<path d="M30.5929 8.96593C30.024 8.55974 29.3601 8.30716 28.6653 8.23258C27.9388 8.10637 27.2004 8.06308 26.4641 8.10353L26.0302 8.13815C25.7257 8.13181 25.4212 8.14443 25.1183 8.17592C24.4424 8.21928 23.7757 8.35592 23.1372 8.58194C22.4486 8.84003 21.348 9.3027 21.565 10.2312C21.6719 10.7096 22.1373 10.8953 22.5649 11.0149C22.9406 11.1118 23.3233 11.1791 23.7095 11.2163C24.4478 11.2991 25.1898 11.3443 25.9327 11.3517C26.6748 11.3517 27.4358 11.3517 28.1873 11.2982C28.8741 11.298 29.5539 11.1611 30.1872 10.8953C30.4936 10.7497 30.749 10.5149 30.9199 10.2218C31.0382 10.0114 31.0715 9.76377 31.013 9.52963C30.9545 9.29549 30.8087 9.09265 30.6055 8.96278L30.5929 8.96593Z" fill="#7298D0"/>
<path d="M30.9629 14.6511C30.7973 14.5536 30.6166 14.4845 30.4283 14.4465C29.8586 14.3805 29.2846 14.3584 28.7114 14.3804C27.0983 14.3427 25.4694 14.201 23.8468 14.4119C23.2494 14.4906 20.3879 15.2271 21.9601 16.1902C22.8186 16.7095 23.8028 16.7914 24.765 16.8543C25.7839 16.9267 26.809 16.955 27.8309 16.9424C28.3565 16.9472 28.8817 16.9167 29.4032 16.8512C30.1579 16.7378 31.9754 16.2217 31.4031 15.1012C31.3003 14.9136 31.1481 14.7579 30.9629 14.6511Z" fill="#7298D0"/>
<path d="M5.98092 24.0641C5.97318 23.9283 5.93787 23.7955 5.87715 23.6738C5.84135 23.6086 5.78649 23.5559 5.71992 23.5227C5.65216 23.4879 5.57499 23.4757 5.49981 23.4881C5.39555 23.5197 5.3027 23.581 5.23252 23.6644C5.15549 23.7626 5.08809 23.868 5.03127 23.9791C4.91903 24.2026 4.82339 24.434 4.74512 24.6715C4.66313 24.9082 4.61342 25.1549 4.59733 25.4049C4.58475 25.5221 4.58475 25.6402 4.59733 25.7574C4.60054 25.7956 4.60685 25.8335 4.61619 25.8707V25.9022C4.61619 25.9368 4.61619 25.9714 4.64135 26.0061C4.64524 26.0738 4.65901 26.1406 4.68223 26.2043C4.71121 26.2981 4.73328 26.3938 4.74826 26.4908C4.75468 26.5132 4.76657 26.5338 4.78285 26.5506C4.79847 26.5667 4.81795 26.5787 4.83946 26.5852C4.86208 26.5915 4.88601 26.5915 4.90864 26.5852C4.93014 26.5787 4.94962 26.5667 4.96524 26.5506C5.08158 26.4436 5.19793 26.3617 5.3017 26.2641C5.34888 26.229 5.39117 26.1877 5.42748 26.1414C5.46836 26.091 5.4715 26.0816 5.44949 26.1162C5.49411 26.0753 5.53322 26.0287 5.56584 25.9777C5.59729 25.9305 5.60043 25.9179 5.56584 25.9463C5.53125 25.9746 5.54383 25.9651 5.64131 25.8455C5.67004 25.8019 5.69628 25.7568 5.71992 25.7102C5.94327 25.2033 6.02896 24.6463 5.96834 24.0956L5.98092 24.0641Z" fill="#7298D0"/>
<path d="M3.5408 26.1733C3.5058 26.1884 3.47384 26.2097 3.44646 26.2362C3.41335 26.268 3.38759 26.3067 3.37099 26.3495C3.32757 26.4265 3.28973 26.5064 3.25779 26.5887C3.17958 26.7518 3.16609 26.9386 3.22006 27.1112C3.21692 27.1268 3.21692 27.1429 3.22006 27.1584C3.2284 27.183 3.24004 27.2063 3.25465 27.2277C3.25937 27.2389 3.26696 27.2487 3.27666 27.256H3.31125C3.32362 27.2592 3.33661 27.2592 3.34898 27.256C3.36041 27.2581 3.37214 27.2581 3.38357 27.256C3.41483 27.2368 3.4425 27.2123 3.46533 27.1836C3.50568 27.1563 3.53995 27.121 3.56595 27.0797C3.59117 27.0298 3.61322 26.9783 3.63199 26.9255C3.66066 26.8324 3.6786 26.7363 3.68545 26.6391V26.3905C3.70117 26.3023 3.66029 26.145 3.5408 26.1733Z" fill="#7298D0"/>
<path d="M44.3698 24.9368C44.3381 24.794 44.2982 24.6532 44.2503 24.515C44.2295 24.4278 44.2043 24.3416 44.1748 24.2569C44.1402 24.1877 44.0931 24.1247 44.0553 24.0618C44.0328 24.0249 44 23.9954 43.961 23.9768C43.9211 23.9571 43.8763 23.9494 43.8321 23.9548C43.7881 23.9613 43.7467 23.9798 43.7126 24.0083C43.6787 24.0369 43.6545 24.0754 43.6434 24.1184C43.605 24.2956 43.5808 24.4756 43.5711 24.6566V25.176C43.5649 25.2566 43.5649 25.3377 43.5711 25.4183C43.5771 25.4909 43.5908 25.5627 43.612 25.6324C43.6228 25.668 43.6365 25.7027 43.6528 25.7362V25.7614L43.6906 25.8558C43.7629 25.9377 43.7755 25.9597 43.7314 25.9156C43.7451 25.9373 43.7597 25.9583 43.7755 25.9786C43.7943 25.9975 43.8101 26.0226 43.7943 26.0006C43.8415 26.0698 43.8981 26.1296 43.9516 26.1957C43.9659 26.2098 43.983 26.2205 44.0019 26.2272C44.0205 26.2319 44.0399 26.2319 44.0585 26.2272C44.0787 26.2263 44.0983 26.2197 44.1151 26.2083C44.1317 26.1981 44.1457 26.184 44.156 26.1674C44.1994 26.1112 44.2393 26.0523 44.2755 25.9912L44.3321 25.9125C44.3604 25.8243 44.3729 25.7992 44.3635 25.8401C44.3541 25.881 44.3635 25.859 44.4012 25.7582V25.7205C44.3635 25.7803 44.3698 25.7582 44.4232 25.6481C44.4362 25.5912 44.4447 25.5333 44.4484 25.475C44.456 25.2954 44.4348 25.1159 44.3855 24.9431L44.3698 24.9368Z" fill="#7298D0"/>
<path d="M44.5619 26.9134C44.527 26.8536 44.4742 26.8062 44.4109 26.7781L44.3575 26.7592C44.3356 26.7561 44.3133 26.7561 44.2914 26.7592H44.2317C44.194 26.7691 44.1601 26.7899 44.1342 26.819C44.0945 26.8495 44.0631 26.8895 44.043 26.9354C44.0218 26.9807 44.0111 27.0302 44.0116 27.0802C44.004 27.1176 44.004 27.1562 44.0116 27.1935C44.0244 27.2608 44.056 27.323 44.1028 27.3729C44.148 27.4241 44.2069 27.4612 44.2726 27.48C44.2874 27.4931 44.3062 27.5009 44.326 27.502C44.345 27.5012 44.3629 27.4934 44.3763 27.48L44.4015 27.4516C44.4334 27.4387 44.4623 27.4195 44.4864 27.395C44.5243 27.3548 44.5523 27.3063 44.5681 27.2533C44.5869 27.1988 44.5934 27.1407 44.587 27.0834C44.5838 27.0231 44.5654 26.9647 44.5336 26.9134H44.5619Z" fill="#7298D0"/>
<path d="M46.4035 27.0583C46.396 27.0165 46.3822 26.9762 46.3626 26.9387C46.3343 26.8591 46.2867 26.7877 46.2242 26.7309C46.1676 26.6774 46.0827 26.5893 46.001 26.5924H45.9098C45.9037 26.5903 45.897 26.5903 45.8909 26.5924C45.8895 26.5948 45.8888 26.5975 45.8888 26.6003C45.8888 26.6031 45.8895 26.6058 45.8909 26.6082C45.8894 26.6117 45.8887 26.6154 45.8887 26.6192C45.8887 26.623 45.8894 26.6267 45.8909 26.6302V26.69C45.8888 26.7606 45.8994 26.831 45.9223 26.8977C45.9278 26.9286 45.9352 26.9591 45.9444 26.989C45.9567 27.0196 45.9661 27.0512 45.9727 27.0834C45.995 27.1733 46.0369 27.2571 46.0953 27.3289L46.1236 27.3604C46.1422 27.3854 46.159 27.4117 46.1739 27.4391C46.1787 27.4486 46.1864 27.4563 46.1959 27.4611H46.2242H46.2525C46.262 27.4563 46.2697 27.4486 46.2745 27.4391L46.3248 27.3573V27.3352C46.3435 27.3096 46.3573 27.2808 46.3657 27.2503C46.3807 27.2045 46.3881 27.1567 46.3877 27.1086C46.4066 27.1118 46.4066 27.0897 46.4035 27.0583Z" fill="#7298D0"/>
<path d="M42.4902 9.1806C42.4705 9.03148 42.402 8.89312 42.2953 8.78717C42.2439 8.7284 42.1759 8.68668 42.1003 8.66757C42.0246 8.6518 41.946 8.65836 41.8739 8.68646C41.846 8.70212 41.8239 8.72642 41.811 8.7557C41.8 8.7862 41.8 8.81962 41.811 8.85012C41.8275 8.89417 41.8486 8.93637 41.8739 8.97602C41.9116 9.02323 41.9211 9.03267 41.8928 9.00435L41.9148 9.03267C41.9116 9.04077 41.9116 9.04976 41.9148 9.05785C41.9148 9.10821 41.9494 9.15228 41.9588 9.20578C41.9682 9.25929 41.984 9.30965 41.9588 9.24355C41.9621 9.26968 41.9621 9.29611 41.9588 9.32224C41.9626 9.45914 41.9859 9.59479 42.028 9.72511C42.0501 9.79323 42.0774 9.85952 42.1097 9.9234C42.1407 9.97339 42.1743 10.0217 42.2104 10.0682C42.2184 10.08 42.2292 10.0898 42.2418 10.0965C42.2551 10.1011 42.2695 10.1011 42.2827 10.0965C42.2949 10.1006 42.3082 10.1006 42.3204 10.0965C42.3336 10.0906 42.3446 10.0807 42.3519 10.0682C42.3894 10.0094 42.419 9.94587 42.4399 9.87933C42.4604 9.81423 42.4772 9.74803 42.4902 9.68104C42.5233 9.51587 42.5233 9.34578 42.4902 9.1806Z" fill="white"/>
<path d="M39.8014 47.6643C39.7487 47.0869 39.6143 46.52 39.402 45.9805L39.1976 46.1347C39.1976 46.1788 39.2228 46.2228 39.2385 46.2637C39.283 46.4203 39.3041 46.5826 39.3014 46.7453C39.2985 46.827 39.2826 46.9078 39.2542 46.9845C39.3146 47.3202 39.3006 47.6651 39.2133 47.9948H39.2354C39.7479 48.4512 39.336 49.2223 38.9681 49.6346C38.5033 50.0902 37.9393 50.4318 37.3203 50.6324C36.6613 50.8851 35.9802 51.0758 35.2858 51.202C34.6346 51.3524 33.9665 51.417 33.2985 51.394C31.6308 51.6838 29.941 51.8281 28.2484 51.8252C26.9906 51.8252 25.673 51.7686 24.5504 51.1611C24.1479 50.9377 23.736 50.5316 23.8901 50.0816C23.9428 49.9491 24.0296 49.8329 24.1416 49.7448L22.1669 49.7668C21.2235 49.7668 20.3084 49.8077 19.3871 49.8612C19.1806 49.8548 18.9743 49.8771 18.7739 49.9273C18.6953 49.9525 18.6135 49.9997 18.6041 50.0942C18.5947 50.1886 18.6985 50.2861 18.7771 50.3491C19.1048 50.6177 19.4803 50.8217 19.8839 50.9503H19.9028C19.9047 50.9575 19.9047 50.9651 19.9028 50.9723C19.9043 50.9785 19.9043 50.985 19.9028 50.9912C19.905 50.9973 19.905 51.0039 19.9028 51.0101H19.8871H19.8682H19.8493C19.6984 50.9754 19.6072 51.1454 19.6072 51.2713C19.6072 51.3972 19.7676 51.5577 19.8934 51.6112C20.0531 51.6836 20.2182 51.7435 20.3871 51.7906L20.9311 51.9574C22.2689 52.3189 23.6374 52.5549 25.0189 52.6625C25.7107 52.7223 26.3994 52.7632 27.088 52.7915L27.7798 52.8135C28.2704 52.7915 28.7578 52.7663 29.2483 52.7285C31.8129 52.5718 34.3422 52.0515 36.7606 51.1832C37.3549 50.9628 37.9398 50.7205 38.509 50.4435C39.6033 49.984 39.8957 48.7754 39.8014 47.6643Z" fill="#1058AB"/>
<path d="M46.424 26.5382C46.3354 26.1789 46.1726 25.8423 45.946 25.5499C45.8214 25.424 45.6713 25.3264 45.5058 25.2635C45.4272 25.232 45.3423 25.2068 45.2637 25.1816C45.3108 25.4366 45.3549 25.6947 45.3989 25.9496C45.5121 26.5791 45.619 27.2086 45.7133 27.8381C45.902 29.097 46.0278 30.3843 46.1127 31.6622V31.8101C46.1085 31.8516 46.1173 31.8934 46.1379 31.9297C46.1856 32.2209 46.2823 32.5019 46.424 32.7606C46.4862 32.8762 46.5877 32.9655 46.7102 33.0124C46.7758 33.0278 46.8445 33.0235 46.9077 33C46.9709 32.9765 47.0258 32.9348 47.0655 32.8802C47.1824 32.7267 47.2786 32.5584 47.3516 32.3798C47.3516 31.892 47.3359 31.4072 47.3076 30.9194C47.2014 29.4303 46.9044 27.961 46.424 26.5476V26.5382Z" fill="#4071B3"/>
<path d="M34.843 49.5463C34.7482 49.485 34.6406 49.4462 34.5285 49.433C34.0515 49.2344 33.5206 49.2066 33.0254 49.3543C32.5506 49.4613 32.0821 49.5494 31.5947 49.6407C31.1073 49.732 30.6733 49.817 30.2142 49.9271C29.974 49.9819 29.7385 50.0556 29.5099 50.1474C29.4061 50.1884 29.3023 50.2387 29.1954 50.2859L29.0445 50.3552H29.0036C28.9773 50.3645 28.9528 50.3783 28.9313 50.3961C28.9107 50.4152 28.8947 50.4387 28.8843 50.4649C28.874 50.491 28.8696 50.5191 28.8715 50.5472C28.8741 50.5749 28.8827 50.6018 28.8967 50.6258C29.0318 50.7682 29.2056 50.8678 29.3967 50.9123C29.674 51.0107 29.9623 51.0751 30.2551 51.1042C30.7997 51.1515 31.3477 51.142 31.8903 51.0759C32.47 51.017 33.0442 50.9118 33.6072 50.7612C33.9116 50.6734 34.1914 50.5161 34.4248 50.3017C34.4766 50.2605 34.5259 50.2164 34.5726 50.1695C34.6071 50.1286 34.6575 50.0341 34.7078 49.9806C34.7891 49.9083 34.8554 49.8206 34.9027 49.7225C34.9138 49.691 34.9138 49.6566 34.9027 49.625C34.8924 49.5935 34.8726 49.566 34.8461 49.5463H34.843Z" fill="#7298D0"/>
<path d="M37.3873 48.6708C37.3736 48.6161 37.349 48.5647 37.315 48.5197C37.2731 48.4689 37.2205 48.4281 37.1609 48.4001C37.1141 48.3723 37.0612 48.3561 37.0068 48.3529H36.9377C36.7595 48.3474 36.5842 48.3993 36.4377 48.5009C36.3633 48.551 36.2928 48.6067 36.227 48.6677L36.1767 48.718C36.1365 48.7527 36.1044 48.7957 36.0823 48.8439C36.0333 48.8947 35.9967 48.9561 35.9754 49.0233C35.9786 49.0336 35.9786 49.0446 35.9754 49.0548C35.9457 49.1329 35.9457 49.2191 35.9754 49.2972C36.0052 49.3741 36.0639 49.4362 36.139 49.4703C36.2118 49.5165 36.295 49.5435 36.3811 49.549H36.4157C36.6143 49.5642 36.813 49.5216 36.988 49.4262C37.071 49.3829 37.1472 49.3278 37.2144 49.2625C37.2556 49.2156 37.2924 49.1651 37.3244 49.1115C37.3467 49.0738 37.3646 49.0336 37.3779 48.9919C37.4219 48.89 37.4253 48.7751 37.3873 48.6708Z" fill="#7298D0"/>
<path d="M27.8345 54.1982C27.456 54.1598 27.0961 54.0146 26.7968 53.7796C26.6396 53.6367 26.5382 53.4427 26.5107 53.2319C25.7717 53.2508 25.0264 53.2634 24.2843 53.2792C22.9133 53.3043 21.536 53.3295 20.165 53.2634C17.6966 53.1501 15.1998 52.7346 12.9829 51.5858L12.9043 51.5449C13.1504 51.8506 13.4396 52.1188 13.7628 52.3412C14.5191 52.8135 15.3329 53.1869 16.184 53.4523L17.7815 54.0251L18.1651 54.1573C19.3236 54.3869 20.4942 54.5509 21.6712 54.6483C24.1974 54.8817 26.7387 54.9027 29.2684 54.7112C29.9791 54.6546 30.6992 54.5696 31.391 54.4594C30.1987 54.4921 29.0061 54.4046 27.8314 54.1982H27.8345Z" fill="#1058AB"/>
<path d="M36.7541 52.1053C36.0398 52.1754 35.3348 52.3199 34.6504 52.5365C34.3014 52.6246 33.9492 52.7033 33.6002 52.782C33.2734 52.8165 32.9607 52.9335 32.6914 53.1219C33.0042 53.2755 33.3582 53.3241 33.7008 53.2604C34.0726 53.2289 34.4422 53.1753 34.8077 53.0998C35.5392 52.9846 36.2289 52.6833 36.8107 52.2249C36.8202 52.2117 36.8266 52.1967 36.8296 52.1808C36.8342 52.1654 36.8342 52.149 36.8296 52.1336C36.8239 52.1186 36.8141 52.1055 36.8013 52.0958C36.788 52.0874 36.7729 52.082 36.7573 52.0801L36.7541 52.1053Z" fill="#7298D0"/>
<path d="M38.1936 51.5981H38.0363C37.9978 51.5982 37.9596 51.6046 37.9231 51.617L37.8414 51.6359L37.7596 51.6673C37.7205 51.6768 37.6825 51.6905 37.6464 51.7083C37.5821 51.731 37.5269 51.7741 37.4892 51.831C37.4759 51.8481 37.4688 51.8692 37.4688 51.8908C37.4688 51.9125 37.4759 51.9335 37.4892 51.9506C37.5179 51.9763 37.5525 51.9947 37.5898 52.0041C37.6291 52.0135 37.67 52.0135 37.7093 52.0041C37.7501 52.0089 37.7912 52.0089 37.832 52.0041C37.8734 51.9941 37.9135 51.9793 37.9514 51.9601C38.0208 51.9251 38.0811 51.8745 38.1275 51.8121L38.1433 51.7932L38.1716 51.7618C38.1936 51.7317 38.2116 51.6989 38.225 51.6642C38.2265 51.6548 38.2265 51.6452 38.225 51.6359C38.2282 51.6278 38.2282 51.6188 38.225 51.6107C38.2237 51.6062 38.2212 51.6022 38.2179 51.5989C38.2147 51.5956 38.2106 51.5931 38.2062 51.5918C38.2016 51.593 38.1973 51.5952 38.1936 51.5981Z" fill="#7298D0"/>
<path d="M63.0572 23.625C64.6839 23.3768 66.3277 23.2575 67.9733 23.2682C70.2993 23.2682 71.6511 23.4955 72.7864 24.1747C73.3681 24.4739 73.843 24.9459 74.146 25.5259C74.449 26.106 74.5653 26.7657 74.4788 27.4146C74.3388 28.8548 73.3488 30.2079 71.4214 30.8844V30.9425C73.2273 31.4261 74.5316 32.8347 74.3256 34.9647C74.2492 35.6625 74.0233 36.3355 73.6634 36.938C73.3034 37.5404 72.8179 38.0581 72.2399 38.4556C70.9198 39.4043 68.8551 39.9144 65.5575 39.9144C64.1989 39.9277 62.8412 39.8456 61.4941 39.6686L63.0572 23.625ZM65.4334 37.1026C65.9263 37.1637 66.4233 37.1867 66.9198 37.1713C68.6465 37.1713 70.2386 36.5344 70.4075 34.7929C70.5686 33.1465 69.1218 32.507 67.2129 32.5044H65.8796L65.4334 37.1026ZM66.1383 29.8617H67.403C69.4465 29.8617 70.5712 29.0689 70.6874 27.848C70.8089 26.5901 69.8795 25.9611 68.1634 25.9611C67.6091 25.9456 67.0546 25.9845 66.5079 26.0774L66.1383 29.8617Z" fill="white"/>
<path d="M86.5438 32.8322H80.3234L79.9485 36.6403H86.887L86.6045 39.6397H75.9512L77.5353 23.5459H87.8322L87.5391 26.5321H80.9386L80.6165 29.8619H86.8395L86.5438 32.8322Z" fill="white"/>
<path d="M93.8752 26.5792H89.2812L89.5849 23.5322H102.564L102.253 26.5792H97.6032L96.3043 39.6393H92.5763L93.8752 26.5792Z" fill="white"/>
<path d="M118.762 38.7064C116.861 39.287 114.888 39.5965 112.901 39.626C109.753 39.626 107.562 38.8835 106.131 37.4538C104.737 36.0822 104.101 34.0553 104.344 31.7694C104.89 26.5845 109.289 23.5322 114.939 23.5322C117.175 23.5322 118.849 23.9366 119.67 24.325L118.569 27.1817C117.65 26.7906 116.499 26.4814 114.575 26.4814C111.322 26.4814 108.692 28.1886 108.344 31.5606C108.008 34.7741 110.049 36.7323 113.305 36.7323C113.982 36.7609 114.66 36.6797 115.311 36.4918L115.649 33.2123H112.951L113.239 30.4269H119.625L118.762 38.7064Z" fill="#FE5D00"/>
<path d="M126.619 35.4326L124.993 39.6397H121.117L127.871 23.5459H132.782L136.497 39.6397H132.449L131.543 35.4458L126.619 35.4326ZM131.224 32.7133L130.49 29.2778C130.289 28.3265 130.105 27.1637 129.938 26.2361H129.888C129.547 27.169 129.186 28.3503 128.819 29.2778L127.451 32.7133H131.224Z" fill="#FE5D00"/>
<path d="M139.704 23.5322H143.807L142.382 36.5579H149.827L149.489 39.6393H137.943L139.704 23.5322Z" fill="#FE5D00"/>
<path d="M156.778 35.4326L155.152 39.6397H151.273L158.032 23.5459H162.946L166.642 39.6397H162.6L161.692 35.4458L156.778 35.4326ZM161.393 32.7133L160.659 29.2778C160.456 28.3265 160.277 27.1637 160.108 26.2361H160.057C159.717 27.169 159.353 28.3503 158.986 29.2778L157.605 32.7133H161.393Z" fill="#FE5D00"/>
<path d="M190.062 39.6181L190.724 32.9745L186.32 23.5322H190.627L191.989 27.4169C192.395 28.5876 192.683 29.4254 192.997 30.4692H193.048C193.531 29.4809 194.032 28.5586 194.632 27.4196L196.744 23.5322H200.984L194.455 32.8635L193.792 39.6393L190.062 39.6181Z" fill="#FE5D00"/>
<path d="M186.558 1.18621C183.218 -1.55687 176.47 0.599543 168.676 6.18877C175.013 2.98322 180.393 2.16928 182.828 4.16978C187.675 8.15491 181.621 23.5537 169.307 38.564C156.993 53.5744 143.076 62.5145 138.229 58.5293C135.853 56.5711 135.454 51.4391 137.125 44.9461C133.429 53.3788 132.743 60.1387 135.995 62.8131C141.775 67.5699 157.78 57.6203 171.744 40.6015C185.708 23.5828 192.338 5.93772 186.558 1.18621Z" fill="white"/>
<path d="M178.286 31.809C180.086 29.1396 181.745 26.3768 183.255 23.5322H179.54C178.674 25.139 177.706 26.7871 176.636 28.4766L176.517 28.659C175.58 26.9095 174.737 25.1997 174.001 23.5454H170.407C171.639 26.3212 173.009 29.0334 174.513 31.6716C172.929 33.9496 171.194 36.2619 169.306 38.5637C169.013 38.9231 168.718 39.2746 168.422 39.6208H172.646L173.021 39.0129C174.167 37.5665 175.257 36.1219 176.292 34.679C176.662 35.2815 177.037 35.884 177.425 36.4892C178.087 37.5286 178.776 38.5707 179.492 39.6155H183.371C181.494 36.9966 179.793 34.3751 178.286 31.809Z" fill="white"/>
<defs>
<linearGradient id="paint0_linear" x1="16.0018" y1="28.1814" x2="18.9985" y2="28.1814" gradientUnits="userSpaceOnUse">
<stop offset="0.25" stop-color="#9FD0DC"/>
<stop offset="1" stop-color="#0037A2"/>
</linearGradient>
<linearGradient id="paint1_linear" x1="29.9803" y1="27.6396" x2="32.9788" y2="27.6396" gradientUnits="userSpaceOnUse">
<stop offset="0.25" stop-color="#9FD0DC"/>
<stop offset="1" stop-color="#0037A2"/>
</linearGradient>
</defs>
</svg>
