<svg width="22" height="22" viewBox="0 0 22 22" fill="none" xmlns="http://www.w3.org/2000/svg">
<path d="M9.33333 2H2.66667C2.29847 2 2 2.29847 2 2.66667V9.33333C2 9.70153 2.29847 10 2.66667 10H9.33333C9.70153 10 10 9.70153 10 9.33333V2.66667C10 2.29847 9.70153 2 9.33333 2Z" fill="#CED3D7"/>
<path d="M19.3333 2H12.6667C12.2985 2 12 2.29847 12 2.66667V9.33333C12 9.70153 12.2985 10 12.6667 10H19.3333C19.7015 10 20 9.70153 20 9.33333V2.66667C20 2.29847 19.7015 2 19.3333 2Z" fill="#CED3D7"/>
<path d="M9.33333 12H2.66667C2.29847 12 2 12.2985 2 12.6667V19.3333C2 19.7015 2.29847 20 2.66667 20H9.33333C9.70153 20 10 19.7015 10 19.3333V12.6667C10 12.2985 9.70153 12 9.33333 12Z" fill="#CED3D7"/>
<path d="M19.3333 12H12.6667C12.2985 12 12 12.2985 12 12.6667V19.3333C12 19.7015 12.2985 20 12.6667 20H19.3333C19.7015 20 20 19.7015 20 19.3333V12.6667C20 12.2985 19.7015 12 19.3333 12Z" fill="#CED3D7"/>
</svg>
