<svg width="22" height="22" viewBox="0 0 22 22" fill="none" xmlns="http://www.w3.org/2000/svg">
<g opacity="0.8">
<path d="M7.77734 5.84375V16.1562H14.2227V5.84375H7.77734ZM12.9336 10.6223L12.7448 10.8112C12.0455 11.5104 11.6445 12.4786 11.6445 13.4673V14.2227H10.3555V13.4673C10.3555 12.2312 10.8224 11.019 11.6445 10.0993V9.71094H10.3555V10.3555H9.06641V8.42188H12.9336V10.6223Z" fill="white"/>
<path d="M0 1.97656H22V4.55469H0V1.97656Z" fill="white"/>
<path d="M0 17.4453H22V20.0234H0V17.4453Z" fill="white"/>
<path d="M6.48828 5.84375H0V16.1562H6.48828V5.84375ZM5.19922 10.6223L5.01039 10.8112C4.31114 11.5104 3.91016 12.4786 3.91016 13.4673V14.2227H2.62109V13.4673C2.62109 12.2312 3.08804 11.019 3.91016 10.0993V9.71094H2.62109V10.3555H1.33203V8.42188H5.19922V10.6223Z" fill="white"/>
<path d="M15.5117 16.1562H22V5.84375H15.5117V16.1562ZM16.8008 8.42188H20.668V10.6223L20.4791 10.8112C19.7799 11.5104 19.3789 12.4786 19.3789 13.4673V14.2227H18.0898V13.4673C18.0898 12.2312 18.5568 11.019 19.3789 10.0993V9.71094H18.0898V10.3555H16.8008V8.42188Z" fill="white"/>
</g>
</svg>
