<svg width="70" height="70" viewBox="0 0 70 70" fill="none" xmlns="http://www.w3.org/2000/svg">
<g opacity="0.1">
<path d="M44.9563 0H25.044C16.7673 0 9.89775 5.91268 8.57227 13.6719H61.428C60.1025 5.91268 53.2329 0 44.9563 0ZM22.6954 9.57031C21.5629 9.57031 20.6447 8.65211 20.6447 7.51953C20.6447 6.38695 21.5629 5.46875 22.6954 5.46875C23.828 5.46875 24.7462 6.38695 24.7462 7.51953C24.7462 8.65211 23.828 9.57031 22.6954 9.57031ZM30.8986 9.57031C29.766 9.57031 28.8478 8.65211 28.8478 7.51953C28.8478 6.38695 29.766 5.46875 30.8986 5.46875C32.0311 5.46875 32.9494 6.38695 32.9494 7.51953C32.9494 8.65211 32.0311 9.57031 30.8986 9.57031ZM39.1017 9.57031C37.9691 9.57031 37.0509 8.65211 37.0509 7.51953C37.0509 6.38695 37.9691 5.46875 39.1017 5.46875C40.2343 5.46875 41.1525 6.38695 41.1525 7.51953C41.1525 8.65211 40.2343 9.57031 39.1017 9.57031ZM47.3048 9.57031C46.1722 9.57031 45.254 8.65211 45.254 7.51953C45.254 6.38695 46.1722 5.46875 47.3048 5.46875C48.4374 5.46875 49.3556 6.38695 49.3556 7.51953C49.3556 8.65211 48.4374 9.57031 47.3048 9.57031Z" fill="white"/>
<path d="M64.5312 17.7734H5.46875C2.4485 17.7734 0 20.2219 0 23.2422V64.5312C0 67.5515 2.4485 70 5.46875 70H64.5312C67.5515 70 70 67.5515 70 64.5312V23.2422C70 20.2219 67.5515 17.7734 64.5312 17.7734ZM59.6094 63.3008H10.3906C9.25805 63.3008 8.33984 62.3826 8.33984 61.25C8.33984 60.1174 9.25805 59.1992 10.3906 59.1992H59.6094C60.742 59.1992 61.6602 60.1174 61.6602 61.25C61.6602 62.3826 60.742 63.3008 59.6094 63.3008ZM61.6602 51.4131C61.6602 52.5457 60.742 53.4639 59.6094 53.4639H43.2031H26.7969H10.3906C9.25805 53.4639 8.33984 52.5457 8.33984 51.4131V26.8037C8.33984 25.6711 9.25805 24.7529 10.3906 24.7529H26.7969H43.2031H59.6094C60.742 24.7529 61.6602 25.6711 61.6602 26.8037V51.4131Z" fill="white"/>
<path d="M24.7461 28.8545H12.4414V49.3623H24.7461V28.8545ZM21.6446 37.0081L18.7061 42.6934C18.6122 42.8751 18.4248 42.9893 18.2204 42.9893H16.5933C16.4011 42.9893 16.2229 42.8884 16.1241 42.7234C16.0252 42.5585 16.0204 42.3538 16.1111 42.1843L18.5802 37.572H16.0284C15.7263 37.572 15.4815 37.3271 15.4815 37.0251V35.8382C15.4815 35.5362 15.7263 35.2913 16.0284 35.2913H20.7375C20.9513 35.2913 21.1455 35.416 21.2346 35.6103L21.6558 36.5292C21.7261 36.6822 21.7219 36.8588 21.6446 37.0081Z" fill="white"/>
<path d="M41.1523 28.8545H28.8477V49.3623H41.1523V28.8545ZM38.0509 37.0081L35.1124 42.6934C35.0185 42.8751 34.831 42.9893 34.6266 42.9893H32.9995C32.8073 42.9893 32.6292 42.8884 32.5303 42.7234C32.4315 42.5585 32.4267 42.3538 32.5173 42.1843L34.9865 37.572H32.4346C32.1326 37.572 31.8877 37.3271 31.8877 37.0251V35.8382C31.8877 35.5362 32.1326 35.2913 32.4346 35.2913H37.1437C37.3576 35.2913 37.5517 35.416 37.6409 35.6103L38.0621 36.5292C38.1324 36.6822 38.1281 36.8588 38.0509 37.0081Z" fill="white"/>
<path d="M45.2539 49.3623H57.5586V28.8545H45.2539V49.3623ZM48.2943 35.8382C48.2943 35.5362 48.5391 35.2913 48.8411 35.2913H53.5503C53.7641 35.2913 53.9582 35.416 54.0474 35.6103L54.4686 36.5292C54.5387 36.682 54.5345 36.8587 54.4573 37.0081L51.5188 42.6934C51.4248 42.8751 51.2374 42.9893 51.033 42.9893H49.4059C49.2137 42.9893 49.0355 42.8884 48.9367 42.7234C48.8379 42.5585 48.8331 42.3538 48.9237 42.1843L51.3929 37.572H48.841C48.539 37.572 48.2941 37.3271 48.2941 37.0251V35.8382H48.2943Z" fill="white"/>
</g>
</svg>
