<svg width="22" height="22" viewBox="0 0 22 22" fill="none" xmlns="http://www.w3.org/2000/svg">
<g opacity="0.8">
<path d="M9.17572 8.49512L8.04883 11.9633L10.999 14.1068L13.9493 11.9633L12.8224 8.49512H9.17572Z" fill="white"/>
<path d="M20.4812 16.5823C21.2843 15.2235 21.7835 13.7066 21.9428 12.1162L19.5898 13.8175L20.4812 16.5823Z" fill="white"/>
<path d="M14.0059 7.96428L15.2198 11.7003L18.7207 12.8538L21.9865 10.4925C21.8972 8.51293 21.286 6.62832 20.2195 4.99712L16.1816 4.99023L14.0059 7.96428Z" fill="white"/>
<path d="M10.3545 15.2335L7.17686 12.9248L3.67059 14.0604L2.42383 17.8901C2.67216 18.1981 2.93777 18.4949 3.2215 18.7786C4.33992 19.8971 5.657 20.7444 7.0929 21.289L10.3545 18.9193V15.2335Z" fill="white"/>
<path d="M6.59904 0.913086C5.3546 1.45632 4.21016 2.23326 3.22115 3.22227C3.07139 3.37202 2.92706 3.52573 2.78711 3.68241L5.69411 3.68572L6.59904 0.913086Z" fill="white"/>
<path d="M0.0507812 12.085C0.20561 13.6762 0.700804 15.1944 1.49972 16.5551L2.39893 13.7931L0.0507812 12.085Z" fill="white"/>
<path d="M9.03698 7.20504H12.9635L15.1402 4.22966L13.8973 0.38419C12.9644 0.131088 11.9919 0 10.9991 0C10.0171 0 9.05488 0.128508 8.13106 0.376277L6.87695 4.21891L9.03698 7.20504Z" fill="white"/>
<path d="M6.77846 11.6975L7.99193 7.96284L5.8316 4.97628L1.79466 4.97168C0.723157 6.60026 0.106508 8.48315 0.0117188 10.4618L3.27181 12.8332L6.77846 11.6975Z" fill="white"/>
<path d="M14.8191 12.9268L11.6445 15.2332V18.919L14.9061 21.2888C16.342 20.7442 17.6592 19.8968 18.7776 18.7784C19.0538 18.5022 19.3129 18.2136 19.5556 17.9144L18.3195 14.0801L14.8191 12.9268Z" fill="white"/>
<path d="M19.2317 3.70523C19.0853 3.54042 18.9342 3.37888 18.777 3.22173C17.7955 2.24029 16.6611 1.46744 15.4277 0.924805L16.3248 3.70028L19.2317 3.70523Z" fill="white"/>
<path d="M8.65234 21.7499C9.41483 21.9147 10.2003 22 10.999 22C11.7977 22 12.5832 21.9148 13.3457 21.7499L10.999 20.0449L8.65234 21.7499Z" fill="white"/>
</g>
</svg>
