<svg width="24" height="28" viewBox="0 0 24 28" fill="none" xmlns="http://www.w3.org/2000/svg">
<path d="M12.0001 8.66602C9.05826 8.66602 6.66504 11.0592 6.66504 14.0008C6.66504 16.9426 9.05826 19.3358 12.0001 19.3358C14.9417 19.3358 17.3349 16.9426 17.3349 14.0008C17.3349 11.0592 14.9417 8.66602 12.0001 8.66602ZM15.1675 12.9962L11.3455 16.8181C11.1851 16.9785 10.9747 17.0588 10.7645 17.0588C10.5543 17.0588 10.3441 16.9787 10.1836 16.8181L8.72308 15.3575C8.40222 15.0369 8.40222 14.5167 8.72308 14.1959C9.04373 13.875 9.5639 13.875 9.88477 14.1959L10.7645 15.0756L14.0058 11.8345C14.3264 11.5136 14.8466 11.5136 15.1675 11.8345C15.4883 12.1551 15.4883 12.6753 15.1675 12.9962Z" fill="white"/>
<path d="M23.8948 7.59711L23.8939 7.57532C23.8818 7.30637 23.8736 7.02182 23.8687 6.70524C23.8459 5.16139 22.6186 3.88435 21.0745 3.79805C17.8553 3.61839 15.3648 2.56865 13.237 0.494589L13.2188 0.477286C12.5247 -0.159095 11.4778 -0.159095 10.7835 0.477286L10.7653 0.494589C8.63745 2.56865 6.14704 3.61839 2.92775 3.79826C1.3839 3.88435 0.156423 5.16139 0.133565 6.70545C0.128866 7.0199 0.120534 7.30445 0.108358 7.57532L0.107076 7.62595C0.0444848 10.9087 -0.0332738 14.9942 1.33348 18.7025C2.08501 20.7417 3.22319 22.5144 4.71619 23.9715C6.41663 25.6309 8.64386 26.9483 11.3359 27.887C11.4235 27.9175 11.5145 27.9423 11.6072 27.9609C11.738 27.9869 11.8696 28 12.0011 28C12.1327 28 12.2645 27.9869 12.3951 27.9609C12.4878 27.9423 12.5794 27.9173 12.6674 27.8865C15.3563 26.9462 17.5812 25.6281 19.2801 23.9689C20.7725 22.5114 21.9107 20.7383 22.6628 18.6986C24.0347 14.9793 23.9572 10.886 23.8948 7.59711ZM12.0007 20.9784C8.15295 20.9784 5.02274 17.8482 5.02274 14.0004C5.02274 10.1527 8.15295 7.02246 12.0007 7.02246C15.8483 7.02246 18.9787 10.1527 18.9787 14.0004C18.9787 17.8482 15.8483 20.9784 12.0007 20.9784Z" fill="white"/>
</svg>
