<svg width="8" height="7" viewBox="0 0 8 7" fill="none" xmlns="http://www.w3.org/2000/svg">
<path d="M7.05903 0.129467C6.89322 -0.0361151 6.6245 -0.0361151 6.45879 0.129467L3.75739 2.82879L1.05598 0.129467C0.89307 -0.0390146 0.624349 -0.0436745 0.455738 0.119111C0.287127 0.281794 0.282464 0.550307 0.445375 0.718789C0.448795 0.722309 0.452215 0.72583 0.455738 0.729247L3.15714 3.42857L0.455738 6.1279C0.287127 6.29058 0.282464 6.55909 0.445375 6.72768C0.608183 6.89616 0.876903 6.90082 1.04551 6.73803C1.04904 6.73461 1.05256 6.7312 1.05598 6.72768L3.75739 4.02835L6.45879 6.72768C6.6274 6.89036 6.89612 6.8857 7.05893 6.71722C7.2178 6.55288 7.2178 6.29223 7.05893 6.1279L4.35763 3.42857L7.05903 0.729247C7.22474 0.563666 7.22474 0.295152 7.05903 0.129467Z" fill="#F20072"/>
</svg>
