<svg width="10" height="10" viewBox="0 0 10 10" fill="none" xmlns="http://www.w3.org/2000/svg">
<path d="M9.72093 0.279338C9.34848 -0.0931127 8.74458 -0.0931127 8.37213 0.279338L5.00013 3.65133L1.62814 0.279338C1.25569 -0.0931127 0.651789 -0.0931127 0.279338 0.279338C-0.0931127 0.651789 -0.0931127 1.25569 0.279338 1.62814L3.65134 5.00013L0.28059 8.37088C-0.091861 8.74333 -0.091861 9.34723 0.28059 9.71968C0.653041 10.0921 1.25694 10.0921 1.62939 9.71968L5.00013 6.34893L8.37186 9.72066C8.74431 10.0931 9.34821 10.0931 9.72066 9.72066C10.0931 9.34821 10.0931 8.74431 9.72066 8.37186L6.34893 5.00013L9.72093 1.62814C10.0934 1.25569 10.0934 0.651834 9.72093 0.279338Z" fill="white"/>
</svg>
