<svg width="14" height="14" viewBox="0 0 14 14" fill="none" xmlns="http://www.w3.org/2000/svg">
<g opacity="0.5" clip-path="url(#clip0)">
<path d="M13.715 12.348L10.7565 9.38898C11.4755 8.38877 11.8709 7.19356 11.8709 5.93543C11.8709 4.35068 11.2539 2.86029 10.1318 1.73911C9.01203 0.618416 7.52067 0 5.93495 0C4.34972 0 2.85884 0.616964 1.73814 1.73911C0.617448 2.85933 0 4.3502 0 5.93543C0 7.52067 0.616964 9.01106 1.73814 10.1327C2.85884 11.2534 4.34923 11.8718 5.93495 11.8718C7.19259 11.8718 8.38684 11.4784 9.38801 10.7574L12.3465 13.7164C12.5362 13.9056 12.783 14 13.0308 14C13.279 14 13.5263 13.9056 13.715 13.7164C14.0929 13.338 14.0929 12.7259 13.715 12.348ZM3.10708 8.76379C2.35124 8.00795 1.93557 7.0029 1.93557 5.93495C1.93557 4.867 2.35124 3.86292 3.10708 3.10708C3.86244 2.35124 4.86651 1.93509 5.93495 1.93509C7.00339 1.93509 8.00795 2.35124 8.76331 3.10708C9.51915 3.86292 9.9353 4.86748 9.9353 5.93543C9.9353 7.00339 9.51963 8.00795 8.76331 8.76427C8.00747 9.52012 7.00387 9.9353 5.93495 9.9353C4.86603 9.9353 3.86147 9.51915 3.10708 8.76379Z" fill="#8190B0"/>
</g>
<defs>
<clipPath id="clip0">
<rect width="13.9995" height="14" fill="white"/>
</clipPath>
</defs>
</svg>
