<svg width="18" height="18" viewBox="0 0 18 18" fill="none" xmlns="http://www.w3.org/2000/svg">
<path fill-rule="evenodd" clip-rule="evenodd" d="M9 18C4.03734 18 0 13.9627 0 9C0 4.03734 4.03734 0 9 0C13.9627 0 18 4.03734 18 9C18 13.9627 13.9627 18 9 18ZM9.99792 4C9.99792 4.55232 9.55024 5 8.99792 5C8.44559 5 7.99792 4.55232 7.99792 4C7.99792 3.44768 8.44559 3 8.99792 3C9.55024 3 9.99792 3.44768 9.99792 4ZM8.99792 6C8.44563 6 7.99792 6.44772 7.99792 7V14C7.99792 14.5523 8.44563 15 8.99792 15C9.5502 15 9.99792 14.5523 9.99792 14V7C9.99792 6.44772 9.5502 6 8.99792 6Z" fill="#8190B0"/>
</svg>
