<svg width="86" height="86" viewBox="0 0 86 86" fill="none" xmlns="http://www.w3.org/2000/svg">
<g filter="url(#filter0_d)">
<circle cx="43" cy="43" r="23" fill="#F7AF25"/>
</g>
<g filter="url(#filter1_d)">
<path d="M47.3217 32.1468C47.5305 32.0499 47.7593 31.9998 47.991 32C48.2748 31.9993 48.5528 32.0774 48.7919 32.2249C49.031 32.3724 49.2212 32.5831 49.3398 32.832C49.4595 33.1615 49.5044 33.512 49.4716 33.8597C50.1398 33.6809 50.8167 33.5339 51.4998 33.4193C51.9663 33.3703 52.4226 33.292 52.879 33.2822C53.6591 33.2254 54.4426 33.3392 55.1709 33.615C55.4297 33.7222 55.6626 33.8803 55.8546 34.0791C56.0467 34.278 56.1937 34.5133 56.2864 34.77C56.4309 35.2767 56.4061 35.8144 56.2154 36.3067C55.9862 36.9367 55.6616 37.5305 55.252 38.0685C54.418 39.1701 53.4588 40.1781 52.3922 41.0734C51.512 41.8307 50.5913 42.543 49.6339 43.2072C49.5521 43.2484 49.4796 43.3049 49.4209 43.3736V47.6314C49.4295 48.017 49.4126 48.4028 49.3702 48.7863C49.1852 50.1055 48.5524 51.3284 47.5707 52.2635C46.589 53.1986 45.3139 53.7932 43.9448 53.9544C42.409 54.1382 40.8575 53.7626 39.5935 52.901C38.3294 52.0394 37.4438 50.7537 37.1097 49.2953H36.8765C35.9448 49.5509 34.991 49.7245 34.0268 49.8141C33.2271 49.9111 32.4158 49.8646 31.6336 49.677C31.1103 49.5441 30.6492 49.2439 30.3254 48.8255C30.0363 48.3832 29.9346 47.8504 30.0414 47.3377C30.1782 46.6804 30.4469 46.0553 30.8324 45.4976C31.4195 44.6318 32.0993 43.8281 32.8606 43.0995C34.0865 41.9276 35.4092 40.8539 36.8156 39.8891C36.8765 39.8401 36.9779 39.801 36.9677 39.7129V37.4813C36.9728 37.2838 37.0205 37.0895 37.1078 36.9109C37.1951 36.7322 37.3201 36.5731 37.4748 36.4437C37.7565 36.21 38.1175 36.0845 38.4889 36.0914C38.7242 36.1002 38.9539 36.1636 39.1587 36.276C39.3634 36.3884 39.5371 36.5466 39.6652 36.7374C39.8329 37.0053 39.9141 37.3154 39.8985 37.6281C39.8985 39.8108 39.8985 41.9935 39.8985 44.186C39.8985 44.5482 39.8985 44.9201 39.8985 45.2823C41.9551 44.3494 43.953 43.3002 45.8817 42.1403C46.0541 42.0327 46.2366 41.9348 46.3989 41.8173C46.3989 38.9984 46.3989 36.1795 46.3989 33.3605C46.4044 33.098 46.4837 32.8418 46.6284 32.6194C46.7731 32.397 46.9777 32.2167 47.2203 32.0979L47.3217 32.1468ZM50.7899 36.1697C50.3072 36.2902 49.8329 36.4406 49.3702 36.6199C49.3702 37.6868 49.3702 38.7635 49.3702 39.8402L49.6034 39.6835C50.2626 39.1941 50.9015 38.7047 51.51 38.1468C52.0103 37.7197 52.4562 37.2367 52.8384 36.708C52.9701 36.5322 53.0633 36.3324 53.1122 36.1207C53.1122 36.0327 53.0514 35.9739 52.9703 35.9445C52.7691 35.8908 52.5598 35.8709 52.3517 35.8858C51.8221 35.9264 51.2985 36.0215 50.7899 36.1697ZM35.3756 44.4209C34.73 44.9412 34.139 45.5215 33.6111 46.1534C33.4103 46.3842 33.2649 46.6549 33.1851 46.9462C33.1851 47.0539 33.2561 47.1224 33.3474 47.1518C33.652 47.2106 33.9656 47.2106 34.2702 47.1518C34.7959 47.077 35.3147 46.9624 35.8218 46.8092C36.1899 46.7109 36.5521 46.5933 36.9069 46.4568C36.9069 46.3198 36.9069 46.173 36.9069 46.0261C36.9069 45.0963 36.9069 44.1664 36.9069 43.2366C36.3694 43.5987 35.8928 44 35.3756 44.4013V44.4209ZM39.9086 48.3165C39.9653 48.8042 40.1396 49.2723 40.4175 49.6832C40.6954 50.0942 41.0692 50.4366 41.5088 50.6831C41.9485 50.9295 42.4419 51.0731 42.9495 51.1024C43.457 51.1317 43.9646 51.0458 44.4315 50.8516C45.0019 50.6147 45.4902 50.2253 45.8388 49.7293C46.1874 49.2333 46.3817 48.6513 46.3989 48.0522C46.3989 47.2007 46.3989 46.3394 46.3989 45.478C46.4132 45.3839 46.4132 45.2883 46.3989 45.1942C44.3284 46.3997 42.1615 47.4438 39.9188 48.3165H39.9086ZM42.8698 38.2349C43.3649 38.1714 43.8668 38.2864 44.2794 38.5579C44.6137 38.7894 44.8634 39.1171 44.9927 39.494C45.122 39.8709 45.1244 40.2777 44.9994 40.6559C44.8744 41.0342 44.6284 41.3646 44.2969 41.5996C43.9653 41.8346 43.5651 41.9622 43.1538 41.9641C42.8994 41.9654 42.6473 41.9183 42.4117 41.8256C42.1762 41.7328 41.962 41.5962 41.7812 41.4235C41.6003 41.2508 41.4566 41.0454 41.358 40.8191C41.2594 40.5928 41.208 40.3499 41.2067 40.1044C41.2071 39.6777 41.3573 39.2637 41.6326 38.9299C41.9438 38.5608 42.3836 38.3137 42.8698 38.2349Z" fill="white"/>
</g>
<defs>
<filter id="filter0_d" x="0" y="0" width="86" height="86" filterUnits="userSpaceOnUse" color-interpolation-filters="sRGB">
<feFlood flood-opacity="0" result="BackgroundImageFix"/>
<feColorMatrix in="SourceAlpha" type="matrix" values="0 0 0 0 0 0 0 0 0 0 0 0 0 0 0 0 0 0 127 0"/>
<feOffset/>
<feGaussianBlur stdDeviation="10"/>
<feColorMatrix type="matrix" values="0 0 0 0 0.968627 0 0 0 0 0.878431 0 0 0 0 0.117647 0 0 0 0.6 0"/>
<feBlend mode="normal" in2="BackgroundImageFix" result="effect1_dropShadow"/>
<feBlend mode="normal" in="SourceGraphic" in2="effect1_dropShadow" result="shape"/>
</filter>
<filter id="filter1_d" x="30" y="32" width="27.3792" height="24" filterUnits="userSpaceOnUse" color-interpolation-filters="sRGB">
<feFlood flood-opacity="0" result="BackgroundImageFix"/>
<feColorMatrix in="SourceAlpha" type="matrix" values="0 0 0 0 0 0 0 0 0 0 0 0 0 0 0 0 0 0 127 0"/>
<feOffset dx="1" dy="2"/>
<feColorMatrix type="matrix" values="0 0 0 0 0 0 0 0 0 0 0 0 0 0 0 0 0 0 0.15 0"/>
<feBlend mode="normal" in2="BackgroundImageFix" result="effect1_dropShadow"/>
<feBlend mode="normal" in="SourceGraphic" in2="effect1_dropShadow" result="shape"/>
</filter>
</defs>
</svg>
