<svg width="107" height="106" viewBox="0 0 107 106" fill="none" xmlns="http://www.w3.org/2000/svg">
<g filter="url(#filter0_d)">
<path d="M61.8467 36.3553L64.7877 25.546C64.9504 24.9483 64.8246 24.3094 64.4478 23.8175C64.071 23.3256 63.486 23.0371 62.8657 23.0371H57.4867C54.2444 23.0371 51.172 24.3774 48.9689 26.6553C46.7657 24.3776 43.6934 23.0371 40.4513 23.0371H35.0724C34.4521 23.0371 33.8672 23.3256 33.4902 23.8175C33.1134 24.3094 32.9878 24.9483 33.1503 25.5459L36.0914 36.3556C32.7122 38.3733 29.8422 41.148 27.7292 44.4543C25.2289 48.3669 23.9068 52.8654 23.9063 57.4633C23.905 69.6849 23.9042 75.8192 27.3537 79.3231C30.8174 82.8415 36.8686 82.8415 48.9244 82.8415C61.0172 82.8415 67.0871 82.8415 70.5599 79.3819C74.0344 75.9207 74.0344 69.8728 74.0344 57.8237C74.0344 48.9515 69.4044 40.8671 61.8467 36.3553Z" fill="#AD1DD1"/>
</g>
<path d="M61.8465 36.3543L64.7875 25.545C64.9502 24.9473 64.8244 24.3085 64.4476 23.8165C64.0708 23.3246 63.4858 23.0361 62.8655 23.0361H57.4865C54.2442 23.0361 51.172 24.3764 48.9688 26.6542V82.8404C61.0317 82.8404 67.091 82.8362 70.5595 79.3808C74.0341 75.9196 74.0341 69.8717 74.0341 57.8226C74.0342 48.9505 69.4042 40.8661 61.8465 36.3543Z" fill="#9200B7"/>
<g filter="url(#filter1_d)">
<path d="M89.8935 23H80.476C79.3761 23 78.4844 23.8929 78.4844 24.9943C78.4844 26.0957 79.3761 26.9886 80.476 26.9886H87.9019V41.6704H80.476C79.3761 41.6704 78.4844 42.5633 78.4844 43.6647C78.4844 44.7661 79.3761 45.659 80.476 45.659H87.9019V60.3408H80.476C79.3761 60.3408 78.4844 61.2338 78.4844 62.3351C78.4844 63.4365 79.3761 64.3294 80.476 64.3294H87.9019V79.0114H80.476C79.3761 79.0114 78.4844 79.9043 78.4844 81.0057C78.4844 82.1071 79.3761 83 80.476 83H89.8935C90.9934 83 91.8851 82.1071 91.8851 81.0057V24.9943C91.8851 23.8929 90.9934 23 89.8935 23Z" fill="white"/>
</g>
<path d="M61.8458 36.3555L62.3866 34.3677H34.3696C33.2821 34.3677 32.3973 33.4844 32.3973 32.3989C32.3973 31.3011 31.5056 30.4111 30.4057 30.4111C29.3058 30.4111 28.4141 31.3011 28.4141 32.3989C28.4141 35.3276 30.5475 37.7665 33.3442 38.2533C33.6776 38.3113 64.7037 38.3433 64.7037 38.3433C63.805 37.6224 62.8523 36.9563 61.8458 36.3555Z" fill="#FFDF92"/>
<path d="M51.6348 56.9342C49.8329 56.2984 47.8403 55.5306 46.7231 54.656C46.3719 54.3812 46.22 53.7517 46.345 53.0898C46.4074 52.7597 46.6986 51.6558 47.8299 51.3156C49.6867 50.7572 50.9605 51.4977 51.4219 51.8421C52.3033 52.4997 53.5509 52.3196 54.2096 51.4404C54.8681 50.5612 54.6881 49.3155 53.8072 48.658C53.3891 48.3461 52.3419 47.6621 50.8408 47.33V46.521C50.8408 45.4232 49.9491 44.5332 48.8492 44.5332C47.7493 44.5332 46.8576 45.4232 46.8576 46.521V47.4598C46.7988 47.4762 46.7405 47.4913 46.6812 47.5091C44.4997 48.1649 42.8711 50.0213 42.4307 52.3536C42.0254 54.5005 42.7281 56.5813 44.2648 57.7843C45.5306 58.7753 47.2813 59.615 50.3073 60.6827C52.3217 61.3934 52.278 63.0207 52.1657 63.6873C51.9381 65.0389 50.799 66.4995 48.8359 66.5125C46.9115 66.5263 46.311 66.4304 44.8322 65.4647C43.9115 64.8636 42.6773 65.1212 42.0752 66.04C41.4731 66.9587 41.731 68.1906 42.6515 68.7917C44.2465 69.8332 45.4235 70.2557 46.8576 70.4097V71.3183C46.8576 72.4161 47.7493 73.3061 48.8492 73.3061C49.9491 73.3061 50.8408 72.4161 50.8408 71.3183V70.2187C51.938 69.9172 52.9379 69.3665 53.7924 68.5826C55.0034 67.4722 55.8207 65.9677 56.0938 64.3463C56.649 61.0498 54.857 58.0711 51.6348 56.9342Z" fill="#FFDF92"/>
<path d="M48.9688 34.3672V38.3192C56.8273 38.3347 64.7042 38.3428 64.7042 38.3428C63.8056 37.6219 62.8528 36.9558 61.8464 36.355L62.3872 34.3672H48.9688Z" fill="#FABE2C"/>
<path d="M51.6318 56.9345C50.7479 56.6225 49.8186 56.2788 48.9688 55.9062V60.194C49.3854 60.3525 49.8274 60.5145 50.3043 60.6828C52.3187 61.3935 52.2751 63.0209 52.1627 63.6875C51.9405 65.0075 50.8483 66.4306 48.9688 66.5087V73.3001C50.0113 73.2366 50.8378 72.375 50.8378 71.3185V70.219C51.935 69.9175 52.9349 69.3668 53.7895 68.5829C55.0005 67.4725 55.8177 65.968 56.0908 64.3466C56.6461 61.05 54.8541 58.0714 51.6318 56.9345Z" fill="#FABE2C"/>
<path d="M48.9688 44.5391V51.1174C50.2065 51.0648 51.0594 51.5735 51.4189 51.8419C52.3003 52.4994 53.5479 52.3193 54.2066 51.4402C54.8652 50.5609 54.6851 49.3152 53.8042 48.6578C53.3861 48.3458 52.3389 47.6619 50.8378 47.3298V46.5208C50.8377 45.4642 50.0111 44.6025 48.9688 44.5391Z" fill="#FABE2C"/>
<defs>
<filter id="filter0_d" x="0.90625" y="0.0371094" width="96.1282" height="105.804" filterUnits="userSpaceOnUse" color-interpolation-filters="sRGB">
<feFlood flood-opacity="0" result="BackgroundImageFix"/>
<feColorMatrix in="SourceAlpha" type="matrix" values="0 0 0 0 0 0 0 0 0 0 0 0 0 0 0 0 0 0 127 0"/>
<feOffset/>
<feGaussianBlur stdDeviation="11.5"/>
<feColorMatrix type="matrix" values="0 0 0 0 0.831522 0 0 0 0 0.354167 0 0 0 0 1 0 0 0 0.35 0"/>
<feBlend mode="normal" in2="BackgroundImageFix" result="effect1_dropShadow"/>
<feBlend mode="normal" in="SourceGraphic" in2="effect1_dropShadow" result="shape"/>
</filter>
<filter id="filter1_d" x="63.4844" y="8" width="43.4008" height="90" filterUnits="userSpaceOnUse" color-interpolation-filters="sRGB">
<feFlood flood-opacity="0" result="BackgroundImageFix"/>
<feColorMatrix in="SourceAlpha" type="matrix" values="0 0 0 0 0 0 0 0 0 0 0 0 0 0 0 0 0 0 127 0"/>
<feOffset/>
<feGaussianBlur stdDeviation="7.5"/>
<feColorMatrix type="matrix" values="0 0 0 0 1 0 0 0 0 1 0 0 0 0 1 0 0 0 0.3 0"/>
<feBlend mode="normal" in2="BackgroundImageFix" result="effect1_dropShadow"/>
<feBlend mode="normal" in="SourceGraphic" in2="effect1_dropShadow" result="shape"/>
</filter>
</defs>
</svg>
