<svg width="86" height="86" viewBox="0 0 86 86" fill="none" xmlns="http://www.w3.org/2000/svg">
<g filter="url(#filter0_d)">
<circle cx="43" cy="43" r="23" fill="#FE5D00"/>
</g>
<g filter="url(#filter1_d)">
<path d="M54.9457 39.6667C54.9088 39.033 54.1518 38.5378 52.6377 38.16C52.6887 38.0489 52.7173 37.9333 52.7177 37.8133V35.2222H52.7114C52.5782 33.0637 43.6937 33 42.6733 33C41.6529 33 32.7684 33.0637 32.6352 35.2222H32.6289V35.2704V37.8144C32.6308 38.5181 33.5429 39.0689 34.9001 39.4789C34.8815 39.5404 34.8703 39.603 34.8666 39.6667H34.861V39.7148V42.2544C33.399 42.6293 32.6687 43.1174 32.6326 43.7407H32.6289V43.7889V46.333C32.63 46.823 33.0738 47.2385 33.8 47.5848C33.7729 47.6596 33.7554 47.7363 33.7505 47.8148H33.7449V47.863V50.407C33.7479 51.6389 36.5339 52.4037 39.6295 52.7607C39.6522 52.7652 39.673 52.7744 39.6972 52.7744C39.7042 52.7744 39.7102 52.7707 39.7173 52.7704C40.314 52.8374 40.9204 52.8896 41.5204 52.927C41.5331 52.9285 41.5442 52.9344 41.5573 52.9344C41.5643 52.9344 41.5699 52.9307 41.5766 52.9304C42.3385 52.9767 43.0881 53 43.7893 53C44.4906 53 45.2402 52.9767 46.0021 52.9304C46.0088 52.9307 46.0147 52.9344 46.0214 52.9344C46.0344 52.9344 46.0456 52.9281 46.0583 52.927C46.6583 52.8896 47.2647 52.8378 47.8614 52.7704C47.8685 52.7704 47.8744 52.7741 47.8815 52.7741C47.9057 52.7741 47.9265 52.7648 47.9492 52.7604C51.0447 52.4033 53.8304 51.6381 53.8337 50.4059V47.8148H53.8278C53.8017 47.3607 53.413 46.9819 52.6451 46.6652C52.692 46.5581 52.7177 46.447 52.7177 46.3319V43.9111C54.0532 43.5022 54.9479 42.9552 54.9498 42.2578V39.6667H54.9457ZM35.233 38.8052V37.0159C35.5805 37.1093 35.954 37.1944 36.3491 37.2719V39.0796C36.3033 39.07 36.256 39.0604 36.2114 39.0507C36.0135 39.0074 35.8204 38.9622 35.6359 38.9144C35.4953 38.8785 35.3617 38.8419 35.233 38.8052ZM51.8885 37.9933L51.878 37.9911L51.7426 38.0959C51.5462 38.2481 51.2445 38.4022 50.8576 38.5511V36.7893C51.2999 36.6359 51.6764 36.4659 51.9737 36.2796V37.8122C51.9737 37.8685 51.9439 37.9293 51.8885 37.9933ZM41.9944 46.327C42.0967 46.3289 42.199 46.3304 42.3013 46.3315V48.1826C42.2291 48.1819 42.1569 48.1819 42.0851 48.1807C42.0524 48.1804 42.0208 48.1793 41.9884 48.1789C41.818 48.1759 41.6484 48.1719 41.4799 48.1667C41.459 48.1659 41.4382 48.1652 41.4174 48.1644C41.2146 48.1578 41.0134 48.1493 40.8136 48.1396V46.2907C41.1864 46.3081 41.561 46.3196 41.9356 46.3263C41.9549 46.3263 41.9747 46.3267 41.9944 46.327ZM43.4114 46.3259C43.786 46.3189 44.1606 46.3074 44.5334 46.2904V48.1396C44.4538 48.1437 44.3738 48.1474 44.293 48.1507C44.0698 48.16 43.8433 48.1678 43.613 48.1733C43.5587 48.1748 43.504 48.1756 43.4493 48.1767C43.3165 48.1793 43.1803 48.18 43.0457 48.1811V46.3311C43.148 46.33 43.2503 46.3285 43.3526 46.3267C43.3719 46.3267 43.3917 46.3263 43.4114 46.3259ZM45.5252 48.077C45.4433 48.0833 45.3607 48.0896 45.2774 48.0956V46.2485C45.6546 46.2237 46.0274 46.1941 46.3934 46.1585V47.9978C46.1635 48.0219 45.9284 48.0444 45.687 48.0641C45.633 48.0689 45.5791 48.073 45.5252 48.077ZM47.1375 46.0785C47.521 46.0326 47.8934 45.9804 48.2535 45.9222V47.7407C47.9031 47.8022 47.5307 47.8589 47.1375 47.9104V46.0785ZM39.1462 48.0178C39.1083 48.0141 39.0707 48.01 39.0331 48.0063C39.0063 48.0037 38.9799 48.0004 38.9532 47.9978V46.1589C39.3192 46.1941 39.692 46.2241 40.0692 46.2489V48.0944C39.7567 48.0722 39.4479 48.047 39.1462 48.0178ZM38.2091 46.0785V47.9104C37.8159 47.8589 37.4435 47.8022 37.0931 47.7407V45.9222C37.4532 45.9804 37.8256 46.033 38.2091 46.0785ZM48.9975 47.5978V45.79C49.3926 45.7126 49.7661 45.6274 50.1136 45.5341V47.3233C49.7821 47.4185 49.409 47.5107 48.9975 47.5978ZM41.9944 37.8085C42.0967 37.8104 42.199 37.8119 42.3013 37.813V39.6622C41.8005 39.6574 41.3028 39.6444 40.8132 39.62V37.7722C41.186 37.7896 41.5606 37.8011 41.9352 37.8078C41.9549 37.8078 41.9747 37.8081 41.9944 37.8085ZM43.4114 37.8074C43.786 37.8004 44.1606 37.7889 44.5334 37.7719V39.6196C44.4701 39.6226 44.4095 39.627 44.3459 39.63C44.3407 39.6304 44.3355 39.6304 44.3299 39.6307C44.0803 39.6419 43.8258 39.65 43.568 39.6559C43.5278 39.657 43.4876 39.6574 43.4475 39.6585C43.315 39.6611 43.1796 39.6615 43.0453 39.663V37.813C43.1476 37.8119 43.2499 37.8104 43.3522 37.8085C43.3719 37.8081 43.3917 37.8078 43.4114 37.8074ZM45.6435 42.2519C46.0181 42.2448 46.3927 42.2333 46.7655 42.2163V44.0637C46.2766 44.0878 45.7796 44.1011 45.2774 44.1063V42.2574C45.3797 42.2563 45.482 42.2548 45.5843 42.253C45.604 42.2526 45.6237 42.2522 45.6435 42.2519ZM42.0584 44.0033C41.8203 43.9848 41.5878 43.9644 41.3608 43.9419C41.3121 43.937 41.2634 43.9319 41.215 43.927C41.205 43.9259 41.1953 43.9244 41.1852 43.9237V42.0844C41.5513 42.1196 41.9241 42.1496 42.3013 42.1744V44.0204C42.2711 44.0181 42.2392 44.0167 42.209 44.0144C42.1584 44.0107 42.1082 44.007 42.0584 44.0033ZM39.7511 43.7378C39.6038 43.7144 39.4654 43.6893 39.3252 43.6648V41.8485C39.6853 41.9067 40.0577 41.9589 40.4412 42.0048V43.8367C40.2135 43.8067 39.9907 43.7756 39.7768 43.7422C39.7682 43.7404 39.7597 43.7389 39.7511 43.7378ZM44.2265 42.253C44.3288 42.2548 44.4311 42.2563 44.5334 42.2574V44.1067C44.3522 44.1048 44.1695 44.1041 43.9928 44.1C43.9657 44.0993 43.9374 44.0989 43.9102 44.0985C43.6305 44.0915 43.3571 44.0807 43.0885 44.0678C43.074 44.067 43.0594 44.0663 43.0453 44.0659V42.2167C43.4181 42.2341 43.7927 42.2456 44.1673 42.2522C44.187 42.2522 44.2067 42.2526 44.2265 42.253ZM47.9715 43.9856C47.9581 43.9867 47.9451 43.9878 47.9317 43.9889C47.793 44.0004 47.6497 44.0078 47.5091 44.0178V42.1741C47.8863 42.1493 48.2591 42.1196 48.6252 42.0841V43.9215C48.4094 43.9444 48.1936 43.967 47.9715 43.9856ZM38.9532 39.4778V37.64C39.3192 37.6752 39.692 37.7052 40.0692 37.73V39.5737C39.6905 39.5467 39.317 39.5159 38.9532 39.4778ZM46.3934 39.477C46.0341 39.5148 45.6621 39.5478 45.2774 39.5752V37.73C45.6546 37.7052 46.0274 37.6756 46.3934 37.64V39.477ZM47.1375 37.56C47.521 37.5141 47.8934 37.4619 48.2535 37.4037V39.2193C47.9008 39.2811 47.5296 39.3381 47.1375 39.3896V37.56ZM48.9975 39.0767V37.2719C49.3926 37.1944 49.7661 37.1093 50.1136 37.0159V38.8011C49.7803 38.8978 49.4049 38.99 48.9975 39.0767ZM38.2091 37.56V39.39C38.1355 39.3804 38.0588 39.3726 37.9859 39.3626C37.9383 39.3559 37.8929 39.3489 37.846 39.3422C37.631 39.3115 37.4208 39.2785 37.2147 39.2441C37.1734 39.237 37.1336 39.2296 37.0931 39.2226V37.4041C37.4532 37.4619 37.8256 37.5144 38.2091 37.56ZM38.5811 41.7159V43.5207C38.1701 43.433 37.7973 43.3396 37.4651 43.2426V41.46C37.8126 41.5533 38.1861 41.6389 38.5811 41.7159ZM50.451 43.673C50.2877 43.7011 50.1229 43.7289 49.9536 43.7544C49.8565 43.7693 49.7572 43.7833 49.6575 43.7974C49.5634 43.8107 49.4655 43.8222 49.3699 43.8344V42.0044C49.7535 41.9585 50.1259 41.9063 50.486 41.8481V43.6667C50.4741 43.6689 50.4625 43.6711 50.451 43.673ZM36.7211 41.2337V42.9933C36.1363 42.7685 35.759 42.5389 35.6363 42.3344L35.6113 42.293C35.6091 42.2815 35.6054 42.2693 35.605 42.2578V40.7241C35.9023 40.9104 36.2787 41.0804 36.7211 41.2337ZM36.3491 45.79V47.5978C36.0075 47.5256 35.6924 47.4496 35.4056 47.3719C35.3602 47.3593 35.3134 47.347 35.2691 47.3341C35.2568 47.3304 35.2453 47.327 35.233 47.3237V45.5344C35.5805 45.6274 35.954 45.713 36.3491 45.79ZM37.4651 49.8641V51.6719C37.0536 51.5848 36.6805 51.4926 36.3491 51.3974V49.6081C36.6965 49.7015 37.07 49.787 37.4651 49.8641ZM38.2091 49.9967C38.5692 50.0548 38.9416 50.107 39.3252 50.153V51.9848C38.9319 51.9333 38.5596 51.8767 38.2091 51.8152V49.9967ZM40.0692 50.2326C40.4353 50.2678 40.808 50.2978 41.1852 50.3226V52.1696C40.7987 52.1426 40.4267 52.1096 40.0692 52.0722V50.2326ZM41.9293 50.3644C42.302 50.3819 42.6766 50.3933 43.0513 50.4C43.071 50.4004 43.0907 50.4007 43.11 50.4011C43.2123 50.403 43.3146 50.4044 43.417 50.4056V52.257C42.9028 52.2522 42.4066 52.2374 41.9289 52.2141V50.3644H41.9293ZM44.1614 50.4052C44.2637 50.4041 44.366 50.4026 44.4683 50.4007C44.488 50.4004 44.5077 50.4 44.5274 50.3996C44.902 50.3926 45.2767 50.3811 45.6494 50.3641V52.2133C45.1717 52.2367 44.6755 52.2515 44.1614 52.2563V50.4052ZM46.3934 50.3226C46.7707 50.2978 47.1434 50.2681 47.5095 50.2326V52.0719C47.152 52.1093 46.78 52.1422 46.3934 52.1693V50.3226ZM48.2535 50.1526C48.6371 50.1067 49.0094 50.0544 49.3696 49.9963V51.8148C49.0191 51.8763 48.6467 51.933 48.2535 51.9844V50.1526ZM50.1136 49.8641C50.5087 49.7867 50.8822 49.7015 51.2296 49.6081V51.3974C50.8982 51.4926 50.525 51.5848 50.1136 51.6719V49.8641ZM51.9335 46.4522L51.8066 46.563C51.6113 46.7344 51.2858 46.9074 50.8576 47.0741V45.3081C51.2999 45.1548 51.6764 44.9848 51.9737 44.7985V46.3311C51.9737 46.3693 51.9595 46.41 51.9335 46.4522ZM52.1835 43.2948C51.9982 43.3463 51.8022 43.3944 51.602 43.4415C51.5094 43.463 51.4149 43.4844 51.3182 43.5052C51.2895 43.5115 51.259 43.517 51.23 43.5233V41.7163C51.6251 41.6389 51.9986 41.5537 52.346 41.4604V43.2496C52.2925 43.2644 52.2385 43.2796 52.1835 43.2948ZM33.3729 37.8133V36.2796C33.6702 36.4659 34.0467 36.6359 34.489 36.7893V38.5626C33.7654 38.2926 33.3737 38.0219 33.3729 37.8133ZM33.3729 46.3319V44.7981C33.6702 44.9844 34.0467 45.1544 34.489 45.3078V47.0741L34.2766 46.9919L34.2721 46.9963C33.688 46.7552 33.3737 46.5185 33.3729 46.3319ZM34.489 50.4059V48.8722C34.7862 49.0585 35.1627 49.2285 35.605 49.3819V51.1552C34.8815 50.8852 34.4897 50.6144 34.489 50.4059ZM51.9737 51.1552V49.3822C52.416 49.2289 52.7925 49.0589 53.0897 48.8726V50.4052C53.0893 50.6137 52.6972 50.8848 51.9737 51.1552ZM53.0897 43.007V41.2341C53.532 41.0807 53.9085 40.9107 54.2057 40.7244V42.257C54.2054 42.4656 53.8133 42.7367 53.0897 43.007Z" fill="white"/>
</g>
<defs>
<filter id="filter0_d" x="0" y="0" width="86" height="86" filterUnits="userSpaceOnUse" color-interpolation-filters="sRGB">
<feFlood flood-opacity="0" result="BackgroundImageFix"/>
<feColorMatrix in="SourceAlpha" type="matrix" values="0 0 0 0 0 0 0 0 0 0 0 0 0 0 0 0 0 0 127 0"/>
<feOffset/>
<feGaussianBlur stdDeviation="10"/>
<feColorMatrix type="matrix" values="0 0 0 0 0.968627 0 0 0 0 0.576471 0 0 0 0 0.101961 0 0 0 0.6 0"/>
<feBlend mode="normal" in2="BackgroundImageFix" result="effect1_dropShadow"/>
<feBlend mode="normal" in="SourceGraphic" in2="effect1_dropShadow" result="shape"/>
</filter>
<filter id="filter1_d" x="32.6289" y="33" width="23.3209" height="22" filterUnits="userSpaceOnUse" color-interpolation-filters="sRGB">
<feFlood flood-opacity="0" result="BackgroundImageFix"/>
<feColorMatrix in="SourceAlpha" type="matrix" values="0 0 0 0 0 0 0 0 0 0 0 0 0 0 0 0 0 0 127 0"/>
<feOffset dx="1" dy="2"/>
<feColorMatrix type="matrix" values="0 0 0 0 0 0 0 0 0 0 0 0 0 0 0 0 0 0 0.15 0"/>
<feBlend mode="normal" in2="BackgroundImageFix" result="effect1_dropShadow"/>
<feBlend mode="normal" in="SourceGraphic" in2="effect1_dropShadow" result="shape"/>
</filter>
</defs>
</svg>
