<svg width="30" height="30" viewBox="0 0 30 30" fill="none" xmlns="http://www.w3.org/2000/svg">
<g opacity="0.6" clip-path="url(#clip0)">
<path d="M9.49223 20.1089V11.9641H7.60938V9.87695H12.0904V20.1089H9.49223Z" fill="#8190B0"/>
<path d="M21.8537 12.5184C21.8537 13.4088 21.3721 14.1969 20.5693 14.6349C21.6931 15.1019 22.3938 16.0799 22.3938 17.2183C22.3938 19.0574 20.7589 20.2251 18.2047 20.2251C15.6503 20.2251 14.0156 19.072 14.0156 17.2622C14.0156 16.0945 14.7746 15.1019 15.9569 14.6349C15.0957 14.1531 14.5411 13.3359 14.5411 12.4455C14.5411 10.8106 15.9715 9.77441 18.1901 9.77441C20.4378 9.77441 21.8537 10.8399 21.8537 12.5184ZM16.4677 16.9995C16.4677 17.8607 17.0808 18.3424 18.2047 18.3424C19.3286 18.3424 19.9562 17.8754 19.9562 16.9995C19.9562 16.153 19.3286 15.6712 18.2047 15.6712C17.0807 15.6712 16.4677 16.1529 16.4677 16.9995ZM16.7305 12.6644C16.7305 13.3943 17.256 13.8028 18.2047 13.8028C19.1534 13.8028 19.6789 13.3942 19.6789 12.6644C19.6789 11.9056 19.1534 11.4822 18.2047 11.4822C17.2559 11.4822 16.7305 11.9056 16.7305 12.6644Z" fill="#8190B0"/>
<path d="M26.7179 11.0318C27.1499 12.3067 27.369 13.6401 27.369 15C27.369 21.8192 21.8211 27.367 15.0019 27.367C8.18268 27.367 2.63475 21.8192 2.63475 15C2.63475 8.18073 8.18259 2.63307 15.0018 2.63307C16.362 2.63307 17.6954 2.85201 18.97 3.28413V0.532015C17.6825 0.179072 16.3527 0 15.0019 0C6.73096 0 0.00195312 6.729 0.00195312 15C0.00195312 23.2711 6.73096 30.0001 15.0019 30.0001C23.2729 30.0001 30.0018 23.2711 30.0018 15C30.0018 13.6493 29.8228 12.3194 29.4698 11.0318H26.7179Z" fill="#8190B0"/>
<path d="M25.9682 4.02365V1.14746H23.9V4.02365H21.041V6.09168H23.9V8.96778H25.9682V6.09168H28.8442V4.02365H25.9682Z" fill="#8190B0"/>
</g>
<defs>
<clipPath id="clip0">
<rect width="30" height="30" fill="white"/>
</clipPath>
</defs>
</svg>
