<svg width="78" height="30" viewBox="0 0 78 30" fill="none" xmlns="http://www.w3.org/2000/svg">
<g opacity="0.6" clip-path="url(#clip0)">
<path fill-rule="evenodd" clip-rule="evenodd" d="M0 6.99438C0.0636164 6.71039 0.119178 6.42413 0.192 6.14267C0.835808 3.6536 2.77882 2.97986 4.7372 3.15649C5.46427 3.22205 6.11038 3.50663 6.64315 4.16916C6.65753 3.86579 6.66781 3.63986 6.67948 3.40146C6.73632 3.38836 6.794 3.37938 6.85208 3.37458C7.79622 3.37315 8.74035 3.37348 9.73274 3.37348C9.74021 3.54034 9.75263 3.68823 9.75271 3.83612C9.75386 6.53197 9.75287 9.22784 9.74975 11.9237C9.75167 12.3447 9.72299 12.7653 9.66394 13.182C9.45287 14.59 8.59454 15.4213 7.30685 15.7985C5.61373 16.2975 3.82134 16.3237 2.11504 15.8744C0.782548 15.5317 0.22463 14.8082 0.0647671 13.3841C0.0527671 13.2753 0.0221096 13.1691 0 13.0618V12.809H3.25693C3.33764 13.5896 3.52315 13.8397 4.23427 13.9351C4.62879 13.9879 5.04978 13.9308 5.44512 13.8513C5.66537 13.817 5.86758 13.7065 6.01829 13.5383C6.16901 13.3701 6.2592 13.1542 6.27394 12.9263C6.32539 12.4364 6.32285 11.9403 6.3489 11.3322C5.84441 11.9315 5.27433 12.1094 4.67005 12.1815C2.47808 12.4433 0.820191 11.5172 0.198822 9.36447C0.117699 9.08427 0.0657534 8.7959 0 8.51124V6.99438ZM6.28241 7.79621C6.24049 7.4298 6.22446 7.14927 6.17391 6.87539C6.04068 6.15388 5.63655 5.75275 5.02397 5.70994C4.29 5.65871 3.76644 5.99773 3.54838 6.70854C3.32998 7.39337 3.3202 8.13017 3.52035 8.82084C3.70249 9.44865 4.12035 9.76028 4.76145 9.77469C5.41372 9.78944 5.89742 9.48152 6.0835 8.8666C6.19561 8.49725 6.228 8.10253 6.28241 7.79621ZM58.3561 30C58.3341 29.8769 58.3196 29.7524 58.3125 29.6274C58.3102 25.6413 58.3099 21.6551 58.3116 17.6689C58.3116 17.5726 58.3247 17.4763 58.3342 17.3471H61.7816C61.7945 17.5375 61.8063 17.7143 61.8218 17.9447C62.6015 17.1947 63.5174 17.0251 64.5019 17.0896C65.9548 17.1848 66.9864 17.9322 67.5462 19.2851C68.2417 20.9651 68.2836 22.7033 67.6558 24.4112C66.7669 26.8297 63.8996 27.6437 61.8082 26.0286V30H58.3561ZM61.7564 21.9851C61.7997 22.374 61.8116 22.7406 61.8859 23.0933C62.0373 23.8126 62.4986 24.2269 63.1088 24.2408C63.7334 24.2548 64.3241 23.8396 64.409 23.1368C64.499 22.364 64.4965 21.5827 64.4013 20.8105C64.3219 20.1544 63.807 19.7875 63.2331 19.7752C62.5934 19.7615 62.0719 20.141 61.9095 20.8051C61.8142 21.1938 61.8028 21.6049 61.7564 21.9851ZM41.1781 0V3.88601C41.223 3.89492 41.2692 3.89418 41.3138 3.88382C43.5931 2.27132 46.4288 3.31247 47.1474 6.06413C47.5481 7.53914 47.4419 9.11055 46.8467 10.5148C46.0464 12.4267 44.0877 13.3511 42.17 12.7154C41.8039 12.5942 41.4735 12.3597 41.1097 12.1683C41.0999 12.273 41.085 12.4295 41.0673 12.6233H37.6438V0H41.1781ZM43.8951 8.05205L43.8562 8.04177C43.8364 7.7486 43.8241 7.45458 43.7935 7.1625C43.7746 7.0239 43.7413 6.88777 43.6942 6.7564C43.4959 6.14621 43.0465 5.7632 42.5166 5.74576C41.9775 5.72798 41.4618 6.10576 41.2707 6.72329C41.006 7.56972 41.0095 8.48031 41.2806 9.32461C41.354 9.58281 41.508 9.80918 41.719 9.96901C41.93 10.1288 42.1863 10.2133 42.4486 10.2094C43.0146 10.2144 43.4613 9.91264 43.646 9.31761C43.7726 8.90983 43.8151 8.47483 43.8951 8.05205ZM70.4383 30L69.3237 29.8163V27.2354C69.6668 27.2354 70.0158 27.2394 70.3648 27.2345C71.0336 27.2251 71.1715 27.0335 70.9565 26.3816C70.0077 23.5062 69.0562 20.6317 68.1019 17.7581C68.0594 17.6301 68.0197 17.5014 67.9591 17.3128H70.007C70.4313 17.3128 70.8565 17.3291 71.2798 17.3072C71.5757 17.2919 71.7029 17.3772 71.767 17.7008C72.1065 19.4155 72.4763 21.1237 72.8373 22.8338C72.8625 22.9528 72.9019 23.0686 72.9636 23.2888C73.1764 22.3501 73.3698 21.5087 73.5575 20.6658C73.7824 19.6562 74.0096 18.6469 74.2198 17.634C74.2733 17.3762 74.3904 17.3036 74.6378 17.307C75.6097 17.3203 76.5817 17.314 77.5537 17.3107C77.7025 17.3102 77.8513 17.2873 78 17.2749V17.4434C77.9618 17.515 77.9277 17.5888 77.8979 17.6645C76.8623 20.7715 75.8353 23.8815 74.7866 26.9839C74.5878 27.5777 74.3397 28.1528 74.0449 28.703C73.883 29.0057 73.6584 29.2683 73.3869 29.4725C73.1154 29.6766 72.8036 29.8174 72.4734 29.8848C72.2629 29.9328 72.0484 29.9617 71.8357 29.9993H70.4383V30ZM51.5342 0C51.5424 0.111489 51.5585 0.222978 51.5589 0.334466C51.5601 4.32082 51.5601 8.30714 51.5589 12.2934C51.5589 12.3912 51.5507 12.4889 51.5443 12.6228H48V0H51.5342ZM56.2192 0V2.44323H52.6027V0H56.2192ZM36.5599 12.6381H32.9955V12.17C32.9955 10.7374 32.9952 9.3048 32.9948 7.87222C32.9948 7.70368 32.9934 7.53514 32.9794 7.36728C32.9124 6.56419 32.5 6.18952 31.7124 6.20983C30.9602 6.2293 30.4954 6.67466 30.4881 7.43848C30.4731 9.01129 30.4807 10.5844 30.4791 12.1576C30.4791 12.3081 30.4791 12.4587 30.4791 12.634H26.8908C26.8908 12.4823 26.8908 12.3346 26.8908 12.1873C26.8894 10.6283 26.894 9.06935 26.884 7.51037C26.879 6.72581 26.5001 6.28197 25.8199 6.22011C25.0382 6.14916 24.5212 6.54152 24.3834 7.32522C24.3534 7.51899 24.3401 7.71508 24.3435 7.91124C24.3405 9.46938 24.3419 11.0275 24.3419 12.6225H20.8003V3.39354H24.2137V4.62388C25.0027 3.42008 26.0684 3.12253 27.2706 3.17444C28.4696 3.22669 29.501 3.60725 30.1098 4.81525C30.2693 4.60551 30.4022 4.40419 30.5606 4.22688C31.4794 3.19787 32.6674 3.06978 33.9224 3.20419C35.1848 3.33902 36.1395 4.17185 36.4478 5.3952C36.5117 5.62479 36.5477 5.86157 36.5551 6.1002C36.5632 8.26155 36.5599 10.4231 36.5599 12.6381ZM67.6082 12.8085H70.7726C70.8003 12.8996 70.8211 12.9927 70.835 13.0871C70.8679 13.527 71.121 13.8226 71.5124 13.8731C71.9951 13.937 72.4841 13.932 72.9655 13.858C73.4682 13.7771 73.7825 13.4113 73.8285 12.8708C73.8688 12.4014 73.8767 11.9291 73.9025 11.382C72.8603 12.3571 71.6803 12.3228 70.4931 12.1122C69.5324 11.9416 68.7872 11.3798 68.2553 10.5407C67.2449 8.94649 67.3024 6.20326 68.4009 4.67124C69.3667 3.3241 70.7585 3.03775 72.2728 3.15683C72.6478 3.17649 73.0142 3.27855 73.3473 3.45609C73.6804 3.63363 73.9724 3.8825 74.2035 4.18584V3.39876H77.2446C77.2638 3.4731 77.2765 3.54905 77.2824 3.6257C77.2773 6.60135 77.29 9.57725 77.255 12.5526C77.2348 14.2722 76.4598 15.3141 74.8533 15.7953C73.136 16.3121 71.3127 16.3304 69.5859 15.8481C68.1553 15.4585 67.4725 14.3783 67.6082 12.8085ZM73.8228 7.71396C73.7943 7.46376 73.7723 7.19848 73.7324 6.93607C73.62 6.19449 73.2117 5.76101 72.5907 5.71087C71.836 5.64986 71.268 5.97767 71.1089 6.73306C70.9889 7.34629 70.9609 7.97472 71.026 8.5966C71.1 9.37955 71.5925 9.76626 72.3275 9.77528C73.0565 9.7843 73.5736 9.3573 73.7152 8.60764C73.7697 8.31986 73.7867 8.0245 73.8228 7.71396ZM30.4953 26.6985H27.4913V19.9671H24.2583V26.6772H20.759V13.9899H24.3112V18.1196C24.359 18.1184 24.406 18.1071 24.4492 18.0863C25.3862 16.803 27.6621 16.6364 28.9809 17.3447C30.0876 17.9394 30.4669 18.9527 30.485 20.1352C30.5151 22.1424 30.4948 24.1503 30.4957 26.1579C30.4954 26.3247 30.4953 26.4911 30.4953 26.6985ZM19.9281 12.6404H16.5999C16.5786 12.4382 16.5588 12.2517 16.5332 12.0078C15.5458 12.7008 14.4767 12.9214 13.3502 12.8842C11.9337 12.8377 10.8845 12.0804 10.5218 10.8667C9.96213 8.99233 10.9705 7.34494 12.9716 6.92115C13.9474 6.71444 14.9371 6.57742 15.9197 6.40399C16.0613 6.37227 16.2012 6.33329 16.3389 6.28719C16.3924 5.69233 16.2144 5.37118 15.7011 5.2811C15.3523 5.22425 14.9964 5.23044 14.6497 5.29938C14.4653 5.33503 14.2108 5.52337 14.1683 5.6909C14.0635 6.10441 13.7984 6.10264 13.4926 6.10188C12.5651 6.09969 11.6377 6.10112 10.7053 6.10112C10.8697 4.64275 11.729 3.77115 13.0676 3.3841C14.5247 2.96361 16.0632 2.93687 17.5334 3.30649C19.0293 3.67247 19.7272 4.57896 19.762 6.19947C19.7993 7.93947 19.7684 9.6809 19.7867 11.4216C19.7918 11.8172 19.8764 12.2121 19.9281 12.6404ZM16.3281 8.39326C15.751 8.5618 15.1768 8.72688 14.6044 8.89829C14.4731 8.93675 14.3455 8.98776 14.2234 9.05065C13.815 9.26494 13.6206 9.61374 13.7298 9.96076C13.8613 10.3776 14.1962 10.4832 14.5752 10.4832C15.6508 10.4819 16.4589 9.52846 16.3283 8.39326H16.3281ZM57.4335 26.599H54.1109C54.0979 26.3895 54.0863 26.1977 54.0789 26.0836C53.4007 26.3065 52.7234 26.6293 52.0154 26.7335C51.3262 26.8321 50.6254 26.8051 49.9454 26.6537C48.7759 26.389 48.0012 25.3428 47.9219 24.1388C47.8315 22.7696 48.4227 21.6191 49.626 21.1745C50.4764 20.8601 51.4013 20.756 52.2945 20.565C52.7356 20.4707 53.1786 20.3843 53.6231 20.3096C53.9199 20.2597 54.0024 20.0736 53.8727 19.8393C53.7525 19.6218 53.5796 19.3252 53.3851 19.2831C52.9604 19.2055 52.5263 19.199 52.0996 19.2637C51.9399 19.2838 51.7275 19.5019 51.678 19.6721C51.5753 20.0249 51.3674 20.0607 51.0698 20.0567C50.141 20.0442 49.2122 20.0521 48.2493 20.0521C48.2745 19.6048 48.4029 19.1699 48.624 18.7834C48.8451 18.3969 49.1527 18.0698 49.5213 17.829C50.2354 17.3397 51.0442 17.1528 51.8833 17.0746C52.9787 16.9724 54.0708 16.9616 55.1421 17.2706C56.6078 17.6934 57.281 18.5877 57.2906 20.141C57.3005 21.7421 57.2838 23.3427 57.3025 24.9433C57.3089 25.4916 57.387 26.0387 57.4335 26.599ZM53.8788 22.3127C53.171 22.5351 52.4856 22.7213 51.8221 22.9689C51.361 23.141 51.1527 23.5273 51.2429 23.8655C51.3471 24.2563 51.7389 24.4818 52.2268 24.4319C53.2626 24.3259 53.9785 23.4337 53.8788 22.3127ZM57.2322 3.38334H60.5564V4.56843C61.5286 3.28888 62.7584 2.97337 64.1318 3.18067C65.8085 3.43348 66.7501 4.4743 66.799 6.22146C66.8576 8.32534 66.8141 10.4322 66.8133 12.5379C66.805 12.5722 66.7917 12.6051 66.7739 12.6354H63.2821C63.275 12.4693 63.2632 12.3196 63.2631 12.1699C63.2617 10.6537 63.2755 9.13736 63.2517 7.6216C63.2465 7.28511 63.1867 6.90152 63.0178 6.62638C62.7126 6.12919 62.1736 6.16803 61.6781 6.24371C61.2308 6.31205 60.9384 6.60455 60.833 7.05371C60.7793 7.29984 60.7534 7.5515 60.7559 7.80371C60.749 9.24961 60.7525 10.6956 60.7525 12.1416C60.7525 12.2938 60.7525 12.4462 60.7525 12.6283H57.2321V3.38334H57.2322ZM40.9295 22.6461H34.8046C34.705 23.3724 35.0347 24.0089 35.6121 24.2523C36.4469 24.6041 37.1138 24.2921 37.8883 23.1729L40.7715 24.4304C40.4588 25.0319 40.004 25.5434 39.4487 25.9181C37.6578 27.1624 35.7135 27.3731 33.7566 26.4876C31.874 25.6357 31.1404 23.9397 31.1008 21.9167C31.059 19.7847 32.1446 18.0681 33.9112 17.3458C35.981 16.4998 38.3678 16.9449 39.734 18.4396C40.4749 19.2504 40.8366 20.2351 40.9241 21.3272C40.9574 21.7428 40.9295 22.1634 40.9295 22.6461ZM34.8068 20.6405H37.2916C37.3409 19.9307 36.9105 19.3706 36.2762 19.2979C35.4928 19.208 34.916 19.7288 34.8068 20.6404V20.6405ZM18.8895 14.6256V17.5281H20.3665V19.5405H18.8159C18.8159 20.2746 18.8185 20.9585 18.815 21.6425C18.8127 22.1199 18.7951 22.5972 18.797 23.0746C18.7999 23.7874 19.0696 24.0672 19.7658 24.0786C19.9556 24.0817 20.1459 24.0477 20.3691 24.0281V26.5337C19.2288 26.7147 18.075 26.8594 16.9262 26.5896C15.8176 26.3294 15.2167 25.521 15.2116 24.3342C15.2056 22.9161 15.2347 21.4979 15.2481 20.0796C15.2495 19.9261 15.2481 19.7725 15.2481 19.5619H14.0577V17.5373H15.2872V14.6256H18.8895ZM45.0593 26.6063H41.5474V17.3535H44.938C44.9484 17.57 44.9588 17.7861 44.9735 18.0913C45.8234 17.2926 46.7982 17.0743 47.8852 17.1251V20.22C47.5662 20.22 47.2425 20.2106 46.9195 20.2217C45.7355 20.2625 45.0732 20.9449 45.062 22.1585C45.05 23.4781 45.0591 24.7979 45.059 26.1177V26.6065L45.0593 26.6063ZM52.6312 3.38368H56.1467V12.6396H52.6312V3.38368Z" fill="#8190B0"/>
</g>
<defs>
<clipPath id="clip0">
<rect width="78" height="30" fill="white"/>
</clipPath>
</defs>
</svg>
