<svg width="110" height="30" viewBox="0 0 110 30" fill="none" xmlns="http://www.w3.org/2000/svg">
<g opacity="0.6" clip-path="url(#clip0)">
<path d="M52.3059 0.000620157C53.498 -0.0157286 54.1496 0.294898 55.0079 0.491083C55.1509 0.785361 55.2304 0.752664 55.3257 1.14503C55.278 1.14503 55.2145 1.14503 55.1668 1.14503C54.9761 1.50471 54.8171 1.68454 54.3721 1.79899C53.8476 1.14503 52.5602 1.29217 51.6702 1.47201C51.543 1.65185 51.6861 1.48836 51.5112 1.6355C51.4636 2.01152 51.4 2.40389 51.3523 2.77991C51.5589 2.9434 51.5907 3.10689 51.8291 3.27037C52.2424 3.67909 52.4967 3.40116 53.1006 3.59735C53.1006 3.6464 53.1006 3.71179 53.1006 3.76084C53.4185 3.76084 53.7364 3.76084 54.0542 3.76084C54.0542 3.80988 54.0542 3.87528 54.0542 3.92433C54.2132 3.92433 54.3721 3.92433 54.531 3.92433C55.0237 4.15321 55.2622 4.74176 55.6436 5.06874C55.6913 5.78809 55.9456 6.54013 55.4847 7.03059C55.2622 7.89708 54.531 7.94612 54.0542 8.50198C53.3072 8.55103 52.5761 8.61642 51.8291 8.66547C51.3523 8.50198 50.8755 8.33849 50.3987 8.17501C50.208 7.83168 50.0331 7.81533 49.9219 7.35757C50.208 7.19408 50.3987 6.99789 50.5576 6.70362C51.1139 6.83441 51.3682 7.21043 51.8291 7.35757C52.5125 7.58645 53.5774 7.27582 54.0542 7.19408C54.1019 7.03059 54.1655 6.8671 54.2132 6.70362C54.2608 6.70362 54.3244 6.70362 54.3721 6.70362C54.4993 6.47473 54.245 5.44476 54.2132 5.39571C53.9748 5.05239 51.5907 4.67637 51.0344 4.57828C50.8278 4.30035 50.6053 4.03877 50.3987 3.76084C50.351 3.76084 50.2874 3.76084 50.2397 3.76084C50.1921 3.15593 50.1285 2.56738 50.0808 1.96247C50.1285 1.96247 50.1921 1.96247 50.2397 1.96247C50.2874 1.68454 50.351 1.42296 50.3987 1.14503C50.6053 0.981546 50.8278 0.818059 51.0344 0.654571C51.0344 0.605525 51.0344 0.54013 51.0344 0.491083C51.3046 0.294898 51.4 0.491083 51.6702 0.164108C51.8768 0.164108 52.0993 0.164108 52.3059 0.164108C52.3059 0.115062 52.3059 0.0660152 52.3059 0.000620157Z" fill="#8190B0"/>
<path d="M81.3909 1.47139C81.216 2.22343 80.7551 2.73025 81.5498 3.26975C81.963 3.67847 82.2173 3.40055 82.8213 3.59673C82.8213 3.64578 82.8213 3.71117 82.8213 3.76022C83.1392 3.76022 83.457 3.76022 83.7749 3.76022C83.7749 3.80926 83.7749 3.87466 83.7749 3.92371C83.9339 3.92371 84.0928 3.92371 84.2517 3.92371C84.7444 4.15259 84.9828 4.74114 85.3643 5.06812C85.412 5.78747 85.6663 6.53951 85.2054 7.02997C84.9828 7.89646 84.2517 7.9455 83.7749 8.50136C83.0279 8.55041 82.2968 8.6158 81.5498 8.66485C81.073 8.50136 80.5962 8.33788 80.1194 8.17439C79.9287 7.83106 79.7538 7.81471 79.6426 7.35695C79.9287 7.19346 80.1194 6.99728 80.2783 6.703C80.8346 6.83379 81.0889 7.20981 81.5498 7.35695C82.2332 7.58583 83.2981 7.2752 83.7749 7.19346C83.8226 7.02997 83.8862 6.86649 83.9339 6.703C84.2358 6.34332 84.061 5.44414 83.7749 5.23161C83.2663 4.83924 82.4081 5.13352 81.7087 4.90463C81.7087 4.85559 81.7087 4.79019 81.7087 4.74114C81.5498 4.74114 81.3909 4.74114 81.2319 4.74114C80.771 4.54496 80.3737 4.18529 80.1194 3.76022C79.4519 3.10627 79.9605 1.86376 80.1194 1.14441C80.326 0.980926 80.5485 0.817439 80.7551 0.653951C80.7551 0.604905 80.7551 0.53951 80.7551 0.490463C80.9618 0.441417 81.1843 0.376022 81.3909 0.326975C81.3909 0.277929 81.3909 0.212534 81.3909 0.163488C81.5975 0.163488 81.82 0.163488 82.0266 0.163488C82.0266 0.114441 82.0266 0.0490463 82.0266 0C82.4557 0 82.869 0 83.2981 0C83.2981 0.0490463 83.2981 0.114441 83.2981 0.163488C83.5683 0.163488 83.8226 0.163488 84.0928 0.163488C84.0928 0.212534 84.0928 0.277929 84.0928 0.326975C84.6332 0.588556 84.8716 0.490463 85.0464 1.14441C84.9987 1.14441 84.9352 1.14441 84.8875 1.14441C84.6968 1.50409 84.5378 1.68392 84.0928 1.79837C83.5683 1.14441 82.2809 1.29155 81.3909 1.47139Z" fill="#8190B0"/>
<path d="M16.3854 3.10586C17.3708 3.18761 18.1178 3.67807 18.7694 4.08679C18.9761 4.13584 19.1986 4.20123 19.4052 4.25028C19.4529 4.36472 19.5164 4.46281 19.5641 4.57725C19.7231 4.6263 19.882 4.6917 20.0409 4.74074C20.0409 4.78979 20.0409 4.85518 20.0409 4.90423C20.327 5.13311 20.4224 5.28025 20.8356 5.39469C20.8833 5.72167 20.9469 6.04864 20.9946 6.37562C20.5813 6.6045 20.7244 6.6699 20.0409 6.70259C18.9761 4.75709 14.5258 3.51458 11.7762 4.74074C11.7762 4.78979 11.7762 4.85518 11.7762 4.90423C11.665 4.90423 11.5696 4.90423 11.4584 4.90423C11.4584 4.95328 11.4584 5.01867 11.4584 5.06772C11.2994 5.06772 11.1405 5.06772 10.9815 5.06772C10.9339 5.18216 10.8703 5.28025 10.8226 5.39469C10.7114 5.39469 10.616 5.39469 10.5047 5.39469C10.4571 5.50913 10.3935 5.60723 10.3458 5.72167C10.2345 5.72167 10.1392 5.72167 10.0279 5.72167C10.0279 5.77071 10.0279 5.83611 10.0279 5.88516C9.74184 6.11404 9.64648 6.26118 9.23324 6.37562C9.23324 6.49006 9.23324 6.58815 9.23324 6.70259C8.96305 6.70259 8.70875 6.70259 8.43856 6.70259C8.43856 6.58815 8.43856 6.49006 8.43856 6.37562C8.37499 6.22848 7.97765 6.27753 8.12069 5.88516C8.16837 5.88516 8.23194 5.88516 8.27962 5.88516C8.45445 5.24755 8.62929 5.39469 9.07431 5.06772C9.23324 4.85518 9.39218 4.6263 9.55112 4.41377C9.66237 4.41377 9.75774 4.41377 9.86899 4.41377C9.91667 4.29933 9.98025 4.20123 10.0279 4.08679C10.2345 4.03774 10.4571 3.97235 10.6637 3.9233C10.6637 3.87426 10.6637 3.80886 10.6637 3.75982C10.8226 3.75982 10.9815 3.75982 11.1405 3.75982C11.1405 3.71077 11.1405 3.64537 11.1405 3.59633C11.2517 3.59633 11.3471 3.59633 11.4584 3.59633C11.4584 3.54728 11.4584 3.48189 11.4584 3.43284C11.6173 3.43284 11.7762 3.43284 11.9352 3.43284C11.9352 3.38379 11.9352 3.3184 11.9352 3.26935C12.253 3.22031 12.5709 3.15491 12.8888 3.10586C12.8888 3.05682 12.8888 2.99142 12.8888 2.94238C12.6345 2.66445 12.714 1.84701 12.7298 1.3075C13.2067 0.980525 12.8093 1.12766 13.0477 0.817037L13.3656 0.490061C13.4769 0.490061 13.5722 0.490061 13.6835 0.490061C13.7311 0.37562 13.7947 0.277527 13.8424 0.163086C14.3192 0.163086 14.796 0.163086 15.2728 0.163086C15.4636 0.391969 15.5589 0.408318 15.9086 0.490061C16.4808 1.53638 16.6715 1.60178 16.3854 3.10586Z" fill="#8190B0"/>
<path d="M43.5645 0.163086C45.3604 0.163086 47.1723 0.163086 48.9683 0.163086C48.9683 0.490061 48.9683 0.817037 48.9683 1.14401C48.0147 1.50369 46.2346 1.32385 44.9949 1.3075C44.9949 2.12494 44.9949 2.94238 44.9949 3.75982C46.1074 3.75982 47.22 3.75982 48.3326 3.75982C48.3326 4.08679 48.3326 4.41377 48.3326 4.74074C47.5379 5.05137 46.0598 4.92058 44.9949 4.90423C44.9949 5.72167 44.9949 6.53911 44.9949 7.35655C46.3141 7.35655 47.6491 7.35655 48.9683 7.35655C48.9683 7.73257 48.9683 8.12494 48.9683 8.50096C47.1723 8.50096 45.3604 8.50096 43.5645 8.50096C43.5645 5.72167 43.5645 2.94238 43.5645 0.163086Z" fill="#8190B0"/>
<path d="M72.0137 0.163086C72.4428 0.163086 72.856 0.163086 73.2852 0.163086C73.5554 0.653549 73.8097 1.14401 74.0798 1.63448C74.1911 1.68352 74.2865 1.74892 74.3977 1.79796C74.3977 1.9124 74.3977 2.0105 74.3977 2.12494C74.509 2.17399 74.6043 2.23938 74.7156 2.28843C74.7156 2.40287 74.7156 2.50096 74.7156 2.6154C74.8269 2.66445 74.9222 2.72984 75.0335 2.77889C75.0335 2.89333 75.0335 2.99142 75.0335 3.10587C75.0812 3.10587 75.1447 3.10587 75.1924 3.10587C75.2401 3.26935 75.3037 3.43284 75.3513 3.59633C75.4626 3.64537 75.558 3.71077 75.6692 3.75982C75.6692 3.87426 75.6692 3.97235 75.6692 4.08679C75.7805 4.13584 75.8758 4.20123 75.9871 4.25028C75.9871 4.36472 75.9871 4.46281 75.9871 4.57725C76.0983 4.6263 76.1937 4.6917 76.305 4.74074C76.305 4.85518 76.305 4.95328 76.305 5.06772C76.3526 5.06772 76.4162 5.06772 76.4639 5.06772C76.5116 5.23121 76.5752 5.39469 76.6228 5.55818C76.7341 5.55818 76.8295 5.55818 76.9407 5.55818C76.9407 3.75982 76.9407 1.96145 76.9407 0.163086C77.3698 0.163086 77.7831 0.163086 78.2122 0.163086C78.2122 2.94238 78.2122 5.72167 78.2122 8.50096C77.7831 8.50096 77.3698 8.50096 76.9407 8.50096C76.8295 8.28843 76.6864 8.27208 76.6228 8.17398C76.6228 8.05954 76.6228 7.96145 76.6228 7.84701C76.5116 7.79796 76.4162 7.73257 76.305 7.68352C76.305 7.56908 76.305 7.47099 76.305 7.35655C76.1937 7.3075 76.0983 7.2421 75.9871 7.19306C75.9871 7.07862 75.9871 6.98052 75.9871 6.86608C75.8758 6.81704 75.7805 6.75164 75.6692 6.7026C75.6692 6.58815 75.6692 6.49006 75.6692 6.37562C75.558 6.32657 75.4626 6.26118 75.3513 6.21213C75.3513 6.09769 75.3513 5.9996 75.3513 5.88516C75.3037 5.88516 75.2401 5.88516 75.1924 5.88516C75.1447 5.72167 75.0812 5.55818 75.0335 5.39469C74.9222 5.34565 74.8269 5.28025 74.7156 5.23121C74.7156 5.11676 74.7156 5.01867 74.7156 4.90423C74.6043 4.85518 74.509 4.78979 74.3977 4.74074C74.3977 4.6263 74.3977 4.52821 74.3977 4.41377C74.2865 4.36472 74.1911 4.29933 74.0798 4.25028C73.7461 3.74347 73.9845 3.48189 73.2852 3.26935C73.2852 5.01867 73.2852 6.75164 73.2852 8.50096C72.856 8.50096 72.4428 8.50096 72.0137 8.50096C72.0137 5.72167 72.0137 2.94238 72.0137 0.163086Z" fill="#8190B0"/>
<path d="M88.3855 0.163086C88.3855 2.94238 88.3855 5.72167 88.3855 8.50096C87.9087 8.50096 87.4319 8.50096 86.9551 8.50096C86.9551 5.77072 86.9551 3.05682 86.9551 0.326574C87.3047 0.195783 87.8292 0.163086 88.3855 0.163086Z" fill="#8190B0"/>
<path d="M98.0801 0.163086C98.5092 0.163086 98.9224 0.163086 99.3516 0.163086C99.3516 2.56636 99.3516 4.95328 99.3516 7.35655C100.671 7.35655 102.006 7.35655 103.325 7.35655C103.325 7.73257 103.325 8.12494 103.325 8.50096C101.577 8.50096 99.8284 8.50096 98.0801 8.50096C98.0801 5.72167 98.0801 2.94238 98.0801 0.163086Z" fill="#8190B0"/>
<path d="M104.596 0.163086C106.392 0.163086 108.204 0.163086 110 0.163086C110 0.490061 110 0.817037 110 1.14401C109.046 1.50369 107.266 1.32385 106.026 1.3075C106.026 2.12494 106.026 2.94238 106.026 3.75982C107.139 3.75982 108.251 3.75982 109.364 3.75982C109.364 4.08679 109.364 4.41377 109.364 4.74074C108.569 5.05137 107.091 4.92058 106.026 4.90423C106.026 5.72167 106.026 6.53911 106.026 7.35655C107.345 7.35655 108.68 7.35655 110 7.35655C110 7.73257 110 8.12494 110 8.50096C108.204 8.50096 106.392 8.50096 104.596 8.50096C104.596 5.72167 104.596 2.94238 104.596 0.163086Z" fill="#8190B0"/>
<path d="M41.6585 7.35701C41.6108 7.35701 41.5472 7.35701 41.4995 7.35701C41.4995 7.24257 41.4995 7.14448 41.4995 7.03004C41.4519 7.03004 41.3883 7.03004 41.3406 7.03004C41.3406 6.9156 41.3406 6.8175 41.3406 6.70306C41.2929 6.70306 41.2294 6.70306 41.1817 6.70306C41.134 6.49053 41.0704 6.26164 41.0227 6.04911C40.9115 6.00006 40.8161 5.93467 40.7049 5.88562C40.7049 5.77118 40.7049 5.67309 40.7049 5.55865C40.6572 5.55865 40.5936 5.55865 40.5459 5.55865C40.4982 5.28072 40.4347 5.01914 40.387 4.74121C40.9274 4.59407 40.8002 4.39788 41.3406 4.25075C41.3883 4.08726 41.4519 3.92377 41.4995 3.76028C41.5472 3.76028 41.6108 3.76028 41.6585 3.76028C41.6585 3.64584 41.6585 3.54775 41.6585 3.43331C41.7062 3.43331 41.7697 3.43331 41.8174 3.43331C42.0081 2.94284 41.7697 1.89652 41.6585 1.63494C41.6108 1.42241 41.5472 1.19353 41.4995 0.980992C40.7367 -0.163423 37.9712 0.114507 36.0957 0.163553C36.0957 2.94284 36.0957 5.72214 36.0957 8.50143C36.5248 8.50143 36.9381 8.50143 37.3672 8.50143C37.3672 7.35701 37.3672 6.2126 37.3672 5.06818C37.8917 5.06818 38.4321 5.06818 38.9566 5.06818C39.2268 6.27799 40.085 7.38971 40.5459 8.50143C41.0704 8.50143 41.6108 8.50143 42.1353 8.50143C41.9764 8.14175 41.8651 7.74938 41.6585 7.35701ZM39.4334 3.76028C39.4334 3.80933 39.4334 3.87472 39.4334 3.92377C38.7023 3.92377 37.8599 3.95647 37.3672 3.76028C37.3672 2.9265 37.3195 1.89652 37.5261 1.30797C38.3844 1.29162 39.4811 1.19353 39.9102 1.63494C40.2122 1.83113 40.2916 2.07636 40.5459 2.28889C40.53 3.22077 40.3711 3.20442 40.0691 3.76028C39.8625 3.76028 39.64 3.76028 39.4334 3.76028Z" fill="#8190B0"/>
<path d="M62.7952 1.47078C62.5886 0.66969 61.9687 0.66969 61.5237 0.162878C60.2045 0.146529 58.2655 -0.0660048 57.2324 0.326366C57.2324 3.05661 57.2324 5.77051 57.2324 8.50075C57.7092 8.50075 58.186 8.50075 58.6628 8.50075C58.6628 7.40538 58.6628 6.32637 58.6628 5.231C59.6483 5.24735 61.1899 5.42718 61.6826 4.90402C62.5568 4.67514 62.5727 3.9231 63.1131 3.43263C63.129 2.66424 63.1766 1.8468 62.7952 1.47078ZM61.5237 3.75961C61.3171 3.80865 61.0946 3.87405 60.888 3.9231C60.888 3.97214 60.888 4.03754 60.888 4.08658C60.141 4.08658 59.4098 4.08658 58.6628 4.08658C58.6628 3.1547 58.6628 2.23917 58.6628 1.30729C59.5529 1.29094 60.7608 1.1765 61.2058 1.63427C62.1118 2.19013 61.7303 2.86043 61.5237 3.75961Z" fill="#8190B0"/>
<path d="M68.5183 0.326456C68.2163 0.0158298 67.4216 -0.0168678 66.77 -0.00051903C66.77 0.0485273 66.77 0.113922 66.77 0.162969C66.5634 0.162969 66.3409 0.162969 66.1342 0.162969C65.864 0.489944 65.7687 0.293759 65.4985 0.489944C65.2283 0.81692 64.974 1.1439 64.7038 1.47087C64.6561 1.47087 64.5926 1.47087 64.5449 1.47087C64.1793 2.14117 64.0363 5.96678 64.3859 6.86597C64.5608 7.34008 65.1012 7.7488 65.3396 8.17387C65.7846 8.27196 66.1025 8.54989 66.4521 8.66433C67.0879 8.61529 67.7236 8.54989 68.3594 8.50084C68.6295 8.17387 68.7249 8.37005 68.9951 8.17387C69.313 7.79785 69.6308 7.40548 69.9487 7.02945C69.9487 6.91501 69.9487 6.81692 69.9487 6.70248C69.9964 6.70248 70.06 6.70248 70.1077 6.70248C70.1077 6.42455 70.1077 6.16297 70.1077 5.88504C70.7434 3.7924 70.1553 0.718827 68.5183 0.326456ZM68.8362 6.3755C68.7885 6.3755 68.7249 6.3755 68.6772 6.3755C68.6772 6.48994 68.6772 6.58804 68.6772 6.70248C68.6295 6.70248 68.566 6.70248 68.5183 6.70248C68.4706 6.86597 68.407 7.02945 68.3594 7.19294C67.9302 7.29103 66.9925 7.56896 66.6111 7.19294C66.166 7.0785 66.2137 6.99676 65.9753 6.70248C65.9276 6.70248 65.864 6.70248 65.8164 6.70248C65.6733 6.4736 65.3396 3.84144 65.4985 3.26924C65.5462 3.26924 65.6098 3.26924 65.6574 3.26924C65.6574 2.89321 65.6574 2.50084 65.6574 2.12482C65.7051 2.12482 65.7687 2.12482 65.8164 2.12482C65.9753 1.51992 66.1501 1.6834 66.4521 1.30738C66.9448 1.29103 67.6282 1.22564 67.8825 1.47087C68.5183 1.65071 68.4229 1.89594 68.6772 2.4518C68.7249 2.4518 68.7885 2.4518 68.8362 2.4518C68.8362 3.7597 68.8362 5.0676 68.8362 6.3755Z" fill="#8190B0"/>
<path d="M96.3318 5.55836C96.2841 5.55836 96.2205 5.55836 96.1729 5.55836C96.1729 5.39487 96.1729 5.23138 96.1729 5.0679C96.1252 5.0679 96.0616 5.0679 96.0139 5.0679C95.9663 4.90441 95.9027 4.74092 95.855 4.57743C95.4735 4.47934 95.553 4.52839 95.3782 4.25046L95.2193 4.08697C95.4259 3.92348 95.6484 3.76 95.855 3.59651C95.855 3.48207 95.855 3.38397 95.855 3.26953C95.9027 3.26953 95.9663 3.26953 96.0139 3.26953C96.0139 3.15509 96.0139 3.057 96.0139 2.94256C96.0616 2.94256 96.1252 2.94256 96.1729 2.94256C96.3636 2.4194 96.0298 1.48752 95.855 1.30768C95.4577 -0.294501 92.4061 0.114219 90.4512 0.163265C90.4512 2.94256 90.4512 5.72185 90.4512 8.50114C91.8816 8.50114 93.312 8.50114 94.7424 8.50114C94.7424 8.45209 94.7424 8.3867 94.7424 8.33765C94.9491 8.28861 95.1716 8.22321 95.3782 8.17416C95.3782 8.12512 95.3782 8.05972 95.3782 8.01068C95.5848 7.84719 95.8073 7.6837 96.0139 7.52021C96.1252 6.99705 96.5702 6.3431 96.3318 5.55836ZM91.7227 1.30768C92.4697 1.30768 93.2008 1.30768 93.9478 1.30768C94.1067 1.50386 94.5199 1.83084 94.7424 1.96163C94.7424 2.58288 94.663 2.9916 94.5835 3.43302C93.8206 3.58016 92.724 3.61286 91.7227 3.59651C91.7227 2.84446 91.7227 2.07607 91.7227 1.30768ZM91.7227 7.35673C91.7227 6.53929 91.7227 5.72185 91.7227 4.90441C92.4061 4.88806 93.8842 4.70822 94.2656 5.0679C94.4246 5.11694 94.5835 5.18234 94.7424 5.23138C94.8378 5.55836 94.7266 5.37852 94.9014 5.55836C94.9808 7.86354 93.7888 7.43847 91.7227 7.35673Z" fill="#8190B0"/>
<path d="M14.3213 11.7712C14.4802 11.7712 14.6392 11.7712 14.7981 11.7712C14.7981 11.7222 14.7981 11.6568 14.7981 11.6077C15.4338 11.0355 15.5928 10.2508 16.0696 9.48238C16.1808 9.43333 16.2762 9.36794 16.3875 9.31889C16.4351 9.10635 16.4987 8.87747 16.5464 8.66494C16.6577 8.61589 16.753 8.5505 16.8643 8.50145C16.912 8.33796 16.9755 8.17447 17.0232 8.01099C17.0709 8.01099 17.1345 8.01099 17.1821 8.01099C17.6907 7.1772 17.1821 6.73578 18.6126 6.70308C18.7079 6.98101 18.7715 7.2099 18.7715 7.68401C18.4536 7.97829 18.6444 8.04368 18.4536 8.33796C18.3424 8.38701 18.247 8.4524 18.1358 8.50145C18.1358 8.61589 18.1358 8.71398 18.1358 8.82843C18.0245 8.87747 17.9291 8.94287 17.8179 8.99191C17.8179 9.10636 17.8179 9.20445 17.8179 9.31889L17.5 9.64586C17.5 9.76031 17.5 9.8584 17.5 9.97284C17.3888 10.0219 17.2934 10.0873 17.1821 10.1363C17.1821 10.2508 17.1821 10.3489 17.1821 10.4633C17.0709 10.5123 16.9755 10.5777 16.8643 10.6268C16.753 10.9538 16.6577 11.2807 16.5464 11.6077C16.4987 11.6077 16.4351 11.6077 16.3875 11.6077C16.3398 11.7712 16.2762 11.9347 16.2285 12.0982C16.1173 12.1472 16.0219 12.2126 15.9107 12.2617C15.9107 12.3761 15.9107 12.4742 15.9107 12.5886C15.863 12.5886 15.7994 12.5886 15.7517 12.5886C15.7517 12.7031 15.7517 12.8012 15.7517 12.9156C15.704 12.9156 15.6405 12.9156 15.5928 12.9156C15.5928 13.0301 15.5928 13.1282 15.5928 13.2426C15.4815 13.2916 15.3862 13.357 15.2749 13.4061C14.9729 13.8312 15.4497 13.7004 14.7981 13.8965C14.7981 13.9456 14.7981 14.011 14.7981 14.06C14.6392 14.06 14.4802 14.06 14.3213 14.06C14.1465 13.8802 14.3213 13.9946 14.0034 13.8965C13.8922 13.5696 13.7968 13.2426 13.6855 12.9156C13.6379 12.9156 13.5743 12.9156 13.5266 12.9156C13.5266 12.8012 13.5266 12.7031 13.5266 12.5886C13.3677 12.4742 13.2087 12.3761 13.0498 12.2617C12.9385 11.9347 12.8432 11.6077 12.7319 11.2807C12.6842 11.2807 12.6207 11.2807 12.573 11.2807C12.5253 11.1173 12.4617 10.9538 12.414 10.7903C12.3028 10.7412 12.2074 10.6758 12.0962 10.6268C11.9849 10.2998 11.8896 9.97284 11.7783 9.64586C11.667 9.59682 11.5717 9.53142 11.4604 9.48238C11.4604 9.36794 11.4604 9.26984 11.4604 9.1554C11.3492 9.10636 11.2538 9.04096 11.1426 8.99191C11.0313 8.66494 10.9359 8.33796 10.8247 8.01099C10.777 8.01099 10.7134 8.01099 10.6657 8.01099C10.6181 7.8475 10.5545 7.68401 10.5068 7.52052C10.4591 7.52052 10.3956 7.52052 10.3479 7.52052C10.2843 7.19355 10.4273 7.30799 10.5068 7.19355C10.6499 6.63769 10.8088 6.68674 11.4604 6.70308C11.6353 7.03006 11.9213 7.37338 12.0962 7.68401C12.0962 7.79845 12.0962 7.89655 12.0962 8.01099C12.2074 8.06003 12.3028 8.12543 12.414 8.17447C12.414 8.28892 12.414 8.38701 12.414 8.50145C12.5253 8.5505 12.6207 8.61589 12.7319 8.66494C12.8432 8.99191 12.9385 9.31889 13.0498 9.64586C13.1611 9.69491 13.2564 9.76031 13.3677 9.80935C13.3677 9.92379 13.3677 10.0219 13.3677 10.1363C13.4789 10.1854 13.5743 10.2508 13.6855 10.2998C13.6855 10.4143 13.6855 10.5123 13.6855 10.6268C13.9081 11.0192 14.1941 11.2644 14.3213 11.7712Z" fill="#8190B0"/>
<path d="M6.21367 20.436C6.32492 20.436 6.42028 20.436 6.53154 20.436C6.6269 21.0409 6.6269 20.812 6.53154 21.4169C6.10241 21.515 6.16599 21.6294 5.73686 21.7439C5.41898 21.3679 5.10111 20.9755 4.78324 20.5995C4.67198 20.5504 4.57662 20.485 4.46536 20.436C4.41768 20.2235 4.35411 19.9946 4.30643 19.782C4.14749 19.6676 3.98856 19.5695 3.82962 19.4551C3.82962 19.2916 3.82962 19.1281 3.82962 18.9646C3.78194 18.9646 3.71836 18.9646 3.67068 18.9646C3.623 18.6867 3.55943 18.4251 3.51175 18.1472C3.46406 18.1472 3.40049 18.1472 3.35281 18.1472C3.19387 17.7875 3.20977 17.5096 3.19387 17.0027C2.876 17.0027 2.55813 17.0027 2.24025 17.0027C2.20847 17.0027 2.19257 17.2153 1.92238 17.1662C1.92238 17.1172 1.92238 17.0518 1.92238 17.0027C1.76344 17.0027 1.60451 17.0027 1.44557 17.0027C1.44557 16.9537 1.44557 16.8883 1.44557 16.8393C1.19127 16.7412 1.01644 16.7575 0.809824 16.6758C0.698568 16.5123 0.603206 16.3488 0.491951 16.1853C0.44427 16.1853 0.380695 16.1853 0.333014 16.1853C0.333014 16.0709 0.333014 15.9728 0.333014 15.8583C0.285333 15.8583 0.221758 15.8583 0.174077 15.8583C0.174077 15.6458 0.174077 15.4169 0.174077 15.2044C0.126396 15.2044 0.0628218 15.2044 0.0151408 15.2044C-0.0643274 14.8284 0.158184 14.763 0.174077 14.7139C0.460163 13.8474 0.237652 14.1254 0.809824 13.5695C0.857505 13.4551 0.921079 13.357 0.96876 13.2425C1.23895 13.0463 1.33431 13.2425 1.60451 12.9155C2.129 12.9646 2.66938 13.03 3.19387 13.079C3.19387 12.5886 3.19387 12.2779 3.35281 11.9346C3.40049 11.9346 3.46406 11.9346 3.51175 11.9346C3.55943 11.6567 3.623 11.3951 3.67068 11.1172C3.71836 11.1172 3.78194 11.1172 3.82962 11.1172C3.82962 10.9537 3.82962 10.7902 3.82962 10.6267C3.98856 10.5123 4.14749 10.4142 4.30643 10.2997C4.35411 10.0872 4.41768 9.85833 4.46536 9.64579C4.51305 9.64579 4.57662 9.64579 4.6243 9.64579C4.89449 9.30247 5.117 9.15533 5.26005 8.66487C5.76864 8.53408 5.60971 8.41963 6.21367 8.33789C6.46797 8.8447 6.51565 8.63217 6.53154 9.4823C6.32492 9.64579 6.10241 9.80928 5.89579 9.97277C5.89579 10.0872 5.89579 10.1853 5.89579 10.2997C5.73686 10.4142 5.57792 10.5123 5.41898 10.6267C5.3713 10.8393 5.30773 11.0681 5.26005 11.2807C5.21237 11.2807 5.14879 11.2807 5.10111 11.2807C4.98986 11.6076 4.89449 11.9346 4.78324 12.2616C4.73556 12.2616 4.67198 12.2616 4.6243 12.2616C4.6243 12.4251 4.6243 12.5886 4.6243 12.7521C4.17928 13.9782 4.08392 15.2371 4.46536 16.5123C4.51305 16.9537 4.57662 17.3788 4.6243 17.8202C4.67198 17.8202 4.73556 17.8202 4.78324 17.8202C4.89449 18.1472 4.98986 18.4741 5.10111 18.8011C5.14879 18.8011 5.21237 18.8011 5.26005 18.8011C5.26005 18.9155 5.26005 19.0136 5.26005 19.1281C5.3713 19.1771 5.46667 19.2425 5.57792 19.2916C5.6256 19.4551 5.68918 19.6185 5.73686 19.782C5.78454 19.782 5.84811 19.782 5.89579 19.782C6.08652 20.0273 6.11831 20.0763 6.21367 20.436Z" fill="#8190B0"/>
<path d="M23.2217 9.97277C23.1104 9.97277 23.0151 9.97277 22.9038 9.97277C22.7767 9.44961 22.6018 9.41691 22.5859 8.66487C22.7449 8.61582 22.9038 8.55042 23.0627 8.50138C23.0627 8.45233 23.0627 8.38694 23.0627 8.33789C23.1104 8.33789 23.174 8.33789 23.2217 8.33789C23.2217 8.38694 23.2217 8.45233 23.2217 8.50138C23.9687 8.71391 23.9687 9.10628 24.3342 9.64579C24.4932 9.76023 24.6521 9.85833 24.811 9.97277C24.8587 10.1853 24.9223 10.4142 24.97 10.6267C25.0812 10.6758 25.1766 10.7412 25.2879 10.7902C25.5581 11.6076 25.8123 12.4251 26.0825 13.2425C26.9885 12.8828 27.5607 13.2262 28.3077 13.406C28.7368 14.2071 28.9434 14.1908 28.9434 15.5314C28.8957 15.5314 28.8321 15.5314 28.7845 15.5314C28.7845 15.6948 28.7845 15.8583 28.7845 16.0218C28.5143 16.2343 28.26 16.4632 27.9898 16.6758C27.7037 16.9537 27.0362 17.1172 26.4004 17.0027C26.3845 17.0027 26.3368 16.7412 26.0825 16.8393C26.0825 16.8883 26.0825 16.9537 26.0825 17.0027C26.0349 17.0027 25.9713 17.0027 25.9236 17.0027C25.8759 17.3788 25.8123 17.7711 25.7647 18.1472C25.717 18.1472 25.6534 18.1472 25.6057 18.1472C25.6057 18.2616 25.6057 18.3597 25.6057 18.4741C25.5581 18.4741 25.4945 18.4741 25.4468 18.4741C25.4468 18.5886 25.4468 18.6867 25.4468 18.8011C25.3991 18.8011 25.3355 18.8011 25.2879 18.8011C25.2879 18.9155 25.2879 19.0136 25.2879 19.1281C25.2402 19.1281 25.1766 19.1281 25.1289 19.1281C25.1289 19.2425 25.1289 19.3406 25.1289 19.4551L24.811 19.782C24.811 19.8965 24.811 19.9946 24.811 20.109C24.6044 20.2725 24.3819 20.436 24.1753 20.5995C24.1753 20.7139 24.1753 20.812 24.1753 20.9264C23.9687 21.0899 23.7462 21.2534 23.5396 21.4169C23.5396 21.466 23.5396 21.5314 23.5396 21.5804C23.2694 21.5804 23.0151 21.5804 22.7449 21.5804C22.6336 21.2698 22.5859 20.9428 22.5859 20.436C24.2071 19.4878 25.415 15.8256 24.6521 13.406C24.6521 13.1935 24.6521 12.9646 24.6521 12.7521C24.6044 12.7521 24.5409 12.7521 24.4932 12.7521C24.4932 12.5886 24.4932 12.4251 24.4932 12.2616C24.4455 12.2616 24.3819 12.2616 24.3342 12.2616C24.223 11.9346 24.1276 11.6076 24.0164 11.2807C23.9687 11.2807 23.9051 11.2807 23.8574 11.2807C23.8574 11.1662 23.8574 11.0681 23.8574 10.9537C23.7462 10.9046 23.6508 10.8393 23.5396 10.7902C23.5396 10.6758 23.5396 10.5777 23.5396 10.4632C23.4919 10.4632 23.4283 10.4632 23.3806 10.4632C23.3329 10.2997 23.2694 10.1363 23.2217 9.97277Z" fill="#8190B0"/>
<path d="M6.85108 10.627C7.24842 10.6433 7.42325 10.627 7.64576 10.7904C7.64576 10.8395 7.64576 10.9049 7.64576 10.9539C7.75701 10.9539 7.85238 10.9539 7.96363 10.9539C8.01131 11.0684 8.07489 11.1665 8.12257 11.2809C8.28151 11.2809 8.44044 11.2809 8.59938 11.2809C8.64706 11.3953 8.71063 11.4934 8.75831 11.6079C8.86957 11.6079 8.96493 11.6079 9.07619 11.6079C9.12387 11.7223 9.18744 11.8204 9.23512 11.9349C9.34638 11.9349 9.44174 11.9349 9.553 11.9349C9.60068 12.0493 9.66425 12.1474 9.71193 12.2618C9.87087 12.2618 10.0298 12.2618 10.1887 12.2618C10.2364 12.3763 10.3 12.4744 10.3477 12.5888C10.4589 12.5888 10.5543 12.5888 10.6656 12.5888C10.7132 12.7032 10.7768 12.8013 10.8245 12.9158C10.9357 12.9158 11.0311 12.9158 11.1424 12.9158C11.19 13.0302 11.2536 13.1283 11.3013 13.2428C11.4602 13.2428 11.6192 13.2428 11.7781 13.2428C11.8258 13.3572 11.8894 13.4553 11.937 13.5697C12.0483 13.5697 12.1437 13.5697 12.2549 13.5697C12.3026 13.6842 12.3662 13.7823 12.4139 13.8967C12.5728 13.9458 12.7317 14.0112 12.8907 14.0602C12.8907 14.1092 12.8907 14.1746 12.8907 14.2237C13.3516 14.5016 13.0973 13.9785 13.5264 14.5507C13.5741 14.5507 13.6377 14.5507 13.6853 14.5507C13.6853 14.8776 13.6853 15.2046 13.6853 15.5316C13.0496 15.6951 12.986 16.0874 12.2549 16.1855C12.2549 16.3 12.2549 16.3981 12.2549 16.5125C11.4126 16.6106 11.5079 17.0357 10.6656 17.1665C10.6656 17.2809 10.6656 17.379 10.6656 17.4934C10.5066 17.4934 10.3477 17.4934 10.1887 17.4934C10.1887 17.6079 10.1887 17.706 10.1887 17.8204C9.50532 17.9022 9.77551 18.0493 9.07619 18.1474C9.07619 18.2618 9.07619 18.3599 9.07619 18.4744C8.91725 18.4744 8.75831 18.4744 8.59938 18.4744C8.59938 18.5888 8.59938 18.6869 8.59938 18.8013C7.91595 18.8831 8.18614 19.0302 7.48682 19.1283C7.48682 19.2428 7.48682 19.3409 7.48682 19.4553C7.32789 19.4553 7.16895 19.4553 7.01001 19.4553C6.75571 19.0139 6.58088 19.0629 6.5332 18.3109C6.69214 18.1964 6.85108 18.0983 7.01001 17.9839C7.01001 17.9349 7.01001 17.8695 7.01001 17.8204C7.16895 17.8204 7.32789 17.8204 7.48682 17.8204C7.5345 17.706 7.59808 17.6079 7.64576 17.4934C7.75701 17.4934 7.85238 17.4934 7.96363 17.4934C8.01131 17.379 8.07489 17.2809 8.12257 17.1665C8.23382 17.1665 8.32919 17.1665 8.44044 17.1665C8.48812 17.052 8.5517 16.9539 8.59938 16.8395C8.75831 16.8395 8.91725 16.8395 9.07619 16.8395C9.07619 16.7904 9.07619 16.725 9.07619 16.676C9.2987 16.5289 9.34638 16.5616 9.71193 16.5125C9.71193 16.3981 9.71193 16.3 9.71193 16.1855C9.87087 16.1365 10.0298 16.0711 10.1887 16.0221C10.1887 15.973 10.1887 15.9076 10.1887 15.8586C10.3477 15.8586 10.5066 15.8586 10.6656 15.8586C10.7132 15.7441 10.7768 15.646 10.8245 15.5316C10.9357 15.5316 11.0311 15.5316 11.1424 15.5316C11.1424 15.4825 11.1424 15.4171 11.1424 15.3681C11.3013 15.3191 11.4602 15.2537 11.6192 15.2046C11.6192 15.0902 11.6192 14.9921 11.6192 14.8776C11.4443 14.7959 11.349 14.5834 11.3013 14.5507C11.1424 14.5507 10.9834 14.5507 10.8245 14.5507C10.7768 14.4362 10.7132 14.3381 10.6656 14.2237C10.5543 14.2237 10.4589 14.2237 10.3477 14.2237C10.3 14.1092 10.2364 14.0112 10.1887 13.8967C10.0775 13.8967 9.98213 13.8967 9.87087 13.8967C9.82319 13.7823 9.75962 13.6842 9.71193 13.5697C9.553 13.5697 9.39406 13.5697 9.23512 13.5697C9.18744 13.4553 9.12387 13.3572 9.07619 13.2428C8.96493 13.2428 8.86957 13.2428 8.75831 13.2428C8.71063 13.1283 8.64706 13.0302 8.59938 12.9158C8.44044 12.8667 8.28151 12.8013 8.12257 12.7523C8.12257 12.7032 8.12257 12.6379 8.12257 12.5888C7.96363 12.5888 7.8047 12.5888 7.64576 12.5888C7.59808 12.4744 7.5345 12.3763 7.48682 12.2618C7.37557 12.2618 7.2802 12.2618 7.16895 12.2618C7.16895 12.2128 7.16895 12.1474 7.16895 12.0983C7.01001 12.0493 6.85108 11.9839 6.69214 11.9349C6.5491 11.0684 6.67625 11.379 6.85108 10.627Z" fill="#8190B0"/>
<path d="M17.3396 14.8776C17.3396 14.9921 17.3396 15.0902 17.3396 15.2046C17.5462 15.2537 17.7687 15.3191 17.9754 15.3681C18.023 15.4825 18.0866 15.5806 18.1343 15.6951C18.3409 15.7441 18.5634 15.8095 18.77 15.8586C18.8177 15.973 18.8813 16.0711 18.929 16.1855C19.0402 16.1855 19.1356 16.1855 19.2469 16.1855C19.2469 16.2346 19.2469 16.3 19.2469 16.349C19.3581 16.349 19.4535 16.349 19.5647 16.349C19.6124 16.4635 19.676 16.5616 19.7237 16.676C19.9303 16.7251 20.1528 16.7904 20.3594 16.8395C20.4071 16.9539 20.4707 17.052 20.5184 17.1665C20.725 17.2155 20.9475 17.2809 21.1541 17.33C21.2018 17.4444 21.2654 17.5425 21.313 17.6569C21.4243 17.6569 21.5197 17.6569 21.6309 17.6569C21.6309 17.706 21.6309 17.7714 21.6309 17.8204C21.7422 17.8204 21.8375 17.8204 21.9488 17.8204C21.9488 17.8695 21.9488 17.9349 21.9488 17.9839C22.1077 18.033 22.2667 18.0983 22.4256 18.1474C22.4733 18.4253 22.5368 18.6869 22.5845 18.9648C22.0918 19.2264 22.2984 19.2755 21.472 19.2918C21.1382 18.8831 20.6773 18.7523 20.2005 18.4744C20.2005 18.4253 20.2005 18.3599 20.2005 18.3109C20.0892 18.3109 19.9939 18.3109 19.8826 18.3109C19.8826 18.2618 19.8826 18.1964 19.8826 18.1474C19.7713 18.1474 19.676 18.1474 19.5647 18.1474C19.517 18.033 19.4535 17.9349 19.4058 17.8204C19.2945 17.8204 19.1992 17.8204 19.0879 17.8204C19.0402 17.706 18.9767 17.6079 18.929 17.4934C18.6111 17.379 18.2932 17.2809 17.9754 17.1665C17.9754 17.1174 17.9754 17.052 17.9754 17.003C17.8164 16.9539 17.6575 16.8885 17.4986 16.8395C17.4509 16.7251 17.3873 16.627 17.3396 16.5125C17.0217 16.3981 16.7039 16.3 16.386 16.1855C16.3383 16.0711 16.2747 15.973 16.2271 15.8586C16.1158 15.8586 16.0204 15.8586 15.9092 15.8586C15.9092 15.8095 15.9092 15.7441 15.9092 15.6951C15.7502 15.646 15.5913 15.5806 15.4324 15.5316C15.3847 15.2537 15.3211 14.9921 15.2734 14.7141C15.4801 14.5997 15.4959 14.4526 15.5913 14.3872C15.7026 14.3872 15.7979 14.3872 15.9092 14.3872C15.9569 14.2727 16.0204 14.1746 16.0681 14.0602C16.2747 14.0112 16.4973 13.9458 16.7039 13.8967C16.7515 13.7823 16.8151 13.6842 16.8628 13.5697C17.0694 13.5207 17.2919 13.4553 17.4986 13.4062C17.5462 13.2918 17.6098 13.1937 17.6575 13.0793C17.8641 13.0302 18.0866 12.9648 18.2932 12.9158C18.3409 12.8013 18.4045 12.7032 18.4522 12.5888C18.6588 12.5398 18.8813 12.4744 19.0879 12.4253C19.1356 12.3109 19.1992 12.2128 19.2469 12.0983C19.4535 12.0493 19.676 11.9839 19.8826 11.9349C19.9303 11.8204 19.9939 11.7223 20.0415 11.6079C20.2482 11.5588 20.4707 11.4934 20.6773 11.4444C20.725 11.33 20.7885 11.2319 20.8362 11.1174C20.9475 11.1174 21.0428 11.1174 21.1541 11.1174C21.1541 11.0684 21.1541 11.003 21.1541 10.9539C21.2654 10.9539 21.3607 10.9539 21.472 10.9539C21.472 10.9049 21.472 10.8395 21.472 10.7904C21.6945 10.6433 21.7581 10.676 22.1077 10.627C22.362 11.0684 22.5051 10.9212 22.5845 11.6079C22.4256 11.7223 22.2667 11.8204 22.1077 11.9349C22.1077 11.9839 22.1077 12.0493 22.1077 12.0983C21.9011 12.1474 21.6786 12.2128 21.472 12.2618C21.4243 12.3763 21.3607 12.4744 21.313 12.5888C21.2018 12.5888 21.1064 12.5888 20.9952 12.5888C20.9475 12.7032 20.8839 12.8013 20.8362 12.9158C20.6296 12.9648 20.4071 13.0302 20.2005 13.0793C20.2005 13.1283 20.2005 13.1937 20.2005 13.2428C20.0892 13.2428 19.9939 13.2428 19.8826 13.2428C19.8349 13.3572 19.7713 13.4553 19.7237 13.5697C19.6124 13.5697 19.517 13.5697 19.4058 13.5697C19.3581 13.6842 19.2945 13.7823 19.2469 13.8967C18.929 14.0112 18.6111 14.1092 18.2932 14.2237C18.2456 14.3381 18.182 14.4362 18.1343 14.5507C18.023 14.5507 17.9277 14.5507 17.8164 14.5507C17.8164 14.5997 17.8164 14.6651 17.8164 14.7141C17.6575 14.7795 17.4986 14.8286 17.3396 14.8776Z" fill="#8190B0"/>
<path d="M41.817 13.2426C41.3402 13.2426 40.8634 13.2426 40.3866 13.2426C40.3866 13.1282 40.3866 13.0301 40.3866 12.9156C40.1482 12.7031 40.0369 12.5069 39.7508 12.2617C39.7508 12.2126 39.7508 12.1472 39.7508 12.0982C39.2263 11.7549 38.2091 11.9838 37.6846 12.0982C37.5893 12.2617 37.3986 12.3598 37.3668 12.4252C37.3668 12.5396 37.3668 12.6377 37.3668 12.7522C37.3191 12.7522 37.2555 12.7522 37.2078 12.7522C37.2078 13.1282 37.2078 13.5205 37.2078 13.8966C37.1602 13.8966 37.0966 13.8966 37.0489 13.8966C36.89 14.4688 37.2237 17.1009 37.3668 17.3298C37.4145 17.3298 37.478 17.3298 37.5257 17.3298C37.7641 17.6241 37.7164 17.7058 38.1615 17.8203C38.6701 18.3107 39.6237 17.7712 40.0687 17.6568C40.2117 16.9374 40.3866 16.7576 40.3866 15.6949C39.7985 15.6949 39.2263 15.6949 38.6383 15.6949C38.6383 15.368 38.6383 15.041 38.6383 14.714C39.4012 14.4197 40.7998 14.5505 41.817 14.5505C41.8329 15.8421 41.8329 17.2317 41.3402 17.9838C41.2925 17.9838 41.2289 17.9838 41.1813 17.9838C41.0223 18.1963 40.8634 18.4252 40.7044 18.6377C40.5932 18.6377 40.4978 18.6377 40.3866 18.6377C40.3866 18.6868 40.3866 18.7522 40.3866 18.8012C40.1958 18.9647 40.0846 18.9156 39.9098 19.1282C39.1151 19.1772 38.7972 19.3571 38.1615 19.1282C37.9548 19.1282 37.7323 19.1282 37.5257 19.1282C37.5257 19.0791 37.5257 19.0137 37.5257 18.9647C35.8728 18.5723 35.7774 16.8557 35.7774 14.714C35.7774 13.8966 35.7138 12.8339 36.0953 12.4252C36.3019 11.575 38.1297 10.1363 39.5919 10.6268C39.9415 10.7413 40.2594 11.0028 40.7044 11.1173C41.1336 11.8693 41.6104 12.1636 41.817 13.2426Z" fill="#8190B0"/>
<path d="M57.8697 10.627C57.8697 13.4553 57.8697 16.3 57.8697 19.1283C57.4406 19.1283 57.0273 19.1283 56.5982 19.1283C56.5982 17.4934 56.5982 15.8586 56.5982 14.2237C56.4869 14.2237 56.3916 14.2237 56.2803 14.2237C55.9148 15.0902 55.5333 15.973 55.1678 16.8395C55.1201 16.8395 55.0565 16.8395 55.0088 16.8395C54.8976 17.0357 54.8658 17.5588 54.691 17.6569C54.3731 17.6569 54.0552 17.6569 53.7373 17.6569C53.2605 16.4962 52.4341 15.3518 52.148 14.0602C52.1003 14.0602 52.0367 14.0602 51.989 14.0602C51.989 15.6951 51.989 17.33 51.989 18.9648C51.6394 19.0956 51.1308 19.1283 50.5586 19.1283C50.5586 16.349 50.5586 13.5697 50.5586 10.7904C50.9241 10.6433 51.2579 10.627 51.8301 10.627C52.6407 12.2618 53.4512 13.9785 54.2141 15.6951C54.2618 15.6951 54.3254 15.6951 54.3731 15.6951C54.3731 15.646 54.3731 15.5806 54.3731 15.5316C54.4208 15.5316 54.4843 15.5316 54.532 15.5316C54.5797 15.2537 54.6433 14.9921 54.691 14.7141C54.7386 14.7141 54.8022 14.7141 54.8499 14.7141C54.8499 14.5997 54.8499 14.5016 54.8499 14.3872C54.8976 14.3872 54.9612 14.3872 55.0088 14.3872C55.0565 14.1746 55.1201 13.9458 55.1678 13.7332C55.2155 13.7332 55.279 13.7332 55.3267 13.7332C55.3744 13.5207 55.438 13.2918 55.4856 13.0793C55.5333 13.0793 55.5969 13.0793 55.6446 13.0793C55.6446 12.9158 55.6446 12.7523 55.6446 12.5888C55.6923 12.5888 55.7558 12.5888 55.8035 12.5888C55.8512 12.3763 55.9148 12.1474 55.9625 11.9349C56.0101 11.9349 56.0737 11.9349 56.1214 11.9349C56.4075 11.3953 56.2803 11.1501 56.7571 10.7904C56.7571 10.7414 56.7571 10.676 56.7571 10.627C57.1227 10.627 57.5041 10.627 57.8697 10.627Z" fill="#8190B0"/>
<path d="M61.207 10.627C61.207 13.4553 61.207 16.3 61.207 19.1283C60.7779 19.1283 60.3647 19.1283 59.9355 19.1283C59.9355 16.349 59.9355 13.5697 59.9355 10.7904C60.3011 10.6597 60.6349 10.627 61.207 10.627Z" fill="#8190B0"/>
<path d="M68.2004 19.1283C68.1528 18.9648 68.0892 18.8013 68.0415 18.6379C67.9938 18.6379 67.9303 18.6379 67.8826 18.6379C67.8826 18.5234 67.8826 18.4253 67.8826 18.3109C67.7713 18.2618 67.676 18.1964 67.5647 18.1474C67.5647 18.0329 67.5647 17.9349 67.5647 17.8204C67.4534 17.7714 67.3581 17.706 67.2468 17.6569C67.2468 17.5425 67.2468 17.4444 67.2468 17.33C67.1992 17.33 67.1356 17.33 67.0879 17.33C67.0402 17.1665 66.9766 17.003 66.929 16.8395C66.8177 16.7904 66.7223 16.725 66.6111 16.676C66.6111 16.5616 66.6111 16.4635 66.6111 16.349C66.4998 16.3 66.4045 16.2346 66.2932 16.1855C66.2932 16.0711 66.2932 15.973 66.2932 15.8586C66.182 15.8095 66.0866 15.7441 65.9753 15.6951C65.9753 15.5806 65.9753 15.4825 65.9753 15.3681C65.8641 15.3191 65.7687 15.2537 65.6575 15.2046C65.3873 14.7141 65.133 14.2237 64.8628 13.7332C64.8151 13.7332 64.7515 13.7332 64.7039 13.7332C64.7039 15.4825 64.7039 17.2155 64.7039 18.9648C64.3542 19.0956 63.8456 19.1283 63.2734 19.1283C63.2734 16.349 63.2734 13.5697 63.2734 10.7904C63.639 10.6433 63.9728 10.627 64.5449 10.627C65.7052 12.4744 66.8813 14.3381 68.0415 16.1855C68.0892 16.1855 68.1528 16.1855 68.2004 16.1855C68.2004 14.3872 68.2004 12.5888 68.2004 10.7904C68.566 10.6433 68.8998 10.627 69.4719 10.627C69.7103 11.2973 69.6309 12.4907 69.6309 13.4062C69.6309 15.2537 69.6309 17.1174 69.6309 18.9648C69.2812 19.112 68.7726 19.1447 68.2004 19.1283Z" fill="#8190B0"/>
<path d="M77.259 13.2427C76.8299 13.2427 76.4166 13.2427 75.9875 13.2427C75.9398 13.0792 75.8762 12.9157 75.8286 12.7523C75.7809 12.7523 75.7173 12.7523 75.6696 12.7523C75.6696 12.6378 75.6696 12.5397 75.6696 12.4253L75.3518 12.0983C75.2405 12.0983 75.1451 12.0983 75.0339 12.0983C75.0339 12.0493 75.0339 11.9839 75.0339 11.9348C74.3505 11.9185 73.7783 12.0002 73.2856 12.0983C73.0313 12.5397 72.8564 12.4907 72.8088 13.2427C72.3478 13.7659 72.7611 16.4798 72.8088 17.1664C73.1266 17.4444 73.4445 17.7059 73.7624 17.9839C74.1915 17.9839 74.6047 17.9839 75.0339 17.9839C75.2405 17.7223 75.4789 17.6405 75.6696 17.3299C76.0034 17.0029 76.0034 16.398 75.9875 15.695C75.3994 15.695 74.8273 15.695 74.2392 15.695C74.2392 15.3681 74.2392 15.0411 74.2392 14.7141C75.0021 14.4198 76.4007 14.5506 77.4179 14.5506C77.4338 15.7768 77.2113 16.6269 77.1001 17.6569C76.7186 17.9021 77.0047 17.8531 76.7822 18.1473C76.6709 18.1964 76.5756 18.2618 76.4643 18.3108C76.4643 18.3599 76.4643 18.4253 76.4643 18.4743C76.0988 18.7523 75.6378 18.785 75.3518 19.1283C74.8273 19.1773 74.2869 19.2427 73.7624 19.2918C72.92 19.0302 71.9187 18.5561 71.6962 17.6569C71.0287 16.9866 71.426 13.3245 71.5373 12.2618C71.8869 12.0166 71.9982 11.5261 72.332 11.2809C72.9995 10.7904 74.0485 10.4307 75.0339 10.7904C75.2405 10.7904 75.463 10.7904 75.6696 10.7904C75.6696 10.8394 75.6696 10.9048 75.6696 10.9539C76.7345 11.2318 76.6232 12.0002 77.259 12.5888C77.259 12.8176 77.259 13.0302 77.259 13.2427Z" fill="#8190B0"/>
<path d="M48.1729 15.5316C48.1252 15.2046 48.0616 14.8776 48.014 14.5507C47.9663 14.5507 47.9027 14.5507 47.855 14.5507C47.855 14.4362 47.855 14.3381 47.855 14.2237C47.8073 14.2237 47.7438 14.2237 47.6961 14.2237C47.5848 13.7332 47.4895 13.2428 47.3782 12.7523C47.3305 12.7523 47.267 12.7523 47.2193 12.7523C47.2193 12.6379 47.2193 12.5398 47.2193 12.4253C47.1716 12.4253 47.108 12.4253 47.0603 12.4253C47.0127 12.0983 46.9491 11.7714 46.9014 11.4444C46.8537 11.4444 46.7901 11.4444 46.7425 11.4444C46.7425 11.33 46.7425 11.2319 46.7425 11.1174C46.6948 11.1174 46.6312 11.1174 46.5835 11.1174C46.5358 10.9539 46.4723 10.7904 46.4246 10.627C44.8988 10.6433 45.2961 11.6733 44.8352 12.7523C44.7875 12.7523 44.724 12.7523 44.6763 12.7523C44.6763 12.8667 44.6763 12.9648 44.6763 13.0793C44.6286 13.0793 44.565 13.0793 44.5173 13.0793C44.4697 13.4062 44.4061 13.7332 44.3584 14.0602C44.3107 14.0602 44.2472 14.0602 44.1995 14.0602C44.1995 14.1746 44.1995 14.2727 44.1995 14.3872C44.1518 14.3872 44.0882 14.3872 44.0405 14.3872C43.9293 14.8776 43.8339 15.3681 43.7227 15.8586C43.675 15.8586 43.6114 15.8586 43.5637 15.8586C43.5637 15.973 43.5637 16.0711 43.5637 16.1855C43.516 16.1855 43.4525 16.1855 43.4048 16.1855C43.3571 16.5125 43.2935 16.8395 43.2459 17.1665C43.1982 17.1665 43.1346 17.1665 43.0869 17.1665C43.0869 17.2809 43.0869 17.379 43.0869 17.4934C43.0392 17.4934 42.9757 17.4934 42.928 17.4934C42.928 17.6569 42.928 17.8204 42.928 17.9839C42.8803 17.9839 42.8167 17.9839 42.769 17.9839C42.7214 18.3109 42.6578 18.6379 42.6101 18.9648C42.5624 18.9648 42.4989 18.9648 42.4512 18.9648C42.4512 19.0139 42.4512 19.0793 42.4512 19.1283C42.928 19.1283 43.4048 19.1283 43.8816 19.1283C44.0405 18.5888 44.1995 18.033 44.3584 17.4934C45.0577 17.4771 47.1875 17.3463 47.5371 17.6569C47.7756 17.9022 47.9822 18.6542 48.014 19.1283C48.4908 19.1283 48.9676 19.1283 49.4444 19.1283C49.3013 17.8368 48.6179 16.5779 48.1729 15.5316ZM44.8352 16.349C45.1531 15.3191 45.471 14.2727 45.7888 13.2428C45.8365 13.2428 45.9001 13.2428 45.9478 13.2428C45.9478 13.1937 45.9478 13.1283 45.9478 13.0793C45.9955 13.0793 46.059 13.0793 46.1067 13.0793C46.4246 14.1746 46.7425 15.2537 47.0603 16.349C46.3133 16.349 45.5822 16.349 44.8352 16.349Z" fill="#8190B0"/>
<path d="M15.274 16.1854C15.3694 16.6758 15.6555 17.2644 15.9098 17.6568C16.021 17.7058 16.1164 17.7712 16.2276 17.8203C16.3389 18.1472 16.4343 18.4742 16.5455 18.8012C16.6568 18.8502 16.7521 18.9156 16.8634 18.9647C16.8634 19.0791 16.8634 19.1772 16.8634 19.2916C16.9746 19.3407 17.07 19.4061 17.1813 19.4551C17.1813 19.5696 17.1813 19.6677 17.1813 19.7821C17.2289 19.7821 17.2925 19.7821 17.3402 19.7821C17.3879 19.9946 17.4515 20.2235 17.4991 20.4361C17.6581 20.5505 17.817 20.6486 17.9759 20.763C18.0236 20.9756 18.0872 21.2044 18.1349 21.417C18.1826 21.417 18.2461 21.417 18.2938 21.417C18.2938 21.5314 18.2938 21.6295 18.2938 21.744C18.3415 21.744 18.4051 21.744 18.4528 21.744C18.6912 22.1854 18.7388 22.3652 18.7706 23.0519C18.3574 23.2807 18.5004 23.3461 17.817 23.3788C17.817 23.2644 17.817 23.1663 17.817 23.0519C17.7058 23.0519 17.6104 23.0519 17.4991 23.0519C17.4038 22.5614 17.1177 21.9728 16.8634 21.5805C16.7521 21.5314 16.6568 21.466 16.5455 21.417C16.4343 21.09 16.3389 20.763 16.2276 20.4361C16.1164 20.387 16.021 20.3216 15.9098 20.2726C15.9098 20.1581 15.9098 20.06 15.9098 19.9456C15.7985 19.8965 15.7032 19.8311 15.5919 19.7821C15.5919 19.6677 15.5919 19.5696 15.5919 19.4551C15.3853 19.0628 15.0833 18.8175 14.9562 18.3107C14.7495 18.3107 14.527 18.3107 14.3204 18.3107C13.7959 19.2916 13.2555 20.2726 12.731 21.2535C12.6198 21.3025 12.5244 21.3679 12.4132 21.417C12.4132 21.5314 12.4132 21.6295 12.4132 21.744C12.3655 21.744 12.3019 21.744 12.2542 21.744C12.2542 21.8584 12.2542 21.9565 12.2542 22.0709C11.9364 22.5123 11.6185 22.9374 11.3006 23.3788C11.1417 23.3788 10.9827 23.3788 10.8238 23.3788C10.649 23.199 10.8238 23.3134 10.5059 23.2153C10.3152 22.1363 10.3947 22.6758 10.8238 21.9074C10.8238 21.793 10.8238 21.6949 10.8238 21.5805C10.9351 21.5314 11.0304 21.466 11.1417 21.417C11.1894 21.2044 11.2529 20.9756 11.3006 20.763C11.4119 20.714 11.5072 20.6486 11.6185 20.5995C11.6662 20.387 11.7297 20.1581 11.7774 19.9456C11.8887 19.8965 11.984 19.8311 12.0953 19.7821C12.143 19.5696 12.2065 19.3407 12.2542 19.1282C12.3655 19.0791 12.4608 19.0137 12.5721 18.9647C12.6198 18.7521 12.6834 18.5232 12.731 18.3107C12.8423 18.2617 12.9377 18.1963 13.0489 18.1472C13.0489 18.0328 13.0489 17.9347 13.0489 17.8203C13.1602 17.7712 13.2555 17.7058 13.3668 17.6568C13.4145 17.4442 13.478 17.2153 13.5257 17.0028C13.637 16.9538 13.7323 16.8884 13.8436 16.8393C13.8913 16.6268 13.9549 16.3979 14.0025 16.1854C14.1615 16.1363 14.3204 16.0709 14.4793 16.0219C14.4793 15.9728 14.4793 15.9074 14.4793 15.8584C14.9244 15.9728 14.8449 16.0709 15.274 16.1854Z" fill="#8190B0"/>
<path d="M41.3406 21.2535C41.3406 21.6949 41.3406 22.1199 41.3406 22.5614C40.0214 22.5614 38.6864 22.5614 37.3672 22.5614C37.3672 23.3788 37.3672 24.1962 37.3672 25.0137C38.5274 25.0137 39.7036 25.0137 40.8638 25.0137C40.8638 25.3897 40.8638 25.7821 40.8638 26.1581C39.7512 26.1581 38.6387 26.1581 37.5261 26.1581C37.2083 27.0246 37.3513 28.6104 37.3672 29.7548C36.9381 29.7548 36.5248 29.7548 36.0957 29.7548C36.0957 26.9755 36.0957 24.1962 36.0957 21.4169C37.2559 20.9919 39.8625 21.2535 41.3406 21.2535Z" fill="#8190B0"/>
<path d="M51.1934 21.2539C51.1934 23.3302 51.1934 25.3901 51.1934 27.4664C51.241 27.4664 51.3046 27.4664 51.3523 27.4664C51.6066 27.9896 51.702 28.2839 52.3059 28.4474C52.7509 28.8888 53.6728 28.4474 54.0542 28.2839C54.7535 26.6817 54.531 23.7553 54.531 21.4174C54.8966 21.2703 55.2303 21.2539 55.8025 21.2539C55.8025 23.3792 55.8025 25.5046 55.8025 27.6299C55.7548 27.6299 55.6913 27.6299 55.6436 27.6299C55.5959 27.9079 55.5323 28.1694 55.4846 28.4474C55.1668 28.7253 54.8489 28.9869 54.531 29.2648C54.531 29.3139 54.531 29.3792 54.531 29.4283C54.2608 29.6245 54.1655 29.4283 53.8953 29.7553C53.1801 29.7716 52.29 30.0005 51.6702 29.7553C51.6702 29.7062 51.6702 29.6408 51.6702 29.5918C51.5589 29.5918 51.4636 29.5918 51.3523 29.5918C51.3523 29.5427 51.3523 29.4773 51.3523 29.4283C51.241 29.4283 51.1457 29.4283 51.0344 29.4283C51.0344 29.3792 51.0344 29.3139 51.0344 29.2648C50.7642 29.0523 50.5099 28.8234 50.2397 28.6109C50.049 28.3329 50.2397 28.2348 49.9219 27.9569C49.9219 25.7825 49.9219 23.5918 49.9219 21.4174C50.2874 21.2866 50.6212 21.2539 51.1934 21.2539Z" fill="#8190B0"/>
<path d="M62.6379 29.7553C62.5903 29.5918 62.5267 29.4283 62.479 29.2648C62.4313 29.2648 62.3678 29.2648 62.3201 29.2648C62.3201 29.1504 62.3201 29.0523 62.3201 28.9378C62.2088 28.8888 62.1135 28.8234 62.0022 28.7743C62.0022 28.6599 62.0022 28.5618 62.0022 28.4474C61.8909 28.3983 61.7956 28.3329 61.6843 28.2839C61.6843 28.1694 61.6843 28.0713 61.6843 27.9569C61.6367 27.9569 61.5731 27.9569 61.5254 27.9569C61.4777 27.7934 61.4141 27.6299 61.3665 27.4664C61.2552 27.4174 61.1598 27.352 61.0486 27.3029C61.0486 27.1885 61.0486 27.0904 61.0486 26.976C60.9373 26.9269 60.842 26.8615 60.7307 26.8125C60.7307 26.698 60.7307 26.6 60.7307 26.4855C60.6195 26.4365 60.5241 26.3711 60.4128 26.322C60.4128 26.2076 60.4128 26.1095 60.4128 25.995C60.3016 25.946 60.2062 25.8806 60.095 25.8316C59.8248 25.3411 59.5705 24.8506 59.3003 24.3602C59.2526 24.3602 59.189 24.3602 59.1414 24.3602C59.1414 26.1095 59.1414 27.8425 59.1414 29.5918C58.7917 29.7226 58.2831 29.7553 57.7109 29.7553C57.7109 26.976 57.7109 24.1967 57.7109 21.4174C58.0765 21.2703 58.4103 21.2539 58.9824 21.2539C60.1427 23.1013 61.3188 24.9651 62.479 26.8125C62.5267 26.8125 62.5903 26.8125 62.6379 26.8125C62.6379 25.0141 62.6379 23.2158 62.6379 21.4174C63.0035 21.2703 63.3373 21.2539 63.9094 21.2539C64.1478 21.9242 64.0684 23.1177 64.0684 24.0332C64.0684 25.8806 64.0684 27.7444 64.0684 29.5918C63.7187 29.7389 63.2101 29.7716 62.6379 29.7553Z" fill="#8190B0"/>
<path d="M85.2068 21.2532C85.2068 21.6293 85.2068 22.0216 85.2068 22.3977C84.6823 22.5938 83.7446 22.5611 82.9817 22.5611C82.9817 24.899 82.9817 27.2532 82.9817 29.5911C82.632 29.7219 82.1234 29.7546 81.5513 29.7546C81.5513 27.3513 81.5513 24.9644 81.5513 22.5611C80.8043 22.5611 80.0732 22.5611 79.3262 22.5611C79.3262 22.1851 79.3262 21.7928 79.3262 21.4167C80.5977 20.9426 83.5697 21.2532 85.2068 21.2532Z" fill="#8190B0"/>
<path d="M86.4785 29.7553C86.4785 26.976 86.4785 24.1967 86.4785 21.4174C86.8441 21.2703 87.1778 21.2539 87.75 21.2539C87.9884 21.9242 87.9089 23.1177 87.9089 24.0332C87.9089 25.8806 87.9089 27.7444 87.9089 29.5918C87.5593 29.7389 87.0507 29.7716 86.4785 29.7553Z" fill="#8190B0"/>
<path d="M102.212 29.7553C102.164 29.5918 102.101 29.4283 102.053 29.2648C102.006 29.2648 101.942 29.2648 101.894 29.2648C101.894 29.1504 101.894 29.0523 101.894 28.9378C101.783 28.8888 101.688 28.8234 101.576 28.7743C101.576 28.6599 101.576 28.5618 101.576 28.4474C101.465 28.3983 101.37 28.3329 101.259 28.2839C101.259 28.1694 101.259 28.0713 101.259 27.9569C101.211 27.9569 101.147 27.9569 101.1 27.9569C101.052 27.7934 100.988 27.6299 100.941 27.4664C100.829 27.4174 100.734 27.352 100.623 27.3029C100.623 27.1885 100.623 27.0904 100.623 26.976C100.512 26.9269 100.416 26.8615 100.305 26.8125C100.305 26.698 100.305 26.6 100.305 26.4855C100.194 26.4365 100.098 26.3711 99.9871 26.322C99.9871 26.2076 99.9871 26.1095 99.9871 25.995C99.8758 25.946 99.7805 25.8806 99.6692 25.8316C99.399 25.3411 99.1447 24.8506 98.8745 24.3602C98.8268 24.3602 98.7633 24.3602 98.7156 24.3602C98.7156 26.1095 98.7156 27.8425 98.7156 29.5918C98.3659 29.7226 97.8573 29.7553 97.2852 29.7553C97.2852 26.976 97.2852 24.1967 97.2852 21.4174C97.6507 21.2703 97.9845 21.2539 98.5566 21.2539C99.7169 23.1013 100.893 24.9651 102.053 26.8125C102.101 26.8125 102.164 26.8125 102.212 26.8125C102.212 25.0141 102.212 23.2158 102.212 21.4174C102.578 21.2703 102.911 21.2539 103.484 21.2539C103.722 21.9242 103.643 23.1177 103.643 24.0332C103.643 25.8806 103.643 27.7444 103.643 29.5918C103.293 29.7389 102.784 29.7716 102.212 29.7553Z" fill="#8190B0"/>
<path d="M48.0157 22.7253C47.9044 22.6763 47.8091 22.6109 47.6978 22.5618C47.6978 22.4474 47.6978 22.3493 47.6978 22.2348C47.6501 22.2348 47.5865 22.2348 47.5389 22.2348C47.4276 22.0713 47.3322 21.9079 47.221 21.7444C46.776 21.6463 46.4581 21.3683 46.1084 21.2539C45.5839 21.2539 45.0436 21.2539 44.5191 21.2539C44.5191 21.303 44.5191 21.3683 44.5191 21.4174C44.2489 21.4664 43.9946 21.5318 43.7244 21.5809C43.6767 21.6953 43.6131 21.7934 43.5655 21.9079C43.4542 21.9079 43.3588 21.9079 43.2476 21.9079C43.2476 21.9569 43.2476 22.0223 43.2476 22.0713C43.0886 22.1858 42.9297 22.2839 42.7708 22.3983C42.6754 22.8561 42.4052 23.1831 42.294 23.5427C42.294 24.4092 42.294 25.2921 42.294 26.1585C42.294 26.6817 42.2145 27.352 42.4529 27.6299C42.5324 28.9542 43.2476 28.8561 43.7244 29.5918C44.1535 29.6408 44.5668 29.7062 44.9959 29.7553C44.9959 29.8043 44.9959 29.8697 44.9959 29.9188C45.2661 29.9678 45.282 29.7716 45.3138 29.7553C45.6316 29.7553 45.9495 29.7553 46.2674 29.7553C46.5376 29.4283 46.6329 29.6245 46.9031 29.4283C46.9508 29.3139 47.0144 29.2158 47.0621 29.1013C47.3322 28.8888 47.5865 28.6599 47.8567 28.4474C47.9044 28.2348 47.968 28.006 48.0157 27.7934C48.0634 27.7934 48.1269 27.7934 48.1746 27.7934C48.1746 27.352 48.1746 26.9269 48.1746 26.4855C48.1746 25.3738 48.4289 23.5427 48.0157 22.7253ZM46.7442 27.7934C46.6965 27.7934 46.6329 27.7934 46.5852 27.7934C46.5376 27.9569 46.474 28.1204 46.4263 28.2839C46.2197 28.3656 46.474 28.3493 46.2674 28.4474C46.1084 28.4474 45.9495 28.4474 45.7906 28.4474C45.7906 28.4964 45.7906 28.5618 45.7906 28.6109C44.6621 28.5945 44.5668 28.3329 43.8833 27.9569C43.8198 27.6299 43.7244 27.6299 43.7244 27.6299C43.7244 27.352 43.7244 27.0904 43.7244 26.8125C43.6767 26.8125 43.6131 26.8125 43.5655 26.8125C43.6131 25.6681 43.6767 24.5237 43.7244 23.3792C43.9151 23.2158 44.233 22.7907 44.3601 22.5618C44.5668 22.5618 44.7893 22.5618 44.9959 22.5618C44.9959 22.5128 44.9959 22.4474 44.9959 22.3983C45.425 22.5128 45.8382 22.6109 46.2674 22.7253C46.3309 22.7743 46.4104 22.9542 46.5852 23.0523C46.6329 23.3792 46.6965 23.7062 46.7442 24.0332C46.7919 24.0332 46.8554 24.0332 46.9031 24.0332C47.1097 24.7198 46.9349 27.3193 46.7442 27.7934Z" fill="#8190B0"/>
<path d="M93.9477 21.5804C93.5663 21.1717 92.6762 21.2208 91.8816 21.2535C91.8816 21.3025 91.8816 21.3679 91.8816 21.417C91.6114 21.466 91.3571 21.5314 91.0869 21.5804C91.0869 21.6295 91.0869 21.6949 91.0869 21.7439C90.9756 21.7439 90.8803 21.7439 90.769 21.7439C90.769 21.793 90.769 21.8584 90.769 21.9074C90.4988 22.1199 90.2445 22.3488 89.9743 22.5614C89.9267 22.8393 89.8631 23.1009 89.8154 23.3788C89.7677 23.3788 89.7041 23.3788 89.6565 23.3788C89.4022 24.1635 89.7041 28.0055 89.9743 28.2834C90.1333 28.9374 90.7372 29.4605 91.4048 29.5913C91.8498 30.0164 93.5822 29.8366 93.9477 29.4279C94.5835 29.248 94.7106 28.7576 95.2192 28.4469C95.6642 26.2725 96.1411 22.1199 93.9477 21.5804ZM94.2656 26.812C94.2179 26.812 94.1544 26.812 94.1067 26.812C94.1067 27.139 94.1067 27.466 94.1067 27.793C93.9954 27.842 93.9001 27.9074 93.7888 27.9565C93.7888 28.0709 93.7888 28.169 93.7888 28.2834C93.1054 28.4469 92.9623 28.7576 92.1994 28.4469C91.8021 28.2834 92.0246 28.6104 91.7226 28.2834C90.8962 27.793 90.928 26.6976 90.928 25.3407C90.928 24.8338 90.8485 24.1308 91.0869 23.8693C91.1346 23.0191 91.4207 23.0682 91.7226 22.5614C92.0405 22.5123 92.3584 22.4469 92.6762 22.3979C92.6762 22.4469 92.6762 22.5123 92.6762 22.5614C93.4391 22.5777 93.8047 22.9047 93.9477 23.5423C94.202 23.8366 94.4722 26.0764 94.2656 26.812Z" fill="#8190B0"/>
<path d="M71.6963 22.7245C71.5851 22.6755 71.4897 22.6101 71.3785 22.561C71.3785 22.4466 71.3785 22.3485 71.3785 22.2341C71.3308 22.2341 71.2672 22.2341 71.2195 22.2341C71.1083 22.0706 71.0129 21.9071 70.9017 21.7436C70.4248 21.5801 69.948 21.4166 69.4712 21.2531C68.3587 21.2368 66.817 21.0896 65.9746 21.4166C65.9746 24.1959 65.9746 26.9752 65.9746 29.7545C67.2461 29.7545 68.5176 29.7545 69.7891 29.7545C69.7891 29.7054 69.7891 29.6401 69.7891 29.591C70.0593 29.542 70.3136 29.4766 70.5838 29.4275C70.5838 29.3785 70.5838 29.3131 70.5838 29.264C70.8222 29.0678 70.854 29.0351 71.2195 28.9371C71.2672 28.7736 71.3308 28.6101 71.3785 28.4466C71.4261 28.4466 71.4897 28.4466 71.5374 28.4466C71.5374 28.3322 71.5374 28.2341 71.5374 28.1196C71.5851 28.1196 71.6487 28.1196 71.6963 28.1196C71.6963 28.0052 71.6963 27.9071 71.6963 27.7926C71.744 27.7926 71.8076 27.7926 71.8553 27.7926C71.8553 27.4166 71.8553 27.0242 71.8553 26.6482C71.903 26.6482 71.9665 26.6482 72.0142 26.6482C72.2049 25.9779 71.8712 23.0842 71.6963 22.7245ZM70.5838 27.4657C70.5361 27.4657 70.4725 27.4657 70.4248 27.4657C70.4248 27.5801 70.4248 27.6782 70.4248 27.7926C70.3772 27.7926 70.3136 27.7926 70.2659 27.7926C70.2182 27.9561 70.1546 28.1196 70.107 28.2831C69.8368 28.3322 69.5825 28.3975 69.3123 28.4466C69.3123 28.4956 69.3123 28.561 69.3123 28.6101C68.6765 28.6101 68.0408 28.6101 67.405 28.6101C67.405 26.5992 67.405 24.5719 67.405 22.561C68.152 22.561 68.8832 22.561 69.6302 22.561C69.805 22.839 69.9639 22.9207 70.2659 23.0515C70.3136 23.264 70.3772 23.4929 70.4248 23.7054C70.4725 23.7054 70.5361 23.7054 70.5838 23.7054C70.5838 24.9643 70.5838 26.2232 70.5838 27.4657Z" fill="#8190B0"/>
<path d="M20.0413 25.0132C20.0413 25.1277 20.0413 25.2257 20.0413 25.3402C19.8824 25.3892 19.7235 25.4546 19.5645 25.5037C19.5645 25.5527 19.5645 25.6181 19.5645 25.6672C19.4533 25.6672 19.3579 25.6672 19.2466 25.6672C19.199 25.7816 19.1354 25.8797 19.0877 25.9941C18.9288 25.9941 18.7698 25.9941 18.6109 25.9941C18.5632 26.1086 18.4996 26.2067 18.452 26.3211C18.293 26.3211 18.1341 26.3211 17.9752 26.3211C17.9752 26.3702 17.9752 26.4356 17.9752 26.4846C17.8639 26.4846 17.7685 26.4846 17.6573 26.4846C17.6573 26.5336 17.6573 26.599 17.6573 26.6481C17.4507 26.6481 17.2282 26.6481 17.0215 26.6481C17.0215 26.6971 17.0215 26.7625 17.0215 26.8116C16.8149 26.8606 16.5924 26.926 16.3858 26.9751C16.7355 27.9069 16.4017 28.4955 16.2269 29.2639C16.0679 29.3129 15.909 29.3783 15.75 29.4274C15.75 29.4764 15.75 29.5418 15.75 29.5909C15.6388 29.5909 15.5434 29.5909 15.4322 29.5909C15.4322 29.6399 15.4322 29.7053 15.4322 29.7544C15.3209 29.7544 15.2256 29.7544 15.1143 29.7544C15.1143 29.8034 15.1143 29.8688 15.1143 29.9178C14.3514 30.1958 13.9223 29.6726 13.366 29.5909C13.366 29.4764 13.366 29.3783 13.366 29.2639C13.2547 29.2639 13.1594 29.2639 13.0481 29.2639C13.0004 29.0514 12.9369 28.8225 12.8892 28.6099C12.8415 28.6099 12.7779 28.6099 12.7303 28.6099C12.7303 28.0704 12.7303 27.5146 12.7303 26.9751C12.5872 26.7135 11.1886 26.4846 10.823 26.3211C10.823 26.2721 10.823 26.2067 10.823 26.1576C10.7118 26.1576 10.6164 26.1576 10.5051 26.1576C10.5051 26.1086 10.5051 26.0432 10.5051 25.9941C10.3939 25.9941 10.2985 25.9941 10.1873 25.9941C10.1396 25.8797 10.076 25.7816 10.0283 25.6672C9.91708 25.6672 9.82171 25.6672 9.71046 25.6672C9.66278 25.5527 9.5992 25.4546 9.55152 25.3402C9.44027 25.3402 9.3449 25.3402 9.23365 25.3402C8.8681 24.8988 8.48665 24.4737 8.12109 24.0323C8.16877 23.8688 8.23235 23.7053 8.28003 23.5418C8.55022 23.4437 8.77273 23.3783 9.23365 23.3783C9.58331 23.9996 9.94886 23.9832 10.5051 24.3593C10.5051 24.4083 10.5051 24.4737 10.5051 24.5227C10.6641 24.5718 10.823 24.6372 10.982 24.6862C11.0296 24.8007 11.0932 24.8988 11.1409 25.0132C11.2998 25.0132 11.4588 25.0132 11.6177 25.0132C11.6177 25.0623 11.6177 25.1277 11.6177 25.1767C11.729 25.1767 11.8243 25.1767 11.9356 25.1767C11.9356 25.2257 11.9356 25.2911 11.9356 25.3402C12.1422 25.3402 12.3647 25.3402 12.5713 25.3402C12.5713 25.3892 12.5713 25.4546 12.5713 25.5037C12.7303 25.5037 12.8892 25.5037 13.0481 25.5037C13.0481 25.5527 13.0481 25.6181 13.0481 25.6672C14.0494 25.6672 15.0666 25.6672 16.0679 25.6672C16.0679 25.6181 16.0679 25.5527 16.0679 25.5037C16.2745 25.5037 16.497 25.5037 16.7037 25.5037C16.7037 25.4546 16.7037 25.3892 16.7037 25.3402C16.9103 25.3402 17.1328 25.3402 17.3394 25.3402C17.3871 25.2257 17.4507 25.1277 17.4983 25.0132C17.6573 25.0132 17.8162 25.0132 17.9752 25.0132C17.9752 24.9642 17.9752 24.8988 17.9752 24.8497C18.0864 24.8497 18.1818 24.8497 18.293 24.8497C18.293 24.8007 18.293 24.7353 18.293 24.6862C18.4043 24.6862 18.4996 24.6862 18.6109 24.6862C18.6586 24.5718 18.7222 24.4737 18.7698 24.3593C18.8811 24.3593 18.9765 24.3593 19.0877 24.3593C19.0877 24.3102 19.0877 24.2448 19.0877 24.1958C19.3738 23.9669 19.4692 23.8197 19.8824 23.7053C19.8824 23.5909 19.8824 23.4928 19.8824 23.3783C20.089 23.3293 20.3115 23.2639 20.5181 23.2148C20.5181 23.2639 20.5181 23.3293 20.5181 23.3783C21.0585 23.5255 21.0108 23.689 20.995 24.3593C20.5976 24.6045 20.5499 24.8824 20.0413 25.0132Z" fill="#8190B0"/>
<path d="M78.69 27.1395C78.6423 26.8125 78.5787 26.4855 78.5311 26.1585C78.4834 26.1585 78.4198 26.1585 78.3721 26.1585C78.3721 25.9951 78.3721 25.8316 78.3721 25.6681C78.3244 25.6681 78.2609 25.6681 78.2132 25.6681C78.2132 25.5536 78.2132 25.4555 78.2132 25.3411C78.1655 25.3411 78.1019 25.3411 78.0542 25.3411C78.0066 25.0141 77.943 24.6871 77.8953 24.3602C77.8476 24.3602 77.784 24.3602 77.7364 24.3602C77.7364 24.2457 77.7364 24.1476 77.7364 24.0332C77.6887 24.0332 77.6251 24.0332 77.5774 24.0332C77.5297 23.7062 77.4662 23.3792 77.4185 23.0523C77.196 22.4801 76.8463 22.0386 76.7827 21.2539C76.4172 21.2539 76.0357 21.2539 75.6702 21.2539C75.4 21.9079 75.1457 22.5618 74.8755 23.2158C74.8755 23.3792 74.8755 23.5427 74.8755 23.7062C74.8278 23.7062 74.7642 23.7062 74.7166 23.7062C74.7166 23.8207 74.7166 23.9188 74.7166 24.0332C74.6689 24.0332 74.6053 24.0332 74.5576 24.0332C74.51 24.3602 74.4464 24.6871 74.3987 25.0141C74.351 25.0141 74.2874 25.0141 74.2398 25.0141C74.2398 25.1286 74.2398 25.2267 74.2398 25.3411C74.1921 25.3411 74.1285 25.3411 74.0808 25.3411C73.9696 25.8316 73.8742 26.322 73.7629 26.8125C73.7153 26.8125 73.6517 26.8125 73.604 26.8125C73.604 26.9269 73.604 27.025 73.604 27.1395C73.5563 27.1395 73.4928 27.1395 73.4451 27.1395C73.3974 27.4664 73.3338 27.7934 73.2861 28.1204C73.2385 28.1204 73.1749 28.1204 73.1272 28.1204C73.1272 28.2348 73.1272 28.3329 73.1272 28.4474C73.0795 28.4474 73.0159 28.4474 72.9683 28.4474C72.8252 28.807 72.6981 29.4119 72.6504 29.7553C74.3987 29.8207 74.1285 29.3629 74.5576 28.1204C75.6225 28.1204 76.6715 28.1204 77.7364 28.1204C77.8953 28.6599 78.0542 29.2158 78.2132 29.7553C78.69 29.7553 79.1668 29.7553 79.6436 29.7553C79.5165 28.7253 79.0238 27.9242 78.69 27.1395ZM75.0344 26.976C75.1775 25.7335 75.8768 24.916 75.9881 23.7062C76.0993 23.7062 76.1947 23.7062 76.3059 23.7062C76.6238 24.8016 76.9417 25.8806 77.2596 26.976C76.5126 26.976 75.7814 26.976 75.0344 26.976Z" fill="#8190B0"/>
</g>
<defs>
<clipPath id="clip0">
<rect width="110" height="30" fill="white"/>
</clipPath>
</defs>
</svg>
