<svg width="180" height="333" viewBox="0 0 180 333" fill="none" xmlns="http://www.w3.org/2000/svg">
<path d="M89.8694 118.683C125.558 118.683 154.489 92.2524 154.489 59.6486C154.489 27.0448 125.558 0.614258 89.8694 0.614258C54.1811 0.614258 25.25 27.0448 25.25 59.6486C25.25 92.2524 54.1811 118.683 89.8694 118.683Z" fill="url(#paint0_radial)"/>
<path d="M49.7515 105.846C47.5227 104.096 45.3263 99.5589 47.0751 93.6596C47.0751 93.6596 44.0943 95.0814 44.3481 92.0486C44.6018 89.0159 47.3751 83.3982 47.3751 83.3982C46.8306 84.2891 45.3632 85.6278 44.7264 85.1892C44.0896 84.7507 44.1496 80.8317 46.2169 77.642C46.2169 77.642 43.6374 78.2236 43.3837 76.6588C43.1299 75.094 45.3309 74.24 45.3309 74.24C45.3309 74.24 46.7937 66.5866 47.8919 62.9769C47.8919 62.9769 46.8121 63.4708 46.0784 62.88C45.3448 62.2891 46.2261 56.8007 47.6704 54.4511C47.6704 54.4511 45.1417 47.0332 48.7178 41.7709C48.7178 41.7709 46.5306 40.8477 46.8398 38.6089C47.149 36.3702 49.8899 39.0013 49.8899 39.0013C49.8899 39.0013 48.3764 28.4583 51.2742 21.128C52.0909 19.0601 53.4476 16.5766 54.9288 15.9996C55.2861 15.9545 55.6488 16.0185 55.9691 16.1832C56.2895 16.348 56.5525 16.6058 56.7237 16.9228C56.7237 16.9228 56.9729 15.5888 59.0309 15.8381C59.6607 16.065 60.2239 16.4458 60.669 16.9459C60.669 16.9459 62.7916 15.5934 67.3829 21.1327C68.7257 22.7067 72.9801 28.7491 72.9801 28.7491C72.9801 28.7491 75.721 26.4411 79.2556 29.9677C79.2556 29.9677 82.8733 26.875 94.8106 28.089C94.8106 28.089 97.8792 24.3546 100.602 25.5502C100.602 25.5502 101.524 22.3605 104.552 22.3467C104.552 22.3467 109.212 11.139 113.319 12.8377C113.319 12.8377 115.967 10.0311 118.016 12.3484C118.016 12.3484 122.718 11.3882 125.399 21.7235C126.488 25.8779 126.424 31.4172 125.824 35.8301C125.824 35.8301 128.043 37.2149 128.219 39.0613C128.394 40.9077 125.298 41.0831 125.298 41.0831C125.298 41.0831 131.079 45.7407 131.859 56.7776C131.859 56.7776 135.338 60.1334 135.26 63.2077C135.26 63.8401 134.799 64.5925 134.3 64.6941C134.3 64.6941 140.553 73.7876 137.641 88.6143C137.641 88.6143 138.102 91.2455 134.942 91.7578C134.942 91.7578 136.178 94.7536 135.292 95.5799C135.292 95.5799 132.985 95.8107 132.039 97.3986C131.093 98.9865 131.55 101.932 130.78 104.387C130.78 104.387 130.203 107.286 127.983 108.463C126.599 109.202 125.099 110.047 123.59 110.919C121.671 114.819 111.242 118.508 111.242 118.508C111.242 118.508 81.249 123.331 73.8153 121.153C66.3816 118.974 63.5807 118.498 63.0593 113.227L55.1133 108.976C55.1133 108.976 51.4126 107.148 49.7515 105.846Z" fill="url(#paint1_linear)"/>
<path opacity="0.1" d="M122.696 52.3181C123.355 50.4717 128.168 50.4717 133.507 58.5959C134.868 60.6592 135.491 64.0751 131.624 63.6227C129.986 63.4335 128.131 60.1653 127.255 58.1666C126.258 55.8816 122.142 53.8875 122.696 52.3181Z" fill="black"/>
<path opacity="0.1" d="M131.449 68.6356C130.711 67.4446 130.065 65.4459 132.834 67.4031C135.602 69.3603 140.36 76.7736 136.788 88.2721C136.788 88.2721 135.372 81.4727 133.152 78.0292C130.933 74.5856 128.842 69.3003 129.922 68.6217C130.393 68.3171 131.449 68.6356 131.449 68.6356Z" fill="black"/>
<path opacity="0.1" d="M95.9765 29.719C96.7044 28.5059 96.701 27.1661 95.9689 26.7266C95.2369 26.2872 94.0535 26.9144 93.3257 28.1276C92.5978 29.3407 92.6012 30.6805 93.3332 31.12C94.0653 31.5594 95.2487 30.9322 95.9765 29.719Z" fill="black"/>
<path d="M120.327 98.5709C121.208 98.4232 122.334 100.98 122.588 101.341C122.841 101.701 124.946 103.108 122.283 91.2591C121.891 89.4958 125.052 90.7975 125.864 91.5546C126.676 92.3116 126.547 91.0191 126.293 88.6972C126.039 86.3754 127.631 88.7572 127.756 89.0157C128.106 89.7497 128.577 89.145 128.217 88.3695C127.857 87.594 124.253 83.2919 124.881 81.0208C125.508 78.7497 130.45 81.8101 132.352 83.2873C132.352 83.2873 130.967 80.5638 130.935 79.1744C130.903 77.785 140.044 87.7371 135.706 90.0728C134.783 90.5621 134.359 90.3682 134.359 90.3682C134.359 90.3682 136.809 94.1303 133.348 94.9843L131.226 95.9582C131.226 95.9582 132.07 101.996 129.772 104.932C127.557 107.761 123.773 109.714 122.781 109.479C122.108 109.317 122.08 108.209 122.08 108.209C121.23 109.597 119.987 110.701 118.508 111.38C117.387 111.842 114.752 112.059 114.397 111.588C113.982 111.039 117.512 108.435 118.356 104.969C119.293 101.147 118.915 98.8063 120.327 98.5709Z" fill="url(#paint2_linear)"/>
<path d="M70.4201 59.2796C70.408 59.7393 70.4897 60.1966 70.6604 60.6235C70.8311 61.0504 71.087 61.438 71.4126 61.7626C71.7382 62.0871 72.1266 62.3417 72.554 62.5109C72.9815 62.68 73.4389 62.7601 73.8983 62.7463C74.3577 62.7324 74.8095 62.6249 75.2259 62.4304C75.6424 62.2358 76.0148 61.9582 76.3203 61.6147C76.6258 61.2712 76.858 60.8689 77.0026 60.4324C77.1473 59.996 77.2014 59.5346 77.1616 59.0765C77.1247 57.7564 75.1221 56.4962 73.2579 56.5516C71.3937 56.607 70.3647 57.2901 70.4201 59.2796Z" fill="url(#paint3_linear)" stroke="#090C1B" stroke-width="1.01" stroke-miterlimit="10"/>
<path d="M78.979 61.5914C79.2835 63.184 78.8821 64.2872 77.9454 64.3611C77.1055 64.4164 77.0732 63.2347 77.6639 62.7547C78.2545 62.2746 77.95 61.416 77.95 61.416L78.979 61.5914Z" fill="#090C1B"/>
<path d="M72.6709 59.445C72.644 59.612 72.6543 59.7829 72.701 59.9455C72.7478 60.1081 72.8298 60.2583 72.9413 60.3855C73.0528 60.5127 73.191 60.6137 73.346 60.6813C73.501 60.749 73.6691 60.7815 73.8381 60.7767C74.0071 60.7718 74.173 60.7297 74.3239 60.6533C74.4748 60.577 74.607 60.4682 74.711 60.3348C74.8151 60.2015 74.8884 60.0468 74.9258 59.8818C74.9632 59.7168 74.9637 59.5456 74.9273 59.3804C74.9397 59.2216 74.9186 59.0619 74.8653 58.9117C74.812 58.7616 74.7277 58.6244 74.6179 58.509C74.5081 58.3935 74.3752 58.3025 74.228 58.2418C74.0807 58.1812 73.9223 58.1522 73.7631 58.1567C73.6039 58.1613 73.4475 58.1993 73.3039 58.2683C73.1604 58.3373 73.0329 58.4358 72.9299 58.5573C72.8269 58.6788 72.7506 58.8206 72.706 58.9736C72.6613 59.1265 72.6494 59.2872 72.6709 59.445Z" fill="#090C1B"/>
<path d="M72.5628 58.3059C72.812 57.6018 72.5292 56.8592 71.931 56.6473C71.3328 56.4354 70.6459 56.8344 70.3966 57.5386C70.1474 58.2427 70.4302 58.9853 71.0284 59.1972C71.6265 59.409 72.3135 59.01 72.5628 58.3059Z" fill="white"/>
<path d="M86.5547 63.2815C88.1198 62.9054 89.7457 62.8566 91.3306 63.1384" stroke="#090C1B" stroke-width="1.05" stroke-linecap="round" stroke-linejoin="round"/>
<path d="M97.3125 70.4457C97.4048 73.5938 93.3903 77.2405 90.391 77.3328C87.3917 77.4251 83.1372 74.0231 83.0449 70.8703C82.9527 67.7176 86.0996 66.0327 90.0449 65.9173C93.9902 65.8019 97.2156 67.2929 97.3125 70.4457Z" fill="#090C1B"/>
<path d="M86.8223 70.4639C87.2696 70.6342 87.639 70.9627 87.8605 71.3871C88.1159 71.7814 88.274 72.2307 88.322 72.698C88.3727 73.1853 88.252 73.6751 87.9805 74.0828C87.7017 74.4631 87.3063 74.7419 86.8546 74.8768C86.8395 74.8818 86.8235 74.8838 86.8076 74.8825C86.7917 74.8813 86.7762 74.8769 86.762 74.8695C86.7478 74.8622 86.7352 74.8522 86.725 74.84C86.7148 74.8277 86.707 74.8136 86.7023 74.7983C86.6939 74.7722 86.6942 74.744 86.7034 74.7182C86.7126 74.6923 86.7301 74.6702 86.7531 74.6552C87.1029 74.4675 87.3997 74.1944 87.616 73.8613C87.7981 73.5222 87.8752 73.1365 87.8375 72.7534C87.8011 72.3561 87.69 71.9692 87.5098 71.6133C87.3464 71.2536 87.086 70.9467 86.7577 70.727C86.7437 70.7198 86.7314 70.7097 86.7214 70.6976C86.7114 70.6854 86.7041 70.6713 86.6998 70.6562C86.6954 70.641 86.6942 70.6252 86.6963 70.6096C86.6983 70.594 86.7035 70.5789 86.7116 70.5654C86.7157 70.5384 86.7289 70.5136 86.7491 70.4952C86.7692 70.4767 86.795 70.4657 86.8223 70.4639Z" fill="white"/>
<path d="M93.7438 70.4823C93.4322 70.7211 93.1913 71.0402 93.0471 71.4055C92.8889 71.772 92.8012 72.1651 92.7887 72.5641C92.7713 72.9479 92.8711 73.3278 93.0748 73.6535C93.3125 73.9774 93.6306 74.2335 93.9976 74.3967C94.0252 74.4131 94.0457 74.4392 94.0551 74.47C94.0645 74.5007 94.0621 74.5338 94.0484 74.5628C94.0351 74.5866 94.0143 74.6054 93.9893 74.6162C93.9643 74.627 93.9364 74.6294 93.91 74.6229C93.4517 74.5133 93.0408 74.2592 92.7379 73.8981C92.4474 73.5104 92.2991 73.0345 92.318 72.5503C92.332 72.0841 92.4536 71.6275 92.6733 71.2162C92.8734 70.7851 93.2224 70.4409 93.6562 70.2469C93.671 70.2409 93.6869 70.238 93.7028 70.2383C93.7188 70.2386 93.7346 70.242 93.7492 70.2485C93.7638 70.2549 93.777 70.2642 93.7879 70.2759C93.7989 70.2875 93.8074 70.3012 93.8131 70.3161C93.822 70.3417 93.8223 70.3696 93.814 70.3954C93.8057 70.4212 93.7891 70.4436 93.7669 70.4592L93.7438 70.4823Z" fill="white"/>
<path d="M90.5096 68.6641C91.9285 68.6214 93.0701 68.3018 93.0595 67.9502C93.049 67.5985 91.8902 67.348 90.4714 67.3906C89.0525 67.4332 87.9109 67.7528 87.9215 68.1045C87.932 68.4562 89.0908 68.7067 90.5096 68.6641Z" fill="white"/>
<path d="M90.3672 77.332L90.441 79.8524" stroke="#090C1B" stroke-width="2.1" stroke-linecap="round" stroke-linejoin="round"/>
<path d="M62.368 73.3945C61.8097 74.9547 61.5605 77.4797 62.7833 78.1952C63.277 78.4814 62.9033 76.1918 63.4524 75.3102C63.4071 76.4693 63.6745 77.6193 64.2266 78.6394C64.7787 79.6595 65.5951 80.5122 66.5901 81.1079" stroke="#090C1B" stroke-width="1.05" stroke-linecap="round" stroke-linejoin="round"/>
<path d="M118.532 71.9502C119.182 73.4735 119.252 75.0845 118.07 75.8692C117.609 76.1877 117.374 74.7844 116.774 73.9397C116.923 74.6869 116.914 75.4572 116.747 76.2006C116.58 76.9441 116.259 77.6442 115.805 78.2557" stroke="#090C1B" stroke-width="1.05" stroke-linecap="round" stroke-linejoin="round"/>
<path opacity="0.1" d="M57.4389 41.0829C55.9669 40.5105 54.0704 41.863 53.2029 44.0971C53.2029 44.0971 53.2029 44.1248 53.2029 44.1387C52.6059 43.9486 51.9695 43.9184 51.3572 44.051C51.8786 43.1878 52.903 40.8982 51.8186 39.7812C51.3941 39.3196 49.7653 39.2549 48.3256 40.2428C44.4587 42.8877 46.7521 53.32 46.7521 53.32C45.9077 54.7925 44.2326 61.1672 45.4462 61.5457C46.6598 61.9242 47.4165 62.4689 49.8068 57.419C52.197 52.3691 52.0171 48.39 52.0171 48.39C52.3855 48.25 52.7284 48.0504 53.0322 47.7992C53.1338 48.1052 53.2984 48.3866 53.5154 48.6251C53.7324 48.8636 53.9969 49.054 54.2919 49.184C55.7639 49.7564 57.6604 48.4085 58.5279 46.1697C59.3954 43.931 58.9063 41.6368 57.4389 41.0829Z" fill="black"/>
<path opacity="0.1" d="M116.974 90.43C117.558 89.446 116.866 87.9546 115.426 87.099C113.987 86.2434 112.346 86.3475 111.762 87.3315C111.177 88.3156 111.87 89.8069 113.309 90.6625C114.749 91.5182 116.389 91.4141 116.974 90.43Z" fill="black"/>
<path opacity="0.1" d="M112.848 91.7713C113.517 92.3437 113.642 93.2115 113.31 93.5854C112.978 93.9593 112.29 93.7562 111.621 93.1884C110.952 92.6206 110.56 91.9005 110.878 91.5266C111.196 91.1527 112.175 91.2035 112.848 91.7713Z" fill="black"/>
<path opacity="0.1" d="M109.407 96.2154C109.409 95.7845 108.75 95.4317 107.934 95.4273C107.119 95.4229 106.456 95.7686 106.453 96.1994C106.451 96.6302 107.11 96.9831 107.926 96.9875C108.741 96.9919 109.404 96.6462 109.407 96.2154Z" fill="black"/>
<path d="M84.6765 87.3726C84.215 88.4205 87.8604 89.9207 90.9566 89.6299C94.0529 89.339 96.5538 87.945 96.6784 86.7725C96.803 85.6001 93.0285 87.4326 90.9335 87.5111C87.6666 87.6265 84.9026 86.8833 84.6765 87.3726Z" fill="black"/>
<path opacity="0.1" d="M82.5394 99.4017C82.5763 100.606 82.4748 101.585 82.0365 101.599C81.5981 101.613 81.0075 100.676 80.9706 99.4478C80.9336 98.22 81.4689 97.2552 81.8934 97.2414C82.3179 97.2275 82.5071 98.2015 82.5394 99.4017Z" fill="black"/>
<path opacity="0.1" d="M80.4012 99.6458C80.3756 99.8436 80.2938 100.03 80.1656 100.183C80.0373 100.335 79.868 100.448 79.6777 100.507C79.4874 100.567 79.284 100.57 79.0917 100.518C78.8994 100.465 78.7262 100.358 78.5927 100.21C78.4591 100.062 78.3708 99.8789 78.3383 99.6822C78.3057 99.4854 78.3301 99.2834 78.4088 99.1001C78.4874 98.9169 78.6169 98.76 78.782 98.6481C78.947 98.5362 79.1406 98.4739 79.3399 98.4688C79.6362 98.4855 79.9139 98.6185 80.1126 98.8389C80.3114 99.0593 80.4151 99.3493 80.4012 99.6458Z" fill="black"/>
<path opacity="0.1" d="M66.8373 89.9062C66.5835 90.8294 66.2744 91.5541 65.9375 91.4618C65.6007 91.3695 65.3745 90.5016 65.6283 89.5738C65.8821 88.646 66.5512 88.0182 66.865 88.1106C67.1788 88.2029 67.0957 88.983 66.8373 89.9062Z" fill="black"/>
<path opacity="0.1" d="M69.3834 93.1724C70.224 93.1471 70.8814 92.3252 70.8517 91.3364C70.822 90.3477 70.1166 89.5667 69.276 89.592C68.4353 89.6172 67.778 90.4392 67.8076 91.4279C67.8373 92.4166 68.5428 93.1976 69.3834 93.1724Z" fill="black"/>
<path d="M64.5862 112.008C63.8617 109.829 63.9678 106.182 63.2019 106.238C63.1086 106.255 63.0198 106.291 62.9405 106.343C62.8613 106.396 62.7933 106.463 62.7404 106.542C62.6897 103.856 62.0667 101.303 60.7655 101.146C59.4642 100.989 58.5506 102.706 57.9415 103.916C57.3324 105.125 56.8433 104.977 56.7833 104.303C56.4788 100.772 57.3047 98.7272 56.6033 98.2656C55.902 97.804 55.2836 98.6672 55.2836 98.6672C55.8097 97.2824 56.1558 93.3311 55.6851 91.7432C55.2144 90.1553 52.1874 90.9446 50.2725 93.945C46.641 99.632 47.5731 105.864 51.7721 104.705C52.5889 108.619 55.2237 106.718 55.2237 106.718C55.2237 106.718 54.4531 109.349 55.4313 109.621C56.4095 109.893 57.3832 108.112 57.3832 108.112C57.3832 108.112 57.457 111.218 59.3766 112.044C60.2302 112.414 61.5084 112.774 62.1452 111.121C62.2436 111.873 62.3978 112.617 62.6066 113.346C63.7371 117.362 67.5993 119.846 67.7332 118.913C67.867 117.981 65.8736 115.885 64.5862 112.008Z" fill="url(#paint4_linear)"/>
<path opacity="0.1" d="M99.0643 30.9277C99.1105 32.9357 99.9872 34.1082 101.048 34.0805C102.11 34.0528 102.931 32.9403 102.894 30.9369C102.857 28.9336 101.87 26.4132 100.882 26.8102C100.033 27.1564 99.0136 28.9244 99.0643 30.9277Z" fill="black"/>
<path d="M75.8639 78.4728C76.3854 76.9634 77.8989 77.088 78.8448 77.5496C79.7907 78.0112 80.9582 80.0423 82.444 80.5731L81.9226 81.4132C81.033 81.339 80.1559 81.1561 79.3108 80.8685C78.5541 80.5316 78.088 81.3855 76.9252 80.8362C76.5113 80.6159 76.1824 80.2641 75.9903 79.8362C75.7981 79.4084 75.7537 78.9287 75.8639 78.4728Z" fill="#090C1B"/>
<path d="M104.041 76.2009C105.485 76.0947 106.168 78.3427 104.913 79.7737C103.891 80.8898 102.482 81.5747 100.972 81.6893C99.2698 81.9109 99.0391 81.0569 99.0391 81.0569C99.0391 81.0569 100.728 80.7477 101.166 79.6029C101.512 78.6889 101.895 76.3578 104.041 76.2009Z" fill="#090C1B"/>
<path d="M80.0306 79.6684C80.8681 80.022 81.7321 80.3091 82.6146 80.5269C83.4876 80.7239 84.3841 80.7954 85.2771 80.7393C86.1912 80.6492 87.0979 80.495 87.9904 80.2777C88.938 80.0598 89.9067 79.9468 90.879 79.9407C92.8954 79.9407 94.6858 80.707 96.4808 80.9424C97.3744 81.0745 98.2804 81.1008 99.1802 81.0209C100.076 80.9138 100.96 80.7206 101.82 80.4439C101.888 80.4229 101.96 80.4157 102.031 80.4226C102.103 80.4295 102.172 80.4504 102.235 80.484C102.298 80.5177 102.354 80.5634 102.4 80.6187C102.445 80.674 102.479 80.7377 102.5 80.8062C102.521 80.8747 102.528 80.9467 102.521 81.0179C102.515 81.0892 102.494 81.1585 102.46 81.2217C102.426 81.2849 102.381 81.3409 102.325 81.3864C102.27 81.432 102.206 81.4662 102.138 81.4871C101.199 81.7521 100.236 81.9252 99.2632 82.0041C98.2858 82.0721 97.3038 82.0241 96.3377 81.861C94.4182 81.5609 92.6463 80.8408 90.8743 80.8316C89.9674 80.8412 89.0647 80.9558 88.1842 81.1732C87.2516 81.4084 86.3054 81.5857 85.351 81.704C84.3669 81.7869 83.3761 81.7325 82.407 81.5425C81.4559 81.348 80.5211 81.081 79.6107 80.7439C79.5394 80.7196 79.4737 80.6813 79.4174 80.6313C79.3611 80.5813 79.3153 80.5206 79.2827 80.4527C79.25 80.3848 79.2312 80.3111 79.2273 80.2359C79.2234 80.1607 79.2345 80.0854 79.26 80.0146C79.3112 79.8721 79.4164 79.7555 79.5528 79.6898C79.6891 79.6242 79.8458 79.6148 79.9891 79.6637H80.0122L80.0306 79.6684Z" fill="#090C1B"/>
<path opacity="0.1" d="M79.9703 54.5248C78.4799 54.7649 77.9584 55.9096 77.7508 55.2357C77.3863 54.0078 76.2281 53.1908 75.905 53.3385C75.582 53.4862 75.905 53.9663 75.8312 54.6402C75.8312 54.6725 75.8312 54.7095 75.8312 54.7418C72.8826 53.0477 69.9479 55.3142 70.4463 55.7573L72.938 56.2651L75.9789 57.3729L76.4403 57.9499C77.127 58.6416 77.8677 59.2775 78.6552 59.8517C79.7119 60.3918 81.1516 59.6486 81.9175 58.2084C83.2373 55.7111 81.4561 54.2894 79.9703 54.5248Z" fill="black"/>
<path d="M68.2197 57.5394L66.5078 55.416L70.5961 56.21C70.5961 56.21 68.9027 56.27 68.2197 57.5394Z" fill="#090C1B"/>
<path d="M68.0534 57.8163C67.7673 57.5394 67.4628 57.2532 67.1629 56.9439C66.7891 56.5654 66.4338 56.1499 66.1016 55.7391C66.059 55.6862 66.0274 55.6255 66.0085 55.5603C65.9896 55.4951 65.9839 55.4268 65.9916 55.3594C65.9993 55.292 66.0204 55.2267 66.0535 55.1675C66.0866 55.1083 66.1312 55.0562 66.1846 55.0144C66.2423 54.9665 66.3099 54.9321 66.3826 54.9138C66.4552 54.8954 66.531 54.8935 66.6045 54.9082C67.9888 55.1667 69.3316 55.4345 70.6836 55.7622H70.7205C70.8353 55.7927 70.934 55.8664 70.9959 55.9679C71.0577 56.0693 71.0781 56.1908 71.0528 56.3069C71.0276 56.4046 70.971 56.4913 70.8919 56.5539C70.8127 56.6164 70.7152 56.6512 70.6144 56.6531C70.1971 56.6601 69.7838 56.7365 69.3916 56.8793C69.1948 56.9523 69.0074 57.0484 68.8332 57.1655C68.7437 57.225 68.6588 57.2913 68.5795 57.3639L68.5195 57.4193L68.4272 57.5209C68.3667 57.5795 68.3019 57.6335 68.2334 57.6824L68.0534 57.8163ZM68.2288 57.147V57.1147C68.2945 56.9994 68.3719 56.8912 68.4595 56.7916C68.6315 56.5879 68.8338 56.412 69.0594 56.2699C69.2842 56.1309 69.5242 56.0178 69.7746 55.933C70.0297 55.8434 70.2946 55.7845 70.5636 55.7576L70.4944 56.6531C69.1101 56.4546 67.7535 56.1915 66.3876 55.9237L66.8906 55.0929C67.1288 55.385 67.3462 55.6935 67.5412 56.0161L68.1549 57.0593L68.2288 57.147Z" fill="#090C1B"/>
<path d="M78.091 62.3162C77.9897 61.2919 77.6099 60.3149 76.9928 59.4912C76.3822 58.6438 75.5846 57.9486 74.6619 57.4595C73.7392 56.9704 72.7163 56.7005 71.6725 56.6708C70.6191 56.6495 69.5713 56.8297 68.5855 57.2017L68.9039 56.74C68.8775 57.5146 68.9442 58.2894 69.1023 59.0481C69.2533 59.8114 69.5259 60.5455 69.9098 61.2222C70.2978 61.8911 70.8527 62.4478 71.5202 62.8378C72.21 63.2204 72.9794 63.4369 73.7674 63.4702C73.7874 63.4714 73.807 63.4765 73.825 63.4853C73.843 63.494 73.8592 63.5063 73.8724 63.5213C73.8857 63.5363 73.8959 63.5538 73.9025 63.5727C73.909 63.5917 73.9117 63.6118 73.9104 63.6318C73.907 63.6702 73.8897 63.706 73.8616 63.7324C73.8335 63.7588 73.7967 63.7739 73.7582 63.7749C72.9075 63.7945 72.0639 63.6159 71.2941 63.2533C70.5167 62.8672 69.8535 62.2848 69.3699 61.5638C68.8981 60.8557 68.5428 60.0765 68.3178 59.2558C68.0877 58.4296 67.9575 57.5788 67.9302 56.7216C67.9253 56.6203 67.9538 56.5203 68.0113 56.4369C68.0689 56.3534 68.1523 56.2913 68.2486 56.26C69.3505 55.8434 70.5226 55.6443 71.7002 55.6737C72.8924 55.71 74.0602 56.0203 75.1132 56.5806C76.1663 57.141 77.0763 57.9363 77.7726 58.905C78.4969 59.8755 78.9392 61.0272 79.0508 62.2331C79.0606 62.3611 79.0192 62.4876 78.9357 62.585C78.8522 62.6824 78.7334 62.7426 78.6055 62.7524C78.4776 62.7622 78.3511 62.7208 78.2538 62.6373C78.1564 62.5537 78.0962 62.4349 78.0864 62.307L78.091 62.3162Z" fill="#090C1B"/>
<path d="M82.378 59.3435C81.983 59.8538 81.4423 60.2321 80.8276 60.4282C80.2243 60.6001 79.5851 60.6001 78.9818 60.4282C77.8877 60.0918 76.922 59.4301 76.2132 58.531C76.1428 58.4508 76.1072 58.346 76.1141 58.2395C76.1211 58.133 76.17 58.0337 76.2501 57.9633C76.3303 57.8929 76.4351 57.8572 76.5416 57.8641C76.648 57.8711 76.7473 57.92 76.8177 58.0002C77.458 58.7101 78.2975 59.2104 79.2264 59.4358C79.6431 59.5293 80.0776 59.5054 80.4815 59.3665C80.8589 59.2139 81.1808 58.9498 81.4044 58.6095C81.45 58.5436 81.5083 58.4874 81.5757 58.4441C81.6431 58.4008 81.7184 58.3712 81.7973 58.3571C81.8762 58.3429 81.9571 58.3445 82.0353 58.3617C82.1136 58.3788 82.1877 58.4113 82.2534 58.4572C82.3867 58.5503 82.4776 58.6925 82.5061 58.8526C82.5347 59.0128 82.4985 59.1777 82.4057 59.3111V59.3388L82.378 59.3435Z" fill="#090C1B"/>
<path d="M108.669 58.13C108.708 58.5881 108.654 59.0495 108.509 59.4859C108.365 59.9223 108.133 60.3246 107.827 60.6682C107.522 61.0117 107.149 61.2893 106.733 61.4838C106.316 61.6784 105.865 61.7859 105.405 61.7998C104.946 61.8136 104.488 61.7335 104.061 61.5643C103.634 61.3952 103.245 61.1406 102.92 60.816C102.594 60.4915 102.338 60.1039 102.167 59.677C101.997 59.2501 101.915 58.7928 101.927 58.3331C101.885 57.013 103.81 55.6328 105.674 55.5635C107.538 55.4943 108.609 56.1451 108.669 58.13Z" fill="url(#paint5_linear)" stroke="#090C1B" stroke-width="1.01" stroke-miterlimit="10"/>
<path d="M100.28 60.9553C100.072 62.5617 100.533 63.6372 101.475 63.6465C102.314 63.6465 102.278 62.474 101.664 62.0262C101.05 61.5785 101.295 60.7061 101.295 60.7061L100.28 60.9553Z" fill="#090C1B"/>
<path d="M106.433 58.4344C106.468 58.5989 106.466 58.7689 106.428 58.9326C106.39 59.0963 106.316 59.2496 106.212 59.3817C106.108 59.5138 105.977 59.6215 105.827 59.6972C105.677 59.773 105.512 59.8149 105.344 59.8201C105.176 59.8252 105.009 59.7934 104.855 59.727C104.701 59.6606 104.563 59.5611 104.451 59.4356C104.339 59.3101 104.256 59.1616 104.208 59.0006C104.16 58.8396 104.148 58.6699 104.172 58.5037C104.154 58.3475 104.169 58.1892 104.215 58.039C104.261 57.8887 104.338 57.7496 104.441 57.6306C104.544 57.5116 104.67 57.4153 104.812 57.3477C104.954 57.28 105.108 57.2426 105.265 57.2378C105.422 57.233 105.579 57.2609 105.725 57.3197C105.87 57.3785 106.002 57.467 106.112 57.5794C106.222 57.6919 106.307 57.826 106.362 57.9732C106.418 58.1204 106.442 58.2774 106.433 58.4344Z" fill="#090C1B"/>
<path d="M108.053 58.1011C108.638 57.8537 108.875 57.0956 108.585 56.4076C108.294 55.7197 107.584 55.3625 107 55.6098C106.415 55.8571 106.177 56.6153 106.468 57.3032C106.759 57.9912 107.469 58.3484 108.053 58.1011Z" fill="white"/>
<path opacity="0.1" d="M99.1108 58.7348C98.1879 56.8561 99.0092 54.682 100.089 54.2942C100.77 54.0656 101.504 54.0447 102.198 54.2342C102.198 54.2342 104.69 50.6983 106.351 51.6585C106.863 51.9493 106.175 53.2002 106.125 53.551C106.074 53.9019 109.816 51.4415 110.988 53.1633C111.325 53.6664 110.102 55.0697 109.115 55.0974C109.115 55.0974 104.343 55.1897 101.672 58.2409C100.818 59.2334 99.1108 58.7348 99.1108 58.7348Z" fill="black"/>
<path d="M110.768 56.265L112.346 54.04L108.309 55.0786C108.309 55.0786 110.007 55.0371 110.768 56.265Z" fill="#090C1B"/>
<path d="M110.729 55.8537L110.78 55.7614L111.329 54.6813C111.506 54.3484 111.705 54.0277 111.924 53.7211L112.473 54.5243C111.13 54.8751 109.783 55.2167 108.422 55.4983L108.297 54.6074C108.568 54.6178 108.836 54.6612 109.095 54.7367C109.35 54.8078 109.596 54.9069 109.829 55.0321C110.062 55.1524 110.276 55.3081 110.461 55.4937C110.553 55.5882 110.635 55.6919 110.706 55.803L110.729 55.8537ZM110.941 56.5138L110.757 56.3984C110.686 56.3531 110.618 56.3038 110.554 56.2507C110.521 56.2184 110.484 56.1861 110.457 56.1538L110.392 56.103C110.312 56.0317 110.223 55.9698 110.129 55.9184C109.947 55.812 109.754 55.7269 109.552 55.6645C109.349 55.6029 109.14 55.5596 108.929 55.5352C108.727 55.5174 108.523 55.5174 108.32 55.5352C108.217 55.529 108.119 55.4884 108.042 55.42C107.965 55.3515 107.913 55.2592 107.894 55.1577C107.876 55.0562 107.892 54.9514 107.94 54.86C107.987 54.7686 108.065 54.6959 108.159 54.6536H108.196C109.525 54.2428 110.867 53.8919 112.215 53.555C112.281 53.5377 112.35 53.5336 112.417 53.5431C112.485 53.5525 112.55 53.5753 112.609 53.6101C112.668 53.6448 112.719 53.6909 112.76 53.7456C112.801 53.8003 112.83 53.8626 112.847 53.9289C112.865 54.0012 112.867 54.0765 112.854 54.1497C112.84 54.223 112.811 54.2925 112.768 54.3535C112.464 54.7828 112.127 55.2167 111.781 55.6183C111.5 55.9322 111.213 56.2369 110.941 56.5323V56.5138Z" fill="#090C1B"/>
<path d="M100.229 61.5963C100.27 60.3861 100.643 59.2107 101.308 58.1989C101.946 57.1919 102.806 56.3453 103.823 55.7249C104.84 55.1045 105.987 54.7269 107.173 54.6215C108.348 54.5239 109.531 54.6524 110.657 55C110.751 55.0251 110.835 55.0793 110.896 55.1547C110.957 55.2301 110.993 55.323 110.999 55.4201C111.023 56.2773 110.944 57.1345 110.763 57.9727C110.585 58.814 110.274 59.6213 109.84 60.3638C109.397 61.1099 108.769 61.7297 108.018 62.1641C107.271 62.5714 106.44 62.799 105.591 62.8288C105.55 62.8325 105.51 62.8199 105.479 62.794C105.448 62.768 105.428 62.7307 105.424 62.6903C105.421 62.6499 105.433 62.6097 105.459 62.5785C105.485 62.5474 105.522 62.5278 105.563 62.5241C106.347 62.445 107.102 62.1843 107.769 61.7625C108.412 61.3323 108.932 60.7421 109.277 60.0499C109.624 59.3522 109.853 58.602 109.956 57.8296C110.066 57.0653 110.087 56.2906 110.016 55.5216L110.362 55.9417C109.355 55.6295 108.298 55.5135 107.247 55.6001C106.207 55.6901 105.201 56.0199 104.309 56.5637C103.417 57.1075 102.664 57.8504 102.107 58.7344C101.541 59.5937 101.222 60.5915 101.184 61.6194C101.184 61.7479 101.133 61.8712 101.042 61.9621C100.951 62.053 100.828 62.1041 100.699 62.1041C100.571 62.1041 100.448 62.053 100.357 61.9621C100.266 61.8712 100.215 61.7479 100.215 61.6194L100.229 61.5963Z" fill="#090C1B"/>
<path d="M97.6723 58.1252C97.9143 58.4514 98.2511 58.6948 98.6367 58.8222C99.0468 58.94 99.4817 58.94 99.8918 58.8222C100.803 58.5436 101.607 57.9947 102.199 57.2482C102.232 57.2066 102.272 57.1722 102.319 57.1468C102.365 57.1214 102.416 57.1057 102.469 57.1005C102.521 57.0953 102.574 57.1009 102.625 57.1167C102.675 57.1326 102.722 57.1584 102.762 57.1928C102.841 57.2572 102.893 57.3493 102.907 57.4505C102.92 57.5517 102.895 57.6543 102.836 57.7375C102.179 58.6808 101.248 59.3994 100.169 59.7962C99.5777 60.0122 98.9375 60.0554 98.3229 59.9208C97.6961 59.7622 97.1327 59.416 96.7079 58.9284C96.6002 58.806 96.5456 58.6458 96.5559 58.483C96.5663 58.3203 96.6409 58.1683 96.7633 58.0606C96.8857 57.9528 97.0458 57.8982 97.2085 57.9085C97.3712 57.9189 97.5231 57.9935 97.6308 58.116L97.6723 58.1252Z" fill="#090C1B"/>
<path d="M61.471 316.351C61.471 316.351 52.2423 336.172 30.2134 332.557C23.3888 331.431 19.5635 325.86 21.0862 322.758L61.471 316.351Z" fill="url(#paint6_linear)"/>
<path d="M68.8734 284.869C68.8734 284.869 70.2577 300.494 63.6546 312.8C57.0514 325.107 42.5254 334.634 27.9995 329.621C13.4735 324.608 24.4233 304.695 26.1537 300.896C27.8841 297.097 30.7312 287.089 31.1557 280.857L68.8734 284.869Z" fill="url(#paint7_linear)"/>
<path opacity="0.2" d="M65.4046 288.963C66.9365 294.502 65.6122 305.35 62.0407 315.501C58.4323 325.744 72.1923 307.543 72.1923 307.543L71.2694 284.693L65.4046 288.963Z" fill="black"/>
<path d="M29.2539 282.358C29.2539 287.482 35.774 291.641 47.2268 292.606C60.8115 293.746 70.8708 287.482 70.8708 282.358C70.8708 277.235 61.5544 273.08 50.06 273.08C38.5657 273.08 29.2539 277.235 29.2539 282.358Z" fill="url(#paint8_linear)"/>
<path opacity="0.2" d="M64.1689 283.752C66.9883 284.407 67.399 288.146 63.9336 289.919C63.9336 289.919 72.8024 287.274 73.2084 286.687C73.6145 286.101 70.6844 277.917 70.6844 277.917L64.1689 283.752Z" fill="black"/>
<path opacity="0.2" d="M33.3892 280.451C32.8539 279.265 31.0036 279.066 29.9653 279.939L29.5039 278.134L32.3602 276.629L33.3892 280.451Z" fill="black"/>
<path d="M30.7148 275.609C30.7148 280.733 37.2442 284.809 48.7108 285.857C53.9652 286.401 59.2735 285.68 64.192 283.752C69.2678 281.656 72.3548 278.444 72.3548 275.609C72.3548 270.485 63.0384 266.331 51.544 266.331C40.0497 266.331 30.7148 270.499 30.7148 275.609Z" fill="url(#paint9_linear)"/>
<path opacity="0.2" d="M63.418 278.988C66.0066 279.639 66.3665 282.708 64.1701 283.751L75.4984 279.763L68.6922 266.492L63.418 278.988Z" fill="black"/>
<path opacity="0.2" d="M31.2383 273.536C31.9581 272.65 34.2422 272.151 35.6035 273.873L35.8849 269.229L31.5751 270.559L31.2383 273.536Z" fill="black"/>
<path d="M86.5406 225.807C84.0073 241.141 72.2361 252.224 67.6218 276.689C60.9679 281.854 42.5151 284.107 35.492 276.195C33.1018 268.348 33.8909 211.903 40.5678 200.917C64.1472 221.772 86.5406 225.807 86.5406 225.807Z" fill="url(#paint10_linear)"/>
<path opacity="0.05" d="M52.1608 208.603C46.8082 218.297 42.3599 235.187 41.0864 247.096C39.2729 264.056 40.851 281.195 40.851 281.195C40.851 285.7 35.7752 286.873 33.8464 285.423C27.8801 280.987 32.2729 210.159 32.2729 210.159L37.8102 198.342L52.1608 208.603Z" fill="#00CAFE"/>
<path d="M28.0839 309.186C32.3014 308.84 39.2137 311.194 42.6929 315.796C43.4081 316.719 39.6105 315.519 37.3403 315.644C35.07 315.768 27.7609 317.121 25.5367 314.55C25.0059 313.984 24.6916 313.25 24.6494 312.475C24.6072 311.701 24.8397 310.936 25.306 310.317C26.0489 309.398 27.6317 309.223 28.0839 309.186Z" fill="url(#paint11_linear)"/>
<path d="M121.508 316.351C121.508 316.351 130.737 336.172 152.765 332.557C159.59 331.431 163.42 325.86 161.893 322.758L121.508 316.351Z" fill="url(#paint12_linear)"/>
<path d="M114.109 284.869C114.109 284.869 112.725 300.494 119.328 312.8C125.931 325.107 140.471 334.634 154.983 329.621C169.495 324.608 158.559 304.695 156.829 300.896C155.098 297.097 152.251 287.089 151.831 280.857L114.109 284.869Z" fill="url(#paint13_linear)"/>
<path opacity="0.2" d="M117.576 288.963C116.044 294.502 117.368 305.35 120.945 315.501C124.548 325.744 110.793 307.543 110.793 307.543L111.716 284.693L117.576 288.963Z" fill="black"/>
<path d="M153.73 282.358C153.73 287.482 147.205 291.641 135.734 292.606C122.149 293.746 112.09 287.482 112.09 282.358C112.09 277.235 121.406 273.08 132.901 273.08C144.395 273.08 153.73 277.235 153.73 282.358Z" fill="url(#paint14_linear)"/>
<path opacity="0.2" d="M118.813 283.752C115.994 284.407 115.583 288.146 119.049 289.919C119.049 289.919 110.184 287.274 109.774 286.687C109.363 286.101 112.298 277.917 112.298 277.917L118.813 283.752Z" fill="black"/>
<path opacity="0.2" d="M150.039 280.391C151.7 279.574 154.192 281.001 153.486 284.001L154.921 278.891L151.087 276.583L150.039 280.391Z" fill="black"/>
<path d="M152.265 275.609C152.265 280.733 145.736 284.809 134.292 285.857C128.261 286.406 122.9 285.441 118.816 283.752C113.74 281.656 110.648 278.444 110.648 275.609C110.648 270.485 119.965 266.331 131.459 266.331C142.953 266.331 152.265 270.499 152.265 275.609Z" fill="url(#paint15_linear)"/>
<path opacity="0.2" d="M119.584 278.988C116.996 279.639 116.64 282.708 118.837 283.751L107.504 279.763L114.31 266.492L119.584 278.988Z" fill="black"/>
<path opacity="0.2" d="M151.886 277.658C152.597 274.561 148.352 272.918 146.977 274.81L147.083 269.229L155.102 272.876L151.886 277.658Z" fill="black"/>
<path d="M94.3906 225.673C96.9239 241.007 111.062 255.054 115.377 276.689C122.031 281.854 140.483 284.107 147.511 276.195C149.897 268.348 149.108 211.903 142.435 200.917C118.833 221.772 94.3906 225.673 94.3906 225.673Z" fill="url(#paint16_linear)"/>
<path opacity="0.05" d="M130.82 208.603C136.178 218.297 140.621 235.187 141.895 247.096C143.708 264.056 142.135 281.195 142.135 281.195C142.135 285.7 147.187 286.873 149.135 285.423C155.101 280.987 150.708 210.159 150.708 210.159L145.171 198.342L130.82 208.603Z" fill="#00CAFE"/>
<path d="M142.321 315.275C141.901 316.327 144.896 315.699 146.719 315.828C148.541 315.958 154.309 316.613 156.095 314.024C157.221 312.394 157.046 310.372 156.28 309.791C152.81 307.173 144.545 309.703 142.321 315.275Z" fill="url(#paint17_linear)"/>
<path d="M167.865 185.429C170.26 182.988 167.226 176.123 161.087 170.096C154.948 164.07 148.03 161.164 145.634 163.606C143.239 166.048 146.273 172.913 152.412 178.939C158.551 184.966 165.47 187.871 167.865 185.429Z" fill="#00B7EB"/>
<path d="M167.864 185.444C170.264 183.002 167.227 176.133 161.09 170.11C154.953 164.086 148.032 161.173 145.637 163.619" stroke="#D3FFFF" stroke-width="1.33" stroke-miterlimit="10"/>
<path d="M130.66 147.828C147.179 153.727 151.332 162.539 143.839 166.149C144.111 179.461 162.831 186.921 162.831 186.921C169.231 184.65 185.114 172.464 178.382 155.994C171.649 139.524 144.019 124.448 130.254 120.736L130.66 147.828Z" fill="url(#paint18_linear)"/>
<path d="M145.615 156.968C143.437 152.601 137.771 148.082 133.157 147.011L132.594 153.072L145.615 156.968Z" fill="black"/>
<path opacity="0.05" d="M177.643 147.182C178.94 155.135 174.413 158.657 169.84 159.345C165.267 160.033 159.365 155.214 157.146 149.55C154.926 143.886 146.667 131.93 133.285 129.239V115.89C133.285 115.89 169.688 134.478 177.643 147.182Z" fill="#00CAFE"/>
<path opacity="0.8" d="M137.808 125.528C137.808 125.528 146.649 126.779 159.089 134.94L161.027 133.666L135.344 120.653L137.808 125.528Z" fill="#00CAFE"/>
<path opacity="0.1" d="M146.907 159.419C148.818 161.676 148.356 166.768 144.955 170.036L142.777 164.718L146.907 159.419Z" fill="#00CAFE"/>
<path d="M131.378 119.458C131.378 119.458 138.148 117.28 138.872 128.418C139.597 139.557 134.678 150.04 132.015 152.703L128.785 143.263L131.378 119.458Z" fill="url(#paint19_linear)"/>
<path d="M133.829 135.457C135.384 137.655 138.079 137.789 138.564 135.993C139.145 133.833 139.168 141.961 139.168 141.961L133.266 154.499L129.215 148.498L133.829 135.448" fill="url(#paint20_linear)"/>
<path d="M132.408 147.902C132.408 147.902 136.395 128.663 131.195 119.283C125.994 109.903 120.914 117.284 120.914 117.284L132.408 147.902Z" fill="url(#paint21_linear)"/>
<path d="M135.779 140.826L131.414 149.098L129.074 135.384C130.694 137.586 133.624 136.949 133.832 135.476L135.779 140.826Z" fill="url(#paint22_linear)"/>
<path d="M28.5712 178.962C34.71 172.936 37.7447 166.071 35.3493 163.629C32.9539 161.187 26.0355 164.093 19.8966 170.119C13.7578 176.146 10.7231 183.011 13.1185 185.453C15.5139 187.895 22.4323 184.989 28.5712 178.962Z" fill="#00B7EB"/>
<path d="M13.1243 185.444C10.7294 183.002 13.761 176.133 19.8981 170.11C26.0352 164.086 32.9568 161.173 35.3562 163.619" stroke="#D3FFFF" stroke-width="1.33" stroke-miterlimit="10"/>
<path d="M50.3693 147.828C33.8499 153.728 29.697 162.539 37.1907 166.149C36.9231 179.462 18.1981 186.921 18.1981 186.921C11.7749 184.641 -4.08004 172.464 2.62461 155.985C9.32927 139.506 36.9877 124.439 50.7569 120.728L50.3693 147.828Z" fill="url(#paint23_linear)"/>
<path d="M35.3789 156.968C37.5569 152.602 43.2233 148.083 47.8146 147.012L48.3775 153.073L35.3789 156.968Z" fill="black"/>
<path opacity="0.05" d="M2.31308 149.172C0.997994 157.125 5.52467 160.638 10.116 161.335C14.7072 162.032 20.5905 157.204 22.81 151.54C25.0295 145.876 33.2985 133.921 46.6801 131.216V117.88C46.6801 117.88 10.2682 136.469 2.31308 149.172Z" fill="#00CAFE"/>
<path opacity="0.8" d="M42.4776 125.608C42.4776 125.608 25.7783 131.193 11.9583 143.125L10.8555 133.741L45.8323 120.729L42.4776 125.608Z" fill="#00CAFE"/>
<path opacity="0.1" d="M34.0881 159.42C32.1778 161.677 32.6392 166.769 36.04 170.037L38.218 164.719L34.0881 159.42Z" fill="#00CAFE"/>
<path d="M43.447 194.903C40.4615 195.304 38.0436 198.776 39.5756 203.05C41.1075 207.325 58.2637 232.099 96.1152 232.343C133.967 232.588 144.963 202.57 145.816 199.302C146.67 196.034 144.949 191.695 138.923 192.752C134.198 193.583 136.154 193.892 136.154 193.892L43.447 194.903Z" fill="url(#paint24_linear)"/>
<path d="M44.1225 188.611C44.1225 188.611 42.955 196.181 43.4718 199.26C43.9887 202.339 64.3149 227.662 95.7709 227.662C127.227 227.662 140.456 200.428 141.425 197.824C142.394 195.221 138.504 186.995 138.504 186.995L44.1225 188.611Z" fill="url(#paint25_linear)"/>
<path d="M92.1858 206.848C118.878 206.442 140.375 196.831 140.201 185.381C140.027 173.93 118.248 164.977 91.5563 165.382C64.8645 165.788 43.3675 175.399 43.5413 186.849C43.7151 198.299 65.494 207.253 92.1858 206.848Z" fill="url(#paint26_linear)"/>
<path d="M49.6126 119.458C49.6126 119.458 42.8433 117.28 42.1189 128.418C41.3944 139.557 46.3133 150.021 48.985 152.703L52.2151 143.263L49.6126 119.458Z" fill="url(#paint27_linear)"/>
<path d="M47.2318 136.93C46.5443 138.591 43.5404 139.118 42.6775 137.53L42.4883 142.972L47.7625 154.512L51.3848 149.005L47.2318 136.944" fill="url(#paint28_linear)"/>
<path d="M48.5835 147.903C48.5835 147.903 44.6013 128.663 49.7971 119.283C54.9928 109.904 60.0594 117.289 60.0594 117.289L48.5835 147.903Z" fill="url(#paint29_linear)"/>
<path d="M45.5195 141.929L49.4463 149.517L50.946 136.911C49.9216 138.181 47.716 138.037 47.2545 136.911L45.5195 141.929Z" fill="url(#paint30_linear)"/>
<path d="M44.1517 179.734C44.9961 168.947 51.0086 120.714 59.6005 118.415H121.756C126.024 119.984 138.607 167.308 139.577 175.538C140.546 183.769 119.126 198.406 89.903 197.806C60.1681 197.197 43.3026 190.642 44.1517 179.734Z" fill="url(#paint31_linear)"/>
<path opacity="0.3" d="M53.9152 176.679C57.1453 179.448 58.4973 182.564 58.3127 185.052C58.3127 185.052 60.0062 189.844 58.0682 193.527C56.1163 193.472 54.1367 195.249 53.5461 196.546C53.4954 196.688 53.4954 196.843 53.5461 196.985C53.7654 197.716 53.7654 198.496 53.5461 199.228L52.9647 198.91C52.2495 200.825 50.5191 203.493 46.3662 203.715L45.9509 203.203C44.6542 202.122 40.8751 203.203 40.9812 205.686C40.3629 204.694 39.5692 203.378 39.3201 202.247C38.9928 201.499 38.5367 200.815 37.9727 200.225L40.1599 172.474L53.9152 176.679Z" fill="black"/>
<path opacity="0.35" d="M124.418 178.515C121.188 181.285 119.836 184.401 120.025 186.889C120.025 186.889 117.616 189.972 118.442 193.291C120.431 192.59 124.21 195.71 124.75 200.917C124.75 200.917 126.3 200.262 126.549 200.142C127.126 203.156 131.524 207.103 135.677 207.329L136.092 206.816C137.126 205.533 141.043 206.627 141.274 208.884C142.756 206.54 144.026 204.068 145.071 201.499L138.182 174.306L124.418 178.515Z" fill="black"/>
<path d="M92.9885 129.226H88.8125V172.473H92.9885V129.226Z" fill="url(#paint32_linear)"/>
<path opacity="0.2" d="M88.2365 132.212C89.0301 132.425 92.3894 132.522 93.603 132.175L93.6537 130.791L88.1719 130.717L88.2365 132.212Z" fill="black"/>
<path d="M121.26 121.129C121.26 121.129 113.282 130.574 90.6481 130.574C68.0147 130.574 60.1196 121.129 60.1196 121.129C60.1196 121.129 58.5368 115.969 60.4149 112.779C60.4149 112.779 74.4241 118.24 90.6481 118.249C106.872 118.258 121.26 111.828 121.26 111.828C121.26 111.828 122.469 117.557 121.26 121.129Z" fill="url(#paint33_linear)"/>
<path opacity="0.1" d="M66.4054 112.632C61.7911 117.321 66.7561 126.734 66.7561 126.734L55.4141 120.733L57.1444 111.833L66.4054 112.632Z" fill="black"/>
<path opacity="0.1" d="M119.436 112.169C119.436 112.169 121.116 119.601 117.738 125.094L126.865 120.598L123.552 108.698L119.436 112.169Z" fill="black"/>
<path d="M59.4492 120.802C59.4492 120.802 69.91 130.731 89.8486 130.454C110.475 130.163 118.301 123.858 121.928 120.802" stroke="url(#paint34_linear)" stroke-width="4.06" stroke-linecap="round" stroke-linejoin="round"/>
<path d="M65.7364 155.283C72.2808 155.283 77.586 150.385 77.586 144.343C77.586 138.301 72.2808 133.403 65.7364 133.403C59.192 133.403 53.8867 138.301 53.8867 144.343C53.8867 150.385 59.192 155.283 65.7364 155.283Z" fill="url(#paint35_linear)"/>
<path d="M78.9523 136.079L52.5938 151.303L55.4339 156.224L81.7925 141L78.9523 136.079Z" fill="url(#paint36_linear)"/>
<path d="M65.7353 152.532C70.6308 152.532 74.5994 148.866 74.5994 144.343C74.5994 139.821 70.6308 136.154 65.7353 136.154C60.8397 136.154 56.8711 139.821 56.8711 144.343C56.8711 148.866 60.8397 152.532 65.7353 152.532Z" fill="#1058AB" stroke="#090C1B" stroke-width="1.33" stroke-miterlimit="10"/>
<path d="M61.8256 138.536C61.8544 138.523 61.8862 138.517 61.9179 138.519C61.9496 138.521 61.9801 138.532 62.0066 138.55C62.0331 138.567 62.0545 138.591 62.0689 138.62C62.0833 138.648 62.09 138.68 62.0886 138.712C62.0871 138.744 62.077 138.776 62.0593 138.803C62.0415 138.831 62.0168 138.853 61.9876 138.868C61.9584 138.883 61.9259 138.889 61.8932 138.888C61.8606 138.886 61.8291 138.875 61.8018 138.857C61.7746 138.839 61.7527 138.814 61.7384 138.784C61.724 138.755 61.7177 138.722 61.7202 138.69C61.7226 138.657 61.7336 138.626 61.7521 138.599C61.7707 138.572 61.796 138.55 61.8256 138.536ZM67.3397 139.21C67.4348 139.164 67.5389 139.141 67.6443 139.141C67.7734 139.141 67.8999 139.177 68.0087 139.247C68.1175 139.316 68.2041 139.416 68.258 139.533C68.3125 139.689 68.3329 139.854 68.318 140.018C68.622 139.934 68.93 139.864 69.2409 139.81C69.4531 139.787 69.6608 139.75 69.8684 139.746C70.2234 139.719 70.5799 139.772 70.9113 139.902C71.029 139.953 71.135 140.028 71.2224 140.121C71.3098 140.215 71.3767 140.326 71.4188 140.447C71.4846 140.686 71.4733 140.94 71.3865 141.172C71.2823 141.469 71.1345 141.749 70.9482 142.003C70.5687 142.522 70.1322 142.998 69.6469 143.42C69.2464 143.777 68.8275 144.113 68.3918 144.426C68.3546 144.446 68.3216 144.472 68.2949 144.505V146.513C68.2988 146.694 68.2911 146.876 68.2718 147.057C68.1877 147.679 67.8997 148.256 67.453 148.697C67.0064 149.138 66.4261 149.419 65.8032 149.495C65.1044 149.581 64.3984 149.404 63.8232 148.998C63.2481 148.591 62.8451 147.985 62.6931 147.297H62.587C62.163 147.418 61.729 147.5 61.2903 147.542C60.9265 147.588 60.5573 147.566 60.2013 147.477C59.9632 147.415 59.7534 147.273 59.6061 147.076C59.4745 146.867 59.4283 146.616 59.4769 146.374C59.5391 146.064 59.6614 145.769 59.8368 145.506C60.104 145.098 60.4133 144.719 60.7597 144.375C61.3175 143.823 61.9193 143.316 62.5593 142.861C62.587 142.838 62.6331 142.82 62.6285 142.778V141.726C62.6308 141.633 62.6525 141.541 62.6922 141.457C62.732 141.373 62.7888 141.298 62.8592 141.237C62.9874 141.126 63.1516 141.067 63.3206 141.07C63.4277 141.075 63.5323 141.104 63.6254 141.157C63.7185 141.21 63.7976 141.285 63.8559 141.375C63.9322 141.501 63.9692 141.648 63.962 141.795C63.962 142.824 63.962 143.854 63.962 144.888C63.962 145.059 63.962 145.234 63.962 145.405C64.8979 144.965 65.8069 144.47 66.6845 143.923C66.763 143.872 66.846 143.826 66.9198 143.771C66.9198 142.441 66.9198 141.112 66.9198 139.782C66.9223 139.659 66.9584 139.538 67.0243 139.433C67.0901 139.328 67.1832 139.243 67.2936 139.187L67.3397 139.21ZM68.9179 141.107C68.6982 141.164 68.4824 141.235 68.2718 141.32C68.2718 141.823 68.2718 142.331 68.2718 142.838L68.378 142.764C68.6779 142.534 68.9686 142.303 69.2455 142.04C69.4731 141.838 69.6761 141.61 69.85 141.361C69.9099 141.278 69.9523 141.184 69.9745 141.084C69.9745 141.043 69.9469 141.015 69.9099 141.001C69.8184 140.976 69.7232 140.966 69.6285 140.973C69.3875 140.993 69.1493 141.037 68.9179 141.107ZM61.904 144.999C61.6103 145.244 61.3413 145.518 61.1011 145.816C61.0098 145.924 60.9436 146.052 60.9073 146.19C60.9073 146.24 60.9396 146.273 60.9812 146.286C61.1198 146.314 61.2625 146.314 61.4011 146.286C61.6403 146.251 61.8763 146.197 62.1071 146.125C62.2746 146.079 62.4394 146.023 62.6008 145.959C62.6008 145.894 62.6008 145.825 62.6008 145.756C62.6008 145.317 62.6008 144.879 62.6008 144.44C62.3562 144.611 62.1394 144.8 61.904 144.989V144.999ZM63.9667 146.836C63.9925 147.066 64.0718 147.286 64.1982 147.48C64.3246 147.674 64.4947 147.836 64.6948 147.952C64.8948 148.068 65.1193 148.136 65.3503 148.15C65.5812 148.163 65.8122 148.123 66.0247 148.031C66.2842 147.92 66.5064 147.736 66.665 147.502C66.8236 147.268 66.912 146.994 66.9198 146.711C66.9198 146.31 66.9198 145.903 66.9198 145.497C66.9263 145.453 66.9263 145.408 66.9198 145.363C65.9777 145.932 64.9917 146.424 63.9713 146.836H63.9667ZM64.2158 140.041C64.2389 140.004 64.285 139.962 64.3266 139.995C64.3367 140.002 64.3443 140.013 64.3486 140.025C64.3529 140.036 64.3536 140.049 64.3507 140.062C64.3477 140.074 64.3413 140.085 64.332 140.094C64.3228 140.102 64.3113 140.108 64.2989 140.11C64.2481 140.11 64.2251 140.078 64.2158 140.041ZM65.314 142.081C65.5393 142.051 65.7677 142.106 65.9554 142.234C66.1075 142.343 66.2211 142.497 66.28 142.675C66.3389 142.853 66.3399 143.045 66.283 143.223C66.2262 143.401 66.1143 143.557 65.9634 143.668C65.8125 143.779 65.6304 143.839 65.4432 143.84C65.3275 143.841 65.2128 143.818 65.1056 143.775C64.9985 143.731 64.901 143.666 64.8187 143.585C64.7364 143.504 64.671 143.407 64.6261 143.3C64.5813 143.193 64.5579 143.079 64.5573 142.963C64.5575 142.762 64.6258 142.566 64.7511 142.409C64.8927 142.235 65.0928 142.118 65.314 142.081ZM58.0049 143.434C58.0308 143.425 58.0583 143.423 58.0852 143.426C58.1122 143.43 58.138 143.44 58.1607 143.455C58.1833 143.47 58.2023 143.49 58.216 143.514C58.2298 143.537 58.2381 143.564 58.2402 143.591C58.2428 143.616 58.2401 143.642 58.2322 143.666C58.2244 143.69 58.2116 143.713 58.1947 143.732C58.1778 143.751 58.1571 143.766 58.134 143.777C58.1109 143.788 58.0858 143.793 58.0603 143.794C58.0112 143.793 57.9644 143.773 57.9293 143.739C57.8942 143.704 57.8734 143.658 57.8711 143.609C57.8735 143.57 57.8876 143.532 57.9114 143.501C57.9352 143.47 57.9678 143.446 58.0049 143.434ZM72.4248 144.357C72.4522 144.343 72.4826 144.337 72.5132 144.339C72.5437 144.34 72.5733 144.35 72.5993 144.366C72.6252 144.382 72.6466 144.404 72.6615 144.431C72.6763 144.458 72.6841 144.488 72.6841 144.519C72.6841 144.549 72.6763 144.579 72.6615 144.606C72.6466 144.633 72.6252 144.655 72.5993 144.671C72.5733 144.688 72.5437 144.697 72.5132 144.698C72.4826 144.7 72.4522 144.694 72.4248 144.68C72.3946 144.665 72.3692 144.642 72.3514 144.614C72.3336 144.585 72.3242 144.552 72.3242 144.519C72.3242 144.485 72.3336 144.452 72.3514 144.423C72.3692 144.395 72.3946 144.372 72.4248 144.357ZM69.85 145.142C69.85 145.105 69.9053 145.114 69.9376 145.114C69.9699 145.114 69.9792 145.229 69.9146 145.234C69.9027 145.237 69.8901 145.237 69.8786 145.232C69.867 145.228 69.8571 145.22 69.85 145.21C69.843 145.2 69.8392 145.188 69.8392 145.176C69.8392 145.164 69.8429 145.152 69.85 145.142ZM69.6746 149.665C69.7056 149.657 69.7382 149.657 69.7692 149.665C69.8002 149.674 69.8285 149.69 69.8514 149.712C69.8742 149.735 69.8908 149.763 69.8994 149.794C69.9081 149.825 69.9085 149.858 69.9008 149.889C69.893 149.92 69.8772 149.948 69.8551 149.972C69.8329 149.995 69.805 150.012 69.7743 150.021C69.7435 150.03 69.7109 150.031 69.6797 150.024C69.6485 150.016 69.6197 150.001 69.5962 149.979C69.5719 149.957 69.5542 149.928 69.5448 149.897C69.5354 149.865 69.5346 149.831 69.5426 149.799C69.5507 149.767 69.5671 149.738 69.5903 149.714C69.6136 149.691 69.6427 149.674 69.6746 149.665Z" fill="white"/>
<path d="M13.5664 185.804C20.8386 189.46 40.1405 169.934 35.42 163.698C39.8379 166.715 44.5539 169.271 49.4938 171.324C57.6243 174.689 59.9176 182.804 57.7304 185.707C58.5933 189.022 56.503 194.635 50.8412 195.401C51.0949 198.462 46.2268 202.57 40.4681 202.325C34.7094 202.08 29.3152 198.775 31.7008 195.493C32.3837 194.57 33.5881 194.302 34.9309 194.801C34.9309 194.801 34.5986 192.89 30.5749 191.57C26.5512 190.25 15.1399 187.152 13.5664 185.804Z" fill="url(#paint37_linear)"/>
<path opacity="0.1" d="M20.1403 185.07C25.8759 189.372 36.3367 189.894 35.5246 196.61C35.409 195.968 35.1338 195.365 34.7242 194.856C34.3145 194.348 33.7837 193.951 33.1805 193.702C31.0394 192.733 10.9531 187.277 10.9531 187.277L20.1403 185.07Z" fill="black"/>
<path opacity="0.2" d="M35.4838 196.643C34.8701 196.758 34.0718 198.835 35.0916 200.008C36.1113 201.18 37.7956 201.97 40.0381 202.316L32.0369 203.239L29.3098 197.021C29.3098 197.021 28.5992 194.002 32.0784 193.702C35.5576 193.402 35.4838 196.643 35.4838 196.643Z" fill="black"/>
<path d="M27.7578 174.338C27.7578 174.338 35.7868 178.243 43.0913 179.877C50.322 181.507 53.8381 185.92 54.4103 187.605C54.9825 189.289 55.3332 193.19 52.5277 194.99L60.409 194.224L62.5916 176.166L35.1085 159.641L27.7578 174.338Z" fill="url(#paint38_linear)"/>
<path d="M36.0631 167.201C36.0631 167.201 38.3703 168.928 45.7532 171.277C53.4038 173.719 56.9569 177.708 56.9569 177.708L54.4697 172.311L35.8047 162.29L36.0631 167.201Z" fill="#D3FFFF"/>
<path d="M34.6797 194.645C35.2112 195.344 35.5141 196.19 35.5472 197.068" stroke="#090C1B" stroke-width="1.33" stroke-miterlimit="10" stroke-linecap="round"/>
<path d="M35.5759 163.407C36.1412 164.015 36.4688 164.807 36.4987 165.637C36.5495 166.422 36.4731 167.211 36.2726 167.972C35.8803 169.447 35.2905 170.861 34.5192 172.178C32.9795 174.791 31.0919 177.182 28.9081 179.286C26.7599 181.421 24.334 183.256 21.6959 184.742C20.3646 185.498 18.9363 186.068 17.4507 186.437C16.6871 186.622 15.8994 186.687 15.1158 186.63C14.2877 186.581 13.5049 186.235 12.9102 185.656L13.3439 185.232C13.8529 185.685 14.5083 185.939 15.1896 185.947C15.8977 185.977 16.6061 185.896 17.2892 185.707C18.6941 185.316 20.042 184.743 21.2991 184.004C23.8369 182.519 26.1752 180.716 28.2575 178.64C30.375 176.581 32.2232 174.263 33.7578 171.739C34.5225 170.5 35.1198 169.165 35.5343 167.769C35.7349 167.089 35.8328 166.383 35.825 165.674C35.8311 164.997 35.5918 164.341 35.1513 163.827L35.5759 163.407Z" fill="#D3FFFF"/>
<path d="M167.428 185.804C160.146 189.46 140.853 169.934 145.579 163.698C141.159 166.715 136.441 169.27 131.5 171.324C123.374 174.689 121.076 182.795 123.277 185.707C122.415 189.022 124.505 194.635 130.162 195.401C129.908 198.462 134.776 202.57 140.54 202.325C146.303 202.08 151.688 198.775 149.284 195.493C148.596 194.57 147.392 194.302 146.054 194.801C146.054 194.801 146.386 192.89 150.414 191.57C154.443 190.25 165.854 187.152 167.428 185.804Z" fill="url(#paint39_linear)"/>
<path opacity="0.2" d="M145.511 196.643C146.125 196.758 146.923 198.835 145.904 200.008C144.884 201.18 143.2 201.97 140.957 202.316L148.958 203.239L151.69 197.021C151.69 197.021 152.401 194.002 148.921 193.702C145.442 193.402 145.511 196.643 145.511 196.643Z" fill="black"/>
<path d="M151.938 171.717C151.938 171.717 144.241 176.43 136.941 178.073C129.641 179.716 126.674 181.687 125.406 183.326C123.878 185.315 123.163 189.327 124.713 192.221L120.593 194.243L118.41 176.185L145.889 159.65L151.938 171.717Z" fill="url(#paint40_linear)"/>
<path d="M144.966 166.436C144.966 166.436 143.821 167.927 136.438 170.281C128.788 172.718 127.727 173.512 127.727 173.512V171.292L146.387 161.271L144.966 166.436Z" fill="#D3FFFF"/>
<path opacity="0.1" d="M170.039 187.296L157.322 183.021C153.974 185.629 150.394 187.922 146.626 189.872C139.303 193.564 136.862 200.53 141.375 202.289L144.965 205.875L153.515 197.839L151.208 192.623C157.502 190.703 170.039 187.296 170.039 187.296Z" fill="black"/>
<path d="M146.348 194.645C145.816 195.344 145.514 196.19 145.48 197.068" stroke="#090C1B" stroke-width="1.33" stroke-miterlimit="10" stroke-linecap="round"/>
<path d="M145.853 163.832C145.415 164.347 145.176 165.002 145.18 165.678C145.172 166.387 145.27 167.094 145.47 167.774C145.887 169.169 146.484 170.503 147.247 171.744C148.779 174.265 150.624 176.582 152.738 178.64C154.829 180.72 157.179 182.522 159.729 184.004C160.986 184.743 162.334 185.316 163.739 185.707C164.423 185.896 165.133 185.977 165.843 185.947C166.524 185.94 167.18 185.685 167.688 185.232L168.127 185.656C167.53 186.235 166.746 186.581 165.917 186.63C165.133 186.687 164.345 186.621 163.582 186.436C162.098 186.068 160.671 185.498 159.341 184.742C154.067 181.717 149.652 177.396 146.513 172.187C145.736 170.866 145.14 169.447 144.741 167.968C144.541 167.206 144.464 166.418 144.515 165.632C144.547 164.802 144.875 164.012 145.438 163.402L145.853 163.832Z" fill="#D3FFFF"/>
<path d="M89.8694 118.683C125.558 118.683 154.489 92.2524 154.489 59.6486C154.489 27.0448 125.558 0.614258 89.8694 0.614258C54.1811 0.614258 25.25 27.0448 25.25 59.6486C25.25 92.2524 54.1811 118.683 89.8694 118.683Z" stroke="white" stroke-width="2.65" stroke-miterlimit="10"/>
<path d="M83.0013 8.41988C82.5399 6.62424 76.9288 6.19495 70.6256 7.88904C64.3224 9.58312 59.6988 12.7589 60.1787 14.5546C60.6586 16.3502 65.6052 14.3653 71.9084 12.6666C78.2116 10.9679 83.4858 10.2109 83.0013 8.41988Z" fill="url(#paint41_linear)"/>
<path opacity="0.8" d="M95.8928 7.22878C95.8928 8.12429 94.3793 8.61359 92.5105 8.61359C90.6417 8.61359 89.1328 8.15199 89.1328 7.22878C89.1328 6.30558 90.6463 5.44238 92.5105 5.44238C94.3747 5.44238 95.8928 6.33328 95.8928 7.22878Z" fill="white"/>
<defs>
<radialGradient id="paint0_radial" cx="0" cy="0" r="1" gradientUnits="userSpaceOnUse" gradientTransform="translate(89.8694 59.3558) scale(62.0261 61.4281)">
<stop offset="0.61" stop-color="#ECF1FC" stop-opacity="0"/>
<stop offset="0.7" stop-color="#ECF1FC" stop-opacity="0.01"/>
<stop offset="0.76" stop-color="#ECF1FC" stop-opacity="0.05"/>
<stop offset="0.81" stop-color="#ECF1FC" stop-opacity="0.1"/>
<stop offset="0.86" stop-color="#ECF1FC" stop-opacity="0.19"/>
<stop offset="0.9" stop-color="#ECF1FC" stop-opacity="0.3"/>
<stop offset="0.94" stop-color="#ECF1FC" stop-opacity="0.43"/>
<stop offset="0.98" stop-color="#ECF1FC" stop-opacity="0.58"/>
<stop offset="1" stop-color="#ECF1FC" stop-opacity="0.7"/>
</radialGradient>
<linearGradient id="paint1_linear" x1="84.666" y1="13.4511" x2="95.7758" y2="133.334" gradientUnits="userSpaceOnUse">
<stop offset="0.14" stop-color="white"/>
<stop offset="0.33" stop-color="#FBFDFE"/>
<stop offset="0.54" stop-color="#EEF6F9"/>
<stop offset="0.75" stop-color="#D8EBF2"/>
<stop offset="0.97" stop-color="#BADBE9"/>
<stop offset="1" stop-color="#B5D8E7"/>
</linearGradient>
<linearGradient id="paint2_linear" x1="126.911" y1="83.2811" x2="124.737" y2="111.096" gradientUnits="userSpaceOnUse">
<stop offset="0.29" stop-opacity="0.1"/>
<stop offset="1" stop-color="#00C0FA" stop-opacity="0.2"/>
</linearGradient>
<linearGradient id="paint3_linear" x1="73.9339" y1="62.2571" x2="73.7117" y2="57.3224" gradientUnits="userSpaceOnUse">
<stop offset="0.25" stop-color="#9FD0DC"/>
<stop offset="1" stop-color="#0037A2"/>
</linearGradient>
<linearGradient id="paint4_linear" x1="2521.79" y1="5754.05" x2="2961.73" y2="6953.46" gradientUnits="userSpaceOnUse">
<stop offset="0.29" stop-opacity="0.1"/>
<stop offset="1" stop-color="#00C0FA" stop-opacity="0.2"/>
</linearGradient>
<linearGradient id="paint5_linear" x1="-3369.69" y1="796.058" x2="-3370.77" y2="729.232" gradientUnits="userSpaceOnUse">
<stop offset="0.25" stop-color="#9FD0DC"/>
<stop offset="1" stop-color="#0037A2"/>
</linearGradient>
<linearGradient id="paint6_linear" x1="20.754" y1="324.673" x2="61.471" y2="324.673" gradientUnits="userSpaceOnUse">
<stop stop-color="#00CAFE"/>
<stop offset="0.81" stop-color="#0063B8"/>
</linearGradient>
<linearGradient id="paint7_linear" x1="20.575" y1="305.922" x2="68.998" y2="305.922" gradientUnits="userSpaceOnUse">
<stop stop-color="#C3FBFF"/>
<stop offset="0.13" stop-color="#CEFEFF"/>
<stop offset="0.27" stop-color="#D3FFFF"/>
<stop offset="0.46" stop-color="#D0FEFF"/>
<stop offset="0.62" stop-color="#C5FCFF"/>
<stop offset="0.78" stop-color="#B3F7FF"/>
<stop offset="0.92" stop-color="#9AF1FE"/>
<stop offset="1" stop-color="#8AEDFE"/>
</linearGradient>
<linearGradient id="paint8_linear" x1="29.2539" y1="282.908" x2="70.8708" y2="282.908" gradientUnits="userSpaceOnUse">
<stop offset="0.23" stop-color="#00CAFE"/>
<stop offset="0.73" stop-color="#1058AB"/>
</linearGradient>
<linearGradient id="paint9_linear" x1="2712.74" y1="12053.7" x2="6468.25" y2="12053.7" gradientUnits="userSpaceOnUse">
<stop stop-color="#C3FBFF"/>
<stop offset="0.13" stop-color="#CEFEFF"/>
<stop offset="0.27" stop-color="#D3FFFF"/>
<stop offset="0.46" stop-color="#D0FEFF"/>
<stop offset="0.62" stop-color="#C5FCFF"/>
<stop offset="0.78" stop-color="#B3F7FF"/>
<stop offset="0.92" stop-color="#9AF1FE"/>
<stop offset="1" stop-color="#8AEDFE"/>
</linearGradient>
<linearGradient id="paint10_linear" x1="3800.96" y1="42228.5" x2="9726.25" y2="42228.5" gradientUnits="userSpaceOnUse">
<stop offset="0.25" stop-color="#090C1B"/>
<stop offset="0.54" stop-color="#070915"/>
<stop offset="0.94" stop-color="#010103"/>
<stop offset="1"/>
</linearGradient>
<linearGradient id="paint11_linear" x1="27.2164" y1="309.989" x2="39.3411" y2="318.478" gradientUnits="userSpaceOnUse">
<stop offset="0.02" stop-color="white" stop-opacity="0.8"/>
<stop offset="0.89" stop-color="white" stop-opacity="0.2"/>
</linearGradient>
<linearGradient id="paint12_linear" x1="-14401.8" y1="12025.3" x2="-17994.8" y2="12025.3" gradientUnits="userSpaceOnUse">
<stop stop-color="#00CAFE"/>
<stop offset="0.81" stop-color="#0063B8"/>
</linearGradient>
<linearGradient id="paint13_linear" x1="-17137.7" y1="33502.3" x2="-22218.6" y2="33502.3" gradientUnits="userSpaceOnUse">
<stop stop-color="#C3FBFF"/>
<stop offset="0.13" stop-color="#CEFEFF"/>
<stop offset="0.27" stop-color="#D3FFFF"/>
<stop offset="0.46" stop-color="#D0FEFF"/>
<stop offset="0.62" stop-color="#C5FCFF"/>
<stop offset="0.78" stop-color="#B3F7FF"/>
<stop offset="0.92" stop-color="#9AF1FE"/>
<stop offset="1" stop-color="#8AEDFE"/>
</linearGradient>
<linearGradient id="paint14_linear" x1="13894.9" y1="12323.4" x2="10139" y2="12323.4" gradientUnits="userSpaceOnUse">
<stop offset="0.23" stop-color="#00CAFE"/>
<stop offset="0.73" stop-color="#1058AB"/>
</linearGradient>
<linearGradient id="paint15_linear" x1="-15611.7" y1="12040.7" x2="-19365.1" y2="12040.7" gradientUnits="userSpaceOnUse">
<stop stop-color="#C3FBFF"/>
<stop offset="0.13" stop-color="#CEFEFF"/>
<stop offset="0.27" stop-color="#D3FFFF"/>
<stop offset="0.46" stop-color="#D0FEFF"/>
<stop offset="0.62" stop-color="#C5FCFF"/>
<stop offset="0.78" stop-color="#B3F7FF"/>
<stop offset="0.92" stop-color="#9AF1FE"/>
<stop offset="1" stop-color="#8AEDFE"/>
</linearGradient>
<linearGradient id="paint16_linear" x1="-20853.6" y1="42228.5" x2="-27254.1" y2="42228.5" gradientUnits="userSpaceOnUse">
<stop offset="0.25" stop-color="#090C1B"/>
<stop offset="0.54" stop-color="#070915"/>
<stop offset="0.94" stop-color="#010103"/>
<stop offset="1"/>
</linearGradient>
<linearGradient id="paint17_linear" x1="-5287.72" y1="5170.05" x2="-5448.54" y2="5397.36" gradientUnits="userSpaceOnUse">
<stop offset="0.02" stop-color="white" stop-opacity="0.8"/>
<stop offset="0.89" stop-color="white" stop-opacity="0.2"/>
</linearGradient>
<linearGradient id="paint18_linear" x1="-13780" y1="16942.9" x2="-18317.2" y2="27434.6" gradientUnits="userSpaceOnUse">
<stop offset="0.25" stop-color="#090C1B"/>
<stop offset="0.54" stop-color="#070915"/>
<stop offset="0.94" stop-color="#010103"/>
<stop offset="1"/>
</linearGradient>
<linearGradient id="paint19_linear" x1="135.467" y1="119.509" x2="132.553" y2="152.749" gradientUnits="userSpaceOnUse">
<stop offset="0.16" stop-color="#00CAFE"/>
<stop offset="0.26" stop-color="#03B4EE"/>
<stop offset="0.58" stop-color="#0C72BE"/>
<stop offset="0.73" stop-color="#1058AB"/>
</linearGradient>
<linearGradient id="paint20_linear" x1="136.879" y1="136.796" x2="132.193" y2="151.497" gradientUnits="userSpaceOnUse">
<stop offset="0.35" stop-opacity="0.15"/>
<stop offset="0.43" stop-opacity="0.19"/>
<stop offset="1" stop-opacity="0.3"/>
</linearGradient>
<linearGradient id="paint21_linear" x1="125.275" y1="114.445" x2="134.117" y2="147.444" gradientUnits="userSpaceOnUse">
<stop offset="0.01" stop-color="#90EEFF"/>
<stop offset="0.13" stop-color="#D3FFFF"/>
<stop offset="0.86" stop-color="#1058AB"/>
</linearGradient>
<linearGradient id="paint22_linear" x1="2460.21" y1="4176" x2="2515.58" y2="4460.68" gradientUnits="userSpaceOnUse">
<stop offset="0.35" stop-opacity="0.15"/>
<stop offset="0.43" stop-opacity="0.19"/>
<stop offset="1" stop-opacity="0.3"/>
</linearGradient>
<linearGradient id="paint23_linear" x1="17.2429" y1="117.326" x2="42.7908" y2="195.876" gradientUnits="userSpaceOnUse">
<stop offset="0.25" stop-color="#090C1B"/>
<stop offset="0.54" stop-color="#070915"/>
<stop offset="0.94" stop-color="#010103"/>
<stop offset="1"/>
</linearGradient>
<linearGradient id="paint24_linear" x1="49.8333" y1="212.467" x2="138.567" y2="212.467" gradientUnits="userSpaceOnUse">
<stop stop-color="#007CD6"/>
<stop offset="0.3" stop-color="#00CAFE"/>
<stop offset="0.97" stop-color="#007CD6"/>
</linearGradient>
<linearGradient id="paint25_linear" x1="43.3426" y1="207.329" x2="141.578" y2="207.329" gradientUnits="userSpaceOnUse">
<stop stop-color="#060812"/>
<stop offset="0.13" stop-color="#070A16"/>
<stop offset="0.43" stop-color="#090C1B"/>
<stop offset="0.74" stop-color="#080B18"/>
<stop offset="0.95" stop-color="#05060F"/>
<stop offset="1" stop-color="#04050C"/>
</linearGradient>
<linearGradient id="paint26_linear" x1="43.5336" y1="186.121" x2="140.19" y2="186.121" gradientUnits="userSpaceOnUse">
<stop offset="0.09" stop-color="#A1F3FF"/>
<stop offset="0.14" stop-color="#AFF6FF"/>
<stop offset="0.22" stop-color="#C3FBFF"/>
<stop offset="0.31" stop-color="#CFFEFF"/>
<stop offset="0.4" stop-color="#D3FFFF"/>
<stop offset="0.49" stop-color="#CDFEFF"/>
<stop offset="0.62" stop-color="#BEFAFF"/>
<stop offset="0.76" stop-color="#A3F3FF"/>
<stop offset="0.91" stop-color="#7FEAFE"/>
<stop offset="1" stop-color="#66E4FE"/>
</linearGradient>
<linearGradient id="paint27_linear" x1="1023.38" y1="8770.92" x2="1667.32" y2="11010.5" gradientUnits="userSpaceOnUse">
<stop offset="0.23" stop-color="#00CAFE"/>
<stop offset="0.73" stop-color="#1058AB"/>
</linearGradient>
<linearGradient id="paint28_linear" x1="44.311" y1="137.742" x2="48.7483" y2="151.663" gradientUnits="userSpaceOnUse">
<stop offset="0.3" stop-opacity="0.1"/>
<stop offset="0.38" stop-opacity="0.16"/>
<stop offset="1" stop-opacity="0.3"/>
</linearGradient>
<linearGradient id="paint29_linear" x1="55.7219" y1="114.446" x2="46.8748" y2="147.444" gradientUnits="userSpaceOnUse">
<stop offset="0.04" stop-color="#90EEFF"/>
<stop offset="0.15" stop-color="#D3FFFF"/>
<stop offset="1" stop-color="#1058AB"/>
</linearGradient>
<linearGradient id="paint30_linear" x1="48.039" y1="137.46" x2="48.9025" y2="146.568" gradientUnits="userSpaceOnUse">
<stop offset="0.29" stop-opacity="0.1"/>
<stop offset="1" stop-opacity="0.3"/>
</linearGradient>
<linearGradient id="paint31_linear" x1="44.124" y1="158.122" x2="139.6" y2="158.122" gradientUnits="userSpaceOnUse">
<stop offset="0.01" stop-color="#070914"/>
<stop offset="0.12" stop-color="#080A17"/>
<stop offset="0.43" stop-color="#090C1B"/>
<stop offset="0.81" stop-color="#080A17"/>
<stop offset="0.91" stop-color="#070914"/>
</linearGradient>
<linearGradient id="paint32_linear" x1="90.8982" y1="172.473" x2="90.8982" y2="129.226" gradientUnits="userSpaceOnUse">
<stop stop-color="#1058AB"/>
<stop offset="0.32" stop-color="#00CAFE"/>
<stop offset="0.97" stop-color="#1058AB"/>
</linearGradient>
<linearGradient id="paint33_linear" x1="59.4966" y1="121.203" x2="121.795" y2="121.203" gradientUnits="userSpaceOnUse">
<stop stop-color="#1058AB"/>
<stop offset="0.3" stop-color="#00CAFE"/>
<stop offset="0.97" stop-color="#1058AB"/>
</linearGradient>
<linearGradient id="paint34_linear" x1="58.5125" y1="125.63" x2="122.864" y2="125.63" gradientUnits="userSpaceOnUse">
<stop stop-color="#43DBFE"/>
<stop offset="0.3" stop-color="#D3FFFF"/>
<stop offset="0.99" stop-color="#43DBFE"/>
</linearGradient>
<linearGradient id="paint35_linear" x1="57.4398" y1="132.942" x2="74.3732" y2="156.191" gradientUnits="userSpaceOnUse">
<stop offset="0.08" stop-color="#00CAFE"/>
<stop offset="0.28" stop-color="#D3FFFF"/>
<stop offset="0.99" stop-color="#0081B8"/>
</linearGradient>
<linearGradient id="paint36_linear" x1="54.0275" y1="151.858" x2="78.7928" y2="137.799" gradientUnits="userSpaceOnUse">
<stop offset="0.08" stop-color="white" stop-opacity="0.2"/>
<stop offset="0.44" stop-color="white" stop-opacity="0"/>
<stop offset="0.73" stop-color="white" stop-opacity="0.5"/>
</linearGradient>
<linearGradient id="paint37_linear" x1="32.5499" y1="164.206" x2="39.3562" y2="202.804" gradientUnits="userSpaceOnUse">
<stop offset="0.32" stop-color="#00CAFE"/>
<stop offset="0.4" stop-color="#01C2F8"/>
<stop offset="0.52" stop-color="#04ADE9"/>
<stop offset="0.67" stop-color="#098ACF"/>
<stop offset="0.84" stop-color="#1058AB"/>
</linearGradient>
<linearGradient id="paint38_linear" x1="36.3774" y1="162.29" x2="54.1284" y2="188.499" gradientUnits="userSpaceOnUse">
<stop offset="0.1" stop-color="white" stop-opacity="0.4"/>
<stop offset="0.92" stop-color="white" stop-opacity="0.2"/>
</linearGradient>
<linearGradient id="paint39_linear" x1="14906.2" y1="14160.5" x2="13632.1" y2="17198.5" gradientUnits="userSpaceOnUse">
<stop offset="0.32" stop-color="#00CAFE"/>
<stop offset="0.4" stop-color="#01C2F8"/>
<stop offset="0.52" stop-color="#04ADE9"/>
<stop offset="0.67" stop-color="#098ACF"/>
<stop offset="0.84" stop-color="#1058AB"/>
</linearGradient>
<linearGradient id="paint40_linear" x1="-10687.4" y1="12267.7" x2="-12032.4" y2="14193.2" gradientUnits="userSpaceOnUse">
<stop offset="0.1" stop-color="white" stop-opacity="0.4"/>
<stop offset="0.92" stop-color="white" stop-opacity="0.2"/>
</linearGradient>
<linearGradient id="paint41_linear" x1="4035.06" y1="121.713" x2="3615.24" y2="660.56" gradientUnits="userSpaceOnUse">
<stop offset="0.02" stop-color="white" stop-opacity="0.8"/>
<stop offset="0.89" stop-color="white" stop-opacity="0.2"/>
</linearGradient>
</defs>
</svg>
