<svg width="22" height="22" viewBox="0 0 22 22" fill="none" xmlns="http://www.w3.org/2000/svg">
<g opacity="0.5">
<path d="M19.6117 15.5037C18.2258 14.3321 17.431 12.6197 17.431 10.8056V8.25C17.431 5.02432 15.0349 2.35405 11.931 1.90674V0.916611C11.931 0.409714 11.5203 0 11.0143 0C10.5084 0 10.0977 0.409714 10.0977 0.916611V1.90674C6.99283 2.35405 4.59766 5.02432 4.59766 8.25V10.8056C4.59766 12.6197 3.8029 14.3321 2.4086 15.5109C2.05209 15.8162 1.84766 16.2598 1.84766 16.7291C1.84766 17.6138 2.56721 18.3334 3.45177 18.3334H18.5768C19.4615 18.3334 20.181 17.6138 20.181 16.7291C20.181 16.2598 19.9766 15.8162 19.6117 15.5037Z" fill="#8190B0"/>
<path d="M11.0163 22C12.6765 22 14.0652 20.8165 14.3841 19.25H7.64844C7.96751 20.8165 9.35628 22 11.0163 22Z" fill="#8190B0"/>
</g>
</svg>
