<svg width="16" height="16" viewBox="0 0 16 16" fill="none" xmlns="http://www.w3.org/2000/svg">
<circle cx="8" cy="8" r="8" fill="#F7931A"/>
<path d="M11.9792 7.01999C12.1453 5.96928 11.2982 5.40444 10.1398 5.02764L10.5155 3.60432L9.59782 3.3884L9.23198 4.77421C8.99105 4.71746 8.74333 4.66391 8.49717 4.61086L8.86562 3.21592L7.94868 3L7.57265 4.42283C7.37301 4.37989 7.17703 4.33745 6.98679 4.29278L6.98784 4.28834L5.72257 3.99001L5.4785 4.91536C5.4785 4.91536 6.15922 5.06268 6.14485 5.07181C6.51643 5.15941 6.58385 5.39161 6.57235 5.57569L6.14432 7.19716C6.16993 7.20333 6.20312 7.21221 6.2397 7.22603L6.14302 7.20333L5.54278 9.47477C5.49732 9.58137 5.38208 9.74127 5.12233 9.68057C5.13148 9.69315 4.45547 9.52338 4.45547 9.52338L4 10.5154L5.19419 10.7964C5.41631 10.849 5.63398 10.904 5.848 10.9558L5.46831 12.3957L6.38473 12.6116L6.76102 11.1873C7.0111 11.2514 7.25411 11.3107 7.49191 11.3664L7.11719 12.7841L8.03465 13L8.41434 11.5631C9.97881 11.8427 11.1555 11.7299 11.6502 10.394C12.0492 9.31807 11.6306 8.69747 10.8074 8.29254C11.4069 8.16151 11.8584 7.78914 11.9789 7.01999H11.9792ZM9.88265 9.7958C9.59887 10.8717 7.68084 10.2903 7.05865 10.1442L7.56246 8.23701C8.18438 8.38359 10.1785 8.67378 9.88291 9.7958H9.88265ZM10.1662 7.00444C9.90747 7.9831 8.31086 7.48587 7.79268 7.36397L8.24945 5.63418C8.76763 5.75608 10.4358 5.98359 10.1662 7.00444Z" fill="white"/>
</svg>
