<svg width="227" height="227" viewBox="0 0 227 227" fill="none" xmlns="http://www.w3.org/2000/svg">
<g filter="url(#filter0_d)">
<path d="M72.8547 142.93C60.6421 147.429 48.6425 144.656 36.8542 152.93C22.9056 162.72 18.6516 198.976 27.7524 187.703C36.8533 176.43 73.0212 174.706 88.8566 163.93C106.787 151.728 110.855 127.929 110.855 127.929L104.855 122.43C97.9373 131.356 85.0673 138.431 72.8547 142.93Z" fill="white"/>
<path d="M94.8669 75.6144C86.7432 80.4529 74.1099 95.9589 75.6297 99.1224C77.1496 102.286 81.4881 96.9796 90.6633 97.9183C99.8386 98.857 111.03 103.079 111.03 103.079L127.399 75.2545C127.399 75.2545 103.019 70.7829 94.8669 75.6144Z" fill="#FE5D00"/>
<g style="mix-blend-mode:multiply" opacity="0.5">
<path d="M83.0377 98.5244C86.0975 95.0258 89.6127 91.9535 93.4893 89.3896C99.0188 86.0972 112.081 87.1243 119.871 88.1129L124.729 79.852C119.462 78.9967 100.552 76.2978 93.5893 80.4263C87.6005 84.0322 79.1909 93.3257 75.7674 99.2767C76.7997 101.111 79.0533 99.5535 83.0377 98.5244Z" fill="#FE5D00"/>
</g>
<path opacity="0.7" d="M61.7074 148.071C63.9141 148.021 66.0436 148.019 68.2123 147.762C70.381 147.506 72.4868 146.236 74.6859 145.899C76.6628 145.507 78.6806 145.363 80.6931 145.47C81.2856 145.514 81.8671 145.654 82.4147 145.885L82.659 146.009C83.9072 146.749 84.9218 148.914 83.0415 149.613C79.6881 150.931 76.1623 151.76 72.5726 152.072C68.9105 152.287 65.3522 153.438 61.6219 152.934C60.666 152.802 59.2644 152.607 58.7749 151.633C57.7506 149.554 59.9612 148.122 61.7074 148.071ZM26.5522 168.292C27.0469 166.807 26.8024 166.671 28.0365 164.828C41.418 165.974 56.9868 164.512 69.6068 159.917C87.5043 153.18 99.2848 144.913 107.009 137.315C90.3127 163.338 56.0639 172.74 25.5626 171.26L26.5522 168.292Z" fill="#8190B0"/>
<path style="mix-blend-mode:screen" d="M94.8712 75.6161C88.8538 79.2151 80.3738 88.633 76.9928 94.5336C81.0563 88.8177 87.8132 81.7312 92.8357 78.7407C100.959 73.9023 125.368 78.3808 125.368 78.3808L110.895 102.986L111.048 103.023L127.418 75.1989C127.418 75.1989 103.024 70.7845 94.8712 75.6161Z" fill="url(#paint0_radial)"/>
<path style="mix-blend-mode:screen" d="M87.4134 97.8424C87.9656 97.8139 88.5418 97.8114 89.1348 97.823C89.9724 97.1968 90.7962 96.6278 91.5542 96.1642C96.6573 93.1325 108.149 93.7611 116.014 94.6466L117.892 91.4638C110.027 90.5782 98.6592 89.9796 93.6011 92.9918C91.3837 94.4008 89.311 96.0255 87.4134 97.8424Z" fill="url(#paint1_radial)"/>
<g style="mix-blend-mode:multiply" opacity="0.5">
<path d="M122.865 74.5463C120.57 81.2639 113.834 97.8175 103.784 95.0623C91.2512 91.6282 87.5118 94.0292 82.0965 94.7943C79.673 95.1292 78.512 94.1224 77.9778 92.903C76.1186 95.7571 75.1122 98.0896 75.6019 99.1165C77.1313 102.282 81.4603 96.9737 90.6356 97.9124C99.8108 98.8511 111.002 103.073 111.002 103.073L127.372 75.2485C127.372 75.2485 125.612 74.9254 122.865 74.5463Z" fill="#FE5D00"/>
</g>
<path d="M160.566 132.649C156.491 141.179 142.034 155.074 138.788 153.838C135.541 152.601 140.42 147.818 138.697 138.749C136.975 129.68 131.814 118.914 131.814 118.914L158.131 100.222C158.131 100.222 164.696 124.141 160.566 132.649Z" fill="#FE5D00"/>
<path style="mix-blend-mode:multiply" opacity="0.5" d="M138.752 146.407C141.977 143.076 144.738 139.326 146.962 135.258C149.763 129.46 147.627 116.534 145.971 108.864L153.791 103.316C155.09 108.487 159.401 127.097 155.865 134.394C152.83 140.66 144.246 149.841 138.614 153.766C136.706 152.841 138.077 150.465 138.752 146.407Z" fill="url(#paint2_radial)"/>
<path style="mix-blend-mode:screen" d="M160.564 132.648C157.503 138.98 148.845 148.213 143.214 152.097C148.559 147.559 155.033 140.222 157.583 134.96C161.714 126.452 155.162 102.516 155.162 102.516L131.88 119.051C131.854 119.004 131.832 118.954 131.814 118.904L158.131 100.212C158.131 100.212 164.694 124.141 160.564 132.648Z" fill="url(#paint3_radial)"/>
<path style="mix-blend-mode:screen" d="M140.613 138.333C140.131 139.3 139.594 140.24 139.006 141.147C139.053 141.729 139.071 142.313 139.059 142.896C140.806 140.769 142.326 138.465 143.594 136.022C146.224 130.596 144.495 118.789 142.9 111.033L139.892 113.166C141.484 120.931 143.271 132.834 140.613 138.333Z" fill="url(#paint4_radial)"/>
<path style="mix-blend-mode:multiply" opacity="0.5" d="M159.235 104.667C152.728 107.532 136.823 115.665 140.429 125.381C144.924 137.572 142.845 141.504 142.558 146.969C142.424 149.41 143.531 150.475 144.789 150.91C142.114 153.001 139.865 154.206 138.799 153.808C135.517 152.553 140.432 147.789 138.709 138.72C136.987 129.651 131.826 118.884 131.826 118.884L158.142 100.193C158.142 100.193 158.624 101.965 159.235 104.667Z" fill="url(#paint5_radial)"/>
<path d="M183.837 43.7174L203.219 23.7584L185.296 45.0384C185.213 45.1383 185.111 45.2207 184.995 45.2808C184.88 45.341 184.754 45.3776 184.625 45.3887C184.495 45.3998 184.365 45.385 184.241 45.3453C184.117 45.3056 184.003 45.2417 183.904 45.1574C183.805 45.0736 183.724 44.9711 183.665 44.8558C183.606 44.7404 183.57 44.6145 183.56 44.4853C183.55 44.3562 183.565 44.2262 183.605 44.1031C183.646 43.9799 183.71 43.8659 183.794 43.7677L183.837 43.7174Z" fill="#FE5D00"/>
<path d="M206.374 23.7906C206.252 24.2965 205.983 24.7549 205.601 25.1078C205.218 25.4607 204.74 25.6922 204.226 25.7732C203.712 25.8541 203.185 25.7809 202.713 25.5626C202.241 25.3443 201.843 24.9909 201.572 24.547C201.3 24.1031 201.167 23.5886 201.187 23.0687C201.208 22.5487 201.383 22.0466 201.689 21.6259C201.995 21.2052 202.42 20.8847 202.908 20.705C203.396 20.5253 203.927 20.4945 204.433 20.6164C204.769 20.6962 205.087 20.8418 205.367 21.0448C205.647 21.2478 205.884 21.5042 206.064 21.7993C206.245 22.0944 206.365 22.4222 206.418 22.764C206.472 23.1058 206.457 23.4547 206.374 23.7906Z" fill="#FFDE79"/>
<g style="mix-blend-mode:screen">
<path d="M206.027 21.7577C205.832 22.188 205.525 22.5577 205.138 22.8274C204.751 23.0971 204.297 23.2567 203.826 23.2893C203.355 23.3219 202.884 23.2262 202.464 23.0124C202.043 22.7987 201.688 22.4748 201.436 22.0753C201.358 22.2287 201.299 22.3906 201.259 22.5578C201.156 22.981 201.159 23.4233 201.269 23.8449C201.378 24.2666 201.591 24.6544 201.887 24.9736C202.184 25.2927 202.555 25.5333 202.967 25.6736C203.38 25.814 203.821 25.8497 204.25 25.7775C204.68 25.7054 205.085 25.5278 205.429 25.2605C205.773 24.9932 206.045 24.6447 206.222 24.2462C206.398 23.8477 206.472 23.4117 206.438 22.9773C206.404 22.543 206.263 22.1239 206.027 21.7577Z" fill="#FFDE79"/>
</g>
<path d="M200.161 32.6157C199.831 33.0209 198.308 32.3004 196.771 31.011C195.233 29.7216 194.253 28.3846 194.597 27.9626C194.941 27.5406 196.45 28.2779 197.987 29.5673C199.524 30.8567 200.498 32.2223 200.161 32.6157Z" fill="#FE5D00"/>
<path style="mix-blend-mode:multiply" opacity="0.5" d="M198.8 31.4812C198.967 31.2815 198.482 30.6009 197.717 29.961C196.952 29.3211 196.196 28.9642 196.029 29.1638C195.862 29.3635 196.347 30.0441 197.112 30.6841C197.878 31.324 198.634 31.6809 198.8 31.4812Z" fill="url(#paint6_radial)"/>
<path d="M198.2 36.2203C197.757 36.7599 195.724 35.8056 193.658 34.116C191.591 32.4263 190.299 30.58 190.742 30.0405C191.185 29.501 193.224 30.467 195.284 32.1449C197.343 33.8227 198.69 35.6923 198.2 36.2203Z" fill="#FE5D00"/>
<path style="mix-blend-mode:multiply" opacity="0.5" d="M196.585 34.8528C196.33 35.155 195.206 34.6216 194.065 33.6599C192.923 32.6981 192.186 31.6924 192.441 31.3902C192.695 31.088 193.817 31.6309 194.961 32.5831C196.104 33.5354 196.827 34.5579 196.585 34.8528Z" fill="url(#paint7_radial)"/>
<path d="M110.85 108.863L99.4613 117.024C99.4613 117.024 98.837 126.487 116.724 134.312L125.068 121.226L110.85 108.863Z" fill="#FE5D00"/>
<path style="mix-blend-mode:screen" d="M101.861 117.502L112.234 110.075L110.85 108.863L99.4613 117.024C99.4613 117.024 98.837 126.487 116.724 134.312L117.043 133.824C101.309 126.204 101.861 117.502 101.861 117.502Z" fill="url(#paint8_radial)"/>
<path style="mix-blend-mode:multiply" opacity="0.5" d="M116.727 134.312L125.071 121.226L110.882 108.87L108.818 110.392C109.704 112.939 111.083 115.285 112.876 117.298C114.67 119.31 116.843 120.949 119.271 122.121L114.574 131.804C114.574 131.804 101.904 128.691 99.4193 117.044C99.4644 117.025 98.84 126.488 116.727 134.312Z" fill="url(#paint9_radial)"/>
<path d="M109.563 106.484C109.563 106.484 113.356 117.728 127.115 122.569C127.115 122.569 152.928 112.339 169.697 90.357C186.466 68.3748 186.166 42.6732 186.166 42.6732C186.166 42.6732 151.181 44.9565 133.755 66.3966C115.76 88.4773 109.563 106.484 109.563 106.484Z" fill="#FE5D00"/>
<path style="mix-blend-mode:screen" opacity="0.45" d="M138.583 72.0533C128.375 84.4721 119.857 98.1888 113.252 112.845C115.512 115.689 118.278 118.091 121.41 119.931C126.625 117.441 148.515 106.266 163.221 86.9782C172.955 74.1153 180.66 59.8361 186.067 44.6382C186.108 43.8402 186.118 43.2568 186.122 42.9448C181.979 44.0873 154.661 52.2677 138.583 72.0533Z" fill="url(#paint10_radial)"/>
<path d="M178.465 75.5423C183.178 65.1994 185.782 54.0213 186.127 42.6607C186.127 42.6607 168.081 43.8356 151.446 52.48C156.912 54.3122 168.413 59.891 178.465 75.5423Z" fill="#FE5D00"/>
<path style="mix-blend-mode:multiply" opacity="0.5" d="M152.587 51.8482L151.44 52.4199C156.896 54.2903 168.397 59.8691 178.45 75.5204C178.66 75.0662 178.861 74.6097 179.05 74.1604C169.136 59.1484 157.946 53.7051 152.587 51.8482Z" fill="url(#paint11_radial)"/>
<path style="mix-blend-mode:screen" opacity="0.25" d="M158.014 55.4279C164.401 59.1257 169.993 64.0529 174.464 69.9247C179.086 61.8621 182.971 53.3991 186.072 44.6386C186.102 44.0502 186.115 43.5786 186.124 43.2476L186.14 43.1808C186.156 43.114 186.172 43.0472 186.184 42.9994C176.28 45.8621 166.805 50.0423 158.014 55.4279Z" fill="url(#paint12_radial)"/>
<path d="M117.529 89.8516C114.394 95.1432 111.707 100.687 109.495 106.426C109.495 106.426 113.289 117.671 127.047 122.511C132.623 120.143 137.988 117.308 143.086 114.036C125.162 105.233 119.343 94.8532 117.529 89.8516Z" fill="#FE5D00"/>
<path style="mix-blend-mode:multiply" opacity="0.5" d="M141.779 114.884L143.098 114.061C125.155 105.253 119.336 94.8731 117.512 89.9097C117.264 90.3547 117.015 90.7997 116.783 91.2184C118.685 96.1907 124.504 106.237 141.779 114.884Z" fill="url(#paint13_radial)"/>
<path style="mix-blend-mode:screen" d="M145.674 80.869C145.571 80.8344 145.466 80.809 145.359 80.7931C144.404 80.5631 141.952 80.8102 143.219 82.2971C143.63 82.7698 144.118 82.7562 144.617 82.9067C145.116 83.0572 145.646 83.4575 146.254 83.3619C148.242 82.9926 146.795 81.3714 145.674 80.869Z" fill="url(#paint14_radial)"/>
<path style="mix-blend-mode:multiply" opacity="0.5" d="M138.53 103.324C145.356 104.969 152.33 100.325 154.107 92.9506C155.884 85.5765 151.791 78.265 144.965 76.6201C138.139 74.9751 131.165 79.6195 129.388 86.9937C127.611 94.3678 131.704 101.679 138.53 103.324Z" fill="url(#paint15_radial)"/>
<path style="mix-blend-mode:screen" d="M139.008 101.339C145.834 102.984 152.701 98.784 154.346 91.958C155.991 85.1321 151.791 78.265 144.965 76.6201C138.139 74.9751 131.272 79.1751 129.627 86.0011C127.982 92.8271 132.182 99.6941 139.008 101.339Z" fill="url(#paint16_radial)"/>
<path style="mix-blend-mode:screen" d="M139.239 100.375C145.533 101.892 151.864 98.0194 153.381 91.7258C154.898 85.4322 151.025 79.1007 144.731 77.5841C138.438 76.0674 132.106 79.9399 130.59 86.2334C129.073 92.527 132.946 98.8585 139.239 100.375Z" fill="url(#paint17_radial)"/>
<path d="M139.473 99.4016C145.229 100.789 151.02 97.247 152.407 91.4911C153.794 85.7351 150.252 79.9446 144.496 78.5575C138.74 77.1704 132.95 80.712 131.563 86.468C130.176 92.2239 133.717 98.0145 139.473 99.4016Z" fill="#FE5D00"/>
<g style="mix-blend-mode:screen">
<path d="M151.919 88.4335C151.238 90.6642 149.794 92.5843 147.839 93.8573C145.885 95.1304 143.545 95.6753 141.23 95.3966C138.914 95.1179 136.77 94.0333 135.174 92.3329C133.577 90.6325 132.63 88.4247 132.498 86.0961C132.452 86.2869 132.408 86.4683 132.362 86.6591C131.836 89.1885 132.315 91.8232 133.697 94.0057C135.08 96.1881 137.257 97.747 139.769 98.3522C142.28 98.9575 144.929 98.5616 147.153 97.2484C149.378 95.9353 151.005 93.8079 151.689 91.3166C151.903 90.3715 151.98 89.4006 151.919 88.4335Z" fill="#FE5D00"/>
</g>
<g style="mix-blend-mode:screen">
<path d="M132.166 84.7042C132.833 86.7765 134.115 88.5964 135.842 89.9215C137.57 91.2465 139.66 92.0137 141.834 92.1209C144.008 92.2281 146.164 91.6702 148.013 90.5215C149.862 89.3728 151.318 87.6879 152.185 85.6912C151.518 83.6189 150.236 81.799 148.508 80.4739C146.781 79.1489 144.691 78.3817 142.517 78.2745C140.342 78.1673 138.187 78.7252 136.338 79.8739C134.489 81.0226 133.033 82.7075 132.166 84.7042Z" fill="#FE5D00"/>
</g>
<g style="mix-blend-mode:screen">
<path d="M152.627 87.7277L132.686 83.6493C132.113 84.6516 131.707 85.7409 131.485 86.8741L152.585 90.6259C152.729 89.6661 152.743 88.6913 152.627 87.7277Z" fill="#FE5D00"/>
</g>
<g style="mix-blend-mode:screen">
<path d="M151.136 83.3893C150.826 82.8946 150.481 82.4232 150.102 81.979L137.265 79.3498C136.965 79.4965 136.673 79.6587 136.39 79.8359C135.423 80.4318 134.56 81.1823 133.835 82.0577L152.031 85.2914C151.793 84.6306 151.493 83.9937 151.136 83.3893Z" fill="#FE5D00"/>
</g>
<g style="mix-blend-mode:screen">
<path d="M147.594 98.1073C148.278 97.6846 148.913 97.1873 149.486 96.6244L132.107 93.0624C132.708 94.5649 133.655 95.904 134.872 96.9701L145.911 98.9336C146.494 98.7066 147.058 98.4302 147.594 98.1073Z" fill="#FE5D00"/>
</g>
<g style="mix-blend-mode:screen">
<path d="M143.477 79.7561C141.947 79.4628 140.364 79.6091 138.914 80.1781C137.463 80.7471 136.203 81.7156 135.28 82.9712C132.237 87.2164 137.506 88.1932 140.547 86.8863C143.589 85.5794 145.11 88.6524 148.473 88.5238C151.837 88.3951 151.713 81.6196 143.477 79.7561Z" fill="#FE5D00"/>
</g>
<path style="mix-blend-mode:screen" d="M139.441 80.9344L139.212 80.9601C138.53 81.1088 137.112 82.0495 138.364 82.5532C138.761 82.7093 139.031 82.5523 139.392 82.4777C139.753 82.4032 140.197 82.49 140.55 82.2417C141.702 81.439 140.29 80.8867 139.441 80.9344Z" fill="url(#paint18_radial)"/>
<path style="mix-blend-mode:multiply" opacity="0.5" d="M156.573 80.8728C161.385 82.0325 166.302 78.7595 167.554 73.5623C168.807 68.3651 165.921 63.2117 161.108 62.052C156.296 60.8923 151.379 64.1653 150.127 69.3625C148.874 74.5598 151.76 79.7131 156.573 80.8728Z" fill="url(#paint19_radial)"/>
<path style="mix-blend-mode:screen" d="M163.691 78.4119C167.914 75.8291 169.244 70.3118 166.661 66.0889C164.078 61.8659 158.561 60.5364 154.338 63.1192C150.115 65.7021 148.785 71.2193 151.368 75.4422C153.951 79.6652 159.468 80.9948 163.691 78.4119Z" fill="url(#paint20_radial)"/>
<path style="mix-blend-mode:screen" d="M163.322 77.8168C167.217 75.4348 168.443 70.3467 166.061 66.4521C163.679 62.5576 158.591 61.3314 154.696 63.7134C150.802 66.0954 149.576 71.1835 151.958 75.0781C154.34 78.9726 159.428 80.1988 163.322 77.8168Z" fill="url(#paint21_radial)"/>
<path d="M162.954 77.214C166.516 75.0357 167.637 70.3826 165.459 66.8211C163.281 63.2596 158.627 62.1382 155.066 64.3166C151.504 66.4949 150.383 71.1479 152.561 74.7095C154.74 78.271 159.393 79.3923 162.954 77.214Z" fill="#FE5D00"/>
<g style="mix-blend-mode:screen">
<path d="M166.005 70.3715C165.53 71.9484 164.513 73.307 163.135 74.2085C161.757 75.1101 160.105 75.4967 158.47 75.3004C156.834 75.1042 155.321 74.3376 154.195 73.1355C153.069 71.9334 152.403 70.3729 152.314 68.7283C152.282 68.8619 152.25 68.9955 152.218 69.1291C151.859 70.907 152.203 72.7546 153.178 74.2838C154.154 75.813 155.683 76.9047 157.447 77.3296C159.21 77.7545 161.069 77.4795 162.633 76.5623C164.198 75.6451 165.346 74.1572 165.837 72.4112C165.99 71.7428 166.047 71.056 166.005 70.3715Z" fill="#FE5D00"/>
</g>
<g style="mix-blend-mode:screen">
<path d="M152.086 67.7424C152.556 69.2033 153.46 70.4863 154.678 71.4204C155.895 72.3544 157.369 72.8952 158.901 72.9706C160.434 73.046 161.954 72.6525 163.257 71.8425C164.561 71.0325 165.586 69.8445 166.197 68.4368C165.725 66.9767 164.82 65.6949 163.602 64.7618C162.383 63.8286 160.91 63.2883 159.377 63.2127C157.845 63.1371 156.325 63.5297 155.021 64.3384C153.717 65.1472 152.69 66.3336 152.076 67.7401L152.086 67.7424Z" fill="#FE5D00"/>
</g>
<g style="mix-blend-mode:screen">
<path d="M166.514 69.8781L152.453 67.0046C152.049 67.7103 151.765 68.4779 151.612 69.2762L166.476 71.919C166.583 71.2437 166.595 70.5568 166.514 69.8781Z" fill="#FE5D00"/>
</g>
<g style="mix-blend-mode:screen">
<path d="M165.464 66.8182C165.234 66.467 164.976 66.1347 164.694 65.8247L155.649 63.9681C155.442 64.0699 155.234 64.1812 155.032 64.3043C154.344 64.7301 153.728 65.2635 153.208 65.8842L166.066 68.1751C165.907 67.7053 165.706 67.2511 165.464 66.8182Z" fill="#FE5D00"/>
</g>
<g style="mix-blend-mode:screen">
<path d="M162.962 77.2095C163.443 76.911 163.889 76.5615 164.294 76.1671L152.043 73.6592C152.187 74.0228 152.363 74.3728 152.569 74.7048C152.957 75.3418 153.437 75.9172 153.995 76.4118L161.743 77.7842C162.166 77.6301 162.574 77.4377 162.962 77.2095Z" fill="#FE5D00"/>
</g>
<g style="mix-blend-mode:screen">
<path d="M160.065 64.2621C158.985 64.0531 157.869 64.1546 156.844 64.5548C155.82 64.9551 154.931 65.6377 154.279 66.5234C152.106 69.504 155.856 70.2055 157.998 69.2777C160.14 68.3499 161.211 70.5266 163.587 70.4326C165.962 70.3386 165.879 65.5723 160.065 64.2621Z" fill="#FE5D00"/>
</g>
<path style="mix-blend-mode:screen" d="M157.22 65.083L157.077 65.0485C156.597 65.155 155.589 65.8207 156.473 66.1752C156.768 66.2465 156.949 66.1687 157.213 66.1212C157.476 66.0737 157.784 66.1378 158.03 65.9547C158.833 65.4717 157.823 65.0564 157.22 65.083Z" fill="url(#paint22_radial)"/>
<g style="mix-blend-mode:screen" opacity="0.25">
<path d="M137.181 110.825C129.24 106.064 124.373 101.115 121.347 96.9114C118.325 102.041 115.61 107.345 113.217 112.796C113.434 113.07 113.66 113.347 113.898 113.616L113.985 113.718C114.473 114.29 115.011 114.864 115.588 115.447L115.703 115.556C115.964 115.811 116.228 116.056 116.531 116.311L116.679 116.448C117.337 117.042 118.024 117.602 118.739 118.126L118.936 118.274L119.93 118.968L120.121 119.095C120.52 119.366 120.942 119.629 121.385 119.884C126.856 117.237 132.134 114.21 137.181 110.825Z" fill="#FE5D00"/>
</g>
<g style="mix-blend-mode:multiply" opacity="0.5">
<path style="mix-blend-mode:screen" opacity="0.5" d="M163.992 47.2457C169.184 49.9208 176.126 54.8454 182.783 63.7204C183.123 62.5198 183.437 61.3432 183.72 60.2098C179.377 54.5339 173.995 49.7347 167.861 46.0675C166.604 46.421 165.331 46.8414 163.992 47.2457Z" fill="url(#paint23_radial)"/>
<path style="mix-blend-mode:screen" opacity="0.5" d="M180.614 70.2968C181.03 69.1852 181.416 68.0866 181.772 67.001C174.088 56.3132 165.902 51.0586 160.387 48.5077C159.158 48.9587 157.917 49.4574 156.678 49.987C162.252 52.2088 171.823 57.6254 180.614 70.2968Z" fill="url(#paint24_radial)"/>
</g>
<path style="mix-blend-mode:screen" d="M159.35 48.9041C158.137 49.3692 156.915 49.8725 155.693 50.4162C161.329 52.6327 171.218 58.1967 180.209 71.3807C180.635 70.2817 181.038 69.1973 181.407 68.125C173.483 56.8845 164.981 51.4326 159.35 48.9041Z" fill="url(#paint25_radial)"/>
<path style="mix-blend-mode:screen" d="M166.752 46.3952C165.503 46.7606 164.213 47.1668 162.915 47.6112C168.319 50.3274 175.544 55.421 182.458 64.8629C182.817 63.6669 183.145 62.514 183.428 61.3806C178.928 55.32 173.258 50.2242 166.752 46.3952Z" fill="url(#paint26_radial)"/>
<path style="mix-blend-mode:screen" opacity="0.45" d="M112.547 109.494C112.547 109.494 118.716 91.6021 136.385 69.6147C150.833 51.5668 177.594 47.0795 185.551 46.1189C185.646 44.4656 185.641 43.5251 185.641 43.5251C185.641 43.5251 151.337 45.9121 134.165 67.262C116.503 89.2612 110.329 107.132 110.329 107.132C111.737 110.705 113.931 113.916 116.749 116.525C114.954 114.441 113.532 112.062 112.547 109.494Z" fill="url(#paint27_radial)"/>
<path style="mix-blend-mode:multiply" opacity="0.5" d="M186.119 42.6615C186.119 42.6615 185.648 42.6893 184.811 42.7703C183.548 52.2007 179.008 67.1832 169.051 81.7688C148.58 111.735 129.596 117.138 129.596 117.138C121.443 114.264 113.653 105.984 111.221 102.288C110.041 104.963 109.516 106.472 109.516 106.472C109.516 106.472 113.31 117.717 127.068 122.557C127.068 122.557 152.881 112.327 169.65 90.3453C186.419 68.3631 186.119 42.6615 186.119 42.6615Z" fill="url(#paint28_radial)"/>
<path style="mix-blend-mode:screen" opacity="0.45" d="M141.768 62.159C142.188 62.7245 141.552 63.8942 140.36 64.7782C139.167 65.6623 137.848 65.8997 137.431 65.3246C137.014 64.7496 137.649 63.5798 138.849 62.7076C140.049 61.8355 141.352 61.5839 141.768 62.159Z" fill="url(#paint29_radial)"/>
<path style="mix-blend-mode:screen" opacity="0.45" d="M146.447 58.5963C146.803 59.0862 146.262 60.0766 145.246 60.8114C144.231 61.5463 143.128 61.7652 142.769 61.2849C142.41 60.8046 142.954 59.8047 143.97 59.0698C144.985 58.3349 146.097 58.1183 146.447 58.5963Z" fill="url(#paint30_radial)"/>
<path style="mix-blend-mode:screen" opacity="0.45" d="M175.536 46.4416C175.647 46.9026 174.944 47.4705 173.961 47.6979C172.977 47.9254 172.104 47.7352 172.052 47.238C172 46.7407 172.655 46.2018 173.629 45.9721C174.604 45.7424 175.446 45.9757 175.536 46.4416Z" fill="url(#paint31_radial)"/>
<path style="mix-blend-mode:screen" opacity="0.45" d="M179.407 45.4655C179.503 45.8623 178.9 46.3532 178.071 46.5269C177.241 46.7007 176.497 46.5617 176.41 46.1267C176.323 45.6917 176.927 45.2413 177.747 45.0653C178.566 44.8893 179.311 45.0687 179.407 45.4655Z" fill="url(#paint32_radial)"/>
</g>
<defs>
<filter id="filter0_d" x="0.996094" y="0" width="225.993" height="226.091" filterUnits="userSpaceOnUse" color-interpolation-filters="sRGB">
<feFlood flood-opacity="0" result="BackgroundImageFix"/>
<feColorMatrix in="SourceAlpha" type="matrix" values="0 0 0 0 0 0 0 0 0 0 0 0 0 0 0 0 0 0 127 0"/>
<feOffset/>
<feGaussianBlur stdDeviation="10"/>
<feColorMatrix type="matrix" values="0 0 0 0 0.929412 0 0 0 0 0.443137 0 0 0 0 0.0509804 0 0 0 0.5 0"/>
<feBlend mode="normal" in2="BackgroundImageFix" result="effect1_dropShadow"/>
<feBlend mode="normal" in="SourceGraphic" in2="effect1_dropShadow" result="shape"/>
</filter>
<radialGradient id="paint0_radial" cx="0" cy="0" r="1" gradientUnits="userSpaceOnUse" gradientTransform="translate(108.374 58.8049) rotate(13.5491) scale(51.619)">
<stop offset="0.05" stop-color="#E0A326"/>
<stop offset="0.41" stop-color="#E0A227" stop-opacity="0.99"/>
<stop offset="0.55" stop-color="#DF9E2B" stop-opacity="0.96"/>
<stop offset="0.64" stop-color="#DE9833" stop-opacity="0.91"/>
<stop offset="0.71" stop-color="#DD8F3E" stop-opacity="0.83"/>
<stop offset="0.78" stop-color="#DB844C" stop-opacity="0.73"/>
<stop offset="0.84" stop-color="#D8755D" stop-opacity="0.61"/>
<stop offset="0.89" stop-color="#D56471" stop-opacity="0.47"/>
<stop offset="0.93" stop-color="#D25089" stop-opacity="0.3"/>
<stop offset="0.98" stop-color="#CE3BA3" stop-opacity="0.12"/>
<stop offset="1" stop-color="#CC2DB4" stop-opacity="0"/>
</radialGradient>
<radialGradient id="paint1_radial" cx="0" cy="0" r="1" gradientUnits="userSpaceOnUse" gradientTransform="translate(14899.8 5553.58) rotate(13.5491) scale(714.096 338.611)">
<stop offset="0.05" stop-color="#E0A326"/>
<stop offset="0.41" stop-color="#E0A227" stop-opacity="0.99"/>
<stop offset="0.55" stop-color="#DF9E2B" stop-opacity="0.96"/>
<stop offset="0.64" stop-color="#DE9833" stop-opacity="0.91"/>
<stop offset="0.71" stop-color="#DD8F3E" stop-opacity="0.83"/>
<stop offset="0.78" stop-color="#DB844C" stop-opacity="0.73"/>
<stop offset="0.84" stop-color="#D8755D" stop-opacity="0.61"/>
<stop offset="0.89" stop-color="#D56471" stop-opacity="0.47"/>
<stop offset="0.93" stop-color="#D25089" stop-opacity="0.3"/>
<stop offset="0.98" stop-color="#CE3BA3" stop-opacity="0.12"/>
<stop offset="1" stop-color="#CC2DB4" stop-opacity="0"/>
</radialGradient>
<radialGradient id="paint2_radial" cx="0" cy="0" r="1" gradientUnits="userSpaceOnUse" gradientTransform="translate(8688.74 -2742.57) rotate(-108.396) scale(828.114 2752)">
<stop stop-color="#D1E1EE"/>
<stop offset="0.34" stop-color="#8EE1EE"/>
<stop offset="0.94" stop-color="#732FA4"/>
</radialGradient>
<radialGradient id="paint3_radial" cx="0" cy="0" r="1" gradientUnits="userSpaceOnUse" gradientTransform="translate(9364.88 -2359.09) rotate(-108.396) scale(1653.48 2840.22)">
<stop offset="0.05" stop-color="#E0A326"/>
<stop offset="0.41" stop-color="#E0A227" stop-opacity="0.99"/>
<stop offset="0.55" stop-color="#DF9E2B" stop-opacity="0.96"/>
<stop offset="0.64" stop-color="#DE9833" stop-opacity="0.91"/>
<stop offset="0.71" stop-color="#DD8F3E" stop-opacity="0.83"/>
<stop offset="0.78" stop-color="#DB844C" stop-opacity="0.73"/>
<stop offset="0.84" stop-color="#D8755D" stop-opacity="0.61"/>
<stop offset="0.89" stop-color="#D56471" stop-opacity="0.47"/>
<stop offset="0.93" stop-color="#D25089" stop-opacity="0.3"/>
<stop offset="0.98" stop-color="#CE3BA3" stop-opacity="0.12"/>
<stop offset="1" stop-color="#CC2DB4" stop-opacity="0"/>
</radialGradient>
<radialGradient id="paint4_radial" cx="0" cy="0" r="1" gradientUnits="userSpaceOnUse" gradientTransform="translate(4443.39 5895.25) rotate(13.5491) scale(443.046 1538.36)">
<stop offset="0.05" stop-color="#E0A326"/>
<stop offset="0.41" stop-color="#E0A227" stop-opacity="0.99"/>
<stop offset="0.55" stop-color="#DF9E2B" stop-opacity="0.96"/>
<stop offset="0.64" stop-color="#DE9833" stop-opacity="0.91"/>
<stop offset="0.71" stop-color="#DD8F3E" stop-opacity="0.83"/>
<stop offset="0.78" stop-color="#DB844C" stop-opacity="0.73"/>
<stop offset="0.84" stop-color="#D8755D" stop-opacity="0.61"/>
<stop offset="0.89" stop-color="#D56471" stop-opacity="0.47"/>
<stop offset="0.93" stop-color="#D25089" stop-opacity="0.3"/>
<stop offset="0.98" stop-color="#CE3BA3" stop-opacity="0.12"/>
<stop offset="1" stop-color="#CC2DB4" stop-opacity="0"/>
</radialGradient>
<radialGradient id="paint5_radial" cx="0" cy="0" r="1" gradientUnits="userSpaceOnUse" gradientTransform="translate(9551.61 -2653.37) rotate(-108.396) scale(1251.39 3041.16)">
<stop stop-color="#D1E1EE"/>
<stop offset="0.34" stop-color="#8EE1EE"/>
<stop offset="0.94" stop-color="#732FA4"/>
</radialGradient>
<radialGradient id="paint6_radial" cx="0" cy="0" r="1" gradientUnits="userSpaceOnUse" gradientTransform="translate(725.932 378.151) rotate(13.5486) scale(12.7797 48.9897)">
<stop stop-color="#F20074"/>
<stop offset="0.14" stop-color="#ED0376"/>
<stop offset="0.31" stop-color="#DF0B7D"/>
<stop offset="0.49" stop-color="#C71887"/>
<stop offset="0.67" stop-color="#A62A96"/>
<stop offset="0.87" stop-color="#7B42A9"/>
<stop offset="0.9" stop-color="#7446AC"/>
</radialGradient>
<radialGradient id="paint7_radial" cx="0" cy="0" r="1" gradientUnits="userSpaceOnUse" gradientTransform="translate(3146.26 912.898) rotate(13.5491) scale(74.0319 41.1362)">
<stop stop-color="#F20074"/>
<stop offset="0.14" stop-color="#ED0376"/>
<stop offset="0.31" stop-color="#DF0B7D"/>
<stop offset="0.49" stop-color="#C71887"/>
<stop offset="0.67" stop-color="#A62A96"/>
<stop offset="0.87" stop-color="#7B42A9"/>
<stop offset="0.9" stop-color="#7446AC"/>
</radialGradient>
<radialGradient id="paint8_radial" cx="0" cy="0" r="1" gradientUnits="userSpaceOnUse" gradientTransform="translate(10855.9 6658.56) rotate(13.5491) scale(440.126 489.03)">
<stop offset="0.05" stop-color="#E0A326"/>
<stop offset="0.41" stop-color="#E0A227" stop-opacity="0.99"/>
<stop offset="0.55" stop-color="#DF9E2B" stop-opacity="0.96"/>
<stop offset="0.64" stop-color="#DE9833" stop-opacity="0.91"/>
<stop offset="0.71" stop-color="#DD8F3E" stop-opacity="0.83"/>
<stop offset="0.78" stop-color="#DB844C" stop-opacity="0.73"/>
<stop offset="0.84" stop-color="#D8755D" stop-opacity="0.61"/>
<stop offset="0.89" stop-color="#D56471" stop-opacity="0.47"/>
<stop offset="0.93" stop-color="#D25089" stop-opacity="0.3"/>
<stop offset="0.98" stop-color="#CE3BA3" stop-opacity="0.12"/>
<stop offset="1" stop-color="#CC2DB4" stop-opacity="0"/>
</radialGradient>
<radialGradient id="paint9_radial" cx="0" cy="0" r="1" gradientUnits="userSpaceOnUse" gradientTransform="translate(14347.2 7258.61) rotate(13.5491) scale(1332.16 1200.96)">
<stop stop-color="#D1E1EE"/>
<stop offset="0.34" stop-color="#8EE1EE"/>
<stop offset="0.94" stop-color="#732FA4"/>
</radialGradient>
<radialGradient id="paint10_radial" cx="0" cy="0" r="1" gradientUnits="userSpaceOnUse" gradientTransform="translate(34030.9 12787.4) rotate(13.5491) scale(10279.5 16880.3)">
<stop offset="0.05" stop-color="#E0A326"/>
<stop offset="0.41" stop-color="#E0A227" stop-opacity="0.99"/>
<stop offset="0.55" stop-color="#DF9E2B" stop-opacity="0.96"/>
<stop offset="0.64" stop-color="#DE9833" stop-opacity="0.91"/>
<stop offset="0.71" stop-color="#DD8F3E" stop-opacity="0.83"/>
<stop offset="0.78" stop-color="#DB844C" stop-opacity="0.73"/>
<stop offset="0.84" stop-color="#D8755D" stop-opacity="0.61"/>
<stop offset="0.89" stop-color="#D56471" stop-opacity="0.47"/>
<stop offset="0.93" stop-color="#D25089" stop-opacity="0.3"/>
<stop offset="0.98" stop-color="#CE3BA3" stop-opacity="0.12"/>
<stop offset="1" stop-color="#CC2DB4" stop-opacity="0"/>
</radialGradient>
<radialGradient id="paint11_radial" cx="0" cy="0" r="1" gradientUnits="userSpaceOnUse" gradientTransform="translate(18789.2 6105.26) rotate(13.5491) scale(990.317 525.754)">
<stop stop-color="#D1E1EE"/>
<stop offset="0.34" stop-color="#8EE1EE"/>
<stop offset="0.94" stop-color="#732FA4"/>
</radialGradient>
<radialGradient id="paint12_radial" cx="0" cy="0" r="1" gradientUnits="userSpaceOnUse" gradientTransform="translate(15102.4 5709.65) rotate(13.5491) scale(1529.26 1787.06)">
<stop offset="0.05" stop-color="#E0A326"/>
<stop offset="0.41" stop-color="#E0A227" stop-opacity="0.99"/>
<stop offset="0.55" stop-color="#DF9E2B" stop-opacity="0.96"/>
<stop offset="0.64" stop-color="#DE9833" stop-opacity="0.91"/>
<stop offset="0.71" stop-color="#DD8F3E" stop-opacity="0.83"/>
<stop offset="0.78" stop-color="#DB844C" stop-opacity="0.73"/>
<stop offset="0.84" stop-color="#D8755D" stop-opacity="0.61"/>
<stop offset="0.89" stop-color="#D56471" stop-opacity="0.47"/>
<stop offset="0.93" stop-color="#D25089" stop-opacity="0.3"/>
<stop offset="0.98" stop-color="#CE3BA3" stop-opacity="0.12"/>
<stop offset="1" stop-color="#CC2DB4" stop-opacity="0"/>
</radialGradient>
<radialGradient id="paint13_radial" cx="0" cy="0" r="1" gradientUnits="userSpaceOnUse" gradientTransform="translate(17157.4 6777.93) rotate(13.5491) scale(1013.71 609.32)">
<stop stop-color="#D1E1EE"/>
<stop offset="0.34" stop-color="#8EE1EE"/>
<stop offset="0.94" stop-color="#732FA4"/>
</radialGradient>
<radialGradient id="paint14_radial" cx="0" cy="0" r="1" gradientUnits="userSpaceOnUse" gradientTransform="translate(2594.82 1451.95) rotate(24.9391) scale(27.0023 14.2526)">
<stop offset="0.06" stop-color="#300056"/>
<stop offset="0.96" stop-color="#18002B"/>
</radialGradient>
<radialGradient id="paint15_radial" cx="0" cy="0" r="1" gradientUnits="userSpaceOnUse" gradientTransform="translate(14753.3 6777.37) rotate(13.5491) scale(1403.3 1637.27)">
<stop stop-color="#F20074"/>
<stop offset="0.14" stop-color="#ED0376"/>
<stop offset="0.31" stop-color="#DF0B7D"/>
<stop offset="0.49" stop-color="#C71887"/>
<stop offset="0.67" stop-color="#A62A96"/>
<stop offset="0.87" stop-color="#7B42A9"/>
<stop offset="0.9" stop-color="#7446AC"/>
</radialGradient>
<radialGradient id="paint16_radial" cx="0" cy="0" r="1" gradientUnits="userSpaceOnUse" gradientTransform="translate(14798.7 6589.05) rotate(13.5491) scale(1403.3 1403.3)">
<stop offset="0.05" stop-color="#E0A326"/>
<stop offset="0.41" stop-color="#E0A227" stop-opacity="0.99"/>
<stop offset="0.55" stop-color="#DF9E2B" stop-opacity="0.96"/>
<stop offset="0.64" stop-color="#DE9833" stop-opacity="0.91"/>
<stop offset="0.71" stop-color="#DD8F3E" stop-opacity="0.83"/>
<stop offset="0.78" stop-color="#DB844C" stop-opacity="0.73"/>
<stop offset="0.84" stop-color="#D8755D" stop-opacity="0.61"/>
<stop offset="0.89" stop-color="#D56471" stop-opacity="0.47"/>
<stop offset="0.93" stop-color="#D25089" stop-opacity="0.3"/>
<stop offset="0.98" stop-color="#CE3BA3" stop-opacity="0.12"/>
<stop offset="1" stop-color="#CC2DB4" stop-opacity="0"/>
</radialGradient>
<radialGradient id="paint17_radial" cx="0" cy="0" r="1" gradientUnits="userSpaceOnUse" gradientTransform="translate(13600.4 6108.83) rotate(13.5491) scale(1192.81)">
<stop offset="0.05" stop-color="#E0A326"/>
<stop offset="0.41" stop-color="#E0A227" stop-opacity="0.99"/>
<stop offset="0.55" stop-color="#DF9E2B" stop-opacity="0.96"/>
<stop offset="0.64" stop-color="#DE9833" stop-opacity="0.91"/>
<stop offset="0.71" stop-color="#DD8F3E" stop-opacity="0.83"/>
<stop offset="0.78" stop-color="#DB844C" stop-opacity="0.73"/>
<stop offset="0.84" stop-color="#D8755D" stop-opacity="0.61"/>
<stop offset="0.89" stop-color="#D56471" stop-opacity="0.47"/>
<stop offset="0.93" stop-color="#D25089" stop-opacity="0.3"/>
<stop offset="0.98" stop-color="#CE3BA3" stop-opacity="0.12"/>
<stop offset="1" stop-color="#CC2DB4" stop-opacity="0"/>
</radialGradient>
<radialGradient id="paint18_radial" cx="0" cy="0" r="1" gradientUnits="userSpaceOnUse" gradientTransform="translate(1812.29 337.676) rotate(-2.1908) scale(12.2674 7.987)">
<stop offset="0.06" stop-color="#300056"/>
<stop offset="0.96" stop-color="#18002B"/>
</radialGradient>
<radialGradient id="paint19_radial" cx="0" cy="0" r="1" gradientUnits="userSpaceOnUse" gradientTransform="translate(10615.9 4513.77) rotate(13.5491) scale(697.332 813.335)">
<stop stop-color="#F20074"/>
<stop offset="0.14" stop-color="#ED0376"/>
<stop offset="0.31" stop-color="#DF0B7D"/>
<stop offset="0.49" stop-color="#C71887"/>
<stop offset="0.67" stop-color="#A62A96"/>
<stop offset="0.87" stop-color="#7B42A9"/>
<stop offset="0.9" stop-color="#7446AC"/>
</radialGradient>
<radialGradient id="paint20_radial" cx="0" cy="0" r="1" gradientUnits="userSpaceOnUse" gradientTransform="translate(10643.7 4398.41) rotate(13.5491) scale(697.332)">
<stop offset="0.05" stop-color="#E0A326"/>
<stop offset="0.41" stop-color="#E0A227" stop-opacity="0.99"/>
<stop offset="0.55" stop-color="#DF9E2B" stop-opacity="0.96"/>
<stop offset="0.64" stop-color="#DE9833" stop-opacity="0.91"/>
<stop offset="0.71" stop-color="#DD8F3E" stop-opacity="0.83"/>
<stop offset="0.78" stop-color="#DB844C" stop-opacity="0.73"/>
<stop offset="0.84" stop-color="#D8755D" stop-opacity="0.61"/>
<stop offset="0.89" stop-color="#D56471" stop-opacity="0.47"/>
<stop offset="0.93" stop-color="#D25089" stop-opacity="0.3"/>
<stop offset="0.98" stop-color="#CE3BA3" stop-opacity="0.12"/>
<stop offset="1" stop-color="#CC2DB4" stop-opacity="0"/>
</radialGradient>
<radialGradient id="paint21_radial" cx="0" cy="0" r="1" gradientUnits="userSpaceOnUse" gradientTransform="translate(9801 4075.18) rotate(13.5492) scale(593.01)">
<stop offset="0.05" stop-color="#E0A326"/>
<stop offset="0.41" stop-color="#E0A227" stop-opacity="0.99"/>
<stop offset="0.55" stop-color="#DF9E2B" stop-opacity="0.96"/>
<stop offset="0.64" stop-color="#DE9833" stop-opacity="0.91"/>
<stop offset="0.71" stop-color="#DD8F3E" stop-opacity="0.83"/>
<stop offset="0.78" stop-color="#DB844C" stop-opacity="0.73"/>
<stop offset="0.84" stop-color="#D8755D" stop-opacity="0.61"/>
<stop offset="0.89" stop-color="#D56471" stop-opacity="0.47"/>
<stop offset="0.93" stop-color="#D25089" stop-opacity="0.3"/>
<stop offset="0.98" stop-color="#CE3BA3" stop-opacity="0.12"/>
<stop offset="1" stop-color="#CC2DB4" stop-opacity="0"/>
</radialGradient>
<radialGradient id="paint22_radial" cx="0" cy="0" r="1" gradientUnits="userSpaceOnUse" gradientTransform="translate(1390.56 183.889) rotate(-2.19091) scale(6.15145 3.78811)">
<stop offset="0.06" stop-color="#300056"/>
<stop offset="0.96" stop-color="#18002B"/>
</radialGradient>
<radialGradient id="paint23_radial" cx="0" cy="0" r="1" gradientUnits="userSpaceOnUse" gradientTransform="translate(13457.2 4286.99) rotate(13.5491) scale(1056.17 649.662)">
<stop stop-color="#D1E1EE"/>
<stop offset="0.34" stop-color="#8EE1EE"/>
<stop offset="0.94" stop-color="#732FA4"/>
</radialGradient>
<radialGradient id="paint24_radial" cx="0" cy="0" r="1" gradientUnits="userSpaceOnUse" gradientTransform="translate(17119.1 5411.69) rotate(13.5491) scale(1626.27 942.233)">
<stop stop-color="#D1E1EE"/>
<stop offset="0.34" stop-color="#8EE1EE"/>
<stop offset="0.94" stop-color="#732FA4"/>
</radialGradient>
<radialGradient id="paint25_radial" cx="0" cy="0" r="1" gradientUnits="userSpaceOnUse" gradientTransform="translate(17568.1 5563.71) rotate(13.5491) scale(1722.03 1002.24)">
<stop offset="0.05" stop-color="#E0A326"/>
<stop offset="0.41" stop-color="#E0A227" stop-opacity="0.99"/>
<stop offset="0.55" stop-color="#DF9E2B" stop-opacity="0.96"/>
<stop offset="0.64" stop-color="#DE9833" stop-opacity="0.91"/>
<stop offset="0.71" stop-color="#DD8F3E" stop-opacity="0.83"/>
<stop offset="0.78" stop-color="#DB844C" stop-opacity="0.73"/>
<stop offset="0.84" stop-color="#D8755D" stop-opacity="0.61"/>
<stop offset="0.89" stop-color="#D56471" stop-opacity="0.47"/>
<stop offset="0.93" stop-color="#D25089" stop-opacity="0.3"/>
<stop offset="0.98" stop-color="#CE3BA3" stop-opacity="0.12"/>
<stop offset="1" stop-color="#CC2DB4" stop-opacity="0"/>
</radialGradient>
<radialGradient id="paint26_radial" cx="0" cy="0" r="1" gradientUnits="userSpaceOnUse" gradientTransform="translate(13989.7 4487.85) rotate(13.5491) scale(1368.8 843.323)">
<stop offset="0.05" stop-color="#E0A326"/>
<stop offset="0.41" stop-color="#E0A227" stop-opacity="0.99"/>
<stop offset="0.55" stop-color="#DF9E2B" stop-opacity="0.96"/>
<stop offset="0.64" stop-color="#DE9833" stop-opacity="0.91"/>
<stop offset="0.71" stop-color="#DD8F3E" stop-opacity="0.83"/>
<stop offset="0.78" stop-color="#DB844C" stop-opacity="0.73"/>
<stop offset="0.84" stop-color="#D8755D" stop-opacity="0.61"/>
<stop offset="0.89" stop-color="#D56471" stop-opacity="0.47"/>
<stop offset="0.93" stop-color="#D25089" stop-opacity="0.3"/>
<stop offset="0.98" stop-color="#CE3BA3" stop-opacity="0.12"/>
<stop offset="1" stop-color="#CC2DB4" stop-opacity="0"/>
</radialGradient>
<radialGradient id="paint27_radial" cx="0" cy="0" r="1" gradientUnits="userSpaceOnUse" gradientTransform="translate(36435.4 13366.1) rotate(13.5491) scale(10601 15855.6)">
<stop offset="0.05" stop-color="#E0A326"/>
<stop offset="0.41" stop-color="#E0A227" stop-opacity="0.99"/>
<stop offset="0.55" stop-color="#DF9E2B" stop-opacity="0.96"/>
<stop offset="0.64" stop-color="#DE9833" stop-opacity="0.91"/>
<stop offset="0.71" stop-color="#DD8F3E" stop-opacity="0.83"/>
<stop offset="0.78" stop-color="#DB844C" stop-opacity="0.73"/>
<stop offset="0.84" stop-color="#D8755D" stop-opacity="0.61"/>
<stop offset="0.89" stop-color="#D56471" stop-opacity="0.47"/>
<stop offset="0.93" stop-color="#D25089" stop-opacity="0.3"/>
<stop offset="0.98" stop-color="#CE3BA3" stop-opacity="0.12"/>
<stop offset="1" stop-color="#CC2DB4" stop-opacity="0"/>
</radialGradient>
<radialGradient id="paint28_radial" cx="0" cy="0" r="1" gradientUnits="userSpaceOnUse" gradientTransform="translate(38443.9 13854.6) rotate(13.5491) scale(11750.3 17539.9)">
<stop stop-color="#F20074"/>
<stop offset="0.14" stop-color="#ED0376"/>
<stop offset="0.31" stop-color="#DF0B7D"/>
<stop offset="0.49" stop-color="#C71887"/>
<stop offset="0.67" stop-color="#A62A96"/>
<stop offset="0.87" stop-color="#7B42A9"/>
<stop offset="0.9" stop-color="#7446AC"/>
</radialGradient>
<radialGradient id="paint29_radial" cx="0" cy="0" r="1" gradientUnits="userSpaceOnUse" gradientTransform="translate(2106.44 -64.8799) rotate(-35.9119) scale(191.059 211.912)">
<stop offset="0.05" stop-color="#E0A326"/>
<stop offset="0.41" stop-color="#E0A227" stop-opacity="0.99"/>
<stop offset="0.55" stop-color="#DF9E2B" stop-opacity="0.96"/>
<stop offset="0.64" stop-color="#DE9833" stop-opacity="0.91"/>
<stop offset="0.71" stop-color="#DD8F3E" stop-opacity="0.83"/>
<stop offset="0.78" stop-color="#DB844C" stop-opacity="0.73"/>
<stop offset="0.84" stop-color="#D8755D" stop-opacity="0.61"/>
<stop offset="0.89" stop-color="#D56471" stop-opacity="0.47"/>
<stop offset="0.93" stop-color="#D25089" stop-opacity="0.3"/>
<stop offset="0.98" stop-color="#CE3BA3" stop-opacity="0.12"/>
<stop offset="1" stop-color="#CC2DB4" stop-opacity="0"/>
</radialGradient>
<radialGradient id="paint30_radial" cx="0" cy="0" r="1" gradientUnits="userSpaceOnUse" gradientTransform="translate(1816.81 -94.5167) rotate(-35.9117) scale(162.077 179.318)">
<stop offset="0.05" stop-color="#E0A326"/>
<stop offset="0.41" stop-color="#E0A227" stop-opacity="0.99"/>
<stop offset="0.55" stop-color="#DF9E2B" stop-opacity="0.96"/>
<stop offset="0.64" stop-color="#DE9833" stop-opacity="0.91"/>
<stop offset="0.71" stop-color="#DD8F3E" stop-opacity="0.83"/>
<stop offset="0.78" stop-color="#DB844C" stop-opacity="0.73"/>
<stop offset="0.84" stop-color="#D8755D" stop-opacity="0.61"/>
<stop offset="0.89" stop-color="#D56471" stop-opacity="0.47"/>
<stop offset="0.93" stop-color="#D25089" stop-opacity="0.3"/>
<stop offset="0.98" stop-color="#CE3BA3" stop-opacity="0.12"/>
<stop offset="1" stop-color="#CC2DB4" stop-opacity="0"/>
</radialGradient>
<radialGradient id="paint31_radial" cx="0" cy="0" r="1" gradientUnits="userSpaceOnUse" gradientTransform="translate(2018.69 -8.80064) rotate(-13.1708) scale(106.428 73.7781)">
<stop offset="0.05" stop-color="#E0A326"/>
<stop offset="0.41" stop-color="#E0A227" stop-opacity="0.99"/>
<stop offset="0.55" stop-color="#DF9E2B" stop-opacity="0.96"/>
<stop offset="0.64" stop-color="#DE9833" stop-opacity="0.91"/>
<stop offset="0.71" stop-color="#DD8F3E" stop-opacity="0.83"/>
<stop offset="0.78" stop-color="#DB844C" stop-opacity="0.73"/>
<stop offset="0.84" stop-color="#D8755D" stop-opacity="0.61"/>
<stop offset="0.89" stop-color="#D56471" stop-opacity="0.47"/>
<stop offset="0.93" stop-color="#D25089" stop-opacity="0.3"/>
<stop offset="0.98" stop-color="#CE3BA3" stop-opacity="0.12"/>
<stop offset="1" stop-color="#CC2DB4" stop-opacity="0"/>
</radialGradient>
<radialGradient id="paint32_radial" cx="0" cy="0" r="1" gradientUnits="userSpaceOnUse" gradientTransform="translate(1778.04 -40.4734) rotate(-13.1709) scale(92.175 61.8277)">
<stop offset="0.05" stop-color="#E0A326"/>
<stop offset="0.41" stop-color="#E0A227" stop-opacity="0.99"/>
<stop offset="0.55" stop-color="#DF9E2B" stop-opacity="0.96"/>
<stop offset="0.64" stop-color="#DE9833" stop-opacity="0.91"/>
<stop offset="0.71" stop-color="#DD8F3E" stop-opacity="0.83"/>
<stop offset="0.78" stop-color="#DB844C" stop-opacity="0.73"/>
<stop offset="0.84" stop-color="#D8755D" stop-opacity="0.61"/>
<stop offset="0.89" stop-color="#D56471" stop-opacity="0.47"/>
<stop offset="0.93" stop-color="#D25089" stop-opacity="0.3"/>
<stop offset="0.98" stop-color="#CE3BA3" stop-opacity="0.12"/>
<stop offset="1" stop-color="#CC2DB4" stop-opacity="0"/>
</radialGradient>
</defs>
</svg>
