<svg width="8" height="10" viewBox="0 0 8 10" fill="none" xmlns="http://www.w3.org/2000/svg">
<path d="M7.97915 4.01999C8.14535 2.96928 7.29817 2.40444 6.13978 2.02764L6.51555 0.604318L5.59782 0.388402L5.23198 1.77421C4.99105 1.71746 4.74333 1.66391 4.49717 1.61086L4.86562 0.215916L3.94868 0L3.57265 1.42283C3.37301 1.37989 3.17703 1.33745 2.98679 1.29278L2.98784 1.28834L1.72257 0.990006L1.4785 1.91536C1.4785 1.91536 2.15922 2.06268 2.14485 2.07181C2.51643 2.15941 2.58385 2.39161 2.57235 2.57569L2.14432 4.19716C2.16993 4.20333 2.20312 4.21221 2.2397 4.22603L2.14302 4.20333L1.54278 6.47477C1.49732 6.58137 1.38208 6.74127 1.12233 6.68057C1.13148 6.69315 0.455467 6.52338 0.455467 6.52338L0 7.51536L1.19419 7.79642C1.41631 7.84898 1.63398 7.90401 1.848 7.95583L1.46831 9.39568L2.38473 9.6116L2.76102 8.18729C3.0111 8.25145 3.25411 8.31067 3.49191 8.36644L3.11719 9.78408L4.03465 10L4.41434 8.56311C5.97881 8.84269 7.1555 8.72992 7.65016 7.39395C8.04918 6.31807 7.63056 5.69747 6.80743 5.29254C7.40688 5.16151 7.85843 4.78914 7.97889 4.01999H7.97915ZM5.88265 6.7958C5.59887 7.87168 3.68084 7.29031 3.05865 7.14423L3.56246 5.23701C4.18438 5.38359 6.17845 5.67378 5.88291 6.7958H5.88265ZM6.16617 4.00444C5.90747 4.9831 4.31086 4.48587 3.79268 4.36397L4.24945 2.63418C4.76763 2.75608 6.43585 2.98359 6.16617 4.00444Z" fill="white"/>
</svg>
