<svg width="248" height="190" viewBox="0 0 248 190" fill="none" xmlns="http://www.w3.org/2000/svg">
<g filter="url(#filter0_d)">
<path d="M135.895 60.8668L110.89 27.4626C108.938 24.8512 106.334 22.7989 103.339 21.5114C100.343 20.2239 97.0623 19.7466 93.8243 20.1272L52.7827 24.9305C49.5393 25.3112 46.4531 26.5381 43.8335 28.488C41.2139 30.4379 39.1531 33.0424 37.8578 36.0401L21.5194 73.9184C20.2226 76.927 19.7433 80.2248 20.1301 83.4782C20.5169 86.7315 21.756 89.825 23.7221 92.4457L48.6792 125.672C50.6339 128.273 53.2363 130.317 56.227 131.599C59.2178 132.881 62.4924 133.357 65.7244 132.98L106.896 128.176C110.141 127.795 113.229 126.566 115.849 124.614C118.469 122.661 120.528 120.054 121.821 117.053L138.064 79.3874C139.363 76.3822 139.846 73.0877 139.465 69.836C139.085 66.5844 137.853 63.4906 135.895 60.8668Z" fill="#F7F7F7"/>
</g>
<path d="M49.068 126.578L23.1502 91.7738C19.8839 87.389 19.2595 79.134 21.7778 73.3425L37.5604 36.6583C40.0582 30.8667 44.7312 29.7208 47.9975 34.1056L73.9221 68.9096C77.1885 73.2945 77.806 81.5494 75.2945 87.3478L59.512 124.025C56.9799 129.817 52.3343 130.963 49.068 126.578Z" fill="#F2F2F2"/>
<path d="M107.797 128.08L64.8615 133.103C59.4543 133.735 57.0938 129.569 59.5778 123.799L75.3604 87.2653C77.8444 81.4943 84.2467 76.2861 89.6539 75.6685L132.583 70.6455C137.99 70.0074 140.357 74.1794 137.866 79.9504L122.118 116.477C119.6 122.255 113.204 127.442 107.797 128.08Z" fill="white"/>
<path d="M73.9298 68.9297L48.0052 34.1188C44.7388 29.734 47.1749 25.5825 53.4467 24.8551L93.1159 20.2095C99.3878 19.4753 107.114 22.4328 110.381 26.8176L136.305 61.6285C139.572 66.0065 137.136 70.158 130.864 70.8922L91.1946 75.5378C84.9227 76.272 77.1961 73.3077 73.9298 68.9297Z" fill="#F7F7F7"/>
<path d="M68.7069 37.8388C67.7531 40.0896 63.8281 40.5493 59.9373 38.8613C56.0465 37.1732 53.6792 33.9892 54.633 31.7385C55.5868 29.4878 59.5187 29.028 63.4026 30.7161C67.2865 32.4041 69.6608 35.5881 68.7069 37.8388Z" fill="#121420"/>
<path d="M129.839 64.1894C128.885 66.4401 124.96 66.9342 121.076 65.2118C117.192 63.4895 114.811 60.3398 115.765 58.0891C116.719 55.8384 120.651 55.3786 124.535 57.0666C128.419 58.7547 130.8 61.9387 129.839 64.1894Z" fill="#121420"/>
<path d="M106.955 33.3853C105.994 35.636 102.069 36.0958 98.1852 34.4077C94.3014 32.7197 91.9202 29.5357 92.8809 27.285C93.8416 25.0342 97.7598 24.5402 101.644 26.2557C105.528 27.9712 107.909 31.1345 106.955 33.3853Z" fill="#121420"/>
<path d="M91.5897 68.4295C90.6359 70.6802 86.7109 71.1742 82.8201 69.4588C78.9294 67.7433 76.562 64.5799 77.5158 62.3291C78.4696 60.0784 82.6143 59.7078 86.4982 61.389C90.382 63.0702 92.5436 66.1787 91.5897 68.4295Z" fill="#121420"/>
<path d="M94.1093 103.377C92.7369 106.54 94.4318 108.784 97.8765 108.379C99.7759 108.187 101.588 107.485 103.121 106.347C104.654 105.209 105.851 103.678 106.584 101.915C107.957 98.752 106.262 96.515 102.817 96.913C99.3724 97.311 95.4748 100.241 94.1093 103.377Z" fill="#121420"/>
<path d="M51.1463 84.8833C49.7739 88.0466 46.9948 88.3554 44.9225 85.5695C42.8501 82.7835 42.2737 77.9664 43.6393 74.7961C45.0048 71.6259 47.7565 71.324 49.8631 74.1099C51.9697 76.8959 52.5118 81.713 51.1463 84.8833Z" fill="#121420"/>
<path d="M54.9206 112.936C53.5482 116.099 50.7691 116.408 48.6968 113.622C46.6245 110.836 46.0549 106.019 47.4136 102.849C48.7723 99.6786 51.5651 99.3767 53.6374 102.163C55.7097 104.949 56.293 109.766 54.9206 112.936Z" fill="#121420"/>
<path d="M48.1083 57.0985C46.7359 60.2688 43.991 60.5775 41.8844 57.7847C39.7778 54.9919 39.2357 50.1816 40.6012 47.0182C41.9668 43.8549 44.7527 43.5392 46.8251 46.332C48.8974 49.1249 49.4669 53.9694 48.1083 57.0985Z" fill="#121420"/>
<g style="mix-blend-mode:screen" opacity="0.26">
<path d="M75.3548 68.7177L49.1008 33.4676C46.9736 30.6062 47.2481 27.8545 49.4027 26.0498C46.308 27.7447 45.5875 30.8532 48.0303 34.1195L73.9344 68.9304C77.2007 73.3084 84.9136 76.2728 91.1991 75.5385H91.4119C85.3596 75.7032 78.4221 72.8349 75.3548 68.7177Z" fill="#A6D673"/>
</g>
<g style="mix-blend-mode:screen" opacity="0.26">
<path d="M61.0325 124.237L77.1513 86.8532C79.4428 81.9348 83.4593 78.0282 88.4393 75.874C83.3134 77.0543 77.6454 81.8989 75.3398 87.2512L59.5572 123.784C57.5466 128.458 58.7131 132.074 62.103 132.945C59.866 131.511 59.3101 128.245 61.0325 124.237Z" fill="#F2F1F1"/>
</g>
<g filter="url(#filter1_d)">
<path d="M145.737 141.242L163.333 164.749C164.707 166.586 166.539 168.03 168.647 168.936C170.755 169.842 173.064 170.178 175.343 169.911L204.224 166.53C206.506 166.262 208.678 165.399 210.521 164.027C212.365 162.655 213.815 160.822 214.726 158.713L226.224 132.057C227.136 129.94 227.474 127.62 227.201 125.33C226.929 123.041 226.057 120.864 224.674 119.02L207.111 95.6386C205.736 93.8078 203.904 92.3696 201.8 91.4673C199.695 90.5649 197.391 90.23 195.117 90.4959L166.144 93.876C163.86 94.1443 161.687 95.0089 159.844 96.3829C158 97.7569 156.551 99.5919 155.641 101.704L144.211 128.209C143.297 130.324 142.957 132.642 143.225 134.93C143.493 137.218 144.359 139.395 145.737 141.242Z" fill="#F7F7F7"/>
</g>
<path d="M206.836 95.0026L225.074 119.494C227.373 122.58 227.812 128.389 226.04 132.465L214.934 158.279C213.176 162.355 209.888 163.161 207.589 160.076L189.346 135.584C187.047 132.498 186.613 126.689 188.38 122.609L199.486 96.7989C201.268 92.7234 204.537 91.917 206.836 95.0026Z" fill="#F2F2F2"/>
<path d="M165.517 93.9437L195.731 90.409C199.536 89.9648 201.197 92.8959 199.449 96.9569L188.343 122.665C186.595 126.727 182.09 130.392 178.285 130.826L148.076 134.361C144.27 134.81 142.605 131.874 144.357 127.813L155.44 102.109C157.212 98.0434 161.712 94.3928 165.517 93.9437Z" fill="white"/>
<path d="M189.349 135.567L207.593 160.064C209.891 163.15 208.177 166.071 203.763 166.583L175.848 169.852C171.434 170.369 165.997 168.287 163.699 165.202L145.455 140.705C143.157 137.624 144.871 134.703 149.285 134.186L177.2 130.917C181.614 130.401 187.051 132.487 189.349 135.567Z" fill="#F7F7F7"/>
<path d="M193.018 157.448C193.689 155.864 196.451 155.541 199.189 156.729C201.927 157.917 203.593 160.157 202.922 161.741C202.251 163.325 199.484 163.648 196.751 162.461C194.017 161.273 192.347 159.032 193.018 157.448Z" fill="#121420"/>
<path d="M150.007 138.905C150.678 137.321 153.44 136.974 156.173 138.186C158.906 139.398 160.582 141.614 159.911 143.198C159.239 144.782 156.472 145.105 153.739 143.918C151.006 142.73 149.331 140.489 150.007 138.905Z" fill="#121420"/>
<path d="M166.103 160.582C166.779 158.998 169.541 158.675 172.274 159.863C175.007 161.051 176.682 163.291 176.006 164.875C175.33 166.459 172.573 166.807 169.84 165.599C167.107 164.392 165.431 162.166 166.103 160.582Z" fill="#121420"/>
<path d="M176.912 135.92C177.584 134.337 180.346 133.989 183.084 135.196C185.822 136.403 187.487 138.629 186.816 140.213C186.145 141.797 183.228 142.058 180.495 140.875C177.762 139.692 176.241 137.504 176.912 135.92Z" fill="#121420"/>
<path d="M175.145 111.326C176.111 109.1 174.918 107.521 172.494 107.806C171.158 107.941 169.882 108.436 168.804 109.236C167.725 110.037 166.883 111.115 166.366 112.355C165.401 114.581 166.593 116.155 169.017 115.875C171.441 115.595 174.184 113.533 175.145 111.326Z" fill="#121420"/>
<path d="M205.376 124.34C206.341 122.114 208.297 121.897 209.755 123.857C211.214 125.818 211.619 129.208 210.658 131.439C209.697 133.67 207.761 133.882 206.279 131.922C204.796 129.961 204.415 126.571 205.376 124.34Z" fill="#121420"/>
<path d="M202.722 104.601C203.687 102.375 205.643 102.158 207.101 104.118C208.56 106.079 208.96 109.469 208.004 111.699C207.048 113.93 205.083 114.143 203.625 112.182C202.166 110.222 201.756 106.832 202.722 104.601Z" fill="#121420"/>
<path d="M207.518 143.893C208.484 141.662 210.415 141.444 211.898 143.41C213.38 145.375 213.762 148.76 212.801 150.986C211.84 153.212 209.879 153.434 208.421 151.469C206.963 149.504 206.562 146.095 207.518 143.893Z" fill="#121420"/>
<g style="mix-blend-mode:screen" opacity="0.26">
<path d="M188.351 135.717L206.826 160.522C208.323 162.536 208.13 164.472 206.613 165.742C208.791 164.549 209.298 162.362 207.579 160.063L189.35 135.567C187.052 132.486 181.624 130.4 177.201 130.917H177.051C181.31 130.801 186.192 132.819 188.351 135.717Z" fill="#A6D673"/>
</g>
<g style="mix-blend-mode:screen" opacity="0.26">
<path d="M198.424 96.6472L187.081 122.955C185.468 126.416 182.642 129.165 179.137 130.681C182.744 129.85 186.733 126.441 188.356 122.674L199.462 96.9659C200.877 93.6775 200.056 91.1327 197.67 90.5194C199.244 91.5286 199.636 93.8272 198.424 96.6472Z" fill="#F2F1F1"/>
</g>
<defs>
<filter id="filter0_d" x="0" y="0" width="159.592" height="153.105" filterUnits="userSpaceOnUse" color-interpolation-filters="sRGB">
<feFlood flood-opacity="0" result="BackgroundImageFix"/>
<feColorMatrix in="SourceAlpha" type="matrix" values="0 0 0 0 0 0 0 0 0 0 0 0 0 0 0 0 0 0 127 0"/>
<feOffset/>
<feGaussianBlur stdDeviation="10"/>
<feColorMatrix type="matrix" values="0 0 0 0 1 0 0 0 0 1 0 0 0 0 1 0 0 0 0.5 0"/>
<feBlend mode="normal" in2="BackgroundImageFix" result="effect1_dropShadow"/>
<feBlend mode="normal" in="SourceGraphic" in2="effect1_dropShadow" result="shape"/>
</filter>
<filter id="filter1_d" x="123.137" y="70.4072" width="124.157" height="119.593" filterUnits="userSpaceOnUse" color-interpolation-filters="sRGB">
<feFlood flood-opacity="0" result="BackgroundImageFix"/>
<feColorMatrix in="SourceAlpha" type="matrix" values="0 0 0 0 0 0 0 0 0 0 0 0 0 0 0 0 0 0 127 0"/>
<feOffset/>
<feGaussianBlur stdDeviation="10"/>
<feColorMatrix type="matrix" values="0 0 0 0 1 0 0 0 0 1 0 0 0 0 1 0 0 0 0.5 0"/>
<feBlend mode="normal" in2="BackgroundImageFix" result="effect1_dropShadow"/>
<feBlend mode="normal" in="SourceGraphic" in2="effect1_dropShadow" result="shape"/>
</filter>
</defs>
</svg>
