<svg width="278" height="210" viewBox="0 0 278 210" fill="none" xmlns="http://www.w3.org/2000/svg">
<g filter="url(#filter0_d)">
<path d="M75.4313 120.915L67.393 130.939C60.2122 128.398 42.9927 128.096 50.447 150.873L47.8043 144.812C36.2109 126.213 62.6592 111.899 71.6511 112.196" fill="#C51837"/>
<path d="M30.4417 148.057C25.8166 108.271 65.0372 105.392 69.5433 105.188L75.4973 120.964C66.5054 120.668 37.6951 122.753 47.8409 144.866L59.9523 142.646L43.3434 171.741L19.125 150.134L30.4417 148.057Z" fill="#FF1C45"/>
<path d="M59.9153 142.76L62.4883 148.852L45.8962 177.717L43.3176 171.627L59.9153 142.76Z" fill="#C51837"/>
<path d="M43.3168 171.626L45.8953 177.716L21.5802 155.859L19.0016 149.768L43.3168 171.626Z" fill="#F85E7A"/>
<path d="M195.07 117.566L205.733 110.396C211.828 114.965 228.173 120.391 227.855 96.4276L228.569 103.001C234.084 124.212 204.57 129.981 196.076 127.015" fill="#4BF86A"/>
<path d="M246.106 105.083C238.649 144.437 200.356 135.481 195.994 134.331L195.019 117.497C203.513 120.463 231.633 127.07 228.548 102.937L216.326 101.442L240.86 78.6283L257.527 106.477L246.106 105.083Z" fill="#26D345"/>
<path d="M216.396 101.345L215.758 94.763L240.208 72.1639L240.851 78.746L216.396 101.345Z" fill="#4BF86A"/>
<path d="M240.854 78.7456L240.21 72.1635L256.895 100.281L257.539 106.863L240.854 78.7456Z" fill="#19A732"/>
<rect x="49.5776" y="70.9687" width="88.4831" height="123.191" rx="9.42154" transform="rotate(-14.8466 49.5776 70.9687)" fill="url(#paint0_radial)" stroke="white" stroke-width="1.71301"/>
<path opacity="0.8" d="M61.4719 85.2803L59.6363 78.3556C60.3429 78.1329 61.0074 77.939 61.63 77.774C62.3983 77.5703 63.0116 77.5708 63.4699 77.7754C63.9282 77.98 64.2284 78.3505 64.3706 78.887C64.569 79.6354 64.3775 80.2498 63.7959 80.73L63.8012 80.7499C64.205 80.7491 64.5531 80.8589 64.8454 81.0791C65.136 81.2928 65.3383 81.6148 65.4524 82.0453C65.6315 82.7209 65.5366 83.299 65.1678 83.7795C64.799 84.2601 64.2172 84.6057 63.4224 84.8164C62.6276 85.0271 61.9774 85.1817 61.4719 85.2803ZM62.7682 81.7467L61.9038 81.9759L62.391 83.8138C62.7111 83.7644 62.9838 83.7099 63.2089 83.6502C64.0567 83.4254 64.3919 82.9786 64.2146 82.3097C64.1374 82.0182 63.9735 81.8278 63.7229 81.7382C63.4706 81.6421 63.1523 81.6449 62.7682 81.7467ZM61.913 78.9218C61.6216 78.999 61.3692 79.0765 61.1559 79.1543L61.622 80.9128L62.4466 80.6942C62.7579 80.6117 62.9852 80.4664 63.1286 80.2583C63.2785 80.0484 63.314 79.7944 63.235 79.4964C63.1612 79.2182 63.009 79.0317 62.7783 78.9369C62.5458 78.8355 62.2574 78.8305 61.913 78.9218ZM68.6247 94.7747L64.5017 95.8677L62.6582 88.9132L66.6818 87.8466L66.9847 88.9892L64.183 89.7318L64.6413 91.4605L67.1449 90.7968L67.4477 91.9394L64.9441 92.603L65.4208 94.4012L68.3218 93.6322L68.6247 94.7747ZM67.2238 100.306L64.9686 100.903L64.6658 99.761L70.3982 98.2414L70.7011 99.3839L68.4458 99.9817L69.9865 105.794L68.7645 106.118L67.2238 100.306ZM73.5232 114.485L71.8442 114.93L71.5413 113.787L74.3628 113.039L75.1266 115.921C74.9075 116.298 74.5733 116.641 74.124 116.952C73.6729 117.256 73.2255 117.466 72.7817 117.584C71.6557 117.883 70.6822 117.793 69.861 117.316C69.0483 116.844 68.4962 116.058 68.2047 114.959C67.9344 113.939 68.0267 113.004 68.4817 112.153C68.9349 111.295 69.6815 110.729 70.7213 110.453C71.6088 110.218 72.4163 110.256 73.1436 110.566L72.8851 111.677C72.669 111.557 72.4063 111.488 72.0969 111.471C71.7858 111.447 71.4779 111.476 71.1732 111.556C70.4777 111.741 69.976 112.108 69.668 112.657C69.3516 113.202 69.2944 113.855 69.4963 114.617C69.6912 115.352 70.0635 115.887 70.6135 116.224C71.155 116.555 71.7834 116.626 72.4987 116.436C72.7504 116.37 73.0097 116.251 73.2765 116.081C73.5416 115.905 73.7204 115.737 73.8129 115.578L73.5232 114.485ZM72.8576 128.827L71.6257 129.154L72.7177 121.4L73.7907 121.115L78.5802 127.31L77.2787 127.655L76.082 126.069L73.1115 126.856L72.8576 128.827ZM75.3122 125.05L73.6431 122.845L73.2756 125.59L75.3122 125.05ZM80.7805 139.141L76.429 140.295L74.5855 133.34L75.8075 133.016L77.3481 138.828L80.4776 137.999L80.7805 139.141ZM78.7801 151.051L77.5481 151.378L78.6401 143.624L79.7131 143.34L84.5026 149.534L83.2011 149.879L82.0044 148.293L79.0339 149.081L78.7801 151.051ZM81.2346 147.275L79.5655 145.069L79.198 147.814L81.2346 147.275ZM83.9649 154.648L85.3956 154.269L83.9542 158.298L87.3285 161.2L85.8978 161.579L83.407 159.443L82.3113 162.53L80.8807 162.909L82.3746 158.717L79.1465 155.926L80.5771 155.546L82.9522 157.607L83.9649 154.648ZM86.8043 165.276L88.1256 164.925L86.7263 169.635L87.4953 172.536L86.2733 172.859L85.5043 169.958L81.9759 166.555L83.3668 166.187L85.8671 168.639L86.8043 165.276Z" fill="white"/>
<path opacity="0.8" d="M129.241 74.7881L127.406 67.8634C128.112 67.6407 128.777 67.4468 129.4 67.2818C130.168 67.0781 130.781 67.0786 131.239 67.2832C131.698 67.4878 131.998 67.8583 132.14 68.3948C132.339 69.1432 132.147 69.7576 131.565 70.2378L131.571 70.2577C131.975 70.257 132.323 70.3667 132.615 70.587C132.905 70.8006 133.108 71.1226 133.222 71.5531C133.401 72.2287 133.306 72.8068 132.937 73.2873C132.569 73.7679 131.987 74.1135 131.192 74.3242C130.397 74.5349 129.747 74.6895 129.241 74.7881ZM130.538 71.2546L129.673 71.4837L130.161 73.3216C130.481 73.2722 130.753 73.2177 130.978 73.158C131.826 72.9333 132.161 72.4864 131.984 71.8175C131.907 71.526 131.743 71.3356 131.492 71.246C131.24 71.1499 130.922 71.1527 130.538 71.2546ZM129.683 68.4296C129.391 68.5068 129.139 68.5843 128.925 68.6622L129.392 70.4206L130.216 70.2021C130.527 70.1195 130.755 69.9742 130.898 69.7661C131.048 69.5562 131.083 69.3023 131.004 69.0042C130.931 68.726 130.779 68.5395 130.548 68.4448C130.315 68.3433 130.027 68.3383 129.683 68.4296ZM136.394 84.2826L132.271 85.3755L130.428 78.421L134.451 77.3545L134.754 78.497L131.953 79.2396L132.411 80.9683L134.914 80.3047L135.217 81.4472L132.714 82.1108L133.19 83.909L136.091 83.14L136.394 84.2826ZM134.993 89.8135L132.738 90.4113L132.435 89.2688L138.168 87.7492L138.471 88.8917L136.215 89.4896L137.756 95.3015L136.534 95.6254L134.993 89.8135ZM141.293 103.993L139.614 104.438L139.311 103.295L142.132 102.547L142.896 105.428C142.677 105.805 142.343 106.149 141.894 106.46C141.442 106.764 140.995 106.974 140.551 107.092C139.425 107.39 138.452 107.301 137.631 106.824C136.818 106.352 136.266 105.566 135.974 104.467C135.704 103.447 135.796 102.511 136.251 101.661C136.704 100.803 137.451 100.237 138.491 99.9611C139.378 99.7258 140.186 99.7634 140.913 100.074L140.655 101.184C140.439 101.065 140.176 100.996 139.866 100.979C139.555 100.955 139.247 100.983 138.943 101.064C138.247 101.248 137.746 101.615 137.438 102.165C137.121 102.709 137.064 103.363 137.266 104.124C137.461 104.86 137.833 105.395 138.383 105.731C138.925 106.063 139.553 106.134 140.268 105.944C140.52 105.877 140.779 105.759 141.046 105.589C141.311 105.413 141.49 105.245 141.582 105.085L141.293 103.993ZM140.627 118.335L139.395 118.661L140.487 110.907L141.56 110.623L146.35 116.818L145.048 117.163L143.852 115.577L140.881 116.364L140.627 118.335ZM143.082 114.558L141.413 112.353L141.045 115.098L143.082 114.558ZM148.55 128.649L144.199 129.803L142.355 122.848L143.577 122.524L145.118 128.336L148.247 127.506L148.55 128.649ZM146.55 140.559L145.318 140.886L146.41 133.132L147.483 132.847L152.272 139.042L150.971 139.387L149.774 137.801L146.803 138.589L146.55 140.559ZM149.004 136.782L147.335 134.577L146.968 137.322L149.004 136.782ZM151.734 144.156L153.165 143.777L151.724 147.806L155.098 150.708L153.667 151.087L151.177 148.951L150.081 152.038L148.65 152.417L150.144 148.225L146.916 145.433L148.347 145.054L150.722 147.115L151.734 144.156ZM154.574 154.783L155.895 154.433L154.496 159.142L155.265 162.043L154.043 162.367L153.274 159.466L149.745 156.063L151.136 155.695L153.637 158.147L154.574 154.783Z" fill="white"/>
<path d="M113.038 134.61C112.74 134.688 112.427 134.771 112.106 134.842C111.084 135.082 110.18 135.256 109.343 135.379C107.284 135.671 105.535 135.632 103.953 135.271C103.531 135.174 103.115 135.052 102.708 134.904C102.297 134.761 101.9 134.58 101.522 134.363C101.298 134.247 101.102 134.083 100.948 133.882C100.794 133.682 100.686 133.45 100.632 133.203C100.597 133.01 100.605 132.811 100.655 132.621C100.706 132.433 100.798 132.258 100.925 132.109C100.922 131.877 100.943 131.645 100.987 131.417C99.9602 130.981 99.0312 130.342 98.2552 129.539C97.6583 128.9 97.1715 128.167 96.8145 127.368L96.7015 127.345L96.0835 127.214L96.0157 127.2C95.7953 127.167 95.5843 127.088 95.3968 126.968C95.1883 126.802 95.0348 126.577 94.9563 126.322C94.9545 126.295 94.9477 126.269 94.9362 126.246C94.8533 126.054 94.7764 125.86 94.6982 125.646L94.6727 125.55L94.4583 125.474L94.3485 125.431L94.2583 125.397C94.1433 125.358 94.0311 125.311 93.9222 125.257C93.7081 125.153 93.532 124.984 93.4185 124.775C93.3478 124.639 93.2912 124.495 93.2495 124.347L93.2379 124.303C93.1897 124.122 93.1315 123.942 93.0885 123.74C93.0667 123.69 93.0526 123.637 93.0467 123.582C92.8463 122.772 92.7304 121.943 92.7006 121.108C92.6787 120.572 92.6955 120.034 92.7507 119.5C92.7736 119.17 92.8964 118.855 93.1028 118.596C93.1882 118.492 93.2875 118.4 93.3979 118.323C93.3922 118.237 93.392 118.156 93.3884 118.078C93.3783 117.852 93.3832 117.626 93.4032 117.401C93.4172 117.12 93.5212 116.851 93.6997 116.633C93.8421 116.487 94.0041 116.36 94.1812 116.258L94.278 116.196L94.3369 116.152L94.5569 116.015C94.4544 114.612 94.5607 113.202 94.8724 111.83C95.1919 110.352 95.7669 108.94 96.5716 107.66C97.4031 106.428 98.5197 105.415 99.8264 104.708C101.006 104.046 102.26 103.525 103.561 103.156L103.978 103.045C105.291 102.72 106.637 102.551 107.989 102.54C109.474 102.505 110.947 102.831 112.28 103.489C113.427 104.1 114.474 104.883 115.384 105.812C115.25 105.42 115.117 105.008 114.984 104.577C114.847 104.49 114.729 104.376 114.638 104.241C114.468 103.97 114.331 103.679 114.233 103.373L114.209 103.282C114.102 102.991 114.008 102.693 113.926 102.401C113.865 102.221 113.849 102.03 113.88 101.843C113.91 101.656 113.985 101.48 114.099 101.329C114.293 101.125 114.543 100.985 114.817 100.925L114.974 100.883C115.161 100.841 115.355 100.848 115.538 100.901C115.721 100.954 115.888 101.053 116.023 101.189C116.211 101.4 116.358 101.644 116.456 101.91L116.472 101.97C116.587 102.234 116.691 102.515 116.797 102.828C116.81 102.876 116.827 102.922 116.847 102.967C116.967 103.244 117.028 103.544 117.024 103.846C117.015 104.027 116.963 104.202 116.872 104.359C116.979 104.664 117.089 104.975 117.206 105.288C117.771 106.825 118.398 108.365 119.062 109.872L119.111 109.887C119.381 109.986 119.611 110.17 119.767 110.412C119.894 110.598 120.011 110.791 120.115 110.991C120.151 111.063 120.188 111.132 120.227 111.212C120.361 111.223 120.494 111.254 120.62 111.302C120.926 111.427 121.187 111.643 121.367 111.921C121.68 112.357 121.961 112.816 122.207 113.293C122.712 114.254 123.086 115.278 123.318 116.338L123.33 116.382C123.366 116.532 123.387 116.684 123.395 116.837C123.399 117.076 123.33 117.309 123.196 117.506C123.126 117.606 123.051 117.702 122.971 117.794L122.91 117.868L122.837 117.958L122.707 118.119C122.717 118.151 122.722 118.184 122.722 118.217C122.755 118.422 122.789 118.644 122.815 118.856L122.822 118.933C122.881 119.194 122.859 119.466 122.76 119.715C122.657 119.913 122.513 120.088 122.339 120.228L122.289 120.274L121.836 120.676C122.037 122.516 121.568 124.367 120.516 125.89C120.578 125.981 120.634 126.075 120.685 126.172C120.849 126.471 120.979 126.787 121.072 127.115L121.119 127.135C121.669 127.378 121.931 127.963 121.788 128.632C121.681 129.074 121.49 129.491 121.225 129.861C120.744 130.556 120.148 131.164 119.462 131.658C118.012 132.735 116.393 133.563 114.671 134.108C114.158 134.293 113.618 134.456 113.038 134.61Z" fill="white" stroke="white" stroke-width="0.856503"/>
<path d="M99.6569 127.932C99.0677 127.676 98.3852 126.85 98.5827 125.572C98.5827 125.572 97.9296 125.994 97.8876 125.368C97.8455 124.742 98.2871 123.474 98.2871 123.474C98.1919 123.679 97.8921 124.007 97.7271 123.956C97.5621 123.906 97.4347 123.095 97.8082 122.352C97.8082 122.352 97.2291 122.585 97.1049 122.278C96.9808 121.971 97.4747 121.69 97.4747 121.69C97.4747 121.69 97.5425 120.069 97.6685 119.287C97.6052 119.327 97.5343 119.353 97.4603 119.364C97.3869 119.372 97.3125 119.366 97.2416 119.345C97.0475 119.257 97.0576 118.111 97.3112 117.56C97.3112 117.56 96.4451 116.163 97.0976 114.933C97.0976 114.933 96.5473 114.84 96.5392 114.374C96.531 113.908 97.2741 114.318 97.2741 114.318C97.2741 114.318 96.5291 112.241 96.9515 110.619C97.0692 110.16 97.2975 109.595 97.6274 109.414C97.7056 109.389 97.789 109.385 97.869 109.403C97.949 109.422 98.0226 109.461 98.0822 109.518C98.0822 109.518 98.0927 109.235 98.5789 109.191C98.7273 109.207 98.8701 109.257 98.9957 109.337C98.9957 109.337 99.4492 108.969 100.732 109.893C101.102 110.158 102.33 111.199 102.33 111.199C102.33 111.199 102.891 110.608 103.854 111.169C103.854 111.169 104.595 110.378 107.457 110.096C107.457 110.096 108.044 109.201 108.733 109.331C108.77 109.127 108.867 108.939 109.013 108.791C109.158 108.644 109.344 108.543 109.547 108.503C109.547 108.503 110.246 106.013 111.262 106.182C111.262 106.182 111.785 105.494 112.347 105.875C112.347 105.875 113.422 105.473 114.438 107.459C114.843 108.256 115.032 109.386 115.051 110.311C115.051 110.311 115.624 110.493 115.734 110.866C115.843 111.239 115.101 111.412 115.101 111.412C115.101 111.412 116.635 112.104 117.22 114.314C117.22 114.314 118.161 114.843 118.258 115.471C118.265 115.54 118.253 115.609 118.223 115.671C118.193 115.732 118.144 115.783 118.084 115.817C118.084 115.817 119.89 117.391 119.741 120.537C119.741 120.537 119.942 121.052 119.22 121.295C119.22 121.295 119.619 121.85 119.442 122.057C119.442 122.057 119.093 122.635 118.929 122.999C118.839 123.218 117.429 126.704 110.014 128.394C104.457 129.803 101.243 128.566 101.243 128.566C101.243 128.566 100.096 128.124 99.6569 127.932Z" fill="white" stroke="white" stroke-width="2.85501" stroke-miterlimit="10"/>
<path d="M101.906 118.592C101.935 118.726 101.991 118.852 102.071 118.963C102.191 119.131 102.36 119.257 102.555 119.323C102.75 119.389 102.961 119.393 103.158 119.334C103.288 119.293 103.409 119.227 103.513 119.137C103.616 119.048 103.7 118.938 103.759 118.815C103.818 118.691 103.85 118.557 103.853 118.42C103.857 118.283 103.833 118.147 103.782 118.02C103.671 117.66 103.008 117.447 102.489 117.608C101.97 117.769 101.736 118.032 101.906 118.592Z" fill="url(#paint1_linear)" stroke="#090C1B" stroke-width="0.576712" stroke-miterlimit="10"/>
<path d="M104.486 118.588C104.695 119.012 104.665 119.353 104.407 119.443C104.149 119.533 104.076 119.193 104.204 119.014C104.238 118.952 104.254 118.882 104.25 118.811C104.246 118.741 104.223 118.673 104.183 118.615L104.486 118.588Z" fill="#121420"/>
<path d="M102.552 118.467C102.558 118.516 102.575 118.563 102.601 118.605C102.626 118.647 102.661 118.683 102.702 118.709C102.743 118.735 102.789 118.752 102.837 118.761C102.885 118.767 102.935 118.763 102.981 118.748C103.029 118.734 103.072 118.71 103.11 118.678C103.145 118.644 103.174 118.604 103.194 118.559C103.211 118.514 103.22 118.465 103.22 118.416C103.218 118.367 103.205 118.319 103.183 118.276C103.173 118.23 103.155 118.187 103.128 118.149C103.101 118.111 103.066 118.08 103.026 118.056C102.987 118.032 102.943 118.017 102.897 118.012C102.851 118.006 102.805 118.01 102.761 118.024C102.717 118.036 102.676 118.059 102.642 118.09C102.589 118.135 102.552 118.196 102.536 118.264C102.52 118.331 102.525 118.402 102.552 118.467Z" fill="#121420"/>
<path d="M102.439 118.157C102.433 118.093 102.409 118.031 102.37 117.98C102.33 117.929 102.277 117.89 102.216 117.868C102.156 117.846 102.09 117.842 102.027 117.857C101.964 117.871 101.906 117.903 101.861 117.949C101.816 117.995 101.784 118.053 101.771 118.116C101.757 118.179 101.762 118.245 101.784 118.305C101.807 118.366 101.846 118.419 101.898 118.458C101.949 118.497 102.011 118.52 102.075 118.525C102.172 118.524 102.264 118.484 102.332 118.415C102.4 118.347 102.439 118.254 102.439 118.157Z" fill="white"/>
<path d="M106.748 118.483C107.159 118.257 107.613 118.119 108.081 118.079" stroke="#121420" stroke-width="0.599552" stroke-linecap="round" stroke-linejoin="round"/>
<path d="M110.321 119.674C110.59 120.552 109.743 121.884 108.897 122.143C108.051 122.401 106.608 121.776 106.341 120.896C106.073 120.015 106.828 119.302 107.932 118.977C109.036 118.653 110.054 118.793 110.321 119.674Z" fill="#121420"/>
<path d="M107.369 120.469C107.513 120.479 107.647 120.541 107.748 120.642C107.851 120.737 107.93 120.855 107.98 120.985C108.035 121.12 108.038 121.27 107.989 121.407C107.94 121.543 107.843 121.657 107.715 121.727C107.711 121.731 107.706 121.734 107.7 121.736C107.694 121.737 107.688 121.737 107.682 121.736C107.675 121.735 107.669 121.734 107.664 121.731C107.658 121.728 107.653 121.725 107.649 121.72C107.645 121.715 107.642 121.71 107.64 121.704C107.638 121.698 107.638 121.691 107.638 121.685C107.639 121.673 107.645 121.662 107.653 121.653C107.732 121.573 107.789 121.475 107.821 121.367C107.843 121.263 107.834 121.155 107.796 121.055C107.757 120.95 107.699 120.852 107.626 120.767C107.555 120.68 107.464 120.612 107.36 120.57C107.348 120.565 107.339 120.556 107.332 120.546C107.325 120.535 107.321 120.522 107.322 120.51C107.324 120.501 107.328 120.494 107.334 120.487C107.341 120.484 107.349 120.481 107.358 120.481L107.369 120.469Z" fill="white"/>
<path d="M109.324 119.97C109.26 120.061 109.221 120.168 109.211 120.278C109.196 120.391 109.202 120.505 109.23 120.615C109.253 120.719 109.306 120.813 109.383 120.887C109.469 120.954 109.57 121 109.677 121.023C109.684 121.024 109.69 121.026 109.695 121.03C109.7 121.034 109.704 121.039 109.707 121.045C109.711 121.05 109.714 121.056 109.715 121.062C109.717 121.068 109.717 121.074 109.716 121.081C109.715 121.086 109.714 121.091 109.711 121.095C109.708 121.1 109.704 121.104 109.7 121.107C109.691 121.113 109.68 121.116 109.67 121.114C109.524 121.128 109.379 121.087 109.263 120.999C109.146 120.912 109.066 120.784 109.038 120.641C109.004 120.504 109.004 120.362 109.037 120.226C109.063 120.085 109.14 119.958 109.255 119.871C109.265 119.864 109.277 119.861 109.289 119.862C109.3 119.863 109.31 119.868 109.318 119.876C109.325 119.886 109.328 119.898 109.327 119.91C109.325 119.921 109.322 119.932 109.316 119.942L109.324 119.97Z" fill="white"/>
<path d="M108.274 119.706C108.669 119.586 108.964 119.409 108.935 119.316C108.907 119.224 108.562 119.236 108.166 119.356C107.771 119.476 107.476 119.654 107.503 119.745C107.529 119.837 107.875 119.811 108.274 119.706Z" fill="white"/>
<path d="M108.898 122.143L109.113 122.845" stroke="#121420" stroke-width="1.1991" stroke-linecap="round" stroke-linejoin="round"/>
<path d="M100.734 123.176C100.696 123.656 100.822 124.386 101.218 124.495C101.379 124.538 101.098 123.922 101.184 123.634C101.259 123.964 101.422 124.267 101.656 124.512C101.89 124.756 102.186 124.933 102.512 125.025" stroke="#121420" stroke-width="0.599552" stroke-linecap="round" stroke-linejoin="round"/>
<path d="M116.407 118.472C116.702 118.851 116.84 119.3 116.578 119.609C116.469 119.732 116.297 119.356 116.07 119.16C116.169 119.358 116.226 119.575 116.237 119.797C116.247 120.018 116.211 120.239 116.131 120.446" stroke="#121420" stroke-width="0.599552" stroke-linecap="round" stroke-linejoin="round"/>
<path d="M104.907 123.571C104.935 123.106 105.37 123.02 105.672 123.083C105.975 123.146 106.456 123.622 106.916 123.658L106.834 123.936C106.578 123.983 106.318 123.998 106.058 123.982C105.82 123.946 105.754 124.223 105.385 124.16C105.252 124.129 105.133 124.054 105.046 123.948C104.96 123.842 104.911 123.71 104.907 123.573L104.907 123.571Z" fill="#121420"/>
<path d="M112.649 120.78C113.04 120.642 113.407 121.22 113.166 121.712C112.963 122.103 112.62 122.403 112.205 122.55C111.743 122.743 111.611 122.513 111.611 122.513C111.611 122.513 112.064 122.295 112.1 121.939C112.131 121.676 112.063 120.984 112.649 120.78Z" fill="#121420"/>
<path d="M106.176 123.525C106.437 123.562 106.702 123.579 106.966 123.574C107.219 123.565 107.468 123.52 107.708 123.44C107.956 123.346 108.196 123.234 108.426 123.104C108.68 122.968 108.948 122.861 109.226 122.783C109.804 122.63 110.371 122.704 110.894 122.629C111.15 122.597 111.402 122.536 111.644 122.446C111.883 122.348 112.111 122.226 112.325 122.081C112.35 122.065 112.377 122.055 112.406 122.049C112.435 122.044 112.464 122.045 112.492 122.051C112.521 122.058 112.548 122.07 112.572 122.087C112.596 122.103 112.616 122.125 112.632 122.15C112.647 122.174 112.658 122.202 112.663 122.23C112.668 122.259 112.668 122.289 112.661 122.317C112.655 122.346 112.643 122.373 112.626 122.397C112.609 122.42 112.588 122.441 112.563 122.456C112.315 122.603 112.053 122.727 111.781 122.824C111.506 122.916 111.222 122.977 110.934 123.006C110.366 123.064 109.813 123.001 109.324 123.131C109.074 123.202 108.834 123.303 108.607 123.43C108.363 123.57 108.111 123.694 107.851 123.802C107.301 123.99 106.716 124.054 106.138 123.988C106.076 123.984 106.019 123.955 105.978 123.909C105.96 123.885 105.946 123.857 105.938 123.828C105.93 123.798 105.929 123.767 105.933 123.737C105.934 123.706 105.942 123.676 105.956 123.649C105.969 123.621 105.988 123.597 106.012 123.577C106.059 123.537 106.119 123.517 106.18 123.52L106.176 123.525Z" fill="#121420"/>
<path d="M101.152 118.273L100.508 117.802L101.719 117.712C101.587 117.754 101.467 117.827 101.368 117.924C101.27 118.022 101.195 118.141 101.152 118.273Z" fill="#121420"/>
<path d="M101.105 118.398C101.007 118.349 100.905 118.302 100.802 118.243C100.658 118.163 100.52 118.074 100.387 117.977C100.352 117.951 100.326 117.916 100.311 117.875C100.301 117.835 100.302 117.792 100.315 117.752C100.326 117.711 100.35 117.674 100.383 117.647C100.416 117.619 100.457 117.602 100.5 117.598C100.903 117.564 101.308 117.536 101.714 117.535L101.738 117.529C101.78 117.535 101.819 117.555 101.848 117.586C101.877 117.618 101.894 117.658 101.897 117.701C101.903 117.742 101.895 117.784 101.872 117.818C101.852 117.854 101.82 117.881 101.782 117.896C101.727 117.909 101.674 117.928 101.623 117.951C101.569 117.973 101.517 118.001 101.468 118.035C101.418 118.065 101.372 118.101 101.33 118.142C101.308 118.164 101.289 118.187 101.272 118.213L101.257 118.229C101.252 118.244 101.245 118.258 101.236 118.271C101.221 118.295 101.202 118.317 101.181 118.335L101.105 118.398ZM101.113 118.12C101.121 118.089 101.13 118.058 101.142 118.027C101.175 117.95 101.222 117.878 101.28 117.817C101.388 117.695 101.523 117.599 101.674 117.537L101.742 117.898C101.342 117.953 100.937 117.987 100.536 118.023L100.648 117.64C100.731 117.698 100.806 117.765 100.874 117.839L101.086 118.091L101.113 118.12Z" fill="#121420"/>
<path d="M104.242 118.874C104.138 118.603 103.963 118.366 103.734 118.188C103.503 118.005 103.235 117.877 102.948 117.812C102.66 117.75 102.361 117.756 102.075 117.83C101.784 117.901 101.509 118.029 101.267 118.205L101.342 117.99C101.391 118.207 101.464 118.417 101.562 118.616C101.66 118.816 101.79 118.998 101.946 119.156C102.1 119.313 102.292 119.427 102.504 119.487C102.723 119.546 102.953 119.552 103.175 119.504C103.191 119.501 103.207 119.505 103.22 119.515C103.227 119.519 103.233 119.525 103.237 119.531C103.241 119.538 103.244 119.545 103.245 119.553C103.248 119.561 103.248 119.569 103.247 119.576C103.246 119.584 103.243 119.592 103.238 119.598C103.234 119.604 103.229 119.61 103.223 119.615C103.217 119.619 103.21 119.623 103.202 119.624C102.962 119.699 102.708 119.717 102.46 119.676C102.206 119.628 101.969 119.516 101.771 119.35C101.578 119.184 101.412 118.989 101.28 118.772C101.147 118.554 101.04 118.321 100.964 118.078C100.952 118.038 100.952 117.996 100.966 117.957C100.979 117.918 101.005 117.885 101.039 117.863C101.324 117.654 101.647 117.502 101.989 117.417C102.331 117.333 102.687 117.328 103.031 117.404C103.375 117.48 103.697 117.633 103.972 117.853C104.259 118.076 104.478 118.375 104.604 118.716C104.614 118.74 104.618 118.766 104.617 118.792C104.615 118.818 104.609 118.843 104.597 118.866C104.587 118.889 104.571 118.91 104.553 118.928C104.534 118.946 104.511 118.959 104.487 118.967C104.438 118.984 104.384 118.982 104.336 118.961C104.291 118.938 104.255 118.899 104.237 118.852L104.242 118.874Z" fill="#121420"/>
<path d="M105.339 117.722C105.26 117.908 105.127 118.065 104.957 118.174C104.792 118.271 104.604 118.321 104.412 118.318C104.072 118.305 103.743 118.189 103.469 117.985C103.433 117.96 103.408 117.922 103.399 117.879C103.394 117.859 103.394 117.837 103.398 117.816C103.402 117.795 103.41 117.775 103.422 117.758C103.446 117.722 103.483 117.697 103.525 117.688C103.546 117.683 103.568 117.683 103.589 117.687C103.611 117.69 103.631 117.699 103.649 117.711C103.874 117.851 104.137 117.921 104.403 117.911C104.516 117.903 104.624 117.865 104.717 117.799C104.798 117.732 104.857 117.642 104.886 117.541C104.909 117.481 104.955 117.432 105.014 117.404C105.072 117.377 105.138 117.373 105.199 117.393C105.26 117.414 105.31 117.457 105.34 117.515C105.37 117.571 105.377 117.637 105.359 117.698L105.351 117.719L105.339 117.722Z" fill="#121420"/>
<path d="M112.572 115.338C112.62 115.464 112.641 115.599 112.634 115.734C112.629 115.869 112.596 116.001 112.536 116.122C112.476 116.242 112.393 116.35 112.29 116.437C112.188 116.524 112.069 116.59 111.94 116.63C111.811 116.668 111.676 116.681 111.542 116.667C111.408 116.651 111.278 116.609 111.161 116.542C111.044 116.475 110.942 116.384 110.861 116.276C110.781 116.168 110.723 116.044 110.693 115.913C110.582 115.553 111.015 115.009 111.535 114.852C112.055 114.695 112.404 114.786 112.572 115.338Z" fill="url(#paint2_linear)" stroke="#090C1B" stroke-width="0.576712" stroke-miterlimit="10"/>
<path d="M110.433 116.781C110.498 117.252 110.712 117.518 110.975 117.448C111.239 117.378 111.113 117.055 110.904 116.977C110.841 116.945 110.789 116.896 110.751 116.836C110.715 116.776 110.697 116.707 110.698 116.636L110.433 116.781Z" fill="#121420"/>
<path d="M111.965 115.598C111.987 115.641 112 115.689 112.002 115.738C112.004 115.787 111.995 115.836 111.976 115.881C111.957 115.926 111.928 115.967 111.892 116C111.856 116.033 111.813 116.058 111.766 116.072C111.719 116.086 111.67 116.089 111.621 116.082C111.572 116.076 111.525 116.058 111.484 116.031C111.444 116.004 111.41 115.968 111.384 115.927C111.361 115.884 111.348 115.836 111.347 115.787C111.328 115.745 111.319 115.699 111.32 115.652C111.321 115.606 111.332 115.56 111.352 115.519C111.372 115.477 111.4 115.44 111.434 115.41C111.469 115.379 111.51 115.357 111.554 115.343C111.598 115.33 111.645 115.325 111.691 115.331C111.737 115.338 111.781 115.353 111.821 115.375C111.86 115.399 111.894 115.431 111.92 115.469C111.947 115.507 111.966 115.55 111.975 115.595L111.965 115.598Z" fill="#121420"/>
<path d="M112.395 115.374C112.467 115.334 112.524 115.274 112.56 115.2C112.596 115.127 112.609 115.044 112.596 114.964C112.584 114.883 112.546 114.808 112.49 114.749C112.434 114.69 112.36 114.65 112.28 114.634C112.2 114.618 112.117 114.626 112.042 114.659C111.968 114.692 111.905 114.747 111.862 114.816C111.82 114.886 111.799 114.967 111.804 115.049C111.809 115.13 111.839 115.208 111.89 115.272C111.944 115.353 112.027 115.408 112.122 115.427C112.217 115.446 112.315 115.427 112.395 115.374Z" fill="white"/>
<path d="M113.014 114.654L113.288 113.906L112.232 114.507C112.365 114.469 112.505 114.463 112.64 114.488C112.776 114.514 112.904 114.571 113.014 114.654Z" fill="#121420"/>
<path d="M112.965 114.504L112.971 114.462L113.019 114.127C113.033 114.027 113.059 113.929 113.095 113.835L113.396 114.091C113.046 114.293 112.694 114.491 112.329 114.669L112.184 114.331C112.265 114.314 112.348 114.308 112.431 114.31C112.511 114.312 112.591 114.324 112.669 114.346C112.747 114.366 112.822 114.399 112.889 114.443C112.916 114.461 112.942 114.482 112.965 114.504ZM113.128 114.733L113.034 114.715C113.006 114.709 112.979 114.701 112.953 114.691C112.938 114.685 112.924 114.677 112.91 114.669L112.889 114.661C112.861 114.652 112.831 114.645 112.802 114.637C112.744 114.626 112.684 114.622 112.625 114.624C112.567 114.625 112.509 114.631 112.452 114.64C112.397 114.651 112.343 114.665 112.29 114.683C112.245 114.7 112.194 114.698 112.15 114.678C112.128 114.668 112.109 114.654 112.092 114.637C112.076 114.62 112.063 114.599 112.055 114.577C112.042 114.539 112.041 114.498 112.054 114.459C112.067 114.42 112.092 114.386 112.127 114.363L112.149 114.357C112.479 114.137 112.837 113.933 113.19 113.735C113.227 113.711 113.271 113.699 113.314 113.702C113.359 113.706 113.401 113.724 113.434 113.754C113.467 113.783 113.49 113.823 113.499 113.867C113.511 113.908 113.508 113.953 113.492 113.993C113.437 114.148 113.371 114.3 113.296 114.447C113.24 114.541 113.186 114.636 113.128 114.733Z" fill="#121420"/>
<path d="M110.406 116.976C110.325 116.625 110.341 116.259 110.452 115.917C110.556 115.574 110.737 115.261 110.982 115.001C111.227 114.74 111.528 114.54 111.863 114.416C112.192 114.298 112.539 114.243 112.888 114.253C112.927 114.255 112.965 114.268 112.996 114.291C113.029 114.313 113.054 114.345 113.068 114.383C113.138 114.626 113.179 114.876 113.191 115.128C113.203 115.384 113.174 115.639 113.105 115.885C113.032 116.135 112.896 116.363 112.71 116.545C112.526 116.716 112.304 116.841 112.063 116.911C112.056 116.915 112.048 116.917 112.039 116.918C112.031 116.917 112.023 116.915 112.016 116.911C112.009 116.908 112.002 116.903 111.997 116.897C111.994 116.89 111.992 116.882 111.992 116.875C111.987 116.86 111.988 116.843 111.995 116.829C111.998 116.813 112.007 116.798 112.02 116.788C112.227 116.703 112.411 116.571 112.559 116.403C112.699 116.235 112.792 116.034 112.831 115.818C112.873 115.598 112.879 115.373 112.848 115.151C112.818 114.931 112.761 114.716 112.678 114.51L112.858 114.639C112.559 114.629 112.26 114.676 111.979 114.778C111.702 114.88 111.453 115.045 111.252 115.26C111.05 115.476 110.899 115.735 110.812 116.018C110.722 116.293 110.709 116.588 110.773 116.87C110.79 116.898 110.801 116.929 110.804 116.961C110.807 116.994 110.802 117.026 110.79 117.056C110.778 117.086 110.76 117.113 110.735 117.135C110.711 117.156 110.682 117.172 110.651 117.18C110.62 117.188 110.587 117.189 110.555 117.182C110.524 117.176 110.494 117.162 110.469 117.141C110.444 117.121 110.423 117.095 110.41 117.066C110.397 117.036 110.39 117.004 110.392 116.972L110.406 116.976Z" fill="#121420"/>
<path d="M109.524 116.122C109.604 116.19 109.703 116.231 109.808 116.242C109.921 116.244 110.032 116.214 110.129 116.157C110.358 116.017 110.54 115.812 110.65 115.567C110.669 115.535 110.7 115.51 110.737 115.499C110.772 115.487 110.81 115.489 110.844 115.503C110.882 115.515 110.913 115.541 110.932 115.576C110.952 115.61 110.958 115.65 110.949 115.689C110.836 116.017 110.625 116.302 110.345 116.505C110.188 116.616 110.004 116.681 109.812 116.694C109.61 116.699 109.412 116.641 109.243 116.53C109.215 116.512 109.191 116.489 109.173 116.462C109.154 116.434 109.141 116.403 109.135 116.371C109.122 116.306 109.134 116.238 109.17 116.182C109.188 116.154 109.212 116.13 109.239 116.111C109.267 116.093 109.298 116.08 109.33 116.073C109.363 116.066 109.397 116.066 109.429 116.073C109.462 116.079 109.493 116.092 109.521 116.11L109.524 116.122Z" fill="#121420"/>
<path d="M115.709 104.066L115.896 104.04C115.957 104.02 116.011 103.984 116.052 103.935C116.351 103.595 116.129 103.179 116.001 102.822C115.924 102.607 115.842 102.393 115.748 102.183C115.689 102.017 115.602 101.863 115.49 101.727C115.345 101.58 115.159 101.621 114.979 101.668C114.8 101.716 114.629 101.783 114.614 101.96C114.624 102.159 114.67 102.355 114.75 102.537C114.806 102.749 114.892 102.953 114.965 103.162C115.027 103.34 115.088 103.506 115.162 103.672C115.199 103.725 115.239 103.775 115.281 103.823C115.382 103.947 115.524 104.031 115.681 104.059L115.709 104.066ZM115.138 103.414C115.091 103.317 115.052 103.216 115.02 103.113L114.977 102.95C114.967 102.904 114.965 102.857 114.97 102.81C115.01 102.862 115.045 102.918 115.074 102.977C115.104 103.034 115.134 103.09 115.166 103.148C115.225 103.249 115.28 103.352 115.349 103.45C115.4 103.53 115.465 103.6 115.541 103.658C115.575 103.684 115.614 103.705 115.655 103.719L115.776 103.739C115.801 103.738 115.825 103.746 115.844 103.763C115.862 103.779 115.874 103.803 115.876 103.827C115.877 103.853 115.868 103.878 115.852 103.898C115.835 103.916 115.813 103.927 115.788 103.93C115.693 103.942 115.596 103.923 115.511 103.877C115.338 103.769 115.207 103.606 115.138 103.414Z" fill="#CAD2DA"/>
<path d="M116.095 104.235C116.759 106.159 117.493 108.056 118.296 109.927C117.739 109.647 117.433 109.087 117.136 108.548C116.75 107.56 116.395 106.557 116.046 105.555C115.965 105.322 115.882 105.083 115.801 104.841C115.767 104.758 115.748 104.67 115.747 104.58C115.756 104.381 115.944 104.318 116.095 104.235Z" fill="#CAD2DA"/>
<path d="M119.813 129.489C119.477 129.758 119.13 130.012 118.772 130.253C117.292 131.21 115.688 131.96 114.004 132.481C113.152 132.758 112.29 133.002 111.43 133.249C110.571 133.496 109.694 133.743 108.811 133.932C107.225 134.276 105.57 134.432 103.972 134.075L103.913 134.061C104.12 134.215 104.348 134.337 104.592 134.422C105.149 134.593 105.727 134.692 106.31 134.715L107.418 134.81L107.684 134.83C108.459 134.78 109.23 134.687 109.994 134.551C111.637 134.274 113.253 133.86 114.827 133.313C116.381 132.787 117.84 132.014 119.147 131.021C119.74 130.58 120.255 130.042 120.669 129.429C120.885 129.124 121.037 128.777 121.115 128.411C121.135 128.321 121.134 128.227 121.113 128.137C121.091 128.047 121.049 127.963 120.99 127.892C120.952 127.851 120.906 127.817 120.855 127.793C120.804 127.77 120.748 127.758 120.692 127.758C120.742 128.054 120.711 128.358 120.6 128.637C120.45 129.004 120.113 129.249 119.813 129.489Z" fill="#4071B3"/>
<path d="M119.682 126.199C119.69 126.226 119.715 126.25 119.73 126.274C119.786 126.365 119.827 126.464 119.851 126.569C119.869 126.612 119.874 126.66 119.866 126.707C119.859 126.753 119.838 126.797 119.808 126.832C119.792 126.847 119.749 126.829 119.733 126.826C119.687 126.804 119.646 126.772 119.614 126.732C119.592 126.708 119.57 126.682 119.551 126.654L119.546 126.635L119.541 126.617C119.509 126.578 119.48 126.538 119.454 126.496L119.424 126.53C118.212 127.92 116.622 128.923 114.915 129.6C114.307 129.896 113.678 130.147 113.033 130.351C111.873 130.745 110.692 131.045 109.503 131.379C108.905 131.538 108.333 131.717 107.755 131.907C107.619 131.937 107.489 131.987 107.367 132.054C107.323 132.083 107.278 132.129 107.289 132.188C107.301 132.247 107.381 132.294 107.44 132.322C107.693 132.437 107.966 132.504 108.244 132.517C108.248 132.517 108.253 132.518 108.257 132.52C108.261 132.522 108.265 132.524 108.268 132.528C108.271 132.531 108.273 132.535 108.274 132.539C108.275 132.543 108.275 132.547 108.274 132.552C108.274 132.56 108.271 132.569 108.265 132.575C108.258 132.58 108.249 132.583 108.24 132.582C108.139 132.583 108.11 132.706 108.131 132.786C108.152 132.866 108.281 132.941 108.371 132.956C108.483 132.973 108.597 132.983 108.712 132.985L109.087 132.999C109.997 133.004 110.906 132.925 111.801 132.761C112.248 132.683 112.691 132.591 113.133 132.493L113.577 132.393C113.884 132.294 114.189 132.196 114.494 132.09C116.096 131.558 117.614 130.802 119.004 129.844C119.342 129.605 119.673 129.353 119.988 129.083C120.586 128.569 120.571 127.761 120.323 127.07C120.194 126.712 120.014 126.375 119.789 126.068L119.682 126.199ZM120.13 128.466C119.911 128.833 119.61 129.144 119.251 129.375C118.876 129.647 118.476 129.883 118.056 130.08C117.644 130.3 117.203 130.458 116.745 130.55C117.092 130.304 117.464 130.103 117.82 129.876C118.177 129.649 118.514 129.407 118.851 129.156C119.169 128.955 119.449 128.7 119.679 128.402C119.771 128.268 119.83 128.115 119.851 127.954C119.863 127.863 119.848 127.773 119.856 127.683C119.865 127.603 119.88 127.523 119.9 127.445C119.902 127.432 119.909 127.42 119.918 127.41C119.927 127.4 119.938 127.392 119.95 127.387C119.962 127.381 119.975 127.377 119.988 127.377C120.002 127.377 120.014 127.381 120.026 127.388C120.429 127.598 120.296 128.157 120.133 128.48L120.13 128.466Z" fill="#4071B3"/>
<path d="M94.6209 116.806C94.435 116.894 94.2757 117.03 94.1593 117.2C94.0894 117.39 94.0601 117.592 94.0731 117.794C94.0682 118.009 94.0815 118.236 94.0972 118.457C94.1868 120.071 94.3981 121.676 94.7291 123.258C94.819 123.662 94.921 124.062 95.0468 124.457C95.1151 124.573 95.2136 124.669 95.3318 124.734C95.4105 124.772 95.501 124.779 95.5845 124.752C95.6682 124.725 95.7378 124.666 95.778 124.588C95.8517 124.42 95.8917 124.24 95.8956 124.056C95.904 123.871 95.9027 123.686 95.8916 123.502C95.8727 123.092 95.8373 122.684 95.8079 122.275C95.7588 121.615 95.7018 120.956 95.6578 120.299C95.4462 119.025 95.228 117.751 95.1039 116.469C94.9517 116.593 94.7902 116.706 94.6209 116.806Z" fill="#4071B3"/>
<path d="M97.0875 111.213C97.2769 111.138 97.4606 111.05 97.6372 110.949L99.031 110.244L99.5297 109.99C100.31 109.505 101.125 109.079 101.969 108.715C103.638 107.992 105.393 107.485 107.191 107.205C109 106.915 110.835 106.815 112.665 106.906C113.443 106.916 114.216 107.024 114.967 107.226C115.037 107.226 115.106 107.208 115.167 107.173C115.225 107.14 115.275 107.093 115.31 107.036C115.333 106.998 115.348 106.954 115.354 106.91C115.359 106.865 115.355 106.819 115.344 106.775C114.619 105.982 113.802 105.277 112.91 104.677C112.314 104.266 111.667 103.935 110.986 103.691C110.344 103.473 109.678 103.336 109.003 103.282C107.602 103.193 106.195 103.291 104.821 103.576C104.246 103.683 103.681 103.833 103.128 104.025C101.794 104.458 100.523 105.069 99.3504 105.841C98.7902 106.225 98.2792 106.676 97.829 107.185C97.4573 107.615 97.1333 108.084 96.8629 108.585L96.8326 108.672C97.075 108.304 97.3417 107.954 97.631 107.622C97.9941 107.213 98.396 106.84 98.8311 106.509C99.2465 106.165 99.7112 105.886 100.21 105.681L100.213 105.693C99.7472 106.056 99.2529 106.375 98.8123 106.768C98.0134 107.474 97.3402 108.31 96.8213 109.241C96.6437 109.571 96.4848 109.914 96.3369 110.251C96.3157 110.396 96.3061 110.543 96.3081 110.69C96.3014 110.797 96.3231 110.905 96.3712 111.001C96.4196 111.096 96.4927 111.177 96.5829 111.235C96.7448 111.294 96.9229 111.289 97.0811 111.221L97.0875 111.213ZM109.385 103.677C109.786 103.683 110.183 103.753 110.561 103.884C110.943 103.998 111.314 104.142 111.673 104.315C112.032 104.486 112.378 104.684 112.706 104.909C112.878 105.02 113.044 105.141 113.202 105.271C113.349 105.404 113.476 105.557 113.577 105.728C113.613 105.782 113.545 105.834 113.495 105.812C113.394 105.763 113.292 105.731 113.198 105.676C113.115 105.628 113.036 105.574 112.961 105.515C112.804 105.405 112.65 105.291 112.485 105.185C112.168 104.97 111.839 104.771 111.501 104.591C111.159 104.408 110.807 104.247 110.452 104.091C110.096 103.935 109.715 103.842 109.369 103.672C109.369 103.672 109.369 103.672 109.385 103.668L109.385 103.677Z" fill="#4071B3"/>
<path d="M93.9568 119.317L93.9155 118.807C93.8678 118.836 93.8207 118.868 93.7741 118.902C93.6799 118.97 93.6011 119.057 93.5428 119.158C93.4475 119.378 93.3984 119.615 93.3986 119.854C93.3294 120.834 93.3851 121.819 93.5644 122.785C93.628 123.138 93.7197 123.483 93.8118 123.831C93.8384 123.837 93.8661 123.839 93.8933 123.834C93.9204 123.83 93.9464 123.82 93.9697 123.806C93.9931 123.792 94.0134 123.774 94.0296 123.752C94.0458 123.73 94.0575 123.705 94.064 123.678C94.0953 123.575 94.1121 123.468 94.1141 123.359C94.1189 123.241 94.1271 123.119 94.1339 122.999C94.145 122.759 94.1561 122.519 94.1572 122.281C94.1716 121.997 94.1751 121.712 94.1829 121.419C94.1452 121.132 94.107 120.843 94.0753 120.554C94.0283 120.143 93.9908 119.727 93.9568 119.317Z" fill="#4071B3"/>
<path d="M120.973 112.545C120.856 112.332 120.696 112.145 120.503 111.998C120.403 111.939 120.291 111.902 120.175 111.89C120.12 111.883 120.062 111.882 120.008 111.879C120.081 112.033 120.152 112.189 120.223 112.344C120.401 112.724 120.574 113.106 120.74 113.489C121.072 114.257 121.368 115.053 121.637 115.849L121.662 115.943C121.666 115.97 121.679 115.995 121.698 116.015C121.777 116.192 121.886 116.354 122.019 116.494C122.078 116.557 122.158 116.597 122.243 116.606C122.288 116.605 122.331 116.59 122.367 116.565C122.403 116.539 122.431 116.503 122.447 116.462C122.495 116.345 122.528 116.222 122.544 116.096C122.462 115.787 122.371 115.482 122.271 115.177C121.953 114.25 121.517 113.367 120.974 112.551L120.973 112.545Z" fill="#4071B3"/>
<path d="M118.109 111.399C117.876 110.819 117.615 110.268 117.333 109.721C116.927 108.922 116.344 108.084 115.523 107.671C115.11 107.476 114.67 107.341 114.219 107.271C113.426 107.149 112.625 107.091 111.823 107.098C110.038 107.057 108.253 107.204 106.498 107.536C104.758 107.863 103.066 108.411 101.465 109.168C99.9121 109.911 98.3841 110.867 97.182 112.118C96.2078 113.11 95.5384 114.36 95.2533 115.721C95.2829 116.284 95.3386 116.849 95.4198 117.413C95.5231 118.141 95.6329 118.867 95.7491 119.59C95.944 120.43 96.1668 121.263 96.4235 122.086C96.8461 123.493 97.3737 124.866 98.0017 126.194C98.5647 127.351 99.2592 128.521 100.27 129.343C100.759 129.751 101.338 130.038 101.959 130.178C102.632 130.303 103.311 130.386 103.994 130.428C105.402 130.603 106.824 130.633 108.237 130.519C109.667 130.352 111.066 129.981 112.391 129.418C113.678 128.895 114.916 128.257 116.09 127.512C117.187 126.817 118.171 125.957 119.007 124.962C119.789 124.021 120.366 122.928 120.701 121.75C120.864 121.179 120.951 120.59 120.963 119.996C120.967 119.875 120.962 119.753 120.958 119.632C120.66 118.334 120.264 117.06 119.771 115.822C119.236 114.337 118.691 112.861 118.109 111.399ZM112.964 128.512C112.849 128.672 112.709 128.812 112.549 128.927C112.384 129.054 112.201 129.157 112.006 129.232C111.614 129.397 111.207 129.524 110.791 129.612C110.374 129.704 109.951 129.761 109.525 129.783C109.314 129.796 109.112 129.789 108.909 129.781C108.713 129.782 108.518 129.752 108.332 129.69C108.332 129.69 108.312 129.664 108.323 129.658C108.499 129.591 108.682 129.542 108.868 129.514C109.071 129.475 109.273 129.428 109.474 129.383C109.861 129.296 110.247 129.196 110.626 129.078C111.005 128.96 111.397 128.818 111.779 128.681C111.963 128.611 112.152 128.553 112.344 128.507C112.532 128.458 112.725 128.432 112.919 128.43C112.929 128.429 112.939 128.431 112.948 128.435C112.957 128.439 112.964 128.446 112.969 128.455C112.974 128.463 112.977 128.473 112.976 128.483C112.975 128.493 112.973 128.502 112.968 128.511L112.964 128.512ZM109.818 128.779C109.901 128.672 110.019 128.597 110.151 128.569C110.291 128.517 110.433 128.477 110.574 128.44C110.721 128.398 110.871 128.369 111.023 128.353C111.166 128.343 111.31 128.345 111.452 128.359C111.462 128.36 111.471 128.364 111.478 128.37C111.486 128.377 111.491 128.385 111.494 128.395C111.499 128.403 111.501 128.412 111.501 128.421C111.5 128.425 111.497 128.43 111.494 128.434C111.491 128.438 111.487 128.441 111.483 128.443C111.371 128.535 111.248 128.613 111.118 128.676C110.972 128.739 110.821 128.786 110.665 128.815C110.512 128.848 110.356 128.869 110.199 128.879C110.072 128.898 109.941 128.872 109.831 128.803C109.83 128.801 109.828 128.799 109.828 128.797C109.827 128.794 109.827 128.792 109.827 128.789C109.826 128.786 109.824 128.782 109.824 128.777L109.818 128.779ZM118.877 119.435C118.965 120.483 118.851 121.538 118.543 122.543C118.226 123.486 117.689 124.34 116.974 125.033C116.265 125.711 115.437 126.253 114.532 126.634C113.833 126.931 113.111 127.17 112.372 127.349C111.688 127.531 110.987 127.635 110.305 127.829C109.624 128.022 108.924 128.259 108.257 128.44C107.527 128.651 106.78 128.8 106.026 128.888C105.051 129.006 104.064 128.945 103.111 128.707C102.151 128.458 101.264 127.982 100.526 127.319C99.7571 126.603 99.1337 125.745 98.6898 124.793C98.1869 123.72 97.8311 122.583 97.632 121.415C97.4177 120.173 97.2799 118.918 97.2195 117.659C97.1606 116.631 97.1487 115.554 97.5446 114.631C97.9655 113.664 98.7983 113.058 99.6229 112.583C100.593 112.037 101.617 111.591 102.677 111.252C103.201 111.076 103.735 110.922 104.261 110.778L107.081 110.031C107.626 109.886 108.157 109.763 108.691 109.658C109.783 109.425 110.896 109.305 112.013 109.298C112.972 109.303 113.998 109.414 114.841 110.046C115.643 110.652 116.169 111.592 116.623 112.515C117.193 113.64 117.694 114.798 118.126 115.983C118.535 117.095 118.79 118.258 118.884 119.44L118.877 119.435ZM117.64 111.677C117.641 111.688 117.638 111.698 117.631 111.707C117.624 111.715 117.616 111.722 117.606 111.726C117.597 111.732 117.587 111.735 117.576 111.734C117.566 111.732 117.556 111.727 117.547 111.721C117.302 111.425 117.104 111.094 116.958 110.739C116.789 110.384 116.602 110.032 116.401 109.692C116.194 109.348 115.964 109.019 115.712 108.707C115.6 108.563 115.48 108.425 115.353 108.294C115.226 108.169 115.095 108.056 114.962 107.933C115.318 107.969 115.612 108.265 115.852 108.508C116.138 108.799 116.405 109.11 116.649 109.438C116.904 109.76 117.13 110.104 117.325 110.465C117.546 110.83 117.657 111.251 117.647 111.677L117.64 111.677Z" fill="#4071B3"/>
<path d="M119.677 111.676C119.584 111.487 119.482 111.279 119.37 111.088C119.281 110.906 119.156 110.745 119.001 110.615C118.837 110.498 118.601 110.526 118.407 110.501C118.25 110.491 118.094 110.483 117.941 110.462C118.549 111.825 119.05 113.249 119.575 114.666C119.622 114.795 119.671 114.925 119.721 115.055C120.002 115.707 120.338 116.333 120.725 116.927C120.896 117.226 121.131 117.483 121.414 117.679C121.443 117.699 121.475 117.715 121.509 117.724C121.543 117.732 121.578 117.734 121.613 117.729C121.648 117.726 121.683 117.717 121.715 117.702C121.744 117.683 121.77 117.659 121.79 117.631C121.824 117.578 121.848 117.521 121.862 117.46C121.763 117.031 121.648 116.606 121.525 116.187C121.027 114.642 120.413 113.136 119.69 111.683L119.677 111.676Z" fill="#4071B3"/>
<path d="M116.778 113.43C116.332 112.479 115.89 111.489 115.21 110.735C114.888 110.374 114.489 110.092 114.042 109.909C113.597 109.732 113.125 109.631 112.646 109.608C111.591 109.549 110.533 109.614 109.494 109.802C108.423 109.989 107.362 110.235 106.318 110.537L105.198 110.834C104.142 111.088 103.1 111.4 102.077 111.768C101.081 112.12 100.129 112.587 99.2421 113.161C98.8358 113.418 98.4746 113.741 98.1729 114.116C97.8838 114.495 97.683 114.935 97.5848 115.402C97.3497 116.401 97.4681 117.492 97.5296 118.53C97.6079 119.778 97.7852 121.018 98.0596 122.238C98.3047 123.309 98.7042 124.338 99.2455 125.294C99.7381 126.179 100.416 126.947 101.233 127.546C102.017 128.082 102.913 128.429 103.852 128.562C104.839 128.698 105.842 128.667 106.819 128.471C107.356 128.371 107.888 128.234 108.424 128.082C108.694 128.01 108.966 127.923 109.228 127.841C110.158 127.556 111.11 127.342 112.045 127.122C112.576 126.981 113.105 126.841 113.633 126.665C114.582 126.351 115.473 125.88 116.267 125.272C117.018 124.692 117.624 123.946 118.039 123.091C118.452 122.166 118.661 121.163 118.651 120.149C118.648 119.051 118.484 117.96 118.166 116.908C117.8 115.713 117.34 114.548 116.79 113.425L116.778 113.43ZM102.802 128.009C102.285 128.039 101.794 127.742 101.391 127.447C101.188 127.293 100.999 127.121 100.827 126.933C100.651 126.761 100.507 126.559 100.402 126.336C100.594 126.48 100.76 126.656 100.944 126.81C101.133 126.966 101.332 127.108 101.54 127.236C101.954 127.494 102.423 127.643 102.831 127.918C102.836 127.926 102.838 127.935 102.838 127.944C102.842 127.951 102.844 127.959 102.845 127.968C102.842 127.977 102.838 127.986 102.832 127.993C102.825 127.997 102.816 127.999 102.808 127.999L102.802 128.009ZM117.686 123.091C117.624 123.386 117.484 123.66 117.281 123.882C117.182 123.997 117.073 124.102 116.956 124.197C116.9 124.245 116.84 124.286 116.775 124.32C116.746 124.338 116.715 124.354 116.682 124.366C116.65 124.379 116.616 124.388 116.581 124.393C116.6 124.362 116.615 124.328 116.632 124.298C116.65 124.268 116.678 124.252 116.697 124.227C116.746 124.172 116.8 124.123 116.85 124.069C116.947 123.971 117.044 123.868 117.133 123.759C117.221 123.65 117.31 123.535 117.393 123.421C117.476 123.307 117.545 123.186 117.643 123.081C117.662 123.057 117.698 123.09 117.695 123.118L117.686 123.091ZM118.1 119.286C118.167 120.225 118.047 121.167 117.748 122.059C117.439 122.912 116.931 123.678 116.266 124.295C115.599 124.91 114.829 125.404 113.991 125.753C113.339 126.024 112.667 126.245 111.981 126.414C111.343 126.583 110.692 126.683 110.058 126.862C109.424 127.041 108.778 127.257 108.147 127.43C107.469 127.623 106.777 127.764 106.078 127.851C105.172 127.964 104.253 127.918 103.363 127.715C102.483 127.507 101.665 127.093 100.977 126.507C100.275 125.881 99.7054 125.122 99.3 124.274C98.8396 123.323 98.5168 122.312 98.3412 121.27C98.1607 120.161 98.0496 119.042 98.0086 117.92C97.9964 117.729 97.9898 117.551 97.9877 117.365C97.9795 117.351 97.9752 117.334 97.9749 117.317C97.9745 117.3 97.9788 117.283 97.9873 117.267C97.9568 116.565 98.0779 115.865 98.3424 115.214C98.7382 114.346 99.5227 113.801 100.298 113.364C101.207 112.866 102.163 112.458 103.151 112.144C103.64 111.982 104.138 111.837 104.632 111.704L107.243 111.012C107.74 110.88 108.244 110.762 108.749 110.66C109.766 110.442 110.801 110.325 111.841 110.309C112.73 110.302 113.682 110.389 114.458 110.947C115.193 111.479 115.675 112.313 116.089 113.134C116.599 114.127 117.048 115.15 117.433 116.198C117.803 117.189 118.029 118.228 118.106 119.283L118.1 119.286Z" fill="#FE5D00"/>
<path d="M116.631 112.506C116.173 111.584 115.649 110.644 114.847 110.037C114.006 109.405 112.979 109.292 112.021 109.29C110.904 109.296 109.791 109.417 108.699 109.649C108.157 109.756 107.617 109.886 107.089 110.022L104.277 110.767C103.732 110.912 103.209 111.067 102.693 111.241C101.629 111.58 100.603 112.027 99.6289 112.575C98.7968 113.054 97.9596 113.658 97.5447 114.624C97.1487 115.548 97.1547 116.626 97.2175 117.652C97.28 118.912 97.4178 120.166 97.6301 121.409C97.8291 122.578 98.1858 123.715 98.6904 124.788C99.1324 125.742 99.7541 126.601 100.521 127.32C101.263 127.985 102.155 128.46 103.121 128.705C104.076 128.94 105.066 128.998 106.042 128.877C106.796 128.789 107.543 128.639 108.273 128.429C108.951 128.249 109.638 128.012 110.322 127.818C111.005 127.624 111.703 127.516 112.388 127.338C113.127 127.159 113.849 126.92 114.548 126.623C115.45 126.242 116.275 125.7 116.983 125.024C117.697 124.332 118.235 123.478 118.551 122.534C118.861 121.531 118.978 120.479 118.895 119.432C118.801 118.25 118.547 117.086 118.14 115.972C117.71 114.787 117.209 113.629 116.641 112.504L116.631 112.506ZM118.643 120.151C118.654 121.165 118.445 122.168 118.03 123.093C117.616 123.947 117.01 124.694 116.258 125.273C115.468 125.88 114.582 126.35 113.636 126.663C113.116 126.844 112.588 126.988 112.049 127.12C111.114 127.349 110.162 127.554 109.231 127.839C108.963 127.923 108.692 128.004 108.426 128.081C107.897 128.221 107.368 128.361 106.82 128.47C105.844 128.666 104.841 128.697 103.854 128.561C102.914 128.43 102.018 128.082 101.235 127.545C100.417 126.947 99.7386 126.178 99.2451 125.293C98.7034 124.338 98.3046 123.308 98.0612 122.237C97.7869 121.017 97.6097 119.777 97.5311 118.529C97.448 117.482 97.3419 116.405 97.569 115.408C97.667 114.94 97.8684 114.499 98.1585 114.119C98.4581 113.745 98.8173 113.423 99.2217 113.166C100.109 112.592 101.06 112.125 102.057 111.773C103.079 111.405 104.121 111.093 105.178 110.839L106.307 110.539C107.352 110.237 108.412 109.991 109.483 109.804C110.523 109.616 111.581 109.551 112.636 109.61C113.117 109.632 113.591 109.733 114.04 109.909C114.479 110.095 114.871 110.378 115.186 110.736C115.881 111.495 116.323 112.494 116.755 113.433C117.306 114.556 117.766 115.721 118.132 116.917C118.451 117.969 118.615 119.062 118.618 120.162L118.643 120.151Z" fill="#1C2233"/>
<path d="M121.779 113.516C121.542 113.061 121.273 112.623 120.975 112.207C120.892 112.053 120.77 111.926 120.621 111.837C120.472 111.748 120.301 111.701 120.127 111.702L119.956 111.707L119.928 111.714C119.846 111.542 119.766 111.387 119.68 111.224C119.586 111.043 119.48 110.868 119.362 110.701C119.267 110.549 119.125 110.43 118.959 110.363C118.867 110.334 118.772 110.317 118.676 110.312C118.681 110.298 118.683 110.283 118.683 110.267C118.682 110.251 118.678 110.236 118.671 110.222C117.973 108.661 117.326 107.075 116.731 105.463C116.579 105.052 116.432 104.637 116.289 104.218C116.364 104.177 116.425 104.117 116.468 104.043C116.51 103.97 116.532 103.886 116.531 103.801C116.516 103.517 116.448 103.238 116.328 102.979C116.236 102.702 116.135 102.427 116.019 102.158C115.94 101.931 115.818 101.721 115.66 101.539C115.583 101.462 115.487 101.406 115.381 101.378C115.275 101.351 115.165 101.35 115.06 101.376C114.839 101.406 114.633 101.504 114.47 101.656C114.406 101.746 114.365 101.85 114.353 101.96C114.341 102.069 114.356 102.18 114.398 102.282C114.473 102.564 114.566 102.843 114.667 103.118C114.759 103.41 114.887 103.69 115.046 103.951C115.124 104.077 115.248 104.167 115.392 104.202C115.848 105.678 116.358 107.153 116.94 108.574C116.504 107.874 116.004 107.215 115.446 106.606C114.476 105.522 113.323 104.617 112.041 103.931C110.784 103.316 109.396 103.014 107.997 103.051C106.673 103.061 105.355 103.229 104.071 103.551L103.744 103.638C102.462 103.995 101.227 104.503 100.066 105.154C98.8327 105.822 97.7797 106.779 96.9963 107.943C96.2232 109.171 95.6691 110.525 95.3588 111.943C95.0382 113.349 94.9418 114.797 95.0733 116.233C95.0776 116.258 95.0799 116.283 95.0804 116.308C94.8961 116.391 94.7203 116.491 94.5553 116.608C94.378 116.702 94.2128 116.818 94.0634 116.952C93.9511 117.092 93.8874 117.265 93.8821 117.445C93.862 117.648 93.8555 117.853 93.8629 118.057C93.8712 118.249 93.8812 118.424 93.8908 118.606L93.8668 118.612L93.7113 118.694C93.6144 118.752 93.5269 118.824 93.4519 118.908C93.3117 119.094 93.2325 119.319 93.2252 119.552C93.173 120.062 93.1562 120.575 93.1751 121.087C93.2029 121.913 93.318 122.733 93.5183 123.534L93.6814 124.15C93.7232 124.283 93.7774 124.411 93.8432 124.534C93.909 124.652 94.0087 124.747 94.1291 124.807C94.2517 124.866 94.383 124.911 94.5089 124.959C94.6349 125.006 94.8046 125.075 94.9551 125.127C94.9763 125.129 94.9975 125.123 95.015 125.111C95.0463 125.229 95.0949 125.34 95.1362 125.455C95.2091 125.65 95.284 125.844 95.3669 126.035C95.4202 126.227 95.5239 126.401 95.6671 126.54C95.8213 126.628 95.991 126.685 96.1669 126.709L96.7865 126.846C96.8917 126.871 96.9981 126.89 97.1054 126.905L97.1353 126.897C97.4849 127.738 97.9792 128.511 98.5956 129.182C99.4273 130.035 100.439 130.691 101.557 131.102C101.429 131.489 101.383 131.899 101.423 132.305C101.3 132.392 101.205 132.513 101.151 132.653C101.096 132.793 101.084 132.947 101.115 133.094C101.162 133.269 101.246 133.432 101.36 133.573C101.474 133.713 101.616 133.828 101.778 133.91C102.128 134.108 102.497 134.271 102.879 134.397C103.265 134.539 103.66 134.656 104.061 134.746C105.766 135.137 107.536 135.091 109.258 134.844C110.173 134.715 111.081 134.532 111.979 134.317C112.836 134.116 113.687 133.886 114.522 133.603C116.188 133.073 117.757 132.272 119.163 131.233C119.801 130.77 120.357 130.205 120.809 129.558C121.037 129.239 121.206 128.881 121.306 128.501C121.383 128.14 121.297 127.736 120.93 127.574C120.849 127.537 120.76 127.52 120.672 127.527C120.547 126.923 120.289 126.356 119.915 125.866C120.495 125.101 120.918 124.229 121.16 123.3C121.402 122.371 121.458 121.403 121.325 120.452C121.387 120.404 121.446 120.352 121.499 120.299L121.969 119.873C122.111 119.766 122.231 119.632 122.321 119.478C122.378 119.287 122.382 119.085 122.332 118.892C122.307 118.685 122.278 118.478 122.243 118.274C122.224 118.153 122.201 118.035 122.18 117.914C122.202 117.913 122.222 117.903 122.237 117.886C122.339 117.765 122.438 117.639 122.539 117.52C122.63 117.418 122.715 117.311 122.794 117.2C122.858 117.091 122.891 116.966 122.886 116.84C122.876 116.701 122.854 116.564 122.818 116.43C122.598 115.412 122.241 114.427 121.759 113.504L121.779 113.516ZM115.286 103.834C115.243 103.788 115.202 103.739 115.166 103.687C115.092 103.512 115.028 103.345 114.968 103.175C114.896 102.967 114.819 102.759 114.754 102.551C114.675 102.368 114.63 102.171 114.619 101.971C114.633 101.788 114.829 101.721 114.982 101.681C115.136 101.64 115.346 101.584 115.494 101.74C115.606 101.876 115.694 102.03 115.754 102.197C115.847 102.405 115.929 102.618 116.006 102.833C116.132 103.189 116.351 103.597 116.056 103.949C116.014 103.996 115.961 104.032 115.902 104.054L115.714 104.08L115.681 104.076C115.524 104.048 115.383 103.961 115.286 103.834ZM116.048 105.557C115.965 105.316 115.883 105.077 115.804 104.843C115.77 104.76 115.752 104.671 115.749 104.582C115.759 104.385 115.948 104.315 116.098 104.237C116.761 106.158 117.495 108.055 118.3 109.926C117.741 109.647 117.437 109.086 117.14 108.556C116.752 107.566 116.394 106.562 116.05 105.563L116.048 105.557ZM96.3265 110.686C96.3189 110.542 96.3236 110.398 96.3403 110.255C96.4862 109.91 96.6471 109.575 96.8267 109.245C97.3444 108.313 98.0171 107.477 98.8157 106.772C99.2558 106.377 99.7506 106.06 100.216 105.697L100.213 105.685C99.7138 105.889 99.248 106.167 98.8315 106.509C98.3964 106.841 97.9945 107.214 97.6314 107.623C97.3351 107.955 97.0617 108.308 96.8131 108.678L96.8434 108.591C97.1104 108.091 97.431 107.623 97.7995 107.193C98.2504 106.687 98.761 106.237 99.3199 105.854C100.493 105.084 101.764 104.474 103.098 104.04C103.651 103.848 104.216 103.698 104.791 103.591C106.169 103.305 107.579 103.205 108.984 103.292C110.388 103.396 111.738 103.878 112.891 104.687C113.783 105.287 114.6 105.992 115.324 106.788C115.337 106.83 115.341 106.875 115.335 106.919C115.33 106.964 115.315 107.008 115.292 107.046C115.257 107.105 115.207 107.152 115.147 107.185C115.086 107.22 115.017 107.238 114.947 107.238C114.196 107.035 113.423 106.928 112.645 106.918C110.815 106.828 108.98 106.927 107.17 107.215C105.373 107.497 103.62 108.005 101.951 108.727C101.107 109.09 100.292 109.516 99.5112 110L99.013 110.256L97.6196 110.955C97.44 111.055 97.2531 111.142 97.0603 111.214C96.9056 111.281 96.7312 111.288 96.5718 111.233C96.4899 111.169 96.4263 111.085 96.3874 110.989C96.3403 110.895 96.3192 110.791 96.3265 110.686ZM94.1509 122.278C94.1418 122.518 94.1307 122.758 94.1277 122.996L94.1078 123.357C94.1102 123.468 94.0958 123.579 94.0649 123.687C94.0584 123.713 94.0467 123.738 94.0305 123.76C94.0143 123.782 93.994 123.8 93.9706 123.814C93.9473 123.829 93.9213 123.838 93.8941 123.842C93.867 123.847 93.8393 123.846 93.8127 123.839C93.7205 123.491 93.6289 123.146 93.5653 122.793C93.3846 121.824 93.3282 120.837 93.3973 119.855C93.3931 119.612 93.4398 119.371 93.5344 119.147C93.5927 119.046 93.6715 118.959 93.7657 118.891C93.8123 118.857 93.8599 118.828 93.9076 118.798L93.9516 119.319C93.9857 119.737 94.0257 120.154 94.0698 120.57C94.1015 120.859 94.1397 121.148 94.1774 121.435C94.1633 121.713 94.1619 121.997 94.1474 122.281L94.1509 122.278ZM95.7936 122.27C95.8251 122.679 95.8585 123.087 95.8774 123.497C95.8885 123.682 95.8898 123.867 95.8813 124.052C95.8793 124.238 95.8409 124.421 95.7684 124.593C95.7269 124.67 95.6578 124.729 95.5749 124.757C95.4906 124.785 95.3988 124.778 95.3197 124.737C95.2038 124.678 95.1062 124.589 95.0375 124.479C94.9176 124.083 94.8157 123.682 94.7197 123.28C94.3887 121.698 94.1775 120.093 94.0878 118.478C94.0736 118.256 94.0604 118.037 94.0638 117.816C94.0522 117.613 94.0813 117.411 94.1494 117.22C94.2359 117.039 94.4545 116.945 94.6116 116.828C94.7833 116.725 94.9477 116.61 95.1035 116.484C95.2296 117.765 95.4437 119.041 95.6574 120.314C95.6978 120.966 95.7548 121.624 95.8033 122.283L95.7936 122.27ZM120.7 127.761C120.756 127.764 120.812 127.776 120.863 127.799C120.914 127.822 120.96 127.855 120.998 127.896C121.057 127.968 121.099 128.052 121.121 128.142C121.142 128.232 121.142 128.327 121.121 128.417C121.045 128.783 120.894 129.13 120.678 129.435C120.263 130.047 119.748 130.585 119.156 131.027C117.852 132.016 116.398 132.788 114.849 133.315C113.275 133.86 111.659 134.274 110.016 134.553C109.248 134.689 108.472 134.78 107.692 134.827L107.416 134.802L106.308 134.715C105.722 134.691 105.141 134.591 104.58 134.416C104.337 134.329 104.109 134.208 103.901 134.055L103.96 134.069C105.55 134.424 107.219 134.275 108.799 133.926C109.683 133.737 110.55 133.488 111.416 133.233C112.282 132.978 113.14 132.744 113.989 132.465C115.674 131.947 117.279 131.2 118.76 130.245C119.124 130.006 119.471 129.751 119.801 129.481C120.101 129.244 120.437 128.996 120.594 128.63C120.706 128.35 120.741 128.045 120.694 127.748L120.7 127.761ZM120.322 127.068C120.568 127.758 120.586 128.574 119.986 129.082C119.673 129.354 119.345 129.609 119.002 129.843C117.613 130.801 116.094 131.558 114.492 132.09C114.187 132.195 113.882 132.295 113.575 132.391L113.132 132.494C112.689 132.589 112.246 132.681 111.799 132.759C110.904 132.924 109.996 133.005 109.086 133L108.712 132.985C108.597 132.983 108.483 132.974 108.369 132.956C108.276 132.936 108.157 132.891 108.13 132.787C108.102 132.683 108.14 132.59 108.24 132.582L108.252 132.579L108.264 132.576C108.268 132.576 108.271 132.575 108.274 132.573L108.271 132.561C108.271 132.557 108.27 132.553 108.268 132.549L108.264 132.537C108.264 132.534 108.263 132.53 108.262 132.527C107.977 132.516 107.697 132.449 107.438 132.329C107.378 132.302 107.299 132.265 107.285 132.196C107.271 132.127 107.319 132.091 107.365 132.062C107.483 131.996 107.61 131.947 107.741 131.917C108.319 131.727 108.906 131.555 109.492 131.389C110.67 131.057 111.863 130.76 113.022 130.361C113.665 130.157 114.294 129.906 114.901 129.611C116.608 128.934 118.202 127.938 119.412 126.54L119.442 126.506C119.468 126.548 119.498 126.588 119.527 126.627L119.532 126.645L119.537 126.665C119.556 126.693 119.577 126.718 119.601 126.742C119.632 126.782 119.672 126.814 119.718 126.837C119.734 126.833 119.779 126.857 119.794 126.843C119.869 126.778 119.856 126.666 119.837 126.579C119.812 126.475 119.772 126.375 119.716 126.284C119.709 126.258 119.686 126.234 119.669 126.209L119.774 126.076C120 126.382 120.182 126.718 120.315 127.075L120.322 127.068ZM120.964 119.629C120.97 119.749 120.973 119.872 120.971 119.992C120.958 120.586 120.87 121.175 120.709 121.747C120.37 122.922 119.79 124.014 119.007 124.954C118.17 125.948 117.186 126.807 116.089 127.502C114.92 128.248 113.685 128.886 112.399 129.408C111.074 129.971 109.676 130.342 108.246 130.509C106.838 130.668 105.411 130.557 104.003 130.419C103.321 130.377 102.641 130.293 101.969 130.167C101.347 130.028 100.767 129.742 100.278 129.333C99.2651 128.509 98.5746 127.338 98.0096 126.182C97.3821 124.856 96.8551 123.484 96.433 122.08C96.1763 121.256 95.9534 120.424 95.7586 119.584C95.643 118.857 95.5319 118.132 95.4293 117.407C95.3506 116.844 95.2924 116.278 95.2627 115.715C95.5485 114.356 96.2169 113.109 97.189 112.119C98.3912 110.868 99.9072 109.914 101.472 109.168C103.073 108.412 104.765 107.864 106.506 107.537C108.26 107.204 110.045 107.057 111.83 107.098C112.632 107.092 113.433 107.15 114.226 107.271C114.677 107.342 115.117 107.477 115.53 107.672C116.354 108.095 116.932 108.929 117.34 109.721C117.622 110.269 117.885 110.827 118.116 111.399C118.698 112.861 119.243 114.338 119.785 115.819C120.278 117.054 120.674 118.326 120.969 119.623L120.964 119.629ZM121.867 117.443C121.853 117.504 121.828 117.562 121.795 117.614C121.775 117.643 121.748 117.668 121.718 117.686C121.689 117.705 121.655 117.717 121.621 117.723C121.586 117.728 121.551 117.726 121.517 117.718C121.482 117.71 121.45 117.694 121.422 117.673C121.139 117.478 120.904 117.221 120.734 116.923C120.345 116.329 120.009 115.703 119.729 115.051C119.68 114.923 119.63 114.791 119.583 114.662C119.062 113.259 118.561 111.837 117.952 110.468C118.106 110.489 118.261 110.497 118.418 110.507C118.622 110.492 118.827 110.531 119.012 110.621C119.167 110.751 119.292 110.912 119.381 111.094C119.492 111.278 119.593 111.482 119.688 111.682C120.413 113.127 121.029 114.625 121.53 116.162C121.659 116.581 121.772 117.007 121.868 117.439L121.867 117.443ZM122.453 116.471C122.437 116.512 122.409 116.548 122.374 116.574C122.336 116.596 122.293 116.608 122.25 116.607C122.164 116.598 122.084 116.558 122.026 116.495C121.892 116.355 121.783 116.193 121.704 116.016C121.694 115.991 121.682 115.967 121.666 115.944C121.656 115.915 121.649 115.885 121.643 115.855C121.385 115.053 121.078 114.266 120.746 113.495C120.58 113.111 120.406 112.729 120.228 112.349C120.156 112.195 120.086 112.038 120.011 111.885C120.067 111.887 120.124 111.891 120.181 111.897C120.297 111.91 120.408 111.946 120.509 112.005C120.699 112.15 120.857 112.332 120.973 112.54C121.52 113.356 121.959 114.238 122.28 115.166C122.384 115.47 122.476 115.775 122.554 116.085C122.538 116.212 122.505 116.336 122.455 116.454L122.453 116.471Z" fill="#1C2233"/>
<path d="M110.454 104.104C110.812 104.252 111.162 104.419 111.501 104.604C111.841 104.784 112.171 104.982 112.49 105.198C112.648 105.305 112.802 105.418 112.966 105.527C113.041 105.582 113.119 105.633 113.2 105.679C113.294 105.733 113.397 105.768 113.497 105.814C113.548 105.839 113.614 105.783 113.579 105.73C113.478 105.559 113.351 105.404 113.203 105.271C113.048 105.14 112.885 105.017 112.717 104.902C112.385 104.681 112.038 104.484 111.678 104.312C111.32 104.139 110.948 103.996 110.567 103.884C110.188 103.752 109.791 103.681 109.39 103.674C109.39 103.674 109.374 103.678 109.394 103.688C109.719 103.858 110.098 103.952 110.454 104.104Z" fill="#1C2233"/>
<path d="M116.676 109.429C116.432 109.1 116.165 108.789 115.878 108.497C115.639 108.254 115.346 107.956 114.988 107.92C114.988 107.92 114.988 107.92 114.991 107.93C115.115 108.053 115.248 108.167 115.381 108.288C115.509 108.42 115.629 108.559 115.741 108.704C115.992 109.016 116.221 109.344 116.429 109.687C116.627 110.024 116.807 110.382 116.985 110.737C117.13 111.091 117.328 111.422 117.573 111.716C117.582 111.72 117.591 111.722 117.6 111.722C117.609 111.723 117.617 111.72 117.624 111.715C117.633 111.714 117.641 111.712 117.648 111.709C117.652 111.701 117.655 111.692 117.656 111.683C117.665 111.262 117.555 110.847 117.339 110.485C117.151 110.12 116.933 109.773 116.687 109.445L116.676 109.429Z" fill="#1C2233"/>
<path d="M101.542 127.225C101.334 127.098 101.135 126.955 100.948 126.798C100.765 126.653 100.597 126.464 100.406 126.324C100.507 126.548 100.648 126.751 100.822 126.924C100.993 127.112 101.181 127.284 101.385 127.437C101.788 127.735 102.281 128.032 102.799 128.001C102.81 128.001 102.821 127.998 102.831 127.993C102.841 127.986 102.848 127.976 102.851 127.964C102.851 127.953 102.848 127.942 102.843 127.932C102.838 127.92 102.83 127.911 102.82 127.904C102.428 127.631 101.952 127.482 101.542 127.225Z" fill="#1C2233"/>
<path d="M117.631 123.06C117.543 123.171 117.465 123.288 117.382 123.402C117.299 123.515 117.21 123.629 117.122 123.74C117.033 123.848 116.938 123.952 116.839 124.05C116.788 124.102 116.733 124.153 116.686 124.208C116.667 124.233 116.641 124.255 116.621 124.279C116.602 124.303 116.589 124.343 116.57 124.374C116.604 124.365 116.64 124.355 116.672 124.347C116.704 124.334 116.735 124.319 116.764 124.301C116.829 124.267 116.889 124.225 116.945 124.178C117.063 124.083 117.171 123.977 117.269 123.861C117.473 123.639 117.613 123.367 117.675 123.072C117.69 123.065 117.654 123.032 117.631 123.06Z" fill="#1C2233"/>
<path d="M112.914 128.426C112.72 128.429 112.526 128.455 112.338 128.504C112.147 128.55 111.958 128.608 111.773 128.677C111.383 128.817 111.01 128.955 110.621 129.075C110.232 129.195 109.855 129.291 109.469 129.38C109.269 129.433 109.066 129.472 108.863 129.511C108.676 129.539 108.494 129.587 108.318 129.655C108.302 129.66 108.31 129.683 108.326 129.687C108.513 129.748 108.708 129.778 108.904 129.778C109.109 129.789 109.314 129.79 109.519 129.78C109.946 129.759 110.37 129.703 110.787 129.613C111.203 129.525 111.61 129.399 112.002 129.235C112.197 129.16 112.38 129.057 112.545 128.93C112.707 128.813 112.848 128.672 112.966 128.511C112.972 128.502 112.976 128.491 112.977 128.48C112.978 128.47 112.975 128.459 112.969 128.45C112.963 128.441 112.955 128.433 112.944 128.429C112.934 128.425 112.922 128.424 112.911 128.425L112.914 128.426Z" fill="#1C2233"/>
<path d="M110.191 128.881C110.347 128.871 110.503 128.85 110.656 128.817C110.812 128.788 110.964 128.742 111.109 128.678C111.24 128.615 111.362 128.537 111.474 128.444C111.483 128.439 111.489 128.432 111.492 128.422C111.495 128.413 111.495 128.403 111.493 128.394C111.49 128.385 111.485 128.377 111.478 128.37C111.471 128.364 111.462 128.36 111.452 128.36C111.309 128.345 111.166 128.343 111.022 128.352C110.87 128.369 110.719 128.398 110.571 128.44C110.429 128.475 110.288 128.518 110.151 128.568C110.018 128.598 109.901 128.672 109.817 128.778C109.817 128.781 109.817 128.783 109.818 128.786C109.818 128.788 109.82 128.791 109.821 128.792C109.821 128.795 109.821 128.797 109.821 128.799C109.822 128.801 109.823 128.803 109.824 128.804C109.934 128.872 110.063 128.899 110.191 128.881Z" fill="#1C2233"/>
<path d="M119.891 127.434C119.87 127.513 119.856 127.592 119.847 127.673C119.839 127.762 119.854 127.852 119.842 127.943C119.821 128.104 119.762 128.257 119.67 128.391C119.44 128.688 119.16 128.943 118.843 129.145C118.505 129.395 118.163 129.637 117.812 129.865C117.46 130.093 117.071 130.296 116.736 130.539C117.194 130.446 117.635 130.288 118.047 130.07C118.467 129.872 118.867 129.635 119.242 129.364C119.602 129.133 119.902 128.821 120.12 128.453C120.283 128.13 120.417 127.573 120.012 127.368C120.001 127.361 119.988 127.358 119.975 127.356C119.962 127.357 119.95 127.36 119.939 127.366C119.927 127.371 119.916 127.379 119.906 127.388C119.895 127.401 119.89 127.417 119.891 127.434Z" fill="#1C2233"/>
<path d="M115.779 103.724C115.739 103.72 115.7 103.716 115.659 103.707C115.618 103.693 115.579 103.672 115.544 103.646C115.469 103.587 115.403 103.516 115.35 103.436C115.284 103.338 115.229 103.237 115.169 103.133C115.138 103.08 115.108 103.024 115.077 102.963C115.048 102.904 115.013 102.849 114.973 102.796C114.968 102.843 114.971 102.891 114.981 102.938L115.024 103.101C115.056 103.204 115.095 103.303 115.142 103.399C115.213 103.588 115.345 103.746 115.517 103.849C115.601 103.896 115.699 103.915 115.794 103.902C115.811 103.894 115.825 103.881 115.833 103.864C115.842 103.845 115.845 103.823 115.84 103.802C115.841 103.783 115.836 103.765 115.826 103.748C115.813 103.734 115.797 103.722 115.779 103.716L115.779 103.724Z" fill="#1C2233"/>
<path d="M118.106 111.399C117.874 110.819 117.612 110.269 117.33 109.721C116.924 108.922 116.341 108.085 115.52 107.672C115.107 107.477 114.668 107.342 114.216 107.271C113.942 107.217 113.665 107.182 113.386 107.164C113.563 107.283 113.713 107.438 113.827 107.617C113.942 107.797 114.018 107.998 114.052 108.208C114.064 108.439 114.023 108.669 113.934 108.881C113.844 109.096 113.706 109.287 113.53 109.439C114.011 109.547 114.463 109.755 114.858 110.049C115.66 110.656 116.187 111.596 116.641 112.521C117.211 113.645 117.712 114.802 118.143 115.986C118.551 117.1 118.805 118.264 118.898 119.447C118.981 120.491 118.863 121.541 118.552 122.54C118.236 123.485 117.697 124.339 116.982 125.031C116.271 125.708 115.444 126.25 114.54 126.632C113.84 126.929 113.118 127.168 112.38 127.347C111.695 127.529 110.996 127.633 110.313 127.827C109.629 128.021 108.931 128.255 108.266 128.438C107.536 128.648 106.79 128.798 106.035 128.886C105.055 129.005 104.062 128.943 103.105 128.703C102.146 128.455 101.261 127.98 100.523 127.319C99.755 126.604 99.1318 125.747 98.6877 124.796C98.1847 123.722 97.8287 122.585 97.6294 121.416C97.4151 120.173 97.2773 118.919 97.2168 117.659C97.158 116.632 97.1461 115.555 97.542 114.631C97.9629 113.664 98.7956 113.059 99.6203 112.584C99.8448 112.456 100.074 112.329 100.307 112.207C100.151 112.188 100.005 112.126 99.8837 112.027C99.7626 111.928 99.672 111.797 99.6224 111.649C99.5345 111.317 99.6868 110.973 99.8665 110.684C100.149 110.227 100.493 109.812 100.889 109.448C99.5184 110.129 98.2676 111.028 97.1857 112.111C96.2096 113.104 95.5393 114.357 95.2546 115.721C95.2843 116.284 95.34 116.848 95.4212 117.413C95.5245 118.141 95.6342 118.866 95.7505 119.59C95.9454 120.43 96.1682 121.262 96.4249 122.086C96.8475 123.492 97.375 124.866 98.0031 126.194C98.5661 127.351 99.2606 128.52 100.271 129.343C100.76 129.751 101.339 130.037 101.96 130.178C102.633 130.302 103.313 130.386 103.996 130.427C105.403 130.602 106.825 130.633 108.239 130.519C109.669 130.352 111.067 129.981 112.392 129.418C113.68 128.895 114.918 128.257 116.091 127.512C117.188 126.817 118.172 125.957 119.008 124.962C119.79 124.021 120.368 122.927 120.703 121.75C120.865 121.179 120.953 120.589 120.964 119.996C120.968 119.875 120.964 119.752 120.959 119.632C120.662 118.333 120.265 117.059 119.772 115.822C119.233 114.338 118.688 112.861 118.106 111.399ZM109.815 128.778C109.898 128.67 110.016 128.596 110.148 128.567C110.288 128.515 110.429 128.476 110.571 128.438C110.718 128.397 110.868 128.368 111.02 128.351C111.163 128.342 111.306 128.344 111.449 128.357C111.459 128.359 111.468 128.363 111.475 128.369C111.483 128.375 111.488 128.384 111.491 128.393C111.495 128.401 111.498 128.41 111.497 128.419C111.496 128.424 111.494 128.429 111.491 128.432C111.488 128.436 111.484 128.439 111.48 128.441C111.368 128.534 111.245 128.612 111.114 128.675C110.97 128.739 110.818 128.786 110.662 128.814C110.509 128.846 110.353 128.868 110.196 128.878C110.068 128.897 109.938 128.87 109.828 128.802C109.826 128.8 109.825 128.798 109.825 128.795C109.824 128.793 109.824 128.79 109.824 128.788C109.822 128.784 109.821 128.78 109.821 128.776L109.815 128.778ZM112.962 128.512C112.847 128.672 112.707 128.813 112.547 128.928C112.382 129.056 112.199 129.158 112.003 129.232C111.612 129.398 111.205 129.525 110.788 129.612C110.372 129.704 109.948 129.761 109.522 129.783C109.312 129.796 109.109 129.79 108.906 129.782C108.71 129.783 108.515 129.752 108.329 129.691C108.329 129.691 108.309 129.664 108.321 129.659C108.496 129.591 108.679 129.543 108.866 129.515C109.069 129.476 109.27 129.429 109.472 129.384C109.859 129.296 110.244 129.196 110.623 129.079C111.002 128.961 111.394 128.819 111.776 128.681C111.961 128.612 112.149 128.554 112.341 128.508C112.529 128.458 112.722 128.432 112.917 128.43C112.926 128.43 112.936 128.431 112.946 128.435C112.954 128.44 112.961 128.447 112.966 128.456C112.971 128.464 112.974 128.474 112.973 128.483C112.973 128.493 112.97 128.503 112.966 128.511L112.962 128.512ZM117.645 111.682C117.646 111.693 117.643 111.703 117.636 111.712C117.629 111.72 117.621 111.727 117.611 111.731C117.602 111.737 117.592 111.74 117.581 111.739C117.571 111.737 117.561 111.732 117.552 111.726C117.307 111.43 117.109 111.099 116.963 110.744C116.794 110.389 116.607 110.037 116.406 109.697C116.199 109.353 115.969 109.024 115.717 108.712C115.605 108.568 115.485 108.43 115.358 108.299C115.231 108.174 115.1 108.061 114.967 107.938C115.323 107.974 115.617 108.27 115.857 108.513C116.143 108.805 116.409 109.115 116.654 109.443C116.906 109.764 117.129 110.106 117.323 110.465C117.543 110.83 117.655 111.251 117.644 111.678L117.645 111.682Z" fill="#1058AB"/>
<path d="M102.1 108.369C101.534 108.352 100.883 108.264 100.586 107.782C100.359 107.415 100.416 106.953 100.56 106.553C100.928 105.524 101.765 104.791 102.709 104.184C101.52 104.595 100.388 105.157 99.3406 105.855C98.7754 106.235 98.2595 106.684 97.8046 107.192C97.4329 107.622 97.1089 108.091 96.8385 108.592L96.8082 108.679C97.0581 108.309 97.3328 107.956 97.6305 107.623C97.9936 107.214 98.3956 106.841 98.8306 106.509C99.246 106.166 99.7107 105.887 100.209 105.682L100.212 105.694C99.7467 106.057 99.2524 106.376 98.8118 106.769C98.013 107.474 97.3397 108.311 96.8208 109.242C96.6432 109.571 96.4844 109.915 96.3364 110.251C96.3153 110.397 96.3057 110.544 96.3077 110.691C96.3009 110.798 96.3227 110.905 96.3707 111.001C96.4192 111.097 96.4923 111.178 96.5825 111.236C96.744 111.298 96.923 111.296 97.0828 111.23C97.2716 111.153 97.4546 111.062 97.6303 110.958L99.0241 110.253L99.5229 109.999C100.303 109.514 101.118 109.088 101.962 108.724C102.235 108.602 102.513 108.49 102.792 108.382C102.564 108.391 102.327 108.379 102.1 108.369Z" fill="#1058AB"/>
<path d="M110.964 103.703C110.323 103.484 109.657 103.346 108.982 103.292C108.515 103.253 108.046 103.242 107.578 103.258C108.024 103.394 108.474 103.519 108.913 103.669C109.941 104.025 110.979 104.588 111.479 105.555C111.687 105.967 111.783 106.427 111.757 106.888C112.056 106.89 112.355 106.899 112.655 106.913C113.432 106.928 114.204 107.04 114.954 107.244C115.022 107.245 115.088 107.228 115.148 107.195C115.207 107.162 115.257 107.114 115.292 107.056C115.315 107.017 115.329 106.974 115.334 106.93C115.339 106.886 115.336 106.841 115.324 106.798C114.6 106.003 113.782 105.298 112.89 104.698C112.294 104.283 111.647 103.949 110.964 103.703ZM113.575 105.733C113.61 105.787 113.544 105.842 113.492 105.817C113.392 105.77 113.292 105.737 113.196 105.681C113.1 105.626 113.036 105.578 112.961 105.53C112.804 105.42 112.65 105.307 112.487 105.2C112.17 104.984 111.841 104.785 111.501 104.606C111.162 104.422 110.809 104.261 110.454 104.106C110.098 103.95 109.717 103.856 109.37 103.685C109.37 103.685 109.367 103.671 109.367 103.673C109.769 103.679 110.167 103.75 110.546 103.882C110.931 103.997 111.305 104.145 111.665 104.323C112.024 104.495 112.37 104.693 112.7 104.915C112.87 105.028 113.035 105.149 113.193 105.278C113.343 105.408 113.471 105.56 113.573 105.729L113.575 105.733Z" fill="#1058AB"/>
<path d="M95.4587 119.143L95.312 119.911C95.2362 120.359 95.1466 120.81 95.0225 121.237C94.9864 121.424 94.9075 121.601 94.792 121.753C94.7056 121.855 94.5839 121.92 94.4515 121.935C94.523 122.382 94.604 122.825 94.7035 123.265C94.7934 123.669 94.8953 124.069 95.0212 124.463C95.0936 124.578 95.1971 124.669 95.3195 124.726C95.3986 124.767 95.4904 124.774 95.5747 124.746C95.6576 124.718 95.7267 124.659 95.7682 124.582C95.8409 124.417 95.8809 124.239 95.8859 124.059C95.8954 123.874 95.894 123.689 95.8819 123.504C95.863 123.094 95.8296 122.686 95.7982 122.278C95.7492 121.617 95.6941 120.958 95.6501 120.301C95.5824 119.908 95.5173 119.525 95.4587 119.143Z" fill="#1058AB"/>
<path d="M93.4533 122.029C93.484 122.282 93.5207 122.533 93.5663 122.777C93.6259 123.131 93.7181 123.479 93.8097 123.825C93.8363 123.831 93.864 123.833 93.8911 123.829C93.9182 123.825 93.9443 123.816 93.9678 123.801C93.9913 123.787 94.0117 123.769 94.0279 123.746C94.044 123.724 94.0556 123.699 94.062 123.672C94.0888 123.571 94.1021 123.467 94.1016 123.362C94.1064 123.244 94.1147 123.122 94.1215 123.002C94.1325 122.762 94.1436 122.522 94.1447 122.284C94.1592 122 94.1626 121.715 94.1704 121.422C94.1396 121.193 94.1112 120.965 94.0824 120.736C93.8964 121.179 93.6816 121.609 93.4393 122.024L93.4533 122.029Z" fill="#1058AB"/>
<path d="M119.211 113.668C119.335 113.999 119.455 114.328 119.576 114.655C119.625 114.786 119.675 114.916 119.722 115.044C120.003 115.696 120.34 116.322 120.728 116.916C120.898 117.214 121.133 117.471 121.416 117.666C121.444 117.687 121.477 117.703 121.511 117.711C121.545 117.719 121.581 117.72 121.615 117.715C121.685 117.703 121.747 117.665 121.79 117.609C121.822 117.556 121.846 117.499 121.86 117.439C121.763 117.009 121.648 116.582 121.523 116.166C121.398 115.75 121.244 115.316 121.086 114.897C120.781 114.861 120.488 114.763 120.223 114.608C119.83 114.36 119.487 114.04 119.211 113.666L119.211 113.668Z" fill="#1058AB"/>
<path d="M122.278 115.173C122.256 115.102 122.231 115.032 122.202 114.964C121.904 115.034 121.592 114.997 121.32 114.86L121.27 114.833C121.396 115.172 121.517 115.509 121.627 115.852L121.652 115.946C121.656 115.973 121.669 115.998 121.688 116.018C121.768 116.195 121.876 116.357 122.01 116.497C122.069 116.559 122.148 116.599 122.234 116.609C122.278 116.611 122.322 116.6 122.359 116.575C122.395 116.55 122.423 116.514 122.439 116.473C122.487 116.356 122.52 116.233 122.536 116.107C122.467 115.791 122.38 115.48 122.278 115.173Z" fill="#1058AB"/>
<path d="M107.966 104.055C107.536 103.893 107.072 103.845 106.619 103.914C106.137 103.956 105.661 104.053 105.2 104.203L104.93 104.298C104.736 104.345 104.545 104.404 104.358 104.475C103.936 104.616 103.536 104.815 103.169 105.066C102.775 105.346 102.155 105.825 102.448 106.378C102.597 106.663 102.923 106.703 103.215 106.707C103.47 106.705 103.724 106.683 103.975 106.642C104.458 106.57 104.936 106.474 105.409 106.354C105.88 106.229 106.363 106.101 106.831 105.941C107.267 105.825 107.676 105.624 108.033 105.348C108.203 105.204 108.325 105.012 108.385 104.798C108.424 104.644 108.404 104.481 108.327 104.343C108.251 104.204 108.124 104.1 107.973 104.051L107.966 104.055Z" fill="#7298D0"/>
<path d="M109.159 107.601C109.038 107.567 108.911 107.554 108.785 107.561C108.413 107.615 108.045 107.698 107.684 107.808C106.654 108.056 105.597 108.24 104.602 108.647C104.236 108.797 102.544 109.746 103.704 110.093C104.336 110.278 104.975 110.164 105.596 110.042C106.255 109.917 106.91 109.762 107.557 109.582C107.891 109.497 108.219 109.389 108.539 109.26C108.999 109.061 110.066 108.428 109.514 107.813C109.417 107.711 109.295 107.638 109.159 107.601Z" fill="#7298D0"/>
<path d="M94.8842 117.78C94.8565 117.695 94.8117 117.616 94.7527 117.549C94.719 117.514 94.6753 117.49 94.6275 117.48C94.5786 117.469 94.5276 117.475 94.4819 117.495C94.4211 117.533 94.3725 117.587 94.342 117.652C94.3096 117.727 94.2845 117.805 94.2672 117.886C94.2335 118.046 94.2118 118.209 94.202 118.373C94.1898 118.537 94.1998 118.702 94.2316 118.864C94.2434 118.94 94.2632 119.015 94.2909 119.087C94.2994 119.111 94.3098 119.134 94.322 119.156L94.3273 119.176C94.3331 119.198 94.3389 119.22 94.3607 119.238C94.3746 119.28 94.3946 119.32 94.42 119.357C94.4542 119.411 94.4843 119.468 94.5101 119.527C94.518 119.541 94.529 119.552 94.5421 119.559C94.5548 119.567 94.5691 119.571 94.5839 119.572C94.5993 119.572 94.6145 119.568 94.6278 119.56C94.6404 119.553 94.6507 119.542 94.6579 119.529C94.7137 119.441 94.7738 119.37 94.8233 119.29C94.8473 119.26 94.8672 119.227 94.8825 119.191C94.8999 119.152 94.9003 119.146 94.8922 119.172C94.9136 119.138 94.9306 119.102 94.9427 119.064C94.9548 119.029 94.9546 119.02 94.9374 119.044C94.9203 119.068 94.9266 119.06 94.9684 118.968C94.9793 118.935 94.9884 118.902 94.9955 118.868C95.052 118.509 95.0127 118.141 94.8815 117.802L94.8842 117.78Z" fill="#7298D0"/>
<path d="M93.6897 119.529C93.67 119.544 93.6533 119.563 93.6404 119.584C93.6247 119.61 93.6149 119.639 93.6115 119.669C93.5969 119.725 93.5863 119.782 93.5799 119.84C93.5577 119.957 93.5806 120.077 93.6439 120.178C93.6445 120.188 93.6472 120.199 93.6518 120.208C93.6613 120.222 93.6726 120.235 93.6854 120.246C93.6903 120.252 93.6968 120.257 93.7042 120.26L93.7261 120.254C93.7345 120.254 93.7428 120.252 93.7501 120.248C93.7577 120.248 93.7651 120.246 93.772 120.242C93.7886 120.225 93.8021 120.205 93.8117 120.183C93.8328 120.158 93.8486 120.13 93.8581 120.1C93.8657 120.064 93.8711 120.027 93.8741 119.991C93.8766 119.927 93.8718 119.863 93.8598 119.8L93.818 119.642C93.8132 119.584 93.7607 119.491 93.6897 119.529Z" fill="#7298D0"/>
<path d="M119.398 111.874C119.354 111.789 119.305 111.706 119.251 111.626C119.223 111.574 119.193 111.524 119.16 111.475C119.126 111.437 119.086 111.405 119.051 111.371C119.031 111.352 119.005 111.339 118.977 111.333C118.948 111.328 118.919 111.33 118.892 111.341C118.865 111.353 118.842 111.371 118.825 111.395C118.808 111.419 118.799 111.448 118.799 111.477C118.805 111.596 118.82 111.714 118.844 111.831L118.931 112.16C118.941 112.212 118.955 112.264 118.972 112.314C118.988 112.359 119.009 112.402 119.034 112.443C119.047 112.464 119.062 112.483 119.078 112.502L119.082 112.518L119.122 112.572C119.181 112.611 119.193 112.623 119.158 112.603C119.17 112.614 119.183 112.625 119.196 112.635C119.211 112.644 119.226 112.657 119.212 112.646C119.253 112.682 119.299 112.71 119.344 112.743C119.356 112.75 119.369 112.754 119.382 112.755C119.394 112.755 119.407 112.751 119.418 112.745C119.43 112.741 119.442 112.734 119.45 112.724C119.459 112.715 119.466 112.703 119.469 112.691C119.488 112.648 119.503 112.604 119.516 112.559L119.538 112.5C119.541 112.439 119.545 112.421 119.546 112.448C119.547 112.476 119.549 112.46 119.556 112.39L119.55 112.366C119.536 112.41 119.536 112.395 119.552 112.316C119.55 112.278 119.546 112.24 119.539 112.202C119.513 112.087 119.469 111.977 119.409 111.875L119.398 111.874Z" fill="#7298D0"/>
<path d="M119.852 113.096C119.82 113.064 119.778 113.042 119.733 113.035L119.696 113.032C119.682 113.034 119.668 113.038 119.654 113.043L119.616 113.053C119.594 113.066 119.576 113.085 119.565 113.108C119.544 113.134 119.531 113.164 119.526 113.197C119.52 113.229 119.522 113.262 119.531 113.294C119.532 113.319 119.539 113.344 119.55 113.366C119.569 113.407 119.6 113.441 119.638 113.465C119.675 113.489 119.719 113.503 119.764 113.504C119.775 113.51 119.788 113.512 119.801 113.509C119.813 113.505 119.823 113.497 119.829 113.486L119.841 113.464C119.859 113.451 119.874 113.434 119.885 113.414C119.902 113.382 119.912 113.347 119.913 113.31C119.916 113.273 119.91 113.235 119.896 113.199C119.884 113.162 119.863 113.128 119.834 113.1L119.852 113.096Z" fill="#7298D0"/>
<path d="M121.046 112.877C121.034 112.852 121.019 112.829 121 112.808C120.969 112.762 120.926 112.725 120.877 112.699C120.832 112.675 120.764 112.633 120.712 112.649L120.654 112.664C120.65 112.664 120.646 112.665 120.642 112.668C120.642 112.669 120.642 112.671 120.642 112.673C120.643 112.675 120.644 112.676 120.645 112.678C120.645 112.68 120.645 112.683 120.645 112.685C120.646 112.687 120.647 112.69 120.649 112.692L120.659 112.73C120.669 112.775 120.688 112.818 120.714 112.856C120.722 112.875 120.732 112.893 120.743 112.91C120.756 112.928 120.767 112.946 120.777 112.966C120.806 113.019 120.847 113.065 120.896 113.101L120.919 113.116C120.935 113.129 120.95 113.143 120.964 113.157C120.969 113.163 120.975 113.166 120.982 113.168L121 113.163L121.018 113.158C121.023 113.154 121.027 113.147 121.028 113.14L121.046 113.08L121.043 113.066C121.05 113.047 121.054 113.026 121.054 113.005C121.056 112.974 121.053 112.942 121.045 112.912C121.057 112.911 121.053 112.897 121.046 112.877Z" fill="#7298D0"/>
<path d="M115.555 102.189C115.518 102.098 115.451 102.021 115.365 101.972C115.323 101.943 115.273 101.928 115.222 101.929C115.171 101.932 115.122 101.949 115.081 101.979C115.066 101.994 115.056 102.013 115.053 102.034C115.051 102.055 115.056 102.076 115.069 102.093C115.087 102.119 115.107 102.142 115.13 102.163C115.162 102.186 115.169 102.191 115.146 102.178L115.165 102.192C115.165 102.198 115.166 102.203 115.169 102.208C115.178 102.24 115.207 102.262 115.222 102.294C115.237 102.327 115.256 102.356 115.229 102.318C115.235 102.334 115.24 102.351 115.242 102.368C115.267 102.454 115.305 102.537 115.354 102.612C115.379 102.652 115.408 102.689 115.439 102.724C115.467 102.751 115.496 102.776 115.527 102.799C115.534 102.806 115.543 102.81 115.552 102.812C115.561 102.813 115.57 102.81 115.578 102.805C115.586 102.806 115.595 102.803 115.602 102.799C115.609 102.793 115.614 102.785 115.617 102.776C115.631 102.732 115.639 102.687 115.641 102.641C115.643 102.596 115.643 102.551 115.64 102.507C115.633 102.396 115.604 102.288 115.555 102.189Z" fill="white"/>
<path d="M120.324 127.068C120.193 126.71 120.013 126.373 119.787 126.066L119.683 126.198C119.691 126.226 119.714 126.25 119.731 126.273C119.786 126.365 119.826 126.465 119.852 126.568C119.864 126.621 119.867 126.675 119.862 126.728C119.957 126.931 120.006 127.152 120.006 127.376L120.02 127.373C120.422 127.576 120.291 128.135 120.126 128.458C119.908 128.826 119.608 129.137 119.249 129.369C118.873 129.64 118.473 129.876 118.053 130.073C117.665 130.278 117.252 130.431 116.824 130.529C115.814 130.994 114.766 131.369 113.691 131.652C112.893 131.864 112.047 132.05 111.232 131.853C110.939 131.779 110.609 131.591 110.631 131.279C110.643 131.186 110.678 131.098 110.734 131.023L109.485 131.369C108.886 131.528 108.312 131.708 107.736 131.897C107.604 131.927 107.477 131.976 107.358 132.042C107.313 132.071 107.269 132.115 107.278 132.176C107.288 132.238 107.371 132.282 107.431 132.309C107.684 132.424 107.957 132.491 108.235 132.504L108.247 132.501C108.249 132.505 108.25 132.51 108.25 132.515C108.252 132.519 108.254 132.523 108.254 132.527C108.256 132.531 108.257 132.535 108.257 132.539L108.247 132.542L108.235 132.545L108.223 132.548C108.121 132.552 108.092 132.675 108.113 132.755C108.134 132.835 108.263 132.91 108.352 132.922C108.466 132.941 108.58 132.952 108.696 132.953L109.069 132.967C109.979 132.972 110.887 132.891 111.782 132.727C112.231 132.649 112.675 132.559 113.117 132.461L113.56 132.359C113.868 132.262 114.173 132.164 114.478 132.058C116.079 131.527 117.597 130.771 118.986 129.813C119.326 129.573 119.657 129.321 119.971 129.049C120.588 128.573 120.571 127.757 120.324 127.068Z" fill="#1058AB"/>
<path d="M120.973 112.545C120.856 112.332 120.696 112.145 120.503 111.998C120.403 111.939 120.291 111.902 120.175 111.89C120.12 111.883 120.062 111.882 120.008 111.879C120.081 112.033 120.152 112.189 120.223 112.344C120.401 112.724 120.574 113.106 120.74 113.489C121.072 114.257 121.368 115.053 121.637 115.849L121.662 115.943C121.666 115.97 121.679 115.995 121.698 116.015C121.777 116.192 121.886 116.354 122.019 116.494C122.078 116.557 122.158 116.597 122.243 116.606C122.288 116.605 122.331 116.59 122.367 116.565C122.403 116.539 122.431 116.503 122.447 116.462C122.495 116.345 122.528 116.222 122.544 116.096C122.462 115.787 122.371 115.482 122.271 115.177C121.953 114.25 121.517 113.367 120.974 112.551L120.973 112.545Z" fill="#4071B3"/>
<path d="M117.491 129.096C117.42 129.073 117.346 129.067 117.272 129.077C116.936 129.032 116.594 129.103 116.305 129.28C116.022 129.428 115.739 129.563 115.445 129.703C115.151 129.843 114.89 129.97 114.617 130.117C114.474 130.192 114.337 130.278 114.207 130.375C114.148 130.419 114.091 130.468 114.031 130.516L113.947 130.585L113.921 130.592C113.905 130.603 113.892 130.616 113.882 130.63C113.872 130.646 113.866 130.664 113.863 130.682C113.861 130.7 113.863 130.719 113.869 130.736C113.875 130.754 113.885 130.769 113.898 130.782C114.008 130.85 114.135 130.884 114.264 130.88C114.456 130.896 114.65 130.888 114.841 130.857C115.195 130.796 115.541 130.697 115.874 130.564C116.232 130.429 116.579 130.266 116.911 130.075C117.089 129.968 117.24 129.822 117.352 129.646C117.378 129.611 117.402 129.575 117.424 129.537C117.439 129.506 117.455 129.437 117.478 129.395C117.518 129.335 117.545 129.268 117.558 129.198C117.56 129.176 117.554 129.154 117.542 129.136C117.53 129.118 117.513 129.104 117.493 129.096L117.491 129.096Z" fill="#7298D0"/>
<path d="M118.96 128.113C118.942 128.081 118.918 128.052 118.889 128.029C118.854 128.004 118.813 127.987 118.771 127.979C118.736 127.97 118.7 127.968 118.665 127.975L118.621 127.987C118.507 128.013 118.405 128.076 118.329 128.165C118.29 128.209 118.254 128.257 118.223 128.306L118.199 128.347C118.18 128.375 118.167 128.408 118.161 128.442C118.138 128.483 118.125 128.528 118.123 128.574C118.127 128.58 118.129 128.587 118.128 128.594C118.123 128.649 118.137 128.704 118.169 128.748C118.201 128.792 118.249 128.822 118.302 128.831C118.356 128.848 118.414 128.851 118.469 128.84L118.491 128.834C118.62 128.81 118.739 128.75 118.834 128.66C118.879 128.618 118.918 128.57 118.95 128.518C118.968 128.481 118.983 128.443 118.994 128.403C119.002 128.376 119.007 128.347 119.008 128.318C119.019 128.246 119.002 128.173 118.96 128.113Z" fill="#7298D0"/>
<path d="M113.825 133.229C113.579 133.268 113.326 133.236 113.096 133.138C112.972 133.073 112.875 132.967 112.822 132.838C112.357 132.974 111.886 133.108 111.417 133.243C110.551 133.489 109.681 133.737 108.8 133.926C107.214 134.269 105.56 134.426 103.959 134.069L103.902 134.057C104.11 134.209 104.339 134.331 104.581 134.418C105.141 134.59 105.72 134.69 106.305 134.715L107.415 134.81L107.681 134.83C108.455 134.78 109.226 134.688 109.989 134.551C111.632 134.274 113.248 133.86 114.822 133.313C115.263 133.158 115.706 132.982 116.127 132.796C115.375 133.017 114.604 133.163 113.823 133.229L113.825 133.229Z" fill="#1058AB"/>
<path d="M119.138 130.4C118.696 130.565 118.273 130.775 117.875 131.027C117.668 131.142 117.458 131.251 117.25 131.36C117.048 131.437 116.869 131.564 116.73 131.729C116.954 131.774 117.187 131.745 117.394 131.647C117.625 131.564 117.85 131.468 118.069 131.359C118.514 131.162 118.901 130.855 119.194 130.466C119.197 130.456 119.199 130.446 119.198 130.435C119.199 130.425 119.196 130.414 119.19 130.405C119.184 130.397 119.176 130.39 119.166 130.386C119.156 130.383 119.146 130.382 119.135 130.383L119.138 130.4Z" fill="#7298D0"/>
<path d="M119.965 129.835L119.865 129.862C119.841 129.868 119.818 129.879 119.797 129.893L119.748 129.918L119.701 129.952C119.678 129.965 119.656 129.98 119.636 129.997C119.599 130.022 119.572 130.059 119.557 130.102C119.552 130.115 119.551 130.129 119.554 130.143C119.558 130.157 119.566 130.169 119.577 130.177C119.6 130.189 119.625 130.195 119.65 130.194C119.677 130.194 119.703 130.187 119.726 130.174C119.753 130.171 119.779 130.164 119.804 130.154C119.828 130.14 119.851 130.124 119.872 130.106C119.91 130.072 119.94 130.029 119.959 129.982L119.966 129.967L119.979 129.943C119.988 129.92 119.993 129.896 119.996 129.872C119.995 129.866 119.994 129.86 119.991 129.854C119.992 129.848 119.99 129.842 119.987 129.838C119.985 129.835 119.983 129.833 119.981 129.832C119.978 129.83 119.975 129.829 119.972 129.829C119.969 129.831 119.967 129.833 119.965 129.835Z" fill="#7298D0"/>
<rect x="129.023" y="19" width="89.8695" height="125.817" rx="7.67386" transform="rotate(8.89123 129.023 19)" fill="white"/>
<path d="M173.591 73.3784C169.345 72.7141 166.769 74.4144 165.395 75.8806C164.533 74.0646 162.612 71.661 158.372 70.9976C153.299 70.2041 147.317 72.7346 146.153 80.1702C145.678 82.8986 145.992 85.7057 147.057 88.2593C148.118 90.9381 150.709 94.4369 154.761 98.6351C156.331 100.287 157.81 101.698 158.767 102.588C160.601 104.305 160.681 104.336 160.925 104.374L160.961 104.38C161.193 104.416 161.371 104.364 163.559 103.349C164.742 102.795 166.576 101.902 168.586 100.816C173.73 98.0382 177.273 95.4868 179.116 93.2441C180.913 91.1395 182.069 88.5615 182.447 85.8174C183.57 78.406 178.64 74.1683 173.591 73.3784Z" fill="#FF1C45"/>
<path d="M137.175 41.1669C137.365 39.9538 137.755 38.8274 138.346 37.7875C138.938 36.7341 139.654 35.8657 140.493 35.1822C142.141 33.8246 143.842 33.0618 145.594 32.8941L146.269 34.8017C144.97 34.9851 143.785 35.4556 142.714 36.2132C141.656 36.9728 140.853 37.9587 140.304 39.1709C141.075 38.3939 142.114 38.1077 143.421 38.3122C144.526 38.4851 145.4 39.036 146.041 39.9649C146.683 40.8938 146.905 41.9917 146.707 43.2587C146.485 44.674 145.85 45.7345 144.801 46.4402C143.753 47.1325 142.623 47.3838 141.41 47.194C139.86 46.9515 138.713 46.2542 137.968 45.102C137.211 43.9343 136.947 42.6226 137.175 41.1669ZM139.638 41.573C139.505 42.4221 139.626 43.1521 140 43.7629C140.387 44.3759 140.985 44.7456 141.794 44.8721C142.401 44.967 142.932 44.8361 143.388 44.4794C143.844 44.1227 144.12 43.6411 144.215 43.0346C144.322 42.3472 144.208 41.7562 143.871 41.2616C143.534 40.7671 143.008 40.4639 142.294 40.3521C141.202 40.1814 140.317 40.5883 139.638 41.573Z" fill="#FF1C45"/>
</g>
<defs>
<filter id="filter0_d" x="0.427963" y="0.427963" width="276.843" height="209.238" filterUnits="userSpaceOnUse" color-interpolation-filters="sRGB">
<feFlood flood-opacity="0" result="BackgroundImageFix"/>
<feColorMatrix in="SourceAlpha" type="matrix" values="0 0 0 0 0 0 0 0 0 0 0 0 0 0 0 0 0 0 127 0"/>
<feOffset/>
<feGaussianBlur stdDeviation="9.28602"/>
<feColorMatrix type="matrix" values="0 0 0 0 1 0 0 0 0 1 0 0 0 0 1 0 0 0 0.5 0"/>
<feBlend mode="normal" in2="BackgroundImageFix" result="effect1_dropShadow"/>
<feBlend mode="normal" in="SourceGraphic" in2="effect1_dropShadow" result="shape"/>
</filter>
<radialGradient id="paint0_radial" cx="0" cy="0" r="1" gradientUnits="userSpaceOnUse" gradientTransform="translate(94.01 132.316) rotate(90) scale(60.739 54.1208)">
<stop stop-color="#6E9ED5"/>
<stop offset="1" stop-color="#1058AB"/>
</radialGradient>
<linearGradient id="paint1_linear" x1="101.936" y1="118.706" x2="103.838" y2="118.202" gradientUnits="userSpaceOnUse">
<stop offset="0.25" stop-color="#9FD0DC"/>
<stop offset="1" stop-color="#0037A2"/>
</linearGradient>
<linearGradient id="paint2_linear" x1="110.719" y1="116.011" x2="112.622" y2="115.506" gradientUnits="userSpaceOnUse">
<stop offset="0.25" stop-color="#9FD0DC"/>
<stop offset="1" stop-color="#0037A2"/>
</linearGradient>
</defs>
</svg>
