<svg width="12" height="12" viewBox="0 0 12 12" fill="none" xmlns="http://www.w3.org/2000/svg">
<path d="M10.6094 5.60938H6.39062V1.39062C6.39062 1.17488 6.21574 1 6 1C5.78426 1 5.60938 1.17488 5.60938 1.39062V5.60938H1.39062C1.17488 5.60938 1 5.78426 1 6C1 6.21574 1.17488 6.39062 1.39062 6.39062H5.60938V10.6094C5.60938 10.8251 5.78426 11 6 11C6.21574 11 6.39062 10.8251 6.39062 10.6094V6.39062H10.6094C10.8251 6.39062 11 6.21574 11 6C11 5.78426 10.8251 5.60938 10.6094 5.60938Z" fill="white" stroke="white" stroke-width="0.3"/>
</svg>
