<svg width="16" height="16" viewBox="0 0 16 16" fill="none" xmlns="http://www.w3.org/2000/svg">
<circle cx="8" cy="8" r="8" fill="#ED112F"/>
<path d="M12 6.92637L7.34242 13L4 4L4.32937 4.06453L5.74891 4.34253L7.37257 4.6652L9.1238 5.0102L10.3068 5.24352C10.3296 5.24916 10.351 5.26018 10.3694 5.27579L11.6915 6.62355L12 6.92637ZM7.32154 11.6622C7.32154 11.6622 7.32154 11.6448 7.32154 11.6373L7.37721 11.1409L7.52566 9.95698L7.65787 8.78792C7.69962 8.42057 7.73905 8.0433 7.78313 7.6834C7.78592 7.66722 7.78409 7.65052 7.77789 7.63546C7.77168 7.62041 7.76138 7.60771 7.74833 7.59901L4.92781 5.10452C4.91339 5.08995 4.89787 5.07666 4.88141 5.06481L7.32154 11.6622ZM7.78544 11.6622L11.1441 7.29868C11.0514 7.30548 10.9592 7.31874 10.8681 7.33839L9.147 7.67347L8.25167 7.84473C8.22151 7.84473 8.20528 7.86459 8.20296 7.89934C8.18904 8.03585 8.1728 8.17237 8.15889 8.3064L8.04755 9.28682C8.0058 9.64672 7.96637 10.0041 7.92694 10.3616C7.8875 10.719 7.85039 11.0193 7.81328 11.3544C7.80168 11.4462 7.79008 11.5604 7.78081 11.6646L7.78544 11.6622ZM7.99188 7.19443L9.77095 5.60838L5.20615 4.71732L7.99188 7.19443ZM10.2627 5.7995L8.59032 7.28875L11.2322 6.77744L10.2627 5.7995Z" fill="white"/>
</svg>
