<svg width="16" height="16" viewBox="0 0 16 16" fill="none" xmlns="http://www.w3.org/2000/svg">
<circle cx="8" cy="8" r="8" fill="#56AC93"/>
<path d="M12 8.30818C12 7.83123 10.6274 7.4333 8.80337 7.34149L8.80323 6.58155H11.0807V5H4.85307V6.58155H7.13041V7.34521C5.3396 7.44331 4 7.83709 4 8.30818C4 8.77934 5.3396 9.17315 7.13041 9.27109V12H8.80323V9.27481C10.6274 9.1832 12 8.78513 12 8.30818ZM7.99998 8.77803C6.04213 8.77803 4.45494 8.49153 4.45494 8.13789C4.45494 7.83846 5.59304 7.58708 7.13041 7.51714V7.69737H7.13059V8.43595C7.40775 8.45065 7.69905 8.45835 7.99998 8.45835C8.27708 8.45835 8.54618 8.45169 8.80341 8.4395V7.51439C10.3741 7.58005 11.5451 7.83408 11.5451 8.13789C11.5451 8.49153 9.95783 8.77803 7.99998 8.77803Z" fill="white"/>
</svg>
