<svg width="16" height="16" viewBox="0 0 16 16" fill="none" xmlns="http://www.w3.org/2000/svg">
<circle cx="8" cy="8" r="8" fill="#16BBB5"/>
<path d="M9.87973 3.06674C9.97473 3.0227 10.0788 2.9999 10.1842 3C10.3133 2.9997 10.4398 3.03519 10.5485 3.10224C10.6573 3.16929 10.7438 3.26506 10.7978 3.37818C10.8522 3.52795 10.8727 3.68726 10.8577 3.84532C11.1617 3.76403 11.4696 3.69722 11.7804 3.64512C11.9926 3.62288 12.2002 3.58728 12.4078 3.58283C12.7627 3.557 13.119 3.60871 13.4503 3.73409C13.5681 3.78282 13.674 3.85467 13.7614 3.94506C13.8488 4.03545 13.9156 4.1424 13.9578 4.2591C14.0235 4.4894 14.0122 4.73384 13.9255 4.95759C13.8213 5.24396 13.6736 5.51384 13.4872 5.75843C13.1079 6.25915 12.6715 6.7173 12.1863 7.12429C11.7859 7.46852 11.3671 7.79226 10.9315 8.09419C10.8943 8.1129 10.8614 8.13861 10.8347 8.16981V10.1052C10.8386 10.2805 10.8309 10.4558 10.8116 10.6301C10.7275 11.2298 10.4396 11.7856 9.993 12.2107C9.54642 12.6357 8.96635 12.906 8.34353 12.9793C7.64493 13.0628 6.93912 12.8921 6.36411 12.5005C5.78909 12.1088 5.38622 11.5244 5.23424 10.8615H5.12814C4.7043 10.9777 4.27043 11.0566 3.83183 11.0973C3.46804 11.1414 3.09894 11.1203 2.74312 11.035C2.50508 10.9746 2.29531 10.8381 2.14801 10.6479C2.01649 10.4469 1.97024 10.2047 2.01884 9.97169C2.08106 9.67292 2.2033 9.38877 2.37867 9.13527C2.64575 8.74174 2.955 8.37639 3.30131 8.04524C3.85898 7.51253 4.46068 7.02449 5.10046 6.58595C5.12814 6.5637 5.17427 6.54591 5.16966 6.50587V5.49148C5.17196 5.40172 5.19366 5.31341 5.23338 5.23221C5.2731 5.151 5.32996 5.07868 5.40032 5.01988C5.52845 4.91362 5.69268 4.85659 5.86164 4.85971C5.9687 4.86374 6.07319 4.89253 6.16632 4.94363C6.25944 4.99473 6.33847 5.06665 6.39676 5.15335C6.47304 5.27514 6.50999 5.41609 6.50287 5.55821C6.50287 6.55036 6.50287 7.5425 6.50287 8.53909C6.50287 8.70371 6.50287 8.87277 6.50287 9.03739C7.43845 8.61335 8.34729 8.13647 9.22465 7.60924C9.30308 7.5603 9.38611 7.5158 9.45993 7.46241C9.45993 6.18108 9.45993 4.89976 9.45993 3.61843C9.46242 3.49908 9.49851 3.38264 9.56432 3.28154C9.63014 3.18045 9.72322 3.09851 9.83359 3.0445L9.87973 3.06674ZM11.4574 4.89531C11.2378 4.95009 11.0221 5.01845 10.8116 5.09996C10.8116 5.58491 10.8116 6.07431 10.8116 6.56371L10.9177 6.49252C11.2176 6.27007 11.5082 6.04761 11.785 5.79401C12.0126 5.59988 12.2155 5.38033 12.3893 5.14C12.4492 5.06011 12.4916 4.96929 12.5139 4.87307C12.5139 4.83303 12.4862 4.80632 12.4493 4.79297C12.3578 4.76854 12.2626 4.75951 12.1679 4.76628C11.927 4.78472 11.6888 4.82797 11.4574 4.89531ZM4.44538 8.64587C4.1517 8.88235 3.88284 9.14612 3.64269 9.43336C3.55137 9.53826 3.48521 9.66131 3.44893 9.79373C3.44893 9.84267 3.48123 9.87381 3.52275 9.88716C3.66131 9.91389 3.80399 9.91389 3.94255 9.88716C4.18169 9.85317 4.41769 9.8011 4.64837 9.73144C4.81581 9.68676 4.98058 9.6333 5.14197 9.57128C5.14197 9.50899 5.14197 9.44226 5.14197 9.37552C5.14197 8.95286 5.14197 8.53019 5.14197 8.10753C4.89748 8.27215 4.68066 8.45456 4.44538 8.63697V8.64587ZM6.50748 10.4166C6.53328 10.6383 6.61256 10.851 6.73897 11.0378C6.86539 11.2246 7.03541 11.3803 7.23543 11.4923C7.43544 11.6043 7.65988 11.6696 7.89077 11.6829C8.12165 11.6962 8.35254 11.6572 8.56496 11.5689C8.82444 11.4612 9.04658 11.2842 9.20516 11.0588C9.36373 10.8333 9.45213 10.5688 9.45993 10.2965C9.45993 9.9094 9.45993 9.51789 9.45993 9.12637C9.46643 9.08359 9.46643 9.04013 9.45993 8.99735C8.51804 9.54533 7.5323 10.0199 6.51209 10.4166H6.50748ZM7.85454 5.83405C8.07973 5.80519 8.30806 5.85747 8.49577 5.98088C8.64782 6.08609 8.76141 6.23503 8.82025 6.40636C8.87909 6.57768 8.88015 6.76258 8.82328 6.93452C8.76641 7.10646 8.65454 7.25662 8.50371 7.36345C8.35288 7.47027 8.17084 7.52828 7.9837 7.52915C7.86799 7.52973 7.7533 7.50834 7.64616 7.46618C7.53903 7.42401 7.44155 7.3619 7.3593 7.28341C7.27705 7.20491 7.21165 7.11156 7.16681 7.00868C7.12197 6.90581 7.09858 6.79542 7.09797 6.68383C7.09818 6.48987 7.16647 6.3017 7.29173 6.14995C7.43328 5.98218 7.63336 5.86988 7.85454 5.83405Z" fill="white"/>
</svg>
