<svg width="11" height="12" viewBox="0 0 11 12" fill="none" xmlns="http://www.w3.org/2000/svg">
<path d="M10.5746 5.95769C10.2676 5.65587 9.76995 5.65587 9.46303 5.95769L6.22462 9.14312L6.22462 0.77321C6.22462 0.346137 5.87264 5.88141e-08 5.43861 6.39899e-08C5.00448 6.91668e-08 4.65259 0.346137 4.65259 0.77321L4.65259 9.14665L1.3403 5.88854C1.03338 5.58673 0.53563 5.58673 0.228707 5.88854C-0.0782155 6.19054 -0.0782155 6.68001 0.228707 6.98192L4.73511 11.4146C4.75838 11.4375 4.78315 11.4582 4.80848 11.4775C4.95154 11.6668 5.18024 11.79 5.43851 11.79C5.68885 11.79 5.91144 11.6744 6.05534 11.495C6.05963 11.4911 6.06402 11.4876 6.06817 11.4835L10.5745 7.05088C10.8814 6.7492 10.8814 6.25955 10.5746 5.95769Z" fill="white"/>
</svg>
