<svg width="11" height="12" viewBox="0 0 11 12" fill="none" xmlns="http://www.w3.org/2000/svg">
<path d="M0.230069 5.83235C0.537039 6.13417 1.03474 6.13417 1.34166 5.83235L4.58007 2.64692L4.58007 11.0168C4.58007 11.4439 4.93205 11.79 5.36608 11.79C5.80021 11.79 6.15209 11.4439 6.15209 11.0168L6.15209 2.64339L9.46439 5.9015C9.77131 6.20331 10.2691 6.20331 10.576 5.9015C10.8829 5.5995 10.8829 5.11003 10.576 4.80812L6.06958 0.375471C6.0463 0.352576 6.02153 0.331883 5.99621 0.312566C5.85315 0.123255 5.62445 6.1743e-05 5.36618 6.17543e-05C5.11583 6.17652e-05 4.89324 0.11564 4.74934 0.295086C4.74505 0.298986 4.74067 0.302427 4.73652 0.306511L0.230209 4.73916C-0.0767134 5.04084 -0.0767135 5.53049 0.230069 5.83235Z" fill="white"/>
</svg>
