<svg width="120" height="120" viewBox="0 0 120 120" fill="none" xmlns="http://www.w3.org/2000/svg">
<path d="M116 0H4C1.79086 0 0 1.79086 0 4V116C0 118.209 1.79086 120 4 120H116C118.209 120 120 118.209 120 116V4C120 1.79086 118.209 0 116 0Z" fill="white"/>
<path d="M45.5168 8.27539H41.3789V12.4133H45.5168V8.27539Z" fill="black"/>
<path d="M53.7903 8.27539H49.6523V12.4133H53.7903V8.27539Z" fill="black"/>
<path d="M57.927 8.27539H53.7891V12.4133H57.927V8.27539Z" fill="black"/>
<path d="M78.6184 8.27539H74.4805V12.4133H78.6184V8.27539Z" fill="black"/>
<path d="M45.5168 12.4131H41.3789V16.551H45.5168V12.4131Z" fill="black"/>
<path d="M49.6535 12.4131H45.5156V16.551H49.6535V12.4131Z" fill="black"/>
<path d="M53.7903 12.4131H49.6523V16.551H53.7903V12.4131Z" fill="black"/>
<path d="M53.7903 16.5518H49.6523V20.6897H53.7903V16.5518Z" fill="black"/>
<path d="M57.927 16.5518H53.7891V20.6897H57.927V16.5518Z" fill="black"/>
<path d="M66.2043 16.5518H62.0664V20.6897H66.2043V16.5518Z" fill="black"/>
<path d="M70.3411 16.5518H66.2031V20.6897H70.3411V16.5518Z" fill="black"/>
<path d="M45.5168 20.6895H41.3789V24.8274H45.5168V20.6895Z" fill="black"/>
<path d="M49.6535 20.6895H45.5156V24.8274H49.6535V20.6895Z" fill="black"/>
<path d="M53.7903 20.6895H49.6523V24.8274H53.7903V20.6895Z" fill="black"/>
<path d="M66.2043 20.6895H62.0664V24.8274H66.2043V20.6895Z" fill="black"/>
<path d="M49.6535 24.8271H45.5156V28.9651H49.6535V24.8271Z" fill="black"/>
<path d="M57.927 24.8271H53.7891V28.9651H57.927V24.8271Z" fill="black"/>
<path d="M66.2043 24.8271H62.0664V28.9651H66.2043V24.8271Z" fill="black"/>
<path d="M70.3411 24.8271H66.2031V28.9651H70.3411V24.8271Z" fill="black"/>
<path d="M74.4817 24.8271H70.3438V28.9651H74.4817V24.8271Z" fill="black"/>
<path d="M78.6184 24.8271H74.4805V28.9651H78.6184V24.8271Z" fill="black"/>
<path d="M53.7903 28.9648H49.6523V33.1028H53.7903V28.9648Z" fill="black"/>
<path d="M70.3411 28.9648H66.2031V33.1028H70.3411V28.9648Z" fill="black"/>
<path d="M45.5168 33.1035H41.3789V37.2414H45.5168V33.1035Z" fill="black"/>
<path d="M53.7903 33.1035H49.6523V37.2414H53.7903V33.1035Z" fill="black"/>
<path d="M62.0676 33.1035H57.9297V37.2414H62.0676V33.1035Z" fill="black"/>
<path d="M70.3411 33.1035H66.2031V37.2414H70.3411V33.1035Z" fill="black"/>
<path d="M78.6184 33.1035H74.4805V37.2414H78.6184V33.1035Z" fill="black"/>
<path d="M45.5168 37.2412H41.3789V41.3791H45.5168V37.2412Z" fill="black"/>
<path d="M57.927 37.2412H53.7891V41.3791H57.927V37.2412Z" fill="black"/>
<path d="M62.0676 37.2412H57.9297V41.3791H62.0676V37.2412Z" fill="black"/>
<path d="M70.3411 37.2412H66.2031V41.3791H70.3411V37.2412Z" fill="black"/>
<path d="M74.4817 37.2412H70.3438V41.3791H74.4817V37.2412Z" fill="black"/>
<path d="M78.6184 37.2412H74.4805V41.3791H78.6184V37.2412Z" fill="black"/>
<path d="M12.4114 41.3789H8.27344V45.5168H12.4114V41.3789Z" fill="black"/>
<path d="M20.6887 41.3789H16.5508V45.5168H20.6887V41.3789Z" fill="black"/>
<path d="M24.8254 41.3789H20.6875V45.5168H24.8254V41.3789Z" fill="black"/>
<path d="M33.1028 41.3789H28.9648V45.5168H33.1028V41.3789Z" fill="black"/>
<path d="M37.2395 41.3789H33.1016V45.5168H37.2395V41.3789Z" fill="black"/>
<path d="M41.3762 41.3789H37.2383V45.5168H41.3762V41.3789Z" fill="black"/>
<path d="M53.7903 41.3789H49.6523V45.5168H53.7903V41.3789Z" fill="black"/>
<path d="M57.927 41.3789H53.7891V45.5168H57.927V41.3789Z" fill="black"/>
<path d="M70.3411 41.3789H66.2031V45.5168H70.3411V41.3789Z" fill="black"/>
<path d="M78.6184 41.3789H74.4805V45.5168H78.6184V41.3789Z" fill="black"/>
<path d="M86.8958 41.3789H82.7578V45.5168H86.8958V41.3789Z" fill="black"/>
<path d="M99.3058 41.3789H95.168V45.5168H99.3058V41.3789Z" fill="black"/>
<path d="M107.583 41.3789H103.445V45.5168H107.583V41.3789Z" fill="black"/>
<path d="M111.72 41.3789H107.582V45.5168H111.72V41.3789Z" fill="black"/>
<path d="M16.5481 45.5166H12.4102V49.6545H16.5481V45.5166Z" fill="black"/>
<path d="M20.6887 45.5166H16.5508V49.6545H20.6887V45.5166Z" fill="black"/>
<path d="M28.9622 45.5166H24.8242V49.6545H28.9622V45.5166Z" fill="black"/>
<path d="M33.1028 45.5166H28.9648V49.6545H33.1028V45.5166Z" fill="black"/>
<path d="M41.3762 45.5166H37.2383V49.6545H41.3762V45.5166Z" fill="black"/>
<path d="M45.5168 45.5166H41.3789V49.6545H45.5168V45.5166Z" fill="black"/>
<path d="M62.0676 45.5166H57.9297V49.6545H62.0676V45.5166Z" fill="black"/>
<path d="M78.6184 45.5166H74.4805V49.6545H78.6184V45.5166Z" fill="black"/>
<path d="M82.7551 45.5166H78.6172V49.6545H82.7551V45.5166Z" fill="black"/>
<path d="M91.0324 45.5166H86.8945V49.6545H91.0324V45.5166Z" fill="black"/>
<path d="M107.583 45.5166H103.445V49.6545H107.583V45.5166Z" fill="black"/>
<path d="M16.5481 49.6553H12.4102V53.7932H16.5481V49.6553Z" fill="black"/>
<path d="M33.1028 49.6553H28.9648V53.7932H33.1028V49.6553Z" fill="black"/>
<path d="M37.2395 49.6553H33.1016V53.7932H37.2395V49.6553Z" fill="black"/>
<path d="M41.3762 49.6553H37.2383V53.7932H41.3762V49.6553Z" fill="black"/>
<path d="M49.6535 49.6553H45.5156V53.7932H49.6535V49.6553Z" fill="black"/>
<path d="M53.7903 49.6553H49.6523V53.7932H53.7903V49.6553Z" fill="black"/>
<path d="M57.927 49.6553H53.7891V53.7932H57.927V49.6553Z" fill="black"/>
<path d="M62.0676 49.6553H57.9297V53.7932H62.0676V49.6553Z" fill="black"/>
<path d="M66.2043 49.6553H62.0664V53.7932H66.2043V49.6553Z" fill="black"/>
<path d="M70.3411 49.6553H66.2031V53.7932H70.3411V49.6553Z" fill="black"/>
<path d="M78.6184 49.6553H74.4805V53.7932H78.6184V49.6553Z" fill="black"/>
<path d="M91.0324 49.6553H86.8945V53.7932H91.0324V49.6553Z" fill="black"/>
<path d="M20.6887 53.793H16.5508V57.9309H20.6887V53.793Z" fill="black"/>
<path d="M24.8254 53.793H20.6875V57.9309H24.8254V53.793Z" fill="black"/>
<path d="M33.1028 53.793H28.9648V57.9309H33.1028V53.793Z" fill="black"/>
<path d="M41.3762 53.793H37.2383V57.9309H41.3762V53.793Z" fill="black"/>
<path d="M45.5168 53.793H41.3789V57.9309H45.5168V53.793Z" fill="black"/>
<path d="M53.7903 53.793H49.6523V57.9309H53.7903V53.793Z" fill="black"/>
<path d="M57.927 53.793H53.7891V57.9309H57.927V53.793Z" fill="black"/>
<path d="M66.2043 53.793H62.0664V57.9309H66.2043V53.793Z" fill="black"/>
<path d="M70.3411 53.793H66.2031V57.9309H70.3411V53.793Z" fill="black"/>
<path d="M74.4817 53.793H70.3438V57.9309H74.4817V53.793Z" fill="black"/>
<path d="M82.7551 53.793H78.6172V57.9309H82.7551V53.793Z" fill="black"/>
<path d="M86.8958 53.793H82.7578V57.9309H86.8958V53.793Z" fill="black"/>
<path d="M99.3058 53.793H95.168V57.9309H99.3058V53.793Z" fill="black"/>
<path d="M103.447 53.793H99.3086V57.9309H103.447V53.793Z" fill="black"/>
<path d="M16.5481 57.9307H12.4102V62.0686H16.5481V57.9307Z" fill="black"/>
<path d="M24.8254 57.9307H20.6875V62.0686H24.8254V57.9307Z" fill="black"/>
<path d="M28.9622 57.9307H24.8242V62.0686H28.9622V57.9307Z" fill="black"/>
<path d="M37.2395 57.9307H33.1016V62.0686H37.2395V57.9307Z" fill="black"/>
<path d="M53.7903 57.9307H49.6523V62.0686H53.7903V57.9307Z" fill="black"/>
<path d="M62.0676 57.9307H57.9297V62.0686H62.0676V57.9307Z" fill="black"/>
<path d="M66.2043 57.9307H62.0664V62.0686H66.2043V57.9307Z" fill="black"/>
<path d="M70.3411 57.9307H66.2031V62.0686H70.3411V57.9307Z" fill="black"/>
<path d="M82.7551 57.9307H78.6172V62.0686H82.7551V57.9307Z" fill="black"/>
<path d="M86.8958 57.9307H82.7578V62.0686H86.8958V57.9307Z" fill="black"/>
<path d="M91.0324 57.9307H86.8945V62.0686H91.0324V57.9307Z" fill="black"/>
<path d="M95.1692 57.9307H91.0312V62.0686H95.1692V57.9307Z" fill="black"/>
<path d="M103.447 57.9307H99.3086V62.0686H103.447V57.9307Z" fill="black"/>
<path d="M107.583 57.9307H103.445V62.0686H107.583V57.9307Z" fill="black"/>
<path d="M111.72 57.9307H107.582V62.0686H111.72V57.9307Z" fill="black"/>
<path d="M16.5481 62.0684H12.4102V66.2063H16.5481V62.0684Z" fill="black"/>
<path d="M33.1028 62.0684H28.9648V66.2063H33.1028V62.0684Z" fill="black"/>
<path d="M41.3762 62.0684H37.2383V66.2063H41.3762V62.0684Z" fill="black"/>
<path d="M53.7903 62.0684H49.6523V66.2063H53.7903V62.0684Z" fill="black"/>
<path d="M57.927 62.0684H53.7891V66.2063H57.927V62.0684Z" fill="black"/>
<path d="M66.2043 62.0684H62.0664V66.2063H66.2043V62.0684Z" fill="black"/>
<path d="M70.3411 62.0684H66.2031V66.2063H70.3411V62.0684Z" fill="black"/>
<path d="M74.4817 62.0684H70.3438V66.2063H74.4817V62.0684Z" fill="black"/>
<path d="M78.6184 62.0684H74.4805V66.2063H78.6184V62.0684Z" fill="black"/>
<path d="M86.8958 62.0684H82.7578V66.2063H86.8958V62.0684Z" fill="black"/>
<path d="M91.0324 62.0684H86.8945V66.2063H91.0324V62.0684Z" fill="black"/>
<path d="M95.1692 62.0684H91.0312V66.2063H95.1692V62.0684Z" fill="black"/>
<path d="M111.72 62.0684H107.582V66.2063H111.72V62.0684Z" fill="black"/>
<path d="M16.5481 66.2061H12.4102V70.344H16.5481V66.2061Z" fill="black"/>
<path d="M24.8254 66.2061H20.6875V70.344H24.8254V66.2061Z" fill="black"/>
<path d="M37.2395 66.2061H33.1016V70.344H37.2395V66.2061Z" fill="black"/>
<path d="M41.3762 66.2061H37.2383V70.344H41.3762V66.2061Z" fill="black"/>
<path d="M62.0676 66.2061H57.9297V70.344H62.0676V66.2061Z" fill="black"/>
<path d="M70.3411 66.2061H66.2031V70.344H70.3411V66.2061Z" fill="black"/>
<path d="M82.7551 66.2061H78.6172V70.344H82.7551V66.2061Z" fill="black"/>
<path d="M95.1692 66.2061H91.0312V70.344H95.1692V66.2061Z" fill="black"/>
<path d="M103.447 66.2061H99.3086V70.344H103.447V66.2061Z" fill="black"/>
<path d="M107.583 66.2061H103.445V70.344H107.583V66.2061Z" fill="black"/>
<path d="M12.4114 70.3447H8.27344V74.4826H12.4114V70.3447Z" fill="black"/>
<path d="M20.6887 70.3447H16.5508V74.4826H20.6887V70.3447Z" fill="black"/>
<path d="M33.1028 70.3447H28.9648V74.4826H33.1028V70.3447Z" fill="black"/>
<path d="M41.3762 70.3447H37.2383V74.4826H41.3762V70.3447Z" fill="black"/>
<path d="M49.6535 70.3447H45.5156V74.4826H49.6535V70.3447Z" fill="black"/>
<path d="M57.927 70.3447H53.7891V74.4826H57.927V70.3447Z" fill="black"/>
<path d="M70.3411 70.3447H66.2031V74.4826H70.3411V70.3447Z" fill="black"/>
<path d="M78.6184 70.3447H74.4805V74.4826H78.6184V70.3447Z" fill="black"/>
<path d="M82.7551 70.3447H78.6172V74.4826H82.7551V70.3447Z" fill="black"/>
<path d="M91.0324 70.3447H86.8945V74.4826H91.0324V70.3447Z" fill="black"/>
<path d="M95.1692 70.3447H91.0312V74.4826H95.1692V70.3447Z" fill="black"/>
<path d="M111.72 70.3447H107.582V74.4826H111.72V70.3447Z" fill="black"/>
<path d="M20.6887 74.4824H16.5508V78.6203H20.6887V74.4824Z" fill="black"/>
<path d="M37.2395 74.4824H33.1016V78.6203H37.2395V74.4824Z" fill="black"/>
<path d="M53.7903 74.4824H49.6523V78.6203H53.7903V74.4824Z" fill="black"/>
<path d="M66.2043 74.4824H62.0664V78.6203H66.2043V74.4824Z" fill="black"/>
<path d="M74.4817 74.4824H70.3438V78.6203H74.4817V74.4824Z" fill="black"/>
<path d="M78.6184 74.4824H74.4805V78.6203H78.6184V74.4824Z" fill="black"/>
<path d="M82.7551 74.4824H78.6172V78.6203H82.7551V74.4824Z" fill="black"/>
<path d="M86.8958 74.4824H82.7578V78.6203H86.8958V74.4824Z" fill="black"/>
<path d="M91.0324 74.4824H86.8945V78.6203H91.0324V74.4824Z" fill="black"/>
<path d="M95.1692 74.4824H91.0312V78.6203H95.1692V74.4824Z" fill="black"/>
<path d="M99.3058 74.4824H95.168V78.6203H99.3058V74.4824Z" fill="black"/>
<path d="M103.447 74.4824H99.3086V78.6203H103.447V74.4824Z" fill="black"/>
<path d="M107.583 74.4824H103.445V78.6203H107.583V74.4824Z" fill="black"/>
<path d="M111.72 74.4824H107.582V78.6203H111.72V74.4824Z" fill="black"/>
<path d="M45.5168 78.6201H41.3789V82.7581H45.5168V78.6201Z" fill="black"/>
<path d="M53.7903 78.6201H49.6523V82.7581H53.7903V78.6201Z" fill="black"/>
<path d="M57.927 78.6201H53.7891V82.7581H57.927V78.6201Z" fill="black"/>
<path d="M78.6184 78.6201H74.4805V82.7581H78.6184V78.6201Z" fill="black"/>
<path d="M95.1692 78.6201H91.0312V82.7581H95.1692V78.6201Z" fill="black"/>
<path d="M103.447 78.6201H99.3086V82.7581H103.447V78.6201Z" fill="black"/>
<path d="M111.72 78.6201H107.582V82.7581H111.72V78.6201Z" fill="black"/>
<path d="M45.5168 82.7578H41.3789V86.8958H45.5168V82.7578Z" fill="black"/>
<path d="M49.6535 82.7578H45.5156V86.8958H49.6535V82.7578Z" fill="black"/>
<path d="M53.7903 82.7578H49.6523V86.8958H53.7903V82.7578Z" fill="black"/>
<path d="M70.3411 82.7578H66.2031V86.8958H70.3411V82.7578Z" fill="black"/>
<path d="M78.6184 82.7578H74.4805V86.8958H78.6184V82.7578Z" fill="black"/>
<path d="M86.8958 82.7578H82.7578V86.8958H86.8958V82.7578Z" fill="black"/>
<path d="M95.1692 82.7578H91.0312V86.8958H95.1692V82.7578Z" fill="black"/>
<path d="M103.447 82.7578H99.3086V86.8958H103.447V82.7578Z" fill="black"/>
<path d="M107.583 82.7578H103.445V86.8958H107.583V82.7578Z" fill="black"/>
<path d="M111.72 82.7578H107.582V86.8958H111.72V82.7578Z" fill="black"/>
<path d="M45.5168 86.8965H41.3789V91.0344H45.5168V86.8965Z" fill="black"/>
<path d="M49.6535 86.8965H45.5156V91.0344H49.6535V86.8965Z" fill="black"/>
<path d="M53.7903 86.8965H49.6523V91.0344H53.7903V86.8965Z" fill="black"/>
<path d="M57.927 86.8965H53.7891V91.0344H57.927V86.8965Z" fill="black"/>
<path d="M74.4817 86.8965H70.3438V91.0344H74.4817V86.8965Z" fill="black"/>
<path d="M78.6184 86.8965H74.4805V91.0344H78.6184V86.8965Z" fill="black"/>
<path d="M95.1692 86.8965H91.0312V91.0344H95.1692V86.8965Z" fill="black"/>
<path d="M107.583 86.8965H103.445V91.0344H107.583V86.8965Z" fill="black"/>
<path d="M111.72 86.8965H107.582V91.0344H111.72V86.8965Z" fill="black"/>
<path d="M53.7903 91.0342H49.6523V95.1721H53.7903V91.0342Z" fill="black"/>
<path d="M78.6184 91.0342H74.4805V95.1721H78.6184V91.0342Z" fill="black"/>
<path d="M82.7551 91.0342H78.6172V95.1721H82.7551V91.0342Z" fill="black"/>
<path d="M86.8958 91.0342H82.7578V95.1721H86.8958V91.0342Z" fill="black"/>
<path d="M91.0324 91.0342H86.8945V95.1721H91.0324V91.0342Z" fill="black"/>
<path d="M95.1692 91.0342H91.0312V95.1721H95.1692V91.0342Z" fill="black"/>
<path d="M99.3058 91.0342H95.168V95.1721H99.3058V91.0342Z" fill="black"/>
<path d="M111.72 91.0342H107.582V95.1721H111.72V91.0342Z" fill="black"/>
<path d="M45.5168 95.1719H41.3789V99.3098H45.5168V95.1719Z" fill="black"/>
<path d="M49.6535 95.1719H45.5156V99.3098H49.6535V95.1719Z" fill="black"/>
<path d="M53.7903 95.1719H49.6523V99.3098H53.7903V95.1719Z" fill="black"/>
<path d="M57.927 95.1719H53.7891V99.3098H57.927V95.1719Z" fill="black"/>
<path d="M66.2043 95.1719H62.0664V99.3098H66.2043V95.1719Z" fill="black"/>
<path d="M78.6184 95.1719H74.4805V99.3098H78.6184V95.1719Z" fill="black"/>
<path d="M86.8958 95.1719H82.7578V99.3098H86.8958V95.1719Z" fill="black"/>
<path d="M95.1692 95.1719H91.0312V99.3098H95.1692V95.1719Z" fill="black"/>
<path d="M99.3058 95.1719H95.168V99.3098H99.3058V95.1719Z" fill="black"/>
<path d="M103.447 95.1719H99.3086V99.3098H103.447V95.1719Z" fill="black"/>
<path d="M107.583 95.1719H103.445V99.3098H107.583V95.1719Z" fill="black"/>
<path d="M111.72 95.1719H107.582V99.3098H111.72V95.1719Z" fill="black"/>
<path d="M45.5168 99.3096H41.3789V103.448H45.5168V99.3096Z" fill="black"/>
<path d="M57.927 99.3096H53.7891V103.448H57.927V99.3096Z" fill="black"/>
<path d="M62.0676 99.3096H57.9297V103.448H62.0676V99.3096Z" fill="black"/>
<path d="M66.2043 99.3096H62.0664V103.448H66.2043V99.3096Z" fill="black"/>
<path d="M74.4817 99.3096H70.3438V103.448H74.4817V99.3096Z" fill="black"/>
<path d="M82.7551 99.3096H78.6172V103.448H82.7551V99.3096Z" fill="black"/>
<path d="M86.8958 99.3096H82.7578V103.448H86.8958V99.3096Z" fill="black"/>
<path d="M95.1692 99.3096H91.0312V103.448H95.1692V99.3096Z" fill="black"/>
<path d="M103.447 99.3096H99.3086V103.448H103.447V99.3096Z" fill="black"/>
<path d="M107.583 99.3096H103.445V103.448H107.583V99.3096Z" fill="black"/>
<path d="M49.6535 103.448H45.5156V107.586H49.6535V103.448Z" fill="black"/>
<path d="M53.7903 103.448H49.6523V107.586H53.7903V103.448Z" fill="black"/>
<path d="M62.0676 103.448H57.9297V107.586H62.0676V103.448Z" fill="black"/>
<path d="M66.2043 103.448H62.0664V107.586H66.2043V103.448Z" fill="black"/>
<path d="M82.7551 103.448H78.6172V107.586H82.7551V103.448Z" fill="black"/>
<path d="M86.8958 103.448H82.7578V107.586H86.8958V103.448Z" fill="black"/>
<path d="M95.1692 103.448H91.0312V107.586H95.1692V103.448Z" fill="black"/>
<path d="M103.447 103.448H99.3086V107.586H103.447V103.448Z" fill="black"/>
<path d="M45.5168 107.586H41.3789V111.724H45.5168V107.586Z" fill="black"/>
<path d="M49.6535 107.586H45.5156V111.724H49.6535V107.586Z" fill="black"/>
<path d="M66.2043 107.586H62.0664V111.724H66.2043V107.586Z" fill="black"/>
<path d="M70.3411 107.586H66.2031V111.724H70.3411V107.586Z" fill="black"/>
<path d="M91.0324 107.586H86.8945V111.724H91.0324V107.586Z" fill="black"/>
<path d="M95.1692 107.586H91.0312V111.724H95.1692V107.586Z" fill="black"/>
<path d="M99.3058 107.586H95.168V111.724H99.3058V107.586Z" fill="black"/>
<path d="M103.447 107.586H99.3086V111.724H103.447V107.586Z" fill="black"/>
<path d="M107.583 107.586H103.445V111.724H107.583V107.586Z" fill="black"/>
<path d="M111.72 107.586H107.582V111.724H111.72V107.586Z" fill="black"/>
<path d="M32.8941 8.27539H12.6183H8.27344V12.6202V32.8961V37.2409H12.6183H32.8941H37.2389V32.8961V12.6202V8.27539H32.8941ZM32.8941 32.8961H12.6183V12.6202H32.8941V32.8961Z" fill="black"/>
<path d="M107.378 8.27539H87.1026H82.7578V12.6202V32.8961V37.2409H87.1026H107.378H111.723V32.8961V12.6202V8.27539H107.378ZM107.378 32.8961H87.1026V12.6202H107.378V32.8961Z" fill="black"/>
<path d="M32.8941 82.7578H12.6183H8.27344V87.1026V107.379V111.723H12.6183H32.8941H37.2389V107.379V87.1026V82.7578H32.8941ZM32.8941 107.379H12.6183V87.1026H32.8941V107.379Z" fill="black"/>
<path d="M28.9646 16.5518H16.5508V28.9656H28.9646V16.5518Z" fill="#1058AB"/>
<path d="M103.445 16.5518H91.0312V28.9656H103.445V16.5518Z" fill="#1058AB"/>
<path d="M28.9646 91.0342H16.5508V103.448H28.9646V91.0342Z" fill="#1058AB"/>
</svg>
