<svg width="314" height="216" viewBox="0 0 314 216" fill="none" xmlns="http://www.w3.org/2000/svg">
<path d="M123.793 168.314L124.402 168.78L123.793 168.314Z" fill="#EADBFF"/>
<path d="M126.159 170.129C126.526 170.53 127.144 170.841 127.648 171.192C127.099 170.857 126.731 170.456 126.159 170.129Z" fill="#EADBFF"/>
<path d="M128.479 171.768C129.151 172.237 129.829 172.679 130.512 173.093C129.82 172.669 129.143 172.228 128.479 171.768Z" fill="#EADBFF"/>
<path d="M180 177.501L178.501 178.002C172.284 181.265 164.923 183.463 157 184.502C147.086 183.111 153.527 189.622 146.5 185.002C153.424 189.574 145.733 185.063 155.5 186.502C141.342 188.098 127.528 180.827 114.928 172.836L114.783 172.679C114.158 172.295 113.556 171.902 112.924 171.444C112.793 171.301 112.661 171.158 112.371 171.072C112.463 171.172 112.555 171.273 112.76 171.332L112.004 170.804L110.678 169.853C110.196 169.494 109.724 169.111 109.23 168.737C109.532 169.066 110.006 169.352 110.386 169.635C110.097 169.319 109.626 169.07 109.256 168.765C129.815 184.944 156.685 189.363 178.997 177.501C180.633 176.639 183.915 177.017 185.501 176.001C184.424 176.679 182.571 175.882 181.5 176.501L180 177.501Z" fill="#EADBFF"/>
<path d="M190.466 167.817L190.965 167.368L190.466 167.817Z" fill="#EADBFF"/>
<path d="M195.918 162.813L197.784 160.911L195.918 162.813Z" fill="#EADBFF"/>
<path d="M199.374 55.9014L198.628 56.7082L199.374 55.9014Z" fill="#EADBFF"/>
<path d="M96.2073 174.069C96.4963 174.385 96.7721 174.686 97.061 175.001C97.6783 175.675 97.7406 175.746 98.4489 176.387C98.7641 176.731 99.1894 176.997 99.537 177.31C100.229 177.899 100.884 178.482 101.608 179.04C101.897 179.356 102.319 179.584 102.676 179.875C103.4 180.433 104.124 180.992 104.881 181.519C105.13 181.791 105.562 181.997 105.889 182.222C106.659 182.764 107.451 183.298 108.23 183.817C108.44 184.046 108.865 184.178 109.166 184.375C110.017 184.906 110.854 185.423 111.702 185.917L112.532 186.36C113.416 186.861 114.322 187.353 115.224 187.808L115.989 188.18C116.927 188.641 117.875 189.08 118.81 189.504L119.545 189.81C120.503 190.226 121.47 190.619 122.46 191.004C122.705 191.106 122.96 191.186 123.228 191.279C124.178 191.622 125.129 191.964 126.112 192.275L127.009 192.56C127.93 192.836 128.851 193.113 129.768 193.353C130.144 193.465 130.529 193.554 130.914 193.643C131.299 193.732 132.601 194.061 133.453 194.229L134.905 194.523C135.649 194.672 136.379 194.808 137.12 194.921C137.86 195.034 138.385 195.11 139.005 195.191L140.828 195.426L143.12 195.643L144.577 195.744C145.454 195.807 146.327 195.833 147.223 195.851L148.403 195.881L150.201 195.857L151.129 195.844L152.315 195.814L154.911 195.635L156.242 195.532C157.024 195.458 157.815 195.362 158.593 195.251L160.162 195.043C160.858 194.943 161.542 194.828 162.235 194.69C162.928 194.553 163.439 194.482 164.05 194.355C164.662 194.228 165.296 194.093 165.917 193.943C166.539 193.794 167.219 193.642 167.849 193.47C168.48 193.297 169.02 193.158 169.592 192.988C170.165 192.819 170.945 192.611 171.618 192.385C172.291 192.16 172.733 191.98 173.278 191.781L175.212 191.078L177.032 190.416L178.875 189.746L180.791 188.858L182.346 188.139L184.398 187.068L185.65 186.383C186.432 185.946 187.215 185.508 187.993 185.034L188.973 184.448C189.807 183.935 190.637 183.385 191.454 182.82C191.708 182.669 191.944 182.506 192.161 182.333C193.056 181.721 194.028 181.062 194.793 180.44L195.299 180.065C196.209 179.37 197.048 178.664 198.337 177.622C199.286 176.837 200.209 176.023 201.3 174.996C202.391 173.969 203.145 173.236 204.102 172.295L206.124 170.165L197.718 160.993L195.852 162.894C195.036 163.726 194.286 164.496 193.243 165.41C192.201 166.324 191.725 166.765 190.951 167.41L190.452 167.859C189.817 168.357 189.228 168.839 188.589 169.301C187.95 169.762 187.844 169.878 187.448 170.174L186.236 171.036L184.381 172.322L183.927 172.621C182.341 173.637 180.726 174.588 179.09 175.45C156.807 187.377 129.935 185.094 109.399 168.907C109.149 168.635 108.776 168.426 108.468 168.156C108.468 168.156 108.376 168.056 108.323 167.999L107.438 167.231C107.294 167.074 107.136 166.902 106.992 166.744C106.847 166.586 106.558 166.271 106.335 166.028C106.299 166.003 106.272 165.974 106.256 165.942L105.744 165.383C105.284 164.881 104.698 164.406 104.18 163.907L104.035 163.749C103.234 162.875 102.306 162.028 101.478 161.125C74.8121 132.224 74.824 85.0393 101.514 56.0115C102.336 55.1203 103.147 54.2518 104.021 53.4181C104.895 52.5843 105.613 51.8454 106.516 51.0772L107.342 50.3564L109.039 48.8984L110.125 48.064L111.693 46.8629L112.864 46.0549L114.42 44.9729L115.652 44.1997L117.21 43.2511C117.631 42.9831 118.069 42.7663 118.482 42.5209L120.036 41.6688L121.374 41.0102L122.935 40.232L124.369 39.7107L125.928 39.0289L128.93 37.9367L130.341 37.4237L131.865 36.8693L133.344 36.4649L134.928 36.0417L136.392 35.7194L137.996 35.3844C138.451 35.2189 138.992 35.2133 139.49 35.1277L141.1 34.8666L142.601 34.6839L144.219 34.4966L145.727 34.3877L147.342 34.297C147.834 34.271 148.352 34.2736 148.857 34.2619C151.893 34.2255 155.027 33.1104 158 33.501C172.335 35.2425 186.15 43.1501 197.331 54.6568L199.078 56.5629L199.825 55.7562L207.565 47.3226L206.843 46.5344L205.53 45.1012C175.201 13.4621 126.921 13.1378 95.9696 43.6391C94.9926 44.6251 94.006 45.6337 93.0063 46.6279C61.6771 80.821 61.6615 136.535 93 170.501C94.8414 172.501 95.197 173.099 96.2073 174.069Z" fill="#FCB737"/>
<g filter="url(#filter0_d)">
<path d="M111.991 170.908C112.083 171.008 112.175 171.108 112.267 171.209C112.359 171.309 112.643 171.454 112.82 171.581C113.426 172.01 114.028 172.403 114.679 172.815L114.824 172.973C127.469 180.947 141.987 184.113 156.145 182.517C146.395 181.026 137.546 177.777 130.682 173.167L130.551 173.023C129.86 172.6 129.182 172.158 128.518 171.699C128.308 171.47 127.952 171.313 127.687 171.122C127.422 170.932 126.678 170.419 126.197 170.059C125.715 169.699 125.018 169.17 124.497 168.767L123.887 168.3C122.173 166.937 120.527 165.472 118.95 163.905C118.149 163.031 117.334 162.142 116.393 161.281C89.7494 132.372 89.7386 85.195 116.452 56.1589C117.25 55.276 118.085 54.3993 118.936 53.5737C129.93 42.7335 141.015 33.6479 155.003 31.9994C152.03 31.6088 151.51 34.2701 148.474 34.3066C147.969 34.3183 147.451 34.3156 146.959 34.3416L145.344 34.4324L143.836 34.5413L142.218 34.7285L140.718 34.9113L139.107 35.1724C138.609 35.2579 138.121 35.3209 137.613 35.4291L136.009 35.764L134.545 36.0863L132.962 36.5095L131.482 36.9139L129.958 37.4683L128.548 37.9814L125.545 39.0736L123.986 39.7554L122.553 40.2766L120.991 41.0549L119.653 41.7134L118.099 42.5655C117.621 42.7393 117.248 43.0277 116.827 43.2958L115.27 44.2444L114.037 45.0176L112.481 46.0996L111.31 46.9075L109.742 48.1087L108.656 48.943L106.959 50.4011L106.134 51.1218C105.264 51.8714 104.432 52.6517 103.638 53.4627C102.764 54.2965 101.953 55.165 101.131 56.0561C74.4805 85.127 74.4686 132.312 101.096 161.17C101.923 162.073 102.737 162.961 103.652 163.794L103.718 163.866C104.388 164.597 105.168 165.249 105.964 165.953C106.188 166.197 106.398 166.426 106.621 166.67C107.068 167.157 107.687 167.601 108.207 168.004C108.728 168.406 108.82 168.507 109.138 168.754C109.456 169.002 110.105 169.511 110.586 169.871L111.991 170.908Z" fill="#CA8709"/>
<path d="M204.171 172.213C203.213 173.153 202.31 174.055 201.368 174.914C200.426 175.772 199.355 176.754 198.406 177.539C197.185 178.556 196.278 179.288 195.367 179.982L194.861 180.357C194.006 181.012 193.033 181.672 192.229 182.251C192.012 182.423 191.776 182.586 191.522 182.737C190.705 183.302 189.875 183.852 189.041 184.366L188.062 184.952C187.283 185.426 186.501 185.863 185.719 186.301L184.466 186.986L182.414 188.057L180.859 188.775L178.943 189.663L177.1 190.334L175.28 190.996L173.347 191.699C172.801 191.897 172.21 192.113 171.686 192.303C171.163 192.493 170.39 192.775 169.661 192.906C168.932 193.037 168.569 193.303 167.918 193.387C167.267 193.471 166.63 193.703 165.986 193.86C165.342 194.018 164.743 194.16 164.119 194.272C163.494 194.385 162.918 194.518 162.303 194.608C161.688 194.698 160.927 194.86 160.23 194.96L158.661 195.168C157.883 195.279 157.092 195.376 156.311 195.45L154.979 195.552L152.384 195.732L151.198 195.762L150.4 195.784L148.859 195.791L148.471 195.798L148.966 195.809L164.175 195.857C165 195.863 165.775 195.848 166.573 195.825L167.759 195.795L170.354 195.616L171.686 195.513C172.468 195.439 173.259 195.343 174.036 195.232L175.605 195.024C176.302 194.924 177.008 194.8 177.678 194.671C178.349 194.542 178.905 194.454 179.494 194.336C180.083 194.217 180.74 194.074 181.348 193.91C181.956 193.746 182.685 193.615 183.316 193.442C183.947 193.27 184.408 193.045 185.036 192.97C185.664 192.894 186.389 192.592 187.062 192.367C187.734 192.141 188.176 191.961 188.722 191.762L190.656 191.059C191.27 190.836 191.861 190.621 192.498 190.389C193.135 190.157 193.704 189.95 194.318 189.727L196.27 188.845L197.803 188.135L199.854 187.063L201.13 186.37C201.889 185.941 202.694 185.495 203.45 185.029L204.43 184.444C205.25 183.916 206.094 183.38 206.911 182.815L207.64 182.32C208.513 181.717 209.394 181.09 210.273 180.427L210.778 180.052C211.689 179.357 212.528 178.651 213.804 177.594C214.73 176.818 215.653 176.004 216.757 174.991C217.861 173.978 218.601 173.231 219.559 172.291L221.58 170.16L206.371 170.113L204.171 172.213Z" fill="#CA8709"/>
<path d="M96.0354 173.737C96.3244 174.053 96.6002 174.354 96.8891 174.669C97.5064 175.343 97.5687 175.414 98.277 176.055C98.5922 176.399 99.0176 176.665 99.3651 176.978C100.057 177.567 100.713 178.15 101.437 178.708C101.725 179.024 102.147 179.252 102.505 179.543C103.229 180.101 103.953 180.66 104.709 181.187C104.958 181.459 105.39 181.665 105.717 181.89C106.487 182.432 107.279 182.966 108.058 183.485C108.268 183.714 108.693 183.846 108.994 184.043C109.845 184.574 110.682 185.091 111.53 185.585L112.36 186.028C113.244 186.529 114.15 187.021 115.052 187.476L115.817 187.848C116.755 188.309 117.703 188.748 118.638 189.172L119.373 189.478C120.331 189.894 121.298 190.287 122.288 190.672C122.533 190.774 122.788 190.854 123.056 190.947C124.006 191.29 124.957 191.632 125.94 191.943L126.838 192.228C127.758 192.504 128.679 192.781 129.596 193.021C129.972 193.133 130.357 193.222 130.742 193.311C131.127 193.4 132.429 193.729 133.281 193.897L134.733 194.191C135.477 194.34 136.207 194.476 136.948 194.589C137.688 194.702 138.213 194.778 138.833 194.859L140.656 195.094L142.948 195.311L144.405 195.412C145.282 195.475 146.155 195.501 147.051 195.519L148.231 195.549L150.029 195.525L150.958 195.512L152.143 195.482L154.739 195.303L156.071 195.2C156.852 195.126 157.643 195.03 158.421 194.919L159.99 194.711C160.686 194.61 161.37 194.496 162.063 194.358C162.756 194.221 163.267 194.15 163.878 194.023C164.49 193.896 165.124 193.761 165.746 193.611C166.367 193.461 167.047 193.31 167.678 193.138C168.308 192.965 168.848 192.826 169.421 192.656C169.993 192.487 170.773 192.279 171.446 192.053C172.119 191.828 172.561 191.648 173.107 191.449L175.04 190.746L176.86 190.084L178.703 189.414L180.619 188.526L182.174 187.807L184.226 186.736L185.478 186.051C186.261 185.614 187.043 185.176 187.821 184.702L188.801 184.116C189.635 183.603 190.465 183.052 191.282 182.488C191.536 182.336 191.772 182.174 191.989 182.001C192.884 181.389 193.857 180.73 194.621 180.108L195.127 179.733C196.037 179.038 196.876 178.332 198.165 177.29C199.115 176.505 200.037 175.691 201.128 174.664C202.219 173.637 202.973 172.904 203.93 171.963L205.952 169.833L197.546 160.661L195.68 162.562C194.865 163.394 194.114 164.164 193.072 165.078C192.029 165.992 191.553 166.433 190.779 167.078L190.28 167.527C189.645 168.025 189.056 168.507 188.417 168.969C187.779 169.43 187.672 169.546 187.276 169.842L186.064 170.704L184.209 171.99L183.755 172.289C182.169 173.305 180.554 174.256 178.918 175.118C156.635 187.045 129.763 184.762 109.227 168.575C108.977 168.303 108.604 168.094 108.296 167.824C108.296 167.824 108.204 167.724 108.152 167.667L107.266 166.899C107.122 166.742 106.964 166.57 106.82 166.412C106.675 166.254 106.386 165.939 106.163 165.696C106.127 165.671 106.1 165.642 106.084 165.61L105.572 165.051C105.113 164.549 104.526 164.074 104.008 163.575L103.863 163.417C103.062 162.543 102.134 161.696 101.307 160.793C74.6402 131.892 74.6521 84.7073 101.342 55.6794C102.164 54.7883 102.975 53.9198 103.849 53.086C104.723 52.2522 105.441 51.5133 106.345 50.7451L107.17 50.0244L108.867 48.5663L109.953 47.7319L111.521 46.5308L112.692 45.7229L114.248 44.6409L115.48 43.8677L117.038 42.9191C117.459 42.651 117.898 42.4343 118.31 42.1889L119.864 41.3367L121.202 40.6782L122.764 39.9L124.197 39.3787L125.756 38.6969L128.759 37.6046L130.169 37.0916L131.693 36.5372L133.173 36.1328L134.756 35.7096L136.22 35.3874L137.824 35.0524C138.279 34.8869 138.82 34.8813 139.318 34.7957L140.929 34.5346L142.429 34.3518L144.047 34.1646L145.555 34.0557L147.17 33.9649C147.662 33.9389 148.18 33.9416 148.685 33.9299C151.721 33.8935 154.754 34.0722 157.727 34.4629C172.062 36.2044 185.978 42.818 197.16 54.3248L198.906 56.2309L199.653 55.4242L207.394 46.9906L206.671 46.2023L205.358 44.7691C175.03 13.1301 126.749 12.8058 95.7977 43.3071C94.8208 44.2931 93.8342 45.3016 92.8344 46.2959C61.5053 80.489 65.7592 140.93 97.0976 174.896C98.939 176.896 95.0251 172.767 96.0354 173.737Z" fill="#FCB737"/>
</g>
<g filter="url(#filter1_d)">
<path d="M206.238 170.066L221.447 170.113C252.456 136.266 252.718 81.5759 222.265 47.5171L207.056 47.4695C237.509 81.5283 237.247 136.218 206.238 170.066Z" fill="#EBE2F8"/>
<path d="M207.088 47.496L199.38 55.8987L198.634 56.7054L197.885 55.8885C224.389 84.8102 224.376 131.862 197.757 160.902C197.172 161.554 196.548 162.163 195.949 162.801L197.816 160.899L206.221 170.072C237.253 136.216 237.515 81.5261 207.088 47.496Z" fill="white"/>
</g>
<g filter="url(#filter2_d)">
<path d="M115.999 56.9998C127.463 44.4327 135.485 36.4184 150.5 34.6268C147.925 34.3044 151.835 33.8619 149.211 33.8511L147.516 33.8914L145.915 33.9357L144.217 34.0729C143.678 34.1152 143.149 34.1348 142.601 34.1997L140.923 34.4256L139.314 34.6266C138.756 34.7143 138.224 34.8308 137.657 34.9412C137.089 35.0516 136.599 35.1144 136.068 35.2308C135.536 35.3473 134.936 35.4887 134.395 35.6279C133.854 35.7671 133.332 35.8609 132.827 36.0062C132.322 36.1515 131.755 36.396 131.152 36.5002C130.548 36.6045 130.194 36.8485 129.614 36.9445L126.468 38.0888L124.758 38.7108L123.23 39.2664L121.594 40.0346L120.162 40.7282L118.546 41.585L117.145 42.3446C116.586 42.6632 116.076 43.0024 115.53 43.3355L114.182 44.1527L112.578 45.2549L111.282 46.1298L109.689 47.3434L108.469 48.2676L106.73 49.6877L105.641 50.622C105.045 51.1655 104.439 51.7317 103.87 52.3041C103.565 52.5686 103.283 52.8249 103.005 53.1183C102.113 53.9806 101.255 54.8691 100.432 55.7836C73.7684 84.967 73.8671 132.375 100.642 161.394L116.502 161.394C90.0152 132.424 89.2942 86.2369 115.999 56.9998Z" fill="#0768D8"/>
<path d="M90.8338 168.089L100.678 161.43C74.1057 132.633 74.2582 85.5649 101.027 56.5775C101.868 55.6623 102.727 54.7784 103.605 53.9259C103.884 53.634 104.166 53.379 104.471 53.1157C105.042 52.5462 105.649 51.9828 106.246 51.4419L107.337 50.5121L109.077 49.0984L110.298 48.1783L111.892 46.97L113.188 46.0988L114.793 45.001L116.141 44.1869C116.687 43.855 117.197 43.5172 117.756 43.1997L119.156 42.4426L120.772 41.5885L122.202 40.8969L123.837 40.1307L125.362 39.5759L127.07 38.9548L130.211 37.8121C130.712 37.6299 131.19 37.456 131.747 37.3678C132.304 37.2795 132.817 36.9786 133.419 36.8738C134.021 36.769 134.454 36.6117 134.984 36.4949C135.515 36.3781 136.087 36.2079 136.653 36.0972C137.22 35.9864 137.718 35.9004 138.238 35.8062C138.759 35.712 139.335 35.5787 139.892 35.4905L141.497 35.2875L143.17 35.0597C143.717 34.9941 144.244 34.9735 144.782 34.9304L141.497 32L145.5 32L148.5 32C151.115 32.0052 154.935 32.1854 157.5 32.5C172.255 34.2922 181.526 36.7595 192.774 48.9673L195.208 51.6235L203.707 42.3818L206.357 46.9399C205.389 45.8831 204.433 44.8406 203.504 43.8267L202.425 42.8481C201.823 42.1912 201.108 41.5757 200.405 40.9745C200.038 40.5746 199.561 40.253 199.14 39.8922C198.718 39.5315 197.875 38.81 197.228 38.3028C196.581 37.7955 196.303 37.5918 195.823 37.2334C195.343 36.8749 194.581 36.276 193.964 35.8341C193.347 35.3923 192.948 35.1563 192.445 34.8062C191.942 34.456 191.214 33.9593 190.613 33.5685C190.012 33.1778 189.542 32.9299 189.007 32.6105C188.471 32.2912 187.795 31.8516 187.175 31.506C186.555 31.1604 186.062 30.9207 185.53 30.6382C184.998 30.3558 184.289 29.947 183.636 29.6322C182.984 29.3175 182.54 29.0981 181.975 28.8465C181.411 28.5948 180.719 28.2372 180.07 27.9593C179.42 27.6813 178.944 27.4928 178.357 27.2494C177.769 27.006 177.084 26.7221 176.438 26.481L174.687 25.8615C174.031 25.6429 173.385 25.4018 172.743 25.1976C172.1 24.9933 171.569 24.8439 170.966 24.6825L169.019 24.1149C168.416 23.9535 167.816 23.829 167.203 23.6901C166.59 23.5513 165.902 23.3636 165.244 23.2413C164.585 23.119 164.034 23.0147 163.412 22.8985C162.789 22.7822 162.118 22.6456 161.449 22.5459L159.628 22.3136C158.95 22.2365 158.305 22.1285 157.64 22.0656L155.78 21.9235L153.789 21.7717L151.926 21.7259C130.651 21.2005 108.749 29.3222 92.5 47C61.0787 81.1454 59.6291 134.236 90.8338 168.089Z" fill="#0D77F0"/>
</g>
<g filter="url(#filter3_d)">
<path d="M100.785 57.0203L101.795 55.9626L102.694 54.9836C104.337 53.2547 105.247 52.5405 107.002 51.0007L108.101 49.8531C108.842 49.2 109.609 48.5756 110.367 47.974L111.415 47.1902L112.97 46.0301C113.722 45.4882 114.454 44.9917 115.209 44.4869L115.623 44.2405C116.958 43.3715 118.332 42.5456 119.7 41.7794L121.144 41.0625C122.044 40.582 122.988 40.0849 123.904 39.6558C124.521 39.4315 125.092 39.2239 125.62 38.936C126.147 38.6482 127.331 38.1792 128.222 37.8553C129.112 37.5313 129.455 37.4067 130.071 37.1825C130.688 36.9582 131.716 36.5845 132.515 36.2938C133.314 36.003 133.84 35.9459 134.496 35.7648C135.152 35.5837 136.131 35.3234 136.964 35.1356C137.797 34.9478 138.332 34.8679 139.018 34.7526C139.704 34.6373 139.546 34.7909 140.372 34.6629L142.44 34.4282C143.248 34.3455 144.051 34.2258 144.885 34.1719C145.718 34.118 146.284 34.104 146.99 34.0772C147.696 34.0505 148.602 34.0087 149.416 34.0002C150.23 33.9916 150.98 34.0451 151.797 34.0736C152.615 34.1022 153.194 34.1025 153.871 34.1439C154.548 34.1852 155.481 34.306 156.27 34.4026C157.059 34.4992 157.664 34.5284 158.335 34.6295C159.006 34.7305 159.956 34.9029 160.761 35.0509C161.566 35.199 162.116 35.2674 162.768 35.4139C163.42 35.5603 164.39 35.8212 165.212 36.0207C166.034 36.2202 166.506 36.3362 167.161 36.5197C167.816 36.7032 168.783 37.0609 169.6 37.3202L171.491 37.9554C172.337 38.2805 173.186 38.6426 173.996 38.9616C174.806 39.2807 175.137 39.4095 175.705 39.6633C176.62 40.0974 177.539 40.5685 178.445 41.0252C178.917 41.2752 179.386 41.4881 179.859 41.738C181.241 42.4818 182.581 43.2793 183.888 44.1077C184.072 44.3091 184.43 44.4667 184.706 44.6348C185.323 45.0429 185.928 45.4367 186.549 45.8819L188.278 47.1706L189.169 47.8437C189.935 48.4471 190.678 49.0588 191.434 49.6849L191.672 49.9438C193.431 51.4322 195.12 53.0423 196.747 54.7515L197.854 55.9596L198.605 56.7794L199.332 55.978L208.002 48.5007L206.502 46.5007L201.5 40.5008C186.53 24.7956 170.444 20.5214 149.416 20.4998L149.256 20.5579L148.396 20.5831L146.526 20.6688C145.879 20.6933 145.205 20.6891 144.548 20.7363L144.411 20.7861C143.496 20.8506 142.562 20.9604 141.627 21.0702C141.019 21.1379 140.385 21.1768 139.768 21.2672L139.357 21.4167C136.168 21.8696 132.938 22.3379 129.937 23.154L127.562 23.8839L127.196 24.0168L126.488 24.2743L126.146 24.3989C120.363 26.3755 115.05 29.0112 110.367 31.9227L109.898 32.2083L109.218 32.6284L107.317 33.8761C106.552 34.4036 105.751 34.925 104.989 35.4896L103.447 36.6641C102.611 37.3134 101.762 37.9482 100.93 38.6345L99.6977 39.7155C98.8135 40.4782 98.0074 41.1933 97.0942 42.024L95.7981 43.3008C95.0737 44.0054 94.3492 44.7099 93.6512 45.4432L93.4457 45.518L93.3289 45.6563L92.3323 46.7284L91.4463 47.7217L100.999 57.1535L100.785 57.0203Z" fill="#FF1C45"/>
<path d="M150.491 21.0684C171.537 20.9293 190.328 29.5554 205 45.001L206.5 46.501L208 48.501C208 48.501 209.211 48.501 210 48.501C214.5 48.501 223.406 47.9873 223.406 47.9873L222.696 47.2122L222.502 47.0008L221.443 45.8452C206.631 30.4129 186.482 20.8484 165.56 21.0554L150.491 21.0684Z" fill="#CC0327"/>
<path d="M116.03 57.2707L116.895 56.2931L117.839 55.2064C119.42 53.4463 121.031 51.816 122.71 50.2611L123.016 50.0091C123.703 49.3576 124.439 48.7281 125.167 48.1219L126.176 47.3332L127.673 46.1659C128.398 45.6211 129.128 45.1146 129.857 44.6081L130.222 44.3549C137.28 39.2875 146.704 35.8596 157.199 34.5424C156.862 34.4865 156.523 34.4423 156.182 34.4101C155.391 34.2961 154.6 34.182 153.778 34.0994C152.956 34.0167 152.392 34.0208 151.707 33.9891C151.021 33.9573 150.118 33.884 149.329 33.8697C148.54 33.8555 147.711 33.8958 146.913 33.9048C146.115 33.9137 145.493 33.919 144.818 33.9638C144.143 34.0086 143.194 34.1128 142.393 34.1833L140.341 34.3872C139.523 34.5041 138.71 34.6592 137.919 34.8062C137.128 34.9532 136.561 35.0187 135.888 35.1633C135.215 35.3078 134.286 35.5651 133.456 35.7667C132.626 35.9682 132.159 36.0777 131.505 36.2756C130.85 36.4735 129.915 36.8538 129.109 37.1469C128.303 37.4401 127.9 37.5867 127.296 37.8065C126.691 38.0264 125.55 38.4417 124.751 38.8729C123.952 39.3041 123.609 39.2882 123.074 39.5834C122.111 39.9335 121.261 40.5039 120.386 40.9828L118.98 41.6953C117.651 42.4599 116.318 43.286 115.027 44.1574L114.626 44.4037C113.896 44.9102 113.189 45.4085 112.464 45.9533L110.967 47.1207L109.958 47.9093C109.23 48.5156 108.494 49.145 107.785 49.8046L107.501 50.0485C105.911 51.5709 104.203 53.2569 102.63 54.9939L101.779 55.9865L100.821 57.0582L116.03 57.2707Z" fill="#CC0327"/>
</g>
<g filter="url(#filter4_d)">
<path d="M152.873 162.622C154.073 164.111 156.342 164.111 157.543 162.622L174.083 142.113C175.666 140.15 174.269 137.229 171.748 137.229H138.668C136.147 137.229 134.75 140.15 136.333 142.113L152.873 162.622Z" fill="#FCB737"/>
</g>
<defs>
<filter id="filter0_d" x="51.3594" y="0.730469" width="190.223" height="215.127" filterUnits="userSpaceOnUse" color-interpolation-filters="sRGB">
<feFlood flood-opacity="0" result="BackgroundImageFix"/>
<feColorMatrix in="SourceAlpha" type="matrix" values="0 0 0 0 0 0 0 0 0 0 0 0 0 0 0 0 0 0 127 0"/>
<feOffset/>
<feGaussianBlur stdDeviation="10"/>
<feColorMatrix type="matrix" values="0 0 0 0 0.988235 0 0 0 0 0.721569 0 0 0 0 0.223529 0 0 0 0.2 0"/>
<feBlend mode="normal" in2="BackgroundImageFix" result="effect1_dropShadow"/>
<feBlend mode="normal" in="SourceGraphic" in2="effect1_dropShadow" result="shape"/>
</filter>
<filter id="filter1_d" x="175.949" y="27.4697" width="88.9572" height="162.644" filterUnits="userSpaceOnUse" color-interpolation-filters="sRGB">
<feFlood flood-opacity="0" result="BackgroundImageFix"/>
<feColorMatrix in="SourceAlpha" type="matrix" values="0 0 0 0 0 0 0 0 0 0 0 0 0 0 0 0 0 0 127 0"/>
<feOffset/>
<feGaussianBlur stdDeviation="10"/>
<feColorMatrix type="matrix" values="0 0 0 0 1 0 0 0 0 1 0 0 0 0 1 0 0 0 0.5 0"/>
<feBlend mode="normal" in2="BackgroundImageFix" result="effect1_dropShadow"/>
<feBlend mode="normal" in="SourceGraphic" in2="effect1_dropShadow" result="shape"/>
</filter>
<filter id="filter2_d" x="48.168" y="1.70215" width="178.189" height="186.387" filterUnits="userSpaceOnUse" color-interpolation-filters="sRGB">
<feFlood flood-opacity="0" result="BackgroundImageFix"/>
<feColorMatrix in="SourceAlpha" type="matrix" values="0 0 0 0 0 0 0 0 0 0 0 0 0 0 0 0 0 0 127 0"/>
<feOffset/>
<feGaussianBlur stdDeviation="10"/>
<feColorMatrix type="matrix" values="0 0 0 0 0.027451 0 0 0 0 0.407843 0 0 0 0 0.847059 0 0 0 0.5 0"/>
<feBlend mode="normal" in2="BackgroundImageFix" result="effect1_dropShadow"/>
<feBlend mode="normal" in="SourceGraphic" in2="effect1_dropShadow" result="shape"/>
</filter>
<filter id="filter3_d" x="71.4453" y="0.5" width="171.962" height="76.7712" filterUnits="userSpaceOnUse" color-interpolation-filters="sRGB">
<feFlood flood-opacity="0" result="BackgroundImageFix"/>
<feColorMatrix in="SourceAlpha" type="matrix" values="0 0 0 0 0 0 0 0 0 0 0 0 0 0 0 0 0 0 127 0"/>
<feOffset/>
<feGaussianBlur stdDeviation="10"/>
<feColorMatrix type="matrix" values="0 0 0 0 0.8 0 0 0 0 0.0117647 0 0 0 0 0.152941 0 0 0 0.5 0"/>
<feBlend mode="normal" in2="BackgroundImageFix" result="effect1_dropShadow"/>
<feBlend mode="normal" in="SourceGraphic" in2="effect1_dropShadow" result="shape"/>
</filter>
<filter id="filter4_d" x="115.664" y="121.229" width="79.0912" height="66.5095" filterUnits="userSpaceOnUse" color-interpolation-filters="sRGB">
<feFlood flood-opacity="0" result="BackgroundImageFix"/>
<feColorMatrix in="SourceAlpha" type="matrix" values="0 0 0 0 0 0 0 0 0 0 0 0 0 0 0 0 0 0 127 0"/>
<feOffset dy="4"/>
<feGaussianBlur stdDeviation="10"/>
<feColorMatrix type="matrix" values="0 0 0 0 0.933333 0 0 0 0 0.658824 0 0 0 0 0.145098 0 0 0 0.6 0"/>
<feBlend mode="normal" in2="BackgroundImageFix" result="effect1_dropShadow"/>
<feBlend mode="normal" in="SourceGraphic" in2="effect1_dropShadow" result="shape"/>
</filter>
</defs>
</svg>
