<svg width="31" height="30" viewBox="0 0 31 30" fill="none" xmlns="http://www.w3.org/2000/svg">
<path d="M24.9204 3.75851C22.2743 1.42068 18.7998 0 14.9997 0C10.2118 0 5.94128 2.25527 3.19298 5.75882C3.12002 5.85181 3.15424 5.98998 3.26224 6.03791C5.74972 7.14053 9.09178 7.76376 12.6068 7.76376C18.7302 7.76376 23.263 5.95066 24.9368 4.01639C25.0025 3.94033 24.9957 3.82507 24.9204 3.75851Z" fill="white"/>
<path d="M28.5083 20.9072C28.5074 20.9073 28.5064 20.9073 28.5055 20.9073C23.9821 20.9073 19.6928 22.1202 16.4276 24.3226C14.2382 25.7993 12.7259 27.6102 12.0596 29.4937C12.0221 29.5999 12.086 29.7158 12.1966 29.7367C13.1053 29.9092 14.0426 29.9996 15.0007 29.9996C21.0757 29.9996 26.3182 26.3693 28.6744 21.1644C28.7287 21.0445 28.64 20.9073 28.5083 20.9072Z" fill="white"/>
<path d="M26.9826 5.98639C26.9153 5.89709 26.7826 5.88906 26.7057 5.97022C24.1599 8.6533 18.7496 10.3881 12.6078 10.3881C8.56097 10.3881 4.67267 9.61534 1.80507 8.25525C1.71501 8.2126 1.60713 8.24851 1.56271 8.33776C0.562704 10.3461 0 12.6091 0 15.0009C0 21.254 3.84617 26.6257 9.29694 28.8748C9.39492 28.9152 9.50555 28.8625 9.53947 28.7621C10.3726 26.2946 12.2482 23.9785 14.9603 22.1493C18.6544 19.6576 23.4649 18.2853 28.5055 18.2853C28.8314 18.2853 29.1565 18.2916 29.481 18.3025C29.5692 18.3055 29.6476 18.2455 29.6662 18.1591C29.8854 17.1406 30.0015 16.0841 30.0015 15.0009C30.0015 11.6202 28.8767 8.49767 26.9826 5.98639Z" fill="white"/>
</svg>
