<svg width="32" height="20" viewBox="0 0 32 20" fill="none" xmlns="http://www.w3.org/2000/svg">
<mask id="mask0" mask-type="alpha" maskUnits="userSpaceOnUse" x="0" y="0" width="32" height="20">
<rect width="32" height="20" rx="2" fill="#C4C4C4"/>
</mask>
<g mask="url(#mask0)">
<path d="M-5 -0.5V20H36V-0.5H-5Z" fill="#012169"/>
<path d="M-5 -0.5L36 20L-5 -0.5ZM36 -0.5L-5 20L36 -0.5Z" fill="black"/>
<path d="M36 -0.5L-5 20M-5 -0.5L36 20L-5 -0.5Z" stroke="white" stroke-width="6"/>
<path d="M-5 -0.5L36 20L-5 -0.5ZM36 -0.5L-5 20L36 -0.5Z" fill="black"/>
<path d="M36 -0.5L-5 20M-5 -0.5L36 20L-5 -0.5Z" stroke="#C8102E" stroke-width="4"/>
<path d="M15.5 -0.5V20V-0.5ZM-5 9.75H36H-5Z" fill="black"/>
<path d="M-5 9.75H36M15.5 -0.5V20V-0.5Z" stroke="white" stroke-width="10"/>
<path d="M15.5 -0.5V20V-0.5ZM-5 9.75H36H-5Z" fill="black"/>
<path d="M-5 9.75H36M15.5 -0.5V20V-0.5Z" stroke="#C8102E" stroke-width="6"/>
</g>
</svg>
