<svg width="16" height="16" viewBox="0 0 16 16" fill="none" xmlns="http://www.w3.org/2000/svg">
<g opacity="0.7">
<path d="M13.2918 2.00447C11.8806 0.75767 10.0276 0 8.00097 0C5.44748 0 3.16994 1.20277 1.70422 3.07128C1.66531 3.12087 1.68356 3.19456 1.74116 3.22012C3.06778 3.80817 4.85016 4.14055 6.72475 4.14055C9.9905 4.14055 12.4079 3.17359 13.3006 2.14201C13.3356 2.10145 13.332 2.03998 13.2918 2.00447Z" fill="white"/>
<path d="M15.2039 11.1504C15.2034 11.1504 15.2029 11.1504 15.2024 11.1504C12.79 11.1504 10.5024 11.7973 8.76107 12.9719C7.59342 13.7594 6.78688 14.7252 6.43153 15.7297C6.41153 15.7863 6.44562 15.8481 6.50459 15.8593C6.98919 15.9513 7.48908 15.9995 8.00006 15.9995C11.24 15.9995 14.0359 14.0634 15.2925 11.2875C15.3214 11.2236 15.2741 11.1505 15.2039 11.1504Z" fill="white"/>
<path d="M14.3903 3.19287C14.3544 3.14525 14.2836 3.14096 14.2426 3.18425C12.8849 4.61518 9.9995 5.54035 6.72394 5.54035C4.56571 5.54035 2.49202 5.12825 0.962674 4.40289C0.914642 4.38014 0.85711 4.3993 0.833422 4.44689C0.300099 5.51798 0 6.72487 0 8.00046C0 11.3354 2.05123 14.2001 4.95822 15.3996C5.01047 15.4212 5.06947 15.3931 5.08756 15.3395C5.53189 14.0236 6.53215 12.7884 7.97859 11.8128C9.94872 10.4839 12.5142 9.75209 15.2025 9.75209C15.3763 9.75209 15.5497 9.75543 15.7227 9.76128C15.7698 9.76287 15.8116 9.73087 15.8215 9.68477C15.9384 9.14158 16.0003 8.57816 16.0003 8.00046C16.0003 6.19746 15.4004 4.53218 14.3903 3.19287Z" fill="white"/>
</g>
</svg>
