<svg width="22" height="22" viewBox="0 0 22 22" fill="none" xmlns="http://www.w3.org/2000/svg">
<path d="M18.531 7.23412L20.921 6.24417C19.8519 4.01841 18.0556 2.20845 15.8404 1.12109L14.8501 3.5119C16.4359 4.33049 17.7296 5.63819 18.531 7.23412Z" fill="#8190B0"/>
<path d="M11.0003 19.4218C10.0702 19.4218 9.17505 19.2699 8.33785 18.9902L7.34863 21.3784C8.49133 21.7805 9.7201 21.9999 11.0003 21.9999C12.2476 21.9999 13.4463 21.7919 14.5639 21.4094L13.5738 19.0192C12.7623 19.2802 11.8976 19.4218 11.0003 19.4218Z" fill="#8190B0"/>
<path d="M11 15.5546C13.5154 15.5546 15.5546 13.5154 15.5546 11C15.5546 8.4845 13.5154 6.44531 11 6.44531C8.4845 6.44531 6.44531 8.4845 6.44531 11C6.44531 13.5154 8.4845 15.5546 11 15.5546Z" fill="#8190B0"/>
<path d="M14.7666 18.5305L15.7566 20.9205C17.9823 19.8514 19.7923 18.0551 20.8796 15.8399L18.4888 14.8496C17.6702 16.4354 16.3625 17.7291 14.7666 18.5305Z" fill="#8190B0"/>
<path d="M10.9999 3.86719C7.06692 3.86719 3.86719 7.06692 3.86719 10.9999C3.86719 14.933 7.06692 18.1327 10.9999 18.1327C14.933 18.1327 18.1327 14.933 18.1327 10.9999C18.1327 7.06692 14.933 3.86719 10.9999 3.86719ZM10.9999 16.8436C7.7777 16.8436 5.15624 14.2222 5.15624 10.9999C5.15624 7.7777 7.7777 5.15624 10.9999 5.15624C14.2222 5.15624 16.8436 7.7777 16.8436 10.9999C16.8436 14.2222 14.2222 16.8436 10.9999 16.8436Z" fill="#8190B0"/>
<path d="M3.46856 14.7666L1.07861 15.7566C2.14771 17.9823 3.94396 19.7923 6.1592 20.8796L7.14949 18.4888C5.56365 17.6702 4.27001 16.3625 3.46856 14.7666Z" fill="#8190B0"/>
<path d="M21.4094 7.43652L19.0192 8.4266C19.2802 9.23819 19.4218 10.1029 19.4218 11.0002C19.4218 11.9302 19.2699 12.8254 18.9902 13.6626L21.3784 14.6518C21.7805 13.5091 21.9999 12.2804 21.9999 11.0002C21.9999 9.75282 21.7919 8.55417 21.4094 7.43652Z" fill="#8190B0"/>
<path d="M2.5781 11.0003C2.5781 10.0703 2.73 9.17505 3.00968 8.33785L0.621495 7.34863C0.21944 8.49133 0 9.7201 0 11.0003C0 12.2476 0.207967 13.4463 0.590515 14.5639L2.98076 13.5739C2.71969 12.7623 2.5781 11.8976 2.5781 11.0003Z" fill="#8190B0"/>
<path d="M7.23266 3.46905L6.24271 1.0791C4.01695 2.14816 2.20699 3.94441 1.11963 6.15964L3.51043 7.14994C4.32902 5.56415 5.63673 4.27049 7.23266 3.46905Z" fill="#8190B0"/>
<path d="M10.9997 2.5781C11.9297 2.5781 12.8249 2.73 13.6621 3.00968L14.6513 0.621495C13.5086 0.21944 12.2799 0 10.9997 0C9.75233 0 8.55369 0.207967 7.43604 0.590515L8.42611 2.98076C9.2377 2.71969 10.1024 2.5781 10.9997 2.5781Z" fill="#8190B0"/>
</svg>
