<svg width="22" height="20" viewBox="0 0 22 20" fill="none" xmlns="http://www.w3.org/2000/svg">
<path d="M7.77734 4.84375V15.1562H14.2227V4.84375H7.77734ZM12.9336 9.62234L12.7448 9.81117C12.0455 10.5104 11.6445 11.4786 11.6445 12.4673V13.2227H10.3555V12.4673C10.3555 11.2312 10.8224 10.019 11.6445 9.09933V8.71094H10.3555V9.35547H9.06641V7.42188H12.9336V9.62234Z" fill="#8190B0"/>
<path d="M0 0.976562H22V3.55469H0V0.976562Z" fill="#8190B0"/>
<path d="M0 16.4453H22V19.0234H0V16.4453Z" fill="#8190B0"/>
<path d="M6.48828 4.84375H0V15.1562H6.48828V4.84375ZM5.19922 9.62234L5.01039 9.81117C4.31114 10.5104 3.91016 11.4786 3.91016 12.4673V13.2227H2.62109V12.4673C2.62109 11.2312 3.08804 10.019 3.91016 9.09933V8.71094H2.62109V9.35547H1.33203V7.42188H5.19922V9.62234Z" fill="#8190B0"/>
<path d="M15.5117 15.1562H22V4.84375H15.5117V15.1562ZM16.8008 7.42188H20.668V9.62234L20.4791 9.81117C19.7799 10.5104 19.3789 11.4786 19.3789 12.4673V13.2227H18.0898V12.4673C18.0898 11.2312 18.5568 10.019 19.3789 9.09933V8.71094H18.0898V9.35547H16.8008V7.42188Z" fill="#8190B0"/>
</svg>
