<svg width="22" height="22" viewBox="0 0 22 22" fill="none" xmlns="http://www.w3.org/2000/svg">
<g clip-path="url(#clip0)">
<path d="M9.17572 8.49512L8.04883 11.9633L10.999 14.1068L13.9493 11.9633L12.8224 8.49512H9.17572Z" fill="#8190B0"/>
<path d="M20.4817 16.5823C21.2848 15.2235 21.784 13.7066 21.9433 12.1162L19.5903 13.8175L20.4817 16.5823Z" fill="#8190B0"/>
<path d="M14.0068 7.96428L15.2207 11.7003L18.7217 12.8538L21.9875 10.4925C21.8982 8.51293 21.287 6.62832 20.2205 4.99712L16.1826 4.99023L14.0068 7.96428Z" fill="#8190B0"/>
<path d="M10.3541 15.2335L7.17637 12.9248L3.6701 14.0604L2.42334 17.8901C2.67167 18.1981 2.93729 18.4949 3.22101 18.7786C4.33943 19.897 5.65651 20.7444 7.09241 21.289L10.3541 18.9193V15.2335Z" fill="#8190B0"/>
<path d="M6.59904 0.913086C5.3546 1.45632 4.21016 2.23326 3.22115 3.22227C3.07139 3.37202 2.92706 3.52573 2.78711 3.68241L5.69411 3.68572L6.59904 0.913086Z" fill="#8190B0"/>
<path d="M0.0517578 12.085C0.206587 13.6762 0.701781 15.1944 1.5007 16.5551L2.39991 13.7931L0.0517578 12.085Z" fill="#8190B0"/>
<path d="M9.03698 7.20504H12.9635L15.1402 4.22966L13.8973 0.38419C12.9644 0.131088 11.9919 0 10.9991 0C10.0171 0 9.05487 0.128508 8.13106 0.376277L6.87695 4.21891L9.03698 7.20504Z" fill="#8190B0"/>
<path d="M6.77895 11.6965L7.99242 7.96187L5.83209 4.97531L1.79515 4.9707C0.723645 6.59929 0.106997 8.48218 0.012207 10.4608L3.2723 12.8322L6.77895 11.6965Z" fill="#8190B0"/>
<path d="M14.8191 12.9268L11.6445 15.2332V18.919L14.9061 21.2888C16.342 20.7442 17.6592 19.8968 18.7776 18.7784C19.0538 18.5022 19.3129 18.2136 19.5556 17.9144L18.3195 14.0801L14.8191 12.9268Z" fill="#8190B0"/>
<path d="M19.2322 3.70523C19.0858 3.54042 18.9347 3.37888 18.7775 3.22173C17.796 2.24029 16.6616 1.46744 15.4282 0.924805L16.3253 3.70028L19.2322 3.70523Z" fill="#8190B0"/>
<path d="M8.65234 21.7499C9.41483 21.9147 10.2003 22 10.999 22C11.7977 22 12.5832 21.9148 13.3457 21.7499L10.999 20.0449L8.65234 21.7499Z" fill="#8190B0"/>
</g>
<defs>
<clipPath id="clip0">
<rect width="22" height="22" fill="white"/>
</clipPath>
</defs>
</svg>
