<svg width="22" height="22" viewBox="0 0 22 22" fill="none" xmlns="http://www.w3.org/2000/svg">
<circle opacity="0.1" cx="11" cy="11" r="11" fill="#8190B0"/>
<path fill-rule="evenodd" clip-rule="evenodd" d="M11.2803 12.341L8.59099 15.0303C8.2981 15.3232 7.82322 15.3232 7.53033 15.0303C7.23744 14.7374 7.23744 14.2626 7.53033 13.9697L10.2197 11.2803L7.53033 8.59099C7.23744 8.2981 7.23744 7.82322 7.53033 7.53033C7.82322 7.23744 8.2981 7.23744 8.59099 7.53033L11.2803 10.2197L13.9697 7.53033C14.2626 7.23744 14.7374 7.23744 15.0303 7.53033C15.3232 7.82322 15.3232 8.2981 15.0303 8.59099L12.341 11.2803L15.0303 13.9697C15.3232 14.2626 15.3232 14.7374 15.0303 15.0303C14.7374 15.3232 14.2626 15.3232 13.9697 15.0303L11.2803 12.341Z" fill="#8190B0" stroke="#8190B0"/>
</svg>
