<svg width="16" height="16" viewBox="0 0 16 16" fill="none" xmlns="http://www.w3.org/2000/svg">
<path d="M7.99998 0C3.58171 0 0 3.58171 0 7.99998C0 12.4183 3.58171 16 7.99998 16C12.4183 16 16 12.4183 16 7.99998C16 3.58171 12.4183 0 7.99998 0ZM1.99132 7.99998C1.99132 4.68148 4.68151 1.99132 7.99998 1.99132C9.30018 1.99132 10.5039 2.4044 11.4872 3.10633L3.10633 11.4872C2.4044 10.5039 1.99132 9.30021 1.99132 7.99998ZM7.99998 14.0087C6.70057 14.0087 5.49757 13.5961 4.51463 12.895L12.895 4.51466C13.5961 5.49761 14.0087 6.70063 14.0087 8.00002C14.0087 11.3185 11.3185 14.0087 7.99998 14.0087Z" fill="white"/>
</svg>
