<svg width="16" height="16" viewBox="0 0 16 16" fill="none" xmlns="http://www.w3.org/2000/svg">
<path fill-rule="evenodd" clip-rule="evenodd" d="M8 16C3.58875 16 0 12.4113 0 8C0 3.58875 3.58875 0 8 0C12.4113 0 16 3.58875 16 8C16 12.4113 12.4113 16 8 16ZM8.00065 10.6668C7.6445 10.6668 7.35586 10.3743 7.35586 10.0134V8.30639C7.35586 7.94551 7.6445 7.65304 8.00065 7.65304C8.75996 7.65304 9.37773 7.02708 9.37773 6.2577C9.37773 5.48831 8.75996 4.86236 8.00065 4.86236C7.24134 4.86236 6.62358 5.48831 6.62358 6.2577C6.62358 6.61857 6.33493 6.91105 5.97878 6.91105C5.6228 6.91105 5.33398 6.61857 5.33398 6.2577C5.33398 4.76776 6.53021 3.55566 8.00065 3.55566C9.47109 3.55566 10.6673 4.76776 10.6673 6.2577C10.6673 7.52237 9.80524 8.58678 8.64545 8.87977V10.0134C8.64545 10.3743 8.3568 10.6668 8.00065 10.6668ZM7.99918 13.1234C8.43215 13.1234 8.78309 12.7724 8.78309 12.3395C8.78309 11.9065 8.43215 11.5556 7.99918 11.5556C7.56622 11.5556 7.21528 11.9065 7.21528 12.3395C7.21528 12.7724 7.56622 13.1234 7.99918 13.1234Z" fill="white"/>
</svg>
