<svg width="171" height="172" viewBox="0 0 171 172" fill="none" xmlns="http://www.w3.org/2000/svg">
<path style="mix-blend-mode:screen" d="M143.841 94.8699C149.161 61.9515 126.788 30.953 93.87 25.6328C60.9516 20.3127 29.9531 42.6855 24.633 75.6039C19.3128 108.522 41.6857 139.521 74.6041 144.841C107.523 150.161 138.521 127.788 143.841 94.8699Z" fill="url(#paint0_radial)"/>
<g filter="url(#filter0_d)">
<path fill-rule="evenodd" clip-rule="evenodd" d="M131 86.0097C131.005 92.0515 129.831 98.035 127.544 103.618C125.257 109.2 121.904 114.273 117.674 118.545C113.445 122.816 108.423 126.204 102.897 128.512C97.3699 130.821 91.4469 132.006 85.4664 132C84.6591 132 83.8422 132 83.0446 131.932C81.8529 131.874 80.6708 131.757 79.508 131.612C70.936 130.478 62.8652 126.886 56.251 121.262C51.988 117.634 48.407 113.26 45.6797 108.349C45.401 107.845 45.1319 107.379 44.8628 106.816C44.8628 106.816 44.8628 106.815 44.8628 106.767C44.5841 106.214 44.3246 105.66 44.0748 105.097C43.278 103.332 42.5974 101.516 42.0374 99.6602C41.612 98.3074 41.256 96.9334 40.9707 95.5437C40.7689 94.5728 40.5958 93.6019 40.4613 92.5728C40.152 90.4121 39.9979 88.2317 40 86.0485C40 84.7767 40.0481 83.5048 40.1634 82.2621C40.221 81.466 40.3075 80.6796 40.4133 79.8932C40.9892 75.4527 42.2168 71.1236 44.0556 67.0485C47.6622 59.0018 53.4841 52.173 60.8267 47.377C68.1693 42.5809 76.7227 40.0201 85.4664 40H86.8983C87.4076 40 87.917 40 88.4263 40.0777C91.0174 40.243 93.5896 40.6328 96.1146 41.2427C97.5561 41.5922 98.9977 42 100.353 42.4854C101.314 42.8058 102.217 43.1651 103.13 43.5534C103.812 43.8447 104.476 44.1456 105.139 44.466L105.485 44.6311C109.879 46.8027 113.9 49.6743 117.392 53.1359C117.892 53.6214 118.353 54.1068 118.853 54.6408C119.17 54.9903 119.487 55.3495 119.814 55.7087C120.342 56.3107 120.852 56.9417 121.351 57.5728C125.311 62.7044 128.145 68.6284 129.664 74.9514C130.553 78.569 131.001 82.2825 131 86.0097Z" fill="white"/>
</g>
<path style="mix-blend-mode:screen" d="M85.0141 139.391C114.148 139.391 137.765 115.773 137.765 86.6391C137.765 57.5053 114.148 33.8877 85.0141 33.8877C55.8803 33.8877 32.2627 57.5053 32.2627 86.6391C32.2627 115.773 55.8803 139.391 85.0141 139.391Z" fill="url(#paint1_radial)"/>
<path fill-rule="evenodd" clip-rule="evenodd" d="M135.759 98.7848L135.382 100.133C135.386 100.196 135.386 100.259 135.382 100.322C132.195 111.272 125.536 120.891 116.408 127.729C107.281 134.568 96.1791 138.256 84.7741 138.239C83.8437 138.239 82.8923 138.239 81.9724 138.165C80.5924 138.092 79.2229 137.967 77.8744 137.8C69.2284 136.671 61.0022 133.397 53.9449 128.276C53.2968 127.805 52.6591 127.325 52.0423 126.833C53.1761 126.122 54.4785 125.725 55.8162 125.683L52.1886 122.829L43.2504 118.02C41.527 115.845 39.9818 113.534 38.6297 111.11C38.3021 110.532 37.9885 109.946 37.6888 109.354C37.6888 109.354 37.6888 109.354 37.6888 109.302C37.3752 108.667 37.072 108.03 36.7793 107.389C35.8576 105.351 35.0684 103.256 34.4167 101.116C33.9358 99.5794 33.5176 97.9799 33.1831 96.3909C32.9531 95.2723 32.7544 94.1328 32.5976 92.9828C32.24 90.5074 32.0618 88.0093 32.0645 85.5081C32.0645 84.9227 32.0645 84.3268 32.0645 83.7519C32.0645 82.8842 32.1377 82.0165 32.2213 81.1697C32.3049 80.3229 32.3781 79.4761 32.4826 78.6398C32.4781 78.5772 32.4781 78.5143 32.4826 78.4516C32.6395 77.2808 32.8276 76.1413 33.0681 75.0018C33.3894 73.3677 33.7977 71.752 34.2912 70.1615C34.9428 67.9639 35.7498 65.8154 36.7061 63.7322C37.6242 61.7253 38.6719 59.7803 39.8423 57.9093C43.4386 56.0067 45.7385 55.0135 45.7385 55.0135C45.7385 55.0135 107.073 42.8449 107.982 41.7995C108.892 40.7541 113.575 41.4127 113.575 41.4127C116.449 43.3038 119.134 45.4674 121.593 47.8734C122.168 48.4274 122.722 49.0129 123.287 49.5983C123.653 49.9955 124.019 50.4137 124.332 50.8214C124.939 51.5114 125.535 52.2327 126.11 52.9122C128.218 55.5909 130.059 58.469 131.608 61.5055C132.215 62.6764 132.769 63.8786 133.281 65.1017C136.088 76.3967 135.704 88.2491 132.173 99.3389C133.333 98.9734 134.542 98.7866 135.759 98.7848Z" fill="url(#paint2_radial)"/>
<path fill-rule="evenodd" clip-rule="evenodd" d="M135.759 98.7848L135.382 100.133C135.386 100.196 135.386 100.259 135.382 100.322C132.195 111.272 125.536 120.891 116.408 127.729C107.281 134.568 96.1791 138.256 84.7741 138.239C83.8437 138.239 82.8923 138.239 81.9724 138.165C80.5924 138.092 79.2229 137.967 77.8744 137.8C69.2284 136.671 61.0022 133.397 53.9449 128.276C53.2968 127.805 52.6591 127.325 52.0423 126.833C53.1761 126.122 54.4785 125.725 55.8162 125.683L52.1886 122.829L43.2504 118.02C41.527 115.845 39.9818 113.534 38.6297 111.11C38.3021 110.532 37.9885 109.946 37.6888 109.354C37.6888 109.354 37.6888 109.354 37.6888 109.302C37.3752 108.667 37.072 108.03 36.7793 107.389C35.8576 105.351 35.0684 103.256 34.4167 101.116C33.9358 99.5794 33.5176 97.9799 33.1831 96.3909C32.9531 95.2723 32.7544 94.1328 32.5976 92.9828C32.24 90.5074 32.0618 88.0093 32.0645 85.5081C32.0645 84.9227 32.0645 84.3268 32.0645 83.7519C32.0645 82.8842 32.1377 82.0165 32.2213 81.1697C32.3049 80.3229 32.3781 79.4761 32.4826 78.6398C32.4781 78.5772 32.4781 78.5143 32.4826 78.4516C32.6395 77.2808 32.8276 76.1413 33.0681 75.0018C33.3894 73.3677 33.7977 71.752 34.2912 70.1615C34.9428 67.9639 35.7498 65.8154 36.7061 63.7322C37.6242 61.7253 38.6719 59.7803 39.8423 57.9093C43.4386 56.0067 45.7385 55.0135 45.7385 55.0135C45.7385 55.0135 107.073 42.8449 107.982 41.7995C108.892 40.7541 113.575 41.4127 113.575 41.4127C116.449 43.3038 119.134 45.4674 121.593 47.8734C122.168 48.4274 122.722 49.0129 123.287 49.5983C123.653 49.9955 124.019 50.4137 124.332 50.8214C124.939 51.5114 125.535 52.2327 126.11 52.9122C128.218 55.5909 130.059 58.469 131.608 61.5055C132.215 62.6764 132.769 63.8786 133.281 65.1017C136.088 76.3967 135.704 88.2491 132.173 99.3389C133.333 98.9734 134.542 98.7866 135.759 98.7848Z" fill="url(#paint3_radial)"/>
<path fill-rule="evenodd" clip-rule="evenodd" d="M134.254 85.5185C134.255 87.3629 134.151 89.2059 133.94 91.0383C133.643 93.8128 133.101 96.5556 132.32 99.2343C132.324 99.2935 132.324 99.3529 132.32 99.412C129.323 109.699 123.067 118.735 114.493 125.161C105.918 131.586 95.4892 135.053 84.7745 135.04C83.8964 135.04 83.0078 135.04 82.1401 134.966C80.8438 134.904 79.5579 134.778 78.293 134.621C70.1715 133.561 62.4445 130.485 55.8167 125.673C54.8444 124.983 53.9035 124.241 52.994 123.477C52.7431 123.268 52.4922 123.059 52.2518 122.84C47.9344 119.062 44.293 114.576 41.4841 109.573C41.1809 109.03 40.8882 108.528 40.5955 107.922C40.2923 107.326 40.01 106.73 39.7382 106.124C38.8715 104.223 38.1312 102.267 37.522 100.269C37.0593 98.8127 36.6719 97.3332 36.3616 95.8367C36.142 94.7913 35.9539 93.7459 35.8075 92.6378C35.4711 90.3112 35.3033 87.9634 35.3057 85.6126C35.3057 85.0586 35.3057 84.5045 35.3057 83.9609C35.3057 83.1455 35.3789 82.33 35.452 81.5355C35.5252 80.741 35.5984 79.9465 35.7029 79.1624C35.6979 79.1033 35.6979 79.0438 35.7029 78.9847C35.8493 77.9393 36.027 76.8103 36.2466 75.7439C36.5485 74.2087 36.9323 72.6907 37.3965 71.1964C38.0103 69.1316 38.7683 67.1125 39.665 65.1539C40.6242 63.0398 41.7316 60.9962 42.979 59.0383C43.8354 57.6829 44.7636 56.3742 45.7598 55.118C47.1407 53.3437 48.6427 51.667 50.2551 50.1C59.4823 41.1007 71.8645 36.069 84.7536 36.0811H86.3113C86.8653 36.0811 87.4194 36.0811 87.9735 36.1647C89.5102 36.2692 91.0365 36.4365 92.5315 36.677H92.5837C93.8382 36.8651 95.0718 37.116 96.2845 37.4087C97.8526 37.7851 99.4207 38.2242 100.895 38.7469C101.94 39.0919 102.923 39.4787 103.916 39.8968C104.658 40.2104 105.38 40.5345 106.101 40.8795L106.477 41.0572C111.258 43.3956 115.631 46.4876 119.43 50.215C119.973 50.7377 120.475 51.2604 121.019 51.8354C121.364 52.2118 121.709 52.5986 122.064 52.9854C122.639 53.6335 123.193 54.313 123.737 54.9925C129.597 62.4372 133.186 71.4132 134.076 80.8455C134.212 82.3993 134.272 83.9589 134.254 85.5185Z" fill="url(#paint4_radial)"/>
<path style="mix-blend-mode:screen" fill-rule="evenodd" clip-rule="evenodd" d="M60.5424 65.7813C59.7737 67.6551 59.6959 69.7411 60.3229 71.6669C61.3683 74.6254 64.5045 72.7123 68.1425 71.6669C71.7806 70.6215 75.5754 66.8162 77.9485 64.4327C80.3216 62.0491 82.611 58.7875 82.4124 55.6199C82.2138 52.4523 78.8684 50.3928 78.8684 50.3928C78.8684 50.3928 80.0811 48.8456 79.0566 55.0553C78.0321 61.2651 76.6417 63.4814 75.3141 64.464C73.9864 65.4467 69.9511 67.8094 67.7453 69.1266C65.5395 70.4438 63.0723 71.8133 61.6087 71.4892C60.1451 71.1651 59.382 67.8616 60.5424 65.7813Z" fill="url(#paint5_radial)"/>
<path style="mix-blend-mode:screen" fill-rule="evenodd" clip-rule="evenodd" d="M67.2092 63.6373C67.2092 63.6373 65.3274 65.31 65.8292 66.6481C66.331 67.9862 69.8854 67.129 72.1644 64.2437C74.4434 61.3583 72.6453 59.0166 72.6453 59.0166C72.6453 59.0166 71.809 63.8359 69.5927 64.6827C67.3764 65.5295 66.6551 65.1741 66.6551 65.1741C66.6551 65.1741 66.3519 64.7977 67.2092 63.6373Z" fill="url(#paint6_radial)"/>
<path style="mix-blend-mode:screen" fill-rule="evenodd" clip-rule="evenodd" d="M61.5645 65.7184C61.5645 65.7184 63.3939 63.6276 65.4743 61.7145C67.1372 60.4048 69.0797 59.4961 71.1509 59.0592C70.375 58.7374 69.5322 58.6101 68.6959 58.6885C67.8596 58.7668 67.0551 59.0484 66.3524 59.5087C63.6657 61.0454 61.5645 65.7184 61.5645 65.7184Z" fill="url(#paint7_radial)"/>
<path style="mix-blend-mode:screen" fill-rule="evenodd" clip-rule="evenodd" d="M54.1124 65.7601C56.768 62.9106 59.9671 60.6215 63.5211 59.0276C68.675 56.9995 70.4522 56.4036 72.7312 54.5219C74.2669 53.2809 75.8878 52.149 77.5819 51.1348C77.5819 51.1348 72.5744 51.3961 64.9115 56.2468C57.2486 61.0975 54.0915 64.1815 54.1124 65.7601Z" fill="url(#paint8_radial)"/>
<path style="mix-blend-mode:screen" fill-rule="evenodd" clip-rule="evenodd" d="M43.7822 64.8211C43.7822 64.8211 51.1001 57.5032 56.8499 54.6283C62.5996 51.7535 66.4572 49.8717 71.6111 48.5859C76.7649 47.3 84.7205 45.0524 84.7205 45.0524L86.1632 44.3311C86.1632 44.3311 69.7816 44.6656 59.0348 51.1367C48.2879 57.6078 43.7822 64.8211 43.7822 64.8211Z" fill="url(#paint9_radial)"/>
<path style="mix-blend-mode:screen" fill-rule="evenodd" clip-rule="evenodd" d="M52.5762 73.2664C52.5762 73.2664 53.7994 83.386 55.5661 83.846C57.3329 84.3059 63.6367 84.2537 73.014 79.4552C82.3913 74.6568 84.294 75.7649 89.5524 70.4229C94.8108 65.0808 96.9225 59.0593 98.5743 55.024C100.226 50.9887 100.665 46.4725 100.174 45.0508C100.174 45.0508 101.941 46.0962 101.941 50.0688C101.81 55.0197 100.838 59.9124 99.0656 64.5372C97.3825 68.3948 93.0232 74.4373 87.7752 77.4062C82.5272 80.3752 72.0313 86.0831 61.734 85.9995C51.4367 85.9159 53.0571 85.1736 52.0013 83.1246C50.9454 81.0756 52.5762 73.2664 52.5762 73.2664Z" fill="url(#paint10_radial)"/>
<g style="mix-blend-mode:multiply" opacity="0.5">
<path fill-rule="evenodd" clip-rule="evenodd" d="M36.5176 81.9117C37.6441 84.4485 38.601 87.0573 39.382 89.7209C40.4274 93.4426 40.2183 99.7882 44.4732 100.781C48.728 101.775 54.6764 104.545 56.9554 103.844C59.2344 103.144 67.6394 101.649 72.302 102.559C76.9645 103.468 85.4742 102.956 88.4536 101.513C91.433 100.07 97.8623 96.2129 100.863 95.0525C103.863 93.8921 108.097 90.5782 111.714 86.8983C115.331 83.2185 115.289 79.0264 116.178 76.946C117.066 74.8656 118.854 66.5546 118.655 62.7912C118.457 59.0277 116.178 51.9921 116.178 51.9921L114.087 49.7549C114.087 49.7549 116.701 59.4249 115.509 66.2515C114.317 73.078 115.404 75.8588 110.658 82.3926C105.995 88.9402 99.4227 93.8874 91.8407 96.5579C84.4078 99.0355 79.6512 98.7324 71.9779 99.4537C64.7855 100.123 55.8263 99.6105 52.2615 98.6801C47.7013 97.4567 43.8042 94.4908 41.4101 90.4214C38.138 85.1943 36.5176 81.9117 36.5176 81.9117Z" fill="#7D72B3"/>
</g>
<g style="mix-blend-mode:multiply" opacity="0.4">
<path fill-rule="evenodd" clip-rule="evenodd" d="M52.8881 71.2172C52.8881 71.2172 53.5781 82.2044 54.9789 83.1453C56.3798 84.0862 59.3383 84.4834 62.1191 83.5426C64.8999 82.6017 74.3922 79.4864 76.0335 78.4932C77.6748 77.5001 87.6794 72.503 89.6238 71.0185C91.5683 69.5341 94.2341 64.2443 95.1227 63.1466C96.0113 62.0489 98.4366 55.5151 99.1371 53.0375C99.8375 50.5599 100.329 47.5595 100.329 47.5595C100.386 47.1892 100.321 46.8104 100.144 46.4803C99.9664 46.1503 99.6864 45.8869 99.3462 45.7301C98.1544 45.2805 97.9558 45.7301 97.9558 45.7301C97.9558 45.7301 97.7049 47.3609 96.6699 52.0652C95.6349 56.7696 81.616 72.9107 74.5281 77.1551C69.6674 80.1567 63.9942 81.5741 58.2929 81.2113C55.8675 80.9186 52.8463 73.0989 52.8881 71.2172Z" fill="#7D72B3"/>
</g>
<g style="mix-blend-mode:multiply" opacity="0.4">
<path fill-rule="evenodd" clip-rule="evenodd" d="M52.5748 73.2666C52.5748 73.2666 52.8675 66.4296 54.6656 64.1297C56.4637 61.8298 62.3703 57.1045 65.8724 55.3169C69.3745 53.5292 74.4866 51.0098 76.2638 50.6334C77.2574 50.4005 78.2914 50.4005 79.285 50.6334C79.285 50.6334 77.1942 49.473 72.2494 50.7171C67.3046 51.9611 61.7953 56.5086 59.1295 57.9199C56.4637 59.3312 52.2925 62.7497 51.2994 64.4747C50.3062 66.1996 52.5748 73.2666 52.5748 73.2666Z" fill="#7D72B3"/>
</g>
<g style="mix-blend-mode:multiply" opacity="0.4">
<path fill-rule="evenodd" clip-rule="evenodd" d="M40.5205 66.0539L55.7103 52.7877L65.119 48.5224C65.119 48.5224 74.4232 45.3862 78.7093 44.3408C82.9955 43.2954 92.5297 43.0445 92.5297 43.0445L97.5372 43.5881C97.5372 43.5881 88.8185 38.8419 75.939 42.3022C63.0596 45.7625 54.4976 50.101 50.7342 53.6554C46.9707 57.2098 41.2732 64.2872 40.5205 66.0539Z" fill="#7D72B3"/>
</g>
<path style="mix-blend-mode:screen" fill-rule="evenodd" clip-rule="evenodd" d="M40.0933 66.6483C40.0933 66.6483 31.9287 76.5065 35.9117 82.5699C39.8947 88.6333 41.6301 97.3729 42.78 99.4115C43.93 101.45 57.0708 104.503 59.7993 103.865C62.5278 103.227 69.0721 101.523 73.3897 103.175C73.3897 103.175 80.9793 102.527 83.1538 102.527C85.3282 102.527 89.2903 100.676 90.2208 100.216C91.1512 99.7565 96.2946 98.1256 98.929 97.0802C101.563 96.0348 105.797 92.7209 107.512 91.4036C110.194 88.9089 112.566 86.101 114.579 83.0404C115.436 81.3886 118.008 71.7499 118.677 67.1919C119.346 62.6339 117.328 53.8316 115.854 50.8313C114.38 47.8309 109.707 44.9561 109.707 44.9561L109.979 43.5761L113.617 41.4121C113.617 41.4121 119.942 49.7127 120.538 56.8842C120.883 61.0658 121.855 70.0459 120.757 73.893C119.869 77.0292 116.837 86.072 114.202 89.3128C111.568 92.5536 103.633 100.812 99.4099 102.443C95.1865 104.074 82.6834 106.207 75.3655 106.353C69.9503 106.468 58.0326 105.496 52.1783 105.308C46.324 105.119 42.1214 101.44 39.8006 99.5787C37.4798 97.7179 38.2639 92.6477 35.8803 88.6438C33.4968 84.6398 32.2005 79.3187 32.7441 76.4229C33.2877 73.5271 40.0933 66.6483 40.0933 66.6483Z" fill="url(#paint11_radial)"/>
<path fill-rule="evenodd" clip-rule="evenodd" d="M54.436 104.17C53.1815 103.877 52.0525 103.187 50.8084 102.874C50.108 102.706 49.418 102.602 48.7176 102.403C48.0056 102.198 47.2725 102.076 46.5327 102.037C45.8098 102.078 45.0871 101.954 44.419 101.675C43.7508 101.397 43.1546 100.97 42.6751 100.427C41.8941 99.3622 41.3197 98.1601 40.9816 96.8833C40.4902 95.1271 40.0198 93.3708 39.4762 91.6563C38.9795 90.0726 38.2765 88.5612 37.3854 87.161C37.0299 86.5861 36.7268 86.0111 36.34 85.457C35.9254 84.9728 35.5512 84.4553 35.2214 83.9098C34.5645 82.4428 34.2602 80.8425 34.3328 79.2368C34.3994 78.3911 34.55 77.5542 34.7823 76.7383C34.983 75.7126 35.3353 74.7226 35.8277 73.8007C36.3295 72.933 36.8208 72.0444 37.3226 71.1558C38.4276 69.1478 39.6822 67.2258 41.0757 65.406C42.8929 63.1604 44.8297 61.0142 46.8777 58.9768C48.071 57.8023 49.3538 56.7223 50.7143 55.7465C51.8434 54.9101 52.8888 53.9902 54.0074 53.1434C55.9777 51.7839 58.079 50.6247 60.2798 49.6831C62.8829 48.4286 65.5069 47.2159 68.1936 46.2228C71.4059 45.0518 74.7011 44.1223 78.0518 43.442C81.9207 42.7419 85.8508 42.4371 89.7813 42.5325C91.8722 42.5325 94.193 42.2711 96.2315 43.0656C97.4498 43.4665 98.6207 43.9994 99.7232 44.6546C99.9113 44.7492 100.076 44.885 100.204 45.0519C100.291 45.1878 100.358 45.3357 100.403 45.491C100.593 45.9213 100.71 46.3808 100.748 46.85C100.748 47.2786 100.56 47.655 100.56 48.1045C100.56 48.7422 100.403 49.3172 100.382 49.9444C100.315 50.6119 100.21 51.275 100.068 51.9307C99.9162 53.2159 99.6145 54.479 99.1691 55.6942C98.4373 57.4609 97.9564 59.3218 97.1515 61.0676C96.911 61.6007 96.4824 62.0085 96.242 62.5416C96.0015 63.0748 95.8029 63.4198 95.5311 63.8797C95.0188 64.737 94.6007 65.6256 94.0152 66.441C92.8698 68.1981 91.5108 69.8063 89.9695 71.229C88.0244 72.8001 85.9225 74.1663 83.6971 75.3061C82.2544 76.0692 80.749 76.686 79.2854 77.3969C77.9787 78.0451 76.6719 78.7141 75.3547 79.3309C71.9318 80.8498 68.4114 82.1385 64.8169 83.1885C63.828 83.5466 62.8102 83.8194 61.7748 84.0039C60.7696 84.2242 59.7491 84.3674 58.7222 84.4325C57.6528 84.3844 56.5962 84.1801 55.586 83.8262C53.8924 83.2617 53.7251 81.4217 53.5997 79.8954C53.5164 78.7556 53.3699 77.6213 53.1606 76.4978C52.9933 75.5883 52.9202 74.6893 52.7111 73.7693C52.4938 72.84 52.3747 71.8904 52.3556 70.9363C52.4516 69.7335 52.6938 68.5469 53.077 67.4028C53.2007 66.6276 53.3931 65.8649 53.6519 65.1238C54.1648 64.0638 54.8992 63.1261 55.8055 62.3743C56.6732 61.6007 57.5304 60.8376 58.3877 60.0535C58.8999 59.5726 59.5062 59.2172 60.0499 58.7781C61.0264 58.0338 62.0774 57.3927 63.1861 56.865C63.9738 56.343 64.7345 55.7813 65.4651 55.1819C66.3084 54.6237 67.1808 54.1107 68.0786 53.6452C68.8418 53.2688 69.6676 53.0075 70.4622 52.6939C71.2567 52.3802 71.7062 52.0666 72.3648 51.8471C73.0234 51.6275 73.5984 51.5753 74.1943 51.3244C74.7612 51.0785 75.3446 50.8725 75.9401 50.7076C76.62 50.4829 77.3203 50.3254 78.0309 50.2371C78.6064 50.1904 79.1772 50.3711 79.6209 50.7405C80.0645 51.11 80.3457 51.6386 80.404 52.213C80.8849 54.0111 80.3308 55.5269 79.6827 57.1891C79.16 58.5272 78.585 59.8549 78.0727 61.2139C77.3932 63.0225 75.7833 63.9738 74.4242 65.2074C72.9481 66.5349 71.2769 67.6279 69.469 68.4482C68.9149 68.6991 68.319 68.8454 67.7754 69.0754C67.2318 69.3054 66.845 69.5459 66.3746 69.7968C66.0714 69.964 65.8519 70.2045 65.5696 70.3926C65.2874 70.5808 65.026 70.654 64.7647 70.8213C64.1398 71.2538 63.4787 71.6315 62.7888 71.9503C62.1198 72.2535 60.7921 72.4312 60.353 71.6471C60.1871 71.1966 60.085 70.7251 60.0499 70.2463C59.9381 69.7314 59.889 69.2049 59.9035 68.6782C59.9236 68.1754 59.9866 67.6753 60.0917 67.1832C60.2126 66.6969 60.3734 66.2214 60.5726 65.7615C61.1657 64.4323 61.9589 63.2019 62.9247 62.113C63.4325 61.36 63.9841 60.6374 64.5765 59.949C65.5748 59.0047 66.8228 58.3662 68.1727 58.1091C69.3645 57.8164 71.1417 57.4609 72.2393 58.1091C73.1698 58.684 72.5216 59.949 72.2393 60.7226C72.0721 61.1512 71.8944 61.5903 71.748 62.0294C71.6793 62.3901 71.567 62.7412 71.4135 63.0748C70.9217 63.6912 70.3403 64.2304 69.6885 64.6743C69.3933 64.938 69.0581 65.1533 68.6954 65.312C68.2981 65.4374 67.8695 65.4269 67.4723 65.521C67.2736 65.521 67.1691 65.8138 66.9287 65.7197C66.6882 65.6256 66.7091 65.3956 66.7509 65.1656C66.7928 64.9356 66.8868 64.7474 66.9287 64.5488C66.9287 64.5488 66.9287 64.4338 66.9287 64.3815C67.2762 63.688 67.7158 63.0445 68.2354 62.4684C68.7999 62.6984 68.4131 63.033 68.3086 63.2839C68.2593 63.4908 68.2209 63.7001 68.1936 63.9111C68.1936 64.0888 67.88 64.4129 68.0786 64.6011C68.2772 64.7893 68.6745 64.4965 68.8209 64.4443C69.4106 64.1574 69.9294 63.7432 70.3398 63.2316C70.7502 62.72 71.0419 62.1237 71.1939 61.4858C71.4344 60.7017 71.3926 59.3949 70.5249 58.9977C69.8401 58.8378 69.1331 58.7954 68.4341 58.8722C65.9773 58.8722 64.5242 61.4544 63.207 63.148C62.3203 64.3063 61.6153 65.593 61.1162 66.9637C60.8153 67.9047 60.5641 68.8608 60.3635 69.8281C60.1753 70.5286 59.9453 71.6053 61.0221 71.459C61.6723 71.302 62.3087 71.0923 62.9247 70.8317C63.4327 70.664 63.9257 70.4542 64.3988 70.2045C65.1724 69.7863 66.0401 69.6713 66.845 69.3159C67.4723 69.0336 68.11 68.6886 68.7372 68.3855C70.4186 67.4351 71.8907 66.1551 73.0652 64.622C73.8929 63.7679 74.7653 62.9583 75.6788 62.1966C76.4863 61.2507 77.1551 60.1947 77.665 59.0604C78.2348 57.995 78.6401 56.8495 78.8672 55.6628C79.1181 54.6174 79.7663 53.342 79.4318 52.213C79.0972 51.0839 77.5709 51.0212 76.5987 51.1675C75.7623 51.2748 74.9391 51.4675 74.142 51.7425C72.7202 52.307 71.3194 52.9134 69.9604 53.4884C67.8284 54.5526 65.7835 55.783 63.8447 57.1682C62.7628 57.7249 61.7155 58.3463 60.7085 59.029C59.9976 59.5831 59.3181 60.2313 58.6176 60.8376C58.1739 61.3212 57.699 61.7751 57.1959 62.1966C56.4723 62.6683 55.8238 63.2463 55.2723 63.9111C54.7939 64.477 54.4028 65.1113 54.1119 65.7928C54.0075 66.3138 54.0075 66.8504 54.1119 67.3714C54.0888 68.0883 54.0294 68.8036 53.9342 69.5145C53.9342 70.2881 53.9342 71.0826 53.9342 71.8562C53.9342 73.3721 53.7042 74.8461 53.7356 76.3828C53.7919 77.3479 53.9318 78.3063 54.1537 79.2473C54.3657 79.9327 54.5333 80.6311 54.6555 81.3381C54.637 81.6042 54.6749 81.8712 54.7667 82.1217C54.8586 82.3721 55.0024 82.6003 55.1887 82.7912C55.4149 82.9207 55.6576 83.0191 55.91 83.0839C56.1296 83.1676 56.3282 83.2407 56.5373 83.3035L56.9032 83.408C56.9973 83.408 57.0704 83.5962 57.1645 83.638C57.4556 83.7161 57.7621 83.7161 58.0531 83.638C58.6595 83.523 59.2554 83.3766 59.8617 83.2721C61.3813 83.158 62.8866 82.899 64.357 82.4985C66.0192 81.8713 67.5664 80.9722 69.2077 80.3031C71.7284 79.4435 74.2025 78.4525 76.6196 77.3342C77.665 76.7592 78.7732 76.226 79.8604 75.7347C82.4426 74.5743 85.1502 73.6439 87.4187 71.8876C88.2331 71.2108 88.9917 70.4697 89.6872 69.6713C90.1054 69.2218 90.5549 68.8245 90.9313 68.3332C92.0664 66.8806 93.0771 65.3349 93.9525 63.7125C94.3184 63.033 94.538 62.2907 94.9143 61.6217C95.4997 60.5762 96.2106 59.6354 96.7542 58.5482C97.2427 57.4953 97.6448 56.4045 97.9565 55.2865C98.1941 54.6513 98.3146 53.9783 98.3119 53.3002C98.2446 51.9077 98.4911 50.5179 99.0332 49.2335C99.4898 48.4317 99.6801 47.5056 99.5768 46.5887C99.4514 46.1809 98.866 46.0764 98.5314 45.9614C97.6951 45.6791 96.8274 45.4701 96.0224 45.1146C95.3673 44.7335 94.6641 44.4416 93.9316 44.2469C93.6333 44.1795 93.3279 44.1479 93.0221 44.1528C92.2381 44.1528 91.5585 44.7383 90.7745 44.7069C90.534 44.6772 90.2963 44.6283 90.0636 44.5606C89.6495 44.5294 89.2337 44.5294 88.8196 44.5606C87.9205 44.5606 87.0528 44.3619 86.1433 44.3724C85.2338 44.3828 84.0525 44.4769 83.0071 44.5396C81.9617 44.6024 81.0103 44.5396 80.0172 44.5396C79.45 44.6121 78.9047 44.8045 78.4177 45.1042C77.9055 45.3342 77.3723 45.4282 76.7973 45.6269C76.3526 45.8342 75.8749 45.9615 75.386 46.0032C74.6908 45.9344 73.9905 45.9344 73.2952 46.0032C72.4504 46.2199 71.6252 46.5066 70.8281 46.8605C68.6013 47.8118 66.4373 48.9513 64.127 49.7353C63.0084 50.0803 61.8584 50.2371 60.7712 50.6762C60.3735 50.8734 59.9954 51.1079 59.6421 51.3766C58.9104 51.868 58.1472 52.3175 57.3945 52.7879C55.7114 53.8333 54.1119 55.0251 52.5125 56.2169C50.6118 57.5524 48.8595 59.0875 47.2854 60.7958C44.4624 63.8988 41.8168 67.1587 39.3612 70.5599C38.159 72.1737 37.109 73.8955 36.225 75.7033L36.1727 75.8183C35.7099 76.8318 35.5293 77.9515 35.65 79.0591C35.6451 79.0797 35.6451 79.1012 35.65 79.1218C35.8236 80.1037 36.1222 81.0593 36.5386 81.9653C36.8668 82.8276 37.2473 83.6689 37.6781 84.4848C38.2755 85.2857 38.8103 86.1315 39.2776 87.0147C39.7271 88.1751 40.1348 89.4191 40.4798 90.6213C40.9107 92.1453 41.2596 93.6912 41.5252 95.2525C41.6571 96.2225 41.9245 97.1691 42.3197 98.0647C42.9574 99.2982 44.3164 99.7582 45.4559 100.48C45.9527 100.835 46.5489 101.026 47.16 101.023C48.1412 101.1 49.1098 101.293 50.0453 101.598C52.0398 102.272 54.1288 102.625 56.2341 102.644C57.4802 102.546 58.7194 102.375 59.9453 102.131C61.1057 101.985 62.2661 101.87 63.4161 101.682C64.4476 101.445 65.4963 101.291 66.5523 101.222C67.6124 101.231 68.6667 101.379 69.6885 101.661C71.3789 102.196 73.1425 102.464 74.9156 102.455C76.0237 102.455 77.111 102.173 78.2086 102.1C79.2253 102.088 80.2416 102.143 81.2508 102.267C83.0337 102.305 84.8076 102.004 86.4778 101.379C87.5791 100.985 88.6314 100.466 89.6141 99.8314C90.4204 99.4152 91.2833 99.1194 92.1753 98.9533C93.9987 98.4789 95.7549 97.7764 97.4024 96.8624C99.4932 95.6498 101.291 93.8621 103.361 92.5658C104.532 91.834 105.849 91.3531 106.989 90.5691C107.932 89.9279 108.811 89.1961 109.613 88.3842C110.543 87.4433 111.421 86.4606 112.352 85.5197C112.968 84.7702 113.446 83.9171 113.763 83.0003C114.313 81.6647 114.665 80.256 114.808 78.8187C115.138 77.4341 115.655 76.1011 116.345 74.8565C117.19 73.2533 117.739 71.511 117.966 69.7131C118.101 68.3018 118.29 66.8801 118.29 65.4583C118.257 64.5544 118.166 63.6535 118.018 62.7612C117.903 61.9248 117.736 61.1199 117.558 60.294C117.328 59.2486 117.359 58.2032 117.171 57.1578C116.983 56.1123 116.732 55.3492 116.492 54.4815C116.318 53.8541 116.101 53.2393 115.843 52.6416C115.384 51.5683 114.775 50.5653 114.035 49.6622C113.719 49.3722 113.367 49.1229 112.989 48.9199C112.718 48.7108 112.655 48.5331 112.341 48.3763C112.028 48.2195 111.463 47.9372 111.035 47.6968C110.345 47.2995 109.561 47.1845 108.871 46.8082C108.181 46.4318 107.616 45.9823 106.989 45.5851C106.248 45.2118 105.547 44.7634 104.898 44.2469C104.292 43.6615 103.853 42.9193 103.309 42.3338C102.646 41.7797 101.948 41.2698 101.218 40.8075C100.037 39.8876 98.6464 39.7621 97.3187 39.2499C96.6584 39.0172 95.975 38.856 95.2802 38.769C94.5594 38.4775 93.823 38.2262 93.0744 38.0163C92.3145 37.9786 91.5592 37.8772 90.8163 37.7131C90.3849 37.5908 89.9445 37.5034 89.4991 37.4518C88.6221 37.4081 87.7429 37.4536 86.8751 37.5877C86.0986 37.6295 85.3204 37.6295 84.5438 37.5877C83.8863 37.6399 83.2256 37.6399 82.568 37.5877C80.6718 37.342 78.7548 37.3 76.8496 37.4622C75.0776 37.5054 73.3195 37.7867 71.6226 38.2985C70.1903 38.7899 68.779 39.2081 67.3782 39.783C66.4616 40.2272 65.5747 40.73 64.7228 41.2884C62.5588 42.5011 60.5412 43.9856 58.5131 45.3655C56.2132 46.8918 54.0492 48.5854 51.8329 50.2476C50.3903 51.293 48.9267 52.4116 47.5049 53.5302C46.8881 54.0215 46.2923 54.5756 45.7068 55.0565C47.0877 53.2821 48.5897 51.6055 50.2021 50.0385C59.4293 41.0391 71.8115 36.0075 84.7006 36.0196H86.2583C86.8124 36.0196 87.3664 36.0196 87.9205 36.1032C89.4573 36.2077 90.9836 36.375 92.4785 36.6154H92.5308C94.2313 37.0754 95.9283 37.5633 97.6219 38.079C99.0332 38.5076 100.455 38.8944 101.804 39.3753C102.724 39.6889 103.623 40.0967 104.511 40.4207C105.345 40.7244 106.162 41.0733 106.957 41.4661C108.17 42.2096 109.336 43.0266 110.449 43.9124C111.184 44.4922 111.882 45.1172 112.54 45.7837C113.493 46.7128 114.341 47.7434 115.07 48.8572C116.81 51.4921 118.057 54.4216 118.75 57.5027C119.196 60.1403 119.319 62.8224 119.116 65.4897C119.035 66.9421 118.839 68.3858 118.53 69.8072C118.102 71.2859 117.753 72.7864 117.485 74.3025C117.412 75.0656 117.485 75.8497 117.412 76.6024C117.338 77.3551 117.077 77.8151 116.952 78.4319C116.706 79.7409 116.284 81.0104 115.697 82.2058C114.832 83.7969 113.78 85.2781 112.561 86.6174C111.233 88.196 109.811 89.7537 108.431 91.259C107.021 92.7911 105.386 94.0989 103.581 95.1375C102.209 96.0667 100.761 96.8781 99.2527 97.5629C97.8021 98.2688 96.2667 98.7853 94.6843 99.0996C93.5664 99.2194 92.5067 99.6585 91.6317 100.365C91.0567 100.783 90.5863 101.347 90.095 101.797C89.607 102.143 89.0568 102.391 88.4746 102.529C87.1105 102.881 85.6969 103.001 84.2929 102.884C82.2627 102.915 80.2354 103.051 78.2191 103.292C77.2032 103.417 76.1788 103.459 75.156 103.417C74.2361 103.417 73.3266 103.124 72.4171 103.009C71.5076 102.894 70.389 102.863 69.3854 102.706C68.648 102.586 67.896 102.586 67.1586 102.706C66.5105 102.779 65.8623 102.706 65.2142 102.706C64.566 102.706 63.8865 102.915 63.2174 103.009C60.3948 103.501 57.5409 104.902 54.436 104.17Z" fill="#00C4FF"/>
<path style="mix-blend-mode:screen" fill-rule="evenodd" clip-rule="evenodd" d="M51.9805 126.823C51.9805 126.823 63.5741 128.914 68.8429 128.705C76.809 128.475 85.9877 129.468 93.1174 129.666C100.247 129.865 112.719 124.011 114.987 122.944C119.72 120.565 123.973 117.333 127.532 113.41C132.331 108.089 134.223 99.4121 134.223 99.4121H132.226C131.503 102.269 130.263 104.968 128.567 107.378C126.832 109.908 124.281 112.124 120.789 115.135C115.567 119.574 109.399 122.76 102.756 124.45C93.9955 126.635 86.2072 126.028 80.8024 126.823C73.0246 127.983 55.7126 125.244 55.7126 125.244L51.9805 126.823Z" fill="url(#paint12_radial)"/>
<path fill-rule="evenodd" clip-rule="evenodd" d="M48.916 121.084C48.916 121.084 50.7664 125.893 51.9791 126.823C51.9791 126.823 54.5194 126.98 55.753 125.673L52.1882 122.83L48.916 121.084Z" fill="url(#paint13_radial)"/>
<path fill-rule="evenodd" clip-rule="evenodd" d="M134.412 90.4229C135.052 93.1765 135.502 95.9708 135.76 98.7861C135.76 98.7861 133.816 100.009 132.269 99.4238C132.269 99.4134 134.119 92.7646 134.412 90.4229Z" fill="url(#paint14_radial)"/>
<path fill-rule="evenodd" clip-rule="evenodd" d="M100.862 38.6846C100.862 38.6846 111.191 39.73 113.616 41.4131C112.649 42.4835 111.381 43.2376 109.978 43.5771C109.978 43.5771 101.594 38.925 100.862 38.6846Z" fill="#FF61C7"/>
<path fill-rule="evenodd" clip-rule="evenodd" d="M39.8105 57.9192L44.0445 57.2502L45.7067 55.0234C45.7067 55.0234 42.6645 56.3616 39.8105 57.9192Z" fill="#FF61C7"/>
<g style="mix-blend-mode:multiply" opacity="0.5">
<path fill-rule="evenodd" clip-rule="evenodd" d="M43.25 118.032C43.25 118.032 63.2905 123.855 78.9403 124.148C94.5901 124.44 100.465 121.012 107.24 118.346C114.014 115.68 125.106 109.732 128.461 105.299C131.817 100.867 134.41 90.4229 134.41 90.4229C134.41 90.4229 131.2 106.104 128.42 108.833C125.639 111.561 113.209 119.966 111.034 121.064C108.86 122.162 102.932 126.646 92.217 125.392C92.217 125.392 85.0141 126.437 82.4111 126.207C79.808 125.977 75.7623 128.643 68.3294 126.207C68.3294 126.207 58.0007 125.685 55.7845 125.162C53.5682 124.639 43.25 118.032 43.25 118.032Z" fill="#54469B"/>
</g>
<path fill-rule="evenodd" clip-rule="evenodd" d="M48.1104 96.9871C48.1104 96.9871 64.7324 99.8724 76.7651 98.6388C88.7977 97.4053 95.3106 94.4572 98.7187 92.1573C102.127 89.8574 108.88 82.7486 111.389 79.4556C113.898 76.1625 115.184 67.9561 115.184 67.9561C115.184 67.9561 115.633 75.943 113.584 79.4556C111.535 82.9681 104.458 89.502 101.583 91.4046C98.7082 93.3073 90.439 97.8548 86.1319 98.6388C81.8249 99.4229 74.6951 101.608 69.5413 100.656C64.3874 99.7052 51.9156 99.8306 48.1104 96.9871Z" fill="#B04FE2"/>
<path fill-rule="evenodd" clip-rule="evenodd" d="M71.1533 123.593C71.1533 123.593 88.4549 122.401 94.3928 121.084C100.331 119.767 108.15 116.547 113.618 114.54C119.085 112.533 123.204 108.571 126.215 106.365C129.226 104.159 133.073 95.0117 133.073 95.0117C133.073 95.0117 130.606 104.086 126.801 107.044C122.995 110.003 113.336 115.408 102.401 120.29C90.2843 125.684 80.8025 124.147 71.1533 123.593Z" fill="#8B40E0"/>
<path fill-rule="evenodd" clip-rule="evenodd" d="M131.43 101.922C131.702 101.096 131.995 100.28 132.267 99.4648C131.311 102.725 130.022 105.878 128.42 108.874C127.96 109.323 127.374 109.679 126.967 110.17C126.559 110.661 126.141 111.153 125.67 111.613C123.374 113.827 120.859 115.803 118.164 117.509C115.478 119.34 112.642 120.942 109.686 122.297C107.395 123.315 105.024 124.143 102.598 124.774C100.61 125.25 98.5781 125.523 96.5347 125.59C95.4893 125.59 94.5066 125.809 93.4925 125.903C92.2276 126.039 90.9313 126.018 89.6872 126.238C87.5217 126.643 85.3322 126.909 83.1325 127.032C81.2612 127.137 79.4004 127.398 77.5291 127.398C75.1247 127.398 72.7411 127.011 70.3367 127.022C67.9322 127.032 65.6532 126.938 63.3324 126.729C61.942 126.593 60.583 126.332 59.2135 126.175C58.0531 126.039 56.9345 125.788 55.7846 125.663C54.8123 124.973 53.8715 124.231 52.962 123.467C52.7111 123.258 52.4602 123.049 52.2197 122.83C53.5369 123.248 54.8437 123.697 56.1714 124.116C58.0984 124.679 60.0714 125.071 62.0675 125.286C63.7475 125.567 65.4639 125.55 67.1377 125.234C68.7686 124.827 69.9813 125.349 71.4657 125.956C72.151 126.202 72.849 126.411 73.5566 126.583C74.471 126.828 75.4294 126.86 76.3582 126.677C77.2678 126.562 78.2191 126.405 79.1286 126.206C80.0381 126.008 80.6444 125.726 81.4285 125.621C82.8086 125.374 84.2177 125.331 85.6101 125.496C87.1575 125.816 88.7474 125.876 90.3145 125.673C91.9099 125.397 93.5251 125.25 95.1443 125.234C95.6703 125.235 96.1952 125.284 96.7124 125.381C97.3043 125.423 97.8991 125.38 98.4791 125.255C99.5421 125.164 100.593 124.964 101.615 124.659C102.577 124.356 103.497 123.927 104.438 123.614C106.244 123.002 107.968 122.169 109.571 121.136C110.94 120.216 112.456 119.568 113.847 118.679C115.237 117.791 116.356 116.745 117.715 115.93C119.074 115.115 120.454 113.996 121.823 113.024C122.691 112.407 123.464 111.675 124.332 111.048C125.2 110.421 125.911 110.076 126.611 109.459C127.858 108.48 128.92 107.287 129.747 105.936C130.444 104.659 131.008 103.313 131.43 101.922Z" fill="#00C4FF"/>
<path fill-rule="evenodd" clip-rule="evenodd" d="M78.3535 74.3426C78.3535 74.3426 90.3026 64.5576 95.3205 55.0234C95.3205 55.0234 81.3957 69.3247 78.3535 74.3426Z" fill="#FF77F4"/>
<path fill-rule="evenodd" clip-rule="evenodd" d="M65.7881 86.0003C71.249 85.8309 76.6335 84.669 81.6783 82.5714C86.8203 80.3324 91.1851 76.6224 94.2232 71.9082C90.6692 75.1971 86.7015 78.0085 82.4206 80.2715C76.2631 83.345 71.611 84.0872 65.7881 86.0003Z" fill="#EA9CF4"/>
<path fill-rule="evenodd" clip-rule="evenodd" d="M95.625 70.1825C95.625 70.1825 96.4822 68.029 98.0504 64.2864C98.8614 62.2901 99.8079 60.3516 100.883 58.4844C100.218 62.7866 98.4006 66.8287 95.625 70.1825Z" fill="#EA9CF4"/>
<path fill-rule="evenodd" clip-rule="evenodd" d="M63.1982 105.904C71.1772 107.451 79.3788 107.451 87.3577 105.904C101.032 103.353 101.628 102.517 105.391 99.569C109.154 96.621 111.82 92.8366 113.305 91.4044C114.789 89.9721 116.661 85.0273 116.661 85.0273C114.156 89.3641 110.98 93.277 107.252 96.621C101.711 101.273 97.1532 103.552 87.849 104.932C79.6791 106.009 71.4276 106.334 63.1982 105.904Z" fill="#D374F4"/>
<path fill-rule="evenodd" clip-rule="evenodd" d="M72.4395 128.674C72.4395 128.674 81.9422 129.5 85.8102 130.294C89.6783 131.089 97.1007 131.057 101.356 129.489C105.61 127.921 114.047 123.395 114.047 123.395C108.67 126.225 102.827 128.059 96.7975 128.81C87.3888 129.792 81.6809 128.214 72.4395 128.674Z" fill="#D374F4"/>
<path fill-rule="evenodd" clip-rule="evenodd" d="M116.784 122.014C119.9 119.929 122.901 117.679 125.775 115.271C123.388 118.235 120.297 120.553 116.784 122.014Z" fill="#D374F4"/>
<path fill-rule="evenodd" clip-rule="evenodd" d="M70.9336 70.4241C70.9336 70.4241 77.8229 65.1971 80.0078 61.4963C81.1769 59.7093 81.9931 57.715 82.4122 55.6211C82.4122 55.6211 83.3844 59.2591 79.276 63.8903C76.9349 66.5778 74.1037 68.7951 70.9336 70.4241Z" fill="#F2C4F8"/>
<path style="mix-blend-mode:screen" opacity="0.5" fill-rule="evenodd" clip-rule="evenodd" d="M54.8436 66.8056C54.2791 69.3355 53.7146 71.9072 54.5823 74.343C55.4499 76.7788 56.7567 78.3574 58.0112 78.5246C59.2657 78.6919 61.1474 75.6811 61.0429 74.8239C60.9384 73.9666 59.0043 71.6876 58.8684 69.4818C58.7325 67.276 61.1788 63.9307 61.0533 62.6762C60.9279 61.4217 55.7636 62.6449 54.8436 66.8056Z" fill="url(#paint15_linear)"/>
<path style="mix-blend-mode:screen" opacity="0.5" fill-rule="evenodd" clip-rule="evenodd" d="M55.9622 56.4682C55.1364 55.5796 49.5643 60.7962 45.7068 64.8315C41.8492 68.8667 38.0021 74.1461 37.678 77.5123C37.3539 80.8785 40.1138 85.9697 45.1318 90.4545C50.1498 94.9393 63.2174 99.0373 66.3536 97.1869C69.4898 95.3365 68.3399 89.5972 65.7891 88.2068C63.2383 86.8164 54.9064 89.6181 51.007 85.5201C47.1076 81.4221 48.9162 75.9337 49.3657 71.313C49.9511 65.6469 51.7388 60.8589 53.3905 59.4267C54.3765 58.5603 55.2415 57.5652 55.9622 56.4682Z" fill="url(#paint16_linear)"/>
<path fill-rule="evenodd" clip-rule="evenodd" d="M38.8904 73.8934C37.845 77.5524 37.6882 81.4518 39.9358 84.4521C42.1835 87.4524 43.877 85.2048 44.6715 77.8869C45.1542 73.797 45.2696 69.672 45.0165 65.5615C45.0165 65.5615 40.2495 69.3041 38.8904 73.8934Z" fill="#FFFFF8"/>
<path fill-rule="evenodd" clip-rule="evenodd" d="M42.5718 86.5852C41.0455 87.9965 44.6626 90.7669 45.269 89.4392C45.8753 88.1115 43.5545 85.6757 42.5718 86.5852Z" fill="#F5CEFA"/>
<path fill-rule="evenodd" clip-rule="evenodd" d="M38.5449 97.6357C38.3986 99.9566 39.7262 102.591 43.772 104.107C46.0675 105.009 48.5354 105.387 50.9958 105.215C50.9958 105.215 46.2496 104.274 43.6779 102.445C41.7947 101.036 40.0732 99.4232 38.5449 97.6357Z" fill="#F5CEFA"/>
<path fill-rule="evenodd" clip-rule="evenodd" d="M55.1778 67.1722C53.8396 65.395 55.575 62.9905 58.0317 61.4747C60.4884 59.9588 60.7812 60.4293 60.2585 61.7465C59.7357 63.0637 58.9308 65.7922 57.7808 67.1722C56.6309 68.5521 55.9723 68.2176 55.1778 67.1722Z" fill="#FFFFF8"/>
<path fill-rule="evenodd" clip-rule="evenodd" d="M64.0021 64.0779C63.4899 63.2102 64.5144 60.6803 65.9257 60.9417C67.337 61.203 66.9711 61.7362 66.3229 62.6562C65.8316 63.3148 64.483 64.9038 64.0021 64.0779Z" fill="#FFFFF8"/>
<path fill-rule="evenodd" clip-rule="evenodd" d="M74.1415 68.4692C73.6606 67.4865 77.5704 64.4758 78.1036 64.7894C78.6367 65.103 78.2917 66.692 77.3718 67.2984C76.4518 67.9047 74.3087 68.7724 74.1415 68.4692Z" fill="#FFFFF8"/>
<defs>
<filter id="filter0_d" x="0" y="0" width="171" height="172" filterUnits="userSpaceOnUse" color-interpolation-filters="sRGB">
<feFlood flood-opacity="0" result="BackgroundImageFix"/>
<feColorMatrix in="SourceAlpha" type="matrix" values="0 0 0 0 0 0 0 0 0 0 0 0 0 0 0 0 0 0 127 0"/>
<feOffset/>
<feGaussianBlur stdDeviation="20"/>
<feColorMatrix type="matrix" values="0 0 0 0 0.618431 0 0 0 0 0.316667 0 0 0 0 0.95 0 0 0 1 0"/>
<feBlend mode="normal" in2="BackgroundImageFix" result="effect1_dropShadow"/>
<feBlend mode="normal" in="SourceGraphic" in2="effect1_dropShadow" result="shape"/>
</filter>
<radialGradient id="paint0_radial" cx="0" cy="0" r="1" gradientUnits="userSpaceOnUse" gradientTransform="translate(28833.4 13216.9) rotate(0.0905419) scale(6385.52)">
<stop stop-color="#D483EA"/>
<stop offset="1" stop-opacity="0"/>
</radialGradient>
<radialGradient id="paint1_radial" cx="0" cy="0" r="1" gradientUnits="userSpaceOnUse" gradientTransform="translate(24723.1 11046.3) scale(5323.67)">
<stop stop-color="#E213FF"/>
<stop offset="1" stop-opacity="0"/>
</radialGradient>
<radialGradient id="paint2_radial" cx="0" cy="0" r="1" gradientUnits="userSpaceOnUse" gradientTransform="translate(51.7496 67.0357) scale(80.9357)">
<stop offset="0.01" stop-color="#FF9AFF"/>
<stop offset="0.09" stop-color="#FB94FF"/>
<stop offset="0.21" stop-color="#F183FF"/>
<stop offset="0.34" stop-color="#E068FF"/>
<stop offset="0.49" stop-color="#C841FF"/>
<stop offset="0.64" stop-color="#A910FF"/>
<stop offset="0.68" stop-color="#9F00FF"/>
<stop offset="0.74" stop-color="#9900F8"/>
<stop offset="0.83" stop-color="#8700E5"/>
<stop offset="0.93" stop-color="#6A00C6"/>
<stop offset="1" stop-color="#5200AB"/>
</radialGradient>
<radialGradient id="paint3_radial" cx="0" cy="0" r="1" gradientUnits="userSpaceOnUse" gradientTransform="translate(51.7496 67.0357) scale(80.9357)">
<stop offset="0.01" stop-color="#FF9AFF"/>
<stop offset="0.09" stop-color="#FB94FF"/>
<stop offset="0.21" stop-color="#F183FF"/>
<stop offset="0.34" stop-color="#E068FF"/>
<stop offset="0.49" stop-color="#C841FF"/>
<stop offset="0.64" stop-color="#A910FF"/>
<stop offset="0.68" stop-color="#9F00FF"/>
<stop offset="0.74" stop-color="#9900F8"/>
<stop offset="0.83" stop-color="#8700E5"/>
<stop offset="0.93" stop-color="#6A00C6"/>
<stop offset="1" stop-color="#5200AB"/>
</radialGradient>
<radialGradient id="paint4_radial" cx="0" cy="0" r="1" gradientUnits="userSpaceOnUse" gradientTransform="translate(20261.9 8066.57) scale(7530.19 7530.75)">
<stop offset="0.01" stop-color="#FF9AFF"/>
<stop offset="0.09" stop-color="#FB94FF"/>
<stop offset="0.21" stop-color="#F183FF"/>
<stop offset="0.34" stop-color="#E068FF"/>
<stop offset="0.49" stop-color="#C841FF"/>
<stop offset="0.64" stop-color="#A910FF"/>
<stop offset="0.68" stop-color="#9F00FF"/>
<stop offset="0.74" stop-color="#9900F8"/>
<stop offset="0.83" stop-color="#8700E5"/>
<stop offset="0.93" stop-color="#6A00C6"/>
<stop offset="1" stop-color="#5200AB"/>
</radialGradient>
<radialGradient id="paint5_radial" cx="0" cy="0" r="1" gradientUnits="userSpaceOnUse" gradientTransform="translate(64.515 53.9368) scale(17.7929)">
<stop stop-color="white"/>
<stop offset="1" stop-color="#623964"/>
</radialGradient>
<radialGradient id="paint6_radial" cx="0" cy="0" r="1" gradientUnits="userSpaceOnUse" gradientTransform="translate(1710.4 712.673) scale(44.8431 48.8283)">
<stop stop-color="white"/>
<stop offset="1" stop-color="#623964"/>
</radialGradient>
<radialGradient id="paint7_radial" cx="0" cy="0" r="1" gradientUnits="userSpaceOnUse" gradientTransform="translate(2108.07 613.69) scale(59.8192 44.007)">
<stop stop-color="white"/>
<stop offset="1" stop-color="#623964"/>
</radialGradient>
<radialGradient id="paint8_radial" cx="0" cy="0" r="1" gradientUnits="userSpaceOnUse" gradientTransform="translate(4960.89 1114.39) scale(338.196 210.751)">
<stop stop-color="white"/>
<stop offset="1" stop-color="#623964"/>
</radialGradient>
<radialGradient id="paint9_radial" cx="0" cy="0" r="1" gradientUnits="userSpaceOnUse" gradientTransform="translate(8643.3 1419.01) scale(1035.37 500.572)">
<stop stop-color="white"/>
<stop offset="1" stop-color="#623964"/>
</radialGradient>
<radialGradient id="paint10_radial" cx="0" cy="0" r="1" gradientUnits="userSpaceOnUse" gradientTransform="translate(10712.7 2950.84) scale(1712.04 1393.93)">
<stop stop-color="white"/>
<stop offset="1" stop-color="#623964"/>
</radialGradient>
<radialGradient id="paint11_radial" cx="0" cy="0" r="1" gradientUnits="userSpaceOnUse" gradientTransform="translate(17881.1 4666.52) scale(5097.91 3735.29)">
<stop stop-color="white"/>
<stop offset="1" stop-color="#623964"/>
</radialGradient>
<radialGradient id="paint12_radial" cx="0" cy="0" r="1" gradientUnits="userSpaceOnUse" gradientTransform="translate(68.8743 104.326) scale(47.3885)">
<stop stop-color="#FFFF4A"/>
<stop offset="1" stop-color="#360038"/>
</radialGradient>
<radialGradient id="paint13_radial" cx="0" cy="0" r="1" gradientUnits="userSpaceOnUse" gradientTransform="translate(50.2123 122.61) scale(5.11205)">
<stop stop-color="#6D00C2"/>
<stop offset="0.4" stop-color="#6600BC"/>
<stop offset="0.98" stop-color="#5300AC"/>
<stop offset="1" stop-color="#5200AB"/>
</radialGradient>
<radialGradient id="paint14_radial" cx="0" cy="0" r="1" gradientUnits="userSpaceOnUse" gradientTransform="translate(132.927 92.8796) scale(5.34204)">
<stop stop-color="#1F0081"/>
<stop offset="0.73" stop-color="#260087"/>
<stop offset="1" stop-color="#2A008B"/>
</radialGradient>
<linearGradient id="paint15_linear" x1="54.1327" y1="70.3391" x2="61.0533" y2="70.3391" gradientUnits="userSpaceOnUse">
<stop stop-color="#BDFFE8"/>
<stop offset="0.2" stop-color="#8BBBAA"/>
<stop offset="0.42" stop-color="#5A796E"/>
<stop offset="0.61" stop-color="#33453F"/>
<stop offset="0.78" stop-color="#171F1D"/>
<stop offset="0.91" stop-color="#060808"/>
<stop offset="1"/>
</linearGradient>
<linearGradient id="paint16_linear" x1="5812.28" y1="3984.01" x2="6708.22" y2="3984.01" gradientUnits="userSpaceOnUse">
<stop stop-color="#BDFFE8"/>
<stop offset="0.2" stop-color="#8BBBAA"/>
<stop offset="0.42" stop-color="#5A796E"/>
<stop offset="0.61" stop-color="#33453F"/>
<stop offset="0.78" stop-color="#171F1D"/>
<stop offset="0.91" stop-color="#060808"/>
<stop offset="1"/>
</linearGradient>
</defs>
</svg>
