<svg width="369" height="53" viewBox="0 0 369 53" fill="none" xmlns="http://www.w3.org/2000/svg">
<path d="M4 0.830078C2.067 0.830078 0.5 2.39708 0.5 4.33008C0.5 6.26307 2.067 7.83008 4 7.83008V0.830078ZM365 7.83008C366.933 7.83008 368.5 6.26307 368.5 4.33008C368.5 2.39708 366.933 0.830078 365 0.830078V7.83008ZM273.116 6.49447L271.532 3.37323L273.116 6.49447ZM175.728 46.802L177.298 43.674L175.728 46.802ZM193.749 46.7632L192.166 43.6419L193.749 46.7632ZM95.3507 6.45561L93.7805 9.58364L95.3507 6.45561ZM93.7805 9.58364L174.157 49.93L177.298 43.674L96.9209 3.32757L93.7805 9.58364ZM195.333 49.8844L274.699 9.6157L271.532 3.37323L192.166 43.6419L195.333 49.8844ZM282.165 7.83008H365V0.830078H282.165V7.83008ZM4 7.83008H47.5581V0.830078H4V7.83008ZM47.5581 7.83008H86.3783V0.830078H47.5581V7.83008ZM274.699 9.6157C277.013 8.44184 279.571 7.83008 282.165 7.83008V0.830078C278.47 0.830078 274.827 1.70137 271.532 3.37323L274.699 9.6157ZM174.157 49.93C180.823 53.2761 188.682 53.2591 195.333 49.8844L192.166 43.6419C187.496 46.0114 181.978 46.0233 177.298 43.674L174.157 49.93ZM96.9209 3.32757C93.6492 1.6853 90.0391 0.830078 86.3783 0.830078V7.83008C88.9486 7.83008 91.4834 8.43056 93.7805 9.58364L96.9209 3.32757Z" fill="url(#paint0_radial)"/>
<defs>
<radialGradient id="paint0_radial" cx="0" cy="0" r="1" gradientUnits="userSpaceOnUse" gradientTransform="translate(185 12.8301) rotate(90) scale(31 229.653)">
<stop stop-color="#429AFF"/>
<stop offset="1" stop-color="#191D2D" stop-opacity="0"/>
</radialGradient>
</defs>
</svg>
