<svg width="171" height="172" viewBox="0 0 171 172" fill="none" xmlns="http://www.w3.org/2000/svg">
<path style="mix-blend-mode:screen" d="M89.0205 144.14C120.089 144.14 145.275 118.954 145.275 87.8848C145.275 56.8161 120.089 31.6299 89.0205 31.6299C57.9518 31.6299 32.7656 56.8161 32.7656 87.8848C32.7656 118.954 57.9518 144.14 89.0205 144.14Z" fill="url(#paint0_radial)"/>
<g filter="url(#filter0_d)">
<path fill-rule="evenodd" clip-rule="evenodd" d="M131 86.0097C131.005 92.0515 129.831 98.035 127.544 103.618C125.257 109.2 121.904 114.273 117.674 118.545C113.445 122.816 108.423 126.204 102.897 128.512C97.3699 130.821 91.4469 132.006 85.4664 132C84.6591 132 83.8422 132 83.0446 131.932C81.8529 131.874 80.6708 131.757 79.508 131.612C70.936 130.478 62.8652 126.886 56.251 121.262C51.988 117.634 48.407 113.26 45.6797 108.349C45.401 107.845 45.1319 107.379 44.8628 106.816C44.8628 106.816 44.8628 106.815 44.8628 106.767C44.5841 106.214 44.3246 105.66 44.0748 105.097C43.278 103.332 42.5974 101.516 42.0374 99.6602C41.612 98.3074 41.256 96.9334 40.9707 95.5437C40.7689 94.5728 40.5958 93.6019 40.4613 92.5728C40.152 90.4121 39.9979 88.2317 40 86.0485C40 84.7767 40.0481 83.5048 40.1634 82.2621C40.221 81.466 40.3075 80.6796 40.4133 79.8932C40.9892 75.4527 42.2168 71.1236 44.0556 67.0485C47.6622 59.0018 53.4841 52.173 60.8267 47.377C68.1693 42.5809 76.7227 40.0201 85.4664 40H86.8983C87.4076 40 87.917 40 88.4263 40.0777C91.0174 40.243 93.5896 40.6328 96.1146 41.2427C97.5561 41.5922 98.9977 42 100.353 42.4854C101.314 42.8058 102.217 43.1651 103.13 43.5534C103.812 43.8447 104.476 44.1456 105.139 44.466L105.485 44.6311C109.879 46.8027 113.9 49.6743 117.392 53.1359C117.892 53.6214 118.353 54.1068 118.853 54.6408C119.17 54.9903 119.487 55.3495 119.814 55.7087C120.342 56.3107 120.852 56.9417 121.351 57.5728C125.311 62.7044 128.145 68.6284 129.664 74.9514C130.553 78.569 131.001 82.2825 131 86.0097Z" fill="white"/>
</g>
<path fill-rule="evenodd" clip-rule="evenodd" d="M136.944 86.0867C136.955 92.6719 135.667 99.1946 133.153 105.281C130.639 111.367 126.949 116.898 122.294 121.556C117.639 126.214 112.111 129.908 106.026 132.425C99.941 134.943 93.4192 136.236 86.834 136.229C85.9456 136.229 85.0466 136.229 84.1688 136.155C82.8573 136.091 81.5564 135.964 80.2767 135.806C70.8432 134.57 61.9611 130.658 54.6823 124.531C49.9907 120.579 46.0498 115.815 43.0484 110.465C42.7417 109.915 42.4456 109.407 42.1494 108.794C41.8427 108.191 41.5572 107.588 41.2822 106.975C40.4053 105.052 39.6563 103.073 39.04 101.052C38.5719 99.5784 38.1801 98.0817 37.8661 96.5677C37.644 95.5101 37.4536 94.4525 37.3055 93.3314C36.9652 90.9777 36.7955 88.6024 36.7979 86.2242C36.7979 84.8387 36.7979 83.4532 36.9777 82.0995C37.0411 81.2322 37.1363 80.3755 37.2527 79.5189C37.8508 74.6308 39.1806 69.8604 41.1976 65.3679C45.182 56.6061 51.6036 49.176 59.6957 43.9644C67.7879 38.7528 77.2088 35.9798 86.834 35.9766H88.4098C88.9704 35.9766 89.5309 35.9766 90.0914 36.0612C92.9429 36.2413 95.7736 36.6659 98.5524 37.3303C100.139 37.7111 101.725 38.1553 103.217 38.6841C104.274 39.0331 105.268 39.4244 106.273 39.8475C107.024 40.1647 107.754 40.4926 108.483 40.8416L108.864 41.0214C113.701 43.3871 118.125 46.5153 121.968 50.2862C122.518 50.815 123.026 51.3438 123.576 51.9255C123.925 52.3063 124.274 52.6976 124.633 53.0889C125.215 53.7446 125.776 54.4321 126.326 55.1195C130.702 60.6844 133.845 67.1158 135.548 73.9875C136.505 77.9485 136.974 82.0118 136.944 86.0867Z" fill="url(#paint1_radial)"/>
<g style="mix-blend-mode:multiply" opacity="0.4">
<g style="mix-blend-mode:multiply" opacity="0.4">
<path fill-rule="evenodd" clip-rule="evenodd" d="M49.3051 63.6658C48.3155 65.4144 47.6795 67.3406 47.4331 69.3347C47.204 70.871 47.1225 72.4257 47.1899 73.9776C47.4565 75.5684 47.8963 77.1253 48.5013 78.6206C49.0612 80.4909 50.0623 82.1994 51.4204 83.602C53.8212 85.971 57.2056 86.0134 60.0506 84.4481C61.4995 83.6549 62.7158 82.5761 64.281 81.8992C66.3963 80.9473 68.3846 80.0695 69.8441 78.187C71.3211 76.1304 72.1764 73.6929 72.3084 71.1643C72.5569 69.6763 72.5569 68.1574 72.3084 66.6694C72.0275 65.4371 71.5641 64.2536 70.9335 63.1581C70.4797 62.3293 69.9672 61.5341 69.3999 60.7785C68.6036 59.8609 67.5781 59.1711 66.428 58.7796C65.7665 58.3788 65.0276 58.1228 64.2599 58.0287C63.2901 57.981 62.3182 58.0022 61.3514 58.0921C60.2836 58.2849 59.2382 58.5862 58.2314 58.9911C57.2373 59.319 56.2114 59.5305 55.2384 59.9324C54.294 60.3236 53.3261 60.6556 52.3405 60.9266C51.1083 61.1772 49.9676 61.7586 49.0407 62.6082C48.7635 62.852 48.4987 63.1097 48.2475 63.3802C47.8773 63.8879 47.9937 64.4167 49.3051 63.6658Z" fill="#B9BFE2"/>
</g>
<g style="mix-blend-mode:multiply" opacity="0.4">
<path fill-rule="evenodd" clip-rule="evenodd" d="M67.4947 85.0411C67.7697 84.1209 67.9601 82.3547 68.8485 81.6778C69.246 81.4023 69.6904 81.2016 70.1599 81.0856C70.4836 81.0233 70.8166 81.0278 71.1384 81.0987C71.4603 81.1697 71.7644 81.3055 72.0319 81.498C73.6289 82.3547 73.3222 84.8084 72.4444 86.1093C71.6829 87.2304 69.7792 88.2245 68.5629 87.315C68.1191 86.962 67.7842 86.4907 67.597 85.9554C67.4099 85.4201 67.3781 84.8428 67.5053 84.2902H67.7274L67.4947 85.0411Z" fill="#B9BFE2"/>
</g>
<g style="mix-blend-mode:multiply" opacity="0.4">
<path fill-rule="evenodd" clip-rule="evenodd" d="M97.6903 100.271C97.4867 101.458 97.4123 102.664 97.4682 103.867C97.6162 104.906 97.8174 105.937 98.071 106.955C98.5364 108.753 99.2027 110.847 101.149 111.535C102.883 112.148 104.956 111.535 106.585 110.9C108.42 110.306 110.192 109.53 111.873 108.584C113.466 107.522 114.892 106.228 116.104 104.745C117.329 103.31 117.994 101.481 117.975 99.5943C117.89 96.6977 116.96 93.8893 115.3 91.5141C114.514 90.2404 113.298 89.2898 111.873 88.834C110.447 88.3782 108.905 88.4473 107.526 89.0287C105.03 89.9277 103.75 92.614 101.921 94.4014C101.421 94.9853 100.888 95.5397 100.324 96.0619C99.743 96.5702 99.2685 97.1884 98.9277 97.881C98.5311 98.3753 98.1773 98.9025 97.8701 99.4568C97.5422 100.271 97.6903 101.265 97.6903 100.271Z" fill="#B9BFE2"/>
</g>
<g style="mix-blend-mode:multiply" opacity="0.4">
<path fill-rule="evenodd" clip-rule="evenodd" d="M120.664 98.6617C120.833 98.429 122.007 95.8484 123.065 95.9648C123.573 96.0282 123.974 96.5888 124.218 97.0224C124.62 97.6887 124.926 98.3127 124.408 99.0636C123.752 100.037 121.055 100.756 120.886 99.0636L120.664 99.0107V98.6617Z" fill="#B9BFE2"/>
</g>
<g style="mix-blend-mode:multiply" opacity="0.4">
<path fill-rule="evenodd" clip-rule="evenodd" d="M79.9121 45.1998C80.0708 44.9671 81.2447 42.3865 82.3023 42.5028C82.81 42.5663 83.2119 43.1268 83.4551 43.5605C83.857 44.2268 84.1637 44.8508 83.6455 45.6017C82.9898 46.5747 80.2929 47.2939 80.1236 45.5488H79.9121V45.1998Z" fill="#B9BFE2"/>
</g>
<g style="mix-blend-mode:multiply" opacity="0.4">
<path fill-rule="evenodd" clip-rule="evenodd" d="M107.716 82.9674C107.885 82.7241 109.048 80.1541 110.117 80.2704C110.624 80.2704 111.026 80.8944 111.269 81.3281C111.661 81.9944 111.978 82.6078 111.46 83.3693C110.793 84.3423 108.097 85.0509 107.927 83.3058H107.716V82.9674Z" fill="#B9BFE2"/>
</g>
<g style="mix-blend-mode:multiply" opacity="0.4">
<path fill-rule="evenodd" clip-rule="evenodd" d="M100.896 70.6562C100.293 72.2638 99.5631 73.258 100.05 74.781C100.293 75.5213 100.399 76.2934 100.61 77.0443C101.023 78.4932 102.154 79.3816 103.17 80.4181C104.523 81.7824 105.718 82.2055 107.527 81.3382C108.109 81.038 108.661 80.684 109.177 80.2806C109.871 79.8118 110.426 79.1653 110.784 78.4086C111.12 77.6486 111.406 76.8679 111.641 76.0713C112.044 75.2666 112.298 74.396 112.392 73.5012C112.483 72.5433 112.429 71.5772 112.233 70.6351C111.868 69.5075 111.34 68.4387 110.668 67.4622C110.135 66.548 109.448 65.7323 108.638 65.0508C107.91 64.6151 107.084 64.3679 106.237 64.3317C105.391 64.2854 104.547 64.4553 103.784 64.8254C103.022 65.1954 102.366 65.7535 101.879 66.4469C100.79 68.0016 100.208 69.9688 100.896 70.6562Z" fill="#B9BFE2"/>
</g>
<g style="mix-blend-mode:multiply" opacity="0.4">
<path fill-rule="evenodd" clip-rule="evenodd" d="M97.4166 80.2281C97.5536 81.3535 97.9324 82.4359 98.5271 83.401C98.738 83.2485 98.9869 83.157 99.2463 83.1366C99.2463 82.7982 99.5107 82.6818 99.5742 82.3963C99.6036 82.0443 99.6036 81.6906 99.5742 81.3386C99.5458 80.783 99.4131 80.2376 99.1829 79.7311C99.0242 79.2974 98.7915 78.5465 98.231 78.6734C97.1734 78.8638 97.2791 79.7311 97.4378 80.2916L97.4166 80.2281Z" fill="#B9BFE2"/>
</g>
<g style="mix-blend-mode:multiply" opacity="0.4">
<path fill-rule="evenodd" clip-rule="evenodd" d="M47.3272 112.295C47.2841 113.142 47.4666 113.985 47.856 114.738C48.3727 115.495 48.9568 116.203 49.601 116.854C50.0347 117.298 50.8173 118.239 51.5365 117.837C52.2557 117.435 52.3297 116.314 52.2663 115.722C52.1813 115.218 52.0647 114.72 51.9172 114.231C51.7832 113.675 51.5504 113.149 51.2298 112.676C50.6798 111.883 49.3789 110.413 48.2579 111.121C47.9292 111.272 47.6477 111.51 47.4435 111.809C47.2743 112.126 47.3272 112.464 47.3272 112.295Z" fill="#B9BFE2"/>
</g>
<g style="mix-blend-mode:multiply" opacity="0.4">
<path fill-rule="evenodd" clip-rule="evenodd" d="M72.475 108.287C72.2964 107.819 72.1687 107.333 72.0942 106.838C72.0568 106.774 72.0447 106.698 72.0604 106.626C72.0761 106.554 72.1183 106.49 72.1789 106.447C72.3345 105.914 72.5399 105.397 72.7923 104.903C73.2277 103.957 73.8975 103.138 74.7383 102.523C75.0718 102.358 75.4284 102.244 75.7959 102.185C76.1661 102.1 76.5363 101.962 76.8535 101.888C77.5161 101.818 78.1862 101.886 78.8207 102.089C79.552 102.254 80.2618 102.502 80.936 102.83C81.4883 103.214 81.9443 103.721 82.2686 104.31C82.6982 104.866 82.9313 105.549 82.9313 106.251C82.9313 106.954 82.6982 107.636 82.2686 108.192C81.9635 108.485 81.6305 108.747 81.2744 108.975C80.9042 109.218 80.5552 109.535 80.2168 109.747C79.699 109.958 79.1544 110.097 78.5986 110.159C77.5903 110.371 76.5458 110.338 75.5527 110.064C74.4652 109.585 73.4332 108.99 72.475 108.287Z" fill="#B9BFE2"/>
</g>
</g>
<path fill-rule="evenodd" clip-rule="evenodd" d="M115.939 68.2764C115.939 68.2764 113.242 73.152 114.68 81.888C117.853 101.306 128.556 98.3446 127.869 89.2913L115.939 68.2764Z" fill="url(#paint2_linear)"/>
<path style="mix-blend-mode:screen" d="M102.069 117.679C102.98 110.246 95.7056 103.239 85.8206 102.027C75.9356 100.815 67.1834 105.857 66.2721 113.29C65.3608 120.723 72.6355 127.731 82.5205 128.943C92.4055 130.155 101.158 125.112 102.069 117.679Z" fill="url(#paint3_radial)"/>
<path fill-rule="evenodd" clip-rule="evenodd" d="M108.808 41.0426C108.641 41.0526 108.475 41.0738 108.311 41.106C107.789 41.2024 107.251 41.166 106.746 41.0003C106.344 40.8945 106.059 40.7253 105.688 40.6513C105.075 40.5561 104.514 40.3022 103.901 40.2176C103.281 40.0973 102.675 39.913 102.092 39.6677C101.711 39.52 101.289 39.52 100.908 39.6677C100.493 39.7311 100.07 39.6448 99.7128 39.4244C99.258 39.262 98.786 39.152 98.3062 39.0966C97.037 38.8322 95.7785 38.4197 94.5199 38.1024C93.763 37.9373 92.9886 37.8662 92.2143 37.8909C91.5903 37.8909 91.0192 38.0707 90.3952 38.0707C89.9973 38.0562 89.6012 38.0102 89.2106 37.9332C88.777 37.8591 88.3434 37.9332 87.9203 37.9332C87.3911 37.7851 86.8314 37.7851 86.3022 37.9332C85.8682 38.0524 85.4195 38.1094 84.9696 38.1024C84.4119 38.146 83.8596 38.2416 83.3197 38.388C82.3613 38.6273 81.3778 38.7516 80.3901 38.7581C79.7205 38.6574 79.0396 38.6574 78.37 38.7581C77.9998 38.885 77.82 39.2764 77.5662 39.5302C77.0171 39.9979 76.5011 40.5033 76.0221 41.0426C75.5407 41.5505 75.2461 42.2068 75.1866 42.904C75.264 43.5699 75.4648 44.2155 75.7788 44.8077C76.0538 45.4106 76.149 45.9605 75.5356 46.3518C74.7503 46.8919 73.8872 47.3092 72.9761 47.5893C72.719 47.7162 72.4318 47.7696 72.1462 47.7435C71.8606 47.7173 71.5878 47.6127 71.358 47.4412C71.1782 47.2826 71.0618 46.9864 70.8397 46.8595C70.6176 46.7326 70.3638 46.8595 70.11 46.9335C69.4975 47.1399 68.8722 47.306 68.238 47.4306C67.8467 47.4941 67.5082 47.7056 67.1275 47.7691C66.7467 47.8325 66.3343 47.5258 65.8583 47.6316C65.1965 47.8486 64.5171 48.0078 63.8277 48.1075C63.2834 48.0944 62.7516 47.9414 62.2836 47.6633C62.0403 47.5258 61.9874 47.3777 61.7019 47.4623C61.4328 47.5644 61.1956 47.7359 61.0144 47.9594C60.8558 48.2027 60.7923 48.4988 60.6231 48.7421C60.4539 48.9853 60.2847 49.2815 60.1366 49.567C59.8464 50.1138 59.514 50.6372 59.1424 51.1323C58.878 51.4813 58.6982 51.9572 58.4127 52.2745C58.2141 52.4333 57.9976 52.5682 57.7675 52.6764C57.2493 53.0466 56.7099 53.3745 56.2022 53.734C55.2292 54.4955 54.3091 55.3416 53.3149 56.082C52.4751 56.6016 51.577 57.0205 50.6392 57.33C50.0998 57.5521 49.5815 57.7107 48.9998 57.9328C48.7755 57.9914 48.5615 58.0842 48.3653 58.2078C48.1643 58.377 48.0691 58.6837 47.8893 58.9058C47.3925 59.4655 46.9499 60.0711 46.5673 60.7143C46.3682 61.093 46.2054 61.4896 46.0808 61.8989C45.8904 62.47 45.5837 62.9565 45.3934 63.5594C45.002 64.7333 44.928 65.9707 44.4944 67.1447C44.2182 67.8057 43.9076 68.4517 43.5637 69.0801C43.1153 70.1966 42.8544 71.3794 42.7916 72.5809C42.715 73.2855 42.7364 73.9973 42.8551 74.6961C42.9661 75.4593 43.0015 76.2316 42.9608 77.0017C42.8545 77.8052 42.4821 78.5498 41.9032 79.117C41.4484 79.6669 40.761 79.8785 40.2639 80.365C39.7717 80.7608 39.3863 81.2734 39.1428 81.8562C39.1213 82.1308 39.1213 82.4066 39.1428 82.6812C39.0265 83.3052 38.8678 83.8868 38.7832 84.5108C38.6967 85.2692 38.6579 86.0321 38.6669 86.7953C38.6669 87.1866 38.6669 87.5885 38.6669 87.9798C38.6669 88.3712 38.8149 88.699 38.8467 89.0375C38.8784 89.3759 38.8467 89.5663 38.8467 89.8201C38.8467 90.0739 39.0053 90.423 39.0794 90.7085C39.2486 91.4065 39.3861 92.0834 39.513 92.8238C39.6663 93.4689 39.857 94.1045 40.0841 94.7275C40.3552 95.5827 40.5672 96.4555 40.7187 97.3398C40.8456 98.0061 40.835 98.683 40.9302 99.3599C41.0254 100.037 41.1311 100.417 41.1523 100.978C41.1523 101.803 40.9831 102.617 40.9725 103.442C41.0983 104.843 41.3894 106.224 41.8397 107.556C41.9349 107.937 42.0301 108.318 42.1359 108.688C38.228 100.931 36.3979 92.294 36.8242 83.6189C37.2506 74.9439 39.9188 66.5275 44.5684 59.1914C46.6787 55.9046 49.1631 52.8736 51.9718 50.1593C61.3092 41.0586 73.8345 35.9688 86.8733 35.9766C87.9309 35.9766 89.052 35.9766 90.1202 36.0718C96.6147 36.4907 102.964 38.1795 108.808 41.0426Z" fill="url(#paint4_linear)"/>
<path style="mix-blend-mode:screen" fill-rule="evenodd" clip-rule="evenodd" d="M113.537 68.3296C111.908 71.1429 106.133 70.8679 100.666 67.7056C95.1976 64.5433 92.0671 59.6889 93.7275 56.9073C95.388 54.1258 101.131 54.369 106.599 57.5313C112.067 60.6936 115.166 65.5058 113.537 68.3296Z" fill="url(#paint5_radial)"/>
<path fill-rule="evenodd" clip-rule="evenodd" d="M124.685 103.539C122.894 103.722 121.163 104.278 119.601 105.173C118.04 106.068 116.684 107.28 115.621 108.732C111.549 113.83 111.591 118.335 112.173 119.848C112.755 121.36 124.685 103.539 124.685 103.539Z" fill="url(#paint6_radial)"/>
<path style="mix-blend-mode:screen" fill-rule="evenodd" clip-rule="evenodd" d="M119.934 93.1721C114.159 93.9441 108.744 89.1002 107.835 82.342C106.925 75.5838 110.87 69.4707 116.634 68.6881C122.398 67.9055 127.824 72.7705 128.733 79.5182C129.643 86.2658 125.698 92.3894 119.934 93.1721Z" fill="url(#paint7_radial)"/>
<path style="mix-blend-mode:screen" fill-rule="evenodd" clip-rule="evenodd" d="M57.1228 125.22C48.4951 118.047 42.5342 108.178 40.2008 97.2031C39.4936 93.8008 39.1392 90.3346 39.1432 86.8596C39.1304 77.3374 41.8384 68.0098 46.9484 59.9748C49.0613 56.6867 51.5454 53.6526 54.3518 50.9322C63.6893 41.8315 76.2145 36.7417 89.2533 36.7495C90.3109 36.7495 91.432 36.7495 92.5002 36.8552C95.8392 37.0727 99.1482 37.6219 102.378 38.4945C98.3838 37.1891 94.2405 36.3932 90.0465 36.1255C88.9889 36.062 87.9313 36.0303 86.7996 36.0303C73.7608 36.0225 61.2356 41.1123 51.8981 50.213C49.0894 52.9273 46.605 55.9583 44.4948 59.2451C39.3847 67.28 36.6767 76.6076 36.6895 86.1298C36.6855 89.6049 37.0399 93.0711 37.7471 96.4734C38.6523 100.734 40.1175 104.855 42.1045 108.731C45.2902 114.995 49.7513 120.524 55.201 124.961C60.6508 129.398 66.9687 132.645 73.7486 134.495C67.6627 132.499 62.0181 129.35 57.1228 125.22Z" fill="url(#paint8_radial)"/>
<path fill-rule="evenodd" clip-rule="evenodd" d="M120.042 123.601C120.042 123.601 114.342 124.986 112.428 120.713C110.513 116.44 117.79 105.208 123.638 103.738C129.487 102.268 130.619 109.143 130.619 109.143L120.042 123.601Z" fill="#004A59"/>
<path fill-rule="evenodd" clip-rule="evenodd" d="M85.5 45.1035C87.5634 50.7071 91.3093 55.5354 96.2243 58.9266C109.73 68.5087 115.261 65.0609 115.261 65.0609L85.5 45.1035Z" fill="url(#paint9_radial)"/>
<path fill-rule="evenodd" clip-rule="evenodd" d="M103.87 132.496C103.87 132.496 109.677 129.44 109.793 125.304C109.91 121.169 101.025 115.5 83.7016 112.962C67.8373 110.678 55.6747 114.168 54.8814 117.245C54.0882 120.323 58.2129 127.822 66.6316 131.534C75.0503 135.246 99.5554 134.601 103.87 132.496Z" fill="#004A59"/>
<path fill-rule="evenodd" clip-rule="evenodd" d="M76.1084 59.541C76.1084 59.541 79.6409 65.1358 85.1299 65.6223C90.619 66.1088 92.2371 61.8043 92.2371 61.8043C92.2371 61.8043 79.7466 61.7091 76.1084 59.541Z" fill="url(#paint10_radial)"/>
<path fill-rule="evenodd" clip-rule="evenodd" d="M73.7822 55.1197C73.7822 55.1197 75.7494 62.3009 83.1528 64.2046C91.3388 66.3199 93.729 60.9366 92.5444 58.007C91.3599 55.0774 81.6721 50.5613 73.7822 55.1197Z" fill="#00777A"/>
<path fill-rule="evenodd" clip-rule="evenodd" d="M57.7666 52.6765C57.7666 52.6765 62.9278 53.6389 70.4581 49.1229C77.9883 44.6068 76.4865 40.4609 76.4865 40.4609L57.7666 52.6765Z" fill="url(#paint11_radial)"/>
<path fill-rule="evenodd" clip-rule="evenodd" d="M55.9519 49.4084C55.9519 49.4084 54.0164 52.063 57.771 52.6764C61.5255 53.2899 74.1324 47.1451 76.4592 42.4598C78.7859 37.7745 66.5281 35.1939 55.9519 49.4084Z" fill="#00777A"/>
<path fill-rule="evenodd" clip-rule="evenodd" d="M89.4123 39.6787C89.4123 39.6787 84.4415 40.5354 84.1242 43.116C83.8069 45.6966 91.9823 55.9978 100.824 61.4552C109.666 66.9125 118.328 65.0722 119.66 63.729C120.993 62.3859 108.153 41.043 89.4123 39.6787Z" fill="#006D7A"/>
<path fill-rule="evenodd" clip-rule="evenodd" d="M124.093 69.1543C124.093 69.1543 119.365 64.2047 115.632 66.0661C112.544 67.589 113.866 82.7342 117.07 88.5088C120.275 94.2834 124.421 93.7969 126.028 92.4855C127.636 91.174 127.974 74.2838 124.093 69.1543Z" fill="#004A59"/>
<path fill-rule="evenodd" clip-rule="evenodd" d="M123.777 57.965C123.328 57.8441 122.853 57.8692 122.419 58.0365C121.986 58.2038 121.617 58.5047 121.365 58.8957C120.403 60.2812 127.087 69.7998 129.89 70.9209C132.693 72.0419 133.253 68.0124 133.253 68.0124L123.777 57.965Z" fill="#004A59"/>
<path fill-rule="evenodd" clip-rule="evenodd" d="M87.9406 42.9575C85.709 46.7438 105.836 68.2558 118.051 64.1946C120.452 63.4014 121.753 47.6111 113.641 40.1231C106.84 33.8937 92.3403 35.4801 87.9406 42.9575Z" fill="url(#paint12_radial)"/>
<path fill-rule="evenodd" clip-rule="evenodd" d="M118.054 68.4783C114.416 70.0013 114.976 86.1089 119.524 90.7836C124.072 95.4582 131.01 88.6683 131.676 81.5717C132.342 74.475 123.744 66.0669 118.054 68.4783Z" fill="url(#paint13_radial)"/>
<path fill-rule="evenodd" clip-rule="evenodd" d="M122.675 59.8368C122.453 63.1048 129.497 70.1486 131.665 69.3554C133.833 68.5622 135.895 63.4327 134.425 59.8368C132.955 56.2409 122.939 55.8495 122.675 59.8368Z" fill="url(#paint14_radial)"/>
<path fill-rule="evenodd" clip-rule="evenodd" d="M58.878 115.627C49.4652 118.049 65.0863 136.547 78.4546 138.979C94.0863 141.814 108.301 131.269 108.565 125.452C108.83 119.635 76.5086 111.09 58.878 115.627Z" fill="url(#paint15_radial)"/>
<path fill-rule="evenodd" clip-rule="evenodd" d="M113.898 120.46C112.163 116.336 122.116 103.338 126.716 104.871C131.317 106.405 134.331 117.15 128.123 121.56C124.4 124.183 115.696 124.776 113.898 120.46Z" fill="url(#paint16_radial)"/>
<path fill-rule="evenodd" clip-rule="evenodd" d="M57.9488 51.6929C62.5601 52.7505 73.4536 45.1145 75.4525 41.4974C77.4514 37.8804 67.2559 33.0364 60.392 36.6218C55.5375 39.1178 53.8558 50.8045 57.9488 51.6929Z" fill="url(#paint17_radial)"/>
<path fill-rule="evenodd" clip-rule="evenodd" d="M75.7485 51.7879C70.6085 54.1676 76.4148 60.9046 82.3269 62.8507C88.239 64.7967 93.4531 61.2536 92.4589 57.3193C91.4648 53.3849 84.8017 47.568 75.7485 51.7879Z" fill="url(#paint18_radial)"/>
<path fill-rule="evenodd" clip-rule="evenodd" d="M62.6768 112.644C62.6768 112.644 82.4966 109.799 101.904 117.932C101.904 117.943 83.6283 106.721 62.6768 112.644Z" fill="url(#paint19_radial)"/>
<path fill-rule="evenodd" clip-rule="evenodd" d="M121.362 59.9004C121.362 59.9004 122.674 66.2461 127.888 69.419C127.888 69.4613 122.959 64.5222 121.362 59.9004Z" fill="url(#paint20_radial)"/>
<path style="mix-blend-mode:screen" fill-rule="evenodd" clip-rule="evenodd" d="M36.7335 86.0877C36.9556 88.6366 38.2248 74.8557 42.7726 72.6559C47.3203 70.456 61.1646 80.3448 67.5421 84.2897C82.2853 93.3747 98.8477 83.0523 102.941 77.4998C107.034 71.9473 100.899 63.2536 97.4305 61.3288C93.9615 59.4039 92.2058 67.9389 85.1303 66.9342C78.0548 65.9294 72.5764 57.8069 72.0581 55.1205C71.5399 52.4342 78.1818 48.5738 81.0373 48.1719C83.8929 47.77 86.9283 39.9119 84.9611 38.0717C82.9939 36.2314 79.7682 44.9673 72.1004 50.1708C66.6008 53.9043 58.0552 57.2146 53.518 50.4881C53.4757 50.4881 34.8192 64.9564 36.7335 86.0877Z" fill="url(#paint21_radial)"/>
<path style="mix-blend-mode:screen" fill-rule="evenodd" clip-rule="evenodd" d="M89.4965 43.6663C89.285 47.093 96.8153 45.5172 103.573 45.1047C110.332 44.6922 115.578 44.7239 115.578 44.7239C111.979 40.9334 107.175 38.5108 101.987 37.8706C93.452 36.887 89.6763 41.5617 89.4965 43.6663Z" fill="url(#paint22_linear)"/>
<path style="mix-blend-mode:screen" fill-rule="evenodd" clip-rule="evenodd" d="M57.1982 47.8219C59.25 48.7632 59.747 42.5338 62.5603 39.6782C64.2322 37.9654 66.3679 36.7781 68.7051 36.2621C68.7051 36.2621 62.9516 36.1563 59.3451 37.8168C55.7386 39.4773 55.4531 47.0287 57.1982 47.8219Z" fill="url(#paint23_linear)"/>
<path style="mix-blend-mode:screen" fill-rule="evenodd" clip-rule="evenodd" d="M75.0508 53.1845C77.3021 51.5635 80.0189 50.7172 82.7926 50.7731C85.6029 50.9972 88.2694 52.1083 90.4075 53.946C90.4075 53.946 87.0654 52.8884 84.728 53.671C82.3907 54.4536 78.7842 58.2717 75.0508 53.1845Z" fill="url(#paint24_linear)"/>
<path style="mix-blend-mode:screen" fill-rule="evenodd" clip-rule="evenodd" d="M117.599 69.4614C119.169 68.9946 120.836 68.9625 122.423 69.3685C124.01 69.7745 125.457 70.6035 126.61 71.767C130.957 75.8177 131.295 79.477 131.295 79.477C131.295 79.477 128.482 75.2466 125.679 74.8129C122.876 74.3793 119.439 76.4945 118.011 75.2254C116.584 73.9563 116.372 70.7199 117.599 69.4614Z" fill="url(#paint25_linear)"/>
<path style="mix-blend-mode:screen" fill-rule="evenodd" clip-rule="evenodd" d="M123.639 58.5889C123.639 58.5889 124.622 57.2669 127.869 57.3409C129.001 57.3188 130.124 57.5353 131.167 57.9763C132.209 58.4173 133.147 59.0728 133.919 59.9003C134.701 60.8839 134.257 64.2049 134.257 64.2049C134.115 62.7618 133.557 61.3912 132.65 60.2599C131.359 59.0225 123.607 62.0579 123.639 58.5889Z" fill="url(#paint26_linear)"/>
<path style="mix-blend-mode:screen" fill-rule="evenodd" clip-rule="evenodd" d="M115.624 114.834C115.624 114.834 121.43 105.421 125.619 106.077C129.807 106.732 131.298 113.226 131.298 113.226C130.375 112.129 129.187 111.284 127.848 110.772C126.509 110.26 125.061 110.096 123.641 110.297C120.481 110.71 117.605 112.338 115.624 114.834Z" fill="url(#paint27_linear)"/>
<path style="mix-blend-mode:screen" fill-rule="evenodd" clip-rule="evenodd" d="M57.1981 117.932C57.1981 117.932 65.1726 113.913 81.1215 116.134C97.0704 118.355 106.166 123.59 106.166 123.59C106.166 123.59 89.6459 120.005 79.9158 121.613C77.1086 122.078 74.4678 123.256 72.2458 125.034C70.0238 126.811 68.2949 129.129 67.2243 131.766C67.2243 131.766 55.178 126.636 57.1981 117.932Z" fill="url(#paint28_linear)"/>
<path fill-rule="evenodd" clip-rule="evenodd" d="M83.0244 138.344C83.0244 138.344 94.0343 136.8 99.5974 134.229C99.5974 134.229 87.9952 140.744 83.0244 138.344Z" fill="#FFFF8D"/>
<path fill-rule="evenodd" clip-rule="evenodd" d="M115.303 120.714C118.652 121.665 122.149 121.981 125.615 121.645C125.615 121.645 118.687 124.31 115.303 120.714Z" fill="#FFFF8D"/>
<path fill-rule="evenodd" clip-rule="evenodd" d="M116.796 82.29C116.796 82.29 120.413 88.9107 124.041 90.5818C124.041 90.6029 119.726 92.1365 116.796 82.29Z" fill="#FFFF8D"/>
<path fill-rule="evenodd" clip-rule="evenodd" d="M98.4648 55.1201C103.058 59.7747 109.118 62.7 115.619 63.4013L98.4648 55.1201Z" fill="#FFFF8D"/>
<path fill-rule="evenodd" clip-rule="evenodd" d="M76.7207 57.9648C77.9685 59.4403 79.5147 60.6348 81.2574 61.4697C83.0001 62.3045 84.8998 62.7609 86.8316 62.8088L76.7207 57.9648Z" fill="#FFFF8D"/>
<path fill-rule="evenodd" clip-rule="evenodd" d="M57.7666 50.7618C62.9272 49.7388 67.8074 47.6179 72.0762 44.543L57.7666 50.7618Z" fill="#FFFF8D"/>
<path fill-rule="evenodd" clip-rule="evenodd" d="M44.0195 79.4668C44.0195 79.4668 51.7507 85.4952 55.0082 100.08C54.9976 100.08 56.8696 85.7596 44.0195 79.4668Z" fill="url(#paint29_radial)"/>
<path fill-rule="evenodd" clip-rule="evenodd" d="M44.2108 110.191C44.2108 110.191 50.5565 113.236 53.814 110.042C57.0714 106.848 55.0937 96.0395 50.5459 87.8324C45.9981 79.6253 40.4245 76.0505 38.0977 77.235C36.4901 78.06 27.9868 98.4192 44.2108 110.191Z" fill="#00777A"/>
<path fill-rule="evenodd" clip-rule="evenodd" d="M39.208 79.2652C35.0516 78.2076 31.8047 92.5912 33.9199 100.418C36.6803 110.56 50.2496 112.051 53.1157 108.984C55.9819 105.917 54.0042 82.9986 39.208 79.2652Z" fill="url(#paint30_radial)"/>
<path style="mix-blend-mode:screen" fill-rule="evenodd" clip-rule="evenodd" d="M34.7861 99.307C34.7861 99.307 33.6439 84.5003 37.335 81.8562C41.0261 79.2121 46.5997 84.8175 46.5997 84.8175C44.4486 85.4747 42.3771 86.3686 40.4232 87.4828C36.9331 89.4182 34.7861 99.307 34.7861 99.307Z" fill="url(#paint31_linear)"/>
<path fill-rule="evenodd" clip-rule="evenodd" d="M39.7061 106.499C39.7061 106.499 44.6028 109.164 48.2411 109.45C48.2516 109.45 43.4818 111.301 39.7061 106.499Z" fill="#FFFF8D"/>
<path style="mix-blend-mode:screen" fill-rule="evenodd" clip-rule="evenodd" d="M133.751 118.144C134.523 121.317 131.741 124.712 127.532 125.748C123.323 126.785 119.283 125.061 118.5 121.888C117.717 118.715 120.499 115.32 124.719 114.284C128.939 113.247 132.968 114.971 133.751 118.144Z" fill="url(#paint32_radial)"/>
<path style="mix-blend-mode:screen" d="M37.9569 108.779C42.4687 108.41 45.7291 103.25 45.2393 97.2541C44.7495 91.2578 40.6948 86.6955 36.183 87.0641C31.6712 87.4327 28.4108 92.5924 28.9006 98.5888C29.3904 104.585 33.445 109.147 37.9569 108.779Z" fill="url(#paint33_radial)"/>
<path style="mix-blend-mode:screen" fill-rule="evenodd" clip-rule="evenodd" d="M55.1229 45.5914C52.3625 43.3598 52.2568 38.9283 54.8585 35.7555C57.4603 32.5826 61.8177 31.7259 64.5781 33.9575C67.3385 36.1891 67.4442 40.5994 64.8319 43.8251C62.2196 47.0509 57.8728 47.823 55.1229 45.5914Z" fill="url(#paint34_radial)"/>
<path style="mix-blend-mode:screen" d="M131.693 74.8501C137.464 74.0729 141.405 67.9616 140.494 61.2003C139.584 54.4389 134.167 49.5879 128.395 50.3651C122.624 51.1424 118.683 57.2536 119.594 64.015C120.505 70.7763 125.921 75.6274 131.693 74.8501Z" fill="url(#paint35_radial)"/>
<path style="mix-blend-mode:screen" d="M65.7334 103.76C90.6515 103.76 110.852 84.4975 110.852 60.736C110.852 36.9745 90.6515 17.7119 65.7334 17.7119C40.8153 17.7119 20.6152 36.9745 20.6152 60.736C20.6152 84.4975 40.8153 103.76 65.7334 103.76Z" fill="url(#paint36_radial)"/>
<defs>
<filter id="filter0_d" x="0" y="0" width="171" height="172" filterUnits="userSpaceOnUse" color-interpolation-filters="sRGB">
<feFlood flood-opacity="0" result="BackgroundImageFix"/>
<feColorMatrix in="SourceAlpha" type="matrix" values="0 0 0 0 0 0 0 0 0 0 0 0 0 0 0 0 0 0 127 0"/>
<feOffset/>
<feGaussianBlur stdDeviation="20"/>
<feColorMatrix type="matrix" values="0 0 0 0 0.12526 0 0 0 0 0.8125 0 0 0 0 0.2813 0 0 0 1 0"/>
<feBlend mode="normal" in2="BackgroundImageFix" result="effect1_dropShadow"/>
<feBlend mode="normal" in="SourceGraphic" in2="effect1_dropShadow" result="shape"/>
</filter>
<radialGradient id="paint0_radial" cx="0" cy="0" r="1" gradientUnits="userSpaceOnUse" gradientTransform="translate(89.0205 87.8848) scale(56.2549)">
<stop offset="0.03" stop-color="#00FFA9"/>
<stop offset="0.15" stop-color="#00FBA6"/>
<stop offset="0.27" stop-color="#00EF9E"/>
<stop offset="0.39" stop-color="#00DB91"/>
<stop offset="0.52" stop-color="#00BF7E"/>
<stop offset="0.64" stop-color="#009B66"/>
<stop offset="0.76" stop-color="#006E49" stop-opacity="0.3"/>
<stop offset="0.88" stop-color="#003B27" stop-opacity="0.5"/>
<stop offset="1" stop-opacity="0"/>
</radialGradient>
<radialGradient id="paint1_radial" cx="0" cy="0" r="1" gradientUnits="userSpaceOnUse" gradientTransform="translate(55.8033 62.6498) scale(80.485)">
<stop offset="0.01" stop-color="#0CC463"/>
<stop offset="0.21" stop-color="#0CC163"/>
<stop offset="0.36" stop-color="#0BB765"/>
<stop offset="0.5" stop-color="#09A767"/>
<stop offset="0.63" stop-color="#078F6B"/>
<stop offset="0.76" stop-color="#04726F"/>
<stop offset="0.87" stop-color="#004F74"/>
</radialGradient>
<linearGradient id="paint2_linear" x1="121.1" y1="96.3351" x2="121.1" y2="68.2764" gradientUnits="userSpaceOnUse">
<stop stop-color="#007C6F"/>
<stop offset="0.66" stop-color="#29D73B"/>
<stop offset="0.99" stop-color="#3BFF24"/>
</linearGradient>
<radialGradient id="paint3_radial" cx="0" cy="0" r="1" gradientUnits="userSpaceOnUse" gradientTransform="translate(84.3533 114.639) rotate(6.99) scale(18.0685 13.5243)">
<stop stop-color="#00FF00"/>
<stop offset="1" stop-opacity="0"/>
</radialGradient>
<linearGradient id="paint4_linear" x1="36.7314" y1="72.3376" x2="108.808" y2="72.3376" gradientUnits="userSpaceOnUse">
<stop offset="0.01" stop-color="#92FF2C"/>
<stop offset="0.23" stop-color="#8FFC2D"/>
<stop offset="0.39" stop-color="#86F332"/>
<stop offset="0.54" stop-color="#76E33A"/>
<stop offset="0.67" stop-color="#5FCD44"/>
<stop offset="0.8" stop-color="#42B152"/>
<stop offset="0.91" stop-color="#1F8E63"/>
<stop offset="1" stop-color="#007072"/>
</linearGradient>
<radialGradient id="paint5_radial" cx="0" cy="0" r="1" gradientUnits="userSpaceOnUse" gradientTransform="translate(-2592.37 3422.09) rotate(30.0024) scale(223.815 85.1375)">
<stop stop-color="#00FF00"/>
<stop offset="1" stop-opacity="0"/>
</radialGradient>
<radialGradient id="paint6_radial" cx="0" cy="0" r="1" gradientUnits="userSpaceOnUse" gradientTransform="translate(121.11 111.408) scale(7.19183)">
<stop offset="0.01" stop-color="#3BFF24"/>
<stop offset="0.53" stop-color="#26D832"/>
<stop offset="1" stop-color="#11B140"/>
</radialGradient>
<radialGradient id="paint7_radial" cx="0" cy="0" r="1" gradientUnits="userSpaceOnUse" gradientTransform="translate(-10952.4 666.184) rotate(82.4054) scale(246.907 245.82)">
<stop stop-color="#00FF00"/>
<stop offset="1" stop-opacity="0"/>
</radialGradient>
<radialGradient id="paint8_radial" cx="0" cy="0" r="1" gradientUnits="userSpaceOnUse" gradientTransform="translate(4165.9 7158.96) scale(4096.36 6140.25)">
<stop stop-color="#FFFF4A"/>
<stop offset="1" stop-opacity="0"/>
</radialGradient>
<radialGradient id="paint9_radial" cx="0" cy="0" r="1" gradientUnits="userSpaceOnUse" gradientTransform="translate(106.991 54.9923) scale(10.5551)">
<stop offset="0.02" stop-color="#B0FF24"/>
<stop offset="0.29" stop-color="#88F72B"/>
<stop offset="0.89" stop-color="#25E43D"/>
<stop offset="1" stop-color="#11E040"/>
</radialGradient>
<radialGradient id="paint10_radial" cx="0" cy="0" r="1" gradientUnits="userSpaceOnUse" gradientTransform="translate(1662.05 563.006) scale(65.4827 24.8458)">
<stop offset="0.02" stop-color="#B0FF24"/>
<stop offset="0.29" stop-color="#88F72B"/>
<stop offset="0.89" stop-color="#25E43D"/>
<stop offset="1" stop-color="#11E040"/>
</radialGradient>
<radialGradient id="paint11_radial" cx="0" cy="0" r="1" gradientUnits="userSpaceOnUse" gradientTransform="translate(1619.2 865.645) scale(115.125 75.1621)">
<stop offset="0.02" stop-color="#B0FF24"/>
<stop offset="0.29" stop-color="#88F72B"/>
<stop offset="0.89" stop-color="#25E43D"/>
<stop offset="1" stop-color="#11E040"/>
</radialGradient>
<radialGradient id="paint12_radial" cx="0" cy="0" r="1" gradientUnits="userSpaceOnUse" gradientTransform="translate(103.001 56.2624) scale(15.1451)">
<stop offset="0.01" stop-color="#00FF24"/>
<stop offset="0.19" stop-color="#28FF1E"/>
<stop offset="0.58" stop-color="#8DFF10"/>
<stop offset="1" stop-color="#FFFF00"/>
</radialGradient>
<radialGradient id="paint13_radial" cx="0" cy="0" r="1" gradientUnits="userSpaceOnUse" gradientTransform="translate(2155.55 2526.24) scale(156.075 236.135)">
<stop offset="0.01" stop-color="#00FF24"/>
<stop offset="0.19" stop-color="#28FF1E"/>
<stop offset="0.58" stop-color="#8DFF10"/>
<stop offset="1" stop-color="#FFFF00"/>
</radialGradient>
<radialGradient id="paint14_radial" cx="0" cy="0" r="1" gradientUnits="userSpaceOnUse" gradientTransform="translate(1782.06 1113.82) scale(71.6682 72.692)">
<stop offset="0.01" stop-color="#00FF24"/>
<stop offset="0.19" stop-color="#28FF1E"/>
<stop offset="0.58" stop-color="#8DFF10"/>
<stop offset="1" stop-color="#FFFF00"/>
</radialGradient>
<radialGradient id="paint15_radial" cx="0" cy="0" r="1" gradientUnits="userSpaceOnUse" gradientTransform="translate(4888.89 3830.05) scale(1142.65 545.806)">
<stop offset="0.01" stop-color="#00FF24"/>
<stop offset="0.19" stop-color="#28FF1E"/>
<stop offset="0.58" stop-color="#8DFF10"/>
<stop offset="1" stop-color="#FFFF00"/>
</radialGradient>
<radialGradient id="paint16_radial" cx="0" cy="0" r="1" gradientUnits="userSpaceOnUse" gradientTransform="translate(2462.48 2647.99) scale(149.602 157.373)">
<stop offset="0.01" stop-color="#00FF24"/>
<stop offset="0.19" stop-color="#28FF1E"/>
<stop offset="0.58" stop-color="#8DFF10"/>
<stop offset="1" stop-color="#FFFF00"/>
</radialGradient>
<radialGradient id="paint17_radial" cx="0" cy="0" r="1" gradientUnits="userSpaceOnUse" gradientTransform="translate(1600.79 1145.22) scale(177.191 145.078)">
<stop offset="0.01" stop-color="#00FF24"/>
<stop offset="0.19" stop-color="#28FF1E"/>
<stop offset="0.58" stop-color="#8DFF10"/>
<stop offset="1" stop-color="#FFFF00"/>
</radialGradient>
<radialGradient id="paint18_radial" cx="0" cy="0" r="1" gradientUnits="userSpaceOnUse" gradientTransform="translate(1833.79 1089.97) scale(151.843 105.575)">
<stop offset="0.01" stop-color="#00FF24"/>
<stop offset="0.19" stop-color="#28FF1E"/>
<stop offset="0.58" stop-color="#8DFF10"/>
<stop offset="1" stop-color="#FFFF00"/>
</radialGradient>
<radialGradient id="paint19_radial" cx="0" cy="0" r="1" gradientUnits="userSpaceOnUse" gradientTransform="translate(3681.78 1041.97) scale(617.436 110.402)">
<stop offset="0.01" stop-color="#3BFF24"/>
<stop offset="0.53" stop-color="#26D832"/>
<stop offset="1" stop-color="#11B140"/>
</radialGradient>
<radialGradient id="paint20_radial" cx="0" cy="0" r="1" gradientUnits="userSpaceOnUse" gradientTransform="translate(999.568 861.199) scale(25.4496 37.1236)">
<stop offset="0.01" stop-color="#3BFF24"/>
<stop offset="0.53" stop-color="#26D832"/>
<stop offset="1" stop-color="#11B140"/>
</radialGradient>
<radialGradient id="paint21_radial" cx="0" cy="0" r="1" gradientUnits="userSpaceOnUse" gradientTransform="translate(51.4133 57.3415) scale(52.2677)">
<stop stop-color="#97FF11"/>
<stop offset="1" stop-opacity="0"/>
</radialGradient>
<linearGradient id="paint22_linear" x1="94.6577" y1="37.0773" x2="109.517" y2="51.1543" gradientUnits="userSpaceOnUse">
<stop stop-color="#FFFFE8"/>
<stop offset="0.2" stop-color="#BBBBAA"/>
<stop offset="0.42" stop-color="#79796E"/>
<stop offset="0.61" stop-color="#45453F"/>
<stop offset="0.78" stop-color="#1F1F1D"/>
<stop offset="0.91" stop-color="#080808"/>
<stop offset="1"/>
</linearGradient>
<linearGradient id="paint23_linear" x1="945.79" y1="726.358" x2="995.625" y2="777.23" gradientUnits="userSpaceOnUse">
<stop stop-color="#FFFFE8"/>
<stop offset="0.2" stop-color="#BBBBAA"/>
<stop offset="0.42" stop-color="#79796E"/>
<stop offset="0.61" stop-color="#45453F"/>
<stop offset="0.78" stop-color="#1F1F1D"/>
<stop offset="0.91" stop-color="#080808"/>
<stop offset="1"/>
</linearGradient>
<linearGradient id="paint24_linear" x1="1450.24" y1="402.002" x2="1474.96" y2="473.783" gradientUnits="userSpaceOnUse">
<stop stop-color="#FFFFE8"/>
<stop offset="0.2" stop-color="#BBBBAA"/>
<stop offset="0.42" stop-color="#79796E"/>
<stop offset="0.61" stop-color="#45453F"/>
<stop offset="0.78" stop-color="#1F1F1D"/>
<stop offset="0.91" stop-color="#080808"/>
<stop offset="1"/>
</linearGradient>
<linearGradient id="paint25_linear" x1="1955" y1="990.257" x2="2070.63" y2="1143.22" gradientUnits="userSpaceOnUse">
<stop stop-color="#FFFFE8"/>
<stop offset="0.2" stop-color="#BBBBAA"/>
<stop offset="0.42" stop-color="#79796E"/>
<stop offset="0.61" stop-color="#45453F"/>
<stop offset="0.78" stop-color="#1F1F1D"/>
<stop offset="0.91" stop-color="#080808"/>
<stop offset="1"/>
</linearGradient>
<linearGradient id="paint26_linear" x1="1564.65" y1="583.622" x2="1615.38" y2="658.911" gradientUnits="userSpaceOnUse">
<stop stop-color="#FFFFE8"/>
<stop offset="0.2" stop-color="#BBBBAA"/>
<stop offset="0.42" stop-color="#79796E"/>
<stop offset="0.61" stop-color="#45453F"/>
<stop offset="0.78" stop-color="#1F1F1D"/>
<stop offset="0.91" stop-color="#080808"/>
<stop offset="1"/>
</linearGradient>
<linearGradient id="paint27_linear" x1="2133.96" y1="1217.78" x2="2192.12" y2="1316.13" gradientUnits="userSpaceOnUse">
<stop stop-color="#FFFFE8"/>
<stop offset="0.2" stop-color="#BBBBAA"/>
<stop offset="0.42" stop-color="#79796E"/>
<stop offset="0.61" stop-color="#45453F"/>
<stop offset="0.78" stop-color="#1F1F1D"/>
<stop offset="0.91" stop-color="#080808"/>
<stop offset="1"/>
</linearGradient>
<linearGradient id="paint28_linear" x1="3874.6" y1="2171" x2="4150.08" y2="2958.81" gradientUnits="userSpaceOnUse">
<stop stop-color="#FFFFE8"/>
<stop offset="0.2" stop-color="#BBBBAA"/>
<stop offset="0.42" stop-color="#79796E"/>
<stop offset="0.61" stop-color="#45453F"/>
<stop offset="0.78" stop-color="#1F1F1D"/>
<stop offset="0.91" stop-color="#080808"/>
<stop offset="1"/>
</linearGradient>
<radialGradient id="paint29_radial" cx="0" cy="0" r="1" gradientUnits="userSpaceOnUse" gradientTransform="translate(-316.413 3117.29) rotate(14.16) scale(81.6473 151.918)">
<stop offset="0.02" stop-color="#B0FF24"/>
<stop offset="0.29" stop-color="#88F72B"/>
<stop offset="0.89" stop-color="#25E43D"/>
<stop offset="1" stop-color="#11E040"/>
</radialGradient>
<radialGradient id="paint30_radial" cx="0" cy="0" r="1" gradientUnits="userSpaceOnUse" gradientTransform="translate(-643.284 5049.51) rotate(14.16) scale(242.925 361.223)">
<stop offset="0.01" stop-color="#00FF24"/>
<stop offset="0.19" stop-color="#28FF1E"/>
<stop offset="0.58" stop-color="#8DFF10"/>
<stop offset="1" stop-color="#FFFF00"/>
</radialGradient>
<linearGradient id="paint31_linear" x1="-406.672" y1="2674.6" x2="-284.1" y2="2802.3" gradientUnits="userSpaceOnUse">
<stop stop-color="#FFFFE8"/>
<stop offset="0.2" stop-color="#BBBBAA"/>
<stop offset="0.42" stop-color="#79796E"/>
<stop offset="0.61" stop-color="#45453F"/>
<stop offset="1" stop-color="#1F1F1D" stop-opacity="0"/>
</linearGradient>
<radialGradient id="paint32_radial" cx="0" cy="0" r="1" gradientUnits="userSpaceOnUse" gradientTransform="translate(2819.89 2182.07) rotate(-13.8697) scale(115.18 67.4634)">
<stop stop-color="#00FF00"/>
<stop offset="1" stop-opacity="0"/>
</radialGradient>
<radialGradient id="paint33_radial" cx="0" cy="0" r="1" gradientUnits="userSpaceOnUse" gradientTransform="translate(-10368.3 1063.1) rotate(85.33) scale(169.187 168.305)">
<stop stop-color="#00FF00"/>
<stop offset="1" stop-opacity="0"/>
</radialGradient>
<radialGradient id="paint34_radial" cx="0" cy="0" r="1" gradientUnits="userSpaceOnUse" gradientTransform="translate(-6825.25 -3909.03) rotate(128.928) scale(97.8441 86.1739)">
<stop stop-color="#00FF00"/>
<stop offset="1" stop-opacity="0"/>
</radialGradient>
<radialGradient id="paint35_radial" cx="0" cy="0" r="1" gradientUnits="userSpaceOnUse" gradientTransform="translate(-10648.5 310.294) rotate(82.33) scale(246.882 245.929)">
<stop stop-color="#00FF00"/>
<stop offset="1" stop-opacity="0"/>
</radialGradient>
<radialGradient id="paint36_radial" cx="0" cy="0" r="1" gradientUnits="userSpaceOnUse" gradientTransform="translate(65.2752 60.824) scale(44.997 43.0406)">
<stop offset="0.01" stop-color="#6A00FF"/>
<stop offset="0.08" stop-color="#0077D0"/>
<stop offset="0.17" stop-color="#005BA0"/>
<stop offset="0.27" stop-color="#004375" stop-opacity="0"/>
<stop offset="1" stop-color="#01001D" stop-opacity="0"/>
</radialGradient>
</defs>
</svg>
