<svg width="166" height="166" viewBox="0 0 166 166" fill="none" xmlns="http://www.w3.org/2000/svg">
<path style="mix-blend-mode:screen" d="M163.762 102.062C174.29 57.4579 146.665 12.7652 102.062 2.23774C57.4579 -8.2897 12.7652 19.3346 2.23774 63.9384C-8.2897 108.542 19.3346 153.235 63.9384 163.762C108.542 174.29 153.235 146.665 163.762 102.062Z" fill="url(#paint0_radial)"/>
<path style="mix-blend-mode:screen" d="M137.973 96.3603C145.283 66.1123 126.695 35.6638 96.4563 28.3516C66.2171 21.0394 35.7775 39.6326 28.4674 69.8806C21.1574 100.129 39.7451 130.577 69.9843 137.889C100.223 145.201 130.663 126.608 137.973 96.3603Z" fill="url(#paint1_radial)"/>
<path style="mix-blend-mode:screen" d="M135.471 95.7518C142.441 66.8869 124.699 37.8351 95.8429 30.8626C66.9865 23.8901 37.9431 41.6374 30.9727 70.5022C24.0022 99.367 41.7443 128.419 70.6007 135.391C99.4571 142.364 128.501 124.617 135.471 95.7518Z" fill="url(#paint2_radial)"/>
<path fill-rule="evenodd" clip-rule="evenodd" d="M56.2395 118.616C51.9247 118.616 44.0717 112.379 40.3286 104.33C35.6362 94.2843 35.6039 83.7207 37.8691 81.7784C38.5997 81.181 39.5265 80.8771 40.4688 80.926C41.2553 80.9387 42.036 81.0622 42.788 81.2929C48.1816 82.8574 55.7325 90.3566 58.9686 97.8666C61.3348 103.13 61.8074 109.051 60.3062 114.624C59.4972 117.861 57.6634 118.616 56.2719 118.616H56.2395Z" fill="url(#paint3_linear)"/>
<path fill-rule="evenodd" clip-rule="evenodd" d="M59.4211 114.408C58.9141 116.469 57.9109 117.721 56.185 117.732C52.4958 117.732 44.7615 111.873 41.0831 103.953C36.38 93.8747 36.6389 83.9585 38.3971 82.4479C39.2817 81.6818 40.7487 81.6386 42.4962 82.1458C47.9761 83.7319 56.2497 90.7779 58.0404 98.0721C59.6045 104.244 60.3596 110.653 59.4211 114.408Z" fill="url(#paint4_linear)"/>
<path fill-rule="evenodd" clip-rule="evenodd" d="M41.7975 77.56C41.532 77.5775 41.2662 77.5329 41.021 77.4299C40.7757 77.3269 40.5578 77.1683 40.3844 76.9665C38.9928 75.3156 41.0316 69.6724 41.9377 67.633C43.3832 64.3959 44.807 62.6803 46.177 62.6371C46.706 62.6266 47.2204 62.811 47.6225 63.1551L47.8921 63.414C48.7807 64.5076 49.3356 65.834 49.4905 67.2347C49.6455 68.6354 49.3939 70.051 48.7659 71.3125C47.6872 73.3302 44.5266 76.8802 42.3692 77.4737C42.1829 77.5262 41.9909 77.5552 41.7975 77.56Z" fill="url(#paint5_linear)"/>
<path fill-rule="evenodd" clip-rule="evenodd" d="M48.2149 70.9675C47.2117 72.9421 44.008 76.4705 42.0339 77.01C41.8303 77.0959 41.6052 77.117 41.3891 77.0707C41.173 77.0244 40.9764 76.9128 40.8258 76.7511C39.3695 75.0354 43.5549 63.2417 46.284 63.123C46.5069 63.1288 46.7259 63.1818 46.9267 63.2785C47.1276 63.3752 47.3056 63.5135 47.449 63.6841C48.2465 64.7042 48.7413 65.928 48.8767 67.2159C49.0121 68.5038 48.7828 69.8038 48.2149 70.9675Z" fill="url(#paint6_linear)"/>
<path fill-rule="evenodd" clip-rule="evenodd" d="M114.059 117.301C113.343 117.371 112.622 117.228 111.987 116.89C111.352 116.552 110.831 116.035 110.488 115.402C109.409 113.028 109.927 104.331 113.379 96.6594C118.503 85.2541 125.525 82.2329 128.481 82.2329C128.675 82.2206 128.869 82.2206 129.063 82.2329L129.387 82.3084C129.83 82.4502 130.235 82.6897 130.573 83.009C130.911 83.3283 131.173 83.7195 131.339 84.1535C133.357 88.3617 132.192 98.7311 128.891 105.917C125.86 112.64 118.632 117.301 114.059 117.301Z" fill="url(#paint7_linear)"/>
<path fill-rule="evenodd" clip-rule="evenodd" d="M128.135 105.582C124.079 114.386 113.13 118.886 111.285 115.034C110.347 113.059 110.724 104.751 114.187 97.0358C119.397 85.4363 126.506 82.8035 128.987 83.1596H129.149C132.644 84.0551 132.115 96.9171 128.135 105.582Z" fill="url(#paint8_linear)"/>
<path fill-rule="evenodd" clip-rule="evenodd" d="M127.403 81.4235C127.025 81.4309 126.651 81.3339 126.324 81.143C124.167 79.8697 122.808 71.5613 124.264 68.9609C124.389 68.6996 124.573 68.471 124.801 68.2931C125.03 68.1152 125.296 67.9928 125.58 67.9358C125.747 67.9007 125.917 67.8827 126.087 67.8818C128.471 67.8818 130.877 70.6873 131.675 74.4099C131.906 75.4608 131.859 76.5538 131.54 77.5812C131.22 78.6086 130.638 79.5349 129.852 80.269C129.202 80.9368 128.332 81.3468 127.403 81.4235Z" fill="url(#paint9_linear)"/>
<path fill-rule="evenodd" clip-rule="evenodd" d="M129.289 79.6104C128.426 80.4304 127.423 80.7542 126.808 80.3765C125.115 79.3622 123.81 71.6256 125.061 69.3921C125.123 69.2465 125.22 69.1178 125.342 69.0165C125.463 68.9152 125.608 68.8442 125.762 68.8094C127.499 68.4641 130.001 70.7732 130.832 74.5929C131.035 75.4912 130.999 76.4269 130.729 77.3072C130.458 78.1874 129.962 78.9814 129.289 79.6104Z" fill="url(#paint10_linear)"/>
<path fill-rule="evenodd" clip-rule="evenodd" d="M86.4342 135.202H85.4634C80.2209 135.051 76.2081 132.817 75.4961 130.886C75.363 130.548 75.3372 130.177 75.4221 129.824C75.507 129.47 75.6986 129.152 75.9708 128.911C77.632 127.454 84.4386 127.379 85.787 127.379C90.1989 127.379 95.4953 127.811 96.0347 129.871C96.1117 130.274 96.0847 130.689 95.9563 131.078C95.828 131.467 95.6025 131.817 95.3012 132.094C94.093 133.378 92.421 135.202 86.4342 135.202Z" fill="url(#paint11_linear)"/>
<path fill-rule="evenodd" clip-rule="evenodd" d="M94.6532 131.424C93.4126 132.795 91.8485 134.489 85.4842 134.294C79.3032 134.111 75.0747 130.82 76.5633 129.514C78.5697 127.734 94.6208 127.637 95.1709 130.011C95.2104 130.271 95.1837 130.537 95.0932 130.784C95.0027 131.031 94.8513 131.251 94.6532 131.424Z" fill="url(#paint12_linear)"/>
<path fill-rule="evenodd" clip-rule="evenodd" d="M111.176 85.4696C109.627 85.5441 108.091 85.1467 106.771 84.3299C105.452 83.5131 104.412 82.3152 103.787 80.8945C100.551 73.827 100.551 59.9831 102.903 54.4154C103.072 53.8592 103.35 53.3421 103.72 52.8939C104.09 52.4457 104.546 52.0753 105.06 51.8042C105.9 51.4509 106.802 51.2675 107.714 51.2646C110.734 51.2646 113.862 53.2824 116.775 57.1129C121.532 63.3713 124.844 73.5464 123.592 78.0351C122.919 79.8204 121.68 81.3362 120.065 82.3512C117.486 84.2679 114.387 85.3554 111.176 85.4696Z" fill="url(#paint13_linear)"/>
<path fill-rule="evenodd" clip-rule="evenodd" d="M122.751 77.7979C122.115 79.3969 120.98 80.7478 119.515 81.65C115.049 84.8871 107.336 86.6027 104.542 80.571C101.392 73.6869 101.403 60.156 103.679 54.804C103.945 53.8965 104.547 53.1247 105.362 52.646C115.038 48.632 124.617 71.0757 122.751 77.7979Z" fill="url(#paint14_linear)"/>
<path fill-rule="evenodd" clip-rule="evenodd" d="M59.4226 114.409C54.439 116.19 46.7263 109.953 42.7027 99.7669C40.3387 94.1423 40.2806 87.8135 42.5409 82.1465C48.0207 83.7326 56.2944 90.7786 58.085 98.0728C59.606 104.245 60.3611 110.654 59.4226 114.409Z" fill="#FFFF45"/>
<path fill-rule="evenodd" clip-rule="evenodd" d="M94.6504 131.424C91.6735 132.416 88.519 132.758 85.3988 132.429C82.2785 132.099 79.265 131.106 76.5605 129.514C78.5669 127.734 94.6181 127.637 95.1682 130.011C95.2077 130.271 95.181 130.537 95.0905 130.784C95 131.031 94.8486 131.251 94.6504 131.424Z" fill="#FFFF45"/>
<path fill-rule="evenodd" clip-rule="evenodd" d="M126.452 104.794C119.235 116.577 111.285 115.034 111.285 115.034C110.347 113.059 110.724 104.751 114.187 97.0358C119.397 85.4363 126.506 82.8035 128.987 83.1596H129.149C130.249 86.7521 130.578 90.5367 130.113 94.2652C129.648 97.9937 128.401 101.582 126.452 104.794Z" fill="#FFFF45"/>
<path fill-rule="evenodd" clip-rule="evenodd" d="M119.56 81.6496C115.094 84.8867 107.381 86.6023 104.587 80.5706C101.437 73.6865 101.448 60.1556 103.724 54.8036C105.72 54.5339 109.398 55.2029 113.681 61.4935C119.581 70.0825 121.555 76.7185 119.56 81.6496Z" fill="#FFFF45"/>
<path fill-rule="evenodd" clip-rule="evenodd" d="M129.289 79.6099C128.426 80.43 127.423 80.7537 126.808 80.376C125.115 79.3618 123.81 71.6252 125.061 69.3916C126.049 69.9305 126.907 70.6808 127.573 71.5891C128.238 72.4974 128.696 73.5412 128.912 74.6464C129.211 76.2831 129.338 77.9468 129.289 79.6099Z" fill="#FFFF45"/>
<path fill-rule="evenodd" clip-rule="evenodd" d="M48.2142 70.968C47.211 72.9426 44.0072 76.471 42.0332 77.0105C42.1626 76.2228 43.662 67.0511 47.4267 63.6846C48.2277 64.7025 48.7263 65.9253 48.8656 67.2132C49.0048 68.5011 48.7791 69.8023 48.2142 70.968Z" fill="#FFFF45"/>
<path style="mix-blend-mode:soft-light" fill-rule="evenodd" clip-rule="evenodd" d="M109.656 96.8095C109.178 97.9837 108.555 99.093 107.8 100.111C107.124 100.822 106.507 101.587 105.956 102.399C104.348 105.431 104.683 108.873 103.798 112.024C103.291 113.761 101.975 115.142 101.458 116.901C101.312 117.672 101.268 118.46 101.328 119.242C101.24 120.128 100.861 120.959 100.249 121.605C99.6035 122.418 98.7553 123.047 97.7899 123.429C96.9939 123.67 96.1579 123.751 95.3305 123.666C93.5052 123.671 91.6888 123.413 89.9369 122.9C88.3189 122.436 86.8087 121.681 85.1691 121.217C84.1796 120.953 83.1382 120.953 82.1487 121.217C81.1507 121.347 80.1417 121.368 79.1391 121.282C77.4132 121.282 75.7951 122.231 74.2634 122.976C73.7312 123.194 73.2518 123.524 72.8574 123.942C72.463 124.361 72.1626 124.859 71.9765 125.404C71.4695 126.796 71.4803 128.09 69.8191 128.641C68.7779 128.824 67.7076 128.75 66.7016 128.425C65.8004 128.308 64.8896 128.283 63.9833 128.349C62.2548 128.327 60.5597 127.871 59.0536 127.022C57.2723 125.976 55.6396 124.695 54.1994 123.213C53.412 122.458 52.398 122.037 51.589 121.293C50.5103 120.3 49.356 119.404 48.3528 118.336C46.7394 116.668 45.0284 115.097 43.229 113.631C41.996 112.589 40.8489 111.448 39.7987 110.222C38.9821 109.12 38.2809 107.938 37.706 106.693C36.3734 104.373 35.361 101.883 34.6964 99.2913C33.7616 96.3492 33.207 93.2996 33.046 90.2167C33.046 87.6702 32.7224 85.2101 32.7224 82.6636C32.5282 86.8923 32.6906 91.1299 33.2078 95.3313C32.4919 91.8593 32.1304 88.3235 32.1291 84.7785C32.1012 75.048 34.8641 65.5137 40.09 57.3066C42.2415 53.9495 44.7755 50.8535 47.6409 48.081C57.1632 38.7943 69.939 33.6011 83.2382 33.6113C84.3169 33.6113 85.3956 33.6113 86.5498 33.7192C92.2072 34.0771 97.7643 35.3829 102.989 37.5821C104.339 38.9915 105.535 40.5395 106.56 42.2003C106.959 42.8801 107.261 43.6139 107.639 44.2829C108.016 44.9518 108.35 45.2 108.243 45.9338C108.122 46.4187 107.941 46.8864 107.703 47.3257C107.142 48.696 105.546 49.6995 104.338 50.4548C102.644 51.5339 100.67 51.9439 98.8686 52.8826C97.9163 53.3893 97.1102 54.1324 96.5278 55.0407C96.1287 55.537 95.6002 55.9363 95.255 56.465C94.264 58.0867 93.7621 59.96 93.8095 61.8601C93.9389 65.2914 96.5926 67.7839 97.2182 71.0425C97.7683 73.848 97.3692 76.8369 98.2969 79.5992C99.2893 82.6852 101.997 85.2209 104.543 87.012C105.607 87.6868 106.617 88.4444 107.563 89.278C108.437 90.1088 109.656 90.5836 110.281 91.6195C111.295 93.3351 110.335 95.1802 109.656 96.8095Z" fill="url(#paint15_linear)"/>
<path fill-rule="evenodd" clip-rule="evenodd" d="M105.634 38.78C105.463 38.7954 105.294 38.8206 105.127 38.8555C104.594 38.9538 104.045 38.9167 103.53 38.7476C103.178 38.6069 102.818 38.488 102.452 38.3915C101.837 38.2944 101.254 38.0247 100.639 37.9491C99.985 37.8229 99.3478 37.6201 98.7408 37.3449C98.3368 37.1972 97.8936 37.1972 97.4895 37.3449C97.0699 37.4203 96.6373 37.3315 96.2814 37.0967C95.8171 36.932 95.3359 36.8198 94.8467 36.7622C93.5522 36.4925 92.2578 36.0824 90.9741 35.7479C90.2026 35.5772 89.412 35.5083 88.6226 35.5429C87.9861 35.5429 87.4144 35.7156 86.778 35.7156C86.3914 35.7119 86.0056 35.6794 85.6238 35.6185C85.1923 35.5321 84.75 35.6185 84.3077 35.6185C83.7716 35.4672 83.2042 35.4672 82.6681 35.6185C82.2248 35.7354 81.7673 35.7898 81.3089 35.7803C80.7414 35.8345 80.1789 35.9319 79.6262 36.0717C78.649 36.3188 77.646 36.4492 76.6381 36.4601C75.9516 36.3574 75.2536 36.3574 74.567 36.4601C74.2003 36.5896 74.0169 36.9888 73.758 37.2586C73.2127 37.7411 72.7009 38.2602 72.2262 38.8124C71.7348 39.3291 71.4375 40.0002 71.3848 40.7114C71.4665 41.3888 71.6674 42.0463 71.9781 42.6537C72.2694 43.2579 72.3665 43.819 71.73 44.229C70.9304 44.7757 70.0544 45.2011 69.1304 45.4915C68.8672 45.6175 68.5749 45.67 68.2843 45.6434C67.9938 45.6168 67.7159 45.5121 67.4799 45.3404C67.2966 45.1786 67.1779 44.8657 66.9514 44.747C66.7248 44.6283 66.4552 44.747 66.2071 44.8225C65.5805 45.0267 64.9431 45.196 64.2978 45.3296C63.8986 45.3944 63.5534 45.5994 63.1651 45.6749C62.7768 45.7505 62.3561 45.416 61.8707 45.5347C61.1741 45.7487 60.4591 45.8969 59.7348 45.9771C59.1816 45.9732 58.6403 45.8163 58.1707 45.5239C57.9226 45.3836 57.8579 45.2433 57.5774 45.3189C57.3023 45.4269 57.0604 45.6055 56.8763 45.8368C56.7037 46.0742 56.6497 46.3871 56.4771 46.6353C56.3045 46.8834 56.132 47.1748 55.9701 47.4661C55.678 48.0272 55.3425 48.5648 54.967 49.0738C54.6973 49.4299 54.5139 49.9047 54.2226 50.2392C54.0101 50.4039 53.7825 50.5484 53.5431 50.6708C53.0145 51.0377 52.4644 51.3829 51.9358 51.7498C50.9434 52.5267 50.0049 53.3899 48.9909 54.1344C48.1369 54.6721 47.2204 55.1033 46.2618 55.4185C45.7117 55.6343 45.1831 55.7961 44.6006 56.0227C44.3679 56.0863 44.1461 56.1845 43.9426 56.3141C43.7623 56.5321 43.6034 56.767 43.468 57.0154C42.9634 57.6064 42.5189 58.2462 42.1411 58.9253C41.9354 59.3141 41.7691 59.7226 41.6449 60.1446C41.4508 60.7165 41.1379 61.2236 40.9438 61.8279C40.5447 63.0364 40.4584 64.2988 40.0161 65.4965C39.7412 66.1739 39.4241 66.8334 39.0668 67.4711C38.6086 68.6061 38.3425 69.8095 38.2794 71.0319C38.1994 71.7511 38.2249 72.4781 38.3549 73.1899C38.454 73.9373 38.4829 74.6923 38.4412 75.4451C38.3443 76.2549 37.9887 77.0118 37.4272 77.6031C36.9634 78.1642 36.2622 78.3692 35.7444 78.8764C35.2491 79.2823 34.8572 79.8 34.601 80.387C34.5666 80.6699 34.5486 80.9545 34.5471 81.2394C34.4392 81.8653 34.2774 82.4587 34.1911 83.1061C34.1029 83.8798 34.0633 84.6582 34.0724 85.4368C34.0724 85.836 34.0724 86.2353 34.0724 86.6345C34.0724 87.0338 34.2342 87.379 34.2558 87.7135C34.2774 88.048 34.2558 88.2423 34.2558 88.512C34.2558 88.7818 34.4284 89.1271 34.5039 89.4184C34.6765 90.1198 34.8059 90.8211 34.9462 91.5764C35.0976 92.2359 35.2922 92.8847 35.5287 93.5187C35.7953 94.3968 36.0079 95.2905 36.1651 96.1946C36.2946 96.8636 36.2946 97.565 36.3916 98.2448C36.4887 98.9246 36.5966 99.3238 36.6182 99.9065C36.6182 100.737 36.4456 101.568 36.4348 102.421C36.5645 103.85 36.8614 105.258 37.3193 106.618C37.4164 106.996 37.5135 107.395 37.6214 107.773C33.6283 99.8609 31.7576 91.0476 32.1925 82.1956C32.6275 73.3436 35.353 64.7562 40.1024 57.2744C42.254 53.9173 44.7879 50.8213 47.6533 48.0488C57.1757 38.762 69.9514 33.5689 83.2506 33.5791C84.3293 33.5791 85.408 33.5791 86.5622 33.687C93.1916 34.1184 99.6716 35.8488 105.634 38.78Z" fill="url(#paint16_linear)"/>
<path style="mix-blend-mode:soft-light" opacity="0.3" fill-rule="evenodd" clip-rule="evenodd" d="M101.146 123.667C102.149 123.063 103.12 122.426 104.145 121.865C105.226 121.303 106.343 120.813 107.489 120.398C108.352 120.063 108.438 120.031 109.128 120.581C109.758 121.023 110.517 121.243 111.286 121.207C112.364 121.207 113.562 121.304 113.67 122.696C113.81 124.595 110.93 126.257 109.57 127.012C108.492 127.627 107.273 128.091 106.129 128.577C105.138 129.079 104.081 129.442 102.99 129.656C102.574 129.703 102.154 129.635 101.773 129.46C101.393 129.285 101.068 129.009 100.833 128.663C100.548 128.291 100.342 127.865 100.227 127.41C100.112 126.956 100.09 126.482 100.164 126.019C100.25 124.833 100.186 124.023 101.146 123.667Z" fill="url(#paint17_linear)"/>
<path style="mix-blend-mode:soft-light" opacity="0.3" fill-rule="evenodd" clip-rule="evenodd" d="M116.365 52.1489C117.141 53.6703 117.681 55.7096 118.846 56.9721C119.077 57.2556 119.377 57.4757 119.716 57.6116C120.056 57.7475 120.425 57.7948 120.787 57.749C121.314 57.8189 121.847 57.8189 122.373 57.749C122.934 57.544 122.902 56.9289 122.88 56.3894C122.805 54.3717 121.435 52.5049 120.173 51.0591C119.353 50.1095 118.015 48.9658 116.634 49.2247C116.24 50.1393 116.145 51.1556 116.365 52.1273V52.1489Z" fill="url(#paint18_linear)"/>
<path fill-rule="evenodd" clip-rule="evenodd" d="M88.236 132.6C88.0957 132.805 87.8584 132.978 88.0634 133.194C88.1884 133.307 88.3409 133.385 88.5056 133.42C88.7944 133.492 89.0997 133.449 89.3578 133.301C89.3934 133.267 89.4217 133.226 89.441 133.181C89.4603 133.135 89.4703 133.086 89.4703 133.037C89.4703 132.988 89.4603 132.939 89.441 132.893C89.4217 132.848 89.3934 132.807 89.3578 132.773C89.3162 132.695 89.2594 132.627 89.191 132.572C89.1226 132.517 89.0438 132.476 88.9594 132.452C88.8749 132.428 88.7865 132.421 88.6993 132.432C88.6121 132.442 88.5279 132.47 88.4517 132.514L88.236 132.6Z" fill="#FFFF45"/>
<path fill-rule="evenodd" clip-rule="evenodd" d="M54.826 46.8083C54.3462 46.9275 53.9021 47.1607 53.5316 47.4881C53.1109 47.8442 52.647 48.1679 52.2263 48.5671C51.7813 49.0226 51.4746 49.5951 51.3418 50.218C51.18 50.7683 51.029 51.3941 51.2447 51.6963C51.4605 51.9984 51.7194 51.8473 51.989 51.7718C52.4429 51.6104 52.8715 51.3851 53.2619 51.1028C53.8269 50.719 54.3107 50.2277 54.6858 49.6569C54.9309 49.2514 55.1402 48.8254 55.3114 48.3837C55.4271 48.1258 55.5209 47.8587 55.5919 47.5852C55.6496 47.4063 55.6496 47.2138 55.5919 47.0349C55.5488 46.7975 55.4193 46.7867 54.826 46.8083Z" fill="#FFFF45"/>
<path fill-rule="evenodd" clip-rule="evenodd" d="M60.8788 45.8809C60.6523 46.0643 60.1776 46.3988 60.5552 46.6685C60.663 46.7333 60.7493 46.6685 60.8572 46.7333C60.9651 46.798 60.9651 46.8196 61.0622 46.7333C61.3642 46.6146 61.2455 45.7406 60.9004 45.9132L60.8788 45.8809Z" fill="#FFFF45"/>
<path fill-rule="evenodd" clip-rule="evenodd" d="M62.4639 49.0533C62.5945 48.9745 62.7429 48.93 62.8953 48.9238C62.8953 49.1181 63.1003 49.4849 62.8306 49.636C62.561 49.787 62.6688 49.3554 62.561 49.2583L62.4639 49.0533Z" fill="#FFFF45"/>
<path fill-rule="evenodd" clip-rule="evenodd" d="M65.5502 49.1387C65.8414 49.2466 66.1327 49.3653 66.4131 49.4948C66.4994 49.4193 66.6397 49.4301 66.7475 49.3545C66.899 49.2445 67.0121 49.0898 67.0711 48.9121C67.0938 48.8007 67.0911 48.6855 67.063 48.5753C67.035 48.4651 66.9825 48.3626 66.9093 48.2755C66.8461 48.1321 66.7585 48.0007 66.6504 47.8871C66.5681 47.847 66.4777 47.8262 66.3862 47.8262C66.2946 47.8262 66.2042 47.847 66.1219 47.8871C65.9507 48.0019 65.8044 48.1499 65.6913 48.3222C65.5783 48.4946 65.501 48.6878 65.4639 48.8906C65.4729 48.9924 65.5047 49.0908 65.557 49.1786C65.6093 49.2664 65.6807 49.3413 65.7659 49.3977L65.5502 49.1387Z" fill="#FFFF45"/>
<path fill-rule="evenodd" clip-rule="evenodd" d="M68.1488 108.27L69.0118 108.626C69.0981 108.55 69.2383 108.561 69.3462 108.496C69.4955 108.379 69.6079 108.222 69.6698 108.043C69.6925 107.932 69.6897 107.816 69.6617 107.706C69.6337 107.596 69.5811 107.493 69.508 107.406C69.4447 107.263 69.3571 107.131 69.2491 107.018C69.1675 106.975 69.0768 106.953 68.9848 106.953C68.8928 106.953 68.8021 106.975 68.7205 107.018C68.5502 107.12 68.4062 107.26 68.2998 107.428C68.1744 107.6 68.0929 107.8 68.0625 108.011C68.0666 108.119 68.0961 108.226 68.1485 108.321C68.201 108.417 68.2749 108.499 68.3645 108.561L68.1488 108.27Z" fill="#FFFF45"/>
<path fill-rule="evenodd" clip-rule="evenodd" d="M57.3069 51.9122C57.1824 51.995 57.079 52.1059 57.0049 52.2359C57.1128 52.3869 57.1775 52.5272 57.3824 52.5811C57.4175 52.5991 57.4563 52.6085 57.4957 52.6085C57.5351 52.6085 57.5739 52.5991 57.609 52.5811C57.6953 52.4948 57.609 52.4085 57.6737 52.3222C57.7384 52.2359 57.7816 52.074 57.6737 51.8906C57.5658 51.7071 57.555 51.7395 57.4364 51.7395C57.3177 51.7395 57.1775 51.7395 57.1343 51.8582L57.3069 51.9122Z" fill="#FFFF45"/>
<path fill-rule="evenodd" clip-rule="evenodd" d="M57.9541 56.4873C57.9541 56.4873 57.7168 57.1023 57.9541 56.9405C58.1914 56.7786 58.0512 56.6384 57.9541 56.5736V56.4873Z" fill="#FFFF45"/>
<path fill-rule="evenodd" clip-rule="evenodd" d="M53.6947 64.3193C53.5506 64.5015 53.4442 64.7106 53.3818 64.9344C53.4852 65.0101 53.6097 65.0516 53.7378 65.0531C53.9104 65.0531 53.9104 64.9883 53.9212 64.8265C53.932 64.6646 53.9212 64.5891 53.9212 64.4704C53.9212 64.3517 53.7594 64.2114 53.6192 64.287L53.6947 64.3193Z" fill="#FFFF45"/>
<path fill-rule="evenodd" clip-rule="evenodd" d="M60.2305 52.4508C60.3355 52.553 60.407 52.6847 60.4354 52.8285C60.2844 52.8285 60.2628 52.7206 60.2413 52.5911C60.2197 52.4616 60.2952 52.4616 60.3815 52.3105L60.2305 52.4508Z" fill="#FFFF45"/>
<path fill-rule="evenodd" clip-rule="evenodd" d="M58.7093 46.419C58.59 46.508 58.4877 46.6176 58.4072 46.7427C58.4827 46.8399 58.4072 47.0017 58.623 46.9909C58.8387 46.9801 58.8387 46.8506 58.8926 46.7535C58.9476 46.6505 58.9772 46.5358 58.9789 46.419C58.9789 46.3543 58.9789 46.0845 58.8603 46.268L58.7093 46.419Z" fill="#FFFF45"/>
<path fill-rule="evenodd" clip-rule="evenodd" d="M78.2764 43.2905C78.3051 43.1345 78.3522 42.9823 78.4166 42.8373C78.4431 42.7965 78.4759 42.7601 78.5137 42.7294C78.6 42.6107 78.5137 42.5891 78.7078 42.5784C78.7892 42.5666 78.8722 42.5752 78.9494 42.6035C79.0266 42.6317 79.0956 42.6787 79.1501 42.7402C79.5816 43.0855 78.4921 43.3445 78.449 43.01L78.2764 43.2905Z" fill="#FFFF45"/>
<path fill-rule="evenodd" clip-rule="evenodd" d="M81.9473 44.6491C81.9473 44.8973 81.7315 45.2318 81.9473 45.3937C82.163 45.5555 82.5621 45.3181 82.7132 45.1779C82.8642 45.0376 83.328 44.4333 83.0691 44.0988C82.9574 43.9879 82.8242 43.901 82.6776 43.8435C82.5311 43.7859 82.3743 43.759 82.217 43.7643C81.6992 43.7643 81.5374 44.4333 81.4727 44.9297L81.9473 44.6491Z" fill="#FFFF45"/>
<path fill-rule="evenodd" clip-rule="evenodd" d="M83.5519 39.6119C83.5519 39.1911 83.4224 38.7703 83.8 38.5329C83.9196 38.4696 84.0529 38.4365 84.1883 38.4365C84.3236 38.4365 84.457 38.4696 84.5766 38.5329C84.7187 38.6599 84.839 38.8093 84.9326 38.9753C85.062 39.1911 85.0297 39.1911 84.9326 39.3961C84.7816 39.8385 84.6737 40.1407 84.2206 40.1407C83.7676 40.1407 83.5411 39.6767 83.5303 39.0616L83.5519 39.6119Z" fill="#FFFF45"/>
<path fill-rule="evenodd" clip-rule="evenodd" d="M89.0527 47.0562C89.375 46.9689 89.6664 46.7932 89.8941 46.549C89.6568 46.4088 89.139 46.1066 89.0527 46.549V47.0562Z" fill="#FFFF45"/>
<path fill-rule="evenodd" clip-rule="evenodd" d="M70.1553 115.089C70.4763 115.001 70.7648 114.821 70.9859 114.571C70.7594 114.431 70.2416 114.129 70.1553 114.571V115.089Z" fill="#FFC445"/>
<path fill-rule="evenodd" clip-rule="evenodd" d="M105.215 122.447C105.538 122.355 105.829 122.176 106.056 121.929C105.819 121.789 105.312 121.487 105.215 121.929V122.447Z" fill="#FFC445"/>
<path fill-rule="evenodd" clip-rule="evenodd" d="M93.2946 53.6918C93.6182 53.2925 94.082 52.6128 94.6753 52.958C94.7572 53.019 94.8255 53.0963 94.8757 53.1851C94.926 53.2739 94.9572 53.3722 94.9674 53.4737C94.9776 53.5753 94.9664 53.6778 94.9347 53.7748C94.903 53.8718 94.8514 53.9611 94.7832 54.0371C94.5063 54.2259 94.1946 54.3579 93.8663 54.4255C93.7947 54.4516 93.7175 54.4583 93.6425 54.4448C93.5675 54.4314 93.4974 54.3983 93.4393 54.349C93.3812 54.2997 93.3373 54.2358 93.3118 54.164C93.2864 54.0921 93.2805 54.0148 93.2946 53.9399V53.6918Z" fill="#FFFF45"/>
<path fill-rule="evenodd" clip-rule="evenodd" d="M70.5758 63.1656C70.8995 62.7664 71.3741 62.0866 71.9566 62.4427C72.0406 62.5017 72.1111 62.5779 72.1634 62.6663C72.2157 62.7547 72.2485 62.8533 72.2598 62.9554C72.271 63.0575 72.2603 63.1608 72.2285 63.2584C72.1967 63.3561 72.1445 63.4458 72.0752 63.5217C71.7972 63.7137 71.4806 63.8426 71.1476 63.8994C71.076 63.9255 70.9988 63.9321 70.9238 63.9187C70.8488 63.9052 70.7787 63.8722 70.7206 63.8228C70.6625 63.7735 70.6185 63.7097 70.5931 63.6378C70.5677 63.566 70.5617 63.4887 70.5758 63.4138V63.1656Z" fill="#FFC445"/>
<path fill-rule="evenodd" clip-rule="evenodd" d="M108.276 46.3766C108.6 45.9773 109.063 45.2975 109.657 45.6536C109.742 45.7123 109.813 45.7887 109.865 45.8776C109.917 45.9664 109.95 46.0656 109.96 46.1682C109.97 46.2708 109.958 46.3744 109.924 46.4719C109.891 46.5693 109.836 46.6583 109.765 46.7326C109.488 46.92 109.176 47.0486 108.848 47.1103C108.776 47.1364 108.699 47.143 108.624 47.1296C108.549 47.1162 108.479 47.0831 108.421 47.0338C108.363 46.9844 108.319 46.9206 108.293 46.8488C108.268 46.7769 108.262 46.6996 108.276 46.6247V46.3766Z" fill="#FFC445"/>
<path fill-rule="evenodd" clip-rule="evenodd" d="M87.1432 81.2181C87.4668 80.8189 87.9307 80.1391 88.524 80.4844C88.6058 80.5453 88.6741 80.6226 88.7244 80.7114C88.7747 80.8002 88.8059 80.8986 88.816 81.0001C88.8262 81.1016 88.815 81.2042 88.7833 81.3012C88.7516 81.3982 88.7 81.4875 88.6318 81.5634C88.3549 81.7523 88.0432 81.8843 87.7149 81.9519C87.6434 81.978 87.5661 81.9846 87.4911 81.9712C87.4161 81.9578 87.346 81.9247 87.288 81.8754C87.2299 81.826 87.1859 81.7622 87.1605 81.6904C87.135 81.6185 87.1291 81.5412 87.1432 81.4663V81.2181Z" fill="#FFC445"/>
<path fill-rule="evenodd" clip-rule="evenodd" d="M68.6661 48.9332C68.2562 49.1921 67.5874 49.5266 67.4903 50.0877C67.4669 50.2354 67.4962 50.3867 67.5731 50.5149C67.65 50.6432 67.7697 50.7402 67.911 50.7891C68.0559 50.8581 68.2143 50.8939 68.3748 50.8939C68.5353 50.8939 68.6938 50.8581 68.8387 50.7891C69.2575 50.6003 69.6052 50.2828 69.8311 49.8827C69.8919 49.7603 69.9235 49.6255 69.9235 49.4889C69.9235 49.3522 69.8919 49.2174 69.8311 49.095C69.7486 48.9231 69.6122 48.7829 69.4427 48.6958C68.9142 48.5123 68.5906 49.0303 68.2022 49.2677L68.6661 48.9332Z" fill="#FFFF45"/>
<path fill-rule="evenodd" clip-rule="evenodd" d="M70.0139 47.423C70.2349 47.4953 70.4324 47.6257 70.5856 47.8007C70.359 47.8762 70.1217 48.0597 69.8844 47.9733C69.8212 47.9473 69.7638 47.9091 69.7154 47.8608C69.667 47.8125 69.6287 47.7551 69.6026 47.6919C69.5766 47.6287 69.5633 47.5609 69.5635 47.4926C69.5637 47.4242 69.5775 47.3566 69.6039 47.2936C69.6039 47.1425 69.9168 46.8619 70.0786 46.9375C70.2404 47.013 70.1757 47.0777 70.208 47.1533C70.2404 47.2288 70.208 47.2612 70.208 47.423H70.0139Z" fill="#FFFF45"/>
<path fill-rule="evenodd" clip-rule="evenodd" d="M47.2557 56.9192C46.7958 57.3045 46.4273 57.7874 46.177 58.3327C46.0583 58.6133 46.2741 58.6348 46.533 58.5809C47.0292 58.4838 47.5362 58.3435 48.0324 58.214C48.3764 58.1446 48.694 57.9801 48.9493 57.7393C49.1047 57.5161 49.1702 57.2425 49.1326 56.9731C49.1326 56.6387 48.8414 56.5092 48.5393 56.4228C48.1751 56.3507 47.7972 56.4004 47.4639 56.5642C47.1306 56.7279 46.8604 56.9968 46.6948 57.3292L47.2557 56.9192Z" fill="#FFFF45"/>
<path fill-rule="evenodd" clip-rule="evenodd" d="M47.5896 59.2705C47.9359 59.2694 48.277 59.3547 48.582 59.5187C48.4957 59.6266 48.582 59.7669 48.485 59.8964C48.3943 60.0891 48.2525 60.2533 48.075 60.3711C47.9213 60.4595 47.7511 60.5156 47.5749 60.536C47.3987 60.5564 47.2202 60.5407 47.0503 60.4898C46.1226 60.1337 47.5357 59.0439 47.8485 59.4108L47.5896 59.2705Z" fill="#FFFF45"/>
<path fill-rule="evenodd" clip-rule="evenodd" d="M76.8219 38.6833C77.136 38.4887 77.4779 38.3432 77.8359 38.2517C78.2687 38.1575 78.7092 38.1033 79.1519 38.0898C79.3676 38.0898 79.8531 38.0898 79.7128 38.4351C79.5726 38.7804 78.7312 39.1797 78.3968 39.3415C77.8594 39.6382 77.276 39.8425 76.6709 39.9458C76.3473 39.9458 75.8079 39.9997 75.5922 39.676C75.5291 39.5585 75.5027 39.4249 75.5161 39.2922C75.5296 39.1595 75.5823 39.0339 75.6677 38.9315C75.7318 38.8162 75.8182 38.7148 75.9219 38.6333C76.0256 38.5517 76.1446 38.4917 76.2718 38.4567C76.4012 38.4028 77.1347 38.1977 77.1779 38.4567L76.8219 38.6833Z" fill="#FFFF45"/>
<path fill-rule="evenodd" clip-rule="evenodd" d="M71.1058 38.8545C70.9548 38.9624 69.8006 39.6098 70.3507 39.9335C70.73 40.074 71.1471 40.074 71.5265 39.9335C71.7962 39.8256 72.0766 39.6422 71.904 39.3401C71.5588 38.7142 70.7067 39.0703 70.2644 39.3401L71.1058 38.8545Z" fill="#FFFF45"/>
<path fill-rule="evenodd" clip-rule="evenodd" d="M55.0645 81.1862C55.0875 81.6868 55.3041 82.1588 55.6685 82.5026C55.859 82.6532 56.0946 82.735 56.3373 82.735C56.5801 82.735 56.8157 82.6532 57.0061 82.5026C57.319 82.3192 57.621 82.125 57.923 81.9307C58.2251 81.7365 58.2574 81.8013 58.2682 81.5423C58.2145 81.2273 58.0766 80.9328 57.8691 80.6899C57.6366 80.4089 57.3409 80.1871 57.0061 80.0425C56.3589 79.7943 55.14 80.0425 55.1508 80.9057L55.0645 81.1862Z" fill="#FFD32F"/>
<path fill-rule="evenodd" clip-rule="evenodd" d="M91.6865 81.7031C91.71 82.2013 91.9221 82.672 92.2798 83.0195C92.4752 83.1584 92.7089 83.2331 92.9486 83.2331C93.1883 83.2331 93.4221 83.1584 93.6174 83.0195C93.9302 82.8361 94.2323 82.6311 94.5343 82.4476C94.8363 82.2642 94.8687 82.3074 94.8795 82.0484C94.8277 81.736 94.6894 81.4445 94.4804 81.2068C94.2482 80.9228 93.9526 80.6973 93.6174 80.5486C92.9702 80.3112 91.7512 80.5486 91.762 81.4226L91.6865 81.7031Z" fill="#FFBA00"/>
<path style="mix-blend-mode:screen" d="M73.5252 70.7284C88.4404 64.4843 97.2873 51.6684 93.2853 42.1032C89.2833 32.538 73.9479 29.8457 59.0327 36.0897C44.1175 42.3337 35.2706 55.1496 39.2726 64.7148C43.2747 74.2801 58.6101 76.9724 73.5252 70.7284Z" fill="url(#paint19_radial)"/>
<path fill-rule="evenodd" clip-rule="evenodd" d="M39.4568 100.166C39.2558 101.612 39.5607 103.084 40.3197 104.331C41.6034 106.651 42.5419 106.489 42.5419 106.489C42.5419 106.489 41.3984 102.216 39.4568 100.166Z" fill="#FFFF59"/>
<path fill-rule="evenodd" clip-rule="evenodd" d="M122.891 74.959C122.891 74.959 121.381 79.2751 121.165 79.8901C121.219 79.8901 123.527 79.2319 122.891 74.959Z" fill="#FFFF59"/>
<path fill-rule="evenodd" clip-rule="evenodd" d="M130.928 76.3086C130.122 77.0555 129.555 78.0241 129.299 79.0925C129.299 79.0925 130.572 79.6967 130.928 76.3086Z" fill="#FFFF59"/>
<path fill-rule="evenodd" clip-rule="evenodd" d="M114.459 116.394C114.459 116.394 119.292 113.254 122.085 113.038C122.085 113.038 118.925 116.923 114.459 116.394Z" fill="#FFFF59"/>
<defs>
<radialGradient id="paint0_radial" cx="0" cy="0" r="1" gradientUnits="userSpaceOnUse" gradientTransform="translate(83.0086 83.008) rotate(-0.0910647) scale(87.8508 93.0037)">
<stop stop-color="#FF9F00"/>
<stop offset="1" stop-opacity="0"/>
</radialGradient>
<radialGradient id="paint1_radial" cx="0" cy="0" r="1" gradientUnits="userSpaceOnUse" gradientTransform="translate(83.2218 83.1196) scale(56.33 56.3464)">
<stop stop-color="#FF7300"/>
<stop offset="1" stop-opacity="0"/>
</radialGradient>
<radialGradient id="paint2_radial" cx="0" cy="0" r="1" gradientUnits="userSpaceOnUse" gradientTransform="translate(83.2368 83.1232) scale(53.7519 53.7676)">
<stop stop-color="#FF7900"/>
<stop offset="0.18" stop-color="#FC7800"/>
<stop offset="0.32" stop-color="#F37300"/>
<stop offset="0.43" stop-color="#E36C00"/>
<stop offset="0.54" stop-color="#CC6100"/>
<stop offset="0.64" stop-color="#AF5300"/>
<stop offset="0.74" stop-color="#8C4200"/>
<stop offset="1" stop-color="#622E00" stop-opacity="0"/>
</radialGradient>
<linearGradient id="paint3_linear" x1="36.4021" y1="99.7765" x2="61.1476" y2="99.7765" gradientUnits="userSpaceOnUse">
<stop offset="0.01" stop-color="#FFA90B"/>
<stop offset="0.37" stop-color="#FFA60E"/>
<stop offset="0.64" stop-color="#FF9D16"/>
<stop offset="0.87" stop-color="#FF8D25"/>
<stop offset="1" stop-color="#FF8031"/>
</linearGradient>
<linearGradient id="paint4_linear" x1="37.2753" y1="99.777" x2="59.8418" y2="99.777" gradientUnits="userSpaceOnUse">
<stop offset="0.01" stop-color="#FFE00B"/>
<stop offset="0.31" stop-color="#FFDD0D"/>
<stop offset="0.52" stop-color="#FFD412"/>
<stop offset="0.71" stop-color="#FFC41B"/>
<stop offset="0.89" stop-color="#FFAD27"/>
<stop offset="1" stop-color="#FF9B31"/>
</linearGradient>
<linearGradient id="paint5_linear" x1="332.259" y1="868.717" x2="420.212" y2="866.079" gradientUnits="userSpaceOnUse">
<stop offset="0.01" stop-color="#FFA90B"/>
<stop offset="0.37" stop-color="#FFA60E"/>
<stop offset="0.64" stop-color="#FF9D16"/>
<stop offset="0.87" stop-color="#FF8D25"/>
<stop offset="1" stop-color="#FF8031"/>
</linearGradient>
<linearGradient id="paint6_linear" x1="301.697" y1="817.969" x2="368.719" y2="815.959" gradientUnits="userSpaceOnUse">
<stop offset="0.01" stop-color="#FFE00B"/>
<stop offset="0.31" stop-color="#FFDD0D"/>
<stop offset="0.52" stop-color="#FFD412"/>
<stop offset="0.71" stop-color="#FFC41B"/>
<stop offset="0.89" stop-color="#FFAD27"/>
<stop offset="1" stop-color="#FF9B31"/>
</linearGradient>
<linearGradient id="paint7_linear" x1="121.167" y1="117.301" x2="121.167" y2="82.2329" gradientUnits="userSpaceOnUse">
<stop offset="0.01" stop-color="#FF8E0B"/>
<stop offset="0.35" stop-color="#FD8B0D"/>
<stop offset="0.59" stop-color="#F98215"/>
<stop offset="0.81" stop-color="#F17221"/>
<stop offset="1" stop-color="#E65D31"/>
</linearGradient>
<linearGradient id="paint8_linear" x1="2058" y1="2808.06" x2="2452.67" y2="2808.06" gradientUnits="userSpaceOnUse">
<stop offset="0.01" stop-color="#FFE00B"/>
<stop offset="0.31" stop-color="#FFDD0D"/>
<stop offset="0.52" stop-color="#FFD412"/>
<stop offset="0.71" stop-color="#FFC41B"/>
<stop offset="0.89" stop-color="#FFAD27"/>
<stop offset="1" stop-color="#FF9B31"/>
</linearGradient>
<linearGradient id="paint9_linear" x1="1021.95" y1="946.087" x2="1021.95" y2="776.134" gradientUnits="userSpaceOnUse">
<stop offset="0.01" stop-color="#FFA90B"/>
<stop offset="0.37" stop-color="#FFA60E"/>
<stop offset="0.64" stop-color="#FF9D16"/>
<stop offset="0.87" stop-color="#FF8D25"/>
<stop offset="1" stop-color="#FF8031"/>
</linearGradient>
<linearGradient id="paint10_linear" x1="828.76" y1="821.515" x2="828.76" y2="693.472" gradientUnits="userSpaceOnUse">
<stop offset="0.01" stop-color="#FFE00B"/>
<stop offset="0.31" stop-color="#FFDD0D"/>
<stop offset="0.52" stop-color="#FFD412"/>
<stop offset="0.71" stop-color="#FFC41B"/>
<stop offset="0.89" stop-color="#FFAD27"/>
<stop offset="1" stop-color="#FF9B31"/>
</linearGradient>
<linearGradient id="paint11_linear" x1="1547.46" y1="1024.59" x2="1547.46" y2="967.401" gradientUnits="userSpaceOnUse">
<stop offset="0.01" stop-color="#FFA90B"/>
<stop offset="0.37" stop-color="#FFA60E"/>
<stop offset="0.64" stop-color="#FF9D16"/>
<stop offset="0.87" stop-color="#FF8D25"/>
<stop offset="1" stop-color="#FF8031"/>
</linearGradient>
<linearGradient id="paint12_linear" x1="1421.83" y1="823.789" x2="1421.83" y2="789.154" gradientUnits="userSpaceOnUse">
<stop offset="0.01" stop-color="#FFE00B"/>
<stop offset="0.31" stop-color="#FFDD0D"/>
<stop offset="0.52" stop-color="#FFD412"/>
<stop offset="0.71" stop-color="#FFC41B"/>
<stop offset="0.89" stop-color="#FFAD27"/>
<stop offset="1" stop-color="#FF9B31"/>
</linearGradient>
<linearGradient id="paint13_linear" x1="2227.92" y1="2397.99" x2="2434.96" y2="1364.76" gradientUnits="userSpaceOnUse">
<stop offset="0.01" stop-color="#FFA90B"/>
<stop offset="0.37" stop-color="#FFA60E"/>
<stop offset="0.64" stop-color="#FF9D16"/>
<stop offset="0.87" stop-color="#FF8D25"/>
<stop offset="1" stop-color="#FF8031"/>
</linearGradient>
<linearGradient id="paint14_linear" x1="2071.04" y1="2249.69" x2="2261.36" y2="1324.13" gradientUnits="userSpaceOnUse">
<stop offset="0.01" stop-color="#FFE00B"/>
<stop offset="0.31" stop-color="#FFDD0D"/>
<stop offset="0.52" stop-color="#FFD412"/>
<stop offset="0.71" stop-color="#FFC41B"/>
<stop offset="0.89" stop-color="#FFAD27"/>
<stop offset="1" stop-color="#FF9B31"/>
</linearGradient>
<linearGradient id="paint15_linear" x1="1714.03" y1="6180.77" x2="7441.14" y2="6180.77" gradientUnits="userSpaceOnUse">
<stop offset="0.01" stop-color="#FFE00B"/>
<stop offset="0.31" stop-color="#FFDD0D"/>
<stop offset="0.52" stop-color="#FFD412"/>
<stop offset="0.71" stop-color="#FFC41B"/>
<stop offset="0.89" stop-color="#FFAD27"/>
<stop offset="1" stop-color="#FF9B31"/>
</linearGradient>
<linearGradient id="paint16_linear" x1="1605.09" y1="4108.28" x2="6614.31" y2="4108.28" gradientUnits="userSpaceOnUse">
<stop offset="0.01" stop-color="#FFE00B"/>
<stop offset="0.31" stop-color="#FFDD0D"/>
<stop offset="0.52" stop-color="#FFD412"/>
<stop offset="0.71" stop-color="#FFC41B"/>
<stop offset="0.89" stop-color="#FFAD27"/>
<stop offset="1" stop-color="#FF9B31"/>
</linearGradient>
<linearGradient id="paint17_linear" x1="1246.19" y1="1120.46" x2="1415.48" y2="1120.46" gradientUnits="userSpaceOnUse">
<stop offset="0.01" stop-color="#FFE00B"/>
<stop offset="0.31" stop-color="#FFDD0D"/>
<stop offset="0.52" stop-color="#FFD412"/>
<stop offset="0.71" stop-color="#FFC41B"/>
<stop offset="0.89" stop-color="#FFAD27"/>
<stop offset="1" stop-color="#FF9B31"/>
</linearGradient>
<linearGradient id="paint18_linear" x1="776.256" y1="385.045" x2="817.162" y2="385.045" gradientUnits="userSpaceOnUse">
<stop offset="0.01" stop-color="#FFE00B"/>
<stop offset="0.31" stop-color="#FFDD0D"/>
<stop offset="0.52" stop-color="#FFD412"/>
<stop offset="0.71" stop-color="#FFC41B"/>
<stop offset="0.89" stop-color="#FFAD27"/>
<stop offset="1" stop-color="#FF9B31"/>
</linearGradient>
<radialGradient id="paint19_radial" cx="0" cy="0" r="1" gradientUnits="userSpaceOnUse" gradientTransform="translate(66.4674 53.3807) rotate(-22.716) scale(29.3287 18.7953)">
<stop stop-color="#FFBB00"/>
<stop offset="0.17" stop-color="#C59000"/>
<stop offset="0.4" stop-color="#805E00"/>
<stop offset="0.6" stop-color="#493500"/>
<stop offset="1" stop-color="#211800" stop-opacity="0"/>
</radialGradient>
</defs>
</svg>
