<svg width="182" height="181" viewBox="0 0 182 181" fill="none" xmlns="http://www.w3.org/2000/svg">
<path style="mix-blend-mode:screen" d="M97.6532 145.171C127.46 145.171 151.624 121.047 151.624 91.2877C151.624 61.5287 127.46 37.4043 97.6532 37.4043C67.8461 37.4043 43.6826 61.5287 43.6826 91.2877C43.6826 121.047 67.8461 145.171 97.6532 145.171Z" fill="url(#paint0_radial)"/>
<g filter="url(#filter0_d)">
<path fill-rule="evenodd" clip-rule="evenodd" d="M139 93.0097C139.005 99.0515 137.831 105.035 135.544 110.618C133.257 116.2 129.904 121.273 125.674 125.545C121.445 129.816 116.423 133.204 110.897 135.512C105.37 137.821 99.4469 139.006 93.4664 139C92.6591 139 91.8422 139 91.0446 138.932C89.8529 138.874 88.6708 138.757 87.508 138.612C78.936 137.478 70.8652 133.886 64.251 128.262C59.988 124.634 56.407 120.26 53.6797 115.349C53.401 114.845 53.1319 114.379 52.8628 113.816C52.8628 113.816 52.8628 113.815 52.8628 113.767C52.5841 113.214 52.3246 112.66 52.0748 112.097C51.278 110.332 50.5974 108.516 50.0374 106.66C49.612 105.307 49.256 103.933 48.9707 102.544C48.7689 101.573 48.5958 100.602 48.4613 99.5728C48.152 97.4121 47.9979 95.2317 48 93.0485C48 91.7767 48.0481 90.5048 48.1634 89.2621C48.221 88.466 48.3075 87.6796 48.4133 86.8932C48.9892 82.4527 50.2168 78.1236 52.0556 74.0485C55.6622 66.0018 61.4841 59.173 68.8267 54.377C76.1693 49.5809 84.7227 47.0201 93.4664 47H94.8983C95.4076 47 95.917 47 96.4263 47.0777C99.0174 47.243 101.59 47.6328 104.115 48.2427C105.556 48.5922 106.998 49 108.353 49.4854C109.314 49.8058 110.217 50.1651 111.13 50.5534C111.812 50.8447 112.476 51.1456 113.139 51.466L113.485 51.6311C117.879 53.8027 121.9 56.6743 125.392 60.1359C125.892 60.6214 126.353 61.1068 126.853 61.6408C127.17 61.9903 127.487 62.3495 127.814 62.7087C128.342 63.3107 128.852 63.9417 129.351 64.5728C133.311 69.7044 136.145 75.6284 137.664 81.9514C138.553 85.569 139.001 89.2825 139 93.0097Z" fill="white"/>
</g>
<path style="mix-blend-mode:screen" d="M136.066 135.863C160.983 110.986 160.983 70.6524 136.066 45.7752C111.148 20.898 70.7493 20.898 45.8319 45.7752C20.9144 70.6524 20.9144 110.986 45.8318 135.863C70.7493 160.741 111.148 160.741 136.066 135.863Z" fill="url(#paint1_radial)"/>
<path fill-rule="evenodd" clip-rule="evenodd" d="M122.83 53.3408C122.83 53.3408 129.199 55.0935 133.434 54.8387C133.434 54.8387 141.018 59.9846 145.263 73.6286C145.263 73.6286 141.62 77.9491 142.395 82.9624C142.395 82.9624 135.894 65.3342 122.83 53.3408Z" fill="url(#paint2_linear)"/>
<path fill-rule="evenodd" clip-rule="evenodd" d="M129.811 155.142C128.345 154.709 126.816 154.527 125.289 154.601C124.499 153.953 123.856 153.144 123.402 152.229C122.948 151.314 122.694 150.313 122.656 149.293C123.736 147.968 124.645 146.513 125.361 144.962C126.045 148.65 127.567 152.133 129.811 155.142Z" fill="url(#paint3_linear)"/>
<path fill-rule="evenodd" clip-rule="evenodd" d="M143.416 92.845C143.421 99.1862 142.174 105.466 139.746 111.325C137.317 117.185 133.756 122.508 129.264 126.992C124.772 131.475 119.439 135.03 113.57 137.454C107.701 139.877 101.41 141.121 95.0589 141.114C94.2016 141.114 93.334 141.114 92.4869 141.043C91.2214 140.981 89.966 140.859 88.731 140.706C79.6275 139.516 71.0562 135.747 64.0319 129.844C59.5045 126.037 55.7014 121.446 52.805 116.292C52.5091 115.762 52.2233 115.273 51.9375 114.682C51.9375 114.682 51.9375 114.682 51.9375 114.631C51.6415 114.05 51.366 113.469 51.1006 112.878C50.2544 111.026 49.5316 109.119 48.9369 107.172C48.4851 105.752 48.107 104.31 47.804 102.851C47.5897 101.832 47.4059 100.813 47.2631 99.7333C46.9121 97.4536 46.7279 95.1514 46.7119 92.845C46.7119 91.5102 46.7629 90.1753 46.8854 88.871C46.9467 88.0355 47.0385 87.2101 47.1508 86.3847C47.7569 81.7287 49.0537 77.1887 50.9985 72.9139C54.8406 64.4685 61.0362 57.3056 68.8455 52.2807C76.6549 47.2558 85.7478 44.5811 95.0385 44.5762H96.5592C97.1002 44.5762 97.6411 44.5762 98.182 44.6577C100.934 44.8312 103.665 45.2403 106.347 45.8805C107.878 46.2473 109.409 46.6753 110.848 47.1847C111.869 47.521 112.828 47.898 113.798 48.3056C114.522 48.6113 115.226 48.9272 115.931 49.2634L116.298 49.4367C120.965 51.7159 125.235 54.7298 128.944 58.3629C129.474 58.8724 129.964 59.3819 130.495 59.9423C130.832 60.3091 131.169 60.6862 131.516 61.0632C132.077 61.695 132.618 62.3573 133.149 63.0196C137.372 68.3812 140.405 74.5776 142.048 81.1982C142.978 85.0103 143.437 88.9216 143.416 92.845Z" fill="url(#paint4_radial)"/>
<path style="mix-blend-mode:multiply" opacity="0.5" fill-rule="evenodd" clip-rule="evenodd" d="M48.5479 85.7122C48.5479 85.7122 57.1823 90.1957 64.8778 84.0921C72.5734 77.9884 66.4292 55.2041 66.4292 55.2041L48.5479 85.7122Z" fill="url(#paint5_linear)"/>
<path style="mix-blend-mode:multiply" opacity="0.89" fill-rule="evenodd" clip-rule="evenodd" d="M104.611 120.424C104.611 120.424 108.52 125.112 118.063 125.621C127.606 126.131 137.149 115.197 139.343 105.293C141.538 95.3881 134.444 85.3614 127.484 83.8023C120.523 82.2433 104.611 120.424 104.611 120.424Z" fill="url(#paint6_linear)"/>
<path fill-rule="evenodd" clip-rule="evenodd" d="M55.5742 120.702C55.5742 120.702 58.6361 125.684 57.8604 133.795C57.8604 133.795 64.5761 145.514 83.5291 146.482C83.5291 146.482 93.0618 139.461 102.196 140.602C96.695 133.677 89.5508 128.23 81.4102 124.756C73.2697 121.281 64.3899 119.887 55.5742 120.702Z" fill="url(#paint7_linear)"/>
<path fill-rule="evenodd" clip-rule="evenodd" d="M48.5475 85.7122C48.5475 85.7122 45.3734 76.9592 42.5258 73.8717C42.5258 73.8717 40.3315 59.9627 54.5181 55.2041C54.5181 55.2041 62.1524 56.6612 66.4492 55.2041C66.4492 55.2041 68.0822 64.5991 61.6013 74.636C58.5241 79.606 53.9566 83.4816 48.5475 85.7122Z" fill="url(#paint8_linear)"/>
<path fill-rule="evenodd" clip-rule="evenodd" d="M135.434 92.5367C135.434 92.5367 132.055 80.6758 120.573 79.9625C108.397 79.2085 97.6194 103.46 101.375 115.046C105.131 126.632 118.726 124.96 124.85 120.752C132.423 115.637 136.117 104.336 135.434 92.5367Z" fill="url(#paint9_linear)"/>
<path style="mix-blend-mode:multiply" opacity="0.5" fill-rule="evenodd" clip-rule="evenodd" d="M83.8047 57.6977C83.8047 57.6977 87.8872 64.6573 95.8991 63.8931C104.615 63.0575 106.952 55.7413 106.626 52.7761C106.299 49.8108 83.8047 57.6977 83.8047 57.6977Z" fill="url(#paint10_linear)"/>
<path fill-rule="evenodd" clip-rule="evenodd" d="M122.442 84.1114C111.919 84.0503 96.3238 112.011 109.898 121.416C122.789 130.342 134.71 110.961 136.108 104.338C137.506 97.7148 136.618 84.1929 122.442 84.1114Z" fill="url(#paint11_linear)"/>
<path fill-rule="evenodd" clip-rule="evenodd" d="M117.554 121.13C117.054 121.13 116.533 121.018 116.104 120.947C109.572 119.826 107.123 115.292 106.572 110.757C106.281 108.105 106.517 105.421 107.266 102.86C108.501 98.7842 115.125 89.0938 122.708 87.7385C124.171 87.4765 125.675 87.5505 127.106 87.9548C128.536 88.3591 129.856 89.0831 130.965 90.072C132.044 90.9614 132.932 92.0602 133.574 93.302C134.216 94.5438 134.599 95.9027 134.7 97.2965C135.711 107.67 124.667 121.762 117.554 121.13Z" fill="url(#paint12_linear)"/>
<path fill-rule="evenodd" clip-rule="evenodd" d="M85.6984 44.9508C85.6984 44.9508 80.8709 51.1461 83.2592 56.7199C85.7801 62.63 99.9566 62.3753 104.539 57.8612C109.122 53.3471 105.468 44.7368 101.477 43.2287C98.8815 42.344 96.1226 42.0396 93.396 42.3372C90.6693 42.6348 88.0415 43.527 85.6984 44.9508Z" fill="url(#paint13_radial)"/>
<path fill-rule="evenodd" clip-rule="evenodd" d="M84.7508 53.0207C87.2208 57.9831 104.143 58.6964 105.337 50.0759C106.5 41.9241 94.5182 40.9051 91.0481 41.7916C87.578 42.6781 81.4236 46.326 84.7508 53.0207Z" fill="url(#paint14_linear)"/>
<path fill-rule="evenodd" clip-rule="evenodd" d="M102.928 48.008C102.959 48.272 102.959 48.5387 102.928 48.8028C102.917 49.0741 102.88 49.3437 102.816 49.6078C101.438 55.1408 90.3032 56.9444 87.7619 53.8671C87.1363 53.1403 86.6797 52.2842 86.4248 51.3604C85.5573 47.9672 88.5886 45.2465 90.5992 44.2275C93.0793 42.8417 102.377 41.5069 102.928 48.008Z" fill="url(#paint15_linear)"/>
<path fill-rule="evenodd" clip-rule="evenodd" d="M42.5272 73.8893C42.7619 77.0379 58.6632 62.0794 54.5195 55.2217C54.5195 55.2217 41.2412 56.4444 42.5272 73.8893Z" fill="url(#paint16_linear)"/>
<path fill-rule="evenodd" clip-rule="evenodd" d="M57.8557 133.796C56.835 128.161 85.586 132.054 83.5244 146.483C83.0753 149.631 59.4989 143.161 57.8557 133.796Z" fill="url(#paint17_linear)"/>
<path fill-rule="evenodd" clip-rule="evenodd" d="M80.9446 146.063C80.4649 146.451 64.7065 144.127 59.2869 134.569C58.9297 133.927 60.6137 133.724 63.1959 134.029C64.2915 134.16 65.3785 134.354 66.4517 134.61C70.1872 135.476 74.6167 137.168 77.5663 139.858C78.3531 140.55 79.0803 141.306 79.7403 142.12C80.3338 142.826 80.7937 143.634 81.0977 144.504C81.3528 145.37 81.1691 145.89 80.9446 146.063Z" fill="url(#paint18_linear)"/>
<path fill-rule="evenodd" clip-rule="evenodd" d="M79.7378 142.122C74.6233 141.103 69.972 138.471 66.4697 134.612C70.2052 135.478 74.6347 137.17 77.5843 139.86C78.364 140.553 79.0844 141.31 79.7378 142.122Z" fill="url(#paint19_linear)"/>
<path fill-rule="evenodd" clip-rule="evenodd" d="M52.783 59.5533C52.3972 60.7441 51.9335 61.9082 51.3949 63.0382C50.132 65.6676 48.3187 67.9957 46.0775 69.8654C45.1895 70.5685 44.4649 70.8844 44.1791 70.6398C43.5769 70.1201 43.679 66.2786 45.5161 62.702C47.3532 59.1254 52.3543 56.5881 52.8748 57.1282C53.1912 57.4746 53.2422 58.1166 52.783 59.5533Z" fill="url(#paint20_linear)"/>
<path fill-rule="evenodd" clip-rule="evenodd" d="M52.7856 59.5537C52.3998 60.7444 51.9361 61.9086 51.3975 63.0386C50.1347 65.6679 48.3214 67.9961 46.0801 69.8658C47.5514 65.9895 49.8379 62.4731 52.7856 59.5537Z" fill="url(#paint21_linear)"/>
<path fill-rule="evenodd" clip-rule="evenodd" d="M57.8585 113.919C57.2714 113.513 56.7831 112.98 56.4296 112.36C54.8272 109.782 53.8984 105.299 55.5927 104.382C57.6849 103.24 60.7774 103.831 62.1757 107.54C62.2305 107.666 62.2749 107.795 62.3084 107.928C62.3128 107.948 62.3128 107.969 62.3084 107.989C62.3248 108.077 62.3522 108.162 62.39 108.243C62.39 108.376 62.4717 108.508 62.5023 108.651C63.38 112.207 60.1855 115.336 57.8585 113.919Z" fill="url(#paint22_linear)"/>
<path style="mix-blend-mode:multiply" opacity="0.4" fill-rule="evenodd" clip-rule="evenodd" d="M62.1553 107.503C61.3694 105.924 58.3075 104.09 56.4296 105.802C54.5516 107.513 56.2459 111.915 56.4296 112.323C54.8272 109.745 53.8984 105.262 55.5927 104.344C57.6645 103.203 60.757 103.794 62.1553 107.503Z" fill="url(#paint23_radial)"/>
<path fill-rule="evenodd" clip-rule="evenodd" d="M72.5041 66.9273C72.2515 66.7204 72.0492 66.4591 71.9122 66.163C71.2794 64.9199 71.0242 62.8208 71.8407 62.4642C72.8613 62.026 74.2392 62.4132 74.7393 64.176C74.7448 64.237 74.7448 64.2984 74.7393 64.3594V64.4817C74.7393 64.5429 74.7393 64.6142 74.7393 64.6753C75.1067 66.3464 73.5247 67.6711 72.5041 66.9273Z" fill="url(#paint24_linear)"/>
<path style="mix-blend-mode:multiply" opacity="0.4" fill-rule="evenodd" clip-rule="evenodd" d="M74.7266 64.157C74.4204 63.403 73.0936 62.4349 72.1648 63.138C71.236 63.8411 71.8382 65.9402 71.8995 66.1338C71.2667 64.8907 71.0115 62.7916 71.828 62.4349C72.8282 62.007 74.2265 62.3942 74.7266 64.157Z" fill="url(#paint25_radial)"/>
<path style="mix-blend-mode:screen" opacity="0.5" fill-rule="evenodd" clip-rule="evenodd" d="M68.8604 107.743C68.8604 107.743 71.7691 112.369 79.7402 111.89C87.7113 111.412 89.1606 107.509 89.6505 104.34C89.8448 101.953 89.5567 99.5517 88.8034 97.2783C88.8034 97.2783 71.1772 100.6 68.8604 107.743Z" fill="url(#paint26_radial)"/>
<path style="mix-blend-mode:multiply" opacity="0.4" fill-rule="evenodd" clip-rule="evenodd" d="M111.632 130.075C111.037 129.617 110.33 129.325 109.584 129.228C108.838 129.132 108.08 129.234 107.387 129.525C106.458 129.755 105.62 130.258 104.98 130.968C104.339 131.678 103.927 132.563 103.794 133.509C103.448 133.18 103.219 132.747 103.141 132.277C103.064 131.806 103.143 131.323 103.365 130.9C103.686 130.408 104.12 129.999 104.631 129.708C106.733 128.353 110.418 127.497 111.204 128.873C111.43 129.239 111.576 129.649 111.632 130.075Z" fill="url(#paint27_radial)"/>
<path fill-rule="evenodd" clip-rule="evenodd" d="M89.19 101.762V101.935C89.19 114.265 70.7064 112.757 67.7568 106.195C67.3297 105.235 66.9882 104.239 66.7362 103.219C65.1032 96.6162 66.1238 87.7715 69.0734 85.7437C72.0231 83.7159 78.1366 83.5631 82.4742 85.7437C87.4345 88.1892 89.3635 95.5361 89.19 101.762Z" fill="url(#paint28_linear)"/>
<path style="mix-blend-mode:multiply" opacity="0.4" fill-rule="evenodd" clip-rule="evenodd" d="M89.1894 101.759V101.933C89.1894 101.933 89.4649 94.2191 85.7294 90.1024C81.994 85.9858 74.5026 84.8241 70.2364 89.4605C65.9702 94.0968 66.7764 102.789 66.8173 103.206C65.1843 96.6035 66.2049 87.7588 69.1545 85.731C72.1041 83.7032 78.2176 83.5504 82.5553 85.731C87.4339 88.1867 89.3629 95.5336 89.1894 101.759Z" fill="url(#paint29_linear)"/>
<path fill-rule="evenodd" clip-rule="evenodd" d="M123.88 62.9452C122.86 63.5056 120.339 61.9262 118.063 60.0207C115.297 57.6465 112.868 54.6813 113.817 54.2533C115.113 53.6725 119.879 54.0597 122.074 55.8633C123.089 56.7371 123.901 57.8222 124.452 59.0425C125.136 60.6219 125.197 62.2726 123.88 62.9452Z" fill="url(#paint30_linear)"/>
<path style="mix-blend-mode:multiply" opacity="0.4" fill-rule="evenodd" clip-rule="evenodd" d="M124.484 59.0427C121.034 53.846 115.717 54.0701 115.298 55.4865C114.88 56.9029 118.095 60.0617 118.095 60.0617C115.329 57.6875 112.9 54.7223 113.849 54.2943C115.145 53.7135 119.912 54.1007 122.106 55.9043C123.117 56.7663 123.928 57.8371 124.484 59.0427Z" fill="url(#paint31_linear)"/>
<path fill-rule="evenodd" clip-rule="evenodd" d="M45.9551 72.5839C45.9551 72.5839 53.8241 68.6404 54.6508 60.8555C54.6508 60.8555 50.6806 68.8646 45.9551 72.5839Z" fill="#E5BDFA"/>
<path fill-rule="evenodd" clip-rule="evenodd" d="M104.611 111.184C104.611 111.184 105.387 95.5734 116.695 86.3721C116.695 86.3721 103.131 92.8426 104.611 111.184Z" fill="#E5BDFA"/>
<path fill-rule="evenodd" clip-rule="evenodd" d="M85.207 53.7066C85.207 53.7066 87.3299 56.9266 94.5764 56.6718C101.823 56.4171 104.211 53.1258 104.609 52.2393C104.609 52.2393 102.813 57.7825 94.6172 57.5889C85.9725 57.3851 85.207 53.7066 85.207 53.7066Z" fill="#FFA5F7"/>
<path fill-rule="evenodd" clip-rule="evenodd" d="M70.2256 132.369C70.2256 132.369 81.2177 136.791 83.4937 143.17C83.4427 143.17 83.1977 135.854 70.2256 132.369Z" fill="#FFA5F7"/>
<path style="mix-blend-mode:multiply" opacity="0.71" fill-rule="evenodd" clip-rule="evenodd" d="M134.69 97.2583C134.69 97.2583 130.955 90.8184 120.596 93.6409C111.308 96.168 107.327 108.1 106.562 110.699C106.271 108.046 106.507 105.363 107.256 102.802C108.491 98.7256 115.115 89.0352 122.698 87.6799C124.161 87.4179 125.665 87.4919 127.096 87.8962C128.526 88.3005 129.846 89.0245 130.955 90.0134C132.037 90.9051 132.926 92.0072 133.568 93.2527C134.21 94.4981 134.592 95.8609 134.69 97.2583Z" fill="url(#paint32_linear)"/>
<path fill-rule="evenodd" clip-rule="evenodd" d="M147.278 148.939C147.087 150.002 146.743 151.032 146.257 151.996C145.343 153.87 143.931 155.456 142.175 156.582C140.93 157.38 139.544 157.933 138.092 158.212C136.716 158.467 135.304 158.467 133.928 158.212L133.326 158.09C133.03 158.019 132.744 157.937 132.458 157.845C130.372 157.183 128.52 155.938 127.12 154.259C126.228 153.17 125.536 151.931 125.079 150.6C125.079 150.458 124.987 150.325 124.946 150.183C124.896 150.036 124.855 149.886 124.824 149.734C124.7 149.266 124.612 148.789 124.559 148.308C124.509 147.97 124.479 147.63 124.467 147.289C124.467 147.034 124.467 146.779 124.467 146.524C124.49 145.981 124.548 145.44 124.64 144.904C124.696 144.592 124.768 144.282 124.855 143.977C124.906 143.783 124.957 143.59 125.018 143.406C125.358 142.336 125.857 141.323 126.498 140.4C126.806 139.958 127.148 139.539 127.518 139.147C128.131 138.488 128.815 137.9 129.56 137.394C132.046 135.719 135.091 135.083 138.041 135.621L138.398 135.693L138.776 135.774C139.411 135.936 140.032 136.147 140.634 136.406C140.97 136.559 141.307 136.722 141.654 136.905C142.001 137.089 142.083 137.15 142.297 137.293L142.756 137.608L142.838 137.659C143.832 138.394 144.704 139.281 145.42 140.288L145.716 140.727C145.788 140.828 145.849 140.93 145.91 141.032C145.971 141.134 146.114 141.379 146.206 141.562C146.554 142.212 146.838 142.895 147.053 143.6C147.313 144.437 147.471 145.303 147.523 146.178C147.556 147.105 147.474 148.033 147.278 148.939Z" fill="url(#paint33_radial)"/>
<path fill-rule="evenodd" clip-rule="evenodd" d="M139.047 134.5C137.674 134.516 136.338 134.947 135.216 135.736C134.093 136.526 133.237 137.637 132.76 138.922C130.954 143.752 138.047 151.15 142.578 151.079C147.11 151.007 148.243 145.332 147.559 142.295C146.732 138.606 143.252 135.692 139.047 134.5Z" fill="url(#paint34_linear)"/>
<path fill-rule="evenodd" clip-rule="evenodd" d="M134.456 138.695C133.089 142.934 140.876 152.747 145.887 148.436C150.644 144.361 145.398 137.095 143.254 135.699C141.111 134.303 136.283 132.968 134.456 138.695Z" fill="url(#paint35_linear)"/>
<path fill-rule="evenodd" clip-rule="evenodd" d="M146.763 145.301C146.681 145.505 146.59 145.688 146.508 145.872C145.283 148.368 143.395 148.786 141.721 148.439C140.749 148.218 139.839 147.783 139.057 147.166C137.771 146.147 135.24 142.264 135.74 139.014C135.82 138.404 136.027 137.816 136.347 137.29C136.666 136.764 137.093 136.31 137.598 135.957C138.021 135.638 138.51 135.419 139.03 135.315C139.549 135.211 140.085 135.225 140.598 135.356C144.365 136.273 147.886 142.509 146.763 145.301Z" fill="url(#paint36_linear)"/>
<path fill-rule="evenodd" clip-rule="evenodd" d="M146.508 145.827C144.467 149.903 140.711 148.435 139.057 147.121C137.771 146.102 135.24 142.22 135.74 138.969C136.074 138.316 136.56 137.753 137.159 137.328C141.374 134.322 146.937 141.924 146.508 145.827Z" fill="url(#paint37_linear)"/>
<path style="mix-blend-mode:multiply" opacity="0.71" fill-rule="evenodd" clip-rule="evenodd" d="M140.596 135.382C140.596 135.382 137.871 136.085 137.534 140.62C137.238 144.696 140.892 147.814 141.708 148.435C140.737 148.214 139.826 147.779 139.045 147.162C137.759 146.143 135.228 142.26 135.728 139.01C135.808 138.399 136.014 137.812 136.334 137.286C136.654 136.76 137.08 136.306 137.585 135.953C138.012 135.638 138.504 135.423 139.025 135.325C139.547 135.226 140.083 135.245 140.596 135.382Z" fill="url(#paint38_linear)"/>
<path style="mix-blend-mode:multiply" opacity="0.71" fill-rule="evenodd" clip-rule="evenodd" d="M102.928 48.0077C102.959 48.2718 102.959 48.5385 102.928 48.8025C100.989 45.9596 97.417 45.3278 92.916 46.2958C91.5362 46.6421 90.245 47.2748 89.1266 48.1526C88.0081 49.0305 87.0875 50.1338 86.4248 51.3907C85.5573 47.9975 88.5886 45.2769 90.5992 44.2579C93.0793 42.8415 102.377 41.5067 102.928 48.0077Z" fill="url(#paint39_linear)"/>
<defs>
<filter id="filter0_d" x="8" y="7" width="171" height="172" filterUnits="userSpaceOnUse" color-interpolation-filters="sRGB">
<feFlood flood-opacity="0" result="BackgroundImageFix"/>
<feColorMatrix in="SourceAlpha" type="matrix" values="0 0 0 0 0 0 0 0 0 0 0 0 0 0 0 0 0 0 127 0"/>
<feOffset/>
<feGaussianBlur stdDeviation="20"/>
<feColorMatrix type="matrix" values="0 0 0 0 0.755078 0 0 0 0 0.445833 0 0 0 0 1 0 0 0 1 0"/>
<feBlend mode="normal" in2="BackgroundImageFix" result="effect1_dropShadow"/>
<feBlend mode="normal" in="SourceGraphic" in2="effect1_dropShadow" result="shape"/>
</filter>
<radialGradient id="paint0_radial" cx="0" cy="0" r="1" gradientUnits="userSpaceOnUse" gradientTransform="translate(11659.2 32290.9) scale(5707.93 5698.71)">
<stop stop-color="#9813FF"/>
<stop offset="1" stop-opacity="0"/>
</radialGradient>
<radialGradient id="paint1_radial" cx="0" cy="0" r="1" gradientUnits="userSpaceOnUse" gradientTransform="translate(13157 37585.8) scale(6439.21 6428.81)">
<stop offset="0.135417" stop-color="#8E12EF"/>
<stop offset="1" stop-opacity="0"/>
</radialGradient>
<linearGradient id="paint2_linear" x1="131.23" y1="81.1996" x2="135.35" y2="55.1423" gradientUnits="userSpaceOnUse">
<stop stop-color="#8931B3"/>
<stop offset="1" stop-color="#8E8CFF"/>
</linearGradient>
<linearGradient id="paint3_linear" x1="128.291" y1="148.239" x2="125.35" y2="156.855" gradientUnits="userSpaceOnUse">
<stop stop-color="#8E8CFF"/>
<stop offset="1" stop-color="#8931B3"/>
</linearGradient>
<radialGradient id="paint4_radial" cx="0" cy="0" r="1" gradientUnits="userSpaceOnUse" gradientTransform="translate(78.6575 76.0727) scale(72.9134 72.7956)">
<stop offset="0.01" stop-color="#FFB8E2"/>
<stop offset="0.22" stop-color="#FDB7E3"/>
<stop offset="0.33" stop-color="#F5B5E5"/>
<stop offset="0.42" stop-color="#E8B0E9"/>
<stop offset="0.49" stop-color="#D5AAEF"/>
<stop offset="0.55" stop-color="#BDA2F7"/>
<stop offset="0.58" stop-color="#AE9DFC"/>
<stop offset="0.64" stop-color="#A996FC"/>
<stop offset="0.72" stop-color="#9A83FD"/>
<stop offset="0.81" stop-color="#8163FE"/>
<stop offset="0.91" stop-color="#5F38FF"/>
<stop offset="0.92" stop-color="#5E37FF"/>
<stop offset="0.99" stop-color="#5E9AFF"/>
</radialGradient>
<linearGradient id="paint5_linear" x1="48.5479" y1="71.2733" x2="68.7868" y2="71.2733" gradientUnits="userSpaceOnUse">
<stop stop-color="white"/>
<stop offset="0.17" stop-color="#DBD0EA"/>
<stop offset="0.36" stop-color="#B9A3D7"/>
<stop offset="0.55" stop-color="#9F80C7"/>
<stop offset="0.72" stop-color="#8C67BC"/>
<stop offset="0.87" stop-color="#8057B5"/>
<stop offset="1" stop-color="#7C52B3"/>
</linearGradient>
<linearGradient id="paint6_linear" x1="104.611" y1="104.702" x2="139.751" y2="104.702" gradientUnits="userSpaceOnUse">
<stop stop-color="#7C52B3"/>
<stop offset="0.13" stop-color="#8057B5"/>
<stop offset="0.28" stop-color="#8C67BC"/>
<stop offset="0.45" stop-color="#9F80C7"/>
<stop offset="0.64" stop-color="#B9A3D7"/>
<stop offset="0.83" stop-color="#DBD0EA"/>
<stop offset="1" stop-color="white"/>
</linearGradient>
<linearGradient id="paint7_linear" x1="76.5072" y1="145.626" x2="80.0987" y2="122.931" gradientUnits="userSpaceOnUse">
<stop stop-color="#6D109D"/>
<stop offset="1" stop-color="#8E8CFF"/>
</linearGradient>
<linearGradient id="paint8_linear" x1="62.1524" y1="74.5137" x2="46.2223" y2="60.6403" gradientUnits="userSpaceOnUse">
<stop stop-color="#C98EFF"/>
<stop offset="1" stop-color="#8931B3"/>
</linearGradient>
<linearGradient id="paint9_linear" x1="131.815" y1="113.283" x2="104.55" y2="92.4021" gradientUnits="userSpaceOnUse">
<stop stop-color="#5400B3"/>
<stop offset="1" stop-color="#F2C0FF"/>
</linearGradient>
<linearGradient id="paint10_linear" x1="2120.69" y1="3093.7" x2="2632.31" y2="3093.7" gradientUnits="userSpaceOnUse">
<stop stop-color="white"/>
<stop offset="0.17" stop-color="#DBD0EA"/>
<stop offset="0.36" stop-color="#B9A3D7"/>
<stop offset="0.55" stop-color="#9F80C7"/>
<stop offset="0.72" stop-color="#8C67BC"/>
<stop offset="0.87" stop-color="#8057B5"/>
<stop offset="1" stop-color="#7C52B3"/>
</linearGradient>
<linearGradient id="paint11_linear" x1="118.152" y1="123.995" x2="123.336" y2="84.0696" gradientUnits="userSpaceOnUse">
<stop stop-color="#644FF7"/>
<stop offset="1" stop-color="#9F6DFF"/>
</linearGradient>
<linearGradient id="paint12_linear" x1="108.838" y1="118.532" x2="130.076" y2="92.4533" gradientUnits="userSpaceOnUse">
<stop stop-color="#935CE1"/>
<stop offset="0.22" stop-color="#8F5AE0"/>
<stop offset="0.43" stop-color="#8454DC"/>
<stop offset="0.63" stop-color="#714AD5"/>
<stop offset="0.82" stop-color="#573CCC"/>
<stop offset="0.99" stop-color="#392CC2"/>
</linearGradient>
<radialGradient id="paint13_radial" cx="0" cy="0" r="1" gradientUnits="userSpaceOnUse" gradientTransform="translate(84.8631 54.1862) rotate(-109.319) scale(18.1104 18.1333)">
<stop stop-color="#DEA5FF"/>
<stop offset="1" stop-color="#8931B3"/>
</radialGradient>
<linearGradient id="paint14_linear" x1="104.591" y1="45.5871" x2="84.5125" y2="52.6259" gradientUnits="userSpaceOnUse">
<stop stop-color="#C287F8"/>
<stop offset="1" stop-color="#CCB3FF"/>
</linearGradient>
<linearGradient id="paint15_linear" x1="94.6205" y1="55.3038" x2="94.6205" y2="43.0659" gradientUnits="userSpaceOnUse">
<stop stop-color="#9F6DFF"/>
<stop offset="0.27" stop-color="#9B69FF"/>
<stop offset="0.52" stop-color="#905EFD"/>
<stop offset="0.76" stop-color="#7E4BFB"/>
<stop offset="1" stop-color="#6431F7"/>
</linearGradient>
<linearGradient id="paint16_linear" x1="48.8244" y1="74.3173" x2="48.8244" y2="55.2217" gradientUnits="userSpaceOnUse">
<stop stop-color="#FC9FF7"/>
<stop offset="1" stop-color="#F66DFF"/>
</linearGradient>
<linearGradient id="paint17_linear" x1="70.7257" y1="147.288" x2="70.7257" y2="131.32" gradientUnits="userSpaceOnUse">
<stop stop-color="#C282F7"/>
<stop offset="1" stop-color="#DC6DFF"/>
</linearGradient>
<linearGradient id="paint18_linear" x1="70.228" y1="146.104" x2="70.228" y2="133.887" gradientUnits="userSpaceOnUse">
<stop stop-color="#4848F7"/>
<stop offset="1" stop-color="#6D20FF"/>
</linearGradient>
<linearGradient id="paint19_linear" x1="1110.01" y1="2683.15" x2="1110.01" y2="2627.81" gradientUnits="userSpaceOnUse">
<stop stop-color="#644FF7"/>
<stop offset="1" stop-color="#9F6DFF"/>
</linearGradient>
<linearGradient id="paint20_linear" x1="48.4861" y1="70.7315" x2="48.4861" y2="57.0569" gradientUnits="userSpaceOnUse">
<stop stop-color="#9F6DFF"/>
<stop offset="1" stop-color="#644FF7"/>
</linearGradient>
<linearGradient id="paint21_linear" x1="48.8664" y1="64.3531" x2="50.2022" y2="65.2008" gradientUnits="userSpaceOnUse">
<stop stop-color="#9084FF"/>
<stop offset="1" stop-color="#C287F8"/>
</linearGradient>
<linearGradient id="paint22_linear" x1="54.174" y1="106.246" x2="62.5048" y2="111.516" gradientUnits="userSpaceOnUse">
<stop stop-color="#9084FF"/>
<stop offset="0.49" stop-color="#D08BFC"/>
<stop offset="1" stop-color="#FFC9F8"/>
</linearGradient>
<radialGradient id="paint23_radial" cx="0" cy="0" r="1" gradientUnits="userSpaceOnUse" gradientTransform="translate(58.4096 108.074) scale(4.01105 4.00457)">
<stop stop-color="#1372B3"/>
<stop offset="1" stop-color="white"/>
</radialGradient>
<linearGradient id="paint24_linear" x1="229.493" y1="1349.35" x2="244.007" y2="1357.47" gradientUnits="userSpaceOnUse">
<stop stop-color="#9084FF"/>
<stop offset="0.49" stop-color="#D08BFC"/>
<stop offset="1" stop-color="#FFC9F8"/>
</linearGradient>
<radialGradient id="paint25_radial" cx="0" cy="0" r="1" gradientUnits="userSpaceOnUse" gradientTransform="translate(253.24 1096.07) rotate(4.81226) scale(6.17766 6.98383)">
<stop stop-color="#1372B3"/>
<stop offset="1" stop-color="white"/>
</radialGradient>
<radialGradient id="paint26_radial" cx="0" cy="0" r="1" gradientUnits="userSpaceOnUse" gradientTransform="translate(1894.81 4608.96) scale(184.513 129.625)">
<stop stop-color="#FFFFE8"/>
<stop offset="0.2" stop-color="#BBBBAA"/>
<stop offset="0.42" stop-color="#79796E"/>
<stop offset="0.61" stop-color="#45453F"/>
<stop offset="1" stop-color="#1F1F1D" stop-opacity="0"/>
</radialGradient>
<radialGradient id="paint27_radial" cx="0" cy="0" r="1" gradientUnits="userSpaceOnUse" gradientTransform="translate(1059.33 1879.62) scale(29.7354 18.62)">
<stop stop-color="#1372B3"/>
<stop offset="1" stop-color="white"/>
</radialGradient>
<linearGradient id="paint28_linear" x1="65.736" y1="90.5736" x2="88.9032" y2="105.25" gradientUnits="userSpaceOnUse">
<stop stop-color="#9084FF"/>
<stop offset="0.12" stop-color="#9785FF"/>
<stop offset="0.29" stop-color="#AA87FE"/>
<stop offset="0.49" stop-color="#CA8AFC"/>
<stop offset="0.53" stop-color="#D08BFC"/>
<stop offset="1" stop-color="#FFC9F8"/>
</linearGradient>
<linearGradient id="paint29_linear" x1="1727.24" y1="5644.14" x2="2252.95" y2="5644.14" gradientUnits="userSpaceOnUse">
<stop stop-color="#1372B3"/>
<stop offset="1" stop-color="white"/>
</linearGradient>
<linearGradient id="paint30_linear" x1="113.827" y1="54.131" x2="125.207" y2="61.3314" gradientUnits="userSpaceOnUse">
<stop stop-color="#845FFF"/>
<stop offset="0.49" stop-color="#A972FC"/>
<stop offset="1" stop-color="#D4B0F8"/>
</linearGradient>
<linearGradient id="paint31_linear" x1="1396.95" y1="1593.63" x2="1512.23" y2="1593.63" gradientUnits="userSpaceOnUse">
<stop stop-color="#1372B3"/>
<stop offset="1" stop-color="white"/>
</linearGradient>
<linearGradient id="paint32_linear" x1="106.45" y1="99.123" x2="134.701" y2="99.123" gradientUnits="userSpaceOnUse">
<stop stop-color="#7C52B3"/>
<stop offset="1" stop-color="white"/>
</linearGradient>
<radialGradient id="paint33_radial" cx="0" cy="0" r="1" gradientUnits="userSpaceOnUse" gradientTransform="translate(1847.89 8387.02) rotate(10.2238) scale(392.744 391.176)">
<stop offset="0.01" stop-color="#FFB8E2"/>
<stop offset="0.22" stop-color="#FDB7E3"/>
<stop offset="0.33" stop-color="#F5B5E5"/>
<stop offset="0.42" stop-color="#E8B0E9"/>
<stop offset="0.49" stop-color="#D5AAEF"/>
<stop offset="0.55" stop-color="#BDA2F7"/>
<stop offset="0.58" stop-color="#AE9DFC"/>
<stop offset="0.64" stop-color="#A996FC"/>
<stop offset="0.72" stop-color="#9A83FD"/>
<stop offset="0.81" stop-color="#8163FE"/>
<stop offset="0.91" stop-color="#5F38FF"/>
<stop offset="0.92" stop-color="#5E37FF"/>
<stop offset="0.99" stop-color="#5E9AFF"/>
</radialGradient>
<linearGradient id="paint34_linear" x1="5971.56" y1="326.498" x2="5806.86" y2="446.822" gradientUnits="userSpaceOnUse">
<stop stop-color="#5400B3"/>
<stop offset="1" stop-color="#F2C0FF"/>
</linearGradient>
<linearGradient id="paint35_linear" x1="5435" y1="437.673" x2="5234.64" y2="340.054" gradientUnits="userSpaceOnUse">
<stop stop-color="#644FF7"/>
<stop offset="1" stop-color="#9F6DFF"/>
</linearGradient>
<linearGradient id="paint36_linear" x1="147.236" y1="143.961" x2="135.357" y2="139.971" gradientUnits="userSpaceOnUse">
<stop offset="0.01" stop-color="#392CC2"/>
<stop offset="1" stop-color="#5F33C5"/>
</linearGradient>
<linearGradient id="paint37_linear" x1="146.941" y1="144.643" x2="135.198" y2="140.698" gradientUnits="userSpaceOnUse">
<stop stop-color="#5E48F7"/>
<stop offset="1" stop-color="#8C50FF"/>
</linearGradient>
<linearGradient id="paint38_linear" x1="4407.31" y1="663.42" x2="4430" y2="595.645" gradientUnits="userSpaceOnUse">
<stop stop-color="#7C52B3"/>
<stop offset="1" stop-color="white"/>
</linearGradient>
<linearGradient id="paint39_linear" x1="1613.56" y1="2086.44" x2="1886.09" y2="2086.44" gradientUnits="userSpaceOnUse">
<stop stop-color="#7C52B3"/>
<stop offset="1" stop-color="white"/>
</linearGradient>
</defs>
</svg>
