<svg width="193" height="192" viewBox="0 0 193 192" fill="none" xmlns="http://www.w3.org/2000/svg">
<g filter="url(#filter0_d)">
<path fill-rule="evenodd" clip-rule="evenodd" d="M142 96.0097C142.005 102.051 140.831 108.035 138.544 113.618C136.257 119.2 132.904 124.273 128.674 128.545C124.445 132.816 119.423 136.204 113.897 138.512C108.37 140.821 102.447 142.006 96.4664 142C95.6591 142 94.8422 142 94.0446 141.932C92.8529 141.874 91.6708 141.757 90.508 141.612C81.936 140.478 73.8652 136.886 67.251 131.262C62.988 127.634 59.407 123.26 56.6797 118.349C56.401 117.845 56.1319 117.379 55.8628 116.816C55.8628 116.816 55.8628 116.815 55.8628 116.767C55.5841 116.214 55.3246 115.66 55.0748 115.097C54.278 113.332 53.5974 111.516 53.0374 109.66C52.612 108.307 52.256 106.933 51.9707 105.544C51.7689 104.573 51.5958 103.602 51.4613 102.573C51.152 100.412 50.9979 98.2317 51 96.0485C51 94.7767 51.0481 93.5048 51.1634 92.2621C51.221 91.466 51.3075 90.6796 51.4133 89.8932C51.9892 85.4527 53.2168 81.1236 55.0556 77.0485C58.6622 69.0018 64.4841 62.173 71.8267 57.377C79.1693 52.5809 87.7227 50.0201 96.4664 50H97.8983C98.4076 50 98.917 50 99.4263 50.0777C102.017 50.243 104.59 50.6328 107.115 51.2427C108.556 51.5922 109.998 52 111.353 52.4854C112.314 52.8058 113.217 53.1651 114.13 53.5534C114.812 53.8447 115.476 54.1456 116.139 54.466L116.485 54.6311C120.879 56.8027 124.9 59.6743 128.392 63.1359C128.892 63.6214 129.353 64.1068 129.853 64.6408C130.17 64.9903 130.487 65.3495 130.814 65.7087C131.342 66.3107 131.852 66.9417 132.351 67.5728C136.311 72.7044 139.145 78.6284 140.664 84.9514C141.553 88.569 142.001 92.2825 142 96.0097Z" fill="white"/>
</g>
<path style="mix-blend-mode:screen" d="M141.942 139.192C166.373 115.371 166.373 76.7501 141.942 52.9294C117.511 29.1088 77.9006 29.1088 53.4696 52.9294C29.0386 76.7501 29.0386 115.371 53.4696 139.192C77.9006 163.012 117.511 163.012 141.942 139.192Z" fill="url(#paint0_radial)"/>
<path d="M144.714 143.099C171.356 117.124 171.356 75.009 144.714 49.0334C118.073 23.0578 74.8793 23.0578 48.2381 49.0334C21.597 75.009 21.5969 117.124 48.2381 143.099C74.8793 169.075 118.073 169.075 144.714 143.099Z" fill="url(#paint1_radial)" style="mix-blend-mode:screen"/>
<path fill-rule="evenodd" clip-rule="evenodd" d="M52.1729 67.8411C52.1729 67.8411 52.8339 62.2848 53.3126 59.2511C56.1745 55.5774 59.5683 52.3283 63.3877 49.6055L71.628 50.0277C71.628 50.0277 54.9538 63.0294 52.1729 67.8411Z" fill="url(#paint2_linear)"/>
<path fill-rule="evenodd" clip-rule="evenodd" d="M63.3421 49.6055C63.232 51.1431 62.8048 52.6433 62.0861 54.0162C61.3674 55.389 60.372 56.6064 59.1594 57.5954C54.988 61.118 53.1758 59.8179 53.1758 59.8179L52.1729 67.0077L71.5482 50.05L63.3421 49.6055Z" fill="url(#paint3_linear)"/>
<path fill-rule="evenodd" clip-rule="evenodd" d="M151.736 96.0892C151.742 103.005 150.349 109.853 147.637 116.243C144.926 122.633 140.948 128.439 135.932 133.328C130.917 138.218 124.961 142.095 118.407 144.737C111.853 147.38 104.828 148.736 97.7358 148.729C96.7785 148.729 95.8097 148.729 94.8637 148.651C93.4504 148.585 92.0486 148.451 90.6695 148.285C80.5037 146.987 70.9321 142.876 63.0882 136.439C58.0324 132.287 53.7856 127.28 50.5512 121.659C50.2207 121.081 49.9016 120.492 49.5825 119.903C49.2519 119.27 48.9442 118.636 48.6479 117.992C47.703 115.972 46.8958 113.893 46.2317 111.769C45.7272 110.221 45.3049 108.648 44.9666 107.057C44.7272 105.946 44.5221 104.835 44.3625 103.657C43.9957 101.184 43.8129 98.688 43.8155 96.1892C43.8155 94.7334 43.8724 93.2777 44.0092 91.8553C44.0776 90.9441 44.1802 90.044 44.3055 89.1438C44.9885 84.0613 46.4444 79.1062 48.6251 74.442C52.9155 65.2318 59.8341 57.4203 68.5547 51.9403C77.2753 46.4603 87.4293 43.5435 97.8042 43.5381H99.5024C100.106 43.5381 100.71 43.5381 101.315 43.627C104.368 43.8194 107.4 44.2655 110.375 44.9605C112.085 45.3605 113.795 45.8273 115.402 46.3829C116.541 46.7496 117.613 47.1608 118.695 47.6053C119.505 47.9386 120.291 48.2831 121.077 48.6498L121.488 48.8388C126.7 51.3244 131.468 54.6112 135.609 58.5733C136.202 59.1289 136.749 59.6846 137.341 60.2958C137.717 60.6958 138.093 61.107 138.481 61.5181C139.108 62.2071 139.712 62.9294 140.305 63.6517C145.02 69.4988 148.408 76.2563 150.243 83.4765C151.262 87.6063 151.763 91.8415 151.736 96.0892Z" fill="url(#paint4_radial)"/>
<path fill-rule="evenodd" clip-rule="evenodd" d="M121.422 48.7599C121.242 48.7758 121.063 48.8017 120.886 48.8377C120.323 48.9284 119.745 48.8903 119.199 48.7266C118.811 48.5745 118.411 48.4519 118.003 48.3599C117.353 48.2599 116.737 47.982 116.088 47.9043C115.417 47.7808 114.763 47.5832 114.139 47.3153C113.723 47.1656 113.267 47.1656 112.851 47.3153C112.408 47.393 111.951 47.3015 111.575 47.0597C111.084 46.8901 110.576 46.7746 110.059 46.7152C108.691 46.4374 107.323 46.0151 105.967 45.6706C105.151 45.4967 104.317 45.422 103.482 45.4484C102.81 45.4484 102.206 45.6373 101.534 45.6373C101.102 45.6204 100.671 45.5758 100.246 45.504C99.7897 45.4151 99.3225 45.504 98.8666 45.504C98.2955 45.3539 97.6939 45.3539 97.1228 45.504C96.656 45.6334 96.1719 45.6933 95.6867 45.6818C95.0871 45.7375 94.4927 45.8378 93.9088 45.9818C92.8763 46.2363 91.8166 46.3706 90.7517 46.3818C90.0264 46.2761 89.2888 46.2761 88.5635 46.3818C88.1759 46.5152 87.9822 46.9264 87.7087 47.2042C87.1297 47.6982 86.5888 48.2331 86.0903 48.8044C85.5734 49.3337 85.2595 50.0205 85.2013 50.7491C85.2842 51.4473 85.4966 52.1251 85.8281 52.7493C86.1358 53.3827 86.2384 53.9606 85.566 54.3829C84.7232 54.9466 83.7969 55.3814 82.8193 55.6719C82.5428 55.8078 82.2328 55.8653 81.9245 55.8378C81.6162 55.8103 81.322 55.6989 81.0755 55.5163C80.8817 55.3608 80.7563 55.0385 80.517 54.9051C80.3865 54.8678 80.2496 54.8564 80.1145 54.8717C79.9794 54.887 79.8489 54.9286 79.7306 54.994C79.0686 55.2043 78.3951 55.3787 77.7133 55.5163C77.2916 55.5163 76.9269 55.7941 76.5166 55.8719C76.1063 55.9497 75.6618 55.6052 75.1489 55.7275C74.4311 55.9506 73.6953 56.1142 72.9492 56.2164C72.3655 56.2074 71.7949 56.0463 71.2966 55.7497C71.0345 55.6052 70.9661 55.4608 70.6698 55.5386C70.3769 55.6459 70.1204 55.8306 69.9289 56.072C69.7466 56.3164 69.6896 56.6387 69.5073 56.8943C69.3249 57.1499 69.1425 57.4499 68.9716 57.7499C68.6629 58.3278 68.3085 58.8814 67.9116 59.4057C67.6267 59.7724 67.433 60.2614 67.1138 60.5948C66.7947 60.9281 66.6124 60.9059 66.4072 61.0504C65.8487 61.4282 65.2675 61.7727 64.709 62.1616C63.6605 62.9728 62.6689 63.8507 61.5976 64.6286C60.6952 65.1823 59.7269 65.6264 58.7141 65.951C58.1328 66.1732 57.5744 66.3399 56.9589 66.5733C56.7131 66.6387 56.4787 66.7399 56.2637 66.8733C56.0732 67.0979 55.9053 67.3398 55.7622 67.5956C55.2249 68.1822 54.7477 68.8187 54.3375 69.4959C54.1162 69.8945 53.9404 70.3156 53.8133 70.7516C53.6081 71.3406 53.2776 71.8628 53.0724 72.4851C52.6508 73.7297 52.5596 75.0188 52.0923 76.2523C51.8018 76.9535 51.4669 77.6364 51.0893 78.297C50.6105 79.4675 50.3295 80.7059 50.2573 81.9641C50.1728 82.7048 50.1997 83.4535 50.3371 84.1866C50.4419 84.9563 50.4724 85.7339 50.4283 86.5091C50.3259 87.3431 49.9502 88.1226 49.3569 88.7316C48.8669 89.3095 48.126 89.5206 47.579 90.0318C47.0576 90.4562 46.6441 90.9925 46.3709 91.5987C46.3341 91.8899 46.3151 92.1831 46.3139 92.4766C46.1999 93.1211 46.0289 93.7323 45.9378 94.3879C45.8446 95.1847 45.8027 95.9863 45.8124 96.7882C45.8124 97.1994 45.8124 97.6216 45.8124 98.0328C45.8124 98.444 45.9833 98.7885 46.0061 99.1441C46.0289 99.4997 46.0061 99.6886 46.0061 99.9664C46.0061 100.244 46.1885 100.589 46.2683 100.9C46.4506 101.622 46.5874 102.333 46.7356 103.122C46.8956 103.802 47.1011 104.47 47.351 105.123C47.6314 106.024 47.856 106.94 48.0234 107.867C48.1602 108.567 48.1602 109.29 48.2628 109.99C48.3654 110.69 48.4793 111.101 48.5021 111.701C48.5021 112.557 48.3198 113.413 48.3084 114.279C48.4439 115.755 48.7576 117.209 49.243 118.613C49.3455 119.002 49.4481 119.402 49.5621 119.802C45.4022 111.774 43.4205 102.841 43.806 93.8545C44.1914 84.8679 46.9311 76.1273 51.7639 68.4659C56.5966 60.8046 63.3614 54.4777 71.4134 50.0885C79.4654 45.6994 88.5361 43.3941 97.761 43.3926C98.9008 43.3926 100.097 43.3926 101.26 43.5037C108.27 43.9445 115.122 45.7308 121.422 48.7599Z" fill="url(#paint5_linear)"/>
<path style="mix-blend-mode:multiply" fill-rule="evenodd" clip-rule="evenodd" d="M101.194 120.825C104.613 125.594 108.536 130.001 112.899 133.971C119.578 139.849 120.558 143.806 120.558 143.806C129.144 139.885 136.588 133.933 142.213 126.492C151.16 114.313 101.194 120.825 101.194 120.825Z" fill="url(#paint6_linear)"/>
<path style="mix-blend-mode:screen" fill-rule="evenodd" clip-rule="evenodd" d="M65.7216 137.204C60.112 132.615 55.5105 126.968 52.1931 120.602C50.0795 116.536 48.5201 112.217 47.5544 107.756C46.7923 104.181 46.4104 100.539 46.4147 96.8882C46.4177 82.9262 52.1083 69.537 62.235 59.6654C72.3616 49.7938 86.095 44.2482 100.415 44.2482C101.555 44.2482 102.751 44.2482 103.914 44.3482C107.513 44.5768 111.079 45.1576 114.559 46.0818C110.256 44.705 105.79 43.8685 101.27 43.5926C100.13 43.5148 98.9902 43.4814 97.7707 43.4814C90.6798 43.48 83.6581 44.8405 77.1066 47.4852C70.555 50.13 64.602 54.0072 59.5875 58.8954C54.5729 63.7836 50.5951 69.5871 47.8812 75.9744C45.1673 82.3617 43.7705 89.2077 43.7705 96.1214C43.7707 99.7725 44.1526 103.414 44.9102 106.989C46.9806 116.474 51.6932 125.217 58.5297 132.26C65.3662 139.302 74.062 144.37 83.6609 146.906C77.102 144.815 71.0131 141.523 65.7216 137.204Z" fill="url(#paint7_radial)"/>
<path style="mix-blend-mode:multiply" opacity="0.4" fill-rule="evenodd" clip-rule="evenodd" d="M110.307 44.8814C107.332 44.1864 104.3 43.7403 101.247 43.5479C100.643 43.5479 100.039 43.4812 99.4345 43.459C100.755 44.1305 101.753 45.2793 102.215 46.6594C102.706 48.8819 103.424 50.8377 103.834 53.0046C104.313 55.241 104.083 57.5667 103.173 59.6721C102.567 60.875 101.771 61.9774 100.814 62.9392C100.114 63.5003 99.5031 64.1594 99.0014 64.895C98.4999 65.7396 98.0213 66.5619 97.4514 67.362C96.6168 68.6006 95.7151 69.7951 94.7502 70.9402C94.3833 71.2879 94.0406 71.6592 93.7245 72.0515C93.4348 72.6009 93.1034 73.1284 92.7329 73.6295C91.6546 74.6213 90.3498 75.3488 88.9262 75.752C87.2659 76.3857 85.6514 77.1283 84.0938 77.9745C81.8144 79.1524 79.9224 80.6637 77.2555 80.7304C76.3665 80.7304 75.4433 80.6303 74.5543 80.7304C73.4657 80.9471 72.3892 81.2179 71.3289 81.5416C70.3715 81.7194 69.4142 81.9083 68.4568 82.0639C66.884 82.2972 65.5847 82.8195 64.0689 83.1751C62.0758 83.4874 60.067 83.6951 58.0511 83.7974C56.3619 84.1253 54.623 84.1253 52.9338 83.7974C50.187 83.1307 48.7168 81.8638 49.298 79.019C49.531 78.2269 49.5864 77.3951 49.4605 76.5802C49.3346 75.7653 49.0305 74.9864 48.5686 74.2962C46.3879 78.9605 44.932 83.9155 44.249 88.9981C45.5077 89.4874 46.8319 89.798 48.1811 89.9204C52.1815 90.3205 56.4897 88.5758 60.1482 87.2423C61.9905 86.3763 63.935 85.7344 65.938 85.3309C68.0579 85.1087 69.927 85.3309 72.0469 84.8531C79.4203 83.1992 86.505 80.4997 93.0749 76.841C95.776 75.2852 96.9727 73.0627 98.8532 70.8069C100.516 68.9022 102.351 67.1468 104.335 65.5618C106.307 64.0847 107.942 62.2225 109.134 60.0944C110.389 57.708 111.331 55.1766 111.937 52.5601C112.203 51.2388 112.196 49.8792 111.916 48.5607C111.636 47.2421 111.089 45.9913 110.307 44.8814ZM109.943 52.0378C109.854 52.6373 109.728 53.231 109.567 53.8158C109.154 55.3003 108.197 56.5854 106.877 57.4274C106.569 57.5944 106.206 57.6379 105.866 57.5487C105.525 57.4595 105.234 57.2446 105.053 56.9496C104.904 56.5956 104.816 56.2202 104.791 55.8383C104.642 55.1066 104.569 54.3619 104.575 53.6158C104.599 51.8464 104.527 50.077 104.358 48.3152C104.552 49.3264 104.358 46.815 105.931 46.0926C106.358 45.953 106.817 45.9299 107.257 46.0259C107.697 46.1219 108.101 46.3332 108.427 46.6372C109.037 47.4983 109.427 48.4888 109.567 49.5264C109.901 50.321 110.03 51.1833 109.943 52.0378Z" fill="url(#paint8_linear)"/>
<path style="mix-blend-mode:multiply" opacity="0.4" fill-rule="evenodd" clip-rule="evenodd" d="M102.125 136.082L101.669 136.149L102.74 136.249C102.604 136.215 102.376 136.137 102.125 136.082ZM102.125 136.082L101.669 136.149L102.74 136.249C102.604 136.215 102.376 136.137 102.125 136.082ZM150.153 83.3975C150.153 84.7754 149.731 86.1423 149.697 87.5313C149.645 89.2455 149.361 90.9455 148.854 92.5875C148.512 93.8099 147.873 94.71 147.452 95.9213C146.945 97.225 146.319 98.482 145.583 99.6773C144.052 102.09 142.899 104.712 142.163 107.456C141.616 110.001 141.502 112.146 140.203 114.479C138.904 116.813 137.08 118.591 135.747 120.769C135.12 121.813 134.687 121.758 133.741 122.414C132.795 123.069 131.712 124.303 130.686 125.114C128.624 126.779 126.289 128.094 123.78 129.003C122.141 129.639 120.437 130.101 118.696 130.381C117.557 130.559 116.417 130.381 115.277 130.57C113.473 130.896 111.698 131.357 109.966 131.948C107.083 132.859 104.142 133.382 101.27 134.248C99.2642 134.848 97.3039 135.204 95.2638 135.626C94.0215 135.882 92.9843 136.538 91.7306 136.282C90.4769 136.026 89.246 135.593 87.9695 135.171C86.4321 134.749 84.8349 134.573 83.2397 134.648C80.9032 134.648 78.1907 134.993 75.8884 134.559C73.2899 134.071 70.7027 133.393 68.1041 132.87C66.6402 132.502 65.2278 131.961 63.8985 131.259C62.5293 130.763 61.1282 130.354 59.7043 130.037C58.2227 129.581 56.7981 128.925 55.2822 128.536C57.5943 131.426 60.2152 134.067 63.1007 136.415C70.9447 142.853 80.5162 146.963 90.6821 148.261C92.0611 148.428 93.463 148.561 94.8762 148.628C97.9307 147.95 100.917 147.072 103.994 146.15C109.111 144.594 113.534 141.583 118.651 140.116C120.504 139.598 122.308 138.925 124.042 138.104C125.352 137.471 126.743 137.304 128.065 136.749C132.818 134.782 136.396 130.281 138.516 125.869C139.474 123.869 140.397 121.602 142.118 120.102C142.879 119.524 143.602 118.901 144.283 118.235C144.979 117.468 145.423 116.513 146.061 115.679C147.144 114.19 148.193 112.69 149.275 111.234C149.411 111.062 149.533 110.88 149.64 110.69C152.261 101.801 152.442 92.3976 150.164 83.4197L150.153 83.3975ZM100.609 136.46C100.831 136.289 101.072 136.144 101.327 136.026C101.585 135.962 101.855 135.962 102.114 136.026C102.492 135.945 102.885 135.964 103.253 136.082C103.47 136.182 103.88 136.371 103.971 136.615C104.062 136.86 103.971 136.993 103.777 137.149C103.599 137.306 103.369 137.397 103.128 137.404C102.542 137.539 101.94 137.592 101.339 137.56C100.974 137.56 100.427 137.56 100.199 137.171C99.9708 136.782 100.347 136.638 100.609 136.46ZM104.154 143.327C103.827 143.746 103.444 144.12 103.014 144.438C102.597 144.718 102.159 144.967 101.703 145.183C100.636 145.842 99.4871 146.364 98.284 146.739C97.7916 146.828 97.2918 146.873 96.791 146.872C96.1755 146.872 95.5715 146.939 94.956 146.95C94.3406 146.961 93.52 147.106 92.7906 147.15L90.6137 147.25C89.4488 147.316 88.2828 147.138 87.1945 146.728C86.1379 146.365 85.1281 145.884 84.1856 145.294C83.5492 144.829 82.9579 144.309 82.4191 143.738C81.8948 143.282 81.472 142.726 81.1768 142.105C81.0461 141.883 80.9903 141.626 81.0172 141.371C81.0172 141.249 81.097 141.149 81.097 141.116C81.281 140.965 81.484 140.838 81.701 140.738C82.0941 140.582 82.5091 140.485 82.9319 140.449C83.955 140.381 84.9827 140.418 85.9978 140.56C86.5618 140.627 87.132 140.627 87.696 140.56C88.4661 140.423 89.2273 140.241 89.9754 140.016C91.7757 139.525 93.6124 139.172 95.4689 138.96C97.3553 138.676 99.2728 138.646 101.168 138.871C101.935 138.962 102.676 139.204 103.344 139.582C103.803 139.908 104.171 140.339 104.416 140.838C104.625 141.232 104.712 141.677 104.668 142.119C104.623 142.56 104.449 142.98 104.165 143.327H104.154ZM118.457 138.76C118.091 139.102 117.681 139.397 117.238 139.638C116.668 140.027 116.098 140.338 115.471 140.671C114.984 140.95 114.482 141.202 113.967 141.427C113.454 141.66 112.929 141.894 112.417 142.149C111.848 142.411 111.262 142.633 110.661 142.816C110.237 143.019 109.766 143.111 109.294 143.083C108.895 143.02 108.523 142.847 108.222 142.583C108.06 142.451 107.95 142.267 107.912 142.064C107.875 141.86 107.912 141.651 108.017 141.471C107.955 141.033 107.955 140.588 108.017 140.149C108.16 139.88 108.32 139.62 108.496 139.371C109.005 138.572 109.64 137.856 110.377 137.249C110.956 136.66 111.665 136.208 112.451 135.926C113.435 135.662 114.442 135.491 115.46 135.415C116.531 135.293 118.343 135.215 118.822 136.415C119.004 136.797 119.068 137.223 119.005 137.639C118.942 138.056 118.756 138.446 118.469 138.76H118.457ZM102.729 136.249C102.592 136.249 102.364 136.137 102.114 136.082L101.658 136.149L102.729 136.249Z" fill="url(#paint9_linear)"/>
<path style="mix-blend-mode:multiply" opacity="0.4" fill-rule="evenodd" clip-rule="evenodd" d="M145.846 72.1521V72.3632C145.679 73.683 145.27 74.9627 144.638 76.1415C144.205 77.1998 143.707 78.2314 143.145 79.2308C142.321 80.8744 141.624 82.5756 141.06 84.3203C139.977 87.154 139.43 90.0544 137.732 92.6325C136.204 94.9327 135.851 97.7553 134.609 100.211C133.124 102.784 131.138 105.049 128.762 106.879C127.736 107.779 126.881 108.857 125.958 109.835C125.096 110.989 124.118 112.057 123.041 113.024C120.499 114.824 117.718 116.358 115.233 118.28C113.74 119.391 112.68 120.925 111.039 121.869C109.398 122.814 107.62 123.492 105.99 124.459C104.542 125.397 103.017 126.218 101.431 126.915C99.6078 127.626 98.092 127.415 96.2228 127.504C94.116 127.644 92.0401 128.074 90.0569 128.781C88.4385 129.337 87.0822 129.893 85.4296 129.337C84.3824 128.829 83.301 128.391 82.1928 128.026C79.5145 127.492 76.4942 128.026 73.7361 127.959C71.5248 127.822 69.3289 127.506 67.1713 127.015C65.1198 126.626 63.4444 125.225 61.4726 124.659C59.0222 123.959 56.1615 124.559 53.7909 123.647C52.8261 123.182 51.9067 122.631 51.0442 122.003L50.4971 121.669C50.1666 121.092 49.8474 120.503 49.5283 119.914C50.1096 120.147 50.6681 120.403 51.2835 120.68C54.3836 122.125 58.2472 121.903 61.541 122.47C65.3021 123.114 69.0632 124.07 72.8585 124.492C74.3735 124.655 75.9023 124.655 77.4174 124.492C79.5601 124.259 81.7825 124.292 83.891 123.936C87.5609 123.303 91.1397 121.614 94.9464 122.092C95.6721 122.289 96.4109 122.437 97.1574 122.536C98.2174 122.536 98.9468 121.603 99.8016 121.081C101.306 120.158 102.89 120.336 104.212 119.125C105.506 118.01 106.961 117.089 108.532 116.391C112.658 114.346 115.997 111.024 119.234 107.868C122.046 105.311 124.471 102.378 126.437 99.1555C128.261 95.9218 127.896 92.0768 129.263 88.7209C130.092 86.3279 131.242 84.0524 132.683 81.9533C133.458 80.9421 134.404 80.0753 135.224 79.1085C136.022 78.0612 136.72 76.9454 137.31 75.7748C138.142 74.5353 138.903 73.2517 139.589 71.9298C140.039 70.7024 140.206 69.3936 140.079 68.096C140.079 66.5958 140.079 65.0734 140.079 63.5732C142.289 66.239 144.221 69.1128 145.846 72.1521Z" fill="url(#paint10_linear)"/>
<path style="mix-blend-mode:multiply" opacity="0.4" fill-rule="evenodd" clip-rule="evenodd" d="M115.165 75.7197L114.687 75.9636C114.414 75.9316 114.139 75.9316 113.866 75.9636L115.165 75.7197Z" fill="url(#paint11_linear)"/>
<path style="mix-blend-mode:multiply" opacity="0.4" fill-rule="evenodd" clip-rule="evenodd" d="M47.3991 99.2361H47.1357C47.3533 99.1674 47.4334 99.1674 47.3991 99.2361Z" fill="url(#paint12_linear)"/>
<path fill-rule="evenodd" clip-rule="evenodd" d="M108.097 44.4043L117.579 40.7705C117.579 40.7705 132.658 46.4823 142.163 58.995L142.778 67.0072C129.892 61.6134 118.136 53.9513 108.097 44.4043Z" fill="url(#paint13_linear)"/>
<path fill-rule="evenodd" clip-rule="evenodd" d="M142.551 125.704C142.551 125.704 134.573 134.105 128.601 135.983L123.666 137.45C123.666 137.45 101.19 129.56 99.9594 115.836C98.9222 104.312 119.141 86.6211 124.612 84.5097C130.082 82.3983 136.488 83.5985 136.488 83.5985L142.551 125.704Z" fill="url(#paint14_linear)"/>
<path fill-rule="evenodd" clip-rule="evenodd" d="M136.488 83.5987C131.747 82.1318 111.254 91.3774 105.715 111.98C104.576 116.169 114.993 132.083 127.37 135.983C131.485 137.272 150.381 121.181 151.179 110.269C151.977 99.3562 143.531 85.7767 136.488 83.5987Z" fill="url(#paint15_linear)"/>
<path fill-rule="evenodd" clip-rule="evenodd" d="M107.076 114.403C110.005 91.0663 131.808 83.4098 136.549 84.8766C139.968 85.9879 145.006 90.8329 147.946 95.6669C144.972 89.6995 140.527 84.8322 136.549 83.5987C131.808 82.1318 111.316 91.3774 105.776 111.98C105.389 113.436 106.392 116.314 108.386 119.603C107.496 118.009 107.044 116.217 107.076 114.403Z" fill="url(#paint16_linear)"/>
<path style="mix-blend-mode:multiply" fill-rule="evenodd" clip-rule="evenodd" d="M66.9777 139.449C66.9777 139.449 71.8672 141.193 75.4345 140.249C75.4345 140.249 76.8022 128.981 72.4484 121.769C68.0947 114.557 60.7092 125.447 60.7092 125.447L59.0225 132.348C61.335 135.052 64.0108 137.441 66.9777 139.449Z" fill="url(#paint17_linear)"/>
<path fill-rule="evenodd" clip-rule="evenodd" d="M71.2145 137.626L74.3488 136.814C75.1952 132.35 74.8017 127.746 73.2091 123.479C70.2344 115.478 59.3158 109.511 57.6974 109.378C56.079 109.244 54.4834 112.845 54.4834 112.845L71.2145 137.626Z" fill="url(#paint18_linear)"/>
<path fill-rule="evenodd" clip-rule="evenodd" d="M120.558 143.807L115.35 150.407C115.35 150.407 106.312 154.675 97.2507 152.63L90.6631 148.307L120.558 143.807Z" fill="url(#paint19_linear)"/>
<path fill-rule="evenodd" clip-rule="evenodd" d="M52.1644 117.836C52.7114 115.413 54.8997 111.379 56.8714 110.99C58.8432 110.601 68.1205 119.191 70.2632 124.714C72.4059 130.237 71.3231 136.382 71.2206 137.627C71.118 138.872 60.5869 135.404 55.2644 131.137C49.9419 126.87 52.1644 117.836 52.1644 117.836Z" fill="url(#paint20_linear)"/>
<path fill-rule="evenodd" clip-rule="evenodd" d="M70.2601 124.714C68.1174 119.158 58.8628 110.59 56.8683 110.99C55.9208 111.309 55.1155 111.937 54.5889 112.768C54.9533 112.407 55.4095 112.146 55.911 112.012C57.8827 111.612 67.3082 118.458 69.4509 124.003C72.0381 130.804 70.5906 135.727 70.3627 137.871C70.8755 137.871 71.1947 137.871 71.2061 137.627C71.32 136.382 72.4142 130.248 70.2601 124.714Z" fill="url(#paint21_linear)"/>
<path fill-rule="evenodd" clip-rule="evenodd" d="M99.5872 101.233C97.2508 100.122 99.895 90.1985 102.186 88.0205C104.477 85.8424 110.46 90.9319 111.247 95.0769C112.033 99.2219 104.921 103.678 99.5872 101.233Z" fill="url(#paint22_linear)"/>
<path fill-rule="evenodd" clip-rule="evenodd" d="M101.913 100.479C100.055 99.5897 102.164 91.3108 104.01 89.5106C105.857 87.7104 110.621 91.922 111.259 95.3669C111.897 98.8118 106.198 102.49 101.913 100.479Z" fill="url(#paint23_linear)"/>
<path fill-rule="evenodd" clip-rule="evenodd" d="M117.584 40.7705C117.584 40.7705 118.051 46.3268 124.525 53.2499C130.998 60.173 142.168 58.995 142.168 58.995L142.783 67.0072C142.783 67.0072 119.054 56.7836 108.124 44.4265L117.584 40.7705Z" fill="url(#paint24_linear)"/>
<path fill-rule="evenodd" clip-rule="evenodd" d="M136.18 90.4883C135.918 90.6994 135.325 91.1106 135.792 91.4329C135.918 91.5218 136.032 91.4329 136.157 91.5106C136.282 91.5884 136.294 91.6218 136.408 91.5773C136.784 91.4328 136.636 90.3883 136.214 90.5994L136.18 90.4883Z" fill="#0EDBFF"/>
<path fill-rule="evenodd" clip-rule="evenodd" d="M138.144 94.3001C138.303 94.2074 138.483 94.154 138.668 94.1445C138.668 94.3779 138.931 94.8224 138.588 95.0002C138.246 95.178 138.395 94.6557 138.269 94.5446L138.144 94.3001Z" fill="#0EDBFF"/>
<path fill-rule="evenodd" clip-rule="evenodd" d="M102.613 96.6341C102.97 96.7674 103.324 96.9119 103.673 97.0675C103.787 96.9674 103.958 96.9786 104.095 96.9008C104.278 96.7619 104.413 96.572 104.482 96.3563C104.512 96.2243 104.51 96.0874 104.476 95.9563C104.443 95.8253 104.378 95.7035 104.289 95.6006C104.209 95.4256 104.102 95.2643 103.97 95.1228C103.866 95.076 103.753 95.0518 103.639 95.0518C103.525 95.0518 103.412 95.076 103.309 95.1228C103.103 95.2486 102.931 95.4199 102.807 95.6228C102.644 95.8249 102.541 96.0673 102.511 96.3229C102.519 96.4452 102.557 96.564 102.62 96.6699C102.683 96.7759 102.771 96.8663 102.875 96.9341L102.613 96.6341Z" fill="#0EDBFF"/>
<path fill-rule="evenodd" clip-rule="evenodd" d="M52.2754 122.87L53.3354 123.303C53.4493 123.203 53.6203 123.225 53.7571 123.136C53.9382 123.001 54.0732 122.815 54.1446 122.603C54.1757 122.47 54.1755 122.332 54.1439 122.199C54.1123 122.066 54.0502 121.942 53.9622 121.836C53.8597 121.692 53.7799 121.47 53.6317 121.37C53.5316 121.318 53.4201 121.291 53.3069 121.291C53.1937 121.291 53.0821 121.318 52.982 121.37C52.7684 121.489 52.5913 121.661 52.4692 121.87C52.3106 122.07 52.2085 122.308 52.1729 122.559C52.1823 122.682 52.22 122.802 52.2831 122.91C52.3462 123.018 52.4331 123.11 52.5376 123.181L52.2754 122.87Z" fill="#0EDBFF"/>
<path fill-rule="evenodd" clip-rule="evenodd" d="M143.35 127.014L144.41 127.448C144.524 127.348 144.695 127.37 144.831 127.281C145.012 127.145 145.147 126.959 145.219 126.748C145.248 126.614 145.246 126.475 145.213 126.342C145.179 126.21 145.115 126.086 145.025 125.981C144.946 125.809 144.838 125.652 144.706 125.514C144.604 125.462 144.49 125.436 144.375 125.436C144.26 125.436 144.147 125.462 144.045 125.514C143.837 125.637 143.665 125.809 143.543 126.014C143.38 126.212 143.278 126.451 143.247 126.703C143.254 126.827 143.291 126.948 143.354 127.056C143.417 127.164 143.506 127.257 143.612 127.325L143.35 127.014Z" fill="#0EDBFF"/>
<path fill-rule="evenodd" clip-rule="evenodd" d="M45.4116 60.74C46.3119 61.0845 47.2009 61.4512 48.0899 61.8512C48.3749 61.6067 48.8079 61.6512 49.1499 61.4289C49.614 61.0811 49.9596 60.6047 50.1414 60.0621C50.2178 59.7265 50.2132 59.3783 50.1282 59.0447C50.0432 58.7111 49.8799 58.4013 49.6513 58.1396C49.4521 57.6991 49.1743 57.2965 48.8307 56.9506C48.5725 56.8245 48.2876 56.7588 47.9987 56.7588C47.7099 56.7588 47.425 56.8245 47.1667 56.9506C46.6471 57.268 46.2132 57.7025 45.9016 58.2174C45.4996 58.7337 45.2405 59.3422 45.1494 59.9843C45.1798 60.2956 45.2804 60.5964 45.4439 60.8654C45.6075 61.1343 45.8299 61.3647 46.0954 61.5401L45.4116 60.74Z" fill="#0EDBFF"/>
<path fill-rule="evenodd" clip-rule="evenodd" d="M112.817 105.356C112.67 105.46 112.546 105.593 112.452 105.745C112.589 105.923 112.669 106.1 112.92 106.167C112.963 106.191 113.012 106.204 113.062 106.204C113.113 106.204 113.162 106.191 113.205 106.167C113.308 106.067 113.205 105.956 113.273 105.856C113.342 105.756 113.41 105.556 113.273 105.345C113.137 105.134 113.137 105.167 112.988 105.167C112.84 105.167 112.669 105.167 112.612 105.3L112.817 105.356Z" fill="#0EDBFF"/>
<path fill-rule="evenodd" clip-rule="evenodd" d="M113.629 110.868C113.629 110.868 113.333 111.601 113.686 111.401C113.868 111.312 113.799 111.046 113.686 110.968V110.901L113.629 110.868Z" fill="#0EDBFF"/>
<path fill-rule="evenodd" clip-rule="evenodd" d="M131.452 120.892C131.275 121.108 131.147 121.358 131.075 121.626C131.198 121.721 131.351 121.772 131.509 121.77C131.725 121.77 131.725 121.692 131.737 121.503C131.753 121.359 131.753 121.214 131.737 121.07C131.737 120.914 131.532 120.759 131.349 120.859L131.452 120.892Z" fill="#0EDBFF"/>
<path fill-rule="evenodd" clip-rule="evenodd" d="M116.431 106.023C116.563 106.143 116.651 106.303 116.681 106.478C116.499 106.478 116.476 106.345 116.442 106.2C116.408 106.056 116.51 106.034 116.624 105.856H116.681L116.431 106.023Z" fill="#0EDBFF"/>
<path fill-rule="evenodd" clip-rule="evenodd" d="M133.518 91.1442C133.368 91.2456 133.244 91.3785 133.153 91.5331C133.245 91.6331 133.153 91.8332 133.404 91.8221C133.655 91.8109 133.678 91.6554 133.747 91.5331C133.815 91.4104 133.85 91.2728 133.849 91.1331C133.849 91.0664 133.849 90.733 133.712 90.9553L133.518 91.1442Z" fill="#0EDBFF"/>
<path fill-rule="evenodd" clip-rule="evenodd" d="M131.214 52.3713C131.398 52.3049 131.589 52.2602 131.784 52.2381C131.841 52.2344 131.898 52.2344 131.955 52.2381C132.137 52.2381 132.137 52.2381 132.228 52.3491C132.33 52.4873 132.375 52.6577 132.354 52.8265C132.24 53.4815 131.294 52.4935 131.624 52.2492L131.214 52.3713Z" fill="#0EDBFF"/>
<path fill-rule="evenodd" clip-rule="evenodd" d="M58.6914 53.5376C58.3951 53.6265 57.9392 53.6599 57.905 53.9933C57.8708 54.3266 58.3609 54.5933 58.6116 54.6711C59.0561 54.8045 59.7514 54.8823 59.9907 54.3933C60.0451 54.208 60.0601 54.0138 60.0346 53.8227C60.0091 53.6316 59.9438 53.4476 59.8426 53.2821C59.4779 52.7709 58.7028 52.982 58.1444 53.1931L58.6914 53.5376Z" fill="#0EDBFF"/>
<path fill-rule="evenodd" clip-rule="evenodd" d="M135.614 121.603C135.489 120.603 135.295 119.603 136.218 119.08C136.509 118.928 136.834 118.848 137.164 118.848C137.495 118.848 137.82 118.928 138.11 119.08C138.459 119.4 138.749 119.776 138.965 120.192C139.273 120.703 139.193 120.703 139.034 121.169C138.646 122.281 138.395 122.947 137.301 122.947C135.865 122.947 135.637 121.836 135.614 120.492V121.603Z" fill="#0EDBFF"/>
<path fill-rule="evenodd" clip-rule="evenodd" d="M136.259 93.2786C136.653 93.1722 137.009 92.9605 137.286 92.6674C137 92.4896 136.373 92.1229 136.259 92.6674V93.2786Z" fill="#0EDBFF"/>
<path fill-rule="evenodd" clip-rule="evenodd" d="M54.5771 118.925C54.9713 118.819 55.3269 118.607 55.6039 118.314C55.3187 118.136 54.6912 117.781 54.5771 118.314V118.925Z" fill="#0EDBFF"/>
<path fill-rule="evenodd" clip-rule="evenodd" d="M54.5771 127.383C54.9733 127.281 55.3302 127.069 55.6039 126.772C55.3187 126.605 54.6912 126.238 54.5771 126.772V127.383Z" fill="#0EDBFF"/>
<path fill-rule="evenodd" clip-rule="evenodd" d="M115.645 97.1126C116.044 96.6348 116.625 95.7569 117.354 96.2348C117.459 96.3073 117.546 96.4005 117.61 96.5084C117.674 96.6162 117.714 96.7362 117.727 96.8603C117.74 96.9843 117.725 97.1097 117.685 97.2279C117.644 97.3461 117.578 97.4546 117.491 97.546C117.146 97.7707 116.759 97.9256 116.352 98.0017C116.264 98.0318 116.169 98.0392 116.078 98.023C115.986 98.0068 115.9 97.9676 115.829 97.9093C115.758 97.8509 115.703 97.7755 115.671 97.6904C115.639 97.6052 115.63 97.5134 115.645 97.4238V97.1126Z" fill="#0EDBFF"/>
<path fill-rule="evenodd" clip-rule="evenodd" d="M129.195 118.891C129.594 118.413 130.175 117.535 130.904 118.013C131.008 118.086 131.095 118.179 131.16 118.287C131.224 118.395 131.264 118.515 131.277 118.639C131.29 118.763 131.275 118.888 131.235 119.006C131.194 119.124 131.128 119.233 131.041 119.324C130.699 119.557 130.311 119.716 129.901 119.791C129.813 119.819 129.718 119.824 129.627 119.806C129.536 119.788 129.451 119.747 129.38 119.688C129.309 119.629 129.255 119.554 129.223 119.469C129.19 119.384 129.181 119.292 129.195 119.202V118.891Z" fill="#0EDBFF"/>
<path fill-rule="evenodd" clip-rule="evenodd" d="M127.154 46.7051C127.781 46.8051 128.841 46.8607 128.773 47.7163C128.773 48.2053 128.134 48.672 127.633 48.472C127.258 48.2954 126.925 48.0458 126.653 47.7385C126.585 47.6765 126.534 47.5986 126.506 47.5121C126.477 47.4257 126.472 47.3336 126.49 47.2446C126.508 47.1555 126.55 47.0725 126.61 47.0034C126.67 46.9343 126.748 46.8813 126.835 46.8495L127.154 46.7051Z" fill="#0EDBFF"/>
<path fill-rule="evenodd" clip-rule="evenodd" d="M124.931 124.536C125.341 124.059 125.911 123.181 126.641 123.659C126.745 123.731 126.832 123.824 126.896 123.932C126.96 124.04 127 124.16 127.013 124.284C127.026 124.408 127.012 124.533 126.971 124.652C126.93 124.77 126.864 124.878 126.777 124.97C126.436 125.202 126.047 125.362 125.638 125.437C125.549 125.464 125.455 125.469 125.363 125.451C125.272 125.433 125.187 125.393 125.116 125.334C125.046 125.275 124.992 125.199 124.959 125.114C124.927 125.029 124.917 124.937 124.931 124.848V124.536Z" fill="#0EDBFF"/>
<path fill-rule="evenodd" clip-rule="evenodd" d="M106.47 96.3888C105.957 96.7 105.091 97.0889 105.011 97.7779C104.981 97.9551 105.017 98.1371 105.114 98.2902C105.21 98.4434 105.36 98.5575 105.536 98.6113C105.715 98.6884 105.909 98.7283 106.106 98.7283C106.302 98.7283 106.496 98.6884 106.676 98.6113C107.198 98.3846 107.628 97.9932 107.895 97.5001C107.973 97.3542 108.014 97.1922 108.014 97.0278C108.014 96.8633 107.973 96.7013 107.895 96.5555C107.802 96.3471 107.637 96.1777 107.428 96.0777C106.767 95.8554 106.379 96.4888 105.889 96.7666L106.47 96.3888Z" fill="#0EDBFF"/>
<path fill-rule="evenodd" clip-rule="evenodd" d="M108.118 94.5667C108.39 94.657 108.633 94.8139 108.825 95.0223C108.551 95.1112 108.255 95.3334 107.97 95.2334C107.891 95.2028 107.818 95.1572 107.757 95.0993C107.696 95.0414 107.647 94.9723 107.613 94.8959C107.579 94.8196 107.561 94.7374 107.56 94.6543C107.558 94.5711 107.574 94.4884 107.605 94.4111C107.605 94.2222 108.004 93.8999 108.198 93.9777C108.392 94.0555 108.323 94.1555 108.358 94.2444C108.392 94.3333 108.426 94.3778 108.358 94.5667H108.118Z" fill="#0EDBFF"/>
<path fill-rule="evenodd" clip-rule="evenodd" d="M122.263 91.5662C120.841 92.6999 119.699 94.1319 118.923 95.7556C118.559 96.6002 119.208 96.6446 119.995 96.489C121.511 96.2001 123.038 95.7889 124.554 95.3778C125.598 95.1701 126.561 94.6812 127.335 93.9665C127.803 93.3214 128.007 92.5283 127.905 91.744C127.756 90.7439 127.027 90.3549 126.104 90.1104C123.995 89.5437 120.986 91.7662 120.211 93.6665L122.263 91.5662Z" fill="#0EDBFF"/>
<path fill-rule="evenodd" clip-rule="evenodd" d="M114.708 99.0684C115.134 99.0756 115.553 99.1823 115.928 99.3795C115.825 99.5017 115.859 99.6795 115.802 99.824C115.693 100.055 115.519 100.251 115.301 100.391C115.111 100.501 114.899 100.571 114.679 100.596C114.459 100.621 114.236 100.6 114.024 100.535C112.885 100.113 114.629 98.8017 115.016 99.2684L114.708 99.0684Z" fill="#0EDBFF"/>
<path fill-rule="evenodd" clip-rule="evenodd" d="M51.4361 141.282C51.2855 141.386 51.1576 141.518 51.0596 141.671C51.2079 141.849 51.2763 142.015 51.5273 142.082C51.5698 142.109 51.6193 142.123 51.6699 142.123C51.7205 142.123 51.77 142.109 51.8125 142.082C51.9152 141.982 51.8696 141.871 51.8924 141.771C51.9152 141.671 52.0293 141.482 51.8924 141.26C51.7555 141.037 51.7555 141.082 51.6072 141.082C51.4589 141.082 51.2878 141.082 51.2307 141.215L51.4361 141.282Z" fill="#0EDBFF"/>
<path fill-rule="evenodd" clip-rule="evenodd" d="M52.2421 146.785C52.2421 146.841 51.9462 147.518 52.299 147.329C52.3343 147.303 52.363 147.27 52.3827 147.231C52.4025 147.193 52.4128 147.15 52.4128 147.107C52.4128 147.064 52.4025 147.021 52.3827 146.983C52.363 146.944 52.3343 146.911 52.299 146.885V146.818L52.2421 146.785Z" fill="#0EDBFF"/>
<path fill-rule="evenodd" clip-rule="evenodd" d="M55.0186 141.938C55.1548 142.057 55.2469 142.217 55.2803 142.393C55.0868 142.393 55.0641 142.26 55.0413 142.115C55.0185 141.971 55.0982 141.96 55.212 141.771H55.2803L55.0186 141.938Z" fill="#0EDBFF"/>
<path fill-rule="evenodd" clip-rule="evenodd" d="M53.3122 134.984C53.7414 134.995 54.1625 135.102 54.5431 135.296C54.4291 135.429 54.4633 135.596 54.4063 135.74C54.3047 135.976 54.1291 136.174 53.9048 136.307C53.7165 136.417 53.5068 136.487 53.289 136.514C53.0713 136.541 52.8502 136.523 52.6397 136.462C51.5 136.04 53.2438 134.729 53.6313 135.196L53.3122 134.984Z" fill="#0EDBFF"/>
<path fill-rule="evenodd" clip-rule="evenodd" d="M124.934 47.6819C125.351 47.894 125.735 48.1635 126.074 48.482C126.419 48.8642 126.731 49.273 127.008 49.7044C127.134 49.9378 127.453 50.4378 127.008 50.5045C126.564 50.5712 125.606 49.9155 125.23 49.66C124.581 49.2762 124.006 48.7833 123.532 48.2042C123.304 47.8931 122.951 47.3486 123.19 46.9596C123.278 46.8271 123.403 46.722 123.551 46.657C123.698 46.592 123.862 46.5697 124.022 46.5929C124.354 46.5985 124.671 46.7255 124.911 46.9485C125.048 47.0485 125.709 47.7042 125.481 47.882L124.934 47.6819Z" fill="#0EDBFF"/>
<path fill-rule="evenodd" clip-rule="evenodd" d="M129.844 89.666C129.661 89.7883 128.225 90.5661 128.909 90.8995C129.379 91.0717 129.898 91.0717 130.368 90.8995C130.698 90.7662 131.029 90.555 130.824 90.1772C130.402 89.4327 129.353 89.866 128.806 90.1772L129.844 89.666Z" fill="#0EDBFF"/>
<path fill-rule="evenodd" clip-rule="evenodd" d="M140.151 43.9932C139.684 44.3154 136.093 46.2157 137.803 47.1047C138.992 47.5047 140.288 47.4811 141.462 47.038C142.294 46.6935 143.126 46.1601 142.601 45.2378C141.541 43.3486 138.897 44.4377 137.541 45.2378L140.151 43.9932Z" fill="#0EDBFF"/>
<path fill-rule="evenodd" clip-rule="evenodd" d="M55.0908 123.515C55.1389 124.359 55.5136 125.153 56.1394 125.737C56.4935 125.965 56.9121 126.077 57.3356 126.059C57.7591 126.041 58.166 125.894 58.4986 125.637C59.0457 125.326 59.5699 124.993 60.1056 124.66C60.4247 124.471 60.6983 124.426 60.7097 123.993C60.6168 123.453 60.3722 122.949 60.003 122.537C59.5946 122.055 59.0752 121.675 58.4872 121.426C57.3475 121.015 55.2162 121.426 55.239 122.915L55.0908 123.515Z" fill="#0EDBFF"/>
<path fill-rule="evenodd" clip-rule="evenodd" d="M130.544 125.127C130.572 125.724 130.833 126.289 131.273 126.705C131.522 126.863 131.814 126.941 132.111 126.929C132.407 126.917 132.692 126.816 132.926 126.638C133.313 126.416 133.678 126.183 134.066 125.949C134.453 125.716 134.487 125.794 134.499 125.482C134.431 125.103 134.258 124.749 133.997 124.46C133.716 124.116 133.352 123.845 132.937 123.671C132.14 123.382 130.658 123.671 130.658 124.716L130.544 125.127Z" fill="#0EDBFF"/>
<path style="mix-blend-mode:screen" d="M141.268 129.593C146.479 127.475 148.943 121.638 146.77 116.557C144.598 111.476 138.612 109.074 133.4 111.192C128.189 113.31 125.725 119.147 127.898 124.228C130.07 129.309 136.056 131.711 141.268 129.593Z" fill="url(#paint25_radial)"/>
<path style="mix-blend-mode:screen" d="M123.653 102.545C128.896 102.545 133.147 98.4003 133.147 93.288C133.147 88.1756 128.896 84.0312 123.653 84.0312C118.41 84.0312 114.159 88.1756 114.159 93.288C114.159 98.4003 118.41 102.545 123.653 102.545Z" fill="url(#paint26_radial)"/>
<path style="mix-blend-mode:screen" fill-rule="evenodd" clip-rule="evenodd" d="M129.718 52.1953C128.521 53.8066 125.513 53.6733 122.994 51.8953C120.475 50.1172 119.415 47.3613 120.623 45.75C121.831 44.1387 124.829 44.2721 127.348 46.0612C129.866 47.8503 130.926 50.584 129.718 52.1953Z" fill="url(#paint27_radial)"/>
<path style="mix-blend-mode:screen" d="M57.8923 133.271C63.5385 133.271 68.1156 128.808 68.1156 123.303C68.1156 117.798 63.5385 113.335 57.8923 113.335C52.2461 113.335 47.6689 117.798 47.6689 123.303C47.6689 128.808 52.2461 133.271 57.8923 133.271Z" fill="url(#paint28_radial)"/>
<path fill-rule="evenodd" clip-rule="evenodd" d="M117.704 41.6816C117.704 41.6816 120.177 51.9496 127.152 55.8168C135.974 60.7063 142.128 58.9949 142.128 58.9949C136.707 58.5756 131.485 56.8122 126.959 53.8721C120.907 49.8271 117.704 41.6816 117.704 41.6816Z" fill="url(#paint29_linear)"/>
<path style="mix-blend-mode:multiply" opacity="0.4" fill-rule="evenodd" clip-rule="evenodd" d="M101.194 120.825L105.867 114.157C105.867 114.157 111.874 130.826 127.454 136.027L124.034 138.171C124.034 138.171 108.158 133.682 101.194 120.825Z" fill="url(#paint30_linear)"/>
<path style="mix-blend-mode:multiply" fill-rule="evenodd" clip-rule="evenodd" d="M110.062 46.7158C110.062 46.7158 132.526 68.7519 148.675 78.5532C147.446 74.3879 145.449 70.4755 142.783 67.0073C142.783 67.0073 129.186 62.6289 110.062 46.7158Z" fill="url(#paint31_linear)"/>
<path style="mix-blend-mode:screen" d="M83.6215 81.7472C94.0808 75.0381 98.9841 64.2999 94.5732 57.7627C90.1623 51.2255 78.1076 51.3648 67.6483 58.0739C57.1889 64.7829 52.2857 75.5211 56.6966 82.0583C61.1074 88.5956 73.1621 88.4563 83.6215 81.7472Z" fill="url(#paint32_radial)"/>
<defs>
<filter id="filter0_d" x="1" y="0" width="191" height="192" filterUnits="userSpaceOnUse" color-interpolation-filters="sRGB">
<feFlood flood-opacity="0" result="BackgroundImageFix"/>
<feColorMatrix in="SourceAlpha" type="matrix" values="0 0 0 0 0 0 0 0 0 0 0 0 0 0 0 0 0 0 127 0"/>
<feOffset/>
<feGaussianBlur stdDeviation="25"/>
<feColorMatrix type="matrix" values="0 0 0 0 0.380392 0 0 0 0 0.843137 0 0 0 0 1 0 0 0 1 0"/>
<feBlend mode="normal" in2="BackgroundImageFix" result="effect1_dropShadow"/>
<feBlend mode="normal" in="SourceGraphic" in2="effect1_dropShadow" result="shape"/>
</filter>
<radialGradient id="paint0_radial" cx="0" cy="0" r="1" gradientUnits="userSpaceOnUse" gradientTransform="translate(41201.1 -22962.7) rotate(-44.2753) scale(6782.54 6780.37)">
<stop offset="0.01" stop-color="#009BFF"/>
<stop offset="1" stop-opacity="0"/>
</radialGradient>
<radialGradient id="paint1_radial" cx="0" cy="0" r="1" gradientUnits="userSpaceOnUse" gradientTransform="translate(96.475 96.0707) scale(68.219 66.5147)">
<stop offset="0.01" stop-color="#62EAFF"/>
<stop offset="0.255208" stop-color="#61E3FF"/>
<stop offset="0.395833" stop-color="#62E1FF"/>
<stop offset="0.515625" stop-color="#007DDB" stop-opacity="0.39"/>
<stop offset="1" stop-color="#006DBF" stop-opacity="0"/>
</radialGradient>
<linearGradient id="paint2_linear" x1="61.8833" y1="67.8411" x2="61.8833" y2="49.6055" gradientUnits="userSpaceOnUse">
<stop stop-color="#9A00B3"/>
<stop offset="1" stop-color="#7F72FF"/>
</linearGradient>
<linearGradient id="paint3_linear" x1="57.7461" y1="68.7634" x2="64.4524" y2="47.7494" gradientUnits="userSpaceOnUse">
<stop stop-color="#5B008B"/>
<stop offset="1" stop-color="#8E00FF"/>
</linearGradient>
<radialGradient id="paint4_radial" cx="0" cy="0" r="1" gradientUnits="userSpaceOnUse" gradientTransform="translate(64.3077 71.4638) scale(86.733 84.5662)">
<stop offset="0.01" stop-color="#60DBFF"/>
<stop offset="0.09" stop-color="#60D5FF"/>
<stop offset="0.21" stop-color="#5FC4FF"/>
<stop offset="0.34" stop-color="#5DA9FF"/>
<stop offset="0.49" stop-color="#5A82FF"/>
<stop offset="0.64" stop-color="#5751FF"/>
<stop offset="0.68" stop-color="#5643FF"/>
<stop offset="0.74" stop-color="#563DF8"/>
<stop offset="0.83" stop-color="#552EE5"/>
<stop offset="0.93" stop-color="#5315C6"/>
<stop offset="1" stop-color="#5200AB"/>
</radialGradient>
<linearGradient id="paint5_linear" x1="43.7495" y1="81.6419" x2="121.422" y2="81.6419" gradientUnits="userSpaceOnUse">
<stop offset="0.01" stop-color="#81E0FF"/>
<stop offset="0.32" stop-color="#82DDFF"/>
<stop offset="0.55" stop-color="#86D4FF"/>
<stop offset="0.75" stop-color="#8BC4FF"/>
<stop offset="0.94" stop-color="#94ADFF"/>
<stop offset="1" stop-color="#97A4FF"/>
</linearGradient>
<linearGradient id="paint6_linear" x1="122.222" y1="143.806" x2="122.222" y2="119.08" gradientUnits="userSpaceOnUse">
<stop stop-color="#B8C2FF"/>
<stop offset="1" stop-color="#5B729C"/>
</linearGradient>
<radialGradient id="paint7_radial" cx="0" cy="0" r="1" gradientUnits="userSpaceOnUse" gradientTransform="translate(58.2906 60.2502) scale(71.0732 69.2976)">
<stop stop-color="#FFFFD9"/>
<stop offset="1" stop-opacity="0"/>
</radialGradient>
<linearGradient id="paint8_linear" x1="44.2376" y1="66.7397" x2="112.142" y2="66.7397" gradientUnits="userSpaceOnUse">
<stop stop-color="#B8C2FF"/>
<stop offset="1" stop-color="#7D72B3"/>
</linearGradient>
<linearGradient id="paint9_linear" x1="31813" y1="7722.54" x2="39978.8" y2="7722.54" gradientUnits="userSpaceOnUse">
<stop stop-color="#B8C2FF"/>
<stop offset="1" stop-color="#7D72B3"/>
</linearGradient>
<linearGradient id="paint10_linear" x1="31276.8" y1="6636.58" x2="39413.8" y2="6636.58" gradientUnits="userSpaceOnUse">
<stop stop-color="#B8C2FF"/>
<stop offset="1" stop-color="#7D72B3"/>
</linearGradient>
<linearGradient id="paint11_linear" x1="113.866" y1="75.8417" x2="115.165" y2="75.8417" gradientUnits="userSpaceOnUse">
<stop stop-color="#E8DDFF"/>
<stop offset="1" stop-color="#AA8AD8"/>
</linearGradient>
<linearGradient id="paint12_linear" x1="134.415" y1="104.44" x2="134.48" y2="104.44" gradientUnits="userSpaceOnUse">
<stop stop-color="#E8DDFF"/>
<stop offset="1" stop-color="#AA8AD8"/>
</linearGradient>
<linearGradient id="paint13_linear" x1="108.097" y1="53.8722" x2="142.756" y2="53.8722" gradientUnits="userSpaceOnUse">
<stop stop-color="#7F72FF"/>
<stop offset="1" stop-color="#9A00B3"/>
</linearGradient>
<linearGradient id="paint14_linear" x1="115.973" y1="134.983" x2="132.76" y2="82.4137" gradientUnits="userSpaceOnUse">
<stop stop-color="#280077"/>
<stop offset="1" stop-color="#812CFF"/>
</linearGradient>
<linearGradient id="paint15_linear" x1="121.066" y1="133.311" x2="137.015" y2="83.1814" gradientUnits="userSpaceOnUse">
<stop stop-color="#7A00B3"/>
<stop offset="1" stop-color="#B136FF"/>
</linearGradient>
<linearGradient id="paint16_linear" x1="126.782" y1="119.603" x2="126.782" y2="83.4542" gradientUnits="userSpaceOnUse">
<stop stop-color="#8E00B3"/>
<stop offset="1" stop-color="#E05CFF"/>
</linearGradient>
<linearGradient id="paint17_linear" x1="67.3311" y1="140.527" x2="67.3311" y2="119.302" gradientUnits="userSpaceOnUse">
<stop stop-color="#81A9CE"/>
<stop offset="1" stop-color="#5B729C"/>
</linearGradient>
<linearGradient id="paint18_linear" x1="6843.54" y1="3885.77" x2="7073.15" y2="3381.99" gradientUnits="userSpaceOnUse">
<stop stop-color="#280077"/>
<stop offset="1" stop-color="#812CFF"/>
</linearGradient>
<linearGradient id="paint19_linear" x1="105.616" y1="153.174" x2="105.616" y2="143.807" gradientUnits="userSpaceOnUse">
<stop stop-color="#7A00B3"/>
<stop offset="0.92" stop-color="#7006FC"/>
<stop offset="1" stop-color="#7006F9"/>
</linearGradient>
<linearGradient id="paint20_linear" x1="6707.86" y1="3791.16" x2="6707.86" y2="3139.77" gradientUnits="userSpaceOnUse">
<stop stop-color="#7A00B3"/>
<stop offset="1" stop-color="#B136FF"/>
</linearGradient>
<linearGradient id="paint21_linear" x1="5766.48" y1="3789.36" x2="5766.48" y2="3138.51" gradientUnits="userSpaceOnUse">
<stop stop-color="#8E00B3"/>
<stop offset="1" stop-color="#E05CFF"/>
</linearGradient>
<linearGradient id="paint22_linear" x1="4783.87" y1="1599.99" x2="4848.89" y2="1426.49" gradientUnits="userSpaceOnUse">
<stop stop-color="#5B008B"/>
<stop offset="1" stop-color="#8E00FF"/>
</linearGradient>
<linearGradient id="paint23_linear" x1="104.523" y1="101.357" x2="108.181" y2="89.9336" gradientUnits="userSpaceOnUse">
<stop stop-color="#A400CA"/>
<stop offset="1" stop-color="#B136FF"/>
</linearGradient>
<linearGradient id="paint24_linear" x1="13598.8" y1="1811.74" x2="13699.1" y2="1407.49" gradientUnits="userSpaceOnUse">
<stop stop-color="#5B008B"/>
<stop offset="1" stop-color="#8E00FF"/>
</linearGradient>
<radialGradient id="paint25_radial" cx="0" cy="0" r="1" gradientUnits="userSpaceOnUse" gradientTransform="translate(137.326 120.386) scale(10.2233 9.96792)">
<stop offset="0.1" stop-color="#2967D7"/>
<stop offset="0.29" stop-color="#1D4897"/>
<stop offset="0.47" stop-color="#132E61"/>
<stop offset="1" stop-color="#0B1A37" stop-opacity="0"/>
</radialGradient>
<radialGradient id="paint26_radial" cx="0" cy="0" r="1" gradientUnits="userSpaceOnUse" gradientTransform="translate(7504.58 1873.36) scale(158.168 154.217)">
<stop stop-color="#317AFF"/>
<stop offset="0.1" stop-color="#2967D7"/>
<stop offset="0.29" stop-color="#1D4897"/>
<stop offset="0.47" stop-color="#132E61"/>
<stop offset="1" stop-color="#0B1A37" stop-opacity="0"/>
</radialGradient>
<radialGradient id="paint27_radial" cx="0" cy="0" r="1" gradientUnits="userSpaceOnUse" gradientTransform="translate(3058.8 2569.56) rotate(35.3823) scale(49.5362 28.5137)">
<stop stop-color="#317AFF"/>
<stop offset="0.1" stop-color="#2967D7"/>
<stop offset="0.29" stop-color="#1D4897"/>
<stop offset="0.47" stop-color="#132E61"/>
<stop offset="1" stop-color="#0B1A37" stop-opacity="0"/>
</radialGradient>
<radialGradient id="paint28_radial" cx="0" cy="0" r="1" gradientUnits="userSpaceOnUse" gradientTransform="translate(6826.15 2578.6) scale(183.407 178.825)">
<stop stop-color="#317AFF"/>
<stop offset="0.1" stop-color="#2967D7"/>
<stop offset="0.29" stop-color="#1D4897"/>
<stop offset="0.47" stop-color="#132E61"/>
<stop offset="0.64" stop-color="#0B1A37"/>
<stop offset="1" stop-color="#050C19" stop-opacity="0"/>
</radialGradient>
<linearGradient id="paint29_linear" x1="129.945" y1="59.2839" x2="129.945" y2="41.6816" gradientUnits="userSpaceOnUse">
<stop stop-color="#B000D9"/>
<stop offset="1" stop-color="#E05CFF"/>
</linearGradient>
<linearGradient id="paint30_linear" x1="10106.7" y1="3404.09" x2="10106.7" y2="2885.15" gradientUnits="userSpaceOnUse">
<stop stop-color="#B8C2FF"/>
<stop offset="1" stop-color="#7D72B3"/>
</linearGradient>
<linearGradient id="paint31_linear" x1="15332.8" y1="2701.63" x2="15332.8" y2="1789.49" gradientUnits="userSpaceOnUse">
<stop stop-color="#81A9CE"/>
<stop offset="1" stop-color="#5B729C"/>
</linearGradient>
<radialGradient id="paint32_radial" cx="0" cy="0" r="1" gradientUnits="userSpaceOnUse" gradientTransform="translate(76.4464 69.7023) rotate(-32.6778) scale(22.537 14.2921)">
<stop stop-color="#06FEFF"/>
<stop offset="0.17" stop-color="#05C4C5"/>
<stop offset="0.4" stop-color="#037F80"/>
<stop offset="0.6" stop-color="#024849"/>
<stop offset="1" stop-color="#012121" stop-opacity="0"/>
</radialGradient>
</defs>
</svg>
