<svg width="376" height="53" viewBox="0 0 376 53" fill="none" xmlns="http://www.w3.org/2000/svg">
<path d="M4 0.5C2.067 0.5 0.5 2.067 0.5 4C0.5 5.933 2.067 7.5 4 7.5V0.5ZM372 7.5C373.933 7.5 375.5 5.933 375.5 4C375.5 2.067 373.933 0.5 372 0.5V7.5ZM278.473 6.0952L280.033 9.22854L278.473 6.0952ZM197.117 46.5881L195.558 43.4548L197.117 46.5881ZM96.9836 6.05736L95.4374 9.19732L96.9836 6.05736ZM95.4374 9.19732L177.824 49.7659L180.916 43.486L98.5298 2.9174L95.4374 9.19732ZM198.677 49.7215L280.033 9.22854L276.914 2.96186L195.558 43.4548L198.677 49.7215ZM287.385 7.5H372V0.5H287.385V7.5ZM4 7.5H48.4028V0.5H4V7.5ZM48.4028 7.5H88.1483V0.5H48.4028V7.5ZM280.033 9.22854C282.317 8.09168 284.833 7.5 287.385 7.5V0.5C283.751 0.5 280.167 1.34269 276.914 2.96186L280.033 9.22854ZM177.824 49.7659C184.401 53.0047 192.113 52.9882 198.677 49.7215L195.558 43.4548C190.949 45.7485 185.535 45.76 180.916 43.486L177.824 49.7659ZM98.5298 2.9174C95.3001 1.32707 91.7483 0.5 88.1483 0.5V7.5C90.676 7.5 93.1698 8.08071 95.4374 9.19732L98.5298 2.9174Z" fill="url(#paint0_radial)"/>
<defs>
<radialGradient id="paint0_radial" cx="0" cy="0" r="1" gradientUnits="userSpaceOnUse" gradientTransform="translate(188.51 16) rotate(90) scale(27.5 207.675)">
<stop stop-color="#0AAB69"/>
<stop offset="1" stop-color="#191D2D" stop-opacity="0"/>
</radialGradient>
</defs>
</svg>
