<svg width="124" height="18" viewBox="0 0 124 18" fill="none" xmlns="http://www.w3.org/2000/svg">
<path d="M2 0.837211C1.36967 0.837211 0.858696 1.34819 0.858696 1.97852C0.858696 2.60884 1.36967 3.11982 2 3.11982V0.837211ZM122 3.11982C122.63 3.11982 123.141 2.60884 123.141 1.97852C123.141 1.34819 122.63 0.837211 122 0.837211V3.11982ZM32.3207 2.64939L31.8166 3.6733L32.3207 2.64939ZM31.8166 3.6733L58.6818 16.9022L59.6901 14.8544L32.8249 1.62549L31.8166 3.6733ZM65.4816 16.8877L92.0107 3.68347L90.9936 1.63999L64.4645 14.8442L65.4816 16.8877ZM94.4081 3.11982H122V0.837211H94.4081V3.11982ZM2 3.11982H16.4792V0.837211H2V3.11982ZM16.4792 3.11982H29.4397V0.837211H16.4792V3.11982ZM92.0107 3.68347C92.7555 3.31276 93.5761 3.11982 94.4081 3.11982V0.837211C93.2232 0.837211 92.0544 1.112 90.9936 1.63999L92.0107 3.68347ZM58.6818 16.9022C60.8265 17.9583 63.3413 17.9529 65.4816 16.8877L64.4645 14.8442C62.9617 15.5921 61.196 15.5959 59.6901 14.8544L58.6818 16.9022ZM32.8249 1.62549C31.7718 1.10691 30.6136 0.837211 29.4397 0.837211V3.11982C30.2639 3.11982 31.0771 3.30918 31.8166 3.6733L32.8249 1.62549Z" fill="url(#paint0_radial)"/>
<defs>
<radialGradient id="paint0_radial" cx="0" cy="0" r="1" gradientUnits="userSpaceOnUse" gradientTransform="translate(62.1662 5.89156) rotate(90) scale(8.96739 67.7201)">
<stop stop-color="#F86F49"/>
<stop offset="1" stop-color="#191D2D" stop-opacity="0"/>
</radialGradient>
</defs>
</svg>
