<svg width="152" height="153" viewBox="0 0 152 153" fill="none" xmlns="http://www.w3.org/2000/svg">
<g filter="url(#filter0_d)">
<path fill-rule="evenodd" clip-rule="evenodd" d="M112 76.5077C112.004 81.3017 111.075 86.0495 109.266 90.4793C107.456 94.909 104.803 98.9339 101.457 102.323C98.1102 105.713 94.137 108.401 89.7643 110.233C85.3916 112.065 80.7052 113.005 75.9734 113C75.3347 113 74.6884 113 74.0572 112.946C73.1144 112.9 72.1791 112.807 71.259 112.692C64.4768 111.792 58.0911 108.942 52.858 104.48C49.485 101.601 46.6517 98.1305 44.4938 94.2338C44.2733 93.8332 44.0604 93.4635 43.8475 93.0167C43.8475 93.0167 43.8475 93.0166 43.8475 92.9781C43.627 92.539 43.4217 92.0999 43.224 91.6531C42.5936 90.2526 42.0551 88.8114 41.612 87.3391C41.2755 86.2657 40.9938 85.1754 40.768 84.0727C40.6083 83.3023 40.4714 82.532 40.365 81.7154C40.1203 80.0009 39.9983 78.2708 40 76.5385C40 75.5293 40.038 74.5201 40.1293 73.5341C40.1749 72.9024 40.2433 72.2784 40.327 71.6544C40.7826 68.1309 41.7539 64.6959 43.2088 61.4624C46.0624 55.0775 50.6687 49.659 56.4783 45.8535C62.2878 42.0479 69.0553 40.016 75.9734 40H77.1063C77.5093 40 77.9123 40 78.3153 40.0616C80.3654 40.1928 82.4005 40.5021 84.3983 40.9861C85.5389 41.2634 86.6795 41.587 87.7516 41.9721C88.512 42.2264 89.2267 42.5114 89.9491 42.8195C90.489 43.0507 91.0136 43.2895 91.5383 43.5437L91.812 43.6747C95.2892 45.3978 98.4702 47.6763 101.233 50.4231C101.628 50.8082 101.993 51.1934 102.389 51.6171C102.64 51.8945 102.891 52.1795 103.149 52.4645C103.567 52.9422 103.97 53.4429 104.366 53.9436C107.499 58.0155 109.741 62.716 110.943 67.7332C111.646 70.6037 112.001 73.5502 112 76.5077Z" fill="white"/>
</g>
<path style="mix-blend-mode:screen" opacity="0.3" fill-rule="evenodd" clip-rule="evenodd" d="M59.2004 107.482C47.9707 98.0061 48.2954 99.7298 42.9261 90.7534C37.5568 81.7769 29.9648 79.4038 29.9648 69.3948C29.9648 57.7371 50.8343 49.9598 56.2536 44.5806C61.6728 39.2014 76.3073 25.4287 88.486 27.9851C100.665 30.5414 104.436 48.5193 108.748 54.5313C113.06 60.5433 119.378 60.2852 122.508 69.3282C125.638 78.3712 112.419 86.6565 107.815 94.9668C103.212 103.277 76.3406 121.946 59.2004 107.482Z" fill="url(#paint0_radial)"/>
<path style="mix-blend-mode:screen" d="M74.8508 129.765C105.001 129.765 129.443 105.316 129.443 75.1567C129.443 44.9976 105.001 20.5488 74.8508 20.5488C44.7004 20.5488 20.2588 44.9976 20.2588 75.1567C20.2588 105.316 44.7004 129.765 74.8508 129.765Z" fill="url(#paint1_radial)"/>
<path style="mix-blend-mode:screen" d="M119.678 87.1472C126.304 62.3756 111.6 36.921 86.836 30.2927C62.0716 23.6644 36.6244 38.3725 29.998 63.1441C23.3717 87.9157 38.0755 113.37 62.8399 119.999C87.6043 126.627 113.051 111.919 119.678 87.1472Z" fill="url(#paint2_radial)"/>
<path style="mix-blend-mode:screen" opacity="0.3" fill-rule="evenodd" clip-rule="evenodd" d="M47.0472 101.004C33.0454 90.4451 46.8141 81.2938 41.3699 63.1245C31.9715 31.782 58.4101 38.3602 73.594 38.8682C88.7778 39.3761 106.8 39.4844 112.994 52.0746C119.187 64.6649 118.821 88.5465 109.664 98.4555C100.507 108.365 74.4264 121.679 47.0472 101.004Z" fill="url(#paint3_radial)"/>
<path style="mix-blend-mode:screen" opacity="0.3" fill-rule="evenodd" clip-rule="evenodd" d="M35.7928 72.3839C34.8188 54.8974 50.6936 59.4855 61.0493 43.5894C78.9053 16.1689 90.9508 40.6167 100.374 52.4826C109.797 64.3484 121.344 78.246 115.733 91.1028C110.122 103.96 91.5918 119.081 78.1811 118.515C64.7703 117.949 37.6991 106.649 35.7928 72.3839Z" fill="url(#paint4_radial)"/>
<path style="mix-blend-mode:screen" d="M117.782 83.1411C121.566 59.4263 105.415 37.1327 81.7076 33.3469C57.9997 29.5612 35.7126 45.7168 31.9279 69.4316C28.1433 93.1464 44.2942 115.44 68.0021 119.226C91.71 123.012 113.997 106.856 117.782 83.1411Z" fill="url(#paint5_radial)"/>
<path fill-rule="evenodd" clip-rule="evenodd" d="M114.284 76.3973C114.291 86.1374 110.692 95.5353 104.183 102.779C97.6727 110.022 88.7125 114.599 79.0294 115.625C78.197 115.717 77.298 115.775 76.4156 115.809C75.8994 115.809 75.375 115.809 74.8505 115.809C67.1867 115.808 59.69 113.568 53.2818 109.364C52.8156 109.072 52.3661 108.764 51.9166 108.431C51.0842 107.856 50.3016 107.24 49.5358 106.591C45.4321 103.161 42.07 98.9309 39.6546 94.1586C38.1037 91.1143 36.9643 87.8773 36.2666 84.5326C35.9032 82.7971 35.6585 81.0388 35.534 79.27C35.4591 78.3208 35.4258 77.3548 35.4258 76.3889C35.4324 65.9325 39.5868 55.906 46.9769 48.5106C54.367 41.1152 64.3888 36.9554 74.8422 36.9443C75.6747 36.9443 76.5571 36.9443 77.4062 37.0276C80.7516 37.2429 84.0557 37.8865 87.2374 38.9428C88.203 39.2509 89.1354 39.6089 90.0677 40.0086C90.7586 40.2918 91.4329 40.5999 92.1072 40.9329C97.9962 43.813 103.076 48.1135 106.889 53.4469C110.703 58.7803 113.129 64.979 113.951 71.4844C114.164 73.1135 114.275 74.7543 114.284 76.3973Z" fill="url(#paint6_radial)"/>
<path fill-rule="evenodd" clip-rule="evenodd" d="M92.1387 40.9417L91.7474 40.9917C91.3362 41.0675 90.9126 41.0389 90.5154 40.9084C90.2293 40.8008 89.9375 40.7091 89.6413 40.6336C89.1668 40.5587 88.7173 40.3588 88.2428 40.2922C87.7543 40.1987 87.2771 40.0535 86.8193 39.8592C86.5166 39.7424 86.1813 39.7424 85.8786 39.8592C85.555 39.9093 85.2241 39.8413 84.9463 39.6677C84.588 39.5406 84.2167 39.454 83.8391 39.4096C82.8402 39.2014 81.8413 38.8766 80.8507 38.6268C80.2577 38.4968 79.6509 38.4409 79.0442 38.4603C78.5448 38.4603 78.1036 38.6019 77.6124 38.6019C77.2965 38.5905 76.982 38.5543 76.6718 38.4936C76.3388 38.4353 75.9975 38.4936 75.6645 38.452C75.2479 38.3354 74.8074 38.3354 74.3909 38.452C74.0491 38.5448 73.6961 38.5896 73.342 38.5852C72.9029 38.6188 72.4681 38.6941 72.0433 38.81C71.2889 38.998 70.5149 39.0959 69.7375 39.1015C69.2073 39.0264 68.6693 39.0264 68.1392 39.1015C67.8561 39.2097 67.7146 39.5178 67.5148 39.7177C67.096 40.0921 66.7012 40.4926 66.3327 40.9167C65.9564 41.3174 65.7274 41.8342 65.6834 42.3823C65.7453 42.9052 65.9003 43.4129 66.1413 43.8811C66.366 44.3558 66.441 44.7887 65.9498 45.0968C65.3346 45.5219 64.658 45.8504 63.9436 46.0711C63.7405 46.1683 63.515 46.2088 63.2907 46.1883C63.0665 46.1678 62.852 46.087 62.67 45.9545C62.5285 45.8296 62.4369 45.5965 62.2621 45.4965C62.0873 45.3966 61.8791 45.4965 61.6877 45.5548C61.2053 45.7163 60.7132 45.847 60.2142 45.9462C59.9062 45.9962 59.6399 46.1627 59.3402 46.2127C59.0405 46.2626 58.7158 46.0128 58.3412 46.1044C57.82 46.2743 57.2853 46.3997 56.7429 46.4791C56.3145 46.4688 55.896 46.3483 55.5276 46.1294C55.3361 46.0128 55.2861 45.9046 55.0697 45.9712C54.858 46.0515 54.6713 46.1866 54.5286 46.3625C54.3954 46.5541 54.3538 46.7872 54.2206 46.9787C54.0874 47.1702 53.9542 47.3951 53.8294 47.6282C53.6019 48.0575 53.3431 48.4694 53.0552 48.8606C52.8471 49.1354 52.7056 49.5101 52.4808 49.7599C52.3188 49.89 52.143 50.0017 51.9563 50.093C51.5484 50.3844 51.1239 50.6426 50.716 50.9257C49.9502 51.5252 49.2259 52.1914 48.4517 52.7743C47.7916 53.2164 47.0819 53.5797 46.3373 53.8568C45.9128 54.0316 45.5049 54.1565 45.0554 54.3314C44.8761 54.3775 44.7049 54.4505 44.5476 54.5479C44.4103 54.7205 44.2878 54.9043 44.1813 55.0975C43.7876 55.536 43.439 56.0131 43.1407 56.5214C42.9806 56.8179 42.8522 57.1305 42.7578 57.454C42.608 57.9036 42.3665 58.2867 42.2167 58.7613C41.9087 59.6856 41.8504 60.6598 41.5008 61.5841C41.2903 62.1076 41.0456 62.6166 40.7682 63.108C40.4185 63.9879 40.2133 64.9187 40.1605 65.8642C40.0992 66.4192 40.1188 66.9802 40.2188 67.5295C40.2953 68.1035 40.3176 68.6834 40.2854 69.2615C40.2124 69.887 39.9377 70.4716 39.5029 70.9269C39.145 71.3599 38.6039 71.5265 38.2043 71.9095C37.8239 72.2245 37.5218 72.6236 37.3219 73.0753C37.2953 73.2936 37.2814 73.5132 37.2803 73.7331C37.197 74.2244 37.0722 74.6824 37.0056 75.1737C36.9375 75.7707 36.9069 76.3714 36.914 76.9723C36.914 77.2804 36.914 77.5968 36.914 77.9049C36.914 78.213 37.0389 78.4711 37.0555 78.7376C37.0722 79.004 37.0555 79.1539 37.0555 79.3538C37.0555 79.5536 37.1887 79.8284 37.247 80.0532C37.3802 80.6028 37.4801 81.1357 37.5883 81.7186C37.7051 82.2275 37.8553 82.7282 38.0378 83.2175C38.2484 83.891 38.4125 84.5782 38.529 85.2742C38.6288 85.7988 38.6288 86.3317 38.7038 86.8646C38.7787 87.3976 38.8619 87.6973 38.8786 88.1387C38.8786 88.7882 38.7454 89.4293 38.7371 90.0788C38.8361 91.1817 39.0652 92.269 39.4197 93.318C39.4946 93.6178 39.5695 93.9175 39.6528 94.209C36.6144 88.1933 35.167 81.4995 35.4485 74.7656C35.73 68.0317 37.7311 61.4822 41.2609 55.7413C44.7907 50.0004 49.7317 45.2595 55.6128 41.9706C61.4939 38.6817 68.1192 36.9543 74.857 36.9531C75.6895 36.9531 76.5635 36.9531 77.4126 37.0364C82.5297 37.3604 87.5332 38.6873 92.1387 40.9417Z" fill="url(#paint7_linear)"/>
<path style="mix-blend-mode:screen" d="M69.0893 69.6459C79.7867 63.2748 85.1486 52.549 81.0654 45.6893C76.9823 38.8296 65.0003 38.4336 54.3029 44.8048C43.6055 51.176 38.2436 61.9017 42.3268 68.7614C46.4099 75.6211 58.3919 76.0171 69.0893 69.6459Z" fill="url(#paint8_radial)"/>
<g opacity="0.5">
<g style="mix-blend-mode:multiply" opacity="0.4">
<path style="mix-blend-mode:multiply" opacity="0.4" fill-rule="evenodd" clip-rule="evenodd" d="M70.2666 87.3719C70.2627 87.3415 70.2627 87.3107 70.2666 87.2803C70.5134 87.5053 70.6947 87.7931 70.791 88.113C70.5913 88.0797 70.3499 87.5884 70.2666 87.3719Z" fill="url(#paint9_linear)"/>
<path style="mix-blend-mode:multiply" opacity="0.4" fill-rule="evenodd" clip-rule="evenodd" d="M113.984 71.5009C113.824 71.2069 113.637 70.9282 113.426 70.6682C112.99 70.162 112.409 69.8017 111.761 69.6357C111.287 69.4775 110.737 69.2526 110.33 69.6357C109.929 70.0653 109.593 70.5505 109.331 71.0762C109.156 71.401 108.889 72.0671 108.457 72.1421C108.024 72.217 107.508 71.6091 107.233 71.3094C106.817 70.893 106.609 70.1936 106.134 69.8605C105.757 69.6143 105.355 69.4078 104.935 69.2443C104.169 68.9616 103.362 68.8042 102.546 68.778C102.008 68.6889 101.495 68.4874 101.039 68.1868C100.502 67.987 99.9434 67.8501 99.3745 67.7788L97.9094 67.4623C97.4211 67.4128 96.9622 67.2052 96.6025 66.8711C96.1446 66.3715 95.82 65.7387 95.3288 65.2807C94.4298 64.448 93.3809 64.9893 92.2738 64.9893C91.3581 64.9893 90.6089 64.4147 89.6848 64.1566C88.6027 63.9151 87.687 63.7569 86.996 62.8076C86.3051 61.8583 86.5632 60.9674 86.2135 60.0431C85.5309 58.2278 83.0502 57.6699 81.3354 57.545C79.9618 57.4701 78.7048 57.953 77.3563 57.9863C76.1742 57.9863 75.1669 57.7115 74.4094 58.7607C73.6519 59.8099 72.7445 61.034 72.0869 62.1914C71.4258 63.0864 70.8673 64.0528 70.422 65.0725C70.2472 65.6221 70.2805 66.2466 70.1306 66.8045C69.9037 67.5692 69.5491 68.2899 69.0817 68.9362C68.5394 69.4902 67.8911 69.9291 67.1754 70.2269C66.6264 70.5662 66.1323 70.9874 65.7103 71.4759C65.1224 72.0482 64.5875 72.6725 64.112 73.3411C63.9396 73.6654 63.7209 73.9627 63.4627 74.2238C63.188 74.4486 62.855 74.5735 62.5886 74.8067C62.3223 75.0398 62.2057 75.2563 61.981 75.4479C61.5741 75.7981 61.0733 76.0211 60.5408 76.089C59.7084 76.089 58.8759 75.4562 58.185 76.3055C57.6596 76.8758 57.3631 77.6201 57.3525 78.3956C57.534 78.9877 57.8635 79.5236 58.3098 79.9527C58.9175 80.7271 60.1329 81.9928 59.8582 83.1169C59.75 83.5583 59.392 83.7997 59.4919 84.2744C59.6018 84.7073 59.6605 85.1517 59.6667 85.5984C59.6667 85.8981 59.5336 86.531 59.6667 86.8058C59.7999 87.0806 60.6823 87.4386 61.0569 87.6385C61.8894 87.9965 62.6136 88.5211 63.4377 88.9458C63.9115 89.2909 64.4158 89.592 64.9445 89.8451C65.4941 89.9506 66.0504 90.0174 66.6094 90.0449C66.959 90.1115 67.3669 90.1532 67.7165 90.2448C68.0661 90.3364 68.2077 90.5279 68.4657 90.5945C69.5308 90.7112 70.6055 90.7112 71.6707 90.5945C72.305 90.6965 72.9552 90.6245 73.552 90.3863C73.8408 90.2233 74.0743 89.9776 74.2226 89.6809C74.3709 89.3842 74.4273 89.0499 74.3844 88.721C74.2918 88.0623 74.098 87.4219 73.81 86.8224C73.7216 86.4362 73.5816 86.0637 73.3938 85.7149C73.2107 85.4651 72.9776 85.4651 72.7528 85.3069C72.5281 85.1487 72.3449 84.7907 71.8621 84.7074C71.5032 84.6619 71.141 84.7607 70.8549 84.9822C70.4303 85.2903 69.6644 86.0064 69.7976 86.5643C69.8949 86.8269 70.0516 87.0635 70.2555 87.2554C70.2555 86.964 70.3804 86.7391 70.422 86.4227C71.2544 86.6226 72.4781 86.8474 73.0941 87.5052C72.9808 87.7946 72.7843 88.0439 72.5295 88.2217C72.2747 88.3995 71.9729 88.4979 71.6623 88.5045C70.6467 88.5045 69.7061 88.6543 68.9069 87.9299C68.2576 87.3387 68.1993 86.531 67.8164 85.7732C67.6471 85.3901 67.4228 85.0339 67.1504 84.7157C66.9237 84.4586 66.7229 84.1797 66.5511 83.883C66.2348 83.3917 65.8935 82.5923 66.3596 82.1094C66.9821 81.6303 67.6616 81.2304 68.3825 80.9186C69.3231 80.3774 70.3054 79.9028 71.2461 79.3615C72.5697 78.6121 73.6352 77.6295 75.2252 77.5129C76.5567 77.3954 77.8881 77.7394 78.9962 78.4872C79.5508 79.0414 79.9523 79.73 80.1616 80.4856C80.4758 81.1498 80.9473 81.7272 81.5352 82.1677C82.2427 82.6923 82.992 83.1919 83.7162 83.7082C84.6735 84.391 85.3811 84.5908 86.0387 85.6317C86.9378 87.3308 87.6228 89.1348 88.0782 91.0025C88.3556 91.9251 88.5835 92.8618 88.7608 93.8087C88.985 94.512 89.2633 95.1968 89.5933 95.8571C89.8097 96.4566 90.0887 97.0315 90.4257 97.5725C90.6213 97.8202 90.7682 98.1027 90.8586 98.4052C91.1 99.5876 89.9512 100.437 89.3602 101.303C88.633 102.208 88.0491 103.219 87.6287 104.301C87.354 105.192 87.687 105.641 87.8535 106.449C88.1448 107.865 87.4955 108.731 86.5881 109.705C86.1245 110.224 85.5574 110.641 84.9232 110.929C83.1808 111.789 81.6118 112.964 80.2948 114.393C79.9592 114.879 79.5288 115.293 79.0295 115.609C82.3886 115.258 85.6878 114.471 88.8441 113.269C97.104 110.122 104.07 104.294 108.628 96.7192C113.185 89.1439 115.071 80.2584 113.984 71.4842V71.5009ZM69.9891 72.0005C69.7893 72.5085 68.5656 72.7832 68.0994 72.9248C67.9246 72.9748 67.6582 73.058 67.5001 72.9248C67.0672 72.5751 68.5323 71.4676 68.524 71.4842L68.0994 71.2761C68.474 71.2761 68.5823 70.8181 68.9319 70.8264C69.1069 70.889 69.2722 70.9759 69.423 71.0846C69.7227 71.2844 70.1473 71.5842 69.9891 72.0005ZM83.2334 62.8409C82.9087 64.6312 80.9358 65.8969 79.3458 66.4631C78.568 66.7485 77.7433 66.8841 76.9151 66.8628C76.1487 66.9462 75.3756 66.9462 74.6092 66.8628C73.2939 66.5381 72.9443 65.6138 73.3605 65.0059C73.1108 64.3647 72.7528 63.7819 73.0525 63.124C73.2945 62.6375 73.5728 62.1699 73.885 61.7251C74.4344 60.8924 75.3001 60.8924 76.1825 60.5926C78.0555 59.9848 79.9868 59.3353 81.8265 60.3678C82.2848 60.5878 82.665 60.9425 82.9164 61.3844C83.1677 61.8263 83.2783 62.3345 83.2334 62.8409ZM100.931 99.8457C100.199 102.102 98.2341 103.176 96.1946 103.901C95.0957 104.317 94.0968 104.883 93.0313 105.35C92.7479 105.532 92.4269 105.648 92.0924 105.688C91.7579 105.728 91.4186 105.692 91.1 105.583C90.8896 105.515 90.6982 105.398 90.541 105.243C90.3838 105.087 90.2652 104.897 90.1948 104.687C90.1244 104.477 90.1041 104.254 90.1355 104.035C90.1669 103.816 90.2492 103.608 90.3758 103.426C90.9252 102.427 92.0407 101.586 91.8242 100.32C91.6616 99.5516 91.6194 98.7622 91.6994 97.9805C91.8256 96.7272 91.8812 95.4679 91.8658 94.2084C91.0334 95.8072 90.9668 94.4665 91.0334 93.5755C91.0294 93.2654 91.1083 92.9599 91.262 92.6905C91.4157 92.4211 91.6385 92.1977 91.9075 92.0434C93.9553 90.6361 96.7773 92.0434 98.6337 93.1425C99.7928 93.9181 100.669 95.0489 101.131 96.3651C101.47 97.5134 101.399 98.7438 100.931 99.8457ZM100.282 76.3388C99.6742 76.3388 98.7918 75.6144 98.3839 75.273C97.9891 74.8891 97.6193 74.4802 97.2768 74.0489C96.9041 73.6999 96.5668 73.315 96.2695 72.8998C96.0135 72.3639 95.8046 71.8066 95.6452 71.2344C95.3678 70.4347 95.0167 69.6625 94.5963 68.9279C94.4298 69.4442 94.3882 68.9279 94.7961 68.7447C95.1646 68.6491 95.5514 68.6491 95.9199 68.7447C96.7247 68.8834 97.4506 69.3131 97.9594 69.9521C98.6004 70.6599 99.3496 71.2927 99.9739 72.0088C100.598 72.725 101.539 73.7242 101.564 74.5069C101.581 75.1814 100.923 76.3388 100.282 76.3388Z" fill="url(#paint10_linear)"/>
<path style="mix-blend-mode:multiply" opacity="0.4" fill-rule="evenodd" clip-rule="evenodd" d="M106.593 53.0238C106.196 53.3375 105.772 53.6161 105.327 53.8565C105 54.1574 104.652 54.4357 104.287 54.6892C103.757 54.8231 103.196 54.7641 102.705 54.5227C101.623 54.0813 100.94 53.69 99.7999 54.0897C99.4694 54.1802 99.1328 54.247 98.7927 54.2895C98.5013 54.3561 98.4264 54.5143 98.0685 54.5143C97.3942 54.5143 96.7698 53.8732 96.337 53.3985C96.1592 53.1737 95.9231 53.002 95.6545 52.9021C95.3859 52.8023 95.095 52.7781 94.8136 52.8323C94.0977 52.8323 93.2652 53.0322 93.1071 53.8815C92.9156 54.9057 94.1643 55.6884 94.8219 56.2047C95.7792 56.9625 94.7137 57.1623 94.3224 57.8701C93.9312 58.5779 94.6887 58.9526 94.131 59.5355C93.0488 60.7096 90.5015 61.5756 89.0697 60.7512C88.0708 60.1683 87.5963 59.0858 86.8138 58.2531C86.3726 57.7868 85.8315 57.4204 85.3903 56.9541C84.7442 56.2156 84.2316 55.3703 83.8752 54.4561C84.2165 55.3804 83.6338 54.073 83.4424 52.9822C83.4309 52.5487 83.5103 52.1175 83.6754 51.7165C83.767 51.2419 83.5006 51.0504 83.2925 50.6756C82.9096 49.9512 82.2853 49.3517 82.868 48.5773C83.2304 48.1011 83.6343 47.6581 84.075 47.2533C84.4969 46.76 84.9908 46.3333 85.5401 45.9876C85.615 45.6462 84.5412 44.6137 84.3081 44.3222C83.7919 43.5776 83.2066 42.8834 82.56 42.2488C82.2936 42.0157 81.7775 41.7742 81.611 41.4661C81.2447 40.7666 82.3352 39.8923 82.8097 39.5592C83.5569 39.0575 84.4515 38.8228 85.3487 38.8931C85.9563 38.8931 86.5973 38.8931 87.2383 38.9514C88.204 39.2594 89.1363 39.6175 90.0686 40.0172C90.7596 40.3003 91.4339 40.6084 92.1081 40.9415C97.839 43.7427 102.808 47.8878 106.593 53.0238Z" fill="url(#paint11_linear)"/>
<path style="mix-blend-mode:multiply" opacity="0.4" fill-rule="evenodd" clip-rule="evenodd" d="M95.2372 61.3926C96.0697 61.5924 96.8605 61.8339 97.6597 62.1087C97.6127 62.1879 97.5946 62.2808 97.6082 62.3718C97.6219 62.4629 97.6665 62.5464 97.7346 62.6083C97.4219 62.9213 97.0354 63.1505 96.6108 63.2745C96.413 63.3248 96.2063 63.3284 96.0069 63.2851C95.8076 63.2417 95.621 63.1526 95.462 63.0247C95.0624 62.7998 94.5796 62.7832 94.6296 62.2419C94.6795 61.7007 95.2123 61.4675 95.6951 61.4092L95.2372 61.3926Z" fill="url(#paint12_linear)"/>
<path style="mix-blend-mode:multiply" opacity="0.4" fill-rule="evenodd" clip-rule="evenodd" d="M50.4024 108.239C50.6771 108.397 50.9601 108.547 51.2348 108.697C50.6904 108.841 50.1324 108.928 49.5699 108.955C49.445 108.422 49.1787 107.84 47.4805 106.832C48.4825 107.24 49.4583 107.71 50.4024 108.239Z" fill="url(#paint13_linear)"/>
<path style="mix-blend-mode:multiply" opacity="0.4" fill-rule="evenodd" clip-rule="evenodd" d="M85.9735 102.328C85.6752 102.869 85.5312 103.483 85.5573 104.101C85.5573 104.692 85.5573 105.292 85.5573 105.883C85.4417 106.636 85.0715 107.327 84.5084 107.84C83.9054 108.507 83.2421 109.118 82.5272 109.664C82.1776 109.972 81.9861 110.396 81.6948 110.729C81.4034 111.062 80.9955 111.329 80.7375 111.67C80.5182 112.031 80.2363 112.35 79.905 112.611C79.4398 112.981 79.0004 113.381 78.5897 113.81C77.8822 114.476 77.1663 115.201 76.3838 115.842C75.8676 115.842 75.3432 115.842 74.8187 115.842C67.1549 115.842 59.6581 113.602 53.25 109.397C53.7078 109.514 54.1657 109.639 54.6235 109.722C55.0814 109.805 55.5975 110.013 56.097 110.146C57.0862 110.276 58.088 110.276 59.0771 110.146C60.473 110.198 61.8637 110.345 63.2394 110.588C64.1413 110.813 65.0846 110.813 65.9865 110.588C66.8054 110.348 67.5933 110.013 68.334 109.589C69.8823 108.681 71.722 108.756 73.3287 107.857C74.0196 107.49 74.569 106.899 75.2433 106.483C75.6322 106.213 76.0446 105.979 76.4753 105.783C76.8 105.675 77.0913 105.667 77.4243 105.542C78.2568 105.234 79.0892 105.067 79.88 104.709C80.847 104.402 81.7373 103.892 82.491 103.212C83.2448 102.533 83.8446 101.701 84.2504 100.77C84.4312 100.16 84.5044 99.5236 84.4668 98.8885C84.4668 98.6054 84.4668 98.3139 84.4668 98.0558C84.4602 97.7868 84.4038 97.5214 84.3003 97.2731C84.1005 96.5653 84.4751 96.2988 84.65 95.7159C84.8248 95.1331 85.0079 94.7167 85.1411 94.1588C85.3203 93.5353 85.2851 92.8697 85.0412 92.2686C84.958 91.9855 84.7748 91.6274 84.7249 91.3776C84.682 91.1022 84.6625 90.8236 84.6666 90.5449C84.7837 91.0442 84.9597 91.5278 85.191 91.9855C85.5415 92.5349 85.7949 93.1405 85.9403 93.7758C85.923 94.3848 85.8165 94.988 85.6239 95.5661C85.4574 96.2405 85.7405 96.6735 85.7238 97.348C85.6993 97.6265 85.7161 97.9071 85.7738 98.1807C85.857 98.5138 85.882 98.8052 85.9486 99.13C86.0734 99.6712 86.448 100.187 86.5729 100.695C86.7727 101.32 86.2483 101.845 85.9735 102.328Z" fill="url(#paint14_linear)"/>
</g>
<path style="mix-blend-mode:multiply" opacity="0.4" fill-rule="evenodd" clip-rule="evenodd" d="M55.5874 102.986C55.5816 103.967 55.3348 104.931 54.8688 105.793C54.4028 106.656 53.7319 107.39 52.9152 107.932C52.6086 108.169 52.2693 108.359 51.908 108.499C51.0755 107.924 50.293 107.308 49.5272 106.658C45.4235 103.229 42.0614 98.9986 39.646 94.2263C38.095 91.1821 36.9557 87.9451 36.2579 84.6004C35.8946 82.8648 35.6499 81.1066 35.5254 79.3378C35.6586 79.2045 35.7918 79.0713 35.9333 78.9131C36.0236 80.1533 36.3044 81.3723 36.7657 82.527C37.0404 83.4596 37.3651 84.3672 37.5982 85.3082C37.7224 86.054 38.0064 86.7641 38.4306 87.3899C38.7025 87.7485 39.0727 88.0205 39.4962 88.1726C39.8541 88.3308 40.1288 88.6306 40.4868 88.7638C41.3157 89.069 42.1924 89.224 43.0757 89.2218C43.4385 89.1788 43.8057 89.2516 44.1246 89.43C44.3826 89.5799 44.6074 89.788 44.8571 89.9546C45.432 90.345 45.96 90.8004 46.4305 91.3119C47.1464 92.1446 47.1214 93.2437 47.6958 94.1347C47.916 94.4708 48.2241 94.7401 48.5866 94.9134C48.9491 95.0866 49.3522 95.1571 49.7519 95.1173C51.4834 95.1173 52.9985 97.1574 53.9142 98.448C54.8335 99.8016 55.408 101.36 55.5874 102.986Z" fill="url(#paint15_linear)"/>
</g>
<path style="mix-blend-mode:screen" opacity="0.5" fill-rule="evenodd" clip-rule="evenodd" d="M24.0713 57.5861C24.0713 57.5861 19.4846 76.5632 23.8133 81.3761C30.0067 88.3124 55.5379 65.7965 83.2668 56.2288C110.996 46.6612 123.332 61.0834 125.597 60.1592C127.861 59.2349 116.973 31.373 79.1212 28.7251C41.2697 26.0771 30.04 42.8642 24.0713 57.5861Z" fill="url(#paint16_linear)"/>
<path style="mix-blend-mode:screen" opacity="0.5" fill-rule="evenodd" clip-rule="evenodd" d="M129.443 72.175C129.443 104.791 98.9335 133.877 68.0663 130.971C35.6008 127.915 20.2588 105.391 20.2588 72.7745C20.2588 40.158 38.2813 26.5352 70.88 26.5352C103.479 26.5352 129.443 39.5668 129.443 72.175Z" fill="url(#paint17_radial)"/>
<g style="mix-blend-mode:screen" opacity="0.5">
<path style="mix-blend-mode:screen" opacity="0.5" d="M72.3037 131.588C70.8719 131.588 69.4484 131.522 68.0249 131.388C36.9496 128.457 19.8428 107.648 19.8428 72.7752C19.8428 41.3828 36.5417 26.1445 70.8802 26.1445C108.34 26.1445 129.859 42.9316 129.859 72.2007C129.859 88.4215 122.417 104.501 109.456 116.333C98.6257 126.142 85.2982 131.588 72.3037 131.588ZM70.8802 26.9522C37.0994 26.9522 20.6752 41.9407 20.6752 72.7503C20.6752 107.132 37.5157 127.65 68.1248 130.531C82.2015 131.855 97.069 126.426 108.915 115.634C121.701 103.976 129.043 88.1551 129.043 72.1507C129.027 43.4395 107.833 26.9522 70.8802 26.9522Z" fill="url(#paint18_radial)"/>
</g>
<path style="mix-blend-mode:screen" opacity="0.5" fill-rule="evenodd" clip-rule="evenodd" d="M23.3477 63.1231C31.2158 74.4505 41.8081 83.6141 54.1483 89.7692L72.5953 76.6044C72.5953 76.6044 60.2251 45.9613 58.76 29.1826C58.7517 29.1993 25.0958 32.8048 23.3477 63.1231Z" fill="url(#paint19_linear)"/>
<path fill-rule="evenodd" clip-rule="evenodd" d="M24.0622 65.5894C26.0933 68.4705 32.3284 61.5175 37.5728 54.2315C42.8172 46.9454 45.7225 42.6904 44.9899 38.5269C44.2574 34.3634 32.5032 41.8577 28.3409 47.5949C24.1787 53.3321 22.1725 62.8914 24.0622 65.5894Z" fill="white"/>
<path fill-rule="evenodd" clip-rule="evenodd" d="M24.3634 66.7305C24.3634 66.7305 21.633 69.6116 23.1896 71.9181C24.7463 74.2247 26.7692 72.6509 26.4612 70.9939C26.1532 69.3368 25.5538 67.0136 24.3634 66.7305Z" fill="white"/>
<path fill-rule="evenodd" clip-rule="evenodd" d="M101.063 117.598C98.8407 118.004 96.82 119.148 95.3276 120.845C92.8802 123.668 96.4597 123.21 98.4742 121.536C100.489 119.863 101.063 118.389 101.063 117.598Z" fill="#BFFFFF"/>
<path style="mix-blend-mode:screen" fill-rule="evenodd" clip-rule="evenodd" d="M99.033 121.214C99.033 121.214 75.0086 131.789 53.1318 121.93C53.1318 121.93 68.7486 139.033 99.033 121.214Z" fill="url(#paint20_radial)"/>
<path style="mix-blend-mode:screen" fill-rule="evenodd" clip-rule="evenodd" d="M29.9648 45.4213C29.9648 45.4213 36.5245 32.9309 63.7789 28.7675C91.0333 24.604 110.396 37.2942 117.422 43.9141C117.422 43.9141 98.9415 29.0839 68.7236 31.7152C38.5058 34.3465 29.9648 45.4213 29.9648 45.4213Z" fill="url(#paint21_radial)"/>
<path style="mix-blend-mode:screen" opacity="0.5" fill-rule="evenodd" clip-rule="evenodd" d="M117.423 66.2549C118.255 60.4926 127.612 58.2943 127.612 58.2943C126.921 56.0106 126.056 53.7835 125.023 51.6328C125.023 51.6328 121.627 52.1741 110.297 59.127C98.9673 66.08 69.5069 92.3597 46.548 94.8578C23.589 97.3559 21.9824 90.7693 21.9824 90.7693L22.7316 93.5338C22.7316 93.5338 47.9964 100.87 44.3753 106.216C40.0382 112.694 27.2102 105.5 27.2102 105.5L27.9261 106.832C27.9261 106.832 46.3815 115.092 75.6754 112.769C104.969 110.446 122.867 98.2385 122.867 98.2385C128.045 89.9116 129.41 73.4576 129.41 73.4576C129.41 73.4576 116.574 72.0171 117.423 66.2549ZM63.7797 103.21C54.8225 105.591 44.9164 101.386 44.5002 99.2461C43.9507 96.3733 68.9658 88.8291 71.6879 89.0456C74.41 89.2621 76.4828 99.829 63.7797 103.21ZM114.318 69.2109C117.314 69.4191 121.41 74.5318 120.045 76.4304C118.68 78.3289 113.627 80.9852 111.795 79.07C109.964 77.1548 110.996 68.9861 114.318 69.2109ZM117.423 99.829C112.062 104.667 93.5064 108.83 90.135 106.832C85.9311 104.334 116.69 77.0049 122.992 77.796C129.293 78.587 122.792 94.9994 117.423 99.829Z" fill="url(#paint22_linear)"/>
<path style="mix-blend-mode:screen" opacity="0.5" fill-rule="evenodd" clip-rule="evenodd" d="M37.1816 118.532C37.1816 118.532 45.9806 124.635 76.0903 121.571C106.2 118.507 118.32 105.658 118.32 105.658L114.991 109.947C109.581 113.525 103.794 116.496 97.7339 118.806C87.7446 122.628 67.924 122.404 63.7867 130.406C63.7784 130.464 47.3708 127.966 37.1816 118.532Z" fill="url(#paint23_linear)"/>
<defs>
<filter id="filter0_d" x="0" y="0" width="152" height="153" filterUnits="userSpaceOnUse" color-interpolation-filters="sRGB">
<feFlood flood-opacity="0" result="BackgroundImageFix"/>
<feColorMatrix in="SourceAlpha" type="matrix" values="0 0 0 0 0 0 0 0 0 0 0 0 0 0 0 0 0 0 127 0"/>
<feOffset/>
<feGaussianBlur stdDeviation="20"/>
<feColorMatrix type="matrix" values="0 0 0 0 0.0855556 0 0 0 0 0.404161 0 0 0 0 0.641667 0 0 0 1 0"/>
<feBlend mode="normal" in2="BackgroundImageFix" result="effect1_dropShadow"/>
<feBlend mode="normal" in="SourceGraphic" in2="effect1_dropShadow" result="shape"/>
</filter>
<radialGradient id="paint0_radial" cx="0" cy="0" r="1" gradientUnits="userSpaceOnUse" gradientTransform="translate(76.84 85.2826) scale(68.5355 68.5555)">
<stop stop-color="#31D1F9"/>
<stop offset="1" stop-opacity="0"/>
</radialGradient>
<radialGradient id="paint1_radial" cx="0" cy="0" r="1" gradientUnits="userSpaceOnUse" gradientTransform="translate(22240.3 7182.92) scale(7160.28 7162.37)">
<stop stop-color="#31D1F9"/>
<stop offset="1" stop-opacity="0"/>
</radialGradient>
<radialGradient id="paint2_radial" cx="0" cy="0" r="1" gradientUnits="userSpaceOnUse" gradientTransform="translate(18921.2 6118.6) scale(5176.46 5177.97)">
<stop stop-color="#31D1F9"/>
<stop offset="1" stop-opacity="0"/>
</radialGradient>
<radialGradient id="paint3_radial" cx="0" cy="0" r="1" gradientUnits="userSpaceOnUse" gradientTransform="translate(16212.6 6026.22) scale(5405.84 5140.09)">
<stop stop-color="#31D1F9"/>
<stop offset="1" stop-opacity="0"/>
</radialGradient>
<radialGradient id="paint4_radial" cx="0" cy="0" r="1" gradientUnits="userSpaceOnUse" gradientTransform="translate(3645.08 19691.4) rotate(49.7982) scale(5663.08 6078.25)">
<stop stop-color="#31D1F9"/>
<stop offset="1" stop-opacity="0"/>
</radialGradient>
<radialGradient id="paint5_radial" cx="0" cy="0" r="1" gradientUnits="userSpaceOnUse" gradientTransform="translate(74.8529 76.2873) scale(43.4705 43.4831)">
<stop stop-color="#FFFFF9"/>
<stop offset="0.09" stop-color="#F9F9F3"/>
<stop offset="0.22" stop-color="#E8E8E3"/>
<stop offset="0.36" stop-color="#CCCCC7"/>
<stop offset="0.52" stop-color="#A5A5A1"/>
<stop offset="0.68" stop-color="#737370" stop-opacity="0"/>
<stop offset="0.86" stop-color="#373736" stop-opacity="0"/>
<stop offset="1" stop-opacity="0"/>
</radialGradient>
<radialGradient id="paint6_radial" cx="0" cy="0" r="1" gradientUnits="userSpaceOnUse" gradientTransform="translate(55.6376 52.1826) scale(66.1131 66.1323)">
<stop offset="0.01" stop-color="#B1FFFF"/>
<stop offset="0.29" stop-color="#B1FDFF"/>
<stop offset="0.44" stop-color="#AFF5FF"/>
<stop offset="0.55" stop-color="#ACE8FF"/>
<stop offset="0.62" stop-color="#A9DBFF"/>
<stop offset="0.65" stop-color="#A2D7FE"/>
<stop offset="0.7" stop-color="#8FCAFC"/>
<stop offset="0.76" stop-color="#6FB5F9"/>
<stop offset="0.82" stop-color="#4399F4"/>
<stop offset="0.89" stop-color="#0C75EE"/>
<stop offset="0.91" stop-color="#006DED"/>
</radialGradient>
<linearGradient id="paint7_linear" x1="35.4073" y1="65.5727" x2="92.1387" y2="65.5727" gradientUnits="userSpaceOnUse">
<stop offset="0.01" stop-color="#B0E1FF"/>
<stop offset="0.29" stop-color="#ADDEFF"/>
<stop offset="0.5" stop-color="#A5D5FF"/>
<stop offset="0.68" stop-color="#98C5FF"/>
<stop offset="0.85" stop-color="#85AEFF"/>
<stop offset="1" stop-color="#6D93FF"/>
</linearGradient>
<radialGradient id="paint8_radial" cx="0" cy="0" r="1" gradientUnits="userSpaceOnUse" gradientTransform="translate(62.009 57.149) rotate(-30.7773) scale(22.5923 14.4773)">
<stop stop-color="white"/>
<stop offset="0.17" stop-color="#C5C5C5"/>
<stop offset="0.4" stop-color="#808080"/>
<stop offset="0.6" stop-color="#494949" stop-opacity="0"/>
<stop offset="0.78" stop-color="#212121" stop-opacity="0"/>
<stop offset="0.92" stop-color="#090909" stop-opacity="0"/>
<stop offset="1" stop-opacity="0"/>
</radialGradient>
<linearGradient id="paint9_linear" x1="70.2833" y1="87.68" x2="70.8077" y2="87.68" gradientUnits="userSpaceOnUse">
<stop stop-color="#E8DDFF"/>
<stop offset="1" stop-color="#AA8AD8"/>
</linearGradient>
<linearGradient id="paint10_linear" x1="10447.9" y1="4664.34" x2="14340.4" y2="4664.34" gradientUnits="userSpaceOnUse">
<stop stop-color="#E8DDFF"/>
<stop offset="1" stop-color="#AA8AD8"/>
</linearGradient>
<linearGradient id="paint11_linear" x1="5381.8" y1="823.055" x2="6135.98" y2="823.055" gradientUnits="userSpaceOnUse">
<stop stop-color="#E8DDFF"/>
<stop offset="1" stop-color="#AA8AD8"/>
</linearGradient>
<linearGradient id="paint12_linear" x1="800.964" y1="157.923" x2="812.683" y2="157.923" gradientUnits="userSpaceOnUse">
<stop stop-color="#E8DDFF"/>
<stop offset="1" stop-color="#AA8AD8"/>
</linearGradient>
<linearGradient id="paint13_linear" x1="688.119" y1="329.572" x2="705.051" y2="329.572" gradientUnits="userSpaceOnUse">
<stop stop-color="#E8DDFF"/>
<stop offset="1" stop-color="#AA8AD8"/>
</linearGradient>
<linearGradient id="paint14_linear" x1="5978.94" y1="2601.8" x2="7316.63" y2="2601.8" gradientUnits="userSpaceOnUse">
<stop stop-color="#E8DDFF"/>
<stop offset="1" stop-color="#AA8AD8"/>
</linearGradient>
<linearGradient id="paint15_linear" x1="3170.41" y1="2676.82" x2="3654.31" y2="2676.82" gradientUnits="userSpaceOnUse">
<stop stop-color="#E8DDFF"/>
<stop offset="1" stop-color="#AA8AD8"/>
</linearGradient>
<linearGradient id="paint16_linear" x1="21.9652" y1="55.5627" x2="125.88" y2="55.5627" gradientUnits="userSpaceOnUse">
<stop stop-color="#A4FFE8"/>
<stop offset="0.2" stop-color="#78BBAA"/>
<stop offset="0.42" stop-color="#4E796E"/>
<stop offset="0.61" stop-color="#2C453F"/>
<stop offset="0.78" stop-color="#141F1D"/>
<stop offset="0.91" stop-color="#050808"/>
<stop offset="1"/>
</linearGradient>
<radialGradient id="paint17_radial" cx="0" cy="0" r="1" gradientUnits="userSpaceOnUse" gradientTransform="translate(74.8508 78.8531) scale(53.4598 53.4754)">
<stop offset="0.89"/>
<stop offset="0.9" stop-color="#000506"/>
<stop offset="0.92" stop-color="#001217"/>
<stop offset="0.94" stop-color="#002932"/>
<stop offset="0.96" stop-color="#004858"/>
<stop offset="0.99" stop-color="#006F89"/>
<stop offset="1" stop-color="#008BAB"/>
</radialGradient>
<radialGradient id="paint18_radial" cx="0" cy="0" r="1" gradientUnits="userSpaceOnUse" gradientTransform="translate(22409.3 7409.31) scale(7120.26 6824.32)">
<stop offset="0.89" stop-opacity="0"/>
<stop offset="0.9" stop-color="#000506"/>
<stop offset="0.92" stop-color="#001217"/>
<stop offset="0.94" stop-color="#002932"/>
<stop offset="0.96" stop-color="#004858"/>
<stop offset="0.99" stop-color="#006F89"/>
<stop offset="1" stop-color="#008BAB"/>
</radialGradient>
<linearGradient id="paint19_linear" x1="31.3891" y1="42.489" x2="75.0761" y2="73.0701" gradientUnits="userSpaceOnUse">
<stop stop-color="#BDFFE8"/>
<stop offset="0.2" stop-color="#8BBBAA"/>
<stop offset="0.42" stop-color="#5A796E"/>
<stop offset="0.895833" stop-color="#171F1D" stop-opacity="0"/>
</linearGradient>
<radialGradient id="paint20_radial" cx="0" cy="0" r="1" gradientUnits="userSpaceOnUse" gradientTransform="translate(76.5201 124.347) rotate(-12.0982) scale(16.5364 16.5408)">
<stop stop-color="#2C63D9"/>
<stop offset="1" stop-opacity="0"/>
</radialGradient>
<radialGradient id="paint21_radial" cx="0" cy="0" r="1" gradientUnits="userSpaceOnUse" gradientTransform="translate(17706.8 365.913) scale(3312.87 661.953)">
<stop stop-color="#2C63D9"/>
<stop offset="1" stop-opacity="0"/>
</radialGradient>
<linearGradient id="paint22_linear" x1="21992" y1="6898.25" x2="21992" y2="2346.76" gradientUnits="userSpaceOnUse">
<stop stop-color="#BDFFE8"/>
<stop offset="0.2" stop-color="#8BBBAA"/>
<stop offset="0.42" stop-color="#5A796E"/>
<stop offset="0.651042" stop-color="#171F1D" stop-opacity="0"/>
</linearGradient>
<linearGradient id="paint23_linear" x1="12878.2" y1="3003.47" x2="20786" y2="3003.47" gradientUnits="userSpaceOnUse">
<stop stop-color="#BDFFE8"/>
<stop offset="0.2" stop-color="#8BBBAA"/>
<stop offset="0.42" stop-color="#5A796E"/>
<stop offset="0.61" stop-color="#33453F" stop-opacity="0"/>
</linearGradient>
</defs>
</svg>
