<svg width="165" height="164" viewBox="0 0 165 164" fill="none" xmlns="http://www.w3.org/2000/svg">
<path style="mix-blend-mode:screen" d="M82.6285 142.693C115.787 142.693 142.668 115.805 142.668 82.6362C142.668 49.4676 115.787 22.5791 82.6285 22.5791C49.4695 22.5791 22.5889 49.4676 22.5889 82.6362C22.5889 115.805 49.4695 142.693 82.6285 142.693Z" fill="url(#paint0_radial)"/>
<path style="mix-blend-mode:screen" d="M82.6277 137.078C112.686 137.078 137.053 112.704 137.053 82.6367C137.053 52.5696 112.686 28.1953 82.6277 28.1953C52.5693 28.1953 28.2021 52.5696 28.2021 82.6367C28.2021 112.704 52.5693 137.078 82.6277 137.078Z" fill="url(#paint1_radial)"/>
<g filter="url(#filter0_d)">
<path fill-rule="evenodd" clip-rule="evenodd" d="M134.368 82.135C134.374 88.9339 133.039 95.6673 130.44 101.95C127.842 108.232 124.03 113.94 119.223 118.747C114.416 123.554 108.709 127.366 102.428 129.964C96.1471 132.562 89.4154 133.896 82.6185 133.889C81.701 133.889 80.7726 133.889 79.8661 133.812C78.5117 133.747 77.1683 133.616 75.8467 133.452C66.1045 132.176 56.9319 128.134 49.4149 121.805C44.5698 117.723 40.5 112.801 37.4004 107.274C37.0836 106.706 36.7778 106.182 36.472 105.548C36.472 105.548 36.472 105.548 36.472 105.494C36.1552 104.871 35.8603 104.248 35.5764 103.614C34.6708 101.628 33.8973 99.5843 33.2608 97.4962C32.7774 95.9739 32.3728 94.4277 32.0485 92.8638C31.8191 91.7712 31.6225 90.6787 31.4696 89.5206C31.1181 87.0891 30.9429 84.6354 30.9453 82.1787C30.9453 80.7475 30.9999 79.3162 31.131 77.9178C31.1965 77.0219 31.2948 76.1369 31.415 75.252C32.0695 70.2549 33.4647 65.3834 35.5545 60.7976C39.6535 51.7424 46.2702 44.0579 54.6152 38.6608C62.9602 33.2638 72.6812 30.382 82.6185 30.3594H84.2459C84.8248 30.3594 85.4036 30.3594 85.9825 30.4468C88.9273 30.6328 91.8506 31.0714 94.7203 31.7578C96.3587 32.1511 97.997 32.61 99.537 33.1563C100.629 33.5168 101.656 33.9211 102.694 34.3581C103.469 34.6858 104.223 35.0245 104.976 35.3851L105.37 35.5708C110.364 38.0146 114.934 41.2461 118.902 45.1415C119.47 45.6878 119.994 46.234 120.562 46.8349C120.923 47.2282 121.283 47.6325 121.655 48.0367C122.255 48.7141 122.834 49.4243 123.402 50.1344C127.903 55.9091 131.123 62.5755 132.85 69.6909C133.86 73.7618 134.369 77.9407 134.368 82.135Z" fill="url(#paint2_radial)"/>
</g>
<path fill-rule="evenodd" clip-rule="evenodd" d="M105.315 35.6036L104.802 35.6691C104.263 35.7676 103.708 35.7339 103.185 35.5708C102.831 35.4239 102.465 35.3034 102.093 35.2103C101.47 35.1119 100.881 34.8388 100.258 34.7623C99.6168 34.6358 98.9907 34.4417 98.3904 34.1833C97.9921 34.0361 97.5544 34.0361 97.1561 34.1833C96.7312 34.2596 96.2933 34.1697 95.9329 33.932C95.4628 33.7652 94.9755 33.6516 94.4802 33.5933C93.1695 33.3202 91.8588 32.905 90.5591 32.5663C89.7775 32.3953 88.9777 32.3219 88.1781 32.3478C87.5336 32.3478 86.9548 32.5335 86.3104 32.5335C85.8965 32.5169 85.4842 32.4731 85.0761 32.4024C84.6392 32.315 84.1914 32.4024 83.7436 32.3478C83.2001 32.2002 82.627 32.2002 82.0835 32.3478C81.6361 32.475 81.1722 32.534 80.7072 32.5226C80.1326 32.5774 79.563 32.6761 79.0034 32.8176C78.014 33.0679 76.9984 33.1999 75.9779 33.2109C75.2827 33.1069 74.576 33.1069 73.8808 33.2109C73.5095 33.342 73.3238 33.7463 73.0617 34.0194C72.5069 34.5051 71.9885 35.031 71.5107 35.5926C71.0154 36.113 70.7145 36.7883 70.6588 37.5046C70.7382 38.1911 70.9418 38.8575 71.2595 39.4712C71.5544 40.0939 71.6527 40.6621 71.0083 41.0772C70.1859 41.6481 69.2793 42.0867 68.3214 42.3774C68.0565 42.511 67.7594 42.5675 67.4639 42.5405C67.1685 42.5134 66.8866 42.4039 66.6503 42.2244C66.4646 42.0714 66.3445 41.7546 66.1151 41.6235C65.99 41.5868 65.8589 41.5756 65.7294 41.5906C65.5999 41.6056 65.4748 41.6465 65.3615 41.7109C64.7271 41.9176 64.0816 42.0891 63.4282 42.2244C63.0241 42.2244 62.6746 42.4975 62.2814 42.574C61.8882 42.6505 61.4622 42.3118 60.9707 42.421C60.2846 42.6491 59.579 42.8137 58.8627 42.9127C58.3034 42.9039 57.7565 42.7454 57.279 42.4538C57.0278 42.3118 56.9623 42.1698 56.6783 42.2463C56.3976 42.3518 56.1518 42.5334 55.9683 42.7707C55.7936 43.011 55.739 43.3279 55.5642 43.5792C55.3895 43.8304 55.2147 44.1254 55.0509 44.4204C54.7525 44.9871 54.413 45.5312 54.0351 46.0483C53.762 46.4088 53.5764 46.8895 53.2706 47.2173C53.1286 47.403 52.79 47.5232 52.5934 47.6653C52.0582 48.0367 51.5011 48.3754 50.9659 48.7578C49.9611 49.5554 49.0109 50.4185 47.9842 51.1832C47.1195 51.7276 46.1915 52.1642 45.2209 52.4834C44.6638 52.7019 44.1286 52.8658 43.5388 53.0952C43.3032 53.1596 43.0786 53.259 42.8726 53.3902C42.69 53.611 42.5291 53.8488 42.392 54.1003C41.8746 54.675 41.4171 55.301 41.0267 55.9686C40.8146 56.3605 40.6461 56.7745 40.5243 57.2032C40.3277 57.7822 40.0109 58.2957 39.8143 58.9075C39.4102 60.1312 39.3228 61.3985 38.875 62.6113C38.5967 63.3007 38.2757 63.9721 37.9139 64.6215C37.4499 65.7707 37.1804 66.9892 37.1165 68.2269C37.0356 68.9551 37.0613 69.6913 37.193 70.412C37.2934 71.1688 37.3226 71.9332 37.2804 72.6954C37.1823 73.5154 36.8222 74.2817 36.2537 74.8805C35.784 75.4486 35.0741 75.6562 34.5498 76.1588C34.0502 76.576 33.6539 77.1033 33.392 77.6993C33.3565 77.9856 33.3383 78.2738 33.3374 78.5624C33.2282 79.1961 33.0644 79.797 32.977 80.4416C32.8877 81.2249 32.8476 82.0131 32.8569 82.8015C32.8569 83.2057 32.8569 83.6209 32.8569 84.0251C32.8569 84.4293 33.0207 84.768 33.0425 85.1176C33.0644 85.4673 33.0425 85.653 33.0425 85.9261C33.0425 86.1992 33.2173 86.538 33.2937 86.8329C33.4685 87.554 33.5996 88.2532 33.7416 89.018C33.8949 89.6858 34.0919 90.3427 34.3314 90.9846C34.6001 91.8704 34.8153 92.7715 34.9758 93.6832C35.1069 94.3715 35.1068 95.0816 35.2051 95.7699C35.3034 96.4582 35.4127 96.8625 35.4345 97.4525C35.4345 98.2937 35.2598 99.135 35.2488 99.9872C35.3734 101.439 35.6742 102.869 36.1445 104.248C36.2428 104.63 36.3411 105.024 36.4503 105.417C32.4794 97.5275 30.5925 88.7528 30.9689 79.9277C31.3454 71.1027 33.9727 62.5207 38.601 54.9981C43.2293 47.4754 49.7047 41.2623 57.4112 36.9497C65.1177 32.6371 73.7991 30.3684 82.6296 30.3594C83.7218 30.3594 84.8686 30.3594 85.9827 30.4686C92.7019 30.8904 99.2718 32.6354 105.315 35.6036Z" fill="url(#paint3_linear)"/>
<g style="mix-blend-mode:soft-light">
<path style="mix-blend-mode:soft-light" fill-rule="evenodd" clip-rule="evenodd" d="M61.5061 100.543C60.7853 97.9429 59.8788 94.851 58.9395 91.7373C59.6931 94.8183 60.5559 97.7791 61.5061 100.543Z" fill="url(#paint4_linear)"/>
<path style="mix-blend-mode:soft-light" fill-rule="evenodd" clip-rule="evenodd" d="M59.956 128.785C59.956 128.785 62.0094 112.965 63.5713 112.965C64.7946 112.965 66.8479 115.346 71.0421 118.526C72.2108 119.411 73.5433 120.361 75.0724 121.334C76.6121 122.291 78.2098 123.153 79.8563 123.912C82.9473 125.376 86.508 126.829 89.6864 128.053C94.7652 129.987 98.9593 131.33 98.9593 131.33L99.7785 130.751C96.9141 130.105 94.0881 129.299 91.3138 128.337C94.7704 122.855 98.6138 117.626 102.815 112.692C109.27 105.273 134.063 87.8362 134.063 87.8362L134.271 85.378C134.271 85.378 127.193 91.2231 119.351 97.4506C119.351 97.4506 124.594 61.3967 126.254 55.639L124.594 54.9507C124.594 54.9507 120.706 90.513 116.358 99.8105C108.877 105.677 101.417 111.26 99.2652 111.96C94.5577 113.5 77.2678 99.6138 77.2459 99.592C76.7981 85.2906 77.1258 69.3613 78.3381 65.1987C88.6577 55.3346 100.269 46.918 112.852 40.1795L112.055 39.3819C112.055 39.3819 95.2239 51.2251 94.7324 48.9526C94.2409 46.6801 105.338 35.2631 105.338 35.2631L104.082 35.0882C94.9289 46.523 85.1111 57.409 74.6792 67.6897C62.6647 79.4783 58.6781 83.0509 57.3456 84.0779C55.1611 71.6885 55.0301 58.6872 58.6781 50.3074C65.4936 34.5857 74.9413 30.9912 74.9413 30.9912C73.3038 31.0942 71.6799 31.354 70.0919 31.7669C67.6891 34.6029 65.4431 37.5681 63.3637 40.6493C61.365 43.9269 58.6781 50.3074 57.0725 49.2913C55.4669 48.2752 50.5192 41.4468 50.5192 41.4468L49.9294 42.0477C49.9294 42.0477 54.6696 46.4835 55.4779 49.925C56.2861 53.3665 55.5762 74.4635 53.4354 73.6878C51.2947 72.9121 35.9598 59.8125 35.9598 59.8125L35.4355 60.905C35.4355 60.905 51.4476 71.8305 53.4682 75.709C54.4621 77.621 56.7995 84.6679 58.9293 91.6164C58.6781 90.6331 57.9026 87.1807 58.2412 85.6621C63.6368 77.6756 69.6877 73.6441 75.7168 67.6351C77.0275 75.0425 76.9838 101.132 76.809 114.112L70.9438 117.193C69.2091 115.591 67.7089 113.752 66.4875 111.73C64.4478 108.161 62.7754 104.395 61.496 100.488C62.1657 102.66 62.6839 104.876 63.047 107.12C63.047 109.698 59.115 128.315 59.115 128.315L59.956 128.785ZM119.264 97.5926L116.522 99.7777L119.264 97.5926ZM77.3005 100.28V101.373V100.28ZM77.3005 101.438C77.3005 101.438 93.8805 111.752 96.6329 113.62C99.1778 115.357 91.0516 126.294 89.8393 127.9C86.2851 126.64 82.8342 125.106 79.5178 123.311C78.4474 120.252 77.7046 111.37 77.3442 101.373L77.3005 101.438ZM76.8637 115.281C76.8637 119.192 76.7872 121.694 76.7872 121.694C75.0082 120.584 73.3176 119.339 71.7302 117.969C73.1963 116.64 74.9728 115.7 76.8964 115.237L76.8637 115.281Z" fill="url(#paint5_linear)"/>
<path style="mix-blend-mode:soft-light" fill-rule="evenodd" clip-rule="evenodd" d="M47.1765 96.3695C44.8064 92.8515 30.957 80.3965 30.957 80.3965V83.6741C30.957 83.6741 43.4957 91.0925 46.9035 97.2435C50.3112 103.395 46.7178 119.477 46.7178 119.477L48.0612 120.821C48.0612 120.821 50.6389 101.494 47.1765 96.3695Z" fill="url(#paint6_linear)"/>
</g>
<path style="mix-blend-mode:screen" fill-rule="evenodd" clip-rule="evenodd" d="M51.9382 122.559C46.5623 118.046 42.1527 112.495 38.9735 106.236C36.948 102.238 35.4536 97.9922 34.5281 93.6065C33.7978 90.0919 33.4318 86.5112 33.4359 82.9214C33.4272 69.1945 38.8696 56.0261 48.566 46.3125C58.2624 36.5989 71.4189 31.1356 85.1418 31.124C86.234 31.124 87.3809 31.124 88.4949 31.2223C91.9439 31.4471 95.3615 32.0181 98.6963 32.9267C94.5724 31.573 90.2928 30.7506 85.961 30.4794C84.8688 30.4029 83.7765 30.3701 82.6078 30.3701C74.9082 30.3768 67.307 32.1006 60.3573 35.416C53.4076 38.7314 47.2843 43.555 42.433 49.5358C37.5817 55.5166 34.1246 62.5042 32.3132 69.9898C30.5017 77.4755 30.3815 85.271 31.9614 92.809C33.9455 102.133 38.4617 110.73 45.0133 117.654C51.5649 124.577 59.8982 129.56 69.097 132.053C62.8264 130.007 57.0029 126.785 51.9382 122.559Z" fill="url(#paint7_radial)"/>
<path style="mix-blend-mode:screen" opacity="0.3" fill-rule="evenodd" clip-rule="evenodd" d="M71.2246 31.6038C71.2246 31.6038 75.5935 78.5832 76.8933 82.5491C78.193 86.515 89.8798 93.8679 94.6637 94.7638C99.4477 95.6597 111.571 100.074 114.728 99.9424C117.884 99.8113 131.657 98.6751 131.657 98.6751L133.558 91.3004C133.558 91.3004 107.88 71.4489 98.7814 53.2799C89.6832 35.1109 89.8907 30.8609 89.8907 30.8609L85.9805 30.4785C85.9805 30.4785 95.8106 49.4669 98.7159 58.7098C101.621 67.9527 113.81 77.0755 119.261 82.3852C124.711 87.695 123.138 97.0472 116.519 96.5883C109.9 96.1294 87.2475 97.4296 81.6553 80.3313C78.6503 71.56 76.5567 62.5023 75.4078 53.3017C74.4447 45.9925 73.0479 38.7471 71.2246 31.6038Z" fill="url(#paint8_radial)"/>
<path style="mix-blend-mode:screen" opacity="0.3" fill-rule="evenodd" clip-rule="evenodd" d="M32.9437 67.6253C32.9437 67.6253 50.6377 74.4318 57.3986 79.0096C64.1595 83.5873 82.3778 88.8424 86.2333 92.8412C90.0889 96.8399 96.5985 104.324 96.0633 107.875C95.5281 111.425 72.5587 108.902 63.4058 105.493C54.253 102.084 38.9509 95.059 36.8757 91.7377C35.3711 89.5364 33.3932 87.6998 31.0869 86.3624L31.6767 91.0166C31.6767 91.0166 54.537 106.05 57.5734 107.306C60.6097 108.563 91.8801 114.364 100.651 112.769C100.651 112.769 104.757 109.251 89.5864 94.1959C83.4809 88.1541 72.5477 83.2705 62.4337 78.6272C47.372 71.7551 33.3369 66.4453 33.3369 66.4453L32.9437 67.6253Z" fill="url(#paint9_radial)"/>
<path style="mix-blend-mode:screen" opacity="0.3" fill-rule="evenodd" clip-rule="evenodd" d="M95.7785 32.0641C95.7785 32.0641 96.969 45.4805 101.371 56.5152C105.772 67.5499 114.204 69.4291 117.907 73.5152C121.61 77.6013 131.265 83.0203 134.378 80.8461L134.116 89.3789C134.116 89.3789 99.5248 75.591 89.9023 30.8623L95.7785 32.0641Z" fill="url(#paint10_radial)"/>
<path style="mix-blend-mode:screen" opacity="0.3" fill-rule="evenodd" clip-rule="evenodd" d="M41.1338 113.053C51.8532 110.578 62.9411 110.134 73.8241 111.742C97.1104 115.238 101.96 116.976 104.035 119.467C106.11 121.958 106.864 127.857 106.864 127.857L109.409 126.404C109.409 126.404 108.109 114.911 105.313 113.053C102.517 111.196 80.5741 115.02 57.5391 107.307L38.2285 108.738L41.1338 113.053Z" fill="url(#paint11_radial)"/>
<path style="mix-blend-mode:screen" opacity="0.3" fill-rule="evenodd" clip-rule="evenodd" d="M109.998 99.0689C109.004 96.414 94.543 92.8851 92.1619 94.8079C90.1959 96.3921 103.084 111.338 106.241 111.731C109.397 112.125 110.992 101.724 109.998 99.0689ZM104.722 107.307C100.998 106.607 92.5005 97.9108 94.3791 96.1408C95.9301 94.6768 107.486 98.4898 108.305 100.642C109.124 102.794 108.447 108.006 104.722 107.307Z" fill="url(#paint12_radial)"/>
<path fill-rule="evenodd" clip-rule="evenodd" d="M78.3057 83.3036C77.2135 79.3377 71.2281 31.6045 71.2281 31.6045L70.1359 31.8667C70.1359 31.8667 79.5181 78.6276 71.6541 79.9386C65.4611 81.0312 33.6883 65.3532 33.6883 65.3532L32.9784 67.6147C32.9784 67.6147 72.5388 79.9168 87.2838 92.8306C92.0758 97.0888 96.3668 101.88 100.074 107.11C100.438 107.619 100.655 108.219 100.702 108.843C100.748 109.467 100.623 110.092 100.339 110.65C100.055 111.208 99.6237 111.677 99.0915 112.007C98.5594 112.336 97.9471 112.513 97.3213 112.518C56.7452 112.846 31.624 91.017 31.624 91.017L31.9626 92.8088C31.9626 92.8088 56.7561 105.919 54.2768 107.307C51.7974 108.694 37.3582 107.307 37.3582 107.307L38.2101 108.782C47.0787 108.26 55.9772 108.626 64.773 109.874C77.3882 111.611 98.7085 114.244 105.065 115.042C108.342 120.898 109.937 125.421 109.434 126.437L111.903 124.853C107.818 113.447 108.746 100.653 114.753 99.9759C120.76 99.2985 130.667 101.374 130.667 101.374L131.661 98.6539C98.5119 100.282 79.4416 87.2805 78.3057 83.3036ZM76.722 84.8223C75.7499 84.8223 72.0691 82.1237 72.506 81.6867C72.9429 81.2497 75.2693 76.1256 76.0339 76.8249C76.7984 77.5241 77.6831 84.7895 76.722 84.8223ZM55.653 107.307C55.653 107.307 55.8605 106.564 56.21 106.422C56.5595 106.28 63.3095 108.607 62.9054 108.902C62.5012 109.197 55.653 108.148 55.653 107.307ZM107.053 110.257C104.563 110.06 89.5775 95.999 92.1442 94.8081C94.0228 93.945 107.534 97.1571 108.702 99.7573C109.871 102.358 109.554 110.442 107.075 110.257H107.053Z" fill="url(#paint13_linear)"/>
<path fill-rule="evenodd" clip-rule="evenodd" d="M88.5166 31.2211C88.5166 31.2211 92.0882 46.6041 106.211 65.7236C120.333 84.8432 133.516 91.3001 133.516 91.3001L134.062 87.8804C134.062 87.8804 121.928 85.9248 107.696 67.0347C91.0724 44.9544 91.1926 31.0791 91.1926 31.0791L88.5166 31.2211Z" fill="url(#paint14_linear)"/>
<path style="mix-blend-mode:screen" fill-rule="evenodd" clip-rule="evenodd" d="M32.3101 77.1966C33.0091 87.7396 56.8851 70.5321 79.9202 62.8078C106.964 53.7506 127.323 73.0777 130.326 72.007C135.012 70.3136 116.007 31.8451 85.2283 32.5225C50.5611 33.2764 31.1851 60.1966 32.3101 77.1966Z" fill="url(#paint15_linear)"/>
<path fill-rule="evenodd" clip-rule="evenodd" d="M36.4932 68.4778C36.4932 70.4553 41.299 68.6636 45.8317 62.8622C50.3645 57.0608 53.6958 43.8847 52.2431 42.377C50.7904 40.8693 36.7771 54.7992 36.4932 68.4778Z" fill="white"/>
<path fill-rule="evenodd" clip-rule="evenodd" d="M36.2197 71.3174C33.8932 71.3174 33.0631 75.6876 34.1117 77.8071C35.1602 79.9266 37.1481 79.4459 38.0437 75.622C38.5898 73.3058 38.1748 71.3502 36.2197 71.3174Z" fill="white"/>
<path style="mix-blend-mode:screen" d="M117.608 130.507C130.955 122.798 138.103 110.187 133.573 102.338C129.043 94.4892 114.55 94.3754 101.203 102.084C87.8554 109.792 80.7076 122.404 85.2378 130.252C89.7679 138.101 104.261 138.215 117.608 130.507Z" fill="url(#paint16_radial)"/>
<path style="mix-blend-mode:screen" fill-rule="evenodd" clip-rule="evenodd" d="M58.8184 125.87C58.8184 125.87 83.3825 134.424 106.876 121.499C130.37 108.575 134.182 79.2617 134.182 79.2617C134.182 79.2617 131.309 113.677 108.657 124.657C86.0038 135.637 69.0307 132.217 58.8184 125.87Z" fill="url(#paint17_radial)"/>
<path style="mix-blend-mode:screen" d="M62.3824 71.5147C75.8258 62.1686 81.8677 47.6032 75.8775 38.9819C69.8873 30.3606 54.1333 30.9481 40.6899 40.2942C27.2466 49.6403 21.2047 64.2057 27.1949 72.827C33.1851 81.4483 48.9391 80.8608 62.3824 71.5147Z" fill="url(#paint18_radial)"/>
<defs>
<filter id="filter0_d" x="0.945312" y="0.359375" width="163.423" height="163.529" filterUnits="userSpaceOnUse" color-interpolation-filters="sRGB">
<feFlood flood-opacity="0" result="BackgroundImageFix"/>
<feColorMatrix in="SourceAlpha" type="matrix" values="0 0 0 0 0 0 0 0 0 0 0 0 0 0 0 0 0 0 127 0"/>
<feOffset/>
<feGaussianBlur stdDeviation="15"/>
<feColorMatrix type="matrix" values="0 0 0 0 0.976471 0 0 0 0 0.419608 0 0 0 0 0.388235 0 0 0 1 0"/>
<feBlend mode="normal" in2="BackgroundImageFix" result="effect1_dropShadow"/>
<feBlend mode="normal" in="SourceGraphic" in2="effect1_dropShadow" result="shape"/>
</filter>
<radialGradient id="paint0_radial" cx="0" cy="0" r="1" gradientUnits="userSpaceOnUse" gradientTransform="translate(57024.2 32195.2) scale(6600.75 6602.68)">
<stop stop-color="#FF7300"/>
<stop offset="1" stop-opacity="0"/>
</radialGradient>
<radialGradient id="paint1_radial" cx="0" cy="0" r="1" gradientUnits="userSpaceOnUse" gradientTransform="translate(51699.8 29192.5) scale(5424.05 5425.63)">
<stop stop-color="#FF7900"/>
<stop offset="0.18" stop-color="#FC7800"/>
<stop offset="0.32" stop-color="#F37300"/>
<stop offset="0.43" stop-color="#E36C00"/>
<stop offset="0.54" stop-color="#CC6100"/>
<stop offset="0.64" stop-color="#AF5300"/>
<stop offset="0.74" stop-color="#8C4200"/>
<stop offset="0.83" stop-color="#622E00" stop-opacity="0"/>
<stop offset="0.92" stop-color="#321800" stop-opacity="0"/>
<stop offset="1" stop-opacity="0"/>
</radialGradient>
<radialGradient id="paint2_radial" cx="0" cy="0" r="1" gradientUnits="userSpaceOnUse" gradientTransform="translate(50.5835 57.9242) scale(91.4629 91.4896)">
<stop offset="0.01" stop-color="#FF7263"/>
<stop offset="0.21" stop-color="#FC6F63"/>
<stop offset="0.37" stop-color="#F46562"/>
<stop offset="0.51" stop-color="#E55560"/>
<stop offset="0.64" stop-color="#D03D5D"/>
<stop offset="0.77" stop-color="#B6205A"/>
<stop offset="0.88" stop-color="#9A0057"/>
<stop offset="0.99" stop-color="#9A00AE"/>
</radialGradient>
<linearGradient id="paint3_linear" x1="30.8799" y1="67.9319" x2="105.315" y2="67.9319" gradientUnits="userSpaceOnUse">
<stop offset="0.01" stop-color="#FF9D85"/>
<stop offset="0.29" stop-color="#FF9A84"/>
<stop offset="0.49" stop-color="#FF917F"/>
<stop offset="0.67" stop-color="#FF8178"/>
<stop offset="0.84" stop-color="#FF6A6E"/>
<stop offset="1" stop-color="#FF4D61"/>
</linearGradient>
<linearGradient id="paint4_linear" x1="-2110.41" y1="-255.643" x2="-2117.74" y2="-248.311" gradientUnits="userSpaceOnUse">
<stop offset="0.01" stop-color="#FF9D85"/>
<stop offset="0.29" stop-color="#FF9A84"/>
<stop offset="0.49" stop-color="#FF917F"/>
<stop offset="0.67" stop-color="#FF8178"/>
<stop offset="0.84" stop-color="#FF6A6E"/>
<stop offset="1" stop-color="#FF4D61"/>
</linearGradient>
<linearGradient id="paint5_linear" x1="-46125.5" y1="19440.6" x2="-52545.8" y2="25859.1" gradientUnits="userSpaceOnUse">
<stop offset="0.01" stop-color="#FF9D85"/>
<stop offset="0.29" stop-color="#FF9A84"/>
<stop offset="0.49" stop-color="#FF917F"/>
<stop offset="0.67" stop-color="#FF8178"/>
<stop offset="0.84" stop-color="#FF6A6E"/>
<stop offset="1" stop-color="#FF4D61"/>
</linearGradient>
<linearGradient id="paint6_linear" x1="-12693.9" y1="1152.78" x2="-12892.3" y2="1351.12" gradientUnits="userSpaceOnUse">
<stop offset="0.01" stop-color="#FF9D85"/>
<stop offset="0.29" stop-color="#FF9A84"/>
<stop offset="0.49" stop-color="#FF917F"/>
<stop offset="0.67" stop-color="#FF8178"/>
<stop offset="0.84" stop-color="#FF6A6E"/>
<stop offset="1" stop-color="#FF4D61"/>
</linearGradient>
<radialGradient id="paint7_radial" cx="0" cy="0" r="1" gradientUnits="userSpaceOnUse" gradientTransform="translate(44.8169 46.9003) scale(68.1111 68.131)">
<stop stop-color="#FFFF4A"/>
<stop offset="1"/>
</radialGradient>
<radialGradient id="paint8_radial" cx="0" cy="0" r="1" gradientUnits="userSpaceOnUse" gradientTransform="translate(105.564 82.8769) scale(37.4415 37.4524)">
<stop stop-color="white"/>
<stop offset="1" stop-color="#623964"/>
</radialGradient>
<radialGradient id="paint9_radial" cx="0" cy="0" r="1" gradientUnits="userSpaceOnUse" gradientTransform="translate(33390.9 13468.8) scale(2453.16 1631.44)">
<stop stop-color="white"/>
<stop offset="1" stop-color="#623964"/>
</radialGradient>
<radialGradient id="paint10_radial" cx="0" cy="0" r="1" gradientUnits="userSpaceOnUse" gradientTransform="translate(22496.2 15295.5) scale(1144.35 1505.63)">
<stop stop-color="white"/>
<stop offset="1" stop-color="#623964"/>
</radialGradient>
<radialGradient id="paint11_radial" cx="0" cy="0" r="1" gradientUnits="userSpaceOnUse" gradientTransform="translate(33490.1 6367.47) scale(2408.74 695.437)">
<stop stop-color="white"/>
<stop offset="1" stop-color="#623964"/>
</radialGradient>
<radialGradient id="paint12_radial" cx="0" cy="0" r="1" gradientUnits="userSpaceOnUse" gradientTransform="translate(9184.35 5190.29) scale(185.896 177.293)">
<stop stop-color="white"/>
<stop offset="1" stop-color="#623964"/>
</radialGradient>
<linearGradient id="paint13_linear" x1="31.6459" y1="79.01" x2="131.661" y2="79.01" gradientUnits="userSpaceOnUse">
<stop offset="0.01" stop-color="#FFBB85"/>
<stop offset="0.21" stop-color="#FEB887"/>
<stop offset="0.36" stop-color="#F9AF8C"/>
<stop offset="0.49" stop-color="#F19F95"/>
<stop offset="0.61" stop-color="#E588A2"/>
<stop offset="0.72" stop-color="#D76BB2"/>
<stop offset="0.83" stop-color="#C547C7"/>
<stop offset="0.94" stop-color="#B01EDE"/>
<stop offset="1" stop-color="#A100EF"/>
</linearGradient>
<linearGradient id="paint14_linear" x1="88.5166" y1="61.1896" x2="134.106" y2="61.1896" gradientUnits="userSpaceOnUse">
<stop offset="0.01" stop-color="#FF9D85"/>
<stop offset="0.23" stop-color="#FD9A87"/>
<stop offset="0.38" stop-color="#F8918D"/>
<stop offset="0.52" stop-color="#EE8198"/>
<stop offset="0.65" stop-color="#E16AA7"/>
<stop offset="0.77" stop-color="#CF4DBB"/>
<stop offset="0.89" stop-color="#BA2AD3"/>
<stop offset="1" stop-color="#A100EF"/>
</linearGradient>
<linearGradient id="paint15_linear" x1="51.3481" y1="40.4164" x2="109.225" y2="93.2883" gradientUnits="userSpaceOnUse">
<stop offset="0.02" stop-color="#FF9346"/>
<stop offset="0.21" stop-color="#BB6C33"/>
<stop offset="0.43" stop-color="#794621"/>
<stop offset="0.62" stop-color="#452813"/>
<stop offset="0.78" stop-color="#1F1209"/>
<stop offset="0.92" stop-color="#080502"/>
<stop offset="1"/>
</linearGradient>
<radialGradient id="paint16_radial" cx="0" cy="0" r="1" gradientUnits="userSpaceOnUse" gradientTransform="translate(109.452 118.911) rotate(60.0072) scale(16.5187 28.0277)">
<stop offset="0.01" stop-color="#0092FF"/>
<stop offset="0.07" stop-color="#0085E9"/>
<stop offset="0.27" stop-color="#005DA3" stop-opacity="0.04"/>
<stop offset="1" stop-color="#003C69" stop-opacity="0"/>
</radialGradient>
<radialGradient id="paint17_radial" cx="0" cy="0" r="1" gradientUnits="userSpaceOnUse" gradientTransform="translate(106.144 121.936) scale(32.6357 32.6452)">
<stop stop-color="#5E5ED9"/>
<stop offset="1"/>
</radialGradient>
<radialGradient id="paint18_radial" cx="0" cy="0" r="1" gradientUnits="userSpaceOnUse" gradientTransform="translate(26185.9 -1061.84) rotate(-34.8078) scale(1612 662.239)">
<stop stop-color="#FFBB00"/>
<stop offset="0.17" stop-color="#C59000"/>
<stop offset="0.4" stop-color="#805E00"/>
<stop offset="0.6" stop-color="#493500" stop-opacity="0"/>
</radialGradient>
</defs>
</svg>
