<svg width="155" height="156" viewBox="0 0 155 156" fill="none" xmlns="http://www.w3.org/2000/svg">
<path style="mix-blend-mode:screen" d="M77.5561 142.168C112.994 142.168 141.722 113.432 141.722 77.984C141.722 42.5361 112.994 13.7998 77.5561 13.7998C42.1185 13.7998 13.3906 42.5361 13.3906 77.984C13.3906 113.432 42.1185 142.168 77.5561 142.168Z" fill="url(#paint0_radial)"/>
<path style="mix-blend-mode:screen" opacity="0.8" d="M139.673 93.0478C147.992 58.7296 126.924 24.1633 92.6157 15.8418C58.3074 7.52032 23.7512 28.5949 15.4321 62.9131C7.11307 97.2313 28.1815 131.798 62.4897 140.119C96.798 148.441 131.354 127.366 139.673 93.0478Z" fill="url(#paint1_radial)"/>
<path style="mix-blend-mode:multiply" opacity="0.4" fill-rule="evenodd" clip-rule="evenodd" d="M121.746 77.9844C121.751 83.7916 120.611 89.5427 118.391 94.9087C116.172 100.275 112.916 105.15 108.81 109.256C104.705 113.362 99.83 116.618 94.4651 118.837C89.1002 121.056 83.3505 122.195 77.545 122.189C75.6079 122.188 73.6729 122.063 71.7516 121.816C65.9829 121.053 60.4236 119.15 55.3977 116.217C56.8624 115.844 58.299 115.34 59.773 114.966C63.221 113.944 66.7377 113.171 70.2963 112.652C71.7423 112.484 74.0279 111.915 74.0279 110.17C74.0279 109.675 73.9439 109.545 74.2518 109.237C74.5596 108.929 74.9888 109.078 75.4086 108.985C76.4348 108.761 77.2744 107.697 77.9088 106.95C78.9776 105.715 80.1276 104.552 81.3512 103.47C83.7208 101.389 86.8554 100.427 88.376 97.4412C88.6959 96.6247 88.9152 95.7724 89.0291 94.9029C89.1708 94.4325 89.4103 93.9973 89.7319 93.6258C90.0534 93.2543 90.4497 92.9549 90.8949 92.7473C91.9584 92.1407 93.1059 91.9261 94.0668 91.0955C94.8725 90.2476 95.4391 89.2011 95.7087 88.0627C96.2871 86.2523 96.1938 84.4233 96.4457 82.5756C96.639 81.6504 96.7853 80.716 96.8842 79.776C96.8469 78.9207 96.6341 78.0821 96.2591 77.3125C95.7553 75.8754 95.0837 74.3916 94.4679 73.0011C94.2289 72.4881 93.8858 72.0305 93.4604 71.6574C92.8447 71.0882 92.3036 70.4442 91.6785 69.8843C91.2401 69.4924 90.6896 69.2404 90.2605 68.8392C89.8314 68.4379 89.6448 68.0926 89.3276 67.7567C88.792 67.1183 88.1629 66.5645 87.4618 66.1143C85.7079 65.1811 84.6631 63.3801 82.62 63.0255C80.1198 62.5962 78.086 59.9273 75.4272 60.8698C73.72 61.4764 72.0408 62.1296 70.2496 62.5869C69.0578 62.7433 67.877 62.974 66.7139 63.2774C66.0014 63.6051 65.3658 64.0788 64.8481 64.6678C64.2348 65.5642 63.6801 66.4994 63.1875 67.4674C62.7613 68.1282 62.369 68.8104 62.012 69.5111C61.2284 70.9482 61.3123 72.3106 61.3123 73.8783C61.2658 74.7456 61.2658 75.6147 61.3123 76.4819C61.4553 77.4445 61.8844 78.3419 62.5438 79.0575C62.9169 79.5334 63.1782 80.3546 63.6446 80.7372C63.8872 80.9332 64.1111 80.8772 64.3723 80.9892C64.7319 81.1616 65.0649 81.3847 65.3612 81.6518C66.446 82.5816 67.719 83.266 69.0928 83.6581C69.8285 83.7987 70.5454 84.0242 71.2292 84.33C71.8216 84.5876 72.4516 84.7483 73.095 84.8059C73.7977 84.8682 74.5057 84.787 75.176 84.5673C75.8464 84.3475 76.4651 83.9937 76.9945 83.5275C77.6741 83.0297 78.2775 82.4356 78.7857 81.7637C79.0179 81.3827 79.3378 81.0628 79.7186 80.8305C79.9889 80.6301 80.3151 80.5192 80.6515 80.5133C80.9407 80.5133 81.2393 80.9239 81.5844 80.7372C81.9296 80.5506 82.0043 79.7481 82.0976 79.4961C82.2748 79.0482 82.3961 78.4976 82.6013 78.0683C82.9558 77.3125 83.5342 77.4898 84.2712 77.4711C84.5347 77.5058 84.8026 77.4801 85.0548 77.3961C85.3069 77.312 85.5366 77.1717 85.7266 76.9858C85.8557 76.7098 85.9226 76.4087 85.9226 76.104C85.9226 75.7992 85.8557 75.4982 85.7266 75.2221C85.2282 74.5866 84.6585 74.0105 84.0287 73.5051C83.6303 73.1073 83.2739 72.6695 82.9652 72.1986C82.3961 71.3121 82.1535 69.7164 80.9407 69.4457C80.4011 69.3897 79.8571 69.3897 79.3175 69.4457C78.8014 69.4248 78.2903 69.337 77.7968 69.1845C76.9803 68.9358 76.1386 68.7793 75.2873 68.7179C74.2325 68.743 73.1953 68.9944 72.246 69.4551C71.8169 69.6324 71.4624 69.5484 71.0706 69.679C70.4604 70.0332 69.9996 70.5969 69.7738 71.2654C69.6579 71.7383 69.7121 72.237 69.9271 72.6738C70.142 73.1107 70.5039 73.4578 70.9493 73.6544C71.2665 73.785 72.0035 73.841 72.2367 74.1023C72.4699 74.3636 72.2833 74.8955 72.1248 75.2874C71.7329 76.286 71.9382 77.4804 73.1789 77.667C74.0205 77.647 74.8391 77.3881 75.5392 76.9205C76.1363 76.6219 77.0972 76.5472 77.0972 75.7727C77.0505 76.1366 76.4348 75.9967 76.1642 75.9967C75.9042 76.0319 75.6397 76.0146 75.3865 75.9457C75.1333 75.8767 74.8966 75.7576 74.6903 75.5954C74.3213 75.2706 74.0744 74.8294 73.9906 74.3449C73.8956 74.093 73.7736 73.8521 73.6267 73.6264C73.5241 73.4771 73.1976 73.2718 73.1416 73.1132C72.8058 72.2266 75.5205 71.8067 76.043 71.7507C77.1811 71.62 77.9648 72.4319 78.6178 73.2905C78.907 73.6824 79.4761 74.2236 79.4481 74.6995C79.3332 75.2731 79.1418 75.8287 78.879 76.3513C78.6924 76.7992 78.5525 77.2285 78.4032 77.6484C78.254 78.0683 77.9368 78.2923 77.4703 78.5816C77.0369 78.8946 76.6311 79.2442 76.2575 79.6267C75.799 79.9453 75.2651 80.1383 74.7089 80.1866C73.8693 80.3919 73.123 79.944 72.274 80C71.5743 80 70.9679 80.4386 70.2776 80.4853C68.8223 80.5786 67.5255 80.4013 67.0217 78.8242C66.9164 78.5816 66.896 78.3105 66.9637 78.0548C67.0314 77.7992 67.1833 77.5738 67.3949 77.4151C67.8334 76.9578 67.6841 76.5472 67.4602 76.006C67.1694 75.41 66.9442 74.7842 66.7885 74.1396C66.8143 73.4173 66.9495 72.703 67.1897 72.0213C67.2923 71.4521 67.0124 70.6589 67.1897 70.155C67.3669 69.651 68.3371 69.2218 68.7383 68.8672C69.3273 68.4942 69.9524 68.1815 70.6041 67.934C71.2511 67.6747 71.9409 67.5386 72.6379 67.5327C73.2629 67.4207 73.5708 66.9355 74.1585 66.7115C74.8551 66.5476 75.5755 66.5096 76.2855 66.5995C76.915 66.6364 77.5248 66.8323 78.0581 67.1688C78.6235 67.5666 79.2553 67.8605 79.9239 68.0366C80.7542 68.1299 81.6124 67.9713 82.4334 68.0366C83.2544 68.102 83.5436 68.5126 84.1686 68.9698C84.8152 69.3412 85.38 69.8396 85.8292 70.4349C86.0717 70.7708 86.193 71.1815 86.4356 71.4987C86.6988 71.7957 86.9129 72.1328 87.07 72.4972C87.3384 73.0674 87.572 73.6532 87.7696 74.2516C87.8948 74.5958 87.961 74.9586 87.9656 75.3248C87.9656 75.8194 87.7137 76.258 87.7043 76.7526C87.6362 77.8111 87.3163 78.8381 86.7714 79.7481C86.2677 80.7466 85.8385 81.8011 85.3814 82.8182C85.0642 83.5088 84.9989 84.8806 84.066 85.0579C83.5796 85.0627 83.0973 85.1479 82.6386 85.3098C82.1535 85.5618 82.0882 86.1217 81.7057 86.4763C81.3232 86.8309 80.8848 86.7003 80.3997 86.7003C79.6879 86.6875 78.9817 86.8276 78.3286 87.1109C77.517 87.4561 76.9665 88.2773 76.1549 88.6879C75.4768 89.0288 74.7636 89.2948 74.0279 89.4811C73.5148 89.6118 73.011 89.4811 72.4886 89.6398C71.2945 89.9944 70.2962 90.7783 69.1394 91.2075C68.1801 91.5644 67.1576 91.72 66.1355 91.6648C65.7578 91.6006 65.3885 91.4942 65.0346 91.3475C64.4376 91.1702 63.8125 91.1702 63.1688 91.0116C62.6886 90.8799 62.2153 90.7242 61.7508 90.545C61.275 90.3677 60.9672 90.013 60.5194 89.8077C59.4838 89.3132 58.4856 89.3691 57.5341 88.6039C56.4209 87.5736 55.2497 86.6077 54.0263 85.7111C53.524 85.3417 53.1045 84.8712 52.7949 84.33C52.4828 83.9331 52.143 83.5589 51.778 83.2101C51.2879 82.6159 50.9001 81.9441 50.6305 81.2225C50.1454 80.056 49.567 79.0109 49.1565 77.807C48.4807 76.1615 47.9287 74.4677 47.5053 72.7399C47.3866 71.3276 47.4273 69.9064 47.6266 68.5032C47.6639 68.1465 47.6639 67.7868 47.6266 67.4301C47.5239 66.8795 47.0482 66.4969 46.6936 66.1143C45.5085 64.8683 44.5602 63.4169 43.8949 61.831C43.167 60.0984 43.0197 58.1765 43.4751 56.3532C43.9876 54.9242 44.9758 53.715 46.2738 52.9284C47.5666 52.0271 48.9335 51.2373 50.36 50.5675C50.9599 50.1867 51.5831 49.8439 52.2258 49.541C52.9162 49.289 53.7278 49.1677 54.4461 48.9717C55.0507 48.8774 55.6308 48.6649 56.1533 48.3465C56.754 47.9282 57.3332 47.4797 57.8886 47.0027C58.4299 46.3761 59.1195 45.8949 59.8943 45.603C61.0604 45.295 62.2826 44.9404 63.4674 44.6698C64.932 44.3618 66.7325 44.7631 68.1879 44.9217C69.6389 45.0604 71.0964 45.1196 72.5539 45.0991C73.7853 45.0991 74.9515 44.9031 76.1736 44.8564C76.6214 44.8564 77.1065 44.9031 77.5356 44.8564C78.2666 44.7456 78.9852 44.5643 79.6813 44.3152C81.0434 43.9606 82.3214 43.298 83.6555 42.8594C84.6699 42.6138 85.7026 42.4515 86.7434 42.3742C87.866 42.1072 89.0029 41.9047 90.1486 41.7676C91.1468 41.7676 92.201 41.3477 93.0966 41.8889C94.7571 42.9154 95.8206 44.6885 97.4719 45.6683C99.265 46.6691 101.137 47.5211 103.069 48.2159C103.713 48.4678 104.441 48.2159 105.028 48.3932C105.327 48.5052 105.635 48.9718 105.849 49.2237C106.157 49.0091 106.064 48.7011 106.073 48.3745C106.073 47.9079 106.316 47.5533 106.325 47.0681C106.377 46.4844 106.377 45.8973 106.325 45.3137C106.146 44.8709 105.999 44.4155 105.887 43.9512C106.82 44.7071 107.687 45.5096 108.536 46.3402C112.741 50.4633 116.077 55.3882 118.346 60.8235C120.615 66.2588 121.771 72.0942 121.746 77.9844Z" fill="url(#paint2_radial)"/>
<path style="mix-blend-mode:multiply" opacity="0.3" fill-rule="evenodd" clip-rule="evenodd" d="M48.0955 91.3668C47.8336 92.33 47.6772 93.3187 47.629 94.3157C47.8902 94.2503 48.2727 94.8476 48.5619 94.9689C49.0843 95.2022 49.5974 95.1369 50.0732 95.4821C50.5067 95.8984 50.9928 96.2561 51.5192 96.5459C51.8878 96.5927 52.2608 96.5927 52.6294 96.5459C53.3243 96.5257 54.0191 96.5852 54.7005 96.7233C55.4915 96.9351 56.3071 97.0417 57.126 97.0405C57.7339 96.9647 58.3139 96.7404 58.8146 96.3873C59.2117 95.8464 59.4244 95.1921 59.421 94.521C59.5143 92.9066 58.3201 91.3855 57.1167 90.4336C56.4823 89.9297 55.7733 89.939 55.0736 89.5751C54.2827 89.175 53.4506 88.8621 52.5921 88.6419C51.9895 88.432 51.3624 88.3003 50.7263 88.25C50.1448 88.356 49.5758 88.5217 49.0284 88.7446C48.4822 88.8021 47.9737 89.0499 47.5917 89.4445C47.2092 89.9857 47.3865 90.7416 48.0955 91.3668Z" fill="url(#paint3_linear)"/>
<path style="mix-blend-mode:multiply" opacity="0.3" fill-rule="evenodd" clip-rule="evenodd" d="M60.5861 97.0205C60.3062 97.3565 57.694 99.6241 58.9815 100.52C59.2117 100.613 59.4487 100.688 59.6905 100.744C60.0916 100.837 60.1569 100.744 60.4834 100.567C60.7565 100.376 60.9587 100.101 61.0583 99.7835C61.1579 99.4659 61.1493 99.1243 61.0339 98.8122C60.9744 98.5702 60.8965 98.3331 60.8006 98.103C60.6794 97.8604 60.4088 97.7857 60.3435 97.4964L60.5861 97.0205Z" fill="url(#paint4_linear)"/>
<path style="mix-blend-mode:multiply" opacity="0.3" fill-rule="evenodd" clip-rule="evenodd" d="M75.6605 39.7332C76.5326 39.1965 77.4743 38.7821 78.4592 38.5014C78.7297 38.5014 79.1122 38.5574 79.3921 38.5574C80.0265 38.5574 80.5769 38.4361 81.0527 38.9587C81.5285 39.4813 81.5751 39.7519 81.3139 40.1905C80.7886 40.8087 80.1277 41.2973 79.3828 41.6182C77.9048 42.5731 76.179 43.0728 74.4197 43.0553C73.0856 42.9247 71.8635 41.9169 70.688 41.3196C69.8204 40.8624 68.2532 40.0132 69.298 38.968C70.2102 38.1265 71.3973 37.6455 72.6378 37.6149C73.1696 37.6149 74.5036 37.4003 74.8861 37.7176C75.2686 38.0348 74.9608 39.5373 75.8937 39.5373L75.6605 39.7332Z" fill="url(#paint5_linear)"/>
<path style="mix-blend-mode:screen" fill-rule="evenodd" clip-rule="evenodd" d="M32.6804 68.978C33.3521 77.9832 54.4545 63.3789 74.8572 56.912C98.8237 49.2972 116.987 65.9265 119.637 65.0213C123.788 63.6029 106.735 30.6149 79.4191 31.0442C48.6518 31.5201 31.5982 54.467 32.6804 68.978Z" fill="url(#paint6_linear)"/>
<path style="mix-blend-mode:screen" fill-rule="evenodd" clip-rule="evenodd" d="M56.8379 118.605C56.8379 118.605 77.819 125.912 97.8859 114.873C117.953 103.833 121.209 78.7959 121.209 78.7959C121.209 78.7959 118.755 108.191 99.4065 117.57C80.058 126.948 65.5606 124.027 56.8379 118.605Z" fill="url(#paint7_radial)"/>
<path style="mix-blend-mode:screen" opacity="0.5" fill-rule="evenodd" clip-rule="evenodd" d="M30.5928 84.6194L32.0481 91.497C32.0481 91.497 40.2857 96.3215 59.3823 94.5485C78.479 92.7754 83.0596 83.397 90.5135 77.9845C97.9675 72.5721 112.428 68.2607 116.206 63.9868C119.984 59.7128 116.766 51.2769 116.766 51.2769L115.32 49.2705C115.32 49.2705 117.997 56.5027 114.788 61.8685C111.579 67.2342 97.3518 69.6978 89.5993 76.4821C81.8468 83.2663 66.0527 88.5481 52.6094 88.6134C39.1662 88.6787 30.5928 84.6194 30.5928 84.6194Z" fill="url(#paint8_linear)"/>
<path style="mix-blend-mode:screen" opacity="0.5" fill-rule="evenodd" clip-rule="evenodd" d="M36.9258 102.489L39.9577 106.912C39.9577 106.912 53.6902 110.934 74.3168 106.912C94.9434 102.89 110.486 91.2536 117.734 84.6187C124.983 77.9838 124.078 68.7546 124.078 68.7546L123.425 65.9551C122.078 72.912 118.852 79.3668 114.096 84.6187C106.045 93.6706 92.6391 101.883 73.3279 105.27C54.0167 108.657 36.9258 102.489 36.9258 102.489Z" fill="url(#paint9_linear)"/>
<path style="mix-blend-mode:screen" opacity="0.5" fill-rule="evenodd" clip-rule="evenodd" d="M33.3535 60.7574C33.3535 60.7574 60.2959 69.9492 81.1185 65.9272C101.941 61.9052 107.52 48.43 107.912 41.5431L104.096 38.6689C103.864 43.1421 102.555 47.4929 100.281 51.3515C98.007 55.2101 94.8352 58.4625 91.0353 60.832C77.844 69.1747 44.082 64.2194 35.0607 57.0433L33.3535 60.7574Z" fill="url(#paint10_linear)"/>
<path fill-rule="evenodd" clip-rule="evenodd" d="M36.3103 77.0415C36.6182 78.7026 40.3685 76.3789 43.1765 70.7519C45.9846 65.1248 46.5163 53.5347 45.1076 52.5082C43.699 51.4817 34.2206 65.5447 36.3103 77.0415Z" fill="white"/>
<path fill-rule="evenodd" clip-rule="evenodd" d="M87.7264 120.64C87.148 121.293 89.3123 122.095 92.5309 121.433C95.7494 120.77 100.703 117.261 100.647 116.338C100.591 115.414 91.7565 116.058 87.7264 120.64Z" fill="white"/>
<path fill-rule="evenodd" clip-rule="evenodd" d="M36.5632 79.4585C34.6134 79.8224 34.6974 83.6205 35.9101 85.2442C37.1229 86.868 38.7089 86.1027 38.8301 82.7713C38.8861 80.7276 38.1771 79.1598 36.5632 79.4585Z" fill="white"/>
<path fill-rule="evenodd" clip-rule="evenodd" d="M113.52 107.071C113.52 107.071 121.654 96.5545 123.418 83.3779C123.418 83.3966 124.341 95.9292 113.52 107.071Z" fill="#FF9AFF"/>
<path style="mix-blend-mode:screen" opacity="0.92" fill-rule="evenodd" clip-rule="evenodd" d="M90.9902 32.4822C90.9902 32.4822 103.305 22.5158 113.52 29.5986C124.985 37.54 119.379 55.5971 119.379 55.5971C119.379 55.5971 95.7108 43.1578 90.9902 32.4822Z" fill="url(#paint11_radial)"/>
<path style="mix-blend-mode:screen" opacity="0.92" fill-rule="evenodd" clip-rule="evenodd" d="M45.8457 113.258C45.8457 113.258 47.3943 127.2 57.8709 132.267C67.6478 136.999 76.4171 125.39 76.4171 125.39C76.4171 125.39 74.3181 106.913 45.8457 113.258Z" fill="url(#paint12_radial)"/>
<path style="mix-blend-mode:screen" fill-rule="evenodd" clip-rule="evenodd" d="M93.3389 32.0704C95.3073 34.5993 101.735 35.2526 109.599 36.0831C117.464 36.9136 118.593 39.1439 118.593 39.1439C118.593 39.1439 116.083 29.8121 108.424 28.3004C100.765 26.7886 93.3389 32.0704 93.3389 32.0704Z" fill="url(#paint13_linear)"/>
<path style="mix-blend-mode:screen" fill-rule="evenodd" clip-rule="evenodd" d="M46.7139 114.191C46.7139 114.191 47.9733 122.683 51.3784 124.213C54.7835 125.743 56.8266 117.905 65.2881 117.727C70.0086 117.634 75.1863 123.149 75.1863 123.149C75.1863 123.149 70.1206 108.097 46.7139 114.191Z" fill="url(#paint14_linear)"/>
<path fill-rule="evenodd" clip-rule="evenodd" d="M59.8564 131.791C63.6214 132.161 67.4041 131.293 70.6315 129.318C70.6315 129.318 67.1705 135.291 59.8564 131.791Z" fill="#FF9AFF"/>
<path fill-rule="evenodd" clip-rule="evenodd" d="M118.035 52.4609C119.235 49.0028 119.655 45.3222 119.267 41.6826C119.267 41.6826 122.541 48.3269 118.035 52.4609Z" fill="#FF9AFF"/>
<path fill-rule="evenodd" clip-rule="evenodd" d="M93.7429 31.8106C92.8752 32.5665 99.4149 32.4172 101.477 31.0361C103.538 29.655 104.369 28.8618 103.828 28.0219C103.287 27.182 96.8494 29.0671 93.7429 31.8106Z" fill="white"/>
<path fill-rule="evenodd" clip-rule="evenodd" d="M104.592 28.1055C104.508 27.5924 106.457 27.7323 106.457 28.2174C106.457 28.7025 104.741 29.057 104.592 28.1055Z" fill="white"/>
<path fill-rule="evenodd" clip-rule="evenodd" d="M47.5151 115.992C46.2276 115.609 48.1214 121.768 50.8735 123.84C50.8735 123.84 51.2747 117.102 47.5151 115.992Z" fill="white"/>
<path style="mix-blend-mode:screen" opacity="0.92" fill-rule="evenodd" clip-rule="evenodd" d="M118.651 56.193C118.651 56.193 124.65 52.6749 127.747 56.8276C132.141 62.7346 124.379 68.9589 124.379 68.9589C122.379 67.5294 120.795 65.5941 119.789 63.3511C118.782 61.108 118.39 58.6377 118.651 56.193Z" fill="url(#paint15_radial)"/>
<path style="mix-blend-mode:screen" fill-rule="evenodd" clip-rule="evenodd" d="M119.183 56.2414C116.813 56.9506 123.661 58.3597 126.021 59.5355C128.381 60.7114 128.139 62.1298 128.139 62.1298C128.139 62.1298 129.435 53.1713 119.183 56.2414Z" fill="url(#paint16_linear)"/>
<path fill-rule="evenodd" clip-rule="evenodd" d="M123.846 67.6076C123.846 67.6076 125.954 66.6184 127.484 63.2217C127.484 63.2217 128.062 66.8611 123.846 67.6076Z" fill="#FF9AFF"/>
<path fill-rule="evenodd" clip-rule="evenodd" d="M120.124 56.3336C119.499 57.1454 123.1 57.0241 123.418 56.1749C123.735 55.3258 120.889 55.4004 120.124 56.3336Z" fill="white"/>
<path fill-rule="evenodd" clip-rule="evenodd" d="M118.594 58.2559C118.594 58.2559 118.65 63.855 122.008 66.9438C122.008 66.9438 119.107 61.6246 118.594 58.2559Z" fill="white"/>
<path fill-rule="evenodd" clip-rule="evenodd" d="M122.644 67.6072C122.644 67.6072 123.436 68.792 124.08 68.7174C124.08 68.7174 123.268 67.4207 122.644 67.6072Z" fill="white"/>
<path style="mix-blend-mode:screen" opacity="0.92" fill-rule="evenodd" clip-rule="evenodd" d="M83.0977 31.0351C83.0977 31.0351 84.7582 28.0583 87.1931 28.0303C90.6636 28.0303 90.8688 32.6962 90.8688 32.6962C90.8688 32.6962 87.1838 34.0773 83.0977 31.0351Z" fill="url(#paint17_radial)"/>
<path style="mix-blend-mode:screen" fill-rule="evenodd" clip-rule="evenodd" d="M84.207 30.2053C83.526 31.1385 86.4833 29.72 87.7054 29.4868C88.9275 29.2535 89.2354 29.8507 89.2354 29.8507C89.2354 29.8507 87.155 26.118 84.207 30.2053Z" fill="url(#paint18_linear)"/>
<path fill-rule="evenodd" clip-rule="evenodd" d="M90.2149 32.49C90.2945 31.5754 90.061 30.6609 89.5527 29.8965C89.7692 30.0207 89.9585 30.187 90.1095 30.3857C90.2605 30.5844 90.3701 30.8114 90.4319 31.0532C90.4936 31.295 90.5062 31.5468 90.469 31.7936C90.4317 32.0404 90.3453 32.2772 90.2149 32.49Z" fill="#FF9AFF"/>
<path fill-rule="evenodd" clip-rule="evenodd" d="M84.5986 29.9709C84.5986 30.4467 85.9043 29.3738 85.7831 28.9633C85.6618 28.5529 84.5986 29.3831 84.5986 29.9709Z" fill="white"/>
<path fill-rule="evenodd" clip-rule="evenodd" d="M84.5605 31.96C84.5605 31.96 87.3593 33.425 89.4583 33.0051C87.7871 32.8721 86.1405 32.5207 84.5605 31.96Z" fill="white"/>
<path fill-rule="evenodd" clip-rule="evenodd" d="M89.8877 32.9495C89.8877 32.9495 90.5592 32.9495 90.6991 32.7163C90.6991 32.7163 89.981 32.6603 89.8877 32.9495Z" fill="white"/>
<path fill-rule="evenodd" clip-rule="evenodd" d="M92.5469 35.1787C93.1924 35.4052 93.7612 35.8087 94.1884 36.3432C94.6155 36.8777 94.8837 37.5216 94.9624 38.2013C94.328 37.957 93.7699 37.5484 93.3455 37.0172C92.921 36.486 92.6454 35.8515 92.5469 35.1787Z" fill="white"/>
<path fill-rule="evenodd" clip-rule="evenodd" d="M45.8457 113.258C47.9529 112.634 50.1095 112.191 52.2921 111.933C54.3895 111.589 56.5291 111.589 58.6266 111.933C58.6266 111.933 49.7733 112.643 45.8457 113.258Z" fill="white"/>
<path fill-rule="evenodd" clip-rule="evenodd" d="M68.0508 114.322C68.0508 114.322 73.1165 118.27 74.861 120.948C74.861 120.948 74.3386 117.476 68.0508 114.322Z" fill="white"/>
<path fill-rule="evenodd" clip-rule="evenodd" d="M58.1689 35.9819C59.2949 34.7713 60.7514 33.9179 62.3577 33.5277C63.6604 33.1768 65.0016 32.9888 66.3506 32.9678C66.3506 32.9678 61.5181 36.2992 58.1689 35.9819Z" fill="white"/>
<path fill-rule="evenodd" clip-rule="evenodd" d="M59.8564 112.073C59.8564 112.073 61.4513 111.374 62.0202 112.362C62.0202 112.325 60.2855 112.922 59.8564 112.073Z" fill="white"/>
<path fill-rule="evenodd" clip-rule="evenodd" d="M71.4541 128.906C71.4541 128.906 71.4541 127.628 73.5712 126.966C73.5712 126.966 73.7577 128.645 71.4541 128.906Z" fill="#FF9AFF"/>
<path style="mix-blend-mode:screen" opacity="0.92" d="M44.3547 39.7712C48.5894 35.2509 48.3589 28.1525 43.8399 23.9166C39.3209 19.6806 32.2246 19.9111 27.9899 24.4315C23.7552 28.9518 23.9856 36.0501 28.5046 40.2861C33.0236 44.5221 40.1199 44.2915 44.3547 39.7712Z" fill="url(#paint19_radial)"/>
<path style="mix-blend-mode:screen" fill-rule="evenodd" clip-rule="evenodd" d="M25.7966 32.2668C25.7966 32.2668 27.6625 35.477 33.6331 31.1937C39.6037 26.9104 42.3091 24.6054 44.912 25.7346C44.912 25.7346 39.1932 19.0716 31.8512 22.3564C24.5839 25.5386 25.7966 32.2668 25.7966 32.2668Z" fill="url(#paint20_linear)"/>
<path fill-rule="evenodd" clip-rule="evenodd" d="M40.1064 41.6829C40.1064 41.6829 45.2374 39.2193 46.301 33.7695C46.301 33.7695 47.3551 40.0032 40.1064 41.6829Z" fill="#FF9AFF"/>
<path fill-rule="evenodd" clip-rule="evenodd" d="M25.7803 29.8968C26.0466 28.3211 26.7257 26.8442 27.7482 25.6164C28.7708 24.3886 30.1004 23.4538 31.6016 22.9072C31.6016 22.9072 29.3813 29.9621 25.7803 29.8968Z" fill="white"/>
<path fill-rule="evenodd" clip-rule="evenodd" d="M31.8157 22.6549C31.2747 22.3843 33.5317 21.582 34.7908 21.6473C34.7908 21.6473 32.5618 23.0374 31.8157 22.6549Z" fill="white"/>
<path fill-rule="evenodd" clip-rule="evenodd" d="M34.8486 42.5601C34.8486 42.5601 37.4981 40.4418 40.1476 41.6829C40.1102 41.6829 38.431 43.2693 34.8486 42.5601Z" fill="white"/>
<path style="mix-blend-mode:screen" opacity="0.92" fill-rule="evenodd" clip-rule="evenodd" d="M105.869 129.981C105.869 131.014 105.563 132.025 104.989 132.884C104.415 133.743 103.599 134.413 102.644 134.809C101.69 135.204 100.639 135.308 99.626 135.106C98.6126 134.904 97.6817 134.407 96.9511 133.676C96.2204 132.945 95.7229 132.014 95.5213 131C95.3197 129.986 95.4232 128.936 95.8186 127.981C96.214 127.026 96.8836 126.21 97.7427 125.636C98.6019 125.061 99.6119 124.755 100.645 124.755C102.031 124.755 103.36 125.305 104.339 126.285C105.319 127.266 105.869 128.595 105.869 129.981Z" fill="url(#paint21_radial)"/>
<path style="mix-blend-mode:screen" fill-rule="evenodd" clip-rule="evenodd" d="M95.815 130.055C95.815 130.055 96.692 131.548 99.4627 129.561C102.233 127.573 103.512 126.49 104.715 127.013C104.715 127.013 102.056 123.915 98.6137 125.445C97.6957 125.785 96.9195 126.425 96.4114 127.262C95.9033 128.099 95.6931 129.084 95.815 130.055Z" fill="url(#paint22_linear)"/>
<path fill-rule="evenodd" clip-rule="evenodd" d="M102.473 134.452C103.188 134.079 103.816 133.557 104.313 132.921C104.81 132.285 105.166 131.55 105.355 130.766C105.355 130.766 105.85 133.668 102.473 134.452Z" fill="#FF9AFF"/>
<path fill-rule="evenodd" clip-rule="evenodd" d="M95.8037 128.962C95.9276 128.229 96.243 127.542 96.718 126.97C97.193 126.398 97.8106 125.962 98.5084 125.706C98.5084 125.706 97.4825 128.99 95.8037 128.962Z" fill="white"/>
<path fill-rule="evenodd" clip-rule="evenodd" d="M98.6105 125.594C98.3586 125.464 99.4125 125.091 100 125.119C100 125.119 98.9555 125.772 98.6105 125.594Z" fill="white"/>
<path fill-rule="evenodd" clip-rule="evenodd" d="M100.01 154.862C100.351 154.589 100.757 154.408 101.188 154.337C101.618 154.265 102.061 154.304 102.472 154.451C102.121 154.706 101.716 154.875 101.289 154.946C100.862 155.018 100.424 154.989 100.01 154.862Z" fill="white"/>
<defs>
<radialGradient id="paint0_radial" cx="0" cy="0" r="1" gradientUnits="userSpaceOnUse" gradientTransform="translate(77.5561 77.984) scale(64.1655 64.1842)">
<stop offset="0.01" stop-color="#009BFF"/>
<stop offset="1" stop-opacity="0"/>
</radialGradient>
<radialGradient id="paint1_radial" cx="0" cy="0" r="1" gradientUnits="userSpaceOnUse" gradientTransform="translate(77.5544 77.9825) scale(63.9207 63.9393)">
<stop offset="0.01" stop-color="#0092FF"/>
<stop offset="0.13" stop-color="#0090FB"/>
<stop offset="0.26" stop-color="#0089EF"/>
<stop offset="0.38" stop-color="#007DDB"/>
<stop offset="0.51" stop-color="#006DBF"/>
<stop offset="0.729067" stop-color="#006DBD" stop-opacity="0.98377"/>
<stop offset="0.729167" stop-color="#006388" stop-opacity="0.5"/>
<stop offset="0.979167" stop-color="#003F6E" stop-opacity="0"/>
</radialGradient>
<radialGradient id="paint2_radial" cx="0" cy="0" r="1" gradientUnits="userSpaceOnUse" gradientTransform="translate(82.4707 81.941) scale(39.7606 39.7722)">
<stop stop-color="#1372B3"/>
<stop offset="1" stop-color="white"/>
</radialGradient>
<linearGradient id="paint3_linear" x1="47.3958" y1="92.6639" x2="59.421" y2="92.6639" gradientUnits="userSpaceOnUse">
<stop stop-color="#B8C2FF"/>
<stop offset="1" stop-color="#7D72B3"/>
</linearGradient>
<linearGradient id="paint4_linear" x1="179.864" y1="1174.76" x2="186.489" y2="1174.76" gradientUnits="userSpaceOnUse">
<stop stop-color="#B8C2FF"/>
<stop offset="1" stop-color="#7D72B3"/>
</linearGradient>
<linearGradient id="paint5_linear" x1="815.809" y1="1271.2" x2="982.835" y2="1271.2" gradientUnits="userSpaceOnUse">
<stop stop-color="#B8C2FF"/>
<stop offset="1" stop-color="#7D72B3"/>
</linearGradient>
<linearGradient id="paint6_linear" x1="49.7776" y1="38.3568" x2="99.7468" y2="85.965" gradientUnits="userSpaceOnUse">
<stop offset="0.02" stop-color="#B3FFE8"/>
<stop offset="0.21" stop-color="#83BBAA"/>
<stop offset="0.43" stop-color="#55796E"/>
<stop offset="0.62" stop-color="#30453F" stop-opacity="0"/>
</linearGradient>
<radialGradient id="paint7_radial" cx="0" cy="0" r="1" gradientUnits="userSpaceOnUse" gradientTransform="translate(97.2608 115.246) scale(27.8753 27.8834)">
<stop stop-color="#97E5D9"/>
<stop offset="0.36" stop-color="#61938C"/>
<stop offset="1" stop-opacity="0"/>
</radialGradient>
<linearGradient id="paint8_linear" x1="5742" y1="12944.9" x2="5742" y2="10711.3" gradientUnits="userSpaceOnUse">
<stop stop-color="#BDFFE8"/>
<stop offset="0.2" stop-color="#8BBBAA"/>
<stop offset="0.42" stop-color="#5A796E"/>
<stop offset="0.61" stop-color="#33453F" stop-opacity="0"/>
</linearGradient>
<linearGradient id="paint9_linear" x1="6311.01" y1="12765.9" x2="6311.01" y2="10806.9" gradientUnits="userSpaceOnUse">
<stop stop-color="#BDFFE8"/>
<stop offset="0.2" stop-color="#8BBBAA"/>
<stop offset="0.42" stop-color="#5A796E"/>
<stop offset="0.61" stop-color="#33453F" stop-opacity="0"/>
</linearGradient>
<linearGradient id="paint10_linear" x1="4608.24" y1="7174.78" x2="4608.24" y2="6318.01" gradientUnits="userSpaceOnUse">
<stop stop-color="#BDFFE8"/>
<stop offset="0.2" stop-color="#8BBBAA"/>
<stop offset="0.42" stop-color="#5A796E"/>
<stop offset="0.61" stop-color="#33453F" stop-opacity="0"/>
</linearGradient>
<radialGradient id="paint11_radial" cx="0" cy="0" r="1" gradientUnits="userSpaceOnUse" gradientTransform="translate(105.87 41.3287) scale(14.572 14.5763)">
<stop offset="0.77" stop-opacity="0"/>
<stop offset="0.79" stop-color="#060106"/>
<stop offset="0.8" stop-color="#170416"/>
<stop offset="0.82" stop-color="#320A31"/>
<stop offset="0.84" stop-color="#581157"/>
<stop offset="0.86" stop-color="#8A1B88"/>
<stop offset="0.89" stop-color="#C527C2"/>
<stop offset="0.91" stop-color="#FF32FC"/>
<stop offset="0.92" stop-color="#FB33FB"/>
<stop offset="0.93" stop-color="#EE38F7"/>
<stop offset="0.94" stop-color="#D93FF0"/>
<stop offset="0.95" stop-color="#BC49E7"/>
<stop offset="0.97" stop-color="#9657DB"/>
<stop offset="0.98" stop-color="#6867CC"/>
<stop offset="0.99" stop-color="#327ABB"/>
<stop offset="1" stop-color="#008BAB"/>
</radialGradient>
<radialGradient id="paint12_radial" cx="0" cy="0" r="1" gradientUnits="userSpaceOnUse" gradientTransform="translate(1634.34 6730.05) scale(454.291 319.033)">
<stop offset="0.77" stop-opacity="0"/>
<stop offset="0.79" stop-color="#060106"/>
<stop offset="0.8" stop-color="#170416"/>
<stop offset="0.82" stop-color="#320A31"/>
<stop offset="0.84" stop-color="#581157"/>
<stop offset="0.86" stop-color="#8A1B88"/>
<stop offset="0.89" stop-color="#C527C2"/>
<stop offset="0.91" stop-color="#FF32FC"/>
<stop offset="0.92" stop-color="#FB33FB"/>
<stop offset="0.93" stop-color="#EE38F7"/>
<stop offset="0.94" stop-color="#D93FF0"/>
<stop offset="0.95" stop-color="#BC49E7"/>
<stop offset="0.97" stop-color="#9657DB"/>
<stop offset="0.98" stop-color="#6867CC"/>
<stop offset="0.99" stop-color="#327ABB"/>
<stop offset="1" stop-color="#008BAB"/>
</radialGradient>
<linearGradient id="paint13_linear" x1="98.4046" y1="26.7326" x2="115.239" y2="42.6758" gradientUnits="userSpaceOnUse">
<stop offset="0.02" stop-color="#54FFE8"/>
<stop offset="0.21" stop-color="#3EBBAA"/>
<stop offset="0.43" stop-color="#28796E"/>
<stop offset="0.62" stop-color="#17453F"/>
<stop offset="0.78" stop-color="#0A1F1D" stop-opacity="0"/>
</linearGradient>
<linearGradient id="paint14_linear" x1="1170.52" y1="3603.94" x2="1348.46" y2="4015.1" gradientUnits="userSpaceOnUse">
<stop offset="0.02" stop-color="#54FFE8"/>
<stop offset="0.21" stop-color="#3EBBAA"/>
<stop offset="0.43" stop-color="#28796E"/>
<stop offset="0.62" stop-color="#17453F" stop-opacity="0"/>
</linearGradient>
<radialGradient id="paint15_radial" cx="0" cy="0" r="1" gradientUnits="userSpaceOnUse" gradientTransform="translate(1840.19 3273.27) rotate(-11.7158) scale(62.0319 99.8871)">
<stop offset="0.77" stop-opacity="0"/>
<stop offset="0.79" stop-color="#060106"/>
<stop offset="0.8" stop-color="#170416"/>
<stop offset="0.82" stop-color="#320A31"/>
<stop offset="0.84" stop-color="#581157"/>
<stop offset="0.86" stop-color="#8A1B88"/>
<stop offset="0.89" stop-color="#C527C2"/>
<stop offset="0.91" stop-color="#FF32FC"/>
<stop offset="0.92" stop-color="#FB33FB"/>
<stop offset="0.93" stop-color="#EE38F7"/>
<stop offset="0.94" stop-color="#D93FF0"/>
<stop offset="0.95" stop-color="#BC49E7"/>
<stop offset="0.97" stop-color="#9657DB"/>
<stop offset="0.98" stop-color="#6867CC"/>
<stop offset="0.99" stop-color="#327ABB"/>
<stop offset="1" stop-color="#008BAB"/>
</radialGradient>
<linearGradient id="paint16_linear" x1="1208.81" y1="1617.45" x2="1260.63" y2="1688.96" gradientUnits="userSpaceOnUse">
<stop offset="0.02" stop-color="#54FFE8"/>
<stop offset="0.21" stop-color="#3EBBAA"/>
<stop offset="0.43" stop-color="#28796E"/>
<stop offset="0.62" stop-color="#17453F" stop-opacity="0"/>
</linearGradient>
<radialGradient id="paint17_radial" cx="0" cy="0" r="1" gradientUnits="userSpaceOnUse" gradientTransform="translate(86.2751 32.097) rotate(-65.904) scale(2.85128 3.41742)">
<stop offset="0.69" stop-color="#002932" stop-opacity="0"/>
<stop offset="0.8" stop-color="#004858"/>
<stop offset="0.92" stop-color="#006F89"/>
<stop offset="1" stop-color="#008BAB"/>
</radialGradient>
<linearGradient id="paint18_linear" x1="592.173" y1="234.543" x2="606.22" y2="241.928" gradientUnits="userSpaceOnUse">
<stop offset="0.02" stop-color="#54FFE8"/>
<stop offset="0.21" stop-color="#3EBBAA"/>
<stop offset="0.43" stop-color="#28796E"/>
<stop offset="0.62" stop-color="#17453F"/>
<stop offset="0.78" stop-color="#0A1F1D" stop-opacity="0"/>
</linearGradient>
<radialGradient id="paint19_radial" cx="0" cy="0" r="1" gradientUnits="userSpaceOnUse" gradientTransform="translate(35.2442 31.2646) scale(11.9972 12.0007)">
<stop offset="0.77" stop-opacity="0"/>
<stop offset="0.79" stop-color="#000506"/>
<stop offset="0.8" stop-color="#001217"/>
<stop offset="0.82" stop-color="#002932"/>
<stop offset="0.84" stop-color="#004858"/>
<stop offset="0.86" stop-color="#006F89"/>
<stop offset="0.87" stop-color="#008BAB"/>
<stop offset="0.98" stop-color="#FF32FC"/>
</radialGradient>
<linearGradient id="paint20_linear" x1="279.237" y1="2536.66" x2="674.193" y2="2536.66" gradientUnits="userSpaceOnUse">
<stop offset="0.02" stop-color="#54FFE8"/>
<stop offset="0.21" stop-color="#3EBBAA"/>
<stop offset="0.43" stop-color="#28796E"/>
<stop offset="0.62" stop-color="#17453F" stop-opacity="0"/>
</linearGradient>
<radialGradient id="paint21_radial" cx="0" cy="0" r="1" gradientUnits="userSpaceOnUse" gradientTransform="translate(1067.77 3464.15) scale(62.587 62.6051)">
<stop offset="0.77" stop-opacity="0"/>
<stop offset="0.79" stop-color="#000506"/>
<stop offset="0.8" stop-color="#001217"/>
<stop offset="0.82" stop-color="#002932"/>
<stop offset="0.84" stop-color="#004858"/>
<stop offset="0.86" stop-color="#006F89"/>
<stop offset="0.87" stop-color="#008BAB"/>
<stop offset="0.98" stop-color="#FF32FC"/>
</radialGradient>
<linearGradient id="paint22_linear" x1="884.718" y1="1894.94" x2="970.304" y2="1894.94" gradientUnits="userSpaceOnUse">
<stop offset="0.02" stop-color="#54FFE8"/>
<stop offset="0.21" stop-color="#3EBBAA"/>
<stop offset="0.43" stop-color="#28796E"/>
<stop offset="0.62" stop-color="#17453F" stop-opacity="0"/>
</linearGradient>
</defs>
</svg>
