<svg width="369" height="29" viewBox="0 0 369 29" fill="none" xmlns="http://www.w3.org/2000/svg">
<path d="M365 28.4971C366.933 28.4971 368.5 26.9301 368.5 24.9971C368.5 23.0641 366.933 21.4971 365 21.4971L365 28.4971ZM4 21.497C2.06699 21.497 0.5 23.064 0.5 24.997C0.5 26.93 2.06699 28.497 4 28.497L4 21.497ZM93.8973 24.4558L93.0886 21.0505L93.8973 24.4558ZM188.851 4.07775L189.652 0.670537L188.851 4.07775ZM179.655 4.08878L180.464 7.49406L179.655 4.08878ZM275.627 24.4668L276.428 21.0596L275.627 24.4668ZM276.428 21.0596L189.652 0.670537L188.05 7.48496L274.827 27.8741L276.428 21.0596ZM178.846 0.683498L93.0886 21.0505L94.7061 27.8611L180.464 7.49406L178.846 0.683498ZM89.276 21.497L4 21.497L4 28.497L89.276 28.497L89.276 21.497ZM365 21.4971L321.442 21.4971L321.442 28.4971L365 28.4971L365 21.4971ZM321.442 21.4971L280.202 21.4971L280.202 28.4971L321.442 28.4971L321.442 21.4971ZM93.0886 21.0505C91.8394 21.3472 90.5599 21.497 89.276 21.497L89.276 28.497C91.1046 28.497 92.9269 28.2836 94.7061 27.8611L93.0886 21.0505ZM189.652 0.670537C186.098 -0.164491 182.398 -0.160053 178.846 0.683498L180.464 7.49406C182.958 6.90178 185.555 6.89867 188.05 7.48496L189.652 0.670537ZM274.827 27.8741C276.588 28.288 278.392 28.4971 280.202 28.4971L280.202 21.4971C278.931 21.4971 277.665 21.3503 276.428 21.0596L274.827 27.8741Z" fill="url(#paint0_radial)"/>
<defs>
<radialGradient id="paint0_radial" cx="0" cy="0" r="1" gradientUnits="userSpaceOnUse" gradientTransform="translate(185 -5.38389) rotate(-90) scale(31.9524 505.696)">
<stop stop-color="#429AFF"/>
<stop offset="1" stop-color="#191D2D" stop-opacity="0"/>
</radialGradient>
</defs>
</svg>
