<svg width="196" height="197" viewBox="0 0 196 197" fill="none" xmlns="http://www.w3.org/2000/svg">
<g filter="url(#filter0_d)">
<path fill-rule="evenodd" clip-rule="evenodd" d="M146 98.5102C146.005 104.88 144.766 111.189 142.354 117.075C139.942 122.961 136.404 128.309 131.942 132.813C127.48 137.317 122.183 140.888 116.352 143.323C110.522 145.757 104.274 147.007 97.9645 147C97.1129 147 96.2511 147 95.4097 146.928C94.1525 146.867 92.9055 146.744 91.6787 146.59C82.6358 145.395 74.1215 141.608 67.144 135.679C62.6467 131.854 58.8689 127.242 55.9918 122.064C55.6978 121.532 55.4139 121.041 55.13 120.447C55.13 120.447 55.13 120.447 55.13 120.396C54.836 119.812 54.5623 119.229 54.2987 118.635C53.4581 116.774 52.7401 114.859 52.1493 112.903C51.7006 111.476 51.325 110.028 51.024 108.562C50.8111 107.539 50.6286 106.515 50.4866 105.43C50.1604 103.152 49.9978 100.853 50 98.5512C50 97.2102 50.0507 95.8692 50.1724 94.559C50.2332 93.7196 50.3244 92.8904 50.436 92.0613C51.0435 87.3794 52.3386 82.8151 54.2784 78.5186C58.0832 70.0345 64.225 62.8346 71.971 57.7779C79.7171 52.7212 88.7404 50.0212 97.9645 50H99.4751C100.012 50 100.55 50 101.087 50.0819C103.821 50.2562 106.534 50.6672 109.198 51.3103C110.719 51.6788 112.239 52.1087 113.669 52.6205C114.683 52.9583 115.636 53.3371 116.599 53.7465C117.319 54.0536 118.018 54.3709 118.718 54.7087L119.083 54.8828C123.719 57.1724 127.96 60.2001 131.644 63.8498C132.171 64.3616 132.658 64.8735 133.185 65.4365C133.52 65.805 133.854 66.1837 134.199 66.5625C134.757 67.1971 135.294 67.8625 135.821 68.5279C139.999 73.9383 142.988 80.1843 144.591 86.851C145.528 90.6651 146.001 94.5804 146 98.5102Z" fill="white"/>
</g>
<path style="mix-blend-mode:screen" d="M98.5 155C130.256 155 156 129.256 156 97.5C156 65.7436 130.256 40 98.5 40C66.7436 40 41 65.7436 41 97.5C41 129.256 66.7436 155 98.5 155Z" fill="url(#paint0_radial)"/>
<path style="mix-blend-mode:screen" d="M93.3757 148.322C124.133 148.322 149.066 123.388 149.066 92.6316C149.066 61.8748 124.133 36.9414 93.3757 36.9414C62.6189 36.9414 37.6855 61.8748 37.6855 92.6316C37.6855 123.388 62.6189 148.322 93.3757 148.322Z" fill="url(#paint1_radial)"/>
<path fill-rule="evenodd" clip-rule="evenodd" d="M142.541 70.0403C142.541 70.0403 126.505 52.3779 105.103 45.6504C105.103 45.6504 66.8003 52.3169 57.705 67.713C48.6096 83.1091 43.4775 110.446 57.705 127.234C71.9324 144.023 87.8976 149.419 107.562 146.116C127.226 142.813 132.277 135.73 132.277 135.73C132.277 135.73 133.344 126.472 141.738 124.816C141.769 124.785 153.435 91.046 142.541 70.0403Z" fill="url(#paint2_radial)"/>
<path fill-rule="evenodd" clip-rule="evenodd" d="M143.525 96.7976C143.532 102.724 142.369 108.593 140.104 114.07C137.839 119.546 134.515 124.521 130.323 128.711C126.132 132.9 121.155 136.222 115.678 138.485C110.2 140.748 104.331 141.908 98.4042 141.899C97.6116 141.899 96.7986 141.899 96.0059 141.838C94.8271 141.777 93.6584 141.665 92.4999 141.522C85.525 140.576 78.8651 138.023 73.0454 134.064C67.2257 130.105 62.4051 124.848 58.9638 118.708L58.1508 117.204C58.1556 117.187 58.1556 117.17 58.1508 117.153C57.8662 116.614 57.6122 116.066 57.3683 115.517C56.5725 113.786 55.8935 112.003 55.3358 110.182C54.9271 108.845 54.5879 107.488 54.3195 106.117C54.1265 105.151 53.9537 104.186 53.8216 103.2C53.5152 101.083 53.3623 98.9467 53.3643 96.8078C53.3643 95.5578 53.3643 94.3078 53.5167 93.0883C53.5777 92.3058 53.6692 91.5436 53.7708 90.7713C54.3275 86.417 55.5297 82.1699 57.3378 78.1698C60.9227 70.2782 66.7029 63.5848 73.9884 58.8888C81.2738 54.1928 89.7568 51.6926 98.4245 51.6865H99.8473L101.362 51.7577C101.87 51.7577 102.378 51.8288 102.876 51.8898C104.929 52.0853 106.967 52.4249 108.973 52.906C110.396 53.2515 111.798 53.6479 113.17 54.1255C114.105 54.4405 115.02 54.7861 115.924 55.1417C116.595 55.4263 117.256 55.721 117.957 56.036L118.302 56.1986C119.207 56.6356 120.091 57.1133 120.955 57.6112C124.286 59.5224 127.36 61.8516 130.101 64.542C130.589 65.0196 131.066 65.5075 131.544 66.0156C131.859 66.3611 132.174 66.7066 132.479 67.0318C132.997 67.6212 133.495 68.2411 134.003 68.861C140.248 76.8058 143.638 86.621 143.627 96.7265L143.525 96.7976Z" fill="url(#paint3_radial)"/>
<path fill-rule="evenodd" clip-rule="evenodd" d="M138.893 82.4582C134.381 75.1209 120.662 73.4441 116.251 77.5904C112.318 81.2997 115.895 92.4885 119.981 99.5921C119.981 99.5921 107.593 81.2997 115.773 73.9827C123.954 66.6658 140.682 76.0152 144.106 81.7977C147.531 87.5801 146.332 98.5555 144.106 102.448C141.881 106.34 137.328 105.903 137.328 105.903C137.328 105.903 148.121 97.4783 138.893 82.4582Z" fill="url(#paint4_radial)"/>
<path style="mix-blend-mode:multiply" opacity="0.71" fill-rule="evenodd" clip-rule="evenodd" d="M55.4805 82.885C55.4805 82.885 62.3198 74.5924 67.3604 75.7712C72.4009 76.9501 69.8908 85.9337 69.8908 85.9337L74.972 71.3506C74.972 71.3506 65.7039 67.5803 62.6348 69.3181C59.6693 73.5095 57.2642 78.0704 55.4805 82.885Z" fill="url(#paint5_linear)"/>
<path fill-rule="evenodd" clip-rule="evenodd" d="M76.5465 132.285C76.1603 132.978 75.9576 133.758 75.9576 134.551C75.9576 135.345 76.1603 136.125 76.5465 136.818C77.8168 139.541 83.4163 143.759 95.9873 144.643C109.605 145.659 116.698 137.295 116.79 135.751C116.881 134.206 112.583 132.824 112.583 132.824C112.583 132.824 117.41 132.997 118.548 135.771C119.686 138.545 110.479 148.2 95.1743 146.848C79.8696 145.496 72.258 136.381 72.3494 133.952C72.4409 131.523 76.5465 132.285 76.5465 132.285Z" fill="url(#paint6_linear)"/>
<path fill-rule="evenodd" clip-rule="evenodd" d="M67.3586 70.0408C65.9397 69.1707 64.2404 68.8796 62.6128 69.2278C59.1677 70.1018 54.8588 77.7135 54.4117 83.6178C54.0153 88.6991 55.8649 92.8352 56.9523 93.4449C58.0397 94.0547 61.2815 93.4449 61.2815 93.4449C60.2007 94.1063 58.9822 94.5098 57.7204 94.6244C56.4586 94.7389 55.1873 94.5614 54.0052 94.1055C49.7369 92.6014 51.7898 79.9695 54.0052 74.553C56.2206 69.1364 63.1514 65.6507 64.8891 66.0165C66.6269 66.3824 67.3586 70.0408 67.3586 70.0408Z" fill="url(#paint7_linear)"/>
<path fill-rule="evenodd" clip-rule="evenodd" d="M111.617 108.658C110.54 107.215 104.341 105.701 104.341 105.701L101.18 109.197C98.8734 109.858 97.2474 117.134 99.2291 118.76C101.211 120.386 109.097 120.02 110.296 116.961C111.495 113.902 112.705 110.071 111.617 108.658ZM102.115 116.9C100.377 115.152 101.251 110.508 103.264 110.284C105.967 109.98 107.562 110.701 108.131 113.171C108.701 115.64 103.863 118.607 102.115 116.87V116.9Z" fill="url(#paint8_linear)"/>
<path fill-rule="evenodd" clip-rule="evenodd" d="M63.9537 128.149C64.97 128.749 68.7402 127.936 68.7402 127.936L69.1975 124.887C70.2138 123.82 68.5573 118.79 66.9821 118.373C65.407 117.956 61.4233 120.405 61.8399 122.621C62.2566 124.836 62.907 127.56 63.9537 128.149ZM66.1082 120.334C67.602 120.924 68.7199 124.074 67.7545 124.785C66.4537 125.73 65.3765 125.73 64.2484 124.359C63.1204 122.987 64.6143 119.735 66.1082 120.334Z" fill="url(#paint9_linear)"/>
<path style="mix-blend-mode:multiply" opacity="0.71" fill-rule="evenodd" clip-rule="evenodd" d="M141.465 87.7544C141.465 87.7544 133.751 80.5899 124.9 80.8642C116.048 81.1386 114.87 90.9047 118.284 96.3112C121.699 101.718 108.183 92.1039 108.183 92.1039V71.2912C108.183 71.2912 124.554 69.6855 133.264 73.6184C141.973 77.5513 141.465 87.7544 141.465 87.7544Z" fill="url(#paint10_linear)"/>
<path style="mix-blend-mode:multiply" opacity="0.71" fill-rule="evenodd" clip-rule="evenodd" d="M114.626 56.9105C113.386 58.6483 115.144 64.8474 115.144 64.8474L101.181 58.2113L102.857 51.9004C104.911 52.0959 106.949 52.4355 108.955 52.9166C110.378 53.2622 111.78 53.6585 113.152 54.1361C114.087 54.4512 115.002 54.7967 115.906 55.1524C116.577 55.4369 117.237 55.7316 117.939 56.0467L118.284 56.2093C119.189 56.6463 120.073 57.1239 120.936 57.6219C118.64 56.8292 115.418 55.8129 114.626 56.9105Z" fill="url(#paint11_linear)"/>
<path style="mix-blend-mode:multiply" opacity="0.71" fill-rule="evenodd" clip-rule="evenodd" d="M53.8635 103.882C54.4261 103.281 55.1484 102.852 55.9458 102.647C56.7432 102.442 57.5826 102.468 58.3655 102.723C59.2196 102.995 59.991 103.478 60.6077 104.129C61.2243 104.779 61.6661 105.575 61.8918 106.443L64.2394 98.0485L54.6155 95.9551L52.8574 97.6217L53.8635 103.882Z" fill="url(#paint12_linear)"/>
<path style="mix-blend-mode:multiply" opacity="0.71" fill-rule="evenodd" clip-rule="evenodd" d="M100.448 114.847C100.448 114.847 101.098 112.723 105.102 112.723C109.106 112.723 108.547 115.386 108.547 115.386L111.291 110.223L103.283 105.437L95.9561 108.516L100.448 114.847Z" fill="url(#paint13_linear)"/>
<path style="mix-blend-mode:multiply" opacity="0.71" fill-rule="evenodd" clip-rule="evenodd" d="M75.7929 136.635C75.7929 136.635 78.3945 134.897 94.5629 133.932C110.731 132.966 117.174 138.424 117.174 138.424L119.024 130.751L86.809 123.901L71.6873 128.353L70.793 132.417L75.7929 136.635Z" fill="url(#paint14_linear)"/>
<path fill-rule="evenodd" clip-rule="evenodd" d="M57.6559 98.8102C56.8528 98.2361 55.8749 97.9596 54.8902 98.0282C53.9054 98.0968 52.9753 98.5062 52.2596 99.1862C49.6072 101.463 49.6174 107.906 51.5178 111.452C53.1539 114.501 57.9506 112.824 57.9506 112.824C57.9506 112.824 54.1295 116.269 51.1215 114.155C48.1134 112.042 47.5138 100.385 50.156 97.0825C52.7982 93.7797 57.6559 98.8102 57.6559 98.8102Z" fill="url(#paint15_linear)"/>
<path fill-rule="evenodd" clip-rule="evenodd" d="M148.518 84.3598C147.575 80.5367 146.19 76.8364 144.392 73.3335C143.823 72.1953 143.203 71.0978 142.542 70.0104C138.609 71.921 132.553 72.8356 124.189 68.6182C112.98 62.9272 107.482 51.9721 105.104 45.651C103.996 45.5088 102.868 45.397 101.74 45.3157C101.161 45.3157 100.571 45.2547 100.002 45.2344H98.3764C89.6915 45.2362 81.1474 47.4296 73.5355 51.6112C65.9236 55.7929 59.4899 61.8277 54.8303 69.1568C53.524 71.1932 52.3691 73.3229 51.3751 75.5286C49.29 80.1006 47.8961 84.9571 47.2389 89.9389C47.1272 90.8231 47.0255 91.7072 46.9646 92.6015C46.8324 93.9938 46.7715 95.4165 46.7715 96.8494C46.7726 99.2979 46.9492 101.743 47.2999 104.166C47.4524 105.294 47.6455 106.392 47.8792 107.5C47.8753 107.516 47.8753 107.534 47.8792 107.55C48.2032 109.108 48.6069 110.648 49.0885 112.164C49.7219 114.244 50.4891 116.281 51.3852 118.262C51.6698 118.902 51.9645 119.522 52.2694 120.142C52.2694 120.142 52.2694 120.142 52.2694 120.193C52.5742 120.762 52.8791 121.351 53.1941 121.91C57.1157 128.946 62.626 134.97 69.2862 139.5C75.9465 144.031 83.5726 146.944 91.5574 148.007C92.8683 148.18 94.2098 148.302 95.5614 148.373C96.4658 148.434 97.3906 148.444 98.3052 148.444C110.775 148.484 122.83 143.97 132.207 135.751C129.87 130.741 131.801 121.036 135.408 120.884C137.177 120.802 139.788 122.489 141.668 124.837C145.493 118.916 148.065 112.275 149.226 105.322C150.387 98.3694 150.111 91.2527 148.416 84.4106L148.518 84.3598ZM53.1738 114.502C46.802 112.957 48.6617 96.9917 53.2958 96.7986C56.3445 96.6665 61.8932 101.799 61.8932 106.443C61.8932 111.087 55.6534 115.101 53.1738 114.502ZM102.33 117.906C98.478 116.961 100.124 110.721 102.777 109.776C105.226 108.922 109.748 110.904 109.22 113.709C108.498 117.55 103.823 118.272 102.33 117.906ZM65.1452 126.422C62.7773 125.894 61.8119 121.077 63.448 120.558C65.0842 120.04 67.9703 123.13 67.635 124.705C67.198 126.839 66.07 126.625 65.1452 126.422ZM69.5354 86.7378C67.4216 92.2662 56.69 95.8332 55.0234 93.943C52.3405 90.8942 51.9137 82.6931 54.7998 76.1485C58.1128 68.6182 62.5639 67.4901 64.2407 67.2869C65.9175 67.0836 73.6613 76.1384 69.5354 86.7378ZM92.5838 145.975C78.6612 145.06 69.6878 133.922 74.83 132.662C93.5899 128.089 119.179 132.784 118.528 135.772C117.492 140.416 108.214 147.021 92.6244 145.975H92.5838ZM134.981 106.839C120.246 111.514 108.214 80.3151 115.673 75.4778C123.366 70.4576 136.821 75.6506 140.774 80.9554C144.107 85.4167 149.748 102.154 135.022 106.839H134.981Z" fill="url(#paint16_radial)"/>
<path style="mix-blend-mode:screen" d="M94.0676 96.4985C105.788 88.3529 109.727 73.7467 102.865 63.8748C96.0042 54.0028 80.9411 52.6034 69.221 60.749C57.501 68.8947 53.5621 83.5008 60.4233 93.3728C67.2844 103.245 82.3475 104.644 94.0676 96.4985Z" fill="url(#paint17_radial)"/>
<path fill-rule="evenodd" clip-rule="evenodd" d="M119.33 51.9105C119.33 51.9105 109.259 47.1443 107.765 47.8455C106.271 48.5467 111.332 61.89 122.379 67.3269C134.187 73.1499 140.783 69.1358 140.783 69.1358L138.324 65.9143C139.814 67.2041 141.219 68.5891 142.531 70.0606C142.531 70.0606 136.159 77.8857 121.027 68.6683C105.103 58.9429 105.103 45.6504 105.103 45.6504C105.103 45.6504 111.2 46.6666 119.33 51.9105Z" fill="url(#paint18_radial)"/>
<g style="mix-blend-mode:multiply">
<g style="mix-blend-mode:multiply">
<path fill-rule="evenodd" clip-rule="evenodd" d="M72.0567 58.1309C71.8535 58.3036 71.4064 58.6187 71.762 58.8727C71.8637 58.9337 71.945 58.8727 72.0466 58.9337C72.1482 58.9947 72.1482 59.015 72.2397 58.9337C72.5242 58.8321 72.4124 58.0089 72.0872 58.1715L72.0567 58.1309Z" fill="#D1DEFF"/>
</g>
<g style="mix-blend-mode:multiply">
<path fill-rule="evenodd" clip-rule="evenodd" d="M61.2628 97.1855C61.0595 97.3583 60.6124 97.6835 60.9681 97.9274C61.0697 97.9986 61.151 97.9274 61.2526 97.9884C61.3543 98.0494 61.3543 98.0798 61.4457 98.0392C61.7303 97.9274 61.6185 97.1144 61.2933 97.277L61.2628 97.1855Z" fill="#D1DEFF"/>
</g>
<g style="mix-blend-mode:multiply">
<path fill-rule="evenodd" clip-rule="evenodd" d="M73.6006 61.1088C73.7249 61.039 73.8645 61.0006 74.0071 60.9971C74.0071 61.18 74.2002 61.5255 73.9461 61.6678C73.692 61.8101 73.8038 61.4036 73.7022 61.3121L73.6006 61.1088Z" fill="#D1DEFF"/>
</g>
<g style="mix-blend-mode:multiply">
<path fill-rule="evenodd" clip-rule="evenodd" d="M76.4661 61.2008C76.7405 61.3025 77.0047 61.4143 77.279 61.5362C77.3603 61.4549 77.4925 61.4752 77.5941 61.4041C77.7368 61.3005 77.8434 61.1548 77.899 60.9874C77.9189 60.8824 77.9156 60.7744 77.8892 60.6708C77.8629 60.5672 77.8142 60.4706 77.7465 60.3879C77.6832 60.2548 77.6011 60.1316 77.5026 60.022C77.424 59.9819 77.3369 59.9609 77.2486 59.9609C77.1602 59.9609 77.0732 59.9819 76.9945 60.022C76.8366 60.1222 76.7044 60.2579 76.6083 60.4184C76.4844 60.5771 76.407 60.767 76.3848 60.9671C76.3909 61.0636 76.42 61.1572 76.4694 61.2403C76.5189 61.3233 76.5874 61.3934 76.6693 61.4448L76.4661 61.2008Z" fill="#D1DEFF"/>
</g>
<g style="mix-blend-mode:multiply">
<path fill-rule="evenodd" clip-rule="evenodd" d="M78.9163 116.891C79.1906 116.992 79.4549 117.104 79.7293 117.226C79.8106 117.155 79.9427 117.165 80.0443 117.094C80.187 116.99 80.2936 116.845 80.3492 116.677C80.3684 116.572 80.3647 116.464 80.3384 116.361C80.3121 116.257 80.2638 116.161 80.1967 116.078C80.1334 115.945 80.0513 115.821 79.9528 115.712C79.8735 115.674 79.7867 115.654 79.6988 115.654C79.6109 115.654 79.524 115.674 79.4447 115.712C79.2869 115.812 79.1546 115.948 79.0585 116.108C78.9364 116.268 78.8592 116.457 78.835 116.657C78.8411 116.753 78.8702 116.847 78.9196 116.93C78.9691 117.013 79.0376 117.083 79.1195 117.135L78.9163 116.891Z" fill="#D1DEFF"/>
</g>
<g style="mix-blend-mode:multiply">
<path fill-rule="evenodd" clip-rule="evenodd" d="M135.407 115.01C135.681 115.112 135.945 115.224 136.219 115.346C136.301 115.264 136.433 115.285 136.535 115.214C136.674 115.11 136.778 114.964 136.829 114.797C136.854 114.693 136.853 114.585 136.829 114.48C136.804 114.376 136.755 114.28 136.687 114.197C136.624 114.064 136.542 113.941 136.443 113.832C136.364 113.791 136.277 113.771 136.189 113.771C136.101 113.771 136.014 113.791 135.935 113.832C135.777 113.932 135.645 114.068 135.549 114.228C135.425 114.387 135.347 114.577 135.325 114.777C135.331 114.873 135.36 114.967 135.41 115.05C135.459 115.133 135.528 115.203 135.61 115.254L135.407 115.01Z" fill="#D1DEFF"/>
</g>
<g style="mix-blend-mode:multiply">
<path fill-rule="evenodd" clip-rule="evenodd" d="M68.6928 63.8127C68.5804 63.8965 68.484 63.9997 68.4082 64.1176C68.52 64.2599 68.581 64.3818 68.7639 64.4428C68.7979 64.4624 68.8364 64.4727 68.8757 64.4727C68.9149 64.4727 68.9535 64.4624 68.9875 64.4428C69.0688 64.3716 68.9875 64.2802 69.0484 64.2091C69.1094 64.1379 69.1501 63.9753 69.0484 63.8025C68.9468 63.6298 68.9468 63.6603 68.835 63.6603C68.7232 63.6603 68.5911 63.6603 68.5505 63.7721L68.6928 63.8127Z" fill="#D1DEFF"/>
</g>
<g style="mix-blend-mode:multiply">
<path fill-rule="evenodd" clip-rule="evenodd" d="M69.3099 68.1201C69.3099 68.1709 69.0762 68.6994 69.3099 68.547C69.3372 68.5272 69.3594 68.5012 69.3748 68.4712C69.3901 68.4411 69.3981 68.4079 69.3981 68.3742C69.3981 68.3405 69.3901 68.3073 69.3748 68.2772C69.3594 68.2472 69.3372 68.2212 69.3099 68.2014V68.1506V68.1201Z" fill="#D1DEFF"/>
</g>
<g style="mix-blend-mode:multiply">
<path fill-rule="evenodd" clip-rule="evenodd" d="M65.1342 94.4307C65.1342 94.4307 64.9004 95.0099 65.1342 94.8575C65.1599 94.8356 65.1805 94.8083 65.1947 94.7776C65.2089 94.7469 65.2162 94.7135 65.2162 94.6796C65.2162 94.6458 65.2089 94.6124 65.1947 94.5817C65.1805 94.551 65.1599 94.5238 65.1342 94.5018V94.4307Z" fill="#D1DEFF"/>
</g>
<g style="mix-blend-mode:multiply">
<path fill-rule="evenodd" clip-rule="evenodd" d="M78.8539 71.6687C78.7171 71.8383 78.6199 72.0362 78.5693 72.248C78.6611 72.3216 78.7772 72.3579 78.8945 72.3496C79.0571 72.3496 79.0673 72.3496 79.0673 72.1464C79.0673 71.9431 79.1181 71.9228 79.0673 71.811C79.0165 71.6992 78.925 71.557 78.7828 71.6383L78.8539 71.6687Z" fill="#D1DEFF"/>
</g>
<g style="mix-blend-mode:multiply">
<path fill-rule="evenodd" clip-rule="evenodd" d="M71.4443 64.3304C71.5517 64.4214 71.6237 64.5473 71.6476 64.6861C71.4951 64.6861 71.485 64.5743 71.4646 64.4625C71.4443 64.3507 71.4647 64.3405 71.5968 64.1982L71.4443 64.3304Z" fill="#D1DEFF"/>
</g>
<g style="mix-blend-mode:multiply">
<path fill-rule="evenodd" clip-rule="evenodd" d="M70.0209 58.639C69.906 58.7199 69.8091 58.8237 69.7363 58.9439C69.8075 59.0353 69.7363 59.1878 69.9294 59.1776C70.1225 59.1675 70.1428 59.0455 70.1936 58.954C70.2444 58.8566 70.2722 58.7488 70.2749 58.639C70.2749 58.578 70.2749 58.324 70.1631 58.4967L70.0209 58.639Z" fill="#D1DEFF"/>
</g>
<g style="mix-blend-mode:multiply">
<path fill-rule="evenodd" clip-rule="evenodd" d="M88.459 55.6925C88.4875 55.547 88.5283 55.4042 88.5809 55.2656C88.5809 55.2656 88.6521 55.1945 88.6826 55.164C88.713 55.1335 88.6826 55.0319 88.8655 55.0217C88.9309 55.0142 88.9971 55.0202 89.0601 55.0394C89.123 55.0586 89.1814 55.0907 89.2313 55.1335C89.6378 55.4486 88.6114 55.7026 88.5708 55.3876L88.459 55.6925Z" fill="#D1DEFF"/>
</g>
<g style="mix-blend-mode:multiply">
<path fill-rule="evenodd" clip-rule="evenodd" d="M91.8925 56.9729C91.8417 57.2066 91.6892 57.5216 91.8925 57.6741C92.0957 57.8265 92.4616 57.6029 92.614 57.4606C92.7664 57.3184 93.1933 56.7696 92.9392 56.4444C92.8356 56.3398 92.7121 56.2571 92.5759 56.2013C92.4397 56.1454 92.2937 56.1175 92.1465 56.1192C91.6486 56.17 91.5063 56.7594 91.4453 57.2269L91.8925 56.9729Z" fill="#D1DEFF"/>
</g>
<g style="mix-blend-mode:multiply">
<path fill-rule="evenodd" clip-rule="evenodd" d="M71.08 70.4173C71.0292 70.651 70.8869 70.9661 71.08 71.1287C71.273 71.2913 71.6592 71.0474 71.8015 70.9152C71.9438 70.7831 72.3909 70.214 72.1368 69.899C72.0353 69.789 71.9106 69.7028 71.7718 69.6466C71.633 69.5904 71.4835 69.5655 71.334 69.5738C70.8462 69.5738 70.7039 70.2039 70.6328 70.6714L71.08 70.4173Z" fill="#D1DEFF"/>
</g>
<g style="mix-blend-mode:multiply">
<path fill-rule="evenodd" clip-rule="evenodd" d="M128.682 111.931C128.631 112.164 128.478 112.479 128.682 112.632C128.885 112.784 129.261 112.561 129.403 112.429C129.545 112.296 129.982 111.727 129.738 111.412C129.633 111.308 129.508 111.226 129.37 111.172C129.231 111.118 129.084 111.092 128.936 111.097C128.438 111.097 128.295 111.727 128.234 112.195L128.682 111.931Z" fill="#D1DEFF"/>
</g>
<g style="mix-blend-mode:multiply">
<path fill-rule="evenodd" clip-rule="evenodd" d="M147.623 103.577C147.623 103.811 147.42 104.126 147.623 104.278C147.826 104.431 148.192 104.207 148.344 104.075C148.497 103.943 148.924 103.374 148.68 103.059C148.575 102.954 148.449 102.872 148.311 102.818C148.173 102.764 148.025 102.739 147.877 102.744C147.379 102.744 147.237 103.374 147.176 103.841L147.623 103.577Z" fill="#D1DEFF"/>
</g>
<g style="mix-blend-mode:multiply">
<path fill-rule="evenodd" clip-rule="evenodd" d="M93.427 52.2272C93.427 51.8207 93.2949 51.4244 93.6607 51.211C93.7716 51.1457 93.8979 51.1113 94.0266 51.1113C94.1552 51.1113 94.2815 51.1457 94.3924 51.211C94.5255 51.3286 94.6358 51.4699 94.7176 51.6276C94.8497 51.8309 94.8091 51.8309 94.7176 52.0138C94.5753 52.4406 94.4737 52.7252 94.0469 52.7252C93.6201 52.7252 93.4066 52.2882 93.3965 51.7089L93.427 52.2272Z" fill="#D1DEFF"/>
</g>
<g style="mix-blend-mode:multiply">
<path fill-rule="evenodd" clip-rule="evenodd" d="M98.6104 59.2792C98.9121 59.1995 99.184 59.0335 99.3929 58.8016C99.1795 58.6593 98.6917 58.3748 98.6104 58.8016V59.2792Z" fill="#D1DEFF"/>
</g>
<g style="mix-blend-mode:multiply">
<path fill-rule="evenodd" clip-rule="evenodd" d="M80.7959 123.313C81.1013 123.23 81.3764 123.061 81.5886 122.826C81.365 122.693 80.8874 122.409 80.7959 122.826V123.313Z" fill="#D1DEFF"/>
</g>
<g style="mix-blend-mode:multiply">
<path fill-rule="evenodd" clip-rule="evenodd" d="M113.833 130.234C114.137 130.152 114.411 129.986 114.626 129.756C114.402 129.624 113.924 129.34 113.833 129.756V130.234Z" fill="#D1DEFF"/>
</g>
<g style="mix-blend-mode:multiply">
<path fill-rule="evenodd" clip-rule="evenodd" d="M102.603 65.4893C102.908 65.1133 103.345 64.473 103.894 64.7982C103.973 64.8538 104.039 64.9256 104.089 65.0089C104.138 65.0921 104.169 65.1849 104.179 65.2811C104.19 65.3772 104.18 65.4746 104.15 65.5665C104.12 65.6585 104.071 65.743 104.006 65.8145C103.742 65.9943 103.445 66.1188 103.132 66.1803C103.064 66.2033 102.991 66.2079 102.921 66.1938C102.851 66.1797 102.786 66.1472 102.732 66.0998C102.678 66.0523 102.638 65.9916 102.616 65.9236C102.593 65.8557 102.589 65.783 102.603 65.7128V65.4893Z" fill="#D1DEFF"/>
</g>
<g style="mix-blend-mode:multiply">
<path fill-rule="evenodd" clip-rule="evenodd" d="M73.3557 106.718C73.6606 106.342 74.1077 105.702 74.6565 106.037C74.7356 106.093 74.8021 106.165 74.8513 106.248C74.9006 106.331 74.9315 106.424 74.9421 106.52C74.9527 106.616 74.9426 106.714 74.9127 106.806C74.8827 106.898 74.8335 106.982 74.7683 107.054C74.5041 107.23 74.2068 107.351 73.8943 107.409C73.8268 107.434 73.7541 107.44 73.6834 107.428C73.6128 107.415 73.5467 107.384 73.492 107.337C73.4373 107.291 73.3959 107.231 73.3719 107.163C73.348 107.095 73.3424 107.023 73.3557 106.952V106.718Z" fill="#D1DEFF"/>
</g>
<g style="mix-blend-mode:multiply">
<path fill-rule="evenodd" clip-rule="evenodd" d="M122.249 125.935C122.554 125.559 122.991 124.868 123.55 125.244C123.627 125.302 123.691 125.375 123.739 125.458C123.786 125.542 123.816 125.634 123.825 125.73C123.835 125.826 123.824 125.922 123.794 126.014C123.765 126.105 123.716 126.189 123.652 126.261C123.391 126.438 123.097 126.563 122.788 126.626C122.72 126.651 122.648 126.657 122.577 126.645C122.506 126.632 122.44 126.601 122.386 126.554C122.331 126.508 122.289 126.448 122.265 126.38C122.242 126.312 122.236 126.24 122.249 126.169V125.935Z" fill="#D1DEFF"/>
</g>
<g style="mix-blend-mode:multiply">
<path fill-rule="evenodd" clip-rule="evenodd" d="M81.2024 74.4107C81.5072 74.0347 81.9544 73.3945 82.5032 73.7298C82.5837 73.7843 82.6515 73.8557 82.7017 73.9389C82.752 74.0222 82.7835 74.1154 82.7941 74.2121C82.8048 74.3088 82.7942 74.4066 82.7633 74.4988C82.7324 74.591 82.6817 74.6754 82.6149 74.7461C82.3514 74.9259 82.054 75.0504 81.741 75.1119C81.6735 75.1365 81.6008 75.1428 81.5301 75.1301C81.4595 75.1175 81.3934 75.0863 81.3387 75.0399C81.284 74.9934 81.2426 74.9333 81.2186 74.8656C81.1947 74.7979 81.1891 74.7252 81.2024 74.6546V74.4107Z" fill="#D1DEFF"/>
</g>
<g style="mix-blend-mode:multiply">
<path fill-rule="evenodd" clip-rule="evenodd" d="M98.8547 58.1014C99.1596 57.7254 99.6067 57.0344 100.155 57.4104C100.235 57.466 100.301 57.5378 100.35 57.621C100.4 57.7043 100.431 57.7971 100.441 57.8932C100.452 57.9894 100.442 58.0867 100.412 58.1787C100.382 58.2706 100.332 58.3552 100.267 58.4266C100.004 58.6065 99.7064 58.7309 99.3933 58.7925C99.3259 58.817 99.2531 58.8233 99.1825 58.8107C99.1118 58.798 99.0458 58.7669 98.9911 58.7204C98.9363 58.674 98.8949 58.6138 98.8709 58.5462C98.847 58.4785 98.8414 58.4057 98.8547 58.3352V58.1014Z" fill="#D1DEFF"/>
</g>
<g style="mix-blend-mode:multiply">
<path fill-rule="evenodd" clip-rule="evenodd" d="M142.704 78.2418C143.009 77.8658 143.456 77.2255 144.005 77.5609C144.085 77.6162 144.152 77.6882 144.201 77.7718C144.25 77.8555 144.281 77.9489 144.291 78.0455C144.3 78.1422 144.289 78.2398 144.257 78.3315C144.225 78.4233 144.174 78.5071 144.107 78.5771C143.844 78.7496 143.551 78.8703 143.243 78.9328C143.175 78.9574 143.103 78.9637 143.032 78.951C142.961 78.9384 142.895 78.9072 142.841 78.8607C142.786 78.8143 142.745 78.7542 142.721 78.6865C142.697 78.6188 142.691 78.546 142.704 78.4755V78.2418Z" fill="#D1DEFF"/>
</g>
<g style="mix-blend-mode:multiply">
<path fill-rule="evenodd" clip-rule="evenodd" d="M96.8098 91.3819C97.1147 91.0058 97.5517 90.3656 98.1106 90.6908C98.1877 90.7482 98.252 90.821 98.2994 90.9046C98.3468 90.9882 98.3762 91.0808 98.3857 91.1765C98.3953 91.2721 98.3848 91.3687 98.3549 91.4601C98.3251 91.5514 98.2765 91.6356 98.2122 91.7071C97.9513 91.8849 97.6577 92.0092 97.3484 92.0729C97.2802 92.0949 97.2074 92.099 97.1371 92.0846C97.0668 92.0703 97.0014 92.0381 96.9473 91.9911C96.8931 91.9441 96.852 91.8838 96.8279 91.8163C96.8038 91.7487 96.7976 91.6761 96.8098 91.6054V91.3819Z" fill="#D1DEFF"/>
</g>
<g style="mix-blend-mode:multiply">
<path fill-rule="evenodd" clip-rule="evenodd" d="M76.3247 53.9236C75.2373 54.6045 73.4182 55.4582 73.2759 56.9724C73.2135 57.3565 73.291 57.7504 73.4942 58.0823C73.6975 58.4142 74.0131 58.6623 74.3837 58.7813C74.7639 58.9524 75.1761 59.0408 75.593 59.0408C76.0099 59.0408 76.4221 58.9524 76.8023 58.7813C77.902 58.2957 78.8097 57.4595 79.3836 56.4033C79.5343 56.0825 79.6048 55.7298 79.5889 55.3757C79.5729 55.0216 79.4711 54.6767 79.2921 54.3708C79.0832 53.9232 78.7234 53.5635 78.2759 53.3545C76.8938 52.8769 76.0605 54.2387 75.0341 54.8484L76.3247 53.9236Z" fill="#D1DEFF"/>
</g>
<g style="mix-blend-mode:multiply">
<path fill-rule="evenodd" clip-rule="evenodd" d="M80.7147 59.5832C80.923 59.6512 81.109 59.7741 81.2533 59.9389C81.0399 60.01 80.8164 60.1726 80.5928 60.1015C80.5323 60.0781 80.4773 60.0428 80.4309 59.9975C80.3846 59.9522 80.348 59.898 80.3232 59.8381C80.2985 59.7782 80.2862 59.7139 80.2872 59.6491C80.2881 59.5843 80.3022 59.5204 80.3286 59.4612C80.3286 59.3088 80.6233 59.0547 80.7757 59.1157C80.9281 59.1767 80.8672 59.258 80.8875 59.319C80.9078 59.38 80.9485 59.4307 80.8875 59.5832H80.7147Z" fill="#D1DEFF"/>
</g>
<g style="mix-blend-mode:multiply">
<path fill-rule="evenodd" clip-rule="evenodd" d="M147.929 92.0946C148.137 92.1627 148.323 92.2855 148.467 92.4503C148.254 92.5214 148.03 92.684 147.807 92.6129C147.746 92.5896 147.691 92.5542 147.645 92.5089C147.598 92.4636 147.562 92.4094 147.537 92.3495C147.512 92.2896 147.5 92.2253 147.501 92.1605C147.502 92.0958 147.516 92.0318 147.542 91.9727C147.542 91.8304 147.837 91.5662 147.99 91.6271C148.142 91.6881 148.081 91.7694 148.101 91.8304C148.122 91.8914 148.162 91.9422 148.101 92.0946H147.929Z" fill="#D1DEFF"/>
</g>
<g style="mix-blend-mode:multiply">
<path fill-rule="evenodd" clip-rule="evenodd" d="M68.2725 60.8955C67.6428 61.4042 67.1386 62.0509 66.7989 62.7857C66.6363 63.1617 66.9209 63.1821 67.2664 63.1109C67.9371 62.989 68.6079 62.7959 69.2989 62.6333C69.7613 62.5412 70.1879 62.3191 70.5286 61.9931C70.7349 61.6971 70.822 61.3342 70.7725 60.9768C70.7115 60.5297 70.3863 60.3569 69.9798 60.2451C69.4924 60.1464 68.9861 60.2114 68.5395 60.4301C68.0929 60.6488 67.7311 61.0089 67.5103 61.4545L68.2725 60.8955Z" fill="#D1DEFF"/>
</g>
<g style="mix-blend-mode:multiply">
<path fill-rule="evenodd" clip-rule="evenodd" d="M70.6935 64.8486C71.0197 64.8476 71.341 64.9279 71.6284 65.0824C71.5471 65.184 71.5674 65.3161 71.5268 65.4381C71.4505 65.6228 71.3145 65.7766 71.1406 65.875C70.9897 65.9665 70.8209 66.0248 70.6457 66.0458C70.4704 66.0668 70.2927 66.0502 70.1244 65.997C69.2606 65.6616 70.5918 64.6352 70.8764 64.9807L70.6935 64.8486Z" fill="#D1DEFF"/>
</g>
<g style="mix-blend-mode:multiply">
<path fill-rule="evenodd" clip-rule="evenodd" d="M87.0742 51.3519C87.3925 51.1677 87.7344 51.0275 88.0904 50.9352C88.4826 50.8578 88.8801 50.8103 89.2794 50.793C89.4827 50.793 89.94 50.793 89.8079 51.108C89.6758 51.423 88.8831 51.8194 88.5681 51.9718C88.0586 52.2502 87.5052 52.4393 86.9319 52.5308C86.6372 52.5308 86.1291 52.5917 85.9157 52.2868C85.8563 52.1762 85.8314 52.0503 85.844 51.9254C85.8567 51.8004 85.9064 51.6821 85.9868 51.5856C86.1133 51.368 86.3161 51.205 86.5559 51.1283C86.6779 51.1283 87.3689 50.8946 87.4096 51.1283L87.0742 51.3519Z" fill="#D1DEFF"/>
</g>
<g style="mix-blend-mode:multiply">
<path fill-rule="evenodd" clip-rule="evenodd" d="M81.7282 51.5156C81.586 51.6172 80.4884 52.2168 81.0169 52.4811C81.3742 52.6133 81.7672 52.6133 82.1246 52.4811C82.3786 52.3794 82.6327 52.2067 82.4803 51.9221C82.1551 51.3327 81.3522 51.6681 80.9356 51.9221L81.7282 51.5156Z" fill="#D1DEFF"/>
</g>
<g style="mix-blend-mode:multiply">
<path fill-rule="evenodd" clip-rule="evenodd" d="M101.931 46.668C101.688 46.8407 99.7871 47.8976 100.692 48.3549C101.315 48.5835 101.999 48.5835 102.622 48.3549C103.059 48.172 103.507 47.8875 103.232 47.3387C102.673 46.3224 101.281 46.9119 100.559 47.3387L101.931 46.668Z" fill="#D1DEFF"/>
</g>
<g style="mix-blend-mode:multiply">
<path fill-rule="evenodd" clip-rule="evenodd" d="M66.5879 93.3233C66.6117 93.7942 66.8154 94.2381 67.157 94.5631C67.3463 94.6867 67.5693 94.7482 67.7952 94.7391C68.021 94.73 68.2384 94.6507 68.4171 94.5123C68.7118 94.3395 68.9862 94.1464 69.2809 93.9737C69.5756 93.8009 69.596 93.8416 69.6061 93.6079C69.5557 93.3092 69.4218 93.0308 69.22 92.805C69.0062 92.5325 68.7264 92.3191 68.407 92.1851C67.8074 91.9615 66.6489 92.1851 66.6692 93.0083L66.5879 93.3233Z" fill="#D1DEFF"/>
</g>
<g style="mix-blend-mode:multiply">
<path fill-rule="evenodd" clip-rule="evenodd" d="M102.217 94.4316C102.268 95.3407 102.66 96.1971 103.314 96.83C103.681 97.0726 104.116 97.1934 104.555 97.1751C104.995 97.1569 105.418 97.0006 105.763 96.7284C106.333 96.393 106.871 96.0373 107.43 95.7121C107.755 95.5089 108.04 95.458 108.06 94.9906C107.963 94.4151 107.71 93.8773 107.329 93.4357C106.905 92.9201 106.365 92.5126 105.753 92.2467C104.574 91.8097 102.349 92.2467 102.369 93.8321L102.217 94.4316Z" fill="#D1DEFF"/>
</g>
</g>
<path style="mix-blend-mode:screen" fill-rule="evenodd" clip-rule="evenodd" d="M116.8 76.8087C116.8 76.8087 162.633 61.3415 169.94 69.2682C178.486 78.5363 132.593 107.194 132.593 107.194C132.593 107.194 123.04 107.845 116.76 94.1357C114.9 90.0809 113.152 81.6562 116.8 76.8087Z" fill="url(#paint19_linear)"/>
<path style="mix-blend-mode:screen" fill-rule="evenodd" clip-rule="evenodd" d="M76.5459 132.286C76.5459 132.286 84.3202 165.314 96.6472 166.167C108.974 167.021 116.789 135.751 116.789 135.751C116.789 135.751 110.814 130.822 96.6472 130.822C82.4808 130.822 76.5459 132.286 76.5459 132.286Z" fill="url(#paint20_linear)"/>
<path style="mix-blend-mode:screen" fill-rule="evenodd" clip-rule="evenodd" d="M64.239 69.552C64.239 69.552 51.4546 67.2757 47.5624 75.558C42.9283 85.3851 57.9484 93.7082 57.9484 93.7082C57.9484 93.7082 65.7735 93.7082 69.5742 86.7367C73.375 79.7653 68.9543 69.5927 64.239 69.552Z" fill="url(#paint21_linear)"/>
<path style="mix-blend-mode:screen" fill-rule="evenodd" clip-rule="evenodd" d="M52.4326 98.8304C52.4326 98.8304 29.9736 106.635 29.9736 111.025C29.9736 116.605 57.9508 112.783 57.9508 112.783C59.995 111.204 61.3962 108.936 61.8939 106.401C62.5138 102.408 57.6866 98.2715 56.2334 98.1089C54.9245 98 53.6106 98.2494 52.4326 98.8304Z" fill="url(#paint22_linear)"/>
<path style="mix-blend-mode:screen" fill-rule="evenodd" clip-rule="evenodd" d="M108.914 52.917C108.914 52.917 118.294 43.8318 129.849 46.657C141.403 49.4821 134.33 70.6098 134.33 70.6098C128.631 70.0763 123.163 68.0926 118.446 64.8477C110.652 59.4515 108.914 52.917 108.914 52.917Z" fill="url(#paint23_linear)"/>
<path style="mix-blend-mode:screen" opacity="0.5" fill-rule="evenodd" clip-rule="evenodd" d="M131.525 127.448C131.525 127.448 149.35 146.025 151.291 143.017C153.232 140.009 136.881 121.056 136.881 121.056C136.881 121.056 133.873 118.932 131.525 127.448Z" fill="url(#paint24_linear)"/>
<path fill-rule="evenodd" clip-rule="evenodd" d="M124.634 52.5203C124.393 52.7638 124.258 53.0925 124.258 53.435C124.207 53.7172 124.207 54.0063 124.258 54.2886C124.362 54.4951 124.522 54.6682 124.72 54.7886C124.917 54.9089 125.144 54.9716 125.376 54.9695C125.731 54.8717 126.073 54.7283 126.392 54.5427C126.572 54.4561 126.732 54.334 126.863 54.1838C126.994 54.0336 127.093 53.8583 127.154 53.6687C127.221 53.5042 127.247 53.3262 127.231 53.1495C127.215 52.9728 127.157 52.8024 127.063 52.6524C126.901 52.2766 126.674 51.9324 126.392 51.6362C126.259 51.4647 126.068 51.3474 125.855 51.3062C125.642 51.2651 125.421 51.3029 125.233 51.4126C125.026 51.5567 124.85 51.7421 124.717 51.9571C124.584 52.1722 124.497 52.4124 124.461 52.6626L124.634 52.5203Z" fill="#FFC445"/>
<path fill-rule="evenodd" clip-rule="evenodd" d="M47.1762 107.997C47.1116 108.061 47.0603 108.137 47.0254 108.221C46.9905 108.305 46.9727 108.394 46.973 108.485C46.9426 108.633 46.9426 108.785 46.973 108.932C47.0272 109.042 47.1114 109.133 47.2158 109.196C47.3202 109.259 47.4405 109.291 47.5624 109.288C47.7542 109.237 47.9386 109.162 48.1112 109.064C48.2062 109.019 48.2911 108.956 48.361 108.877C48.4308 108.799 48.4841 108.707 48.5177 108.607C48.5546 108.52 48.5692 108.425 48.5604 108.331C48.5515 108.237 48.5194 108.147 48.4669 108.069C48.3884 107.866 48.2671 107.682 48.1112 107.53C48.0422 107.438 47.942 107.375 47.8295 107.353C47.7171 107.33 47.6003 107.35 47.5014 107.408C47.2839 107.566 47.1378 107.803 47.0949 108.069L47.1762 107.997Z" fill="#FFC445"/>
<path fill-rule="evenodd" clip-rule="evenodd" d="M128.102 57.9053C128.414 57.9909 128.694 58.1679 128.905 58.4134C128.691 58.4744 128.732 58.7386 128.498 58.8097C128.264 58.8809 128.081 58.6065 127.848 58.6776L128.102 57.9053Z" fill="#FF8800"/>
<path fill-rule="evenodd" clip-rule="evenodd" d="M106.118 150.323C106.428 150.403 106.705 150.577 106.911 150.821C106.698 150.882 106.738 151.146 106.504 151.228C106.271 151.309 106.088 151.024 105.864 151.085L106.118 150.323Z" fill="#FFC445"/>
<path fill-rule="evenodd" clip-rule="evenodd" d="M134.573 47.3883C134.492 47.622 134.065 48.4655 134.187 48.7399C134.309 49.0142 134.725 48.9228 134.959 48.7399C135.193 48.5569 135.203 48.4858 135.345 48.374C135.488 48.2622 135.63 48.2419 135.732 48.1301C135.833 48.0183 135.874 47.8557 135.975 47.7338C136.077 47.6118 136.26 47.5305 136.362 47.3984C136.426 47.3185 136.471 47.2245 136.492 47.124C136.513 47.0235 136.51 46.9195 136.483 46.8204C136.457 46.7212 136.407 46.6299 136.338 46.5537C136.269 46.4775 136.183 46.4188 136.087 46.3822C135.254 46.1484 134.929 46.8293 134.441 47.3984L134.573 47.3883Z" fill="#FFC445"/>
<path fill-rule="evenodd" clip-rule="evenodd" d="M138.09 129.277C138.008 129.521 137.581 130.364 137.703 130.639C137.825 130.913 138.242 130.821 138.476 130.639C138.709 130.456 138.72 130.384 138.862 130.273C139.004 130.161 139.146 130.13 139.248 130.029C139.339 129.903 139.42 129.77 139.492 129.632C139.604 129.5 139.777 129.419 139.878 129.297C139.943 129.217 139.987 129.123 140.008 129.023C140.03 128.922 140.027 128.818 140 128.719C139.973 128.62 139.923 128.529 139.855 128.452C139.786 128.376 139.7 128.317 139.604 128.281C138.77 128.037 138.445 128.728 137.968 129.297L138.09 129.277Z" fill="#FFC445"/>
<path fill-rule="evenodd" clip-rule="evenodd" d="M92.3083 135.254C92.227 135.487 91.7901 136.331 91.9222 136.605C92.0543 136.879 92.4608 136.788 92.6945 136.605C92.9282 136.422 92.9282 136.351 93.0807 136.239C93.2331 136.127 93.3551 136.107 93.4669 135.995C93.5786 135.884 93.6091 135.721 93.7107 135.599C93.8124 135.477 93.9953 135.396 94.0969 135.264C94.1612 135.183 94.2054 135.088 94.2259 134.987C94.2464 134.886 94.2426 134.782 94.2148 134.683C94.187 134.583 94.136 134.492 94.0661 134.417C93.9961 134.341 93.9091 134.283 93.8124 134.247C92.9892 134.014 92.664 134.695 92.1762 135.264L92.3083 135.254Z" fill="#FFC445"/>
<path fill-rule="evenodd" clip-rule="evenodd" d="M141.455 45.2043C141.668 44.7267 141.75 44.4828 142.197 44.2693C142.431 44.1576 142.746 44.1271 142.736 44.4929C142.659 44.7343 142.53 44.9561 142.36 45.1433C142.265 45.2431 142.143 45.312 142.009 45.341C141.874 45.37 141.735 45.3578 141.608 45.3059V45.2043H141.455Z" fill="#FFC445"/>
<path fill-rule="evenodd" clip-rule="evenodd" d="M58.9766 82.0824C59.19 81.6047 59.2611 81.371 59.7184 81.1474C59.942 81.0356 60.2672 81.0153 60.257 81.371C60.1785 81.6139 60.0466 81.8362 59.8709 82.0214C59.779 82.1215 59.6584 82.1909 59.5256 82.22C59.3929 82.2491 59.2544 82.2365 59.129 82.184V82.0824H58.9766Z" fill="#FFC445"/>
<path fill-rule="evenodd" clip-rule="evenodd" d="M93.2412 158.048C93.4038 157.672 93.4648 157.479 93.8205 157.306C94.0034 157.214 94.2575 157.194 94.2473 157.479C94.1873 157.67 94.0868 157.847 93.9526 157.997C93.8764 158.075 93.7791 158.129 93.6725 158.153C93.566 158.176 93.4549 158.168 93.353 158.129V158.048H93.2412Z" fill="#FFC445"/>
<path fill-rule="evenodd" clip-rule="evenodd" d="M136.982 85.8644C136.911 85.6002 136.331 86.1083 136.535 85.8644C136.754 85.674 137.005 85.5228 137.276 85.4173C137.528 85.2994 137.815 85.2812 138.079 85.3665C138.524 85.4934 138.91 85.7743 139.167 86.1591C139.817 87.2567 138.933 88.1916 137.886 88.6388C136.839 89.0859 135.539 88.8319 135.305 87.6225C135.283 87.3974 135.306 87.1702 135.372 86.9539C135.439 86.7377 135.547 86.5367 135.691 86.3624C136.078 86.0925 136.518 85.9088 136.982 85.8238V85.8644Z" fill="#FF8800"/>
<path fill-rule="evenodd" clip-rule="evenodd" d="M57.146 107.062C57.146 106.859 56.77 107.245 56.8817 107.062C57.0079 106.927 57.1556 106.814 57.3187 106.727C57.3918 106.693 57.4717 106.675 57.5525 106.675C57.6333 106.675 57.7131 106.693 57.7862 106.727C58.061 106.84 58.2851 107.05 58.4163 107.316C58.4913 107.486 58.5317 107.669 58.5349 107.855C58.5381 108.041 58.5041 108.225 58.435 108.398C58.3659 108.57 58.263 108.727 58.1324 108.859C58.0017 108.991 57.846 109.095 57.6744 109.166C57.5297 109.247 57.3674 109.292 57.2016 109.295C57.0358 109.299 56.8715 109.263 56.7232 109.188C56.5748 109.114 56.4469 109.005 56.3505 108.87C56.2542 108.735 56.1923 108.578 56.1704 108.414C56.1376 108.083 56.2162 107.75 56.3939 107.469C56.6067 107.275 56.8656 107.138 57.146 107.073V107.062Z" fill="#FFC445"/>
<path fill-rule="evenodd" clip-rule="evenodd" d="M61.9454 89.054C62.0267 88.9422 61.671 88.9321 61.8133 88.9219C61.9397 88.9307 62.0635 88.9616 62.1791 89.0134C62.2341 89.0305 62.2841 89.0607 62.3248 89.1014C62.3655 89.1422 62.3957 89.1921 62.4129 89.2471C62.4931 89.4425 62.4931 89.6615 62.4129 89.8569C62.286 90.0831 62.0775 90.2522 61.83 90.3297C61.5825 90.4072 61.3147 90.3871 61.0816 90.2735C60.9695 90.2359 60.8689 90.1702 60.7895 90.0826C60.7101 89.995 60.6545 89.8885 60.6279 89.7733C60.6014 89.6581 60.6049 89.538 60.6381 89.4245C60.6713 89.3111 60.733 89.208 60.8174 89.1252C60.9827 88.9608 61.1964 88.854 61.4271 88.8203C61.6297 88.8516 61.8215 88.9318 61.986 89.054H61.9454Z" fill="#FFC445"/>
<path fill-rule="evenodd" clip-rule="evenodd" d="M106.355 135.721C106.355 135.487 105.786 135.812 105.989 135.721C106.196 135.6 106.423 135.518 106.66 135.477C106.887 135.418 107.127 135.451 107.33 135.568C107.671 135.74 107.938 136.028 108.082 136.381C108.438 137.397 107.564 138.038 106.639 138.2C105.715 138.363 104.688 137.977 104.698 136.96C104.711 136.764 104.763 136.573 104.852 136.398C104.941 136.224 105.065 136.069 105.217 135.944C105.576 135.789 105.964 135.713 106.355 135.721Z" fill="#FF8800"/>
<path fill-rule="evenodd" clip-rule="evenodd" d="M54.0069 74.5825C53.9357 74.3183 53.8747 74.1964 54.078 73.983C54.2982 73.7955 54.5492 73.6477 54.8199 73.546C54.9425 73.4817 55.0769 73.4431 55.215 73.4326C55.353 73.4221 55.4918 73.44 55.6227 73.485C56.0689 73.6095 56.4551 73.891 56.7101 74.2777C57.3605 75.3854 56.4763 76.3101 55.4296 76.7573C54.3829 77.2044 53.0821 76.9504 52.8484 75.7411C52.8258 75.5143 52.8483 75.2854 52.9145 75.0673C52.9808 74.8493 53.0896 74.6466 53.2345 74.4707C53.6212 74.2009 54.0613 74.0172 54.5251 73.9321L54.0069 74.5825Z" fill="#FFC445"/>
<path fill-rule="evenodd" clip-rule="evenodd" d="M147.357 80.7618C147.357 81.5443 147.438 81.4834 148.129 81.6358C148.62 81.6515 149.103 81.5129 149.511 81.2394C149.769 81.13 149.993 80.9548 150.162 80.7313C150.355 80.4366 150.344 80.335 150.09 80.1216C149.919 79.9462 149.705 79.8169 149.47 79.7456C149.328 79.7456 149.196 79.7456 149.054 79.7456C148.965 79.7012 148.874 79.6638 148.779 79.6338C148.319 79.6432 147.87 79.7766 147.479 80.02C147.354 80.1341 147.255 80.2742 147.19 80.4305C147.125 80.5867 147.095 80.7553 147.103 80.9244L147.357 80.7618Z" fill="#FFC445"/>
<path fill-rule="evenodd" clip-rule="evenodd" d="M155.427 84.3188C155.408 84.2318 155.408 84.1416 155.427 84.0546C155.539 83.9834 155.549 83.8412 155.681 83.7802C155.73 83.7552 155.784 83.7422 155.839 83.7422C155.894 83.7422 155.948 83.7552 155.996 83.7802C156.036 83.8047 156.07 83.8373 156.097 83.8758C156.123 83.9143 156.141 83.9579 156.15 84.0038C156.159 84.0498 156.157 84.097 156.147 84.1425C156.136 84.188 156.116 84.2307 156.088 84.268C156.035 84.409 155.947 84.5347 155.834 84.6338C155.671 84.7253 155.417 84.5322 155.366 84.3899L155.427 84.3188Z" fill="#FFC445"/>
<path fill-rule="evenodd" clip-rule="evenodd" d="M145.955 135.538C145.934 135.451 145.934 135.361 145.955 135.274C146.056 135.213 146.076 135.06 146.209 134.999C146.258 134.977 146.312 134.965 146.366 134.965C146.42 134.965 146.474 134.977 146.524 134.999C146.562 135.025 146.595 135.058 146.621 135.097C146.647 135.135 146.664 135.178 146.673 135.224C146.681 135.269 146.68 135.316 146.671 135.361C146.661 135.407 146.642 135.449 146.615 135.487C146.544 135.599 146.483 135.782 146.351 135.853C146.219 135.924 145.944 135.751 145.894 135.599L145.955 135.538Z" fill="#FFC445"/>
<path fill-rule="evenodd" clip-rule="evenodd" d="M103.368 138.678C103.342 138.592 103.342 138.5 103.368 138.414C103.469 138.343 103.479 138.201 103.622 138.14C103.67 138.115 103.724 138.102 103.779 138.102C103.834 138.102 103.888 138.115 103.937 138.14C103.975 138.164 104.008 138.196 104.033 138.234C104.059 138.272 104.076 138.314 104.085 138.359C104.094 138.403 104.093 138.449 104.083 138.494C104.073 138.538 104.055 138.58 104.028 138.617C103.957 138.729 103.896 138.922 103.764 138.993C103.632 139.064 103.357 138.881 103.307 138.739L103.368 138.678Z" fill="#FFC445"/>
<path fill-rule="evenodd" clip-rule="evenodd" d="M45.4682 73.7402C45.448 73.6567 45.448 73.5696 45.4682 73.4862C45.58 73.415 45.5902 73.2727 45.7223 73.2016C45.7717 73.1788 45.8254 73.167 45.8798 73.167C45.9342 73.167 45.9879 73.1788 46.0373 73.2016C46.0771 73.2261 46.1113 73.2587 46.1377 73.2972C46.1642 73.3357 46.1823 73.3793 46.1909 73.4252C46.1995 73.4712 46.1985 73.5184 46.1878 73.5639C46.177 73.6094 46.157 73.6521 46.1288 73.6894C46.0576 73.8012 45.9967 73.9841 45.8645 74.0552C45.7324 74.1264 45.458 73.9536 45.4072 73.8113L45.4682 73.7402Z" fill="#FFC445"/>
<path fill-rule="evenodd" clip-rule="evenodd" d="M132.978 98.8607C133.191 98.4948 133.242 98.3322 133.628 98.2408C133.835 98.1645 134.062 98.1645 134.269 98.2408C134.399 98.4084 134.487 98.6046 134.526 98.8132C134.565 99.0218 134.553 99.2367 134.492 99.4399C134.319 99.8464 133.771 99.7753 133.476 99.633C133.282 99.571 133.116 99.4442 133.005 99.2739C132.894 99.1036 132.845 98.9003 132.866 98.6981L132.978 98.8607Z" fill="#FFC445"/>
<path fill-rule="evenodd" clip-rule="evenodd" d="M159.686 69.0742C159.652 69.1147 159.626 69.1617 159.611 69.2123C159.595 69.2629 159.59 69.3162 159.595 69.3689C159.818 69.5214 160.53 69.3689 160.479 69.0031C160.479 68.8303 160.245 68.7693 160.103 68.749C159.798 68.749 159.646 68.9827 159.493 69.2063L159.686 69.0742Z" fill="#FFC445"/>
<path fill-rule="evenodd" clip-rule="evenodd" d="M118.719 80.6084C118.685 80.6489 118.66 80.6959 118.644 80.7465C118.628 80.7971 118.623 80.8504 118.628 80.9031C118.852 81.0556 119.563 80.9031 119.512 80.5373C119.512 80.3645 119.278 80.3035 119.136 80.2832C118.831 80.2832 118.679 80.517 118.526 80.7405L118.719 80.6084Z" fill="#FFC445"/>
<path fill-rule="evenodd" clip-rule="evenodd" d="M40.2654 79.583C40.2315 79.6217 40.2059 79.6668 40.1901 79.7158C40.1744 79.7647 40.1689 79.8164 40.1739 79.8676C40.4076 80.02 41.1088 79.8676 41.0682 79.5119C41.0682 79.3289 40.8243 79.2781 40.682 79.2578C40.3771 79.2578 40.2247 79.4814 40.0723 79.705L40.2654 79.583Z" fill="#FFC445"/>
<path fill-rule="evenodd" clip-rule="evenodd" d="M38.1521 107.185C38.1166 107.225 38.0893 107.271 38.0719 107.322C38.0544 107.372 38.0472 107.426 38.0505 107.479C38.2842 107.632 38.9956 107.479 38.9447 107.113C38.9447 106.941 38.711 106.88 38.5687 106.859C38.2639 106.859 38.1114 107.093 37.959 107.317L38.1521 107.185Z" fill="#FFC445"/>
<path fill-rule="evenodd" clip-rule="evenodd" d="M92.1672 151.747C92.0046 152.397 91.8623 152.763 92.3602 153.21C92.7457 153.536 93.2383 153.706 93.7423 153.688C94.4842 153.637 95.7037 153.058 95.4496 152.123C95.3162 151.847 95.1273 151.602 94.8947 151.403C94.6621 151.203 94.3909 151.054 94.098 150.964C93.8664 150.92 93.6278 150.927 93.399 150.984C93.1702 151.041 92.9565 151.147 92.7728 151.295C92.5891 151.443 92.4398 151.629 92.3352 151.841C92.2306 152.052 92.1733 152.284 92.1672 152.519V151.747Z" fill="#FFC445"/>
<path style="mix-blend-mode:screen" fill-rule="evenodd" clip-rule="evenodd" d="M67.6243 136.339C62.3562 131.932 58.038 126.5 54.9315 120.374C52.9442 116.461 51.4818 112.302 50.5819 108.006C49.8543 104.544 49.4865 101.016 49.4844 97.4782C49.4727 87.848 52.2161 78.4154 57.3908 70.2937C59.5094 66.9683 62.0057 63.8992 64.8297 61.1475C74.2811 51.9394 86.959 46.7931 100.154 46.8083C101.262 46.8083 102.349 46.8083 103.437 46.9099C106.813 47.1311 110.159 47.6859 113.426 48.5664C109.387 47.2495 105.197 46.4471 100.957 46.1782C99.8698 46.1071 98.7824 46.0664 97.6747 46.0664C90.1293 46.0665 82.6791 47.7514 75.8679 50.9981C69.0567 54.2449 63.0565 58.9715 58.3051 64.8331C53.5537 70.6946 50.1711 77.5432 48.4042 84.8788C46.6373 92.2145 46.5307 99.8521 48.0921 107.234C48.9987 111.53 50.4644 115.687 52.4518 119.602C55.6666 125.939 60.1748 131.531 65.6853 136.018C71.1957 140.504 77.5859 143.785 84.4432 145.648C78.2926 143.651 72.5828 140.491 67.6243 136.339Z" fill="url(#paint25_radial)"/>
<defs>
<filter id="filter0_d" x="0" y="0" width="196" height="197" filterUnits="userSpaceOnUse" color-interpolation-filters="sRGB">
<feFlood flood-opacity="0" result="BackgroundImageFix"/>
<feColorMatrix in="SourceAlpha" type="matrix" values="0 0 0 0 0 0 0 0 0 0 0 0 0 0 0 0 0 0 127 0"/>
<feOffset/>
<feGaussianBlur stdDeviation="25"/>
<feColorMatrix type="matrix" values="0 0 0 0 0.4 0 0 0 0 0.686275 0 0 0 0 0.972549 0 0 0 1 0"/>
<feBlend mode="normal" in2="BackgroundImageFix" result="effect1_dropShadow"/>
<feBlend mode="normal" in="SourceGraphic" in2="effect1_dropShadow" result="shape"/>
</filter>
<radialGradient id="paint0_radial" cx="0" cy="0" r="1" gradientUnits="userSpaceOnUse" gradientTransform="translate(25913.7 33186.5) scale(6191.6)">
<stop offset="0.01" stop-color="#009BFF"/>
<stop offset="1" stop-opacity="0"/>
</radialGradient>
<radialGradient id="paint1_radial" cx="0" cy="0" r="1" gradientUnits="userSpaceOnUse" gradientTransform="translate(25706.4 32251.5) scale(6103.64)">
<stop offset="0.01" stop-color="#0092FF"/>
<stop offset="0.13" stop-color="#0090FB"/>
<stop offset="0.26" stop-color="#0089EF"/>
<stop offset="0.38" stop-color="#007DDB"/>
<stop offset="0.51" stop-color="#006DBF"/>
<stop offset="0.63" stop-color="#00599B"/>
<stop offset="1" stop-color="#003F6E" stop-opacity="0"/>
</radialGradient>
<radialGradient id="paint2_radial" cx="0" cy="0" r="1" gradientUnits="userSpaceOnUse" gradientTransform="translate(67.593 72.6012) scale(88.1185)">
<stop stop-color="#4F8CFF"/>
<stop offset="0.15" stop-color="#4A85F8"/>
<stop offset="0.36" stop-color="#3E72E6"/>
<stop offset="0.61" stop-color="#2952C8"/>
<stop offset="0.9" stop-color="#0C279F"/>
<stop offset="1" stop-color="#00158E"/>
</radialGradient>
<radialGradient id="paint3_radial" cx="0" cy="0" r="1" gradientUnits="userSpaceOnUse" gradientTransform="translate(70.4778 75.6902) scale(79.7345)">
<stop offset="0.01" stop-color="#FF7263"/>
<stop offset="0.21" stop-color="#FC6F63"/>
<stop offset="0.37" stop-color="#F46562"/>
<stop offset="0.51" stop-color="#E55560"/>
<stop offset="0.64" stop-color="#D03D5D"/>
<stop offset="0.77" stop-color="#B6205A"/>
<stop offset="0.88" stop-color="#9A0057"/>
<stop offset="0.99" stop-color="#9A00AE"/>
</radialGradient>
<radialGradient id="paint4_radial" cx="0" cy="0" r="1" gradientUnits="userSpaceOnUse" gradientTransform="translate(119.31 80.507) scale(29.9487)">
<stop stop-color="#0088E8"/>
<stop offset="0.19" stop-color="#1696EE"/>
<stop offset="0.53" stop-color="#35AAF7"/>
<stop offset="0.81" stop-color="#48B7FD"/>
<stop offset="1" stop-color="#4FBBFF"/>
</radialGradient>
<linearGradient id="paint5_linear" x1="55.4805" y1="77.3363" x2="74.9517" y2="77.3363" gradientUnits="userSpaceOnUse">
<stop offset="0.01" stop-color="#A131A4"/>
<stop offset="1" stop-color="#FFC0B3"/>
</linearGradient>
<linearGradient id="paint6_linear" x1="95.4792" y1="146.98" x2="95.4792" y2="132.173" gradientUnits="userSpaceOnUse">
<stop stop-color="#4FBBFF"/>
<stop offset="0.19" stop-color="#48B7FD"/>
<stop offset="0.47" stop-color="#35AAF7"/>
<stop offset="0.81" stop-color="#1696EE"/>
<stop offset="1" stop-color="#0088E8"/>
</linearGradient>
<linearGradient id="paint7_linear" x1="3173.54" y1="8414.96" x2="3173.54" y2="7606.81" gradientUnits="userSpaceOnUse">
<stop stop-color="#4FBBFF"/>
<stop offset="0.19" stop-color="#48B7FD"/>
<stop offset="0.47" stop-color="#35AAF7"/>
<stop offset="0.81" stop-color="#1696EE"/>
<stop offset="1" stop-color="#0088E8"/>
</linearGradient>
<linearGradient id="paint8_linear" x1="98.3348" y1="112.683" x2="112.044" y2="112.683" gradientUnits="userSpaceOnUse">
<stop stop-color="#0088E8"/>
<stop offset="0.03" stop-color="#0B8EE9"/>
<stop offset="0.24" stop-color="#4FB0F0"/>
<stop offset="0.43" stop-color="#87CCF5"/>
<stop offset="0.61" stop-color="#B3E2F9"/>
<stop offset="0.77" stop-color="#D3F2FC"/>
<stop offset="0.91" stop-color="#E6FCFE"/>
<stop offset="1" stop-color="#EDFFFF"/>
</linearGradient>
<linearGradient id="paint9_linear" x1="-2460.23" y1="-2098.98" x2="-2514.17" y2="-2069.56" gradientUnits="userSpaceOnUse">
<stop stop-color="#0088E8"/>
<stop offset="0.03" stop-color="#0B8EE9"/>
<stop offset="0.24" stop-color="#4FB0F0"/>
<stop offset="0.43" stop-color="#87CCF5"/>
<stop offset="0.61" stop-color="#B3E2F9"/>
<stop offset="0.77" stop-color="#D3F2FC"/>
<stop offset="0.91" stop-color="#E6FCFE"/>
<stop offset="1" stop-color="#EDFFFF"/>
</linearGradient>
<linearGradient id="paint10_linear" x1="8264.63" y1="7661.68" x2="9355.13" y2="7661.68" gradientUnits="userSpaceOnUse">
<stop offset="0.01" stop-color="#A131A4"/>
<stop offset="1" stop-color="#FFC0B3"/>
</linearGradient>
<linearGradient id="paint11_linear" x1="4805.82" y1="3360.11" x2="5188.29" y2="3360.11" gradientUnits="userSpaceOnUse">
<stop offset="0.01" stop-color="#A131A4"/>
<stop offset="1" stop-color="#FFC0B3"/>
</linearGradient>
<linearGradient id="paint12_linear" x1="2222.14" y1="3217.71" x2="2349.62" y2="3217.71" gradientUnits="userSpaceOnUse">
<stop offset="0.01" stop-color="#A131A4"/>
<stop offset="1" stop-color="#FFC0B3"/>
</linearGradient>
<linearGradient id="paint13_linear" x1="95.9865" y1="110.375" x2="111.322" y2="110.375" gradientUnits="userSpaceOnUse">
<stop offset="0.01" stop-color="#A131A4"/>
<stop offset="1" stop-color="white"/>
</linearGradient>
<linearGradient id="paint14_linear" x1="10112.5" y1="4874.82" x2="12403.4" y2="4874.82" gradientUnits="userSpaceOnUse">
<stop offset="0.01" stop-color="#A131A4"/>
<stop offset="1" stop-color="#FFC0B3"/>
</linearGradient>
<linearGradient id="paint15_linear" x1="1856.9" y1="5970.14" x2="1856.9" y2="5619.11" gradientUnits="userSpaceOnUse">
<stop stop-color="#4FBBFF"/>
<stop offset="0.19" stop-color="#48B7FD"/>
<stop offset="0.47" stop-color="#35AAF7"/>
<stop offset="0.81" stop-color="#1696EE"/>
<stop offset="1" stop-color="#0088E8"/>
</linearGradient>
<radialGradient id="paint16_radial" cx="0" cy="0" r="1" gradientUnits="userSpaceOnUse" gradientTransform="translate(66.1 72.0043) scale(94.2169 86.5777)">
<stop offset="0.01" stop-color="#B1FFFF"/>
<stop offset="0.29" stop-color="#B1FDFF"/>
<stop offset="0.44" stop-color="#AFF5FF"/>
<stop offset="0.55" stop-color="#ACE8FF"/>
<stop offset="0.62" stop-color="#A9DBFF"/>
<stop offset="0.65" stop-color="#A2D7FE"/>
<stop offset="0.7" stop-color="#8FCAFC"/>
<stop offset="0.76" stop-color="#6FB5F9"/>
<stop offset="0.82" stop-color="#4399F4"/>
<stop offset="0.89" stop-color="#0C75EE"/>
<stop offset="0.91" stop-color="#006DED"/>
</radialGradient>
<radialGradient id="paint17_radial" cx="0" cy="0" r="1" gradientUnits="userSpaceOnUse" gradientTransform="translate(81.4231 77.6093) rotate(-34.8) scale(25.8982 21.711)">
<stop stop-color="#FF7700"/>
<stop offset="0.17" stop-color="#C55C00"/>
<stop offset="0.4" stop-color="#803C00"/>
<stop offset="0.6" stop-color="#492200" stop-opacity="0"/>
</radialGradient>
<radialGradient id="paint18_radial" cx="0" cy="0" r="1" gradientUnits="userSpaceOnUse" gradientTransform="translate(112.257 52.9369) scale(29.4304)">
<stop stop-color="#0088E8"/>
<stop offset="0.14" stop-color="#1C93ED"/>
<stop offset="0.4" stop-color="#4BA6F4"/>
<stop offset="0.64" stop-color="#6EB4FA"/>
<stop offset="0.83" stop-color="#83BCFE"/>
<stop offset="0.96" stop-color="#8BBFFF"/>
</radialGradient>
<linearGradient id="paint19_linear" x1="118.823" y1="98.3938" x2="163.161" y2="61.1891" gradientUnits="userSpaceOnUse">
<stop stop-color="#FF3D00"/>
<stop offset="1" stop-opacity="0"/>
</linearGradient>
<linearGradient id="paint20_linear" x1="96.6675" y1="166.188" x2="96.6675" y2="130.822" gradientUnits="userSpaceOnUse">
<stop stop-opacity="0"/>
<stop offset="1" stop-color="#FF3D00"/>
</linearGradient>
<linearGradient id="paint21_linear" x1="4542.6" y1="6895.83" x2="5120.63" y2="6845.42" gradientUnits="userSpaceOnUse">
<stop stop-opacity="0"/>
<stop offset="1" stop-color="#FF3D00"/>
</linearGradient>
<linearGradient id="paint22_linear" x1="5395.04" y1="4958.98" x2="6386.4" y2="4785.66" gradientUnits="userSpaceOnUse">
<stop stop-opacity="0"/>
<stop offset="1" stop-color="#FF3D00"/>
</linearGradient>
<linearGradient id="paint23_linear" x1="7132.35" y1="6471.08" x2="7514.53" y2="6040.87" gradientUnits="userSpaceOnUse">
<stop stop-color="#FF3D00"/>
<stop offset="1" stop-opacity="0"/>
</linearGradient>
<linearGradient id="paint24_linear" x1="5814.83" y1="7789.05" x2="5454.6" y2="7333.97" gradientUnits="userSpaceOnUse">
<stop/>
<stop offset="1" stop-color="#FF3D00"/>
</linearGradient>
<radialGradient id="paint25_radial" cx="0" cy="0" r="1" gradientUnits="userSpaceOnUse" gradientTransform="translate(13217 25874.6) scale(4359.23 6534.56)">
<stop stop-color="#FFFFD9"/>
<stop offset="1" stop-opacity="0"/>
</radialGradient>
</defs>
</svg>
