<svg width="19" height="17" viewBox="0 0 19 17" fill="none" xmlns="http://www.w3.org/2000/svg">
<path d="M18.7715 2.75176C18.0761 3.07087 17.3351 3.28238 16.5626 3.38509C17.3573 2.88869 17.9639 2.10865 18.249 1.16844C17.5081 1.6306 16.69 1.95704 15.8181 2.13922C15.1146 1.35551 14.1118 0.870117 13.0179 0.870117C10.8956 0.870117 9.18695 2.67229 9.18695 4.8816C9.18695 5.19948 9.21266 5.50514 9.27577 5.79613C6.08873 5.63352 3.26866 4.03553 1.3742 1.60126C1.04345 2.20157 0.849451 2.88869 0.849451 3.62839C0.849451 5.01731 1.53314 6.24851 2.55225 6.96131C1.93634 6.94908 1.33212 6.76202 0.820233 6.46736C0.820233 6.47959 0.820233 6.49548 0.820233 6.51137C0.820233 8.46026 2.14904 10.079 3.89157 10.4519C3.57953 10.5412 3.23944 10.584 2.88649 10.584C2.64107 10.584 2.3933 10.5693 2.16073 10.5155C2.65743 12.1037 4.06688 13.2713 5.74279 13.3092C4.43853 14.3766 2.78248 15.0197 0.989694 15.0197C0.675314 15.0197 0.37379 15.005 0.0722656 14.9647C1.77039 16.1103 3.78289 16.7644 5.95316 16.7644C13.0074 16.7644 16.8641 10.6512 16.8641 5.35231C16.8641 5.17503 16.8583 5.00386 16.8501 4.83391C17.6109 4.26905 18.2502 3.56359 18.7715 2.75176Z" fill="#8190B0"/>
</svg>
