<svg width="23" height="17" viewBox="0 0 23 17" fill="none" xmlns="http://www.w3.org/2000/svg">
<path fill-rule="evenodd" clip-rule="evenodd" d="M20.5596 1.35627C21.5207 1.61814 22.2786 2.38469 22.5373 3.35718C23.018 5.13345 22.9995 8.83598 22.9995 8.83598C22.9995 8.83598 22.9995 12.5196 22.5374 14.2961C22.2786 15.2684 21.5209 16.0351 20.5596 16.2968C18.8036 16.7644 11.78 16.7644 11.78 16.7644C11.78 16.7644 4.77469 16.7644 3.00042 16.2783C2.03916 16.0164 1.28145 15.2497 1.0226 14.2774C0.560547 12.5196 0.560547 8.81727 0.560547 8.81727C0.560547 8.81727 0.560547 5.13345 1.0226 3.35718C1.28128 2.38487 2.05765 1.59943 3.00025 1.33774C4.75621 0.870117 11.7798 0.870117 11.7798 0.870117C11.7798 0.870117 18.8036 0.870117 20.5596 1.35627ZM16.4549 8.81728L9.91016 12.0896V5.54492L16.4549 8.81728Z" fill="#8190B0"/>
</svg>
