<svg width="27" height="27" viewBox="0 0 27 27" fill="none" xmlns="http://www.w3.org/2000/svg">
<path d="M20.2096 9.35888C20.4446 8.63855 20.563 7.88472 20.5604 7.12636C20.5604 5.23633 19.8169 3.42371 18.4933 2.08726C17.1698 0.750808 15.3746 0 13.5029 0C11.6311 0 9.83595 0.750808 8.51239 2.08726C7.18884 3.42371 6.44527 5.23633 6.44527 7.12636C6.44272 7.88472 6.56117 8.63855 6.79608 9.35888C5.66329 9.40201 4.55742 9.71986 3.57195 10.2856C2.58647 10.8513 1.75033 11.6482 1.13421 12.609C0.518077 13.5698 0.14006 14.6663 0.0321009 15.8057C-0.0758578 16.9451 0.0894144 18.0941 0.51395 19.1554C0.938485 20.2168 1.60981 21.1593 2.47118 21.9034C3.33256 22.6475 4.35868 23.1713 5.46282 23.4306C6.56696 23.6898 7.71668 23.6768 8.81482 23.3928C9.91295 23.1087 10.9272 22.5619 11.7719 21.7985L10.2487 27H16.7109L15.1784 21.738C16.0166 22.5123 17.0275 23.0709 18.1253 23.3662C19.2231 23.6616 20.3752 23.685 21.4839 23.4344C22.5925 23.1839 23.6249 22.6668 24.4932 21.9271C25.3616 21.1874 26.0402 20.247 26.4716 19.1857C26.9029 18.1245 27.0741 16.9738 26.9707 15.8314C26.8673 14.689 26.4923 13.5888 25.8775 12.6241C25.2628 11.6594 24.4265 10.8588 23.4398 10.2903C22.453 9.72184 21.3449 9.40232 20.2096 9.35888Z" fill="#121420"/>
</svg>
