<svg width="30" height="26" viewBox="0 0 30 26" fill="none" xmlns="http://www.w3.org/2000/svg">
<path d="M21.2823 0C17.7724 0 15.9093 1.65814 14.9851 2.98369C14.061 1.65814 12.2077 0 8.70274 0C4.50956 0 0.00177412 2.73304 0.00177412 8.73897C-0.0373063 10.9487 0.569989 13.1232 1.7518 15.0052C2.94634 16.9863 5.47798 19.4253 9.27789 22.2354C10.7526 23.3441 12.1241 24.2744 13.009 24.8576C14.7049 25.9855 14.7738 26 14.9753 26H15.0048C15.1965 26 15.3342 25.9373 16.9711 24.8673C17.856 24.284 19.2226 23.3537 20.7071 22.2499C24.507 19.4253 27.0436 16.9766 28.248 14.9811C29.4321 13.1001 30.0396 10.9249 29.998 8.71487C29.9685 2.73304 25.4558 0 21.2823 0Z" fill="#FF1C45"/>
</svg>
