<svg width="27" height="27" viewBox="0 0 27 27" fill="none" xmlns="http://www.w3.org/2000/svg">
<path d="M25.4105 10.1718C24.3356 8.33823 22.0575 6.0808 18.6381 3.47984C17.311 2.45373 16.0768 1.5927 15.2806 1.05288C13.7368 3.191e-07 13.6926 0 13.5112 0C13.3298 0 13.2767 -1.5955e-06 11.7418 1.04395C10.9455 1.58377 9.71581 2.44481 8.3799 3.46646C4.94281 6.06295 2.66027 8.32485 1.57651 10.1718C0.511665 11.9131 -0.0349279 13.9261 0.00173001 15.9716C0.00173001 21.5304 4.06253 24.06 7.8358 24.06C9.18197 24.0974 10.5113 23.751 11.671 23.0606L10.6403 27H16.3069L15.2629 23.0205C16.4368 23.7444 17.7934 24.1101 19.1689 24.0734C22.9422 24.0734 26.9985 21.5438 26.9985 15.985C27.0323 13.9338 26.4811 11.9161 25.4105 10.1718Z" fill="#121420"/>
</svg>
