<svg width="12" height="14" viewBox="0 0 12 14" fill="none" xmlns="http://www.w3.org/2000/svg">
<path d="M10.3156 12.6575V11.2606C10.3156 9.61529 9.04431 8.63127 7.82246 7.67123C7.65369 7.53892 7.43888 7.28766 7.43888 6.90411C7.43888 6.52055 7.63239 6.14657 7.82246 5.98661C9.01128 4.9863 10.3156 4.04253 10.3156 2.39725V1.34247H11.2745V0H0.726562V1.34247H1.68545V2.39728C1.68545 4.04258 2.98975 4.98632 4.17863 5.98664C4.3687 6.1466 4.56221 6.52055 4.56221 6.90413C4.56221 7.28771 4.34739 7.53892 4.17863 7.67126C2.9568 8.63133 1.68545 9.61535 1.68545 11.2606V12.6576H0.726562V14H11.2745V12.6575H10.3156ZM3.57893 3.64383C3.22545 3.24376 3.02795 2.85868 3.02795 2.39725V1.34247H8.97314V2.39728C8.97314 2.85868 8.77558 3.24382 8.42216 3.64386H3.57893V3.64383ZM8.97314 12.2834L6.71531 11.4022C6.32216 11.2488 5.67912 11.2488 5.28597 11.4022L3.02795 12.2834V11.2607C3.02795 10.3298 3.76784 9.70113 4.97529 8.75257L5.00731 8.72747C5.46564 8.36806 5.76293 7.86754 5.86382 7.31596C5.95414 7.33608 6.04697 7.33608 6.13729 7.31596C6.23778 7.86734 6.53541 8.3679 6.99318 8.72689L7.02577 8.75257C8.23321 9.70107 8.97311 10.3295 8.97311 11.2606V12.2834H8.97314Z" fill="white"/>
</svg>
