<svg width="16" height="16" viewBox="0 0 16 16" fill="none" xmlns="http://www.w3.org/2000/svg">
<path d="M8.0013 1.89628C8.36018 1.96773 8.6216 2.28599 8.63784 2.66759C8.64271 2.78775 8.73039 2.89005 8.84893 2.9128C8.96747 2.93716 9.08763 2.87708 9.13797 2.76828C9.30035 2.42241 9.66409 2.22918 10.023 2.30225L10.364 2.37045C10.8137 2.45976 11.0947 2.95666 10.9875 3.39183C10.9583 3.51362 10.9355 3.63865 10.9112 3.76206C10.8755 3.94393 10.8381 4.12579 10.8024 4.30766C10.7537 4.548 10.7066 4.78833 10.6579 5.02864C10.601 5.31443 10.5426 5.60184 10.4857 5.88764C10.4208 6.20751 10.3575 6.5274 10.2925 6.84731C10.2243 7.18831 10.1561 7.53094 10.0863 7.87194C10.0165 8.2227 9.94502 8.57343 9.8752 8.92255C9.80538 9.27004 9.73554 9.61592 9.66573 9.96343C9.59915 10.2947 9.53258 10.6259 9.466 10.9572C9.40592 11.2608 9.34421 11.5629 9.28413 11.8665C9.23217 12.1296 9.17858 12.3926 9.12662 12.6541C9.0844 12.8635 9.0422 13.073 8.99996 13.2841C8.97074 13.4286 8.94151 13.5732 8.91229 13.7177C8.89929 13.7843 8.88469 13.8508 8.8717 13.9174C8.8717 13.9207 8.87006 13.9239 8.87006 13.9272C9.03894 13.8914 9.21918 13.9077 9.38806 13.9856C9.74205 14.1496 9.92716 14.5312 9.85571 14.8982C9.8346 15.007 9.8752 15.1255 9.97588 15.1726L10.2925 15.3188C10.3932 15.3659 10.5101 15.3188 10.5799 15.2327C10.5929 15.2165 15.9889 3.51199 15.9937 3.49252C16.0148 3.38373 15.9742 3.26519 15.8736 3.2181L15.5569 3.07195C15.4563 3.02486 15.3393 3.07195 15.2695 3.15802C15.0373 3.4503 14.6265 3.55749 14.2725 3.39347C13.9185 3.22946 13.7334 2.84787 13.8048 2.48088C13.8259 2.3721 13.7853 2.25355 13.6847 2.20648L13.368 2.06033C13.2673 2.01324 13.1505 2.06033 13.0806 2.14639C12.8484 2.43868 12.4376 2.54585 12.0836 2.38185C11.7296 2.21784 11.5445 1.83625 11.6159 1.46926C11.6371 1.36047 11.5965 1.24193 11.4958 1.19484L11.1791 1.04869C11.0785 1.00162 10.9615 1.04869 10.8917 1.13477C10.6595 1.42706 10.2487 1.53423 9.8947 1.37023C9.54071 1.2062 9.35561 0.824608 9.42704 0.457642C9.44815 0.348845 9.40756 0.230308 9.3069 0.183217L8.95614 0.0224742C8.85546 -0.0246163 8.73692 0.019227 8.68985 0.119904L7.88281 1.86874L8.0013 1.89628Z" fill="white"/>
<path d="M7.89013 15.8435C7.89988 15.824 10.4346 3.18905 10.4346 3.16794C10.4298 3.0575 10.3616 2.95035 10.2544 2.92924L9.91339 2.86104C9.80459 2.83993 9.70067 2.91138 9.65358 3.01205C9.49444 3.34981 9.12097 3.54955 8.73775 3.47322C8.35453 3.3969 8.0866 3.06726 8.07036 2.69378C8.06549 2.58336 7.99729 2.47619 7.89012 2.45508L7.64005 2.40474L7.54749 2.38687C7.43869 2.36576 7.33477 2.43722 7.28768 2.53788C7.12855 2.87565 6.75507 3.07538 6.37186 2.99905C5.98863 2.92273 5.7207 2.59309 5.70446 2.21961C5.69959 2.10919 5.63139 2.00202 5.52422 1.98091L5.18322 1.91271C5.07442 1.8916 4.9705 1.96307 4.92341 2.06374C4.76427 2.4015 4.39079 2.60123 4.00757 2.52489C3.62435 2.44857 3.35642 2.11894 3.34019 1.74546C3.33532 1.63504 3.26711 1.52788 3.15994 1.50676L2.78159 1.43046C2.6728 1.40933 2.56725 1.47917 2.54614 1.58795C2.54614 1.58795 -7.48557e-08 14.2846 -7.42879e-08 14.2976C-7.01711e-08 14.3917 0.0665763 14.4746 0.160758 14.494L0.539106 14.5704C0.647902 14.5915 0.751826 14.52 0.798917 14.4193C0.958051 14.0816 1.33153 13.8819 1.71475 13.9582C2.09797 14.0345 2.3659 14.3641 2.38214 14.7376C2.38701 14.8481 2.45521 14.9552 2.56238 14.9763L2.90338 15.0445C3.01218 15.0656 3.1161 14.9942 3.16319 14.8935C3.32232 14.5557 3.6958 14.356 4.07902 14.4323C4.46224 14.5087 4.73017 14.8383 4.74641 15.2118C4.75128 15.3222 4.81948 15.4294 4.92665 15.4505L5.26765 15.5187C5.37645 15.5398 5.48037 15.4683 5.52747 15.3677C5.6866 15.0299 6.06008 14.8302 6.4433 14.9065C6.82653 14.9828 7.09446 15.3124 7.1107 15.6859C7.11557 15.7963 7.18377 15.9035 7.29094 15.9246L7.63195 15.9928C7.74074 16.0156 7.84304 15.9441 7.89013 15.8435ZM3.72829 5.02071C3.50908 4.97687 3.36618 4.76253 3.41003 4.54331C3.45387 4.3241 3.66821 4.1812 3.88743 4.22504L6.55373 4.7609L8.19703 5.09054C8.39027 5.12951 8.52344 5.29839 8.52344 5.48837C8.52344 5.51437 8.52019 5.54196 8.51532 5.56794C8.47147 5.78715 8.25713 5.93005 8.03791 5.88621L6.20463 5.5176L3.72829 5.02071ZM2.25874 12.3409C2.03953 12.297 1.89663 12.0827 1.94047 11.8635C1.98432 11.6443 2.19866 11.5014 2.41788 11.5452L3.33858 11.7303L4.38269 11.9398L5.22383 12.1087L6.72748 12.4091C6.92071 12.448 7.05388 12.6169 7.05388 12.8069C7.05388 12.8329 7.05064 12.8605 7.04576 12.8864C7.04412 12.8978 7.04088 12.9092 7.03765 12.9189C6.97917 13.1203 6.7762 13.2453 6.56836 13.2031L6.26471 13.143L5.47878 12.9855L2.25874 12.3409Z" fill="white"/>
</svg>
