<svg width="11" height="15" viewBox="0 0 11 15" fill="none" xmlns="http://www.w3.org/2000/svg">
<path d="M7.89013 14.8464C7.89988 14.8269 10.4346 2.19198 10.4346 2.17087C10.4298 2.06043 10.3616 1.95328 10.2544 1.93217L9.91339 1.86397C9.80459 1.84286 9.70067 1.91431 9.65358 2.01498C9.49444 2.35274 9.12097 2.55248 8.73775 2.47615C8.35453 2.39983 8.0866 2.07019 8.07036 1.69671C8.06549 1.58629 7.99729 1.47912 7.89012 1.45801L7.64005 1.40767L7.54749 1.3898C7.43869 1.36869 7.33477 1.44015 7.28768 1.54081C7.12855 1.87858 6.75507 2.07831 6.37186 2.00197C5.98863 1.92566 5.7207 1.59602 5.70446 1.22254C5.69959 1.11212 5.63139 1.00495 5.52422 0.983842L5.18322 0.915643C5.07442 0.894533 4.9705 0.965997 4.92341 1.06667C4.76427 1.40443 4.39079 1.60416 4.00757 1.52782C3.62435 1.4515 3.35642 1.12187 3.34019 0.748389C3.33532 0.637969 3.26711 0.530814 3.15994 0.509688L2.78159 0.433385C2.6728 0.412259 2.56725 0.482099 2.54614 0.590879C2.54614 0.590879 -7.48557e-08 13.2875 -7.42879e-08 13.3005C-7.01711e-08 13.3947 0.0665763 13.4775 0.160758 13.497L0.539106 13.5733C0.647902 13.5944 0.751826 13.523 0.798917 13.4223C0.958051 13.0845 1.33153 12.8848 1.71475 12.9611C2.09797 13.0374 2.3659 13.3671 2.38214 13.7405C2.38701 13.851 2.45521 13.9581 2.56238 13.9792L2.90338 14.0474C3.01218 14.0686 3.1161 13.9971 3.16319 13.8964C3.32232 13.5587 3.6958 13.3589 4.07902 13.4353C4.46224 13.5116 4.73017 13.8412 4.74641 14.2147C4.75128 14.3251 4.81948 14.4323 4.92665 14.4534L5.26765 14.5216C5.37645 14.5427 5.48037 14.4712 5.52747 14.3706C5.6866 14.0328 6.06008 13.8331 6.4433 13.9094C6.82653 13.9857 7.09446 14.3154 7.1107 14.6889C7.11557 14.7993 7.18377 14.9064 7.29094 14.9276L7.63195 14.9958C7.74074 15.0185 7.84304 14.9471 7.89013 14.8464ZM3.72829 4.02364C3.50908 3.9798 3.36618 3.76546 3.41003 3.54624C3.45387 3.32703 3.66821 3.18413 3.88743 3.22797L6.55373 3.76383L8.19703 4.09347C8.39027 4.13244 8.52344 4.30132 8.52344 4.4913C8.52344 4.5173 8.52019 4.54489 8.51532 4.57087C8.47147 4.79008 8.25713 4.93298 8.03791 4.88914L6.20463 4.52053L3.72829 4.02364ZM2.25874 11.3438C2.03953 11.3 1.89663 11.0856 1.94047 10.8664C1.98432 10.6472 2.19866 10.5043 2.41788 10.5481L3.33858 10.7333L4.38269 10.9427L5.22383 11.1116L6.72748 11.412C6.92071 11.4509 7.05388 11.6198 7.05388 11.8098C7.05388 11.8358 7.05064 11.8634 7.04576 11.8894C7.04412 11.9007 7.04088 11.9121 7.03765 11.9219C6.97917 12.1232 6.7762 12.2483 6.56836 12.206L6.26471 12.146L5.47878 11.9884L2.25874 11.3438Z" fill="white"/>
</svg>
