<svg width="27" height="25" viewBox="0 0 27 25" fill="none" xmlns="http://www.w3.org/2000/svg">
<g opacity="0.6">
<path d="M24.7673 1L15 8.22709L16.8163 3.96793L24.7673 1Z" fill="white" stroke="white" stroke-width="0.25" stroke-linecap="round" stroke-linejoin="round"/>
<path d="M2.23242 1L11.9127 8.29454L10.1834 3.96792L2.23242 1Z" fill="white" stroke="white" stroke-width="0.25" stroke-linecap="round" stroke-linejoin="round"/>
<path d="M21.2492 17.7578L18.6504 21.7279L24.2151 23.2601L25.8092 17.8446L21.2492 17.7578Z" fill="white" stroke="white" stroke-width="0.25" stroke-linecap="round" stroke-linejoin="round"/>
<path d="M1.20312 17.8446L2.78752 23.2601L8.34261 21.7279L5.75344 17.7578L1.20312 17.8446Z" fill="white" stroke="white" stroke-width="0.25" stroke-linecap="round" stroke-linejoin="round"/>
<path d="M8.04182 11.0507L6.49609 13.3827L12.0028 13.6332L11.8193 7.70703L8.04182 11.0507Z" fill="white" stroke="white" stroke-width="0.25" stroke-linecap="round" stroke-linejoin="round"/>
<path d="M18.9609 11.0498L15.1256 7.63867L15 13.6323L20.5067 13.3818L18.9609 11.0498Z" fill="white" stroke="white" stroke-width="0.25" stroke-linecap="round" stroke-linejoin="round"/>
<path d="M8.33984 21.7276L11.6728 20.1184L8.80359 17.8828L8.33984 21.7276Z" fill="white" stroke="white" stroke-width="0.25" stroke-linecap="round" stroke-linejoin="round"/>
<path d="M15.3262 20.1184L18.6495 21.7276L18.1954 17.8828L15.3262 20.1184Z" fill="white" stroke="white" stroke-width="0.25" stroke-linecap="round" stroke-linejoin="round"/>
<path d="M18.6495 21.7274L15.3262 20.1182L15.5966 22.2766L15.5676 23.1921L18.6495 21.7274Z" fill="white" stroke="white" stroke-width="0.25" stroke-linecap="round" stroke-linejoin="round"/>
<path d="M8.33984 21.7274L11.4314 23.1921L11.412 22.2766L11.6728 20.1182L8.33984 21.7274Z" fill="white" stroke="white" stroke-width="0.25" stroke-linecap="round" stroke-linejoin="round"/>
<path d="M8.34107 21.7279L8.82415 17.7578L5.75195 17.8446L8.34107 21.7279Z" fill="white" stroke="white" stroke-width="0.25" stroke-linecap="round" stroke-linejoin="round"/>
<path d="M18.1816 17.7578L18.6551 21.7279L21.2538 17.8446L18.1816 17.7578Z" fill="white" stroke="white" stroke-width="0.25" stroke-linecap="round" stroke-linejoin="round"/>
<path d="M20.5067 13.3828L15 13.6333L15.512 16.4568L16.3236 14.7511L18.2847 15.6473L20.5067 13.3828Z" fill="white" stroke="white" stroke-width="0.25" stroke-linecap="round" stroke-linejoin="round"/>
<path d="M8.72777 15.6473L10.6793 14.7511L11.4908 16.4568L12.0028 13.6333L6.49609 13.3828L8.72777 15.6473Z" fill="white" stroke="white" stroke-width="0.25" stroke-linecap="round" stroke-linejoin="round"/>
<path d="M6.49609 13.3828L8.80508 17.8829L8.72774 15.6473L6.49609 13.3828Z" fill="white" stroke="white" stroke-width="0.25" stroke-linecap="round" stroke-linejoin="round"/>
<path d="M18.2822 15.6473L18.1953 17.8829L20.5043 13.3828L18.2822 15.6473Z" fill="white" stroke="white" stroke-width="0.25" stroke-linecap="round" stroke-linejoin="round"/>
<path d="M12.0062 13.6318L11.4941 16.4553L12.1414 19.7893L12.2864 15.3953L12.0062 13.6318Z" fill="white" stroke="white" stroke-width="0.25" stroke-linecap="round" stroke-linejoin="round"/>
<path d="M14.9952 13.6328L14.7246 15.3867L14.8599 19.7903L15.5072 16.4563L14.9952 13.6328Z" fill="white" stroke="white" stroke-width="0.25" stroke-linecap="round" stroke-linejoin="round"/>
<path d="M15.5125 16.4569L14.8652 19.791L15.329 20.1186L18.1983 17.883L18.2852 15.6475L15.5125 16.4569Z" fill="white" stroke="white" stroke-width="0.25" stroke-linecap="round" stroke-linejoin="round"/>
<path d="M8.73047 15.6475L8.80781 17.883L11.6771 20.1186L12.1408 19.791L11.4935 16.4569L8.73047 15.6475Z" fill="white" stroke="white" stroke-width="0.25" stroke-linecap="round" stroke-linejoin="round"/>
<path d="M15.5663 23.1922L15.5952 22.2768L15.3441 22.0648H11.6536L11.412 22.2768L11.4314 23.1922L8.33984 21.7275L9.42187 22.6141L11.6149 24.1269H15.373L17.5757 22.6141L18.6481 21.7275L15.5663 23.1922Z" fill="white" stroke="white" stroke-width="0.25" stroke-linecap="round" stroke-linejoin="round"/>
<path d="M15.3248 20.1186L14.861 19.791H12.1367L11.673 20.1186L11.4121 22.2771L11.6536 22.0651H15.3441L15.5953 22.2771L15.3248 20.1186Z" fill="#303342" stroke="#303342" stroke-width="0.25" stroke-linecap="round" stroke-linejoin="round"/>
<path d="M25.1803 8.69924L26.0015 4.70991L24.7649 1L15.3262 7.98622L18.9586 11.0505L24.0886 12.5441L25.219 11.224L24.7263 10.8674L25.5088 10.1544L24.9098 9.6918L25.6924 9.09434L25.1803 8.69924Z" fill="#303342" stroke="white" stroke-linecap="round" stroke-linejoin="round"/>
<path d="M1 4.71089L1.83084 8.70022L1.29949 9.09532L2.09169 9.69278L1.49271 10.1553L2.27525 10.8684L1.78254 11.2249L2.91287 12.5451L8.04289 11.0514L11.6754 7.9872L2.23661 1.00098L1 4.71089Z" fill="#303342" stroke="white" stroke-linecap="round" stroke-linejoin="round"/>
<path d="M24.0885 12.5443L18.9585 11.0508L20.5043 13.3827L18.1953 17.8828L21.2482 17.8442H25.8081L24.0885 12.5443Z" fill="white" stroke="white" stroke-width="0.25" stroke-linecap="round" stroke-linejoin="round"/>
<path d="M8.04306 11.0508L2.91311 12.5443L1.20312 17.8442H5.75344L8.80628 17.8828L6.49734 13.3827L8.04306 11.0508Z" fill="white" stroke="white" stroke-width="0.25" stroke-linecap="round" stroke-linejoin="round"/>
<path d="M14.9948 13.6338L15.3232 7.98698L16.811 3.96875H10.1836L11.6714 7.98698L11.9998 13.6338L12.1254 15.4068L12.1351 19.7913H14.8595L14.8692 15.4068L14.9948 13.6338Z" fill="white" stroke="white" stroke-width="0.25" stroke-linecap="round" stroke-linejoin="round"/>
<path d="M15.5098 16.4566L16.3213 14.751L18.2825 15.6472L15.5098 16.4566Z" fill="#303342" stroke="#303342" stroke-width="0.25" stroke-linecap="round" stroke-linejoin="round"/>
<path d="M11.4935 16.4566L8.73047 15.6472L10.682 14.751L11.4935 16.4566Z" fill="#303342" stroke="#303342" stroke-width="0.25" stroke-linecap="round" stroke-linejoin="round"/>
</g>
</svg>
