<svg width="20" height="24" viewBox="0 0 20 24" fill="none" xmlns="http://www.w3.org/2000/svg">
<path opacity="0.6" d="M19.7004 6.31888C18.76 5.6384 17.7543 4.91293 16.7704 4.19309C16.7486 4.17622 16.7269 4.15935 16.6997 4.14248C16.591 4.05812 16.466 3.96814 16.3138 3.91753L16.3029 3.9119C13.6718 3.25392 10.9972 2.57907 8.40966 1.92672C6.06126 1.33622 3.7183 0.745724 1.3699 0.155228C1.3101 0.138357 1.2503 0.121485 1.18507 0.104614C0.973063 0.0427526 0.728438 -0.0247324 0.467505 0.00901017C0.3914 0.0202577 0.326166 0.0483766 0.266369 0.087743L0.201136 0.143981C0.0978497 0.245208 0.043489 0.374555 0.0163085 0.447664L0 0.492654V0.751347L0.010872 0.790714C1.49493 5.0929 3.01704 9.45694 4.48479 13.6804C5.6155 16.9309 6.7897 20.2996 7.93671 23.6063C8.00738 23.8313 8.20852 23.9775 8.45858 24H8.51294C8.74669 24 8.95327 23.8819 9.05655 23.6907L13.3619 17.1952C14.4111 15.615 15.4603 14.0291 16.5095 12.4488C16.9389 11.8021 17.3684 11.1497 17.7978 10.503C18.5045 9.43444 19.2329 8.33219 19.9559 7.25805L19.994 7.20181V7.13432C20.0103 6.93749 20.0157 6.53258 19.7004 6.31888ZM14.6557 8.68648C13.6446 9.23199 12.6118 9.79436 11.5735 10.3511C12.1769 9.68189 12.7857 9.00704 13.3891 8.33781C14.1447 7.49424 14.933 6.62256 15.7049 5.76775L15.7212 5.75088C15.7865 5.6609 15.868 5.57654 15.955 5.48656C16.0148 5.4247 16.08 5.36284 16.1398 5.28973C16.5421 5.57654 16.9498 5.86898 17.3412 6.15579C17.6239 6.36387 17.912 6.57195 18.2055 6.78003C17.0096 7.40989 15.8136 8.05662 14.6557 8.68648ZM12.0573 8.41654C11.2799 9.28823 10.4754 10.1824 9.67627 11.0653C8.12698 9.11951 6.54507 7.14557 5.01209 5.23911C4.31627 4.37305 3.61501 3.50137 2.91919 2.63531L2.91375 2.62969C2.75611 2.4441 2.60389 2.24165 2.45168 2.05044C2.35383 1.92109 2.25055 1.79737 2.14726 1.66802C2.77785 1.83673 3.41387 1.9942 4.03903 2.14604C4.58807 2.28101 5.15886 2.42161 5.71878 2.56782C8.87172 3.36078 12.0301 4.15373 15.183 4.94668C14.1339 6.10517 13.0793 7.28054 12.0573 8.41654ZM9.32292 19.3773C9.38272 18.7868 9.44795 18.1794 9.50231 17.5833C9.55124 17.1053 9.60016 16.616 9.64909 16.1492C9.72519 15.4013 9.80674 14.6252 9.87197 13.866L9.88828 13.731C9.94264 13.2474 9.997 12.7468 10.0296 12.2463C10.0894 12.2126 10.1546 12.1788 10.2253 12.1507C10.3069 12.1114 10.3884 12.0776 10.4699 12.027C11.7257 11.3465 12.9814 10.666 14.2426 9.9912C15.4983 9.31635 16.7867 8.619 18.0642 7.92727C16.9009 9.67064 15.7321 11.4309 14.6014 13.1461C13.6283 14.6139 12.6281 16.1267 11.6333 17.617C11.2419 18.2131 10.8342 18.8205 10.4482 19.4054C10.0133 20.0577 9.56755 20.727 9.13266 21.3962C9.18702 20.7213 9.25225 20.0409 9.32292 19.3773ZM1.74499 2.99523C1.67432 2.79278 1.59821 2.5847 1.53298 2.38786C3.00073 4.22121 4.47935 6.06581 5.91992 7.85417C6.66467 8.78209 7.40941 9.70438 8.15416 10.6379C8.30093 10.8123 8.44771 10.9979 8.58905 11.1778C8.77387 11.4084 8.9587 11.6502 9.15984 11.8808C9.0946 12.46 9.04024 13.0449 8.98045 13.6073C8.94239 14.0009 8.90434 14.3946 8.86085 14.7939V14.7995C8.84454 15.0526 8.81193 15.3057 8.78475 15.5531C8.74669 15.8962 8.65972 16.6722 8.65972 16.6722L8.65428 16.7116C8.55643 17.8476 8.43684 18.9948 8.32268 20.1084C8.27375 20.5695 8.23026 21.0419 8.18134 21.5143C8.15416 21.4299 8.12154 21.3456 8.09436 21.2668C8.01282 21.0419 7.93128 20.8057 7.85517 20.5751L7.27351 18.9049C5.43067 13.6017 3.58783 8.30407 1.74499 2.99523Z" fill="white"/>
</svg>
