<svg width="10" height="10" viewBox="0 0 10 10" fill="none" xmlns="http://www.w3.org/2000/svg">
<path d="M9.81876 0.188805C9.57695 -0.0526679 9.18506 -0.0526679 8.9434 0.188805L5.00385 4.12532L1.06431 0.188805C0.826726 -0.0568963 0.434842 -0.063692 0.188951 0.173704C-0.0569402 0.410949 -0.0637411 0.802531 0.173838 1.04823C0.178825 1.05337 0.183813 1.0585 0.188951 1.06349L4.1285 5L0.188951 8.93651C-0.0569402 9.17376 -0.0637411 9.56534 0.173838 9.81119C0.411266 10.0569 0.80315 10.0637 1.04904 9.8263C1.05418 9.82131 1.05932 9.81633 1.06431 9.81119L5.00385 5.87468L8.9434 9.81119C9.18929 10.0484 9.58118 10.0416 9.8186 9.79594C10.0503 9.55628 10.0503 9.17618 9.8186 8.93651L5.87921 5L9.81876 1.06349C10.0604 0.822012 10.0604 0.43043 9.81876 0.188805Z" fill="white"/>
</svg>
