<svg width="17" height="10" viewBox="0 0 17 10" fill="none" xmlns="http://www.w3.org/2000/svg">
<path d="M16.9371 4.79641C16.8032 4.60071 13.586 0 8.50024 0C4.13626 0 0.247567 4.57429 0.0839445 4.76929C-0.0279815 4.90215 -0.0279815 5.09715 0.0839445 5.23071C0.247567 5.42571 4.13626 10 8.50024 10C12.8642 10 16.7529 5.42571 16.9165 5.23071C17.0192 5.10713 17.0284 4.92927 16.9371 4.79641ZM8.50024 7.85711C6.93769 7.85711 5.66696 6.57568 5.66696 4.99998C5.66696 3.42428 6.93769 2.14285 8.50024 2.14285C10.0628 2.14285 11.3335 3.42428 11.3335 4.99998C11.3335 6.57568 10.0628 7.85711 8.50024 7.85711Z" fill="white"/>
</svg>
