<svg width="20" height="20" viewBox="0 0 20 20" fill="none" xmlns="http://www.w3.org/2000/svg">
<path d="M4.43236 12.0864L3.7362 14.6853L1.19174 14.7391C0.431322 13.3287 0 11.715 0 10.0002C0 8.34199 0.403276 6.77826 1.11811 5.40137H1.11866L3.38394 5.81667L4.37627 8.06836C4.16858 8.67386 4.05537 9.32385 4.05537 10.0002C4.05545 10.7343 4.18842 11.4376 4.43236 12.0864Z" fill="white"/>
<path d="M19.8221 8.13086C19.9369 8.73577 19.9968 9.36049 19.9968 9.99896C19.9968 10.7149 19.9215 11.4132 19.7782 12.0869C19.2914 14.3791 18.0194 16.3807 16.2573 17.7972L16.2568 17.7967L13.4036 17.6511L12.9997 15.1302C14.1689 14.4445 15.0827 13.3715 15.564 12.0869H10.2168V8.13086H15.642H19.8221Z" fill="white"/>
<path d="M16.2574 17.7984L16.2579 17.7989C14.5442 19.1763 12.3673 20.0005 9.99758 20.0005C6.18939 20.0005 2.87845 17.872 1.18945 14.7396L4.43007 12.0869C5.27455 14.3407 7.4487 15.9451 9.99758 15.9451C11.0931 15.9451 12.1195 15.6489 13.0003 15.1319L16.2574 17.7984Z" fill="white"/>
<path d="M16.3799 2.30216L13.1403 4.95431C12.2288 4.38455 11.1513 4.05541 9.99699 4.05541C7.39042 4.05541 5.17561 5.7334 4.37343 8.06802L1.11578 5.40102H1.11523C2.77951 2.19228 6.1322 0 9.99699 0C12.4233 0 14.648 0.864285 16.3799 2.30216Z" fill="white"/>
</svg>
