<svg width="140" height="65" viewBox="0 0 140 65" fill="none" xmlns="http://www.w3.org/2000/svg">
<path d="M2.05716 23.625C3.68392 23.3768 5.32773 23.2575 6.97326 23.2682C9.2993 23.2682 10.6511 23.4955 11.7864 24.1747C12.3681 24.4739 12.843 24.9459 13.146 25.5259C13.449 26.106 13.5653 26.7657 13.4788 27.4146C13.3388 28.8548 12.3488 30.2079 10.4214 30.8844V30.9425C12.2273 31.4261 13.5316 32.8347 13.3256 34.9647C13.2492 35.6625 13.0233 36.3355 12.6634 36.938C12.3034 37.5404 11.8179 38.0581 11.2399 38.4556C9.91975 39.4043 7.8551 39.9144 4.55745 39.9144C3.19894 39.9277 1.84116 39.8456 0.494141 39.6686L2.05716 23.625ZM4.43336 37.1026C4.92634 37.1637 5.4233 37.1867 5.91981 37.1713C7.64651 37.1713 9.23857 36.5344 9.40755 34.7929C9.5686 33.1465 8.12176 32.507 6.21287 32.5044H4.87956L4.43336 37.1026ZM5.1383 29.8617H6.40297C8.4465 29.8617 9.57124 29.0689 9.68741 27.848C9.80886 26.5901 8.8795 25.9611 7.16335 25.9611C6.60908 25.9456 6.05461 25.9845 5.50793 26.0774L5.1383 29.8617Z" fill="white"/>
<path d="M25.5438 32.8322H19.3234L18.9485 36.6403H25.887L25.6045 39.6397H14.9512L16.5353 23.5459H26.8322L26.5391 26.5321H19.9386L19.6165 29.8619H25.8395L25.5438 32.8322Z" fill="white"/>
<path d="M32.8752 26.5792H28.2812L28.5849 23.5322H41.5642L41.2527 26.5792H36.6032L35.3043 39.6393H31.5763L32.8752 26.5792Z" fill="white"/>
<path d="M57.7619 38.7064C55.861 39.287 53.8878 39.5965 51.9006 39.626C48.7535 39.626 46.5621 38.8835 45.1311 37.4538C43.737 36.0822 43.1007 34.0553 43.3436 31.7694C43.8902 26.5845 48.2888 23.5322 53.9389 23.5322C56.1751 23.5322 57.849 23.9366 58.6702 24.325L57.5692 27.1817C56.6504 26.7906 55.4992 26.4814 53.5745 26.4814C50.3217 26.4814 47.6921 28.1886 47.3436 31.5606C47.0083 34.7741 49.0492 36.7323 52.3046 36.7323C52.982 36.7609 53.6596 36.6797 54.3111 36.4918L54.6491 33.2123H51.9508L52.2386 30.4269H58.6253L57.7619 38.7064Z" fill="#FE5D00"/>
<path d="M65.6194 35.4326L63.993 39.6397H60.1172L66.8709 23.5459H71.7817L75.4965 39.6397H71.449L70.5434 35.4458L65.6194 35.4326ZM70.224 32.7133L69.49 29.2778C69.2893 28.3265 69.1045 27.1637 68.9382 26.2361H68.888C68.5474 27.169 68.1857 28.3503 67.8187 29.2778L66.4511 32.7133H70.224Z" fill="#FE5D00"/>
<path d="M78.7044 23.5322H82.8073L81.3816 36.5579H88.827L88.4891 39.6393H76.9434L78.7044 23.5322Z" fill="#FE5D00"/>
<path d="M95.7783 35.4326L94.1519 39.6397H90.2734L97.0324 23.5459H101.946L105.642 39.6397H101.6L100.692 35.4458L95.7783 35.4326ZM100.393 32.7133L99.6595 29.2778C99.4562 28.3265 99.2766 27.1637 99.1077 26.2361H99.0575C98.7169 27.169 98.3525 28.3503 97.9856 29.2778L96.6047 32.7133H100.393Z" fill="#FE5D00"/>
<path d="M129.063 39.6181L129.726 32.9745L125.322 23.5322H129.628L130.991 27.4169C131.397 28.5876 131.685 29.4254 131.999 30.4692H132.05C132.533 29.4809 133.034 28.5586 133.634 27.4196L135.746 23.5322H139.986L133.457 32.8635L132.794 39.6393L129.063 39.6181Z" fill="#FE5D00"/>
<path d="M125.558 1.18621C122.218 -1.55687 115.47 0.599543 107.676 6.18877C114.013 2.98322 119.393 2.16928 121.828 4.16978C126.675 8.15491 120.621 23.5537 108.307 38.564C95.993 53.5744 82.0764 62.5145 77.2289 58.5293C74.8527 56.5711 74.4541 51.4391 76.1253 44.9461C72.429 53.3788 71.7426 60.1387 74.9953 62.8131C80.7748 67.5699 96.7798 57.6203 110.744 40.6015C124.708 23.5828 131.338 5.93772 125.558 1.18621Z" fill="white"/>
<path d="M117.288 31.809C119.088 29.1396 120.747 26.3768 122.257 23.5322H118.542C117.676 25.139 116.708 26.7871 115.638 28.4766L115.519 28.659C114.581 26.9095 113.739 25.1997 113.003 23.5454H109.409C110.641 26.3212 112.011 29.0334 113.515 31.6716C111.931 33.9496 110.196 36.2619 108.308 38.5637C108.015 38.9231 107.72 39.2746 107.424 39.6208H111.648L112.023 39.0129C113.169 37.5665 114.259 36.1219 115.294 34.679C115.664 35.2815 116.039 35.884 116.427 36.4892C117.089 37.5286 117.778 38.5707 118.494 39.6155H122.373C120.496 36.9966 118.795 34.3751 117.288 31.809Z" fill="white"/>
</svg>
