<svg width="15" height="11" viewBox="0 0 15 11" fill="none" xmlns="http://www.w3.org/2000/svg">
<g opacity="0.5" clip-path="url(#clip0)">
<path d="M1.19663 0.622L6.58963 4.91C6.85156 5.10336 7.17386 5.19697 7.49863 5.174C7.82308 5.19699 8.14508 5.10337 8.40663 4.91L13.8006 0.622C14.2336 0.28 14.1336 0 13.5866 0H1.41263C0.863627 0 0.765627 0.28 1.19663 0.622Z" fill="#8190B0"/>
<path d="M14.2 1.75012L8.3 6.17312C8.06628 6.33747 7.7856 6.42167 7.5 6.41312C7.21444 6.42139 6.93385 6.33721 6.7 6.17312L0.8 1.75012C0.362 1.42212 0 1.59812 0 2.14112V9.39812C0.00341873 9.66108 0.110283 9.9121 0.29745 10.0968C0.484617 10.2816 0.737021 10.3851 1 10.3851H14C14.263 10.3851 14.5154 10.2816 14.7025 10.0968C14.8897 9.9121 14.9966 9.66108 15 9.39812V2.14112C15 1.59812 14.641 1.42212 14.2 1.75012Z" fill="#8190B0"/>
</g>
<defs>
<clipPath id="clip0">
<rect width="15" height="10.385" fill="white"/>
</clipPath>
</defs>
</svg>
