<svg width="13" height="16" viewBox="0 0 13 16" fill="none" xmlns="http://www.w3.org/2000/svg">
<path opacity="0.5" d="M1.3857 4.81423V6.48346H1.2791C1.11176 6.4822 0.945824 6.51403 0.79083 6.57713C0.635836 6.64023 0.494847 6.73335 0.375972 6.85113C0.257097 6.96892 0.162683 7.10904 0.0981592 7.26345C0.0336356 7.41786 0.000276237 7.5835 0 7.75084L0 14.7326C0.00056478 15.0689 0.134566 15.3913 0.372584 15.6289C0.610603 15.8665 0.933185 16 1.26951 16H11.0291C11.3654 16 11.688 15.8665 11.926 15.6289C12.164 15.3913 12.298 15.0689 12.2986 14.7326V7.74764C12.298 7.41132 12.164 7.08896 11.926 6.85134C11.688 6.61372 11.3654 6.48026 11.0291 6.48026H10.996V4.80783C10.996 3.53272 10.4895 2.30983 9.58786 1.40818C8.68621 0.506538 7.46332 0 6.1882 0C4.91308 0 3.69019 0.506538 2.78855 1.40818C1.88691 2.30983 1.38037 3.53272 1.38037 4.80783L1.3857 4.81423ZM6.90717 11.5508C6.86485 11.5776 6.83079 11.6156 6.80878 11.6606C6.78676 11.7056 6.77765 11.7558 6.78245 11.8056C6.78245 12.3183 6.78245 12.8278 6.78245 13.3416C6.78892 13.4461 6.76524 13.5503 6.71422 13.6418C6.6632 13.7332 6.58699 13.8081 6.49465 13.8575C6.40386 13.9094 6.30104 13.9367 6.19644 13.9365C6.09184 13.9364 5.9891 13.9089 5.89844 13.8567C5.80778 13.8045 5.73237 13.7295 5.6797 13.6391C5.62702 13.5488 5.59893 13.4462 5.59821 13.3416C5.59821 12.8289 5.59821 12.3162 5.59821 11.8024C5.60279 11.7555 5.5946 11.7083 5.57452 11.6657C5.55444 11.6231 5.52322 11.5867 5.48416 11.5604C5.262 11.4021 5.10202 11.1712 5.03179 10.9075C4.96155 10.6439 4.98545 10.364 5.09936 10.1161C5.21056 9.86763 5.4032 9.66452 5.64546 9.54034C5.88772 9.41616 6.16509 9.37834 6.43175 9.43314C6.6984 9.48794 6.93839 9.63207 7.11204 9.84172C7.2857 10.0514 7.38263 10.314 7.38683 10.5862C7.39263 10.7746 7.35131 10.9616 7.26662 11.13C7.18193 11.2984 7.05655 11.4431 6.90184 11.5508H6.90717ZM3.48556 4.81423C3.48556 4.0973 3.77036 3.40974 4.2773 2.9028C4.78425 2.39585 5.47181 2.11106 6.18874 2.11106C6.90566 2.11106 7.59322 2.39585 8.10017 2.9028C8.60711 3.40974 8.89191 4.0973 8.89191 4.81423V6.48346H3.48556V4.81423Z" fill="#8190B0"/>
</svg>
