<svg width="14" height="16" viewBox="0 0 14 16" fill="none" xmlns="http://www.w3.org/2000/svg">
<g opacity="0.5">
<path d="M6.88501 7.70724C7.94385 7.70724 8.86072 7.32749 9.60986 6.57822C10.359 5.82908 10.7388 4.91246 10.7388 3.8535C10.7388 2.79491 10.359 1.87817 9.60974 1.12878C8.86048 0.379759 7.94373 0 6.88501 0C5.82605 0 4.90942 0.379759 4.16028 1.1289C3.41113 1.87804 3.03125 2.79479 3.03125 3.8535C3.03125 4.91246 3.41113 5.8292 4.1604 6.57834C4.90967 7.32736 5.82642 7.70724 6.88501 7.70724Z" fill="#8190B0"/>
<path d="M13.629 12.3031C13.6074 11.9913 13.5637 11.6512 13.4994 11.2921C13.4344 10.9303 13.3508 10.5882 13.2507 10.2756C13.1473 9.95251 13.0067 9.63342 12.8329 9.32763C12.6525 9.01025 12.4406 8.73388 12.2028 8.50647C11.9541 8.26855 11.6497 8.07727 11.2976 7.93774C10.9468 7.79895 10.558 7.72864 10.1421 7.72864C9.97876 7.72864 9.8208 7.79565 9.51575 7.99426C9.328 8.1167 9.1084 8.2583 8.86328 8.41491C8.65369 8.54846 8.36975 8.67358 8.01904 8.78686C7.67688 8.89758 7.32947 8.95373 6.98657 8.95373C6.64368 8.95373 6.29639 8.89758 5.95386 8.78686C5.60352 8.6737 5.31958 8.54858 5.11023 8.41504C4.86743 8.25989 4.64771 8.11828 4.45715 7.99414C4.15247 7.79553 3.99438 7.72852 3.83105 7.72852C3.41504 7.72852 3.02637 7.79895 2.67566 7.93787C2.32385 8.07715 2.01929 8.26843 1.77039 8.50659C1.53271 8.73413 1.32068 9.01037 1.1405 9.32763C0.966797 9.63342 0.826172 9.95238 0.722656 10.2757C0.622681 10.5884 0.539062 10.9303 0.474121 11.2921C0.40979 11.6507 0.366089 11.991 0.344482 12.3034C0.323242 12.6096 0.3125 12.9273 0.3125 13.2483C0.3125 14.0835 0.578003 14.7596 1.10156 15.2583C1.61865 15.7503 2.30286 16 3.13489 16H10.839C11.671 16 12.355 15.7505 12.8722 15.2583C13.3959 14.76 13.6614 14.0837 13.6614 13.2481C13.6613 12.9258 13.6504 12.6078 13.629 12.3031Z" fill="#8190B0"/>
</g>
</svg>
