<svg width="16" height="16" viewBox="0 0 16 16" fill="none" xmlns="http://www.w3.org/2000/svg">
<g opacity="0.7" clip-path="url(#clip0)">
<path d="M0 0.5C0 0.223858 0.223858 0 0.5 0C0.776142 0 1 0.223858 1 0.5V16H0V0.5Z" fill="#C4C4C4"/>
<path d="M15.5 15C15.7761 15 16 15.2239 16 15.5C16 15.7761 15.7761 16 15.5 16L-4.37114e-08 16L0 15L15.5 15Z" fill="#C4C4C4"/>
<path d="M7 15C7 14.2121 6.84481 13.4319 6.54328 12.7039C6.24175 11.9759 5.79979 11.3145 5.24264 10.7574C4.68549 10.2002 4.02405 9.75825 3.2961 9.45672C2.56815 9.15519 1.78793 9 1 9L1 10.08C1.6461 10.08 2.28588 10.2073 2.8828 10.4545C3.47972 10.7018 4.0221 11.0642 4.47897 11.521C4.93583 11.9779 5.29823 12.5203 5.54549 13.1172C5.79274 13.7141 5.92 14.3539 5.92 15H7Z" fill="#C4C4C4"/>
</g>
<defs>
<clipPath id="clip0">
<rect width="16" height="16" fill="white"/>
</clipPath>
</defs>
</svg>
