<svg width="16" height="16" viewBox="0 0 16 16" fill="none" xmlns="http://www.w3.org/2000/svg">
<g opacity="0.7" clip-path="url(#clip0)">
<path d="M8.54311 0.0249375C8.37286 0.0141875 8.20327 0 8.0312 0C6.06014 0 4.1727 0.749812 2.71289 2.05009L7.99995 7.33716L10.0202 5.31694C8.61189 3.90862 8.09055 1.89959 8.54311 0.0249375Z" fill="white"/>
<path d="M2.05009 2.71289C0.749812 4.1727 0 6.06014 0 8.0312C0 8.20339 0.0141875 8.37311 0.0249375 8.54339C1.89966 8.09111 3.90903 8.61189 5.31694 10.0202L7.33716 7.99995L2.05009 2.71289Z" fill="white"/>
<path d="M9.4762 0.135742C9.0511 1.72824 9.48123 3.45362 10.6822 4.65462L13.3175 2.01937C12.221 1.04274 10.9021 0.395805 9.4762 0.135742Z" fill="white"/>
<path d="M13.9821 2.68164L11.416 5.2477C12.685 6.08545 14.278 6.23917 15.674 5.70633C15.3459 4.59258 14.7695 3.56564 13.9821 2.68164Z" fill="white"/>
<path d="M5.24701 11.416L2.68164 13.9814C3.56764 14.7706 4.5972 15.3474 5.71386 15.6752C5.84882 15.3247 5.94445 14.9573 5.99164 14.5766C6.13098 13.4483 5.8597 12.3389 5.24701 11.416Z" fill="white"/>
<path d="M8.00114 8.66309L5.91992 10.7443C6.73161 11.8813 7.09855 13.2738 6.92298 14.6919C6.87217 15.1026 6.7738 15.5001 6.63786 15.8818C7.07445 15.955 7.5183 16.0002 7.96989 16.0002C9.94095 16.0002 11.8284 15.2504 13.2882 13.9501L8.00114 8.66309Z" fill="white"/>
<path d="M15.8823 6.63355C15.2745 6.84852 14.6388 6.96165 14.0022 6.96165C12.8564 6.96165 11.7206 6.60077 10.7514 5.91309L8.66406 8.00043L13.9511 13.2875C15.2514 11.8277 16.0012 9.94024 16.0012 7.96918C16.0012 7.51633 15.9559 7.07127 15.8823 6.63355Z" fill="white"/>
<path d="M0.136719 9.47708C0.396781 10.903 1.04372 12.2219 2.02034 13.3184L4.65556 10.6831C3.45431 9.48183 1.72847 9.0523 0.136719 9.47708Z" fill="white"/>
</g>
<defs>
<clipPath id="clip0">
<rect width="16" height="16" fill="white"/>
</clipPath>
</defs>
</svg>
