<svg width="30" height="30" viewBox="0 0 30 30" fill="none" xmlns="http://www.w3.org/2000/svg">
<g clip-path="url(#clip0)">
<path d="M16.0176 0.0467578C15.6984 0.0266016 15.3804 0 15.0578 0C11.362 0 7.82309 1.4059 5.08594 3.84393L14.9992 13.7572L18.7871 9.96926C16.1466 7.32867 15.169 3.56174 16.0176 0.0467578Z" fill="white"/>
<path d="M3.84393 5.08594C1.4059 7.82309 0 11.362 0 15.0578C0 15.3806 0.0266016 15.6988 0.0467578 16.0181C3.56186 15.1701 7.32943 16.1466 9.96926 18.7871L13.7572 14.9992L3.84393 5.08594Z" fill="white"/>
<path d="M17.7684 0.25293C16.9713 3.23887 17.7778 6.47395 20.0297 8.72582L24.9708 3.78473C22.9149 1.95355 20.4419 0.740547 17.7684 0.25293Z" fill="white"/>
<path d="M26.2137 5.02734L21.4023 9.83871C23.7816 11.4095 26.7685 11.6977 29.3861 10.6986C28.7708 8.61035 27.6901 6.68484 26.2137 5.02734Z" fill="white"/>
<path d="M9.83937 21.4053L5.0293 26.2154C6.69054 27.6951 8.62097 28.7767 10.7147 29.3913C10.9678 28.7341 11.1471 28.0451 11.2355 27.3313C11.4968 25.2158 10.9882 23.1357 9.83937 21.4053Z" fill="white"/>
<path d="M14.9999 16.2432L11.0977 20.1454C12.6196 22.2773 13.3076 24.8883 12.9784 27.5472C12.8831 28.3172 12.6987 29.0626 12.4438 29.7783C13.2624 29.9155 14.0946 30.0003 14.9413 30.0003C18.6371 30.0003 22.176 28.5944 24.9132 26.1564L14.9999 16.2432Z" fill="white"/>
<path d="M29.7764 12.4368C28.6368 12.8399 27.4448 13.052 26.2511 13.052C24.1029 13.052 21.9731 12.3754 20.156 11.0859L16.2422 14.9997L26.1554 24.9129C28.5935 22.1758 29.9994 18.6368 29.9994 14.9411C29.9994 14.092 29.9144 13.2575 29.7764 12.4368Z" fill="white"/>
<path d="M0.253906 17.7701C0.741523 20.4436 1.95453 22.9167 3.7857 24.9725L8.72674 20.0315C6.47439 17.779 3.23844 16.9737 0.253906 17.7701Z" fill="white"/>
</g>
<defs>
<clipPath id="clip0">
<rect width="30" height="30" fill="white"/>
</clipPath>
</defs>
</svg>
