<svg width="16" height="16" viewBox="0 0 16 16" fill="none" xmlns="http://www.w3.org/2000/svg">
<g opacity="0.7" clip-path="url(#clip0)">
<path d="M3.76216 9.16171C3.33418 9.96084 2.94393 10.799 2.66591 11.6575C1.95086 11.3447 1.23933 10.957 0.621694 10.4765C0.288841 9.51115 0.151522 8.48777 0.228886 7.48404C0.619888 6.68401 1.0872 5.94244 1.66822 5.27755C2.09288 5.52624 2.55286 5.75628 3.01276 5.96767C3.2497 7.03256 3.50593 8.09738 3.76216 9.16171ZM3.11051 5.71624C2.65257 5.52384 2.21218 5.29478 1.77121 5.04635C1.84984 4.34456 1.94728 3.66144 2.04497 2.97762C2.79338 2.09447 3.69722 1.40639 4.7374 0.932313C5.60229 1.20297 6.21642 1.50889 6.56946 1.84676C6.20102 2.51246 5.92778 3.19963 5.80687 3.94489C4.78533 4.59352 3.89921 5.18401 3.11051 5.71624ZM12.709 3.32276C12.0553 2.34137 11.2077 1.591 10.1479 1.09166C10.1611 1.04883 10.1752 1.00478 10.1895 0.960049C10.2313 0.829252 10.2749 0.692575 10.3046 0.563014C12.0056 1.08646 13.4693 2.18713 14.4707 3.6579C13.9229 3.38315 13.3401 3.25667 12.709 3.32276ZM7.99001 16.05C12.4321 16.05 16.05 12.4321 16.05 7.99001C16.05 3.60817 12.4924 -0.05 7.99001 -0.05C3.54792 -0.05 -0.05 3.54792 -0.05 7.99001C-0.05 12.4319 3.54775 16.05 7.99001 16.05ZM15.7093 7.40889C15.6915 7.08618 15.6661 6.7784 15.6312 6.48562C15.6941 6.80297 15.7373 7.12825 15.7609 7.46148C15.7439 7.44363 15.7265 7.42608 15.7093 7.40889ZM13.9041 8.58612C14.5011 8.33466 15.0823 8.04377 15.5733 7.64149C15.6393 7.72361 15.7081 7.80708 15.7902 7.89071C15.7859 9.76733 15.1917 11.5433 13.9695 12.9853C13.7317 13.1303 13.4593 13.2243 13.1845 13.2669C13.0865 12.7048 12.9502 12.0351 12.7395 11.4901C13.2517 10.6166 13.6269 9.55251 13.9041 8.58612ZM10.2373 15.429C11.2253 14.8351 12.1936 14.1831 13.1414 13.5316C13.2766 13.517 13.4195 13.4851 13.5589 13.4417C12.628 14.38 11.4938 15.0721 10.2373 15.4535V15.429ZM7.7043 14.7127C8.44761 14.9865 9.21209 15.2607 9.97746 15.4595V15.5223C8.12575 16.0189 6.12374 15.7901 4.42181 14.9105C4.53392 14.8065 4.6325 14.689 4.71754 14.5582C5.70615 14.7721 6.69545 14.83 7.7043 14.7127ZM8.69284 6.5013C7.92164 5.53555 7.05271 4.68615 6.06686 3.97259C6.18681 3.25713 6.43934 2.57943 6.82478 1.93926C7.8298 1.60606 8.89389 1.40872 9.95958 1.28965C11.0152 1.76167 11.858 2.50447 12.4882 3.48088C12.2318 4.11399 11.9184 4.9579 11.6047 5.97498C10.6869 6.34169 9.67259 6.47977 8.69284 6.5013ZM8.72301 6.76026C9.7044 6.71897 10.7446 6.58046 11.6729 6.23052C12.3777 6.93662 13.08 7.69906 13.6677 8.51821C13.3713 9.46531 13.0176 10.5204 12.5112 11.3638C11.3318 11.7356 10.1329 11.9524 8.91429 12.0331C8.38683 11.2494 7.89757 10.4081 7.44655 9.54683C7.54118 9.34481 7.63677 9.14265 7.7325 8.94019C8.07309 8.2199 8.41548 7.49578 8.72301 6.76026ZM4.72105 14.2969C4.05164 13.5281 3.40322 12.7022 2.871 11.8189C3.14535 10.9639 3.55221 10.1273 3.98077 9.34544C5.02125 9.57879 6.13931 9.73439 7.22152 9.67958C7.6732 10.5416 8.16375 11.3847 8.71199 12.1899C8.30302 13.1044 7.95126 13.8473 7.63802 14.4748C6.65915 14.5698 5.68052 14.5105 4.72105 14.2969Z" fill="white" stroke="white" stroke-width="0.1"/>
</g>
<defs>
<clipPath id="clip0">
<rect width="16" height="16" fill="white"/>
</clipPath>
</defs>
</svg>
