<svg width="30" height="30" viewBox="0 0 30 30" fill="none" xmlns="http://www.w3.org/2000/svg">
<path d="M7.10048 17.1842C6.288 18.6999 5.54818 20.2897 5.02538 21.9172C3.6636 21.3247 2.30546 20.5874 1.12855 19.67C0.498578 17.8482 0.238915 15.916 0.386186 14.0209C1.12676 12.5042 2.01353 11.0985 3.11884 9.83935C3.9281 10.3153 4.80756 10.755 5.68692 11.1587C6.13359 13.1674 6.61704 15.176 7.10048 17.1842ZM5.83708 10.7674C4.9597 10.4002 4.11731 9.96146 3.27432 9.48581C3.42288 8.15481 3.6077 6.85995 3.79278 5.56437C5.20537 3.89472 6.9132 2.59491 8.87971 1.70134C10.5312 2.21675 11.7046 2.80231 12.3723 3.45455C11.6718 4.71454 11.1538 6.01353 10.928 7.42305C8.99755 8.64846 7.32491 9.76329 5.83708 10.7674ZM23.8076 6.2765C22.5771 4.42124 20.978 3.00669 18.9743 2.07034C19.0027 1.97724 19.0333 1.88141 19.0644 1.7842C19.1475 1.52407 19.2338 1.25403 19.2887 0.999986C22.5616 1.99539 25.3704 4.12591 27.264 6.97577C26.1922 6.40595 25.0501 6.14088 23.8076 6.2765ZM14.9813 30.05C23.286 30.05 30.05 23.286 30.05 14.9813C30.05 6.78919 23.3987 -0.05 14.9813 -0.05C6.67651 -0.05 -0.05 6.67651 -0.05 14.9813C-0.05 23.2859 6.67634 30.05 14.9813 30.05ZM29.4122 13.9108C29.3584 12.9267 29.2668 12.0173 29.1236 11.183C29.3799 12.1206 29.54 13.0968 29.6037 14.1118C29.5446 14.0437 29.4778 13.9764 29.4122 13.9108ZM26.034 16.0668C27.1726 15.5881 28.2782 15.0351 29.2063 14.2658C29.3419 14.4351 29.481 14.606 29.6504 14.7772C29.646 18.3142 28.5275 21.6631 26.2217 24.381C25.7567 24.6658 25.2222 24.8473 24.6852 24.9251C24.4998 23.856 24.2411 22.5746 23.8382 21.54C24.8048 19.8974 25.5121 17.8896 26.034 16.0668ZM19.1511 28.9047C21.0131 27.7864 22.8378 26.5577 24.6245 25.3293C24.9332 25.2972 25.2651 25.2156 25.5804 25.105C23.7931 26.9492 21.5942 28.3034 19.1511 29.0341V28.9047ZM14.4509 27.5417C15.8583 28.0602 17.3045 28.5791 18.7515 28.9526V29.1378C15.2396 30.0887 11.4376 29.6503 8.21507 27.9671C8.44908 27.7577 8.65241 27.5177 8.82505 27.2474C10.6875 27.6535 12.5507 27.7639 14.4509 27.5417ZM16.2784 12.2341C14.8255 10.412 13.1875 8.81098 11.3277 7.46818C11.5526 6.10605 12.0324 4.81663 12.7673 3.59968C14.6637 2.96936 16.6717 2.59723 18.6812 2.37329C20.6806 3.2648 22.2749 4.67175 23.4645 6.52205C22.9808 7.71452 22.3878 9.31 21.7944 11.2359C20.0552 11.9347 18.1321 12.1951 16.2784 12.2341ZM16.326 12.6329C18.1813 12.5567 20.1478 12.2958 21.8977 11.6313C23.2317 12.9666 24.5632 14.4107 25.6752 15.9639C25.1166 17.75 24.4483 19.7489 23.4875 21.3438C21.2594 22.0477 18.9943 22.4567 16.6921 22.6074C15.6927 21.1245 14.7665 19.5317 13.9135 17.9014C14.0941 17.5157 14.2765 17.1299 14.4592 16.7436C15.1016 15.3848 15.7471 14.0198 16.326 12.6329ZM8.82842 26.8462C7.56473 25.3958 6.33954 23.8358 5.33541 22.1659C5.85446 20.542 6.62833 18.9538 7.44143 17.4728C9.40824 17.9159 11.5225 18.2113 13.5661 18.1041C14.4198 19.7351 15.3473 21.3298 16.3849 22.8515C15.6089 24.5875 14.9425 25.9946 14.3496 27.1814C12.4968 27.3638 10.6443 27.2521 8.82842 26.8462Z" fill="white" stroke="white" stroke-width="0.1"/>
</svg>
