<svg width="10" height="12" viewBox="0 0 10 12" fill="none" xmlns="http://www.w3.org/2000/svg">
<path d="M0.212905 5.93618C0.496974 6.24338 0.957544 6.24338 1.24157 5.93618L4.23838 2.69401L4.23838 11.213C4.23838 11.6477 4.56411 12 4.96576 12C5.36749 12 5.69313 11.6477 5.69313 11.213L5.69313 2.69042L8.75832 6.00656C9.04234 6.31375 9.50296 6.31375 9.78698 6.00656C10.071 5.69918 10.071 5.20099 9.78698 4.89371L5.61677 0.382096C5.59523 0.358793 5.57231 0.337731 5.54887 0.31807C5.41648 0.125388 5.20485 -2.27511e-07 4.96584 -2.17064e-07C4.73418 -2.06937e-07 4.52819 0.117636 4.39503 0.300278C4.39106 0.304249 4.387 0.307751 4.38316 0.311907L0.213035 4.82352C-0.0709904 5.13057 -0.0709905 5.62895 0.212905 5.93618Z" fill="#26D345"/>
</svg>
