<svg width="10" height="12" viewBox="0 0 10 12" fill="none" xmlns="http://www.w3.org/2000/svg">
<path d="M9.78709 6.06382C9.50303 5.75662 9.04246 5.75662 8.75843 6.06382L5.76162 9.30599L5.76162 0.786983C5.76162 0.352303 5.43589 5.44264e-08 5.03424 5.92161e-08C4.63251 6.40067e-08 4.30687 0.352303 4.30687 0.786983L4.30687 9.30958L1.24168 5.99344C0.957657 5.68625 0.497045 5.68625 0.213018 5.99344C-0.0710067 6.30082 -0.0710067 6.79901 0.213019 7.10629L4.38323 11.6179C4.40477 11.6412 4.42769 11.6623 4.45113 11.6819C4.58351 11.8746 4.79515 12 5.03416 12C5.26582 12 5.47181 11.8824 5.60497 11.6997C5.60894 11.6958 5.613 11.6922 5.61684 11.6881L9.78696 7.17648C10.071 6.86943 10.071 6.37105 9.78709 6.06382Z" fill="#FF1C45"/>
</svg>
